<svg width="204" height="42" viewBox="0 0 204 42" fill="none" xmlns="http://www.w3.org/2000/svg">
<path d="M197.006 8.13902L190.045 15.9802V8.13902H185.008V27.9355H190.045V19.6021L197.496 27.9355H204.002V27.9353L194.837 17.5625L203.338 8.13902H197.006Z" fill="#EF3124"/>
<path d="M176.123 15.5231H169.163V8.13902H164.125V27.9355H169.163V20.1293H176.123V27.9355H181.161V8.13902H176.123V15.5231Z" fill="#EF3124"/>
<path d="M29.9082 18.8636C29.7878 22.5548 29.3138 23.2942 27.25 23.2942V27.9355H28.0194C33.1678 27.9355 34.406 25.2629 34.5958 19.321L34.8055 12.7455H39.6328V27.9355H44.6701V8.1393H30.2582L29.9082 18.8636Z" fill="#EF3124"/>
<path d="M56.8058 23.5756H53.5526V18.5473H56.8058C58.5549 18.5473 59.6043 19.321 59.6043 20.9734C59.6043 22.7667 58.5899 23.5756 56.8058 23.5756ZM57.1905 14.1519H53.5526V8.13902H48.5156V27.9355H57.2608C62.7525 27.9355 64.7113 24.349 64.7113 20.9734C64.7113 16.6134 61.9831 14.1519 57.1905 14.1519Z" fill="#EF3124"/>
<path d="M81.1176 23.6108V12.4292C83.9161 12.8159 85.6649 14.9256 85.6649 18.0199C85.6649 21.1141 83.9161 23.2238 81.1176 23.6108ZM76.0806 23.6108C73.2822 23.2238 71.5331 21.1141 71.5331 18.0199C71.5331 14.9256 73.2822 12.8159 76.0806 12.4292V23.6108ZM81.1176 7.68198V0.332802H76.0806V7.68198C70.3089 8.17424 66.4258 12.2885 66.4258 18.0199C66.4258 23.7865 70.3089 27.9007 76.0806 28.3926V35.8477H81.1176V28.3926C86.8893 27.9356 90.7722 23.7865 90.7722 18.0199C90.7722 12.2533 86.8893 8.13906 81.1176 7.68198Z" fill="#EF3124"/>
<path d="M104.623 20.5511C104.623 22.8368 103.014 24.1379 100.915 24.1379C99.096 24.1379 97.6619 23.4697 97.6619 21.5004C97.6619 19.5666 99.2358 19.2503 100.6 19.2503H104.623V20.5511ZM109.66 21.8523V15.2067C109.66 10.3542 106.582 7.29461 101.405 7.29461C96.0528 7.29461 93.2193 10.5299 92.9744 13.9056H98.0816C98.2564 13.167 99.0261 11.9014 101.405 11.9014C103.364 11.9014 104.623 12.8155 104.623 15.2067H99.6207C95.1432 15.2067 92.4844 17.5624 92.4844 21.5004C92.4844 25.6147 95.3926 28.4277 99.5858 28.4277C102.66 28.4277 104.367 26.967 105.112 25.8606C105.777 27.1967 107.246 27.9352 109.17 27.9352H110.919V23.3642C110.01 23.3642 109.66 22.9423 109.66 21.8523Z" fill="#EF3124"/>
<path d="M130.997 22.9427H125.61V15.7694H130.997C133.796 15.7694 135.37 17.0705 135.37 19.3559C135.37 21.7119 133.796 22.9427 130.997 22.9427ZM131.242 10.9518H125.61V5.36113H138.658V0.332769H120.328V27.9355H131.242C137.294 27.9355 140.757 24.9117 140.757 19.3559C140.757 14.117 137.294 10.9518 131.242 10.9518Z" fill="#EF3124"/>
<path d="M154.998 20.5511C154.998 22.8368 153.389 24.1379 151.29 24.1379C149.471 24.1379 148.037 23.4697 148.037 21.5004C148.037 19.5666 149.611 19.2503 150.975 19.2503H154.998V20.5511ZM160.035 21.8523V15.2067C160.035 10.3542 156.957 7.29461 151.78 7.29461C146.428 7.29461 143.594 10.5299 143.349 13.9056H148.456C148.631 13.167 149.401 11.9014 151.78 11.9014C153.738 11.9014 154.998 12.8155 154.998 15.2067H149.995C145.518 15.2067 142.859 17.5624 142.859 21.5004C142.859 25.6147 145.768 28.4277 149.96 28.4277C153.035 28.4277 154.742 26.967 155.487 25.8606C156.152 27.1967 157.621 27.9352 159.545 27.9352H161.294V23.3642C160.384 23.3642 160.035 22.9423 160.035 21.8523Z" fill="#EF3124"/>
<path d="M26.9349 42H0V36.3738H26.9349V42Z" fill="#EF3124"/>
<path d="M9.61848 17.4924L13.3964 6.20519H13.5361L17.1043 17.4924H9.61848ZM18.3623 4.12163C17.5942 1.81938 16.7092 0.000938416 13.6761 0.000938416C10.6432 0.000938416 9.70108 1.81206 8.89275 4.12163L0.558594 27.9355H6.08558L8.00938 22.2745H18.6434L20.4272 27.9355H26.3041L18.3623 4.12163Z" fill="#EF3124"/>
</svg>
