<svg width="188" height="31" viewBox="0 0 188 31" fill="none" xmlns="http://www.w3.org/2000/svg">
<path fill-rule="evenodd" clip-rule="evenodd" d="M0 18.7722C0 24.8606 3.39636 31 11.0018 31C18.6003 31 22.0033 24.8606 22.0033 18.7722C22.0033 14.6138 20.6076 9.82533 18.2784 5.95667C16.0132 2.2216 13.2913 0 11.0018 0C8.70536 0 5.98275 2.2216 3.73713 5.95667C1.39643 9.82533 0 14.6138 0 18.7722ZM78.1123 9.13406H70.4109V1.66078H94.0644V9.13406H86.3635L86.3632 29.3393H78.1118L78.1123 9.13406ZM111.663 9.13417H123.766V1.6609H111.665C100.545 1.6609 94.6081 7.22426 94.6081 15.5002C94.6081 23.7761 100.545 29.3395 111.665 29.3395H123.766V21.8662H111.663C106.518 21.8662 103.134 20.0152 103.134 15.5002C103.134 10.9851 106.518 9.13417 111.663 9.13417ZM49.2279 18.1818L53.6268 1.6609H68.2074V29.3395H59.9566V6.81182L53.9583 29.3395H44.4977L38.5033 6.82587V29.3395H30.2519V1.6609H44.829L49.2279 18.1818ZM138.816 9.68375H135.906V12.3912H138.816C139.553 12.3912 139.992 12.0104 139.992 11.3081V10.8066C139.992 10.0845 139.613 9.68375 138.816 9.68375ZM139.553 15.5002H132.019V1.66053H143.1V4.97028H135.906V6.77513H139.553C142.602 6.77513 144.077 8.29954 144.077 10.9871C144.077 13.8153 142.602 15.5002 139.553 15.5002ZM153.043 9.84385H149.974L151.508 4.72965L153.043 9.84385ZM158.942 15.5002L154.697 1.6609H148.917L144.672 15.5002H148.3L149.077 12.8525H153.94L154.737 15.5002H158.942ZM168.766 15.5002V10.145H164.322V15.5002H160.336V1.6609H164.322V6.73526H168.766V1.6609H172.753V15.5002H168.766ZM179.829 6.73514H179.131V1.66078H175.144V15.5H179.131V10.1449H179.708L183.396 15.5H188L183.018 8.25956L187.602 1.66078H183.396L179.829 6.73514Z" fill="#E30611"/>
</svg>
