<svg width="237" height="49" viewBox="0 0 237 49" fill="none" xmlns="http://www.w3.org/2000/svg">
<path fill-rule="evenodd" clip-rule="evenodd" d="M11.4313 48.2113C13.8617 44.0657 15.2005 36.1787 15.7154 22.3665H17.4868C18.0017 36.199 19.3405 44.0859 21.7503 48.2113C20.1438 48.7168 18.393 49 16.6011 49C14.8092 49 13.079 48.737 11.4313 48.2113ZM198.278 34.9047C198.278 35.7743 198.01 36.5226 197.433 37.1898C196.651 38.0595 195.456 38.5044 193.87 38.5044H189.298V26.2089H197.269V28.3726H191.81V30.9613H193.85C195.497 30.9613 196.671 31.4061 197.433 32.3363C198.01 33.0037 198.278 33.8531 198.278 34.9047ZM195.641 34.7226C195.641 34.0958 195.436 33.6508 195.065 33.3476C194.673 33.024 194.117 32.8621 193.417 32.8621H191.831V36.5428H193.417C194.117 36.5428 194.673 36.4011 195.065 36.0979C195.415 35.7945 195.641 35.3294 195.641 34.7226ZM212.429 38.5044H209.607L208.535 35.7541H203.386L202.314 38.5044H199.597L204.58 26.2089H207.443L212.429 38.5044ZM207.774 33.7116L205.94 28.676L204.168 33.7116H207.774ZM224.066 38.5044H221.532V33.1654H216.485V38.5044H213.952V26.2089H216.485V31.1634H221.532V26.2089H224.066V38.5044ZM237 38.5044H233.766L229.131 32.3768L229.07 38.5044H226.536V26.2089H229.07V31.4668L233.644 26.2089H236.651L231.439 31.75L237 38.5044ZM175.481 45.0363H176.573V20.3847H175.481V45.0363ZM66.4456 40.5065H61.0491V24.1664H72.1715C77.8563 24.1664 77.8563 28.7569 77.8563 29.7681C77.8563 30.8398 77.8563 35.7945 72.1715 35.7945H66.4456V40.5065ZM66.425 28.2109V31.7297H70.2972C70.9769 31.7297 72.4804 31.7297 72.4804 29.9096C72.4804 28.2311 70.9563 28.2311 70.3589 28.2311H66.425V28.2109ZM75.1787 40.5065H80.8429L82.161 37.1494H88.1959L89.473 40.5065H98.5149L102.799 28.7165L107.083 40.5065H112.768L105.703 24.1664H99.792L93.963 37.7763L88.2165 24.1664H82.161L75.1787 40.5065ZM85.1681 28.7771L86.8982 33.388H83.4586L85.1269 28.7367L85.1681 28.7771ZM157.237 30.3747C162.921 30.3747 162.921 33.5497 162.921 35.3294C162.921 37.1898 162.921 40.5267 157.298 40.5267H146.341V24.1866H162.118V28.2716H151.737V30.3949H157.237V30.3747ZM156.351 36.7045C157.546 36.7045 157.546 35.7743 157.546 35.39C157.546 35.026 157.546 34.1969 156.33 34.1969H151.737V36.7247H156.351V36.7045ZM51.6777 40.5065H45.8281L48.4851 35.8956L41.8117 24.1664H47.8467L51.3069 31.123L54.7877 24.1664H60.6373L51.6777 40.5065ZM125.991 40.5065H118.618C114.56 40.5065 111.409 37.2302 111.409 32.5589C111.409 27.301 114.581 24.1664 118.679 24.1664H125.991V28.2514H121.274C118.35 28.2514 116.805 29.1007 116.805 32.478C116.805 35.8349 118.391 36.4619 121.274 36.4619H125.991V40.5065ZM145.249 40.5065H139.853V28.9794L133.55 40.5065H127.103V24.1664H132.52V35.4103L138.679 24.1664H145.249V40.5065ZM16.6217 21.3554C24.8399 21.3554 31.8429 26.9369 31.8429 34.1363C31.8429 36.4213 31.0807 38.747 29.6183 40.8907C25.7256 37.291 22.2858 30.6983 20.9677 22.8922C20.8234 22.8315 19.6494 22.5688 18.7432 22.5082C18.7432 23.6405 19.7112 40.4052 25.746 46.3507C30.2156 43.4185 33.2022 38.3627 33.2022 32.6801C33.2022 24.874 27.6615 18.3421 20.2261 16.7243C19.8348 11.4664 19.8348 9.34297 19.7936 6.73421H18.4754C18.4754 6.75445 18.5372 14.0549 18.5578 16.4614C18.1047 16.4007 17.6515 16.3805 17.1572 16.3401C17.1572 12.1337 17.1572 4.46925 17.1366 0H16.045C16.0244 4.46925 16.0244 12.1539 16.0244 16.3401C15.5301 16.3603 15.0769 16.4007 14.6238 16.4614C14.6444 14.0549 14.7062 6.77466 14.7062 6.73421H13.3674C13.3674 9.34297 13.3674 11.4664 12.976 16.7243C5.54057 18.3421 0 24.874 0 32.6801C0 38.3829 2.94535 43.4185 7.45606 46.3507C13.491 40.4052 14.459 23.6405 14.459 22.5082C13.5527 22.5688 12.3787 22.8315 12.2345 22.8922C10.8958 30.6983 7.47667 37.291 3.58386 40.8907C2.10087 38.7672 1.35939 36.4213 1.35939 34.1363C1.40059 26.9167 8.36234 21.3554 16.6217 21.3554Z" fill="#0E3263"/>
</svg>
