<svg width="248" height="32" viewBox="0 0 248 32" fill="none" xmlns="http://www.w3.org/2000/svg">
<path d="M72.2896 9.05469C70.2179 9.05469 68.4468 10.7575 68.4468 12.7804V15.9884H63.1335V9.05469H62.9534C60.8816 9.05469 59.1094 10.7575 59.1094 12.7804V25.4821H59.2895C61.3624 25.4821 63.1335 23.7804 63.1335 21.7564V18.6581H68.4468V25.4821H72.4686V9.05469H72.2896Z" fill="black"/>
<path d="M232.149 9.05469C230.077 9.05469 228.306 10.7575 228.306 12.7804V15.9884H222.992V9.05469H222.812C220.74 9.05469 218.969 10.7575 218.969 12.7804V25.4821H219.15C221.219 25.4821 222.992 23.7804 222.992 21.7564V18.6581H228.306V25.4821H232.327V9.05469H232.149Z" fill="black"/>
<path d="M49.5099 22.5778C47.0486 22.5778 45.4225 18.6475 45.4225 14.0407C45.4225 9.43611 47.1375 6.21097 49.5099 6.21097C51.8799 6.21097 53.6837 9.43611 53.6837 14.0407C53.6837 19.2555 52.1337 22.5778 49.5099 22.5778ZM49.5099 3.04297C44.8423 3.04297 41.8207 6.9744 41.4007 12.6933H36.6501V3.3664H36.6197C34.3093 3.3664 32.5078 5.15497 32.5078 7.35497V25.4818H32.5394C34.8065 25.4635 36.6501 23.6521 36.6501 21.4041V15.6258H41.4007C41.7587 20.9927 44.792 25.8315 49.5099 25.8315C54.9214 25.8315 57.7968 20.7184 57.7968 14.0704C57.7968 7.85325 54.7354 3.04297 49.5099 3.04297Z" fill="black"/>
<path d="M86.7905 9.05469C85.4721 9.05469 84.2906 9.46726 83.3465 10.9324L78.0999 19.8501V9.05469H74.0781V25.4821H75.7814C77.0799 25.4821 78.2625 25.0718 79.2253 23.6044L84.7667 14.3827V21.7564C84.7667 23.7804 86.5366 25.4821 88.6072 25.4821H88.7897V9.05469H86.7905Z" fill="black"/>
<path d="M167.678 9.05469C166.361 9.05469 165.175 9.46726 164.236 10.9324L158.988 19.8501V9.05469H154.965V25.4821H156.67C157.968 25.4821 159.15 25.0718 160.112 23.6044L165.653 14.3827V21.7564C165.653 23.7804 167.424 25.4821 169.496 25.4821H169.674V9.05469H167.678Z" fill="black"/>
<path d="M103.076 17.4715C102.144 15.4178 100.752 13.9515 98.7391 13.1892L105.984 3.36523H101.469L94.4704 13.1001V3.40866H94.3815C92.0688 3.40866 90.3281 5.04981 90.3281 7.27952V25.4807H90.4182C92.7297 25.4807 94.4704 23.8384 94.4704 21.6098V14.8589C96.5422 14.8589 98.105 16.2098 98.8537 17.9675L101.83 25.4807H106.387L103.076 17.4715Z" fill="black"/>
<path d="M182.64 9.05469H170.543V12.1953H174.612V25.4821H174.792C176.892 25.4821 178.571 23.8078 178.571 21.785V12.1953H182.64V9.05469Z" fill="black"/>
<path d="M140.97 22.4901C142.833 20.561 143.722 17.0913 144.143 14.425L144.413 12.049H147.535L148.496 22.4901H140.97ZM152.218 22.3735L150.837 9.05469H141.201L140.601 13.0444C140.06 16.5941 139.209 21.0558 135.953 22.9587L136.222 29.7633H136.437C138.024 29.7633 139.312 28.5061 139.312 26.953L139.365 25.4821H150.332L150.482 29.7633H150.695C152.285 29.7633 153.572 28.5061 153.572 26.953L153.713 22.9587L152.218 22.3735Z" fill="black"/>
<path d="M245.397 20.2315C244.506 18.5081 243.447 17.1915 241.855 16.5469L247.812 9.05664H243.479L237.713 16.4589V9.05664H233.688V25.4818H233.868C235.941 25.4818 237.713 23.7812 237.713 21.7572V18.0166C239.392 18.0166 240.594 19.2349 241.255 20.6715L243.673 25.4818H248.001L245.397 20.2315Z" fill="black"/>
<path d="M195.9 22.7775L193.467 22.7729V14.9249C193.978 14.8072 194.879 14.6392 195.659 14.6392C198.57 14.6392 200.273 16.3329 200.273 18.4289C200.273 20.6849 198.633 22.7775 195.9 22.7775ZM196.08 11.6449C195.091 11.6449 194.038 11.8095 193.467 11.9558V6.7969H198.798C200.705 6.7969 202.25 5.28833 202.25 3.42547V3.36719H189.445V25.4815H195.961C200.838 25.4815 204.476 22.9112 204.476 18.5146C204.476 14.7478 201.455 11.6449 196.08 11.6449Z" fill="black"/>
<path d="M125.351 16.1244C125.351 13.2204 126.402 11.6661 128.652 11.609H128.805C129.915 11.609 131.986 11.9598 132.107 15.2158L125.351 16.1244ZM135.589 16.8284C135.589 11.9015 133.156 9.05469 128.774 9.05469C124.33 9.05469 121.629 12.3118 121.629 17.329C121.629 22.489 124.541 25.7164 129.435 25.7164C132.135 25.7164 134.028 25.0707 135.048 24.5427V21.2878C134.028 21.9918 132.617 22.8707 129.825 22.8707C127.304 22.8707 125.921 21.4638 125.592 18.7941L135.589 17.4455V16.8284Z" fill="black"/>
<path d="M214.201 23.4867C213.812 23.5758 212.821 23.633 211.981 23.633C209.819 23.633 208.558 22.7244 208.558 20.7004C208.558 17.9724 210.69 17.2684 214.201 16.9461V23.4867ZM204.984 20.8181C204.984 23.8993 207.297 25.7164 211.739 25.7164H212.581C214.14 25.7164 216.725 25.481 217.836 25.2753V14.8341C217.836 10.7278 215.013 9.05469 211.62 9.05469C209.038 9.05469 207.058 9.79069 206.008 10.2878V12.8993C207.779 11.9895 209.369 11.4021 210.96 11.4021C212.882 11.4021 214.201 11.9598 214.201 14.0421V15.1278C209.19 15.5975 204.984 16.5941 204.984 20.8181Z" fill="black"/>
<path d="M112.577 23.1949C112.006 23.1949 111.555 23.1355 111.165 22.9904V11.8144C111.675 11.6384 112.185 11.5504 112.846 11.5504C115.46 11.5504 116.6 13.3984 116.6 17.3286C116.6 19.9675 115.91 23.1949 112.577 23.1949ZM112.936 9.05664C110.658 9.05664 108.764 9.43721 107.293 10.2006L107.203 10.2601V31.9938H107.414C109.484 31.9938 111.165 30.3229 111.165 28.2978V25.4544C111.736 25.5995 112.518 25.7172 113.388 25.7172C117.74 25.7172 120.593 22.3149 120.593 17.2109C120.593 12.1366 117.71 9.05664 112.936 9.05664Z" fill="black"/>
<path fill-rule="evenodd" clip-rule="evenodd" d="M14.5735 7.064C14.5817 7.05257 14.5899 7.04 14.5992 7.02743C14.8157 6.72 14.7256 6.49143 14.5805 6.36914C14.4893 6.29029 12.3181 5.00571 12.3181 5.00571C12.1614 4.90286 12.0572 4.728 12.0572 4.528C12.0572 4.21371 12.2503 3.976 12.6878 3.85829C14.0834 3.48343 18.9907 3.28686 20.6589 3.28686C21.2368 3.28686 22.2334 3.28457 23.1283 3.30971L23.0886 3.272C20.6437 1.232 17.4688 0 14.0015 0C6.26785 0 0 6.12229 0 13.6777C0 16.9989 1.21075 20.0423 3.22517 22.4126C4.98457 19.9406 9.32691 13.8503 10.278 12.6057C11.3741 11.1714 13.8751 7.98286 14.2974 7.44229L14.3185 7.41714L14.5735 7.064Z" fill="#E2001A"/>
<path fill-rule="evenodd" clip-rule="evenodd" d="M5.46325 24.5209C7.82627 26.2991 10.7859 27.3563 14.0005 27.3563C21.733 27.3563 28.0008 21.2329 28.0008 13.6786C28.0008 11.3917 27.4265 9.23743 26.4122 7.34371L26.4134 7.34486C26.8954 6.89114 27.451 6.17343 27.086 5.27286C26.9714 5.00543 26.4274 4.39743 26.2871 4.25L26.3069 4.30257C26.6474 5.30714 25.9735 5.93686 25.4892 6.36429C25.2237 6.60086 21.6686 9.87514 17.4994 13.4363C13.8239 16.5757 9.71434 19.77 7.33261 21.5117C3.98344 23.9597 3.33185 24.3163 3.33185 24.3163C3.24295 24.3631 3.09555 24.4031 2.98793 24.4031C2.78321 24.4031 2.6054 24.314 2.4931 24.17L2.48959 24.1666C2.47204 24.2089 2.46619 24.2454 2.4814 24.2706C2.84053 24.8397 3.43596 25.4969 3.7834 25.4969C3.89102 25.4969 4.03959 25.4569 4.12849 25.4111C4.12849 25.4111 4.3917 25.2683 5.46325 24.5209Z" fill="#E2001A"/>
<path fill-rule="evenodd" clip-rule="evenodd" d="M14.5941 7.02666C14.8093 6.72038 14.7192 6.4918 14.5753 6.36838C14.4841 6.29066 12.3129 5.00495 12.3129 5.00495C12.1562 4.90209 12.0521 4.72838 12.0521 4.52838C12.0521 4.21295 12.2451 3.97638 12.6826 3.85752C14.077 3.48266 18.9855 3.28723 20.6525 3.28723C21.4398 3.28723 22.9992 3.28152 24.0251 3.3478C25.1762 3.42095 26.05 3.65409 26.2664 4.19809C26.6934 5.26438 25.988 5.92266 25.4873 6.36609C25.223 6.60152 21.6679 9.87581 17.4987 13.4369C13.8232 16.5764 9.71243 19.7695 7.33187 21.5124C3.9827 23.9604 3.33111 24.3169 3.33111 24.3169C3.24221 24.3638 3.09481 24.4038 2.98602 24.4038C2.63975 24.4038 2.36719 24.1444 2.36719 23.8038C2.36719 23.6758 2.40696 23.5547 2.47715 23.4575C2.47715 23.4575 9.07138 14.1752 10.2728 12.6049C11.473 11.0369 14.3531 7.3638 14.3531 7.3638C14.3531 7.3638 14.387 7.32266 14.5941 7.02666Z" fill="#FEFEFE"/>
</svg>
