<svg width="198" height="36" viewBox="0 0 198 36" fill="none" xmlns="http://www.w3.org/2000/svg">
<path d="M59.8856 8.87429C60.6733 8.79626 61.4686 8.87838 62.2232 9.11562C62.9779 9.35287 63.676 9.74029 64.2751 10.2543C64.8742 10.7683 65.3617 11.3981 65.7079 12.1053C66.0542 12.8126 66.2519 13.5824 66.289 14.3681V15.0906C66.289 18.8496 63.8153 21.018 59.8856 21.018H52.0288V27.0903H48.6797V8.87429H59.8856ZM60.0314 17.8375C60.7431 17.8849 61.4453 17.6546 61.9888 17.1956C62.5322 16.7365 62.8741 16.085 62.9416 15.3794V14.9457C63.0162 14.1793 62.7828 13.4147 62.2922 12.8187C61.8016 12.2227 61.0937 11.8437 60.3229 11.7643H51.8814V17.8366L60.0314 17.8375Z" fill="black"/>
<path d="M78.4923 27.3852C72.6728 27.3852 67.8711 23.4822 67.8711 17.8411C67.8711 12.1999 72.6737 8.29688 78.4923 8.29688C84.311 8.29688 89.1136 12.1999 89.1136 17.8411C89.1136 23.4822 84.311 27.3852 78.4923 27.3852ZM78.4923 11.3376C76.738 11.2098 75.004 11.7764 73.6685 12.914C72.3331 14.0515 71.5045 15.6677 71.3635 17.4099V17.8461C71.3635 21.6052 74.1279 24.352 78.4923 24.352C82.8568 24.352 85.6212 21.6052 85.6212 17.8461C85.6212 14.087 82.8568 11.3401 78.4923 11.3401" fill="black"/>
<path d="M102.762 27.3824C96.6508 27.3824 92.1406 23.4793 92.1406 17.8382C92.1406 12.1971 96.7966 8.294 102.762 8.294C105.814 8.18094 108.807 9.15511 111.2 11.0409L109.454 13.6521C107.584 12.1914 105.285 11.379 102.907 11.3389C98.3966 11.3389 95.6322 14.0858 95.6322 17.7017C95.6322 21.3176 98.3966 24.2077 102.907 24.2077C105.318 24.2436 107.673 23.4807 109.599 22.0393L111.345 24.6413C108.844 26.4262 105.841 27.385 102.762 27.3824Z" fill="black"/>
<path d="M139.221 22.4646L137.183 26.8013H133.547L142.421 8.73438H145.913L154.788 26.8055H151.15L149.113 22.4688L139.221 22.4646ZM140.676 19.5729H147.66L144.168 12.1996L140.676 19.5729Z" fill="black"/>
<path d="M172.538 26.9462V19.1392H160.607V26.9462H157.262V8.875H160.608V16.2483H172.539V8.875H175.882V26.9462H172.538Z" fill="black"/>
<path d="M180.977 26.9462V8.875H184.323V17.2597L193.489 8.875H197.563L188.251 17.5493L197.996 26.9462H193.486L184.323 18.1278V26.9462H180.977Z" fill="black"/>
<path d="M126.028 15.3843H118.171V11.6253H131.12V8.73438H114.68V26.8055H125.886C129.814 26.8055 132.578 24.6372 132.578 21.0229C132.578 17.4087 130.104 15.3843 126.031 15.3843H126.028ZM126.321 23.769H118.174V18.4209H126.321C128.359 18.4209 129.668 19.5771 129.668 21.1678C129.668 22.7585 128.649 23.9147 126.321 23.7698" fill="black"/>
<path d="M36.9875 0.0429688H0.46875V18.5478H36.9875V0.0429688Z" fill="#E9041E"/>
<path d="M36.9875 17.6348H0.46875V35.7059H36.9875V17.6348Z" fill="black"/>
<path d="M30.4536 16.6602H6.73828V18.8285H30.4536V16.6602Z" fill="white"/>
</svg>
