<svg width="191" height="48" viewBox="0 0 191 48" fill="none" xmlns="http://www.w3.org/2000/svg">
<path d="M59.4593 34.8002C57.7395 35.4002 55.9378 35.6574 54.3817 35.6574C49.4679 35.6574 44.2266 32.8288 44.2266 25.4574C44.2266 18.5145 48.9766 15.0859 55.1188 15.0859C56.6748 15.0859 57.9852 15.2574 59.4593 15.7717L59.2955 19.2002C58.149 18.7717 56.9205 18.4288 55.4464 18.4288C51.024 18.4288 48.4852 21.2574 48.4852 25.3717C48.4852 30.2574 51.6792 32.2288 55.2007 32.2288C56.9205 32.2288 58.3128 31.8002 59.2955 31.3716L59.4593 34.8002Z" fill="#00528E"/>
<path d="M105.318 15.2578V35.4007H101.305V18.6007H93.5248V35.4007H89.5938V15.2578H105.318Z" fill="#00528E"/>
<path d="M78.3754 15.2578L73.5435 29.7435L68.7116 15.2578H61.9961V35.4007H65.9271V18.1721H66.009L71.6599 35.4007H75.4271L81.078 18.1721H81.1599V35.4007H85.0909V15.2578H78.3754Z" fill="#00528E"/>
<path d="M128.987 15.2578V18.8578H120.388V23.0578H123.582C129.315 23.0578 130.543 27.0007 130.543 29.5721C130.543 31.715 129.151 35.4007 123.582 35.4007H116.457V15.2578H128.987ZM120.388 32.2292H122.845C125.056 32.2292 126.367 31.2864 126.367 29.1435C126.367 27.0864 125.056 26.0578 122.845 26.0578H120.388V32.2292Z" fill="#00528E"/>
<path d="M143.319 15.2578L151.1 35.4007H146.595L144.957 30.8578H136.85L135.212 35.4007H130.953L138.733 15.2578H143.319ZM143.811 27.515L140.945 19.2864H140.863L138.16 27.515H143.811Z" fill="#00528E"/>
<path d="M156.915 15.2578V23.4007H164.859V15.2578H168.79V35.4007H164.859V26.7435H156.915V35.4007H152.984V15.2578H156.915Z" fill="#00528E"/>
<path d="M177.634 15.2578V23.915H177.716L184.841 15.2578H189.591L181.483 24.4292L190.082 35.4864H185.005L177.634 25.3721H177.552V35.4007H173.703V15.2578H177.634Z" fill="#00528E"/>
<path d="M42.5867 1.02907C42.341 0.68621 39.147 2.4005 39.147 2.4005C39.2289 2.4005 39.3108 2.31478 39.3108 2.31478C39.966 1.88621 40.9487 1.28621 40.5392 0.857639C40.3755 0.600496 39.8841 0.771925 38.6556 1.45764C38.0823 1.8005 35.0522 3.17192 32.022 4.54335C29.4013 5.74335 24.8151 7.8005 24.4056 8.31478C24.4056 8.31478 24.4056 8.31478 24.3237 8.4005C24.2418 8.48621 24.2418 8.57192 24.1599 8.65764C23.9961 9.0005 23.8324 9.6005 23.6686 10.3719V10.4576C23.6686 10.5434 23.6686 10.5434 23.6686 10.5434C23.5048 11.4862 23.2591 12.6862 23.0953 14.0576C22.522 18.0862 21.9487 24.0005 21.9487 24.0005C21.9487 24.0005 21.7849 28.0291 21.4574 30.0005C21.3755 30.3434 21.2936 30.6005 21.2936 30.8576C21.2936 30.9434 21.2117 31.0291 21.2117 31.2005C21.0479 31.5434 20.8841 31.8862 20.6384 32.1434C19.9013 33.0005 18.1815 32.7434 17.6901 32.6576C16.5436 32.5719 15.397 31.6291 15.3151 31.4576C15.1513 31.2005 14.4142 30.0862 13.3496 30.0005C13.022 30.0005 11.7936 30.1719 11.466 30.1719C11.0565 30.1719 10.4832 29.5719 9.82804 29.4862C9.17287 29.4005 8.19011 30.0862 8.19011 30.0862C8.19011 30.0862 10.7289 31.1148 11.0565 31.5434C11.3841 31.9719 12.1211 33.1719 13.022 33.6005C13.9229 34.0291 17.1987 37.8862 17.1987 37.8862C17.1987 37.8862 17.8539 38.5719 18.9186 39.5148C18.0177 39.8576 16.953 40.1148 15.8884 40.2005C8.68149 41.0576 2.45735 36.0862 1.72028 28.6291C1.55649 27.0005 1.63838 25.3719 2.04787 23.8291C2.45735 22.0291 3.19442 20.2291 4.42287 18.6005C6.55218 15.7719 9.58235 13.8862 13.1039 13.5434C15.2332 13.2862 17.4444 13.6291 19.4099 14.4005C19.4099 14.1434 19.4099 13.9719 19.328 13.7148C17.3625 12.8576 15.2332 12.6005 12.9401 12.8576C9.33666 13.2862 6.14269 15.0862 3.84959 18.0005C2.21166 20.0576 1.2289 22.4576 0.983212 25.0291C0.901316 25.3719 0.901316 25.6291 0.819419 26.1434C0.737523 27.0005 0.737523 28.7148 0.901316 29.5719C1.72028 37.0291 8.27201 42.5148 15.6427 41.6576C17.1987 41.4862 18.6729 41.0576 20.0651 40.3719C21.1298 41.2291 22.4401 42.0005 23.7505 42.6862C27.1901 44.3148 31.3668 44.4005 32.3496 44.4862C34.3151 44.7434 36.0349 47.3148 36.6082 47.8291C37.1815 48.3433 40.8668 47.4862 40.8668 47.4862C40.8668 47.4862 40.6211 46.7148 40.4574 45.6862C40.2936 44.6576 39.2289 44.2291 39.0651 43.9719C38.9013 43.7148 34.1513 41.4862 33.3323 40.9719C32.5953 40.4576 31.6125 39.4291 30.6298 37.7148C29.647 36.0005 30.0565 34.6291 30.2203 34.3719C30.3841 34.0291 30.7936 34.0291 31.0392 33.5148C31.2849 33.0862 31.1211 33.0862 31.0392 32.8291C31.0392 32.5719 31.1211 32.4862 31.2849 32.0576C31.4487 31.7148 31.4487 31.7148 31.4487 31.7148C31.4487 31.7148 31.4487 31.7148 31.5306 31.2862C31.6125 30.8576 31.5306 31.2862 31.6125 31.1148C31.6944 30.9434 31.6944 30.9434 31.6944 30.9434C31.6944 30.9434 31.6944 30.6862 31.7763 30.6005C31.8582 30.5148 31.6125 30.2576 31.6944 30.0862C31.7763 29.9148 31.7763 29.9148 31.8582 29.4862C31.9401 29.1434 31.8582 29.3148 31.9401 28.8862C31.9401 28.5434 32.1039 28.7148 32.2677 28.4576C32.4315 28.2005 32.1039 27.9433 32.1039 27.9433C32.1039 27.9433 32.1039 27.7719 32.5134 27.0862C32.841 26.3148 32.5134 27.0862 32.5953 26.7434C32.7591 26.4005 32.4315 26.1434 32.4315 25.8862C31.8582 25.6291 32.022 25.7148 32.022 25.3719C32.1039 25.0291 32.022 25.3719 32.1858 25.0291C32.3496 24.6862 32.2677 24.5148 32.2677 24.5148L32.022 23.7434C32.022 23.7434 32.022 23.7434 32.1858 23.5719C32.3496 23.4005 32.1858 22.9719 32.1858 22.9719L31.8582 22.1148C31.8582 22.1148 31.8582 21.7719 31.9401 21.5148C32.022 21.3434 31.6944 20.4005 31.6944 20.4005L31.8582 19.5434L31.6125 18.2576L31.4487 17.1434C31.4487 17.1434 31.3668 15.5148 31.3668 14.8291C31.3668 14.2291 31.3668 13.4576 31.5306 12.6005C31.6944 11.7434 33.9875 10.7148 34.3151 10.2005C34.5608 9.68621 32.9229 10.2862 32.9229 10.2862C32.9229 10.2862 35.953 9.42907 36.1168 9.0005C36.2806 8.65764 34.1513 9.08621 34.1513 9.08621C33.9875 9.17192 34.1513 9.08621 34.1513 9.08621C34.9703 8.91478 37.0996 8.31478 37.8367 7.71478C38.6556 6.94335 36.3625 7.54335 36.0349 7.62907C36.4444 7.54335 38.9013 6.77192 39.2289 6.0005C39.3927 5.57192 37.3453 5.91478 37.3453 5.91478C38.4099 5.65764 39.6384 5.31478 40.3755 4.8005C41.8496 4.02907 42.0134 3.42907 41.6858 3.25764C41.3582 3.08621 38.9013 3.94335 38.9013 3.94335C38.8194 3.94335 38.8194 3.94335 38.7375 4.02907C38.8194 4.02907 38.9013 3.94335 38.9013 3.94335C39.6384 3.68621 40.3755 3.34335 40.8668 3.0005C41.7677 2.4005 42.9142 1.54335 42.5867 1.02907ZM38.6556 2.65764C38.8194 2.57192 38.9013 2.57192 38.9832 2.48621C38.8194 2.48621 38.7375 2.57192 38.6556 2.65764Z" fill="#00528E"/>
<path d="M36.1164 0.0856813C35.8707 -0.171462 34.3147 0.599967 34.3147 0.599967C34.3147 0.599967 25.0603 5.22854 20.9655 7.45711C20.0647 7.9714 19 8.74282 19 10.2C19 15 19.9009 22.0285 20.3922 25.7143C20.8017 29.4 21.2112 30.9428 21.1293 31.0285C21.1293 30.9428 21.2931 30.6 21.4569 29.9143C21.8664 28.0285 21.9483 23.9143 21.9483 23.9143C21.9483 23.9143 22.5216 17.9143 23.0948 13.9714C23.5043 11.3143 23.75 9.1714 24.3233 8.31425C24.6509 7.71425 32.1853 4.45711 33.4957 3.7714C35.1336 2.99997 35.2974 2.82854 35.2974 2.22854C35.3793 1.62854 33.6595 2.31425 33.6595 2.31425C33.6595 2.31425 35.1336 1.45711 35.7069 1.11425C36.0345 0.771395 36.3621 0.342824 36.1164 0.0856813ZM5.07759 17.4L7.45259 13.8857L4.50431 16.9714L3.11207 11.9143L3.35776 17.0571L0.900862 15.4285L3.11207 17.8285L0 18.6857L3.19397 18.5143L0.573276 22.2857L3.68535 19.1143L4.99569 23.8285L4.75 19.1143L7.2069 20.5714L4.91379 18.1714L8.02586 17.2285L5.07759 17.4Z" fill="#00A1E9"/>
</svg>
