<svg width="183" height="18" viewBox="0 0 183 18" fill="none" xmlns="http://www.w3.org/2000/svg">
<path d="M13.2077 13.4025C12.1365 14.2596 10.7997 14.7259 9.4218 14.7231C6.10227 14.7231 3.43789 12.1263 3.43789 8.89138C3.43789 5.6577 6.10102 3.06086 9.4218 3.06086C10.8666 3.05473 12.2635 3.57304 13.3477 4.51756L15.452 2.46853C13.7974 0.9953 11.6481 0.183014 9.4218 0.189492C4.46563 0.189492 0.492188 4.10825 0.492188 8.89138C0.492188 13.6757 4.46563 17.639 9.4218 17.639C11.7123 17.639 13.7691 16.8192 15.3119 15.4527L13.2077 13.4025ZM108.345 0.873326L101.754 8.61809L95.1146 0.873326L95.0683 0.964834V0.873326H92.4027V16.9107H95.0683V5.15564L101.754 12.9004L108.345 5.33866V16.9107H110.963V0.873326H108.345ZM35.2742 8.89138C35.2742 13.7215 31.2532 17.5933 26.3446 17.5933C21.3896 17.5933 17.4162 13.6757 17.4162 8.89138C17.4162 4.10825 21.4359 0.189492 26.3446 0.189492C31.2532 0.189492 35.2742 4.10825 35.2742 8.89138ZM32.2822 8.89138C32.2822 5.6577 29.6178 3.06086 26.2983 3.06086C22.9788 3.06086 20.3144 5.6577 20.3144 8.89138C20.3144 12.1263 22.9788 14.7231 26.2983 14.7231C29.6178 14.7231 32.2822 12.1263 32.2822 8.89138ZM89.692 8.89138C89.692 13.7215 85.6711 17.5933 80.7624 17.5933C75.8063 17.5933 71.8328 13.6757 71.8328 8.89138C71.8328 4.10825 75.8538 0.189492 80.7624 0.189492C85.7173 0.189492 89.692 4.10825 89.692 8.89138ZM86.7463 8.89138C86.7463 5.6577 84.082 3.06086 80.7624 3.06086C77.4429 3.06086 74.7785 5.6577 74.7785 8.89138C74.7785 12.1263 77.4429 14.7231 80.7624 14.7231C84.0344 14.7231 86.7463 12.1263 86.7463 8.89138ZM71.7866 0.873326H68.1857L61.4078 7.61646H58.6497V0.873326H56.0316V16.9107H58.6497V10.2133H61.3603L68.1394 16.9107H71.6928L63.6521 8.93713L71.7866 0.873326Z" fill="#003791"/>
<path d="M182.677 0.873047H179.126L172.299 7.61618H169.541V0.873047H166.923V16.9104H169.541V10.213H172.299L179.031 16.9104H182.584L174.59 8.93685L182.677 0.873047ZM143.968 16.9092H146.868L139.62 0.873047H136.628L129.383 16.9104H132.281L133.87 13.4479H142.38L143.968 16.9104V16.9092ZM135.04 10.8956L138.125 4.15372L141.211 10.8956H135.039H135.04Z" fill="#003791"/>
<path d="M52.6647 12.2633C52.6647 11.6294 52.5317 11.0023 52.2741 10.4219C52.0165 9.84142 51.6399 9.32017 51.168 8.89111C52.0558 8.0255 52.6647 6.84084 52.6647 5.52016C52.6607 4.28481 52.1611 3.10152 51.2757 2.2302C50.3902 1.35887 49.1913 0.870755 47.9423 0.873055H38.3125V16.9549H47.9423C50.5604 16.9104 52.6647 14.8144 52.6647 12.2633ZM40.9769 3.47113H47.896C49.0651 3.47113 49.999 4.38126 49.999 5.52016C49.999 6.65906 49.0651 7.57043 47.896 7.57043H40.9769V3.4699V3.47113ZM47.896 14.3581H40.9769V10.213H47.9423C49.1113 10.213 50.0465 11.1689 50.0465 12.2633C49.999 13.401 49.0651 14.3581 47.896 14.3581Z" fill="#003791"/>
<path d="M160.984 0.918801V7.61618H151.4V0.918801H148.736V16.8646H151.4V10.2118H160.984V16.8646H163.649V0.918801H160.984ZM128.446 12.2633C128.446 9.71096 126.295 7.61618 123.677 7.61618H116.758V3.46989H126.857V0.873047H114.094V16.9549H123.677C126.295 16.9104 128.446 14.8144 128.446 12.2633ZM123.677 14.3581H116.758V10.213H123.677C124.846 10.213 125.782 11.1689 125.782 12.2633C125.782 13.4009 124.846 14.3581 123.677 14.3581Z" fill="#003791"/>
</svg>
