<svg width="241" height="38" viewBox="0 0 241 38" fill="none" xmlns="http://www.w3.org/2000/svg">
<path d="M33.315 7.31836C34.1984 8.47501 34.9463 9.73161 35.5434 11.0629L18.6032 23.7091L11.5234 19.2147V13.8078L18.6032 18.3021L33.315 7.31836Z" fill="#21A038"/>
<path d="M4.29639 18.8327C4.29639 18.59 4.30223 18.349 4.31391 18.1094L0.0233671 17.8965C0.00876344 18.207 5.18492e-06 18.5206 5.18492e-06 18.837C-0.00182032 21.3096 0.478416 23.758 1.41318 26.0421C2.34793 28.3262 3.7188 30.4009 5.44715 32.1472L8.49055 29.0666C7.16012 27.7248 6.10469 26.1298 5.38491 24.3735C4.66514 22.6172 4.29521 20.7342 4.29639 18.8327Z" fill="url(#paint0_linear_1_18066)"/>
<path d="M18.5959 4.34994C18.8354 4.34994 19.0734 4.35882 19.3099 4.37064L19.5246 0.0241497C19.2171 0.00936071 18.9074 0.00196709 18.5959 0.00196709C16.1532 -0.00104951 13.7341 0.484582 11.4774 1.43098C9.22063 2.37737 7.1707 3.76589 5.44531 5.5168L8.4887 8.59883C9.81382 7.25108 11.3889 6.18186 13.1235 5.45269C14.8581 4.72351 16.7178 4.34874 18.5959 4.34994Z" fill="url(#paint1_linear_1_18066)"/>
<path d="M18.5982 33.3157C18.3587 33.3157 18.1206 33.3157 17.8827 33.2965L17.668 37.6415C17.9766 37.6573 18.2867 37.6652 18.5982 37.6652C21.0398 37.6678 23.4578 37.1818 25.7133 36.2352C27.9689 35.2885 30.0175 33.8998 31.7415 32.1489L28.704 29.0684C27.3786 30.4154 25.8037 31.484 24.0694 32.2129C22.3352 32.9418 20.4759 33.3166 18.5982 33.3157Z" fill="url(#paint2_linear_1_18066)"/>
<path d="M26.6609 6.87693L30.2767 4.17793C26.9718 1.46778 22.8464 -0.00752308 18.5938 2.88496e-05V4.34948C21.4734 4.34586 24.2863 5.22717 26.6609 6.87693Z" fill="url(#paint3_linear_1_18066)"/>
<path d="M37.1936 18.8319C37.1959 17.7004 37.0982 16.5709 36.9015 15.457L32.8987 18.4444C32.8987 18.5731 32.8987 18.7018 32.8987 18.8319C32.8997 20.8554 32.4808 22.8567 31.6693 24.7058C30.8577 26.5549 29.6714 28.2106 28.1875 29.5657L31.0747 32.7972C33.0039 31.0335 34.5455 28.8789 35.5996 26.4731C36.6538 24.0673 37.1968 21.4639 37.1936 18.8319Z" fill="#21A038"/>
<path d="M18.5988 33.3159C16.6005 33.3166 14.6243 32.8922 12.7981 32.0704C10.972 31.2486 9.33666 30.0474 7.99802 28.5449L4.80859 31.4672C6.55001 33.4212 8.67754 34.9827 11.0532 36.0505C13.4289 37.1182 15.9996 37.6684 18.5988 37.6653V33.3159Z" fill="url(#paint4_linear_1_18066)"/>
<path d="M9.00753 8.09859L6.12185 4.86719C4.19209 6.63059 2.64988 8.78508 1.59524 11.1909C0.540619 13.5967 -0.00287527 16.2002 1.14392e-05 18.8324H4.2964C4.29551 16.809 4.71444 14.8078 5.526 12.9587C6.33758 11.1096 7.5237 9.45382 9.00753 8.09859Z" fill="url(#paint5_linear_1_18066)"/>
<path d="M107.32 10.7708L112.641 6.8457H94.832V30.4319H112.641V26.5069H99.9136V20.4652H110.77V16.5402H99.9136V10.7708H107.32Z" fill="#21A038"/>
<path d="M82.8511 16.0339H76.6684V10.769H86.5359L91.8538 6.83203H71.5898V30.4183H82.1972C88.1441 30.4183 91.5571 27.7196 91.5571 23.0131C91.5571 18.5106 88.4658 16.0339 82.8511 16.0339ZM81.9684 26.492H76.6684V19.9565H81.9684C85.1849 19.9565 86.6931 21.0517 86.6931 23.2243C86.6931 25.3968 85.0884 26.492 81.9684 26.492Z" fill="#21A038"/>
<path d="M125.733 6.8418H116.039V30.428H121.12V23.7464H125.733C131.918 23.7464 135.744 20.488 135.744 15.2815C135.744 10.0752 131.918 6.8418 125.733 6.8418ZM125.626 19.8184H121.12V10.7699H125.626C128.879 10.7699 130.674 12.3776 130.674 15.2959C130.674 18.2142 128.879 19.8184 125.626 19.8184Z" fill="#21A038"/>
<path d="M63.9635 24.8615C62.6509 25.5732 61.1803 25.9416 59.6879 25.9329C55.2208 25.9329 51.9802 22.7398 51.9802 18.343C51.9802 13.9461 55.2208 10.7461 59.6879 10.7461C61.2988 10.7187 62.8763 11.2078 64.1899 12.142L67.7441 9.52126L67.5037 9.35027C65.4304 7.52521 62.6602 6.55859 59.4893 6.55859C56.0501 6.55859 52.9315 7.71713 50.7049 9.82486C49.579 10.9101 48.6886 12.216 48.0891 13.6612C47.4896 15.1063 47.1938 16.6596 47.2204 18.2243C47.1965 19.8049 47.491 21.374 48.0861 22.8382C48.6812 24.3023 49.5647 25.6313 50.684 26.746C52.921 28.9374 56.0327 30.1448 59.4475 30.1448C63.0156 30.1448 66.1343 28.899 68.2459 26.6308L65.0646 24.2579L63.9635 24.8615Z" fill="#21A038"/>
<path d="M155.891 16.0339H149.711V10.769H162.992V6.83203H144.629V30.4183H155.223C161.169 30.4183 164.582 27.7196 164.582 23.0131C164.596 18.5106 161.506 16.0339 155.891 16.0339ZM155.008 26.492H149.711V19.9565H155.008C158.225 19.9565 159.732 21.0517 159.732 23.2243C159.732 25.3968 158.142 26.492 155.008 26.492Z" fill="#21A038"/>
<path d="M222.346 30.3831H217.195V6.79688H222.346V16.7032H225.15L232.721 6.79688H238.559L229.579 18.0171L240.007 30.3831H233.172L225.507 21.1069H222.346V30.3831Z" fill="#21A038"/>
<path d="M183.296 25.9025H172.399L170.552 30.4827H165.07L175.291 6.89648H180.771L190.826 30.4827H185.144L183.296 25.9025ZM181.59 21.6289L177.88 12.4685L174.15 21.6289H181.59Z" fill="#21A038"/>
<path d="M197.761 6.89648V16.7457H208.42V6.89648H213.731V30.4827H208.42V21.1889H197.761V30.4827H192.449V6.89648H197.761Z" fill="#21A038"/>
<defs>
<linearGradient id="paint0_linear_1_18066" x1="6.31607" y1="31.6045" x2="1.51563" y2="17.9014" gradientUnits="userSpaceOnUse">
<stop offset="0.14" stop-color="#F1E813"/>
<stop offset="0.3" stop-color="#E6E418"/>
<stop offset="0.58" stop-color="#C9DA26"/>
<stop offset="0.89" stop-color="#A2CC39"/>
</linearGradient>
<linearGradient id="paint1_linear_1_18066" x1="6.67201" y1="6.28583" x2="18.8006" y2="1.72173" gradientUnits="userSpaceOnUse">
<stop offset="0.06" stop-color="#0FA7DF"/>
<stop offset="0.54" stop-color="#0098F8"/>
<stop offset="0.92" stop-color="#0290EA"/>
</linearGradient>
<linearGradient id="paint2_linear_1_18066" x1="17.3847" y1="35.0401" x2="31.0731" y2="31.9865" gradientUnits="userSpaceOnUse">
<stop offset="0.12" stop-color="#A2CC39"/>
<stop offset="0.28" stop-color="#86C239"/>
<stop offset="0.87" stop-color="#219F38"/>
</linearGradient>
<linearGradient id="paint3_linear_1_18066" x1="17.7001" y1="1.45675" x2="29.4142" y2="5.02636" gradientUnits="userSpaceOnUse">
<stop offset="0.06" stop-color="#0290EA"/>
<stop offset="0.79" stop-color="#0C89CA"/>
</linearGradient>
<linearGradient id="paint4_linear_1_18066" x1="5.88633" y1="30.9378" x2="18.648" y2="35.6475" gradientUnits="userSpaceOnUse">
<stop offset="0.13" stop-color="#F1E813"/>
<stop offset="0.3" stop-color="#EAE616"/>
<stop offset="0.53" stop-color="#D8DF1F"/>
<stop offset="0.8" stop-color="#BAD52D"/>
<stop offset="0.98" stop-color="#A2CC39"/>
</linearGradient>
<linearGradient id="paint5_linear_1_18066" x1="1.60057" y1="19.3589" x2="6.82079" y2="5.9495" gradientUnits="userSpaceOnUse">
<stop offset="0.07" stop-color="#A2CC39"/>
<stop offset="0.26" stop-color="#81C45E"/>
<stop offset="0.92" stop-color="#0FA7DF"/>
</linearGradient>
</defs>
</svg>
