<svg width="196" height="38" viewBox="0 0 196 38" fill="none" xmlns="http://www.w3.org/2000/svg">
<path d="M13.6238 14.1751C13.6238 13.9755 13.557 13.7758 13.4902 13.4431L9.28288 1.9965C8.74862 0.598949 8.014 0 6.87868 0C5.67658 0 4.94197 0.598949 4.47448 1.9965L0.20035 13.4431C0.0667833 13.8424 0 14.042 0 14.1751C0 14.7741 0.467483 15.2399 1.13532 15.2399C1.66958 15.2399 2.07028 14.9737 2.33742 14.3082L3.73987 10.3818H10.0175L11.4199 14.3082C11.6203 14.9737 12.021 15.2399 12.5553 15.2399C13.1563 15.3065 13.6238 14.7741 13.6238 14.1751ZM4.4077 8.38529L6.47798 2.46235C6.54477 2.2627 6.61155 2.19615 6.8119 2.19615C6.94547 2.19615 7.01225 2.2627 7.07903 2.46235L9.14931 8.38529H4.4077ZM32.7906 15.1734H37.3319C40.2703 15.1734 42.0735 13.4431 42.0735 10.4483C42.0735 7.58669 40.3371 5.98949 37.3319 5.98949H33.3249V2.32925H40.0032C40.7378 2.32925 41.2053 1.92995 41.2053 1.1979C41.2053 0.532399 40.7378 0.1331 40.0032 0.1331H32.7238C31.5885 0.1331 30.9207 0.732049 30.9207 1.92995V13.3765C31.0542 14.5744 31.6553 15.1734 32.7906 15.1734ZM33.3917 8.05254H37.1315C38.8679 8.05254 39.6693 8.98424 39.6693 10.5149C39.6693 12.1121 38.8679 13.0438 37.1315 13.0438H33.3917V8.05254ZM7.14582 28.8827H2.67133V24.2242H10.0843C10.5518 24.2242 10.9525 23.958 10.9525 23.4921C10.9525 23.0263 10.6185 22.7601 10.0843 22.7601H2.47098C1.6028 22.7601 1.13532 23.2259 1.13532 24.0911V36.5359C1.13532 37.401 1.6028 37.8669 2.47098 37.8669H7.14582C10.0175 37.8669 11.6871 36.2032 11.6871 33.3415C11.6871 30.4799 10.0175 28.8827 7.14582 28.8827ZM6.94547 36.3363H2.67133V30.2802H6.94547C9.14932 30.2802 10.0843 31.345 10.0843 33.275C10.0843 35.2049 9.2161 36.3363 6.94547 36.3363ZM17.9647 26.3538C16.629 26.3538 15.3602 26.6865 14.6923 27.0193C14.2248 27.2189 14.0245 27.4186 14.0245 27.8179C14.0245 28.2172 14.3584 28.4834 14.6923 28.4834C14.8927 28.4834 15.093 28.4168 15.2934 28.2837C15.8276 28.0841 16.8294 27.7513 17.8311 27.7513C19.7679 27.7513 20.7028 28.5499 20.7028 30.2802V31.345C19.5007 31.0123 18.6325 30.8792 17.564 30.8792C14.6923 30.8792 13.2899 32.5429 13.2899 34.3398C13.2899 36.5359 14.9595 37.9334 17.4972 37.9334C19.6343 37.9334 21.3039 37.2014 21.9049 36.7355C22.1721 36.5359 22.2388 36.4028 22.2388 36.0701V30.2137C22.1721 27.6182 20.5693 26.3538 17.9647 26.3538ZM20.636 35.8039C19.7679 36.2697 18.6325 36.6025 17.6308 36.6025C15.7609 36.6025 14.6923 35.8039 14.6923 34.4063C14.6923 33.1419 15.6273 32.2767 17.6308 32.2767C18.6325 32.2767 19.5007 32.4098 20.636 32.7426V35.8039ZM60.4389 3.7268C58.4354 3.7268 56.8326 4.45884 56.2316 4.79159C55.6973 5.12434 55.6305 5.32399 55.6305 6.18914V17.7688C55.6305 18.5009 56.098 18.9667 56.7658 18.9667C57.4337 18.9667 57.9011 18.5009 57.9011 17.7688V14.7741C58.569 15.1068 59.6375 15.373 60.6393 15.373C63.3106 15.373 65.1137 13.6427 65.3141 11.1138C65.3809 10.2487 65.3809 8.85114 65.3141 7.98599C65.1137 5.45709 63.3106 3.7268 60.4389 3.7268ZM63.0435 10.7811C62.9099 12.2452 61.9749 13.1769 60.3721 13.1769C59.5039 13.1769 58.4354 12.9107 57.9011 12.5114V6.52189C58.4354 6.12259 59.5039 5.85639 60.3721 5.85639C62.0417 5.85639 62.9099 6.85464 63.0435 8.25219C63.1102 9.05079 63.1102 9.98249 63.0435 10.7811ZM24.643 13.31L20.7028 9.38354L24.4427 5.65674C24.7098 5.39054 24.9102 5.05779 24.9102 4.72504C24.9102 4.19264 24.5095 3.79334 23.9084 3.79334C23.5745 3.79334 23.3074 3.92645 23.0402 4.25919L19.1668 8.05254C18.9665 8.25219 18.7661 8.38529 18.4322 8.38529H17.6308V5.05779C17.6308 4.32574 17.1633 3.85989 16.4955 3.85989C15.8276 3.85989 15.3602 4.32574 15.3602 5.05779V14.042C15.3602 14.7741 15.8276 15.2399 16.4955 15.2399C17.1633 15.2399 17.6308 14.7741 17.6308 14.042V10.4483H18.2986C18.5658 10.4483 18.8329 10.5814 19.0332 10.7811L23.107 14.8406C23.4409 15.1734 23.7081 15.3065 24.042 15.3065C24.643 15.3065 25.0437 14.9072 25.0437 14.3082C25.0437 13.9089 24.9102 13.6427 24.643 13.31ZM75.9326 11.0473C75.3984 11.0473 75.1312 11.38 74.9309 11.7128C74.5302 12.5779 73.7288 13.1769 72.5267 13.1769C70.9239 13.1769 69.9221 12.1786 69.7886 10.7811C69.7218 9.98249 69.7218 9.11734 69.7886 8.31874C69.9221 6.85464 70.8571 5.92294 72.5267 5.92294C73.662 5.92294 74.5302 6.52189 74.9309 7.38704C75.1312 7.71979 75.3984 8.05254 75.9326 8.05254C76.6005 8.05254 77.068 7.65324 77.068 6.98774C77.068 6.65499 76.9344 6.32224 76.734 5.92294C76.0662 4.65849 74.597 3.7268 72.5267 3.7268C69.7218 3.7268 67.8519 5.52364 67.5847 8.05254C67.5179 8.91769 67.5179 10.3152 67.5847 11.1138C67.8519 13.6427 69.7218 15.4396 72.5267 15.4396C74.597 15.4396 76.0662 14.4413 76.734 13.1769C76.9344 12.7776 77.068 12.4448 77.068 12.1121C77.0012 11.4466 76.6005 11.0473 75.9326 11.0473ZM48.3511 3.7268C47.0822 3.7268 45.9469 4.05954 45.2123 4.32574C44.6113 4.59194 44.3441 4.92469 44.3441 5.39054C44.3441 5.92294 44.7448 6.38879 45.2791 6.38879C45.5462 6.38879 45.8134 6.25569 46.1473 6.18914C46.6148 5.98949 47.4162 5.78984 48.2176 5.78984C49.9539 5.78984 50.6885 6.45534 50.6885 7.78634V8.71804C49.6868 8.45184 48.8186 8.31874 47.8836 8.31874C45.012 8.31874 43.6095 9.98249 43.6095 11.7128C43.6095 13.7758 45.2123 15.373 47.9504 15.373C50.0875 15.373 51.7571 14.641 52.4249 14.1751C52.7588 13.9755 52.8256 13.7758 52.8256 13.31V7.78634C52.8924 4.99124 51.2228 3.7268 48.3511 3.7268ZM50.6885 12.8441C50.0207 13.1769 49.0857 13.4431 48.2176 13.4431C46.7483 13.4431 45.8134 12.7776 45.8134 11.7128C45.8134 10.7145 46.6148 9.91594 48.2176 9.91594C49.0857 9.91594 49.8204 10.049 50.7553 10.3152V12.8441H50.6885ZM41.2053 32.0771L45.5462 27.7513C45.7466 27.5517 45.8134 27.352 45.8134 27.1524C45.8134 26.8196 45.5462 26.4869 45.1455 26.4869C44.9452 26.4869 44.7448 26.5534 44.5445 26.7531L40.2703 31.0123C40.0032 31.2785 39.8029 31.4116 39.4689 31.4116H38.7343V27.352C38.7343 26.8196 38.4672 26.5534 37.9997 26.5534C37.5322 26.5534 37.2651 26.8196 37.2651 27.352V37.2014C37.2651 37.7338 37.5322 38 37.9997 38C38.4672 38 38.7343 37.7338 38.7343 37.2014V32.8091H39.5357C39.8696 32.8091 40.1368 32.9422 40.3371 33.2084L44.8784 37.7338C45.0787 37.9334 45.2791 38 45.4794 38C45.8801 38 46.1473 37.6673 46.1473 37.3345C46.1473 37.0683 46.0805 36.9352 45.8134 36.669L41.2053 32.0771ZM33.4584 26.4203C32.991 26.4203 32.7238 26.6865 32.7238 27.2189V31.2785H26.4462V27.2189C26.4462 26.6865 26.1791 26.4203 25.7116 26.4203C25.2441 26.4203 24.977 26.6865 24.977 27.2189V37.0683C24.977 37.6007 25.2441 37.8669 25.7116 37.8669C26.1791 37.8669 26.4462 37.6007 26.4462 37.0683V32.676H32.7238V37.0683C32.7238 37.6007 32.991 37.8669 33.4584 37.8669C33.9259 37.8669 34.1931 37.6007 34.1931 37.0683V27.2189C34.1931 26.7531 33.9259 26.4203 33.4584 26.4203Z" fill="#212121"/>
<path d="M151.052 12.6109L142.493 14.1733C141.095 14.4523 140.144 15.7915 140.368 17.1865C140.647 18.5815 141.99 19.5301 143.388 19.3069L151.947 17.7445C153.96 17.3539 155.247 18.5815 155.75 19.8649C156.254 21.1483 156.142 22.8781 154.408 23.9941L141.878 32.141C140.703 32.9222 139.305 32.9222 138.074 32.3084C136.844 31.6388 136.117 30.4112 136.117 29.0162V8.98385C136.117 5.63583 134.383 2.73422 131.418 1.11601C128.509 -0.502202 125.041 -0.3348 122.244 1.45081L90.5845 21.9295C87.0045 24.2173 85.6621 28.4023 87.2283 32.3642C88.7945 36.326 92.6541 38.4464 96.8493 37.721L124.482 32.7548C125.88 32.4758 126.831 31.1366 126.607 29.7416C126.328 28.3465 124.985 27.3979 123.587 27.6211L95.9544 32.5874C93.8847 32.978 92.6541 31.7504 92.1507 30.467C91.6473 29.1836 91.7591 27.4537 93.4932 26.3377L125.153 5.85903C126.328 5.07783 127.726 5.07783 128.957 5.69163C130.187 6.36123 130.915 7.58884 130.915 8.98385V29.0162C130.915 32.3642 132.649 35.2658 135.613 36.884C136.956 37.6094 138.466 38 139.92 38C141.598 38 143.277 37.4978 144.787 36.5492L157.372 28.4024C160.952 26.1145 162.295 21.9295 160.729 17.9677C159.106 14.0059 155.247 11.8297 151.052 12.6109ZM195.353 17.9119C193.787 13.9501 189.927 11.8297 185.732 12.5551L177.174 14.1175C175.776 14.3965 174.825 15.7357 175.048 17.1307C175.328 18.5257 176.671 19.4743 178.069 19.2511L186.627 17.6887C188.641 17.2981 189.927 18.5257 190.431 19.8091C190.934 21.0925 190.822 22.8223 189.088 23.9383L176.559 32.141C175.384 32.9222 173.986 32.9222 172.755 32.3084C171.524 31.6388 170.797 30.4112 170.797 29.0162V2.62261C170.797 1.17181 169.623 0 168.168 0C166.714 0 165.539 1.17181 165.539 2.62261V29.0162C165.539 32.3642 167.273 35.2658 170.238 36.884C171.58 37.6094 173.091 38 174.545 38C176.223 38 177.901 37.4978 179.411 36.5492L191.997 28.4024C195.577 26.0587 196.919 21.8737 195.353 17.9119Z" fill="#009B3A"/>
</svg>
