<svg width="221" height="43" viewBox="0 0 221 43" fill="none" xmlns="http://www.w3.org/2000/svg">
<path d="M21.462 0C9.59361 0 0 9.6106 0 21.5C0 33.3894 9.59361 43 21.462 43C33.3304 43 42.924 33.3894 42.924 21.5C42.8251 9.6106 33.2315 0 21.462 0ZM18.396 30.6152L16.8135 35.2719C10.8794 33.2903 6.92323 27.6429 6.92323 21.3018C6.92323 14.9608 10.8794 9.41244 16.9125 7.3318L18.4949 11.9885C14.5388 13.2765 11.9673 17.0415 11.9673 21.2028C11.8684 25.6613 14.4399 29.3272 18.396 30.6152ZM25.7148 35.47L24.2313 30.7143C28.2863 29.4263 30.9567 25.6613 30.9567 21.4009C30.9567 17.1406 28.2863 13.4747 24.3302 12.1866L25.9126 7.43088C31.9457 9.41244 36.0008 15.0599 36.0008 21.4009C36.0008 27.841 31.8468 33.4885 25.7148 35.47Z" fill="#00BEF0"/>
<path d="M217.885 25.3637L220.259 28.237C217.786 30.813 214.72 31.5065 212.247 31.5065C209.874 31.5065 208.192 31.1102 206.709 30.4167C203.544 28.8314 201.962 25.6609 201.962 21.7969C201.962 15.9512 205.918 11.5918 211.753 11.5918C218.281 11.5918 221.445 16.4466 220.951 22.7876H206.115C206.214 24.3729 207.105 25.8591 208.39 26.6517C209.478 27.3453 210.764 27.6425 212.445 27.6425C214.324 27.6425 216.204 27.048 217.885 25.3637ZM206.313 19.3199H216.797C216.5 17.0411 214.621 15.0595 211.654 15.0595C208.489 15.1586 206.61 17.2393 206.313 19.3199ZM106.619 31.0111H111.96L103.553 21.2024L111.861 11.9881H106.619L100.289 19.3199H98.4099V11.9881H94.3548V30.9121H98.4099V23.3821H100.289L106.619 31.0111ZM124.125 15.4558C120.663 15.4558 118.388 18.131 118.388 21.4996C118.388 24.8683 120.663 27.5434 124.125 27.5434C127.586 27.5434 129.762 24.9674 129.762 21.4996C129.762 18.131 127.685 15.4558 124.125 15.4558ZM124.817 11.5918C130.158 11.5918 134.114 15.7531 134.114 21.4996C134.114 27.1471 130.257 31.5065 124.817 31.5065C122.246 31.5065 120.169 30.6148 118.685 29.0296V38.9374H114.531V11.9881H118.586V14.2669C120.169 12.3844 122.147 11.5918 124.817 11.5918ZM178.62 11.9881H161.708V15.7531H168.137V30.9121H172.291V15.8522H178.719V11.9881H178.62ZM91.4867 11.9881H74.5742V15.7531H81.0029V30.9121H85.1568V15.8522H91.5856V11.9881H91.4867ZM69.5301 21.4996C69.5301 17.9328 67.0576 15.3568 63.5959 15.3568C60.2332 15.3568 57.6618 17.9328 57.6618 21.4996C57.6618 25.0665 60.1343 27.6425 63.5959 27.6425C66.9587 27.6425 69.5301 25.0665 69.5301 21.4996ZM53.5078 21.4996C53.5078 15.8522 57.8596 11.5918 63.6948 11.5918C69.4312 11.5918 73.8819 15.8522 73.8819 21.4996C73.8819 27.1471 69.5301 31.5065 63.6948 31.5065C57.8596 31.5065 53.5078 27.1471 53.5078 21.4996ZM198.698 11.9881V30.9121H194.643V18.7254L184.752 30.9121H181.489V11.9881H185.544V24.2738L195.434 12.0872H198.698V11.9881ZM158.939 31.0111H154.884V11.9881H158.939V31.0111ZM148.356 24.472C148.356 22.7876 147.169 21.5987 145.587 21.5987H141.433V27.4443H145.587C147.169 27.4443 148.356 26.2554 148.356 24.472ZM152.51 24.472C152.51 28.237 149.741 30.9121 145.785 30.9121H137.378V11.9881H141.433V18.131H146.081C150.037 18.131 152.51 20.707 152.51 24.472Z" fill="black"/>
</svg>
