<svg width="122" height="44" viewBox="0 0 122 44" fill="none" xmlns="http://www.w3.org/2000/svg">
<path fill-rule="evenodd" clip-rule="evenodd" d="M8.28891 0L6.21539 5.71081H34.9498L37.0233 0H8.28891ZM5.17798 8.56492L3.10446 14.2744H31.8388L33.9124 8.56492H5.17798ZM2.07352 17.1298L0 22.8394H28.7344L30.8066 17.1298H2.07352Z" fill="#009FDF"/>
<mask id="mask0_1_18215" style="mask-type:alpha" maskUnits="userSpaceOnUse" x="43" y="8" width="79" height="36">
<path d="M43.1094 43.6561H121.766V8.67383H43.1094V43.6561Z" fill="white"/>
</mask>
<g mask="url(#mask0_1_18215)">
<path fill-rule="evenodd" clip-rule="evenodd" d="M61.0861 25.0147V25.1352C62.3993 25.6198 63.6537 26.4673 64.3109 27.0115C66.3414 28.7064 67.2378 30.9454 67.2378 33.8505C67.2378 38.6332 64.729 42.0826 60.6079 43.1723C59.3535 43.5351 58.0403 43.6569 55.5904 43.6569H43.1094V8.67383H54.1583C56.4279 8.67383 57.9802 8.79432 59.3535 9.15713C63.3557 10.2469 65.9834 13.0315 65.9834 17.4487C65.9834 19.8096 65.1471 21.8077 63.7739 23.1385C63.1767 23.7436 62.3405 24.4705 61.0861 25.0147ZM50.0372 28.7064V37.9063H54.8155C56.2476 37.9063 57.5621 37.7858 58.5186 36.8775C59.4737 35.9691 59.8918 34.8198 59.8918 33.3063C59.8918 32.157 59.5926 31.0673 58.9955 30.2807C57.9802 29.0096 56.7259 28.7064 54.5764 28.7064H50.0372ZM49.9771 22.6538H53.8591C55.0534 22.6538 55.6505 22.6538 56.2476 22.4724C57.8613 21.9878 58.8766 20.5366 58.8766 18.5385C58.8766 16.1789 57.8012 15.1487 56.2476 14.6654C55.5904 14.484 54.9345 14.4231 53.62 14.4231H49.9771V22.6538ZM77.6295 43.6569V14.5436H67.6559V8.67383H95.3684L93.398 14.5436H84.5573V43.6569H77.6295ZM97.5178 43.6569V8.67383H119.975L118.005 14.5436H104.387V22.291H109.941C114.42 22.291 116.75 23.3808 118.363 24.7724C119.617 25.8622 121.766 28.2826 121.766 33.0653C121.766 37.7858 119.557 40.3877 117.705 41.7198C115.556 43.2319 113.286 43.6569 108.687 43.6569H97.5178ZM104.387 37.7858H109.583C111.554 37.7858 112.748 37.3012 113.584 36.2114C114.002 35.6672 114.599 34.698 114.599 32.8826C114.599 31.0673 114.002 29.7961 112.808 28.8878C112.092 28.3436 111.136 28.0417 109.523 28.0417H104.387V37.7858Z" fill="#0A2973"/>
</g>
</svg>
