<svg width="227" height="48" viewBox="0 0 227 48" fill="none" xmlns="http://www.w3.org/2000/svg">
<path d="M137.777 44.3435C137.552 45.0201 137.074 45.0471 136.839 45.0471C136.625 45.0471 131.276 45.0355 131.276 45.0355V38.8153H136.654V37.0138H131.276V31.7215C131.276 31.7215 136.56 31.7137 136.741 31.7137C136.98 31.7137 137.458 31.7408 137.679 32.4173H138.251V29.9238H128.68V30.5308C128.868 30.6004 128.995 30.697 129.093 30.8014C129.303 31.0604 129.328 31.4006 129.339 31.5282V45.2327C129.321 45.4144 129.303 45.8976 128.701 46.2185C128.694 46.2185 128.691 46.2223 128.68 46.2262V46.2301V46.837H138.345V44.3435H137.777Z" fill="black"/>
<path d="M162.577 44.3435C162.353 45.0201 161.875 45.0471 161.636 45.0471C161.422 45.0471 156.077 45.0355 156.077 45.0355V38.8153H161.455V37.0138H156.077V31.7215C156.077 31.7215 161.361 31.7137 161.545 31.7137C161.781 31.7137 162.259 31.7408 162.48 32.4173H163.048V29.9238H153.48V30.5308C153.665 30.6004 153.796 30.697 153.89 30.8014C154.103 31.0604 154.125 31.4006 154.136 31.5282V45.2327C154.118 45.4144 154.1 45.8976 153.499 46.2185C153.491 46.2185 153.488 46.2223 153.48 46.2262V46.2301V46.837H163.146V44.3435H162.577Z" fill="black"/>
<path d="M125.846 30.5307V29.9199H113.359V30.5307C113.989 30.7704 114.015 31.2768 114.018 31.532C114.018 31.9031 114.018 44.8576 114.018 45.2249C114.018 45.4801 113.989 45.9865 113.359 46.2262V46.837H116.608V46.23C115.974 45.9903 115.949 45.4839 115.949 45.2288C115.949 44.9852 115.952 31.733 115.952 31.733H123.253C123.253 31.733 123.249 44.8576 123.249 45.2288C123.249 45.4839 123.228 45.9903 122.594 46.23V46.8408H125.846V46.23C125.209 45.9903 125.187 45.4839 125.187 45.2288C125.187 44.9852 125.187 31.791 125.187 31.5359C125.187 31.2807 125.212 30.7704 125.846 30.5307Z" fill="black"/>
<path d="M23.8026 18.4269C21.5537 25.2385 14.5608 28.8106 8.17992 26.4099C1.79902 24.0053 -1.55078 16.5442 0.701733 9.72865C2.95062 2.91699 9.94354 -0.655078 16.3244 1.74563C22.7017 4.1502 26.0515 11.6152 23.8026 18.4269Z" fill="url(#paint0_linear_1_18188)"/>
<path d="M24.4951 35.375L24.4987 36.6971C24.506 39.2099 19.0341 41.2704 12.2657 41.2975C5.5009 41.3246 0.0144856 39.3066 0.0036214 36.7938L0 35.4755L24.4951 35.375Z" fill="url(#paint1_linear_1_18188)"/>
<path d="M24.4951 35.3749C24.5024 37.8916 19.0268 39.9483 12.2621 39.9715C5.49729 39.9946 0.00362857 37.9805 7.17703e-06 35.4716C-0.00723562 32.9549 5.46832 30.8944 12.2367 30.8673C18.9979 30.848 24.4879 32.8621 24.4951 35.3749Z" fill="url(#paint2_linear_1_18188)"/>
<path d="M0 45.4845C0 45.1173 5.48279 44.75 12.2512 44.75C19.0159 44.75 24.4987 45.1134 24.4987 45.4845V46.2693C24.4987 46.6327 19.0159 46.9999 12.2512 46.9999C5.48641 46.9999 0 46.6365 0 46.2693V45.4845Z" fill="url(#paint3_linear_1_18188)"/>
<path d="M110.057 38.8038H103.379V37.0332H110.057V38.8038Z" fill="black"/>
<path d="M45.9761 44.2317C45.766 44.9624 45.2518 45.0049 45.078 45.0319C45.078 45.0319 44.0821 45.1286 42.8327 45.1286C41.6268 45.1286 40.7033 44.6918 40.0696 43.8258C39.4322 42.9598 39.1751 41.6725 39.1751 39.9677V36.8015C39.1751 33.3532 40.3557 31.6328 42.8327 31.6328C43.9082 31.6328 45.0345 31.7488 45.0345 31.7488C45.2083 31.772 45.7189 31.8532 45.9362 32.5491H46.5265V30.2179C46.5265 30.2179 45.8457 30.0633 44.9693 29.9435C44.0893 29.8275 43.5063 29.7656 42.8146 29.7656C41.0654 29.7656 39.6857 30.361 38.6862 31.5517C37.6794 32.7423 37.1797 34.4936 37.1797 36.8054V39.9715C37.1797 42.2678 37.6867 44.0152 38.6971 45.2098C39.7074 46.3966 41.0799 46.9997 42.8182 46.9997C43.8612 46.9997 44.5166 46.961 45.1685 46.8721C45.7733 46.7871 46.57 46.617 46.57 46.617V44.2356H45.9761V44.2317Z" fill="black"/>
<path d="M203.727 29.9199H200.185V30.5191C200.656 30.7202 200.884 31.041 200.605 31.8258C200.326 32.6144 197.82 39.7586 197.82 39.7586C197.82 39.7586 197.407 39.7083 197.226 39.3179C197.002 38.8346 194.43 31.9959 194.264 31.5591C194.097 31.1222 194.217 30.6583 194.717 30.5191V29.9199H191.062V30.5307C191.732 30.6351 192.004 31.1261 192.156 31.5011C192.33 31.934 195.158 39.4377 195.372 40.0137C195.589 40.5859 195.759 40.8681 195.959 41.0768C196.292 41.4248 196.665 41.5253 197.114 41.6838C197.114 41.6838 196.719 42.8513 196.371 43.7636C195.98 44.7881 195.285 45.136 194.619 45.136C194.365 45.136 193.873 44.9736 193.735 44.4401H193.116V46.6785C193.116 46.6785 193.518 47.0032 194.724 47.0032C195.767 47.0032 196.216 46.7713 196.81 46.3421C197.288 46.0019 197.758 45.3022 198.15 44.3358C198.537 43.3693 202.455 32.0887 202.665 31.5359C202.879 30.983 203.115 30.6506 203.719 30.5346V29.9199H203.727Z" fill="black"/>
<path d="M62.2084 20.8243C62.1613 20.6774 58.5834 7.21258 58.5834 7.21258C58.2756 6.07215 57.5585 5.5 56.4287 5.5C55.2807 5.5 54.5564 6.07601 54.2522 7.23191C54.2522 7.23191 50.9241 19.8772 50.6308 20.8243C50.4099 21.5511 50.0514 21.7985 49.5625 21.957V22.5717H53.2346V21.957C53.2346 21.957 52.485 21.6709 52.6769 20.8398C53.0427 19.2702 53.6583 16.9971 53.6583 16.9971H59.1773C59.1773 16.9971 60.0682 20.4261 60.1659 20.8398C60.3579 21.6709 59.6082 21.957 59.6082 21.957V22.5717H63.2803V21.957C62.7878 21.7946 62.4329 21.5472 62.2084 20.8243ZM54.0639 15.1917C54.0639 15.1917 56.0013 7.76153 56.0665 7.56824C56.1317 7.37495 56.2548 7.27443 56.4287 7.27443C56.6097 7.27443 56.7365 7.38268 56.7944 7.59917C56.856 7.81566 58.7717 15.1879 58.7717 15.1879H54.0639V15.1917Z" fill="black"/>
<path d="M60.661 45.0938C60.6175 44.9469 57.0359 31.4782 57.0359 31.4782C56.7281 30.3378 56.0075 29.7656 54.8776 29.7656C53.7296 29.7656 53.0053 30.3416 52.7011 31.4975C52.7011 31.4975 49.3731 44.1428 49.0797 45.0899C48.8588 45.8129 48.5003 46.0641 48.0078 46.2226V46.8373H51.6799V46.2226C51.6799 46.2226 50.9303 45.9366 51.1222 45.1054C51.4916 43.532 52.1036 41.2589 52.1036 41.2589H57.6226C57.6226 41.2589 58.5135 44.6879 58.6076 45.1054C58.8032 45.9327 58.0499 46.2226 58.0499 46.2226V46.8373H61.722V46.2226C61.244 46.068 60.8855 45.8167 60.661 45.0938ZM52.5164 39.4612C52.5164 39.4612 54.4539 32.031 54.5227 31.8416C54.5843 31.6522 54.711 31.5478 54.8848 31.5478C55.0695 31.5478 55.1927 31.6599 55.2542 31.8725C55.3122 32.089 57.2315 39.4651 57.2315 39.4651H52.5164V39.4612Z" fill="black"/>
<path d="M76.8041 7.26246C76.8041 7.00731 76.8294 6.49702 77.4632 6.2612V5.65039H74.2111V6.2612C74.8413 6.49702 74.8702 7.00731 74.8702 7.26246C74.8702 7.62972 74.8702 12.7481 74.8702 12.7481H67.5695C67.5695 12.7481 67.5695 7.48668 67.5695 7.26246C67.5695 7.00731 67.5948 6.49702 68.2286 6.2612V5.65039H64.9766V6.2612C65.6103 6.49702 65.6357 7.00731 65.6357 7.26246C65.6357 7.47895 65.6357 20.7002 65.6357 20.9554C65.6357 21.2105 65.6103 21.717 64.9766 21.9566V22.5674H68.2286V21.9566C67.5948 21.717 67.5695 21.2105 67.5695 20.9554C67.5695 20.6964 67.5695 14.5496 67.5695 14.5496H74.8702C74.8702 14.5496 74.8702 20.5843 74.8702 20.9554C74.8702 21.2105 74.8449 21.717 74.2111 21.9566V22.5674H77.4632V21.9566C76.8294 21.717 76.8041 21.2105 76.8041 20.9554C76.8041 20.5843 76.8041 7.63745 76.8041 7.26246Z" fill="black"/>
<path d="M75.2103 31.532C75.2103 31.2768 75.232 30.7704 75.8694 30.5307V29.9199H72.6174V30.5307C73.2511 30.7704 73.2765 31.2768 73.2765 31.532C73.2765 31.8992 73.2765 37.0138 73.2765 37.0138H65.9757C65.9757 37.0138 65.9757 31.7523 65.9757 31.532C65.9757 31.2768 66.0011 30.7704 66.6348 30.5307V29.9199H63.3828V30.5307C64.0166 30.7704 64.0383 31.2768 64.0383 31.532C64.0383 31.7485 64.0383 44.9698 64.0383 45.2249C64.0383 45.4801 64.0166 45.9865 63.3828 46.2262V46.837H66.6312V46.23C66.0011 45.9903 65.9721 45.4839 65.9721 45.2288C65.9721 44.9698 65.9721 38.8269 65.9721 38.8269H73.2728C73.2728 38.8269 73.2728 44.8615 73.2728 45.2288C73.2728 45.4839 73.2475 45.9903 72.6138 46.23V46.8408H75.8658V46.23C75.232 45.9903 75.2067 45.4839 75.2067 45.2288C75.2103 44.8538 75.2103 31.907 75.2103 31.532Z" fill="black"/>
<path d="M91.4317 20.9515L85.8185 12.7172L90.3525 7.26246C90.9102 6.57433 91.2036 6.43903 91.7975 6.2612V5.65039H89.2987L82.9757 13.5174C82.9757 13.5174 82.9757 7.50214 82.9757 7.26632C82.9757 7.01118 82.9975 6.50088 83.6312 6.26506V5.65426H83.1206H81.6177H80.3828V6.26506C81.0166 6.50088 81.0383 7.01118 81.0383 7.26632C81.0383 7.49828 81.0383 20.7118 81.0383 20.9592C81.0383 21.2144 81.0129 21.7208 80.3828 21.9605V22.5713H83.6312V21.9605C82.9975 21.7208 82.9757 21.2144 82.9757 20.9592C82.9757 20.7118 82.9757 16.1501 82.9757 16.1501L84.5257 14.2829L90.1316 22.5674H92.9889V21.9566C92.3588 21.8175 91.9278 21.5391 91.4317 20.9515Z" fill="black"/>
<path d="M89.8374 45.221L84.2242 36.9867L88.7546 31.5281C89.3123 30.84 89.6056 30.7047 90.1995 30.5269V29.9199H87.7007L81.3742 37.7831C81.3742 37.7831 81.3742 31.7678 81.3742 31.532C81.3742 31.2768 81.3995 30.7665 82.0296 30.5307V29.9199H81.519H80.0161H78.7812V30.5307C79.415 30.7704 79.4367 31.2768 79.4367 31.532C79.4367 31.7639 79.4367 44.9775 79.4367 45.2249C79.4367 45.4801 79.415 45.9904 78.7812 46.2262V46.837H82.0296V46.23C81.3959 45.9942 81.3742 45.4839 81.3742 45.2288C81.3742 44.9814 81.3742 40.4196 81.3742 40.4196L82.9205 38.5524L88.5264 46.837H91.3837V46.2262C90.7644 46.087 90.3335 45.8087 89.8374 45.221Z" fill="black"/>
<path d="M42.1465 12.667C41.5019 12.667 40.7486 12.694 39.9049 12.7559V7.4442C39.9049 7.4442 45.1631 7.4442 45.4058 7.4442C45.6448 7.4442 46.1228 7.47126 46.3437 8.14778H46.9159V5.6543H44.562H44.4099H37.3083V6.2651C37.9312 6.50865 37.9638 6.96483 37.9638 7.25477C37.9638 7.50218 37.9638 20.6655 37.9638 20.9593C37.9638 21.2144 37.9384 21.7209 37.3047 21.9605V22.5713C37.3047 22.5713 41.0854 22.5713 42.2443 22.5713C46.264 22.5713 48.3681 20.9129 48.3681 17.7274V17.5187C48.3753 14.2791 46.2966 12.667 42.1465 12.667ZM46.4342 17.7235C46.4342 18.7905 46.1119 19.5714 45.4673 20.0624C44.8227 20.5572 43.8413 20.8046 42.1465 20.8046C41.5779 20.8046 40.8645 20.8124 39.9049 20.7351V14.511C40.8464 14.453 41.596 14.4182 42.1465 14.4182C43.7146 14.4182 44.8227 14.6656 45.4673 15.1566C46.1119 15.6514 46.4342 16.4285 46.4342 17.4877V17.7235Z" fill="black"/>
<path d="M183.663 36.9365C183.018 36.9365 182.268 36.9674 181.425 37.0216V31.7137C181.425 31.7137 186.683 31.7137 186.929 31.7137C187.168 31.7137 187.643 31.7408 187.867 32.4173H188.436V29.9238H186.085H185.93H178.828V30.5346C179.451 30.7821 179.487 31.2382 179.487 31.5243C179.487 31.7717 179.487 44.935 179.487 45.2288C179.487 45.4801 179.462 45.9904 178.828 46.2301V46.8409C178.828 46.8409 182.609 46.8409 183.768 46.8409C187.787 46.8409 189.888 45.1824 189.888 41.9931V41.7843C189.891 38.5486 187.816 36.9365 183.663 36.9365ZM187.95 41.9931C187.95 43.0639 187.632 43.841 186.984 44.3319C186.339 44.8268 185.358 45.0742 183.663 45.0742C183.094 45.0742 182.381 45.0819 181.425 45.0046V38.7805C182.37 38.7226 183.112 38.6878 183.663 38.6878C185.231 38.6878 186.339 38.9352 186.984 39.43C187.632 39.9248 187.95 40.7019 187.95 41.7611V41.9931Z" fill="black"/>
<path d="M91.5703 29.9199V32.4134H92.1425C92.367 31.7369 92.8414 31.7098 93.0804 31.7098C93.3231 31.7098 96.1478 31.7098 96.1478 31.7098C96.1478 31.7098 96.1478 44.8538 96.1478 45.2249C96.1478 45.4801 96.1224 45.9865 95.4923 46.2262V46.837H98.7407V46.23C98.1106 45.9904 98.0852 45.4839 98.0852 45.2288C98.0852 44.9582 98.0888 31.7137 98.0888 31.7137C98.0888 31.7137 100.924 31.7137 101.153 31.7137C101.388 31.7137 101.866 31.7407 102.09 32.4173H102.659V29.9238H91.5703V29.9199Z" fill="black"/>
<path d="M140.383 29.9199V32.4134H140.951C141.176 31.7369 141.654 31.7098 141.893 31.7098C142.132 31.7098 144.96 31.7098 144.96 31.7098C144.96 31.7098 144.96 44.8538 144.96 45.2249C144.96 45.4801 144.935 45.9865 144.301 46.2262V46.837H147.553V46.23C146.916 45.9904 146.898 45.4839 146.898 45.2288C146.898 44.9582 146.901 31.7137 146.901 31.7137C146.901 31.7137 149.737 31.7137 149.961 31.7137C150.2 31.7137 150.678 31.7407 150.899 32.4173H151.472V29.9238H140.383V29.9199Z" fill="black"/>
<path d="M170.61 29.7656C170.027 29.7656 169.263 29.8043 168.318 29.8352C167.116 29.8739 165.906 29.9241 165.906 29.9241V30.5311C166.536 30.7707 166.565 31.281 166.565 31.5323C166.565 31.8068 166.561 44.858 166.561 45.2291C166.561 45.4843 166.536 45.9907 165.902 46.2304V46.8412H169.151V46.2304C168.521 45.9907 168.495 45.4843 168.495 45.2291C168.495 44.943 168.495 39.9831 168.495 39.9831C169.411 40.0604 170.1 40.1068 170.607 40.1068C174.586 40.1068 176.575 38.4097 176.575 35.0039V34.7062C176.578 31.4125 174.59 29.7656 170.61 29.7656ZM174.641 35C174.641 36.2139 174.326 37.0837 173.696 37.5979C173.065 38.112 172.041 38.3672 170.61 38.3672C170.494 38.3672 169.803 38.3285 168.499 38.2667V32.8042V31.6135C169.227 31.5555 169.918 31.5207 170.61 31.5207C172.026 31.5207 173.055 31.7681 173.688 32.2707C174.322 32.7694 174.641 33.5774 174.641 34.6985V35Z" fill="black"/>
<path d="M209.923 29.7656C209.34 29.7656 208.576 29.8043 207.631 29.8352C206.428 29.8739 205.219 29.9241 205.219 29.9241V30.5311C205.849 30.7707 205.878 31.281 205.878 31.5323C205.878 31.8068 205.874 44.858 205.874 45.2291C205.874 45.4843 205.849 45.9907 205.219 46.2304V46.8412H208.467V46.2304C207.837 45.9907 207.812 45.4843 207.812 45.2291C207.812 44.943 207.815 39.9831 207.815 39.9831C208.732 40.0604 209.42 40.1068 209.927 40.1068C213.907 40.1068 215.898 38.4097 215.898 35.0039V34.7062C215.891 31.4125 213.899 29.7656 209.923 29.7656ZM213.95 35C213.95 36.2139 213.639 37.0837 213.008 37.5979C212.378 38.112 211.353 38.3672 209.923 38.3672C209.807 38.3672 209.115 38.3285 207.812 38.2667V32.8042V31.6135C208.54 31.5555 209.231 31.5207 209.923 31.5207C211.339 31.5207 212.367 31.7681 213.001 32.2707C213.635 32.7694 213.954 33.5774 213.954 34.6985V35H213.95Z" fill="black"/>
<path d="M217.914 29.9199V30.5307C218.548 30.7704 218.57 31.2807 218.57 31.532C218.57 31.8065 218.57 44.9852 218.57 45.2249C218.57 45.4801 218.548 45.9865 217.914 46.2262V46.837H221.162V46.23C220.529 45.9904 220.503 45.4839 220.503 45.2288C220.503 44.9852 220.507 31.7098 220.507 31.7098C220.507 31.7098 225.131 31.7176 225.483 31.7176C225.722 31.7176 226.2 31.7446 226.421 32.4211H226.993V29.9277H217.914V29.9199Z" fill="black"/>
<defs>
<linearGradient id="paint0_linear_1_18188" x1="9.2678" y1="18.3548" x2="29.4854" y2="-7.07" gradientUnits="userSpaceOnUse">
<stop stop-color="#DB1E33"/>
<stop offset="1" stop-color="#F57E21"/>
</linearGradient>
<linearGradient id="paint1_linear_1_18188" x1="16.3989" y1="38.2916" x2="26.9646" y2="38.5496" gradientUnits="userSpaceOnUse">
<stop stop-color="#A11C34"/>
<stop offset="1" stop-color="#C22034"/>
</linearGradient>
<linearGradient id="paint2_linear_1_18188" x1="10.7108" y1="36.2443" x2="36.6717" y2="24.0937" gradientUnits="userSpaceOnUse">
<stop stop-color="#DB1E33"/>
<stop offset="0.8102" stop-color="#F08128"/>
<stop offset="1" stop-color="#F79421"/>
</linearGradient>
<linearGradient id="paint3_linear_1_18188" x1="9.68202" y1="45.9866" x2="-6.0994" y2="46.5759" gradientUnits="userSpaceOnUse">
<stop stop-color="#A11C34"/>
<stop offset="1" stop-color="#C22034"/>
</linearGradient>
</defs>
</svg>
