<svg width="237" height="22" viewBox="0 0 237 22" fill="none" xmlns="http://www.w3.org/2000/svg">
<path d="M231.434 11.1311C234.507 11.1311 236.997 8.6393 236.997 5.56554C236.997 2.49178 234.507 0 231.434 0C228.362 0 225.871 2.49178 225.871 5.56554C225.871 8.6393 228.362 11.1311 231.434 11.1311Z" fill="#00F500"/>
<path d="M171.14 18.7151C168.303 18.7151 166.068 16.4823 166.068 13.5775C166.068 10.6727 168.3 8.43984 171.14 8.43984C173.981 8.43984 176.276 10.6727 176.276 13.5775C176.276 16.4823 173.978 18.7151 171.14 18.7151ZM176.276 8.31328H175.67C174.553 6.30342 172.481 5.15536 170.089 5.15536C166.167 5.15536 162.529 8.82554 162.529 13.5775C162.529 18.3294 166.068 21.9695 170.089 21.9695C172.481 21.9695 174.553 20.8214 175.67 18.8116H176.276V21.5567H179.785V5.53503H176.276V8.31328ZM8.61123 18.7151C5.77395 18.7151 3.53907 16.4823 3.53907 13.5775C3.53907 10.6727 5.77094 8.43984 8.61123 8.43984C11.4515 8.43984 13.7466 10.6727 13.7466 13.5775C13.7466 16.4823 11.4485 18.7151 8.61123 18.7151ZM13.7466 8.31328H13.1412C12.0238 6.30342 9.95155 5.15234 7.56005 5.15234C3.63545 5.15234 0 8.82253 0 13.5775C0 18.3325 3.53907 21.9695 7.56005 21.9695C9.95155 21.9695 12.0238 20.8214 13.1412 18.8116H13.7466V21.5567H17.2556V5.53503H13.7466V8.31328ZM196.399 11.887H188.203V5.53503H184.694V21.5537H188.203V15.2047H196.399V21.5537H199.908V5.53503H196.399V11.887ZM212.248 13.3846L220.54 5.53503H215.754L208.326 12.8724V5.53503H204.817V21.5537H208.326V14.1832L215.82 21.5537H220.955L212.248 13.3846ZM154.204 18.4259H148.559V14.4061H154.204C155.797 14.4061 156.565 15.2348 156.565 16.416C156.565 17.5972 155.83 18.4259 154.204 18.4259ZM154.62 11.2784H148.559V8.66282H158.83V5.53503H145.054V21.5537H154.623C157.909 21.5537 160.141 19.3841 160.141 16.416C160.141 13.4479 157.872 11.2784 154.62 11.2784ZM112.136 18.682C109.232 18.682 107.097 16.4492 107.097 13.5775C107.097 10.6727 109.232 8.43984 112.136 8.43984C114.943 8.43984 117.175 10.6727 117.175 13.5775C117.175 16.4492 115.006 18.682 112.136 18.682ZM112.136 5.15234C107.925 5.15234 104.512 8.05715 103.747 11.9172H100.781V5.53503H97.2716V21.5537H100.781V15.1715H103.747C104.482 19.0647 107.925 21.9665 112.136 21.9665C116.855 21.9665 120.684 18.233 120.684 13.5745C120.684 8.8858 116.825 5.15234 112.136 5.15234ZM121.961 8.85567H127.828V21.5537H131.337V8.85567H137.204V5.53503H121.961V8.85567ZM83.3382 5.53503L76.48 21.5537H80.1787L85.5039 8.75925L90.829 21.5537H94.6874L87.8291 5.53503H83.3382ZM48.1584 8.43984C51.6041 8.43984 52.5589 11.0885 52.5589 11.0885H56.2576C56.2576 11.0885 54.7908 5.15234 48.1554 5.15234C43.4025 5.15234 39.6707 8.8858 39.6707 13.5745C39.6707 18.2963 43.4025 21.9966 48.1554 21.9966C54.7878 21.9966 56.2576 16.0604 56.2576 16.0604H52.5589C52.5589 16.0604 51.6011 18.7091 48.1584 18.7091C45.3513 18.7091 43.2459 16.4763 43.2459 13.5715C43.2459 10.6667 45.3513 8.43984 48.1584 8.43984ZM31.3817 18.3957H25.7072V14.4061H31.3847C32.9781 14.4061 33.7461 15.2348 33.7461 16.416C33.7461 17.5972 33.0082 18.3957 31.3817 18.3957ZM31.7974 11.2784H25.7072V8.69296H36.0081V5.53503H22.1982V21.5537H31.7974C35.0503 21.5537 37.3153 19.3841 37.3153 16.416C37.3153 13.4479 35.0202 11.2784 31.7974 11.2784ZM66.9109 18.682C63.9442 18.682 61.7755 16.4492 61.7755 13.5775C61.7755 10.6727 63.9442 8.43984 66.9109 8.43984C69.7814 8.43984 72.0464 10.6727 72.0464 13.5775C72.0464 16.4492 69.8476 18.682 66.9109 18.682ZM66.9109 5.15234C62.0617 5.15234 58.2365 8.8858 58.2365 13.5745C58.2365 18.233 62.0647 21.9665 66.9109 21.9665C71.7271 21.9665 75.6186 18.233 75.6186 13.5745C75.6186 8.8858 71.6638 5.15234 66.9109 5.15234Z" fill="#FF5000"/>
</svg>
