<svg width="232" height="49" viewBox="0 0 232 49" fill="none" xmlns="http://www.w3.org/2000/svg">
<path fill-rule="evenodd" clip-rule="evenodd" d="M217.676 14.0604H222.49L222.461 21.6554H223.507L226.253 14.0604H231.461L227.724 24.0945L232 35.2012H226.365L223.594 26.6983H222.461L222.49 35.1998H217.676V14.0604Z" fill="#3356D7"/>
<path fill-rule="evenodd" clip-rule="evenodd" d="M201.461 14.0604H206.244V21.684H209.669V14.0604H214.45V35.2012H209.669V26.7282H206.244V35.2012H201.461V14.0604Z" fill="#3356D7"/>
<path fill-rule="evenodd" clip-rule="evenodd" d="M184.789 35.2283H189.771L190.367 31.5738H193.789L194.385 35.2283H199.366L195.177 14.0903H189.006L184.789 35.2283ZM192.09 20.4916L192.996 26.9256H191.156L192.09 20.4916Z" fill="#3356D7"/>
<path fill-rule="evenodd" clip-rule="evenodd" d="M171.429 35.1998H177.258C178.531 35.1998 183.826 34.6608 183.854 28.2541C183.854 22.8777 179.751 21.9385 177.09 21.9385H176.212V19.1346H182.693V14.0604H171.429V35.1998ZM176.212 30.9491V26.1607H176.92C177.513 26.1607 179.044 26.1879 179.044 28.3697C179.044 30.5843 177.513 30.9491 176.92 30.9491H176.212Z" fill="#3356D7"/>
<path fill-rule="evenodd" clip-rule="evenodd" d="M152.438 14.0598H156.599L160.274 19.0469L163.986 14.0584H168.118V35.1992H163.217V22.3054L160.274 25.9885L157.333 22.3054V35.1992H152.438V14.0598Z" fill="#3356D7"/>
<path fill-rule="evenodd" clip-rule="evenodd" d="M142.333 35.4577C148.135 35.4577 150.085 30.0133 150.085 24.6029C150.085 19.1924 148.135 13.7493 142.333 13.7493C136.53 13.7493 134.58 19.1924 134.58 24.6029C134.58 30.0133 136.53 35.4564 142.333 35.4564V35.4577ZM142.333 30.3263C140.602 30.3263 139.729 28.316 139.729 24.6029C139.729 20.8884 140.602 18.878 142.333 18.878C144.061 18.878 144.935 20.8884 144.935 24.6029C144.935 28.316 144.061 30.3263 142.333 30.3263Z" fill="#3356D7"/>
<path fill-rule="evenodd" clip-rule="evenodd" d="M120.395 35.1992H125.291V28.2303H126.936C131.772 28.2303 133.274 23.8652 133.274 21.0844C133.274 18.3649 131.547 14.0584 126.936 14.0584H120.395V35.1992ZM125.291 18.7066H126.453C127.557 18.7066 128.266 19.3871 128.266 21.143C128.266 23.4106 127.076 23.5794 126.453 23.5794H125.293V18.7066H125.291Z" fill="#3356D7"/>
<path fill-rule="evenodd" clip-rule="evenodd" d="M104.233 14.0604H117.593V35.1984H112.695V19.1605H109.131V35.1998H104.233V14.0604Z" fill="#3356D7"/>
<path fill-rule="evenodd" clip-rule="evenodd" d="M94.1849 22.2524C94.9765 22.2524 96.4223 21.7406 96.4223 20.1835C96.4223 18.3419 94.7534 18.2262 94.2692 18.2262C93.7047 18.2262 92.6302 18.3133 91.5815 18.8238L91.5258 14.23C92.9186 13.8584 94.3553 13.6776 95.7966 13.6924C99.8199 13.6924 101.603 16.499 101.603 19.2457C101.603 21.9108 100.072 23.5223 98.574 24.1484V24.3458C100.016 24.8031 101.942 26.1874 101.942 29.42C101.942 33.4176 99.1684 35.6267 95.6008 35.6267C93.7047 35.5995 92.4588 35.3449 90.9586 34.5242L91.0443 30.1278C92.4316 30.7267 93.3647 30.7811 94.2991 30.7811C95.885 30.7811 96.5053 29.616 96.5053 28.7694C96.5053 27.5784 95.7436 26.7849 94.0733 26.7849H92.0916V22.2524H94.1862H94.1849Z" fill="#3356D7"/>
<path fill-rule="evenodd" clip-rule="evenodd" d="M74.9412 35.1992H79.8921L80.5164 31.5419H83.9413L84.5343 35.1992H89.4852L85.296 14.0584H79.1277L74.9412 35.1992ZM82.2125 20.4352L83.1483 26.8964H81.2781L82.2125 20.4366V20.4352Z" fill="#3356D7"/>
<path fill-rule="evenodd" clip-rule="evenodd" d="M65.4598 14.0604H75.5032V19.3279H70.438V35.1984H65.4598V14.0604Z" fill="#3356D7"/>
<path fill-rule="evenodd" clip-rule="evenodd" d="M24.4989 0C10.9845 0 0 10.9883 0 24.5136C0 38.0104 10.9845 49 24.4989 49C37.9834 49 48.9653 38.0104 48.9653 24.5136C48.9653 10.9883 37.9834 0 24.4989 0ZM24.4989 47.775C11.6646 47.775 1.22413 37.3353 1.22413 24.5136C1.22413 11.6647 11.6605 1.225 24.4989 1.225C37.3115 1.225 47.7411 11.6702 47.7411 24.5136C47.7411 37.3326 37.3074 47.775 24.4989 47.775Z" fill="#3356D7"/>
<path fill-rule="evenodd" clip-rule="evenodd" d="M14.4377 9.8455C20.3516 7.21039 27.5713 7.38189 31.4463 9.1105C32.6637 9.67809 33.4825 10.0211 33.8538 10.6976C29.8332 9.61956 28.1058 9.42356 24.7408 9.50659C19.9531 9.59234 13.5849 11.4884 11.1516 12.9379L10.0812 14.2718C13.5849 12.1961 20.1258 10.8418 23.7506 10.7261C27.7971 10.6717 30.9376 11.0392 33.8266 12.0873C33.6538 12.8223 33.2866 13.1911 32.6637 13.5613C21.116 11.5483 14.2935 13.9275 8.12392 17.9509L7.67235 19.2807C14.5506 14.5522 22.9835 13.251 31.1077 14.6666C28.1942 15.6874 24.7123 15.912 21.7975 16.5884C19.307 17.1574 17.9755 17.3275 14.6608 18.4355C11.2971 19.5407 9.31132 20.6731 8.06815 22.1186C7.47377 22.8019 7.02084 23.5927 6.90523 24.4407C6.85354 24.9484 6.88074 25.4071 7.05212 25.8603C7.18814 26.2564 7.50097 26.6525 7.84237 27.0486C7.44792 27.7291 7.10245 28.6098 7.67235 29.6306C7.92669 30.1084 8.57684 30.5902 9.20387 31.0489L9.02705 31.5525C8.94272 32.1514 8.86112 32.8592 9.25828 33.4526C9.93427 34.5279 10.7544 35.2398 12.0575 35.9203C12.2574 36.7982 12.5662 37.5046 13.2449 38.1321C14.6893 39.4606 17.917 42.0113 23.6609 42.4101C27.9657 42.6959 31.0505 41.3893 32.2121 40.8217L33.6266 40.0867C31.2219 41.0476 27.1755 41.6152 23.8608 41.3321C19.0486 40.9346 14.7505 37.7905 14.2119 36.8826C14.3792 36.9942 14.6064 37.08 14.8009 37.1657C20.436 39.8866 27.71 41.362 37.0229 37.5645L37.79 36.8268C29.3231 39.4592 21.9117 39.3775 13.9535 35.2125C14.0419 34.8151 14.2119 34.4707 14.5764 34.1917C16.6126 35.0941 18.5685 35.8359 20.946 36.315C23.7207 36.8268 26.8898 36.9411 29.4959 36.8268C32.1291 36.7138 37.3344 35.4099 39.7976 34.1073C40.0221 33.9086 40.1349 33.571 40.3607 33.3424C35.554 35.0941 29.8332 35.9203 26.3825 35.6617C23.0134 35.4099 20.0157 35.0111 16.0508 33.1981C16.819 32.8923 17.6026 32.6269 18.3985 32.4032C21.0031 33.1981 23.6622 33.6772 26.8042 33.8215C29.9203 33.963 37.1929 32.8034 41.7766 30.0281C41.9208 29.6306 42.0609 29.2019 42.0609 29.2019C42.0609 29.2019 35.6913 32.606 28.4771 32.606C25.1067 32.606 23.042 32.1228 21.5145 31.7553C24.9081 31.1306 29.1858 30.6188 33.9925 29.4019C36.4272 28.7772 39.4277 27.3603 40.7878 26.172C41.9467 25.1199 42.8552 23.7588 42.5438 22.3759C42.4826 22.0029 41.9752 21.1291 41.3523 20.8161C41.9467 20.0498 41.8909 19.3978 41.8079 18.8356C41.7494 18.4042 41.5509 17.9264 41.3006 17.5018C40.8931 16.942 40.3698 16.4768 39.7663 16.1379C39.882 15.4846 39.7976 14.9197 39.5406 14.3821C38.9475 13.3613 37.873 12.4847 36.0327 11.5483C35.9484 11.178 35.7199 10.6976 35.3255 10.2171C33.0064 7.92089 29.2116 6.81567 26.0112 6.7585C25.8344 6.75476 25.6576 6.75294 25.4807 6.75306C21.7376 6.75306 18.7344 7.59422 16.8724 8.46261C16.0152 8.83811 15.1993 9.30155 14.4377 9.8455ZM35.8056 12.9379C36.5999 13.4484 37.5058 14.2133 37.616 15.0068C36.7699 14.6924 35.8641 14.3576 34.9868 14.1289C35.2724 13.8159 35.6927 13.3354 35.8042 12.9379H35.8056ZM31.5592 16.4809C32.5249 16.1093 33.1724 15.7146 33.7423 15.26C35.0113 15.5976 36.2 16.0249 37.1685 16.4496C37.0012 16.696 36.0314 17.5929 35.7362 17.5929C35.7208 17.5941 35.7054 17.5913 35.6913 17.5848C34.3366 17.2146 33.1479 16.7599 31.5592 16.4809ZM39.176 17.612C39.9377 18.264 40.1635 18.7172 39.7976 19.4264C39.2903 19.0589 38.749 18.8588 38.1559 18.5757C38.5232 18.2926 38.8632 17.9836 39.176 17.612ZM15.655 20.2199C19.1914 19.1691 23.3263 18.3797 27.0626 17.9264C29.6333 17.612 30.9961 17.8992 33.4321 18.5484C27.1755 20.2199 21.0031 20.7548 15.1151 22.4861C10.3682 23.8663 9.11002 25.6044 9.08962 25.6044C6.99227 22.7134 14.265 20.6473 15.655 20.2199ZM18.9956 23.7043C24.2294 22.5719 29.1001 21.8641 31.109 21.3551C33.5437 20.7562 35.2425 20.1913 36.4272 19.6264C36.4843 19.5407 38.4089 20.4744 38.6075 20.6976C37.9573 21.2394 37.0542 21.6953 36.0599 22.0315C33.0894 23.1082 27.6842 24.2406 24.8251 24.6734C21.9389 25.1526 19.5274 25.5173 16.3351 26.3653C14.4921 26.8499 13.2449 27.4161 12.339 28.0123C11.6617 27.6162 11.2645 27.5046 10.6429 26.9914C12.8504 25.1199 17.3525 24.0732 18.9956 23.7043ZM17.6898 28.2981C22.672 27.0731 27.0626 26.8499 33.1193 25.2084C36.0327 24.4407 38.1559 23.6159 39.4875 22.6018C39.6847 22.4276 39.882 22.2874 40.0819 22.1186C41.8365 24.8381 35.2425 26.9356 30.7377 27.9034C28.2473 28.4083 24.7939 29.0304 23.6609 29.2332C20.7229 29.7136 19.7559 29.9695 17.7184 30.5643C16.701 30.1669 15.6809 29.7409 14.7505 29.2577C15.6809 28.8629 16.6996 28.5499 17.6885 28.2981H17.6898ZM10.7857 29.2019C10.5871 29.372 10.3301 29.5435 10.1342 29.7409C9.684 29.4823 9.22699 28.9228 9.45414 28.407C9.90707 28.6942 10.2457 28.9228 10.7857 29.2019ZM12.8504 30.254C13.7005 30.6514 14.5764 31.0162 15.3966 31.3851C14.8453 31.5871 14.3158 31.8443 13.8161 32.1528C13.1361 31.7798 12.4832 31.4137 11.8045 31.0162C12.0887 30.7617 12.4546 30.5085 12.8518 30.254H12.8504ZM12.5131 33.228C12.3145 33.5111 12.1703 33.7357 12.0887 34.0216C11.3801 33.4254 11.0373 32.9436 11.0686 32.4032C11.5488 32.7163 12.0289 32.9694 12.5131 33.228Z" fill="#3356D7"/>
</svg>
