<svg width="265" height="44" viewBox="0 0 265 44" fill="none" xmlns="http://www.w3.org/2000/svg">
<path d="M207.734 13.1992H218.727V16.6312H211.844V20.1366H214.143C215.686 20.1366 217.659 20.3272 219.157 21.7792C219.795 22.4099 220.596 23.5686 220.596 25.4459C220.596 26.9566 220.092 28.2912 219.157 29.2152C217.852 30.5059 215.953 30.7992 213.787 30.7992H207.734V13.1992ZM213.476 27.5286C214.039 27.5286 215.048 27.4699 215.686 26.9712C215.894 26.7806 216.383 26.3112 216.383 25.4166C216.383 24.5659 215.953 24.0379 215.582 23.7739C214.944 23.3192 213.906 23.3046 213.476 23.3046H211.844V27.5286H213.476Z" fill="#2B2D34"/>
<path d="M231.663 19.0366H235.505V30.7993H231.663V29.3766C230.625 30.9606 229.126 31.1953 228.147 31.1953C226.441 31.1953 225.002 30.77 223.697 29.406C222.436 28.086 221.961 26.5606 221.961 25.006C221.961 23.026 222.703 21.3393 223.801 20.254C224.839 19.2273 226.278 18.6406 227.94 18.6406C228.948 18.6406 230.58 18.8753 231.678 20.3566V19.0366H231.663ZM226.782 22.7473C226.382 23.1433 225.907 23.8326 225.907 24.8886C225.907 25.9446 226.367 26.634 226.708 27.0006C227.242 27.558 228.073 27.9246 228.978 27.9246C229.749 27.9246 230.476 27.602 230.981 27.1033C231.485 26.634 231.915 25.886 231.915 24.8886C231.915 24.038 231.589 23.246 231.04 22.718C230.447 22.1606 229.601 21.8966 228.904 21.8966C228.073 21.9113 227.287 22.2486 226.782 22.7473Z" fill="#2B2D34"/>
<path d="M237.836 19.0371H241.678V23.1291H245.98V19.0371H249.823V30.7998H245.98V26.1798H241.678V30.7998H237.836V19.0371Z" fill="#2B2D34"/>
<path d="M252.137 19.0371H255.979V23.7011L259.881 19.0371H264.658L259.554 24.4931L264.999 30.7998H260.029L255.979 25.5784V30.7998H252.137V19.0371Z" fill="#2B2D34"/>
<path d="M58.1971 13.1992C59.74 13.1992 61.446 13.4046 62.8702 14.6512C64.3982 15.9712 64.6059 17.7166 64.6059 18.9192C64.6059 21.1339 63.7455 22.3806 63.0779 23.0552C61.6686 24.4779 59.7993 24.6099 58.5383 24.6099H56.0312V30.7992H51.9219V13.1992H58.1971ZM56.0312 21.2952H57.4999C58.0636 21.2952 59.0427 21.2659 59.7103 20.6352C60.0812 20.2686 60.3779 19.6526 60.3779 18.8899C60.3779 18.1566 60.1109 17.5406 59.7103 17.1739C59.1021 16.5872 58.212 16.5139 57.4109 16.5139H56.0164V21.2952H56.0312Z" fill="#2B2D34"/>
<path d="M74.6358 19.0366H78.4781V30.7993H74.6358V29.3766C73.5973 30.9606 72.099 31.1953 71.1198 31.1953C69.4138 31.1953 67.9748 30.77 66.6693 29.406C65.4083 28.086 64.9336 26.5606 64.9336 25.006C64.9336 23.026 65.6753 21.3393 66.7731 20.254C67.8116 19.2273 69.2506 18.6406 70.9122 18.6406C71.9209 18.6406 73.5528 18.8753 74.6506 20.3566V19.0366H74.6358ZM69.755 22.7473C69.3545 23.1433 68.8797 23.8326 68.8797 24.8886C68.8797 25.9446 69.3396 26.634 69.6808 27.0006C70.2149 27.558 71.0457 27.9246 71.9506 27.9246C72.722 27.9246 73.449 27.602 73.9534 27.1033C74.4577 26.634 74.888 25.886 74.888 24.8886C74.888 24.038 74.5616 23.246 74.0127 22.718C73.4193 22.1606 72.5737 21.8966 71.8764 21.8966C71.0308 21.9113 70.2594 22.2486 69.755 22.7473Z" fill="#2B2D34"/>
<path d="M84.647 19.0365V25.7685L89.7206 19.0365H93.2959V30.7991H89.4536V23.9645L84.38 30.7991H80.8047V19.0365H84.647ZM91.8717 14.2845C91.5453 15.2378 90.9074 16.0591 90.1656 16.5285C89.1569 17.1885 87.9255 17.2618 87.0503 17.2618C86.175 17.2618 84.9437 17.1885 83.9349 16.5285C83.1931 16.0591 82.5404 15.2378 82.2289 14.2845L84.8992 13.2578C85.003 13.7858 85.2701 14.2111 85.5964 14.4751C85.9376 14.7685 86.3975 14.9445 87.0651 14.9445C87.7327 14.9445 88.1926 14.7538 88.5338 14.4751C88.8602 14.2111 89.1272 13.7858 89.231 13.2578L91.8717 14.2845Z" fill="#2B2D34"/>
<path d="M101.781 36.6659V30.9899H101.618C98.9181 30.9899 97.4345 29.8752 96.7373 29.2152C95.8769 28.3939 95.0312 27.0005 95.0312 24.8592C95.0312 22.5419 96.0994 21.0605 97.0933 20.2685C98.2653 19.3445 100.031 18.8459 101.603 18.8459H101.796V13.1992H105.638V18.8459H105.831C107.404 18.8459 109.169 19.3445 110.341 20.2685C111.335 21.0605 112.403 22.5419 112.403 24.8592C112.403 27.0005 111.543 28.3939 110.697 29.2152C110 29.8752 108.502 30.9899 105.816 30.9899H105.624V36.6659H101.781ZM101.959 21.9112C101.054 21.8525 100.12 22.1752 99.556 22.7325C99.0961 23.1872 98.7845 23.9499 98.7845 24.8739C98.7845 25.7979 99.1109 26.5605 99.556 27.0445C100.06 27.6019 100.965 27.9685 101.959 27.9392V21.9112ZM105.431 27.9245C106.425 27.9539 107.33 27.5872 107.834 27.0299C108.294 26.5605 108.605 25.7832 108.605 24.8592C108.605 23.9352 108.279 23.1725 107.834 22.7179C107.27 22.1605 106.336 21.8525 105.431 21.8965V27.9245Z" fill="#2B2D34"/>
<path d="M120.281 36.6659V30.9899H120.118C117.418 30.9899 115.935 29.8752 115.237 29.2152C114.377 28.3939 113.531 27.0005 113.531 24.8592C113.531 22.5419 114.599 21.0605 115.593 20.2685C116.765 19.3445 118.531 18.8459 120.103 18.8459H120.296V13.1992H124.138V18.8459H124.331C125.904 18.8459 127.669 19.3445 128.841 20.2685C129.835 21.0605 130.903 22.5419 130.903 24.8592C130.903 27.0005 130.043 28.3939 129.197 29.2152C128.5 29.8752 127.002 30.9899 124.316 30.9899H124.153V36.6659H120.281ZM120.459 21.9112C119.554 21.8525 118.62 22.1752 118.056 22.7325C117.596 23.1872 117.285 23.9499 117.285 24.8739C117.285 25.7979 117.611 26.5605 118.056 27.0445C118.56 27.6019 119.465 27.9685 120.459 27.9392V21.9112ZM123.931 27.9245C124.925 27.9539 125.83 27.5872 126.334 27.0299C126.794 26.5605 127.105 25.7832 127.105 24.8592C127.105 23.9352 126.779 23.1725 126.334 22.7179C125.77 22.1605 124.836 21.8525 123.931 21.8965V27.9245Z" fill="#2B2D34"/>
<path d="M141.733 19.0366H145.576V30.7993H141.733V29.3766C140.695 30.9606 139.197 31.1953 138.217 31.1953C136.511 31.1953 135.072 30.77 133.767 29.406C132.506 28.086 132.031 26.5606 132.031 25.006C132.031 23.026 132.773 21.3393 133.871 20.254C134.909 19.2273 136.348 18.6406 138.01 18.6406C139.019 18.6406 140.65 18.8753 141.748 20.3566V19.0366H141.733ZM136.853 22.7473C136.452 23.1433 135.977 23.8326 135.977 24.8886C135.977 25.9446 136.437 26.634 136.778 27.0006C137.313 27.558 138.143 27.9246 139.048 27.9246C139.82 27.9246 140.547 27.602 141.051 27.1033C141.555 26.634 141.986 25.886 141.986 24.8886C141.986 24.038 141.659 23.246 141.11 22.718C140.517 22.1606 139.671 21.8966 138.974 21.8966C138.128 21.9113 137.357 22.2486 136.853 22.7473Z" fill="#2B2D34"/>
<path d="M151.749 19.0365V25.7685L156.822 19.0365H160.397V30.7991H156.555V23.9645L151.482 30.7991H147.906V19.0365H151.749ZM158.973 14.2845C158.647 15.2378 158.009 16.0591 157.267 16.5285C156.258 17.1885 155.027 17.2618 154.152 17.2618C153.277 17.2618 152.045 17.1885 151.036 16.5285C150.295 16.0591 149.642 15.2378 149.33 14.2845L152.001 13.2578C152.105 13.7858 152.372 14.2111 152.698 14.4751C153.039 14.7685 153.499 14.9445 154.167 14.9445C154.834 14.9445 155.294 14.7538 155.635 14.4751C155.962 14.2111 156.229 13.7858 156.333 13.2578L158.973 14.2845Z" fill="#2B2D34"/>
<path d="M162.312 20.033C162.817 19.7103 163.647 19.2997 164.285 19.0503C165.19 18.7277 166.184 18.625 167.089 18.625C167.727 18.625 169.923 18.6837 171.124 19.8423C171.792 20.473 172 21.221 172 22.013C172 22.7463 171.866 23.4063 171.273 24.0223C170.976 24.3157 170.635 24.5503 170.264 24.6823C171.139 24.8877 171.703 25.3717 171.866 25.533C172.459 26.0903 172.667 26.721 172.667 27.4837C172.667 28.305 172.4 29.1703 171.629 29.933C170.62 30.9157 169.225 31.1943 167.252 31.1943C166.184 31.1943 165.057 31.0623 164.003 30.6663C162.965 30.2703 162.194 29.6837 161.867 29.4197L163.499 26.9117C163.929 27.2783 164.493 27.645 164.968 27.865C165.472 28.0703 166.199 28.2317 166.807 28.2317C167.237 28.2317 167.816 28.1583 168.202 27.9383C168.662 27.6743 168.736 27.3077 168.736 27.0437C168.736 26.6477 168.528 26.413 168.172 26.2517C167.846 26.1197 167.208 26.0463 166.778 26.0463H165.339V23.465H166.436C166.778 23.465 167.505 23.4063 167.875 23.2597C168.335 23.0543 168.439 22.7023 168.439 22.4677C168.439 22.2623 168.335 21.9103 167.846 21.705C167.653 21.6317 167.282 21.4997 166.644 21.4997C166.036 21.4997 165.576 21.6023 165.072 21.8223C164.567 22.0277 164.167 22.277 163.796 22.585L162.312 20.033Z" fill="#2B2D34"/>
<path d="M186.596 25.578H177.71C177.71 26.2086 177.948 27.0593 178.437 27.5873C179.031 28.218 179.832 28.3206 180.41 28.3206C180.974 28.3206 181.553 28.218 181.953 27.9833C182.012 27.954 182.457 27.6606 182.784 27.0006L186.418 27.3673C185.884 29.0246 184.816 29.9046 184.119 30.33C182.977 31.0193 181.686 31.1953 180.351 31.1953C178.556 31.1953 176.983 30.8726 175.604 29.5086C174.565 28.482 173.809 26.9273 173.809 24.9766C173.809 23.29 174.417 21.5446 175.618 20.3273C177.057 18.9046 178.853 18.6406 180.188 18.6406C181.523 18.6406 183.437 18.8753 184.905 20.4153C186.315 21.8966 186.582 23.7446 186.582 25.1966V25.578H186.596ZM183.051 23.3046C183.021 23.202 182.843 22.454 182.279 21.926C181.849 21.53 181.241 21.266 180.47 21.266C179.476 21.266 178.897 21.662 178.526 22.0286C178.229 22.3513 177.962 22.762 177.859 23.29H183.051V23.3046Z" fill="#2B2D34"/>
<path d="M188.332 19.0371H192.174V23.1291H196.477V19.0371H200.319V30.7998H196.477V26.1798H192.174V30.7998H188.332V19.0371Z" fill="#2B2D34"/>
<path d="M0 36.6667V7.33333C0 3.28533 3.32307 0 7.41757 0H37.0878C41.1823 0 44.5054 3.28533 44.5054 7.33333V36.6667C44.5054 40.7147 41.1823 44 37.0878 44H7.41757C3.32307 44 0 40.7147 0 36.6667Z" fill="#FFE600"/>
<path d="M28.6175 19.8603V15.6656L30.1455 14.1403V17.7923L31.4807 19.1123L36.851 13.803L38.1862 15.123C38.1713 14.1256 37.9785 11.2656 35.5159 8.87496C32.8604 6.35229 29.9972 7.49629 29.0181 8.46429L23.6477 13.7736L25.0126 15.123L22.2532 17.851L19.4791 15.1083L20.8439 13.759L15.4736 8.44963C14.5093 7.48163 11.6313 6.33763 8.99064 8.86029C6.528 11.251 6.32031 14.1256 6.32031 15.1083L7.65547 13.7883L13.0258 19.0976L14.361 17.7776V14.1403L15.889 15.6656V19.8603L18.0549 22.0016L7.41811 32.5176L11.6165 36.6683L22.2532 26.1523L32.89 36.6683L37.0884 32.5176L26.4516 22.0016L28.6175 19.8603Z" fill="#2B2D34"/>
</svg>
