<svg width="165" height="29" viewBox="0 0 165 29" fill="none" xmlns="http://www.w3.org/2000/svg">
<path d="M80.9491 0H74.0008V28.9998H80.1885V9.86871H80.5689L87.1369 20.9063H90.4444L96.9952 9.86871H97.3756V28.9998H103.619V0H96.7816L88.9146 13.1597L80.9491 0Z" fill="#DD0A34"/>
<path d="M116.573 0H110.3V28.9998H116.569V16.6221H119.705L128.354 28.9998H136.534L124.961 13.5465L135.516 0H127.675L119.654 10.6904L116.56 11.0375L116.573 0Z" fill="#DD0A34"/>
<path fill-rule="evenodd" clip-rule="evenodd" d="M141.081 0H163.636L158.081 5.8439H147.398V10.3433H153.897C155.398 10.322 156.895 10.5112 158.346 10.9057C159.629 11.2422 160.838 11.83 161.906 12.6369C162.854 13.4139 163.635 14.3869 164.196 15.4929C164.738 16.7917 165.012 18.1922 165 19.6056C165.008 20.9902 164.734 22.3612 164.196 23.6305C163.614 24.7586 162.823 25.7589 161.867 26.5743C160.811 27.3928 159.619 28.0091 158.35 28.3933C156.901 28.8032 155.404 29.0072 153.901 28.9998H141.081V0ZM147.398 16.016V23.2L153.919 23.1956C155.487 23.1956 156.67 22.8485 157.435 22.2421C157.818 21.9273 158.125 21.5252 158.331 21.0678C158.538 20.6103 158.637 20.1099 158.624 19.6058C158.656 19.0992 158.564 18.5926 158.356 18.1321C158.148 17.6714 157.832 17.2718 157.435 16.9695C156.654 16.3191 155.53 16.016 154.089 16.016H147.398Z" fill="#DD0A34"/>
<path d="M35.0706 0.0307577L20.9945 14.4999L13.9608 7.26314L21.003 0H6.91414L0 7.26314L21.1441 28.9998L39.1943 10.2906H49.9973L59.9752 0.0307577H35.0706Z" fill="#DD0A34"/>
<path d="M24.0444 28.6883L26.0657 26.632L39.9793 12.3034H59.9826L49.9959 22.5588H44.1288L38.1888 28.6883H24.0444Z" fill="#DD0A34"/>
</svg>
