<svg width="134" height="47" viewBox="0 0 134 47" fill="none" xmlns="http://www.w3.org/2000/svg">
<path d="M43.2661 0.998047V1.00656L39.0798 5.06596V0.998047H34.8921V0.99848V0.998047L27.9141 7.76261V25.3507H30.7053V9.11598L36.2882 3.70407V25.3507H39.0798V9.11598L44.6618 3.70407V25.3507H47.4534V0.998047H43.2661Z" fill="#1E2321"/>
<path d="M0.00168648 25.3514H11.1674V0.998769H6.97959V0.999347L6.97919 0.998047L0 7.76348L0.00168648 7.76505V25.3514ZM8.37578 3.70479V22.6455H2.79322V9.11642L8.37578 3.70479Z" fill="#1E2321"/>
<path d="M25.1262 0.998047H13.9609V25.3506H25.1262V0.998047ZM16.752 3.70393H22.3348V22.645H16.752V3.70393Z" fill="#1E2321"/>
<path d="M0 30.7647H47.4532V28.0586H0V30.7647Z" fill="#1E2321"/>
<path d="M0 33.4707V46.9998H2.79153V44.2942H19.5397V33.4707H0ZM16.7483 41.5882H2.79153V36.1767H16.7483V41.5882Z" fill="#1E2321"/>
<path d="M22.3359 33.4707V44.2942H33.5017V46.9998H36.2927V44.2942H47.4583V33.4707H22.3359ZM25.127 36.1767H33.5012V41.5882H25.127V36.1767ZM44.6668 41.5882H36.2927V36.1767H44.6668V41.5882Z" fill="#1E2321"/>
<path d="M91.5627 31.4393H86.5469V19.2656H94.8351V21.3853H88.9938V23.8468H91.5627C94.0793 23.8468 95.6265 25.4217 95.6265 27.6433C95.6265 29.8668 94.0966 31.4393 91.5627 31.4393ZM91.4398 25.9682H88.9938V29.3204H91.4398C92.5303 29.3204 93.1812 28.6534 93.1812 27.6433C93.1812 26.6525 92.5303 25.9682 91.4398 25.9682Z" fill="#1E2321"/>
<path d="M106.085 31.4393L105.345 29.2859H100.894L100.136 31.4393H97.5859L102.143 19.2656H104.061L108.636 31.4393H106.085ZM103.164 22.8565L101.58 27.2846H104.694L103.164 22.8565Z" fill="#1E2321"/>
<path d="M117.888 31.4393V26.343H113.648V31.4393H111.203V19.2656H113.648V24.2403H117.888V19.2656H120.336V31.4393H117.888Z" fill="#1E2321"/>
<path d="M124.164 31.4393V19.2656H126.609V25.0452L130.657 19.2656H133.579L129.372 24.9774L134 31.4393H131.01L126.609 25.0784V31.4393H124.164Z" fill="#1E2321"/>
<path d="M69.7831 46.9949H66.9922V1.00586H69.7831V46.9949Z" fill="#7FCB2C"/>
</svg>
