<svg width="53" height="36" viewBox="0 0 53 36" fill="none" xmlns="http://www.w3.org/2000/svg">
<path fill-rule="evenodd" clip-rule="evenodd" d="M16.2093 7.2124C11.1268 7.31095 8.66061 7.97472 8.66061 7.97472C7.55109 8.2733 6.30457 9.34707 5.89042 10.3616L4.22288 14.4441H1.92316C0.865394 14.4441 0 15.259 0 16.2552C0 17.2511 0.865331 18.0662 1.92316 18.0662H2.74341L2.15171 19.5151C1.73757 20.5286 1.39858 22.2478 1.39858 23.3344V31.8954C1.39858 33.163 2.50005 34.2002 3.84609 34.2002C5.19214 34.2002 6.29361 33.163 6.29361 31.8954V30.5784H23.6686C21.2808 27.365 19.0919 23.081 17.6905 17.4074H6.64354C6.25891 17.4074 6.05295 17.1293 6.18588 16.7898L8.14999 11.7695C8.28316 11.4296 8.70658 11.1514 9.09119 11.1514H16.5602C16.4428 10.1757 16.3466 9.16773 16.2735 8.12655L16.2093 7.2124ZM7.58686 25.7725C9.04428 25.7725 10.2258 24.6545 10.2258 23.2754C10.2258 21.8963 9.04428 20.7783 7.58686 20.7783C6.12943 20.7783 4.94795 21.8963 4.94795 23.2754C4.94795 24.6545 6.12943 25.7725 7.58686 25.7725Z" fill="#1A1A1A"/>
<path fill-rule="evenodd" clip-rule="evenodd" d="M35.8645 36C35.8645 36 50.3708 31.964 52.0024 7.81193C52.0024 7.81193 44.6278 7.48628 35.8645 0C27.1 7.48632 19.7266 7.81193 19.7266 7.81193C21.3585 31.9635 35.8645 36 35.8645 36Z" fill="#465587"/>
</svg>
