<svg width="393" height="125" viewBox="0 0 393 125" fill="none" xmlns="http://www.w3.org/2000/svg">
<g filter="url(#filter0_b_700_589)">
<path d="M43.907 87.814C19.6578 87.814 0 68.1561 0 43.907C0 19.6578 19.6578 0 43.907 0C68.1561 0 87.814 19.6578 87.814 43.907C87.814 58.8593 80.3399 72.0659 68.9239 79.9947C68.7192 80.1368 68.5717 80.3524 68.5146 80.595C65.6826 92.6162 65.0764 100.45 65.1075 111.701C65.1106 112.839 63.4232 113.146 63.0042 112.087C59.5387 103.336 55.7153 97.1473 48.0233 87.6235C46.6681 87.7495 45.2951 87.814 43.907 87.814Z" fill="#A0A747"/>
</g>
<path fill-rule="evenodd" clip-rule="evenodd" d="M42.9889 64.7898L36.25 66.3109C16.8925 51.4798 23.1535 26.5685 45.394 36.6078C71.1746 30.6376 69.1511 56.7183 49.4487 67.2323L42.9889 64.7898ZM44.2942 32.901L33.7749 19.6911L37.7685 16.4648L43.2312 26.0096C44.7044 21.1378 51.0458 18.1835 56.9072 18.2897C58.8916 26.4401 54.8473 35.3813 44.2942 32.901Z" fill="#3E4B1B"/>
<g filter="url(#filter1_b_700_589)">
<path d="M110.635 57.9334C107.523 36.5799 122.31 16.7468 143.664 13.6348C165.017 10.5228 184.851 25.3105 187.962 46.664C190.62 64.8967 180.227 82.021 163.84 88.5741C160.553 93.1164 160.038 110.468 159.927 116.764C157.416 107.888 155.6 99.2534 147.585 91.3406C145.45 91.2493 143.35 90.9832 141.301 90.5546C125.705 87.2926 113.066 74.617 110.635 57.9334Z" fill="#D5B753"/>
</g>
<path fill-rule="evenodd" clip-rule="evenodd" d="M159.36 72.5559L143.677 72.8354L143.739 69.7533C137.067 67.7776 131.573 62.4109 131.125 53.5007C135.897 53.2604 162.41 51.4999 169.055 51.1654C169.496 59.9169 164.988 65.7777 158.941 68.623L159.36 72.5559ZM164.179 48.6875C164.176 48.3517 164.102 48.0204 163.963 47.7144C163.823 47.4085 163.622 47.1346 163.37 46.9102C163.118 46.6858 162.822 46.5157 162.501 46.4107C162.179 46.3057 161.839 46.268 161.502 46.3002L161.309 46.3099L161.007 45.9414C161.165 45.549 161.233 45.1268 161.205 44.7054C161.202 44.296 161.094 43.894 160.89 43.538C160.686 43.1821 160.394 42.884 160.041 42.6724L160.966 40.5248C161.697 40.8847 162.318 41.4306 162.767 42.1067C163.215 42.7829 163.475 43.5652 163.519 44.3737C164.384 44.6843 165.135 45.2442 165.676 45.9814C166.218 46.7187 166.525 47.5998 166.558 48.5116C166.567 48.6983 166.632 49.9865 166.632 49.9865L164.279 50.105C164.279 50.105 164.182 48.7342 164.179 48.6875ZM154.103 50.4114L157.693 30.2407L160.795 30.6554L156.629 50.3451L154.103 50.4114ZM149.905 50.4449L150.925 39.4018C150.449 39.112 149.893 38.9764 149.335 39.014C148.769 39.0183 148.223 39.2203 147.793 39.5843C147.363 39.9483 147.075 40.4511 146.981 41.0042L146.655 41.0768C146.398 40.7916 146.079 40.5684 145.721 40.4242C145.364 40.2801 144.978 40.2186 144.594 40.2447C144.255 40.2472 143.92 40.3195 143.611 40.4568C143.301 40.5941 143.024 40.7935 142.796 41.0424C142.568 41.2913 142.395 41.5843 142.287 41.903C142.179 42.2216 142.139 42.5589 142.17 42.8935C142.173 42.9635 142.176 43.0289 142.18 43.0989L141.766 43.4005C141.386 43.2464 140.976 43.1776 140.567 43.1988C140.228 43.2007 139.893 43.2724 139.583 43.4095C139.273 43.5466 138.996 43.746 138.768 43.995C138.54 44.2441 138.366 44.5374 138.259 44.8564C138.151 45.1753 138.112 45.5129 138.143 45.8477C138.16 46.3311 138.301 46.8021 138.551 47.2169L138.399 47.4819C138.272 47.4813 138.145 47.4877 138.018 47.501C137.68 47.5029 137.345 47.5745 137.036 47.7113C136.726 47.8481 136.449 48.047 136.221 48.2956C135.993 48.5442 135.82 48.8369 135.712 49.1553C135.604 49.4737 135.564 49.8108 135.594 50.1452C135.596 50.1779 135.665 51.5455 135.665 51.5455L133.293 51.6649L133.22 50.2273C133.154 49.3114 133.367 48.3968 133.832 47.6022C134.297 46.8077 134.992 46.1701 135.827 45.7724C135.771 44.5655 136.198 43.3852 137.016 42.4886C137.833 41.5921 138.974 41.0519 140.191 40.9857C140.508 40.1212 141.079 39.3709 141.831 38.8324C142.583 38.2939 143.481 37.9919 144.408 37.9658C144.94 37.9388 145.473 37.9957 145.988 38.1343C146.833 37.2513 147.991 36.7296 149.217 36.6803C149.874 36.6438 150.532 36.738 151.152 36.9572L151.987 27.8701L155.07 27.9957L152.302 50.4365L149.905 50.4449Z" fill="#8F4420"/>
<g filter="url(#filter2_b_700_589)">
<path d="M213.893 61.4522C215.84 43.5293 231.947 30.5783 249.87 32.5253C267.793 34.4722 280.744 50.5799 278.797 68.5027C277.135 83.8062 265.148 95.4849 250.523 97.3597C246.915 100.347 242.871 114.274 241.465 119.344C241.29 111.639 241.625 104.275 236.797 96.1992C235.089 95.679 233.446 95.0247 231.878 94.2497C219.945 88.3506 212.372 75.4555 213.893 61.4522Z" fill="#8F4420"/>
</g>
<path fill-rule="evenodd" clip-rule="evenodd" d="M250.241 82.8209C247.359 82.3132 246.421 80.1007 246.172 77.0195C245.964 74.416 245.55 71.2955 245.393 70.1639L247.657 68.2669L247.888 70.6007L249.473 72.1858C250.383 71.8814 251.357 71.8198 252.298 72.0071C259.424 73.2593 257.831 84.1565 250.241 82.8209ZM251.846 74.8068C248.413 74.2018 247.498 79.4504 250.845 80.0415C254.509 80.6882 255.282 75.4124 251.846 74.8068ZM247.54 66.8389L243.051 69.3523C243.051 69.3523 240.281 74.7934 239.284 76.8868C238.288 78.9803 236.374 80.3663 233.565 79.8746C225.947 78.5302 228.228 67.7569 235.382 69.0178C236.391 69.1732 237.337 69.6055 238.115 70.2668L240.26 69.4482L242.018 65.8543C242.018 65.8543 238.945 53.2695 238.074 49.6546C237.215 46.2014 240.623 43.0674 240.623 43.0674L246.006 59.5417L256.772 45.9455C256.772 45.9455 258.975 49.8807 256.89 53.0014C254.805 56.122 247.54 66.8389 247.54 66.8389ZM234.844 71.8036C231.387 71.1947 230.281 76.4081 233.966 77.0581C237.329 77.6519 238.289 72.4105 234.844 71.8036ZM245.129 62.9499C244.972 62.9458 244.815 62.9727 244.669 63.0292C244.522 63.0857 244.388 63.1707 244.274 63.2792C244.159 63.3877 244.068 63.5176 244.004 63.6616C243.94 63.8056 243.905 63.9608 243.9 64.1184C243.896 64.276 243.923 64.4328 243.979 64.5799C244.035 64.7271 244.12 64.8616 244.228 64.9759C244.336 65.0903 244.465 65.1821 244.609 65.2462C244.752 65.3103 244.907 65.3454 245.064 65.3495C246.603 65.4004 246.705 63.0026 245.13 62.9417L245.129 62.9499Z" fill="#D5B753"/>
<g filter="url(#filter3_b_700_589)">
<path d="M311 55.9302C311 69.9983 318.11 82.4087 328.938 89.7761C334.512 93.5692 341.073 96.0255 348.156 96.683C349.422 96.8004 350.704 96.8605 352 96.8605C374.644 96.8605 393 78.5354 393 55.9302C393 33.3251 374.644 15 352 15C329.356 15 311 33.3251 311 55.9302Z" fill="#465587"/>
<path d="M348.156 96.683C339.464 107.427 336.062 113.617 332.141 125C332.369 110.965 332.127 103.17 328.938 89.7761C334.512 93.5692 341.073 96.0255 348.156 96.683Z" fill="#465587"/>
</g>
<path d="M349.506 41.6552L350.032 38.7733L359.415 40.6876L358.741 43.5926L363.247 44.7601L363.812 42.2027L359.76 37.0554L351.173 35.2974L345.118 38.2752L344.761 40.9898L349.506 41.6552Z" fill="#77DFE9"/>
<path d="M367.403 47.4669C362.737 46.5812 345.976 43.2099 340.866 42.2398C334.933 41.1135 331.693 43.8177 330.728 48.6261C329.464 54.9175 328.891 57.8825 328.598 59.4276C327.776 63.757 329.228 67.7612 334.579 68.7769C337.644 69.359 360.239 74.1599 362.615 74.611C366.498 75.3482 370.234 72.7381 371.102 68.1668C371.438 66.3946 372.025 63.5806 373.215 57.3161C374.08 52.729 373.57 48.6378 367.403 47.4669ZM352.654 66.1478L346.587 64.8374L347.57 60.0221L342.184 58.9434L343.147 53.8735L348.64 54.7782L349.666 49.7614L355.267 50.9322L354.441 55.7313L359.807 56.6068L358.904 62.2813L353.508 61.2006L352.654 66.1478Z" fill="#77DFE9"/>
<defs>
<filter id="filter0_b_700_589" x="-20" y="-20" width="127.812" height="152.738" filterUnits="userSpaceOnUse" color-interpolation-filters="sRGB">
<feFlood flood-opacity="0" result="BackgroundImageFix"/>
<feGaussianBlur in="BackgroundImageFix" stdDeviation="10"/>
<feComposite in2="SourceAlpha" operator="in" result="effect1_backgroundBlur_700_589"/>
<feBlend mode="normal" in="SourceGraphic" in2="effect1_backgroundBlur_700_589" result="shape"/>
</filter>
<filter id="filter1_b_700_589" x="90.2227" y="-6.77874" width="118.152" height="143.543" filterUnits="userSpaceOnUse" color-interpolation-filters="sRGB">
<feFlood flood-opacity="0" result="BackgroundImageFix"/>
<feGaussianBlur in="BackgroundImageFix" stdDeviation="10"/>
<feComposite in2="SourceAlpha" operator="in" result="effect1_backgroundBlur_700_589"/>
<feBlend mode="normal" in="SourceGraphic" in2="effect1_backgroundBlur_700_589" result="shape"/>
</filter>
<filter id="filter2_b_700_589" x="193.699" y="12.3316" width="105.293" height="127.012" filterUnits="userSpaceOnUse" color-interpolation-filters="sRGB">
<feFlood flood-opacity="0" result="BackgroundImageFix"/>
<feGaussianBlur in="BackgroundImageFix" stdDeviation="10"/>
<feComposite in2="SourceAlpha" operator="in" result="effect1_backgroundBlur_700_589"/>
<feBlend mode="normal" in="SourceGraphic" in2="effect1_backgroundBlur_700_589" result="shape"/>
</filter>
<filter id="filter3_b_700_589" x="291" y="-5" width="122" height="150" filterUnits="userSpaceOnUse" color-interpolation-filters="sRGB">
<feFlood flood-opacity="0" result="BackgroundImageFix"/>
<feGaussianBlur in="BackgroundImageFix" stdDeviation="10"/>
<feComposite in2="SourceAlpha" operator="in" result="effect1_backgroundBlur_700_589"/>
<feBlend mode="normal" in="SourceGraphic" in2="effect1_backgroundBlur_700_589" result="shape"/>
</filter>
</defs>
</svg>
