<svg width="262" height="24" viewBox="0 0 262 24" fill="none" xmlns="http://www.w3.org/2000/svg">
<g clip-path="url(#clip0_49_1375)">
<g clip-path="url(#clip1_49_1375)">
<path d="M0 0H20.3114V1.34298H1.3541V22.1884H20.1937V23.4146H0V0Z" fill="#BBAE91"/>
<path d="M18.0169 7.82422H10.3633V9.28399H16.7216V14.4808H10.3633V15.8821H18.0169V7.82422Z" fill="#BBAE91"/>
<path d="M33.6412 21.9269V11.3611H35.6184C37.4185 11.3611 40.5762 11.5952 41.432 11.7416V10.5708C40.5762 10.7464 37.4185 11.0099 35.6184 11.0099H33.6412V1.46841H36.9169C40.045 1.46841 42.6124 1.52694 44.6191 2.69767L44.5306 1.11719H31.1328V22.2781H44.9437L45.2683 20.5513C42.5534 21.8098 38.3924 21.9269 35.5299 21.9269H33.6412Z" fill="black"/>
<path d="M61.9836 16.9821C61.9836 13.5284 58.767 11.6553 55.7274 10.0455C52.8354 8.58209 50.2975 7.14794 50.2975 4.30892C50.2975 2.6699 51.2713 1.00161 54.6355 1.00161C57.3505 1.00161 59.1211 2.2016 60.213 3.72355L60.3901 2.08453C58.885 1.26502 56.9964 0.650391 54.6355 0.650391C50.0319 0.650391 48.1727 3.05038 48.1727 5.65526C48.1727 8.84551 51.0648 10.5431 54.2519 12.2406C57.2029 13.7333 59.8294 15.665 59.8294 18.2699C59.8294 20.3479 58.3834 22.3381 54.8126 22.3381C51.5369 22.3381 49.4122 20.7869 48.2318 19.3235L48.0547 20.9625C50.9762 22.5723 53.9568 22.6894 54.8421 22.6894C59.3867 22.6894 61.9836 19.9967 61.9836 16.9821Z" fill="black"/>
<path d="M74.4692 22.2781V1.46841H76.476C80.3123 1.46841 81.6698 2.20011 82.5551 2.69767L82.4666 1.11719H63.9635L63.875 2.69767C64.7603 2.20011 66.1473 1.46841 69.9837 1.46841H71.9609V22.2781H74.4692Z" fill="black"/>
<path d="M88.1959 21.9269V11.3611H90.1731C91.9732 11.3611 95.1308 11.5952 95.9866 11.7416V10.5708C95.1308 10.7464 91.9732 11.0099 90.1731 11.0099H88.1959V1.46841H91.4715C94.5997 1.46841 97.1671 1.52694 99.1738 2.69767L99.0852 1.11719H85.6875V22.2781H99.4984L99.823 20.5513C97.108 21.8098 92.9471 21.9269 90.0846 21.9269H88.1959Z" fill="black"/>
<path d="M116.534 16.9821C116.534 13.5284 113.318 11.6553 110.278 10.0455C107.386 8.58209 104.848 7.14794 104.848 4.30892C104.848 2.6699 105.822 1.00161 109.186 1.00161C111.901 1.00161 113.672 2.2016 114.764 3.72355L114.941 2.08453C113.436 1.26502 111.547 0.650391 109.186 0.650391C104.583 0.650391 102.724 3.05038 102.724 5.65526C102.724 8.84551 105.616 10.5431 108.803 12.2406C111.754 13.7333 114.38 15.665 114.38 18.2699C114.38 20.3479 112.934 22.3381 109.363 22.3381C106.088 22.3381 103.963 20.7869 102.783 19.3235L102.605 20.9625C105.527 22.5723 108.508 22.6894 109.393 22.6894C113.937 22.6894 116.534 19.9967 116.534 16.9821Z" fill="black"/>
</g>
<line x1="129.617" y1="7.60937" x2="129.617" y2="15.8045" stroke="#BBAE91" stroke-width="2"/>
<path d="M143.329 0.793453C144.205 0.793453 144.924 0.958696 145.486 1.28918C146.057 1.61199 146.471 2.04239 146.729 2.58039C146.995 3.11071 147.128 3.69098 147.128 4.32121C147.128 5.10516 146.94 5.79688 146.565 6.39636C146.19 6.98817 145.69 7.44931 145.064 7.7798C144.447 8.1026 143.779 8.264 143.06 8.264C142.731 8.264 142.36 8.22942 141.946 8.16024C141.539 8.09876 141.223 8.01806 140.996 7.91814C140.934 7.8874 140.891 7.85666 140.867 7.82591C140.852 7.78748 140.84 7.726 140.832 7.64146L140.68 6.14273C140.68 6.11968 140.699 6.10815 140.738 6.10815C140.785 6.10046 140.813 6.10815 140.82 6.13121C141.039 6.70764 141.391 7.15725 141.876 7.48005C142.36 7.80286 142.888 7.96426 143.458 7.96426C144.248 7.96426 144.842 7.6722 145.24 7.08808C145.647 6.49628 145.85 5.69312 145.85 4.6786V4.54026H144.361C143.923 4.54026 143.575 4.64017 143.318 4.84C143.06 5.03983 142.931 5.31652 142.931 5.67006C142.931 5.68543 142.907 5.69312 142.86 5.69312C142.821 5.69312 142.802 5.68543 142.802 5.67006L142.813 4.49414L142.802 3.90618C142.786 3.62949 142.778 3.41045 142.778 3.24905C142.778 3.23368 142.802 3.22599 142.849 3.22599C142.895 3.22599 142.919 3.23368 142.919 3.24905C142.927 3.54879 143.06 3.7909 143.318 3.97535C143.583 4.15213 143.939 4.24051 144.384 4.24051H145.838C145.799 3.58722 145.666 3.01848 145.439 2.53428C145.221 2.04239 144.928 1.66579 144.56 1.40447C144.201 1.13547 143.79 1.00097 143.329 1.00097C142.821 1.00097 142.352 1.16237 141.922 1.48517C141.5 1.80029 141.141 2.28065 140.844 2.92625C140.836 2.94931 140.813 2.95699 140.774 2.94931C140.734 2.94162 140.715 2.93009 140.715 2.91472L140.891 1.43906C140.906 1.34683 140.922 1.28534 140.938 1.2546C140.953 1.22385 140.996 1.19311 141.067 1.16237C141.793 0.916425 142.548 0.793453 143.329 0.793453Z" fill="black"/>
<path d="M157.276 7.98731C157.291 7.98731 157.299 8.01037 157.299 8.05649C157.299 8.1026 157.291 8.12566 157.276 8.12566H155.576C155.466 8.12566 155.369 8.09491 155.283 8.03343C155.204 7.97194 155.068 7.81438 154.872 7.56075C154.677 7.30713 154.345 6.84982 153.876 6.18885L153.665 5.8891C153.352 5.45102 153.122 5.14743 152.973 4.97834C152.832 4.80157 152.684 4.6786 152.528 4.60943C152.371 4.53257 152.164 4.49414 151.906 4.49414H151.859V7.19184C151.859 7.42241 151.883 7.59534 151.93 7.71063C151.977 7.81823 152.062 7.89124 152.188 7.92967C152.313 7.9681 152.516 7.98731 152.797 7.98731C152.821 7.98731 152.832 8.01037 152.832 8.05649C152.832 8.1026 152.821 8.12566 152.797 8.12566C152.531 8.12566 152.32 8.12181 152.164 8.11413L151.238 8.1026L150.394 8.11413C150.245 8.12181 150.042 8.12566 149.784 8.12566C149.761 8.12566 149.749 8.1026 149.749 8.05649C149.749 8.01037 149.761 7.98731 149.784 7.98731C150.066 7.98731 150.269 7.9681 150.394 7.92967C150.527 7.89124 150.617 7.81823 150.663 7.71063C150.71 7.59534 150.734 7.42241 150.734 7.19184V1.85409C150.734 1.62351 150.71 1.45443 150.663 1.34683C150.617 1.23923 150.527 1.16621 150.394 1.12778C150.269 1.08167 150.069 1.05861 149.796 1.05861C149.773 1.05861 149.761 1.03555 149.761 0.98944C149.761 0.943325 149.773 0.920268 149.796 0.920268L150.406 0.931797C150.749 0.947168 151.027 0.954854 151.238 0.954854C151.488 0.954854 151.801 0.947168 152.176 0.931797L152.797 0.920268C152.821 0.920268 152.832 0.943325 152.832 0.98944C152.832 1.03555 152.821 1.05861 152.797 1.05861C152.524 1.05861 152.32 1.08167 152.188 1.12778C152.062 1.1739 151.977 1.2546 151.93 1.36988C151.883 1.47748 151.859 1.64657 151.859 1.87714V4.29815C152.07 4.29047 152.332 4.28663 152.645 4.28663H152.727L154.016 2.53428C154.345 2.0885 154.509 1.73496 154.509 1.47364C154.509 1.19695 154.337 1.05861 153.993 1.05861C153.977 1.05861 153.97 1.03555 153.97 0.98944C153.97 0.943325 153.977 0.920268 153.993 0.920268L154.521 0.931797C154.849 0.947168 155.146 0.954854 155.412 0.954854C155.701 0.954854 156.002 0.947168 156.314 0.931797L156.795 0.920268C156.818 0.920268 156.83 0.943325 156.83 0.98944C156.83 1.03555 156.818 1.05861 156.795 1.05861C156.428 1.05861 156.048 1.1739 155.658 1.40447C155.267 1.63504 154.911 1.95016 154.591 2.34982L153.02 4.29815C153.286 4.32121 153.508 4.3827 153.688 4.48261C153.868 4.58253 154.044 4.73624 154.216 4.94376C154.395 5.14359 154.657 5.48176 155.001 5.95828C155.408 6.51165 155.708 6.91131 155.904 7.15725C156.107 7.4032 156.318 7.60303 156.537 7.75674C156.764 7.90277 157.01 7.97963 157.276 7.98731Z" fill="black"/>
<path d="M163.5 0.793453C163.851 0.793453 164.215 0.824196 164.59 0.885682C164.973 0.947168 165.274 1.03171 165.493 1.13931C165.563 1.16237 165.606 1.19311 165.622 1.23154C165.645 1.26228 165.661 1.31993 165.668 1.40447L165.809 2.90319C165.809 2.92625 165.79 2.94162 165.751 2.94931C165.711 2.95699 165.688 2.94546 165.68 2.91472C165.454 2.31523 165.11 1.85793 164.649 1.54281C164.195 1.2277 163.66 1.07014 163.042 1.07014C162.23 1.07014 161.593 1.35067 161.131 1.91173C160.67 2.47279 160.44 3.22599 160.44 4.17134C160.44 4.87843 160.565 5.52787 160.815 6.11968C161.073 6.71148 161.425 7.18031 161.87 7.52617C162.323 7.87203 162.827 8.04496 163.382 8.04496C164.437 8.04496 165.239 7.39935 165.786 6.10815C165.794 6.07741 165.817 6.06588 165.856 6.07356C165.903 6.08125 165.926 6.09662 165.926 6.11968L165.751 7.59534C165.735 7.68757 165.715 7.74906 165.692 7.7798C165.676 7.80286 165.633 7.82976 165.563 7.8605C164.883 8.1295 164.16 8.264 163.394 8.264C162.441 8.264 161.647 8.07954 161.014 7.71063C160.381 7.33403 159.912 6.85751 159.607 6.28108C159.31 5.70465 159.162 5.10516 159.162 4.48261C159.162 3.76015 159.361 3.11839 159.76 2.55733C160.166 1.99627 160.702 1.56203 161.366 1.2546C162.03 0.947168 162.741 0.793453 163.5 0.793453Z" fill="black"/>
<path d="M176.559 7.98731C176.582 7.98731 176.594 8.01037 176.594 8.05649C176.594 8.1026 176.582 8.12566 176.559 8.12566C176.301 8.12566 176.098 8.12181 175.949 8.11413L175.105 8.1026L174.179 8.11413C174.031 8.12181 173.823 8.12566 173.558 8.12566C173.534 8.12566 173.523 8.1026 173.523 8.05649C173.523 8.01037 173.534 7.98731 173.558 7.98731C173.831 7.98731 174.031 7.9681 174.156 7.92967C174.288 7.89124 174.378 7.81823 174.425 7.71063C174.472 7.59534 174.496 7.42241 174.496 7.19184V1.95784C174.496 1.69653 174.484 1.5236 174.46 1.43906C174.437 1.35451 174.382 1.30071 174.296 1.27765C174.218 1.2546 174.05 1.24307 173.792 1.24307H171.389C171.123 1.24307 170.943 1.2546 170.85 1.27765C170.756 1.30071 170.697 1.35836 170.674 1.45058C170.65 1.53513 170.639 1.70421 170.639 1.95784V7.19184C170.639 7.42241 170.662 7.59534 170.709 7.71063C170.756 7.81823 170.842 7.89124 170.967 7.92967C171.092 7.9681 171.295 7.98731 171.576 7.98731C171.6 7.98731 171.612 8.01037 171.612 8.05649C171.612 8.1026 171.6 8.12566 171.576 8.12566C171.319 8.12566 171.111 8.12181 170.955 8.11413L170.017 8.1026L169.185 8.11413C169.036 8.12181 168.829 8.12566 168.564 8.12566C168.548 8.12566 168.54 8.1026 168.54 8.05649C168.54 8.01037 168.548 7.98731 168.564 7.98731C168.845 7.98731 169.052 7.9681 169.185 7.92967C169.318 7.89124 169.408 7.81823 169.455 7.71063C169.501 7.59534 169.525 7.42241 169.525 7.19184V1.99243C169.525 1.64657 169.462 1.40447 169.337 1.26613C169.212 1.12778 168.958 1.05861 168.575 1.05861C168.56 1.05861 168.552 1.03555 168.552 0.98944C168.552 0.943325 168.56 0.920268 168.575 0.920268C168.841 0.920268 169.099 0.924111 169.349 0.931797C170.396 0.947168 171.483 0.954854 172.608 0.954854C173.648 0.954854 174.836 0.943325 176.172 0.920268H176.559C176.582 0.920268 176.594 0.943325 176.594 0.98944C176.594 1.03555 176.582 1.05861 176.559 1.05861C176.176 1.05861 175.922 1.12778 175.797 1.26613C175.672 1.40447 175.609 1.64657 175.609 1.99243V7.19184C175.609 7.42241 175.633 7.59534 175.68 7.71063C175.727 7.81823 175.816 7.89124 175.949 7.92967C176.082 7.9681 176.285 7.98731 176.559 7.98731Z" fill="black"/>
<path d="M184.449 6.32719C184.449 6.31182 184.465 6.30414 184.496 6.30414C184.52 6.30414 184.539 6.31182 184.555 6.32719C184.578 6.33488 184.59 6.34256 184.59 6.35025C184.512 6.93437 184.473 7.46853 184.473 7.95273C184.473 8.01421 184.461 8.06033 184.438 8.09107C184.414 8.11413 184.367 8.12566 184.297 8.12566H179.209C179.186 8.12566 179.174 8.1026 179.174 8.05649C179.174 8.01037 179.186 7.98731 179.209 7.98731C179.475 7.98731 179.666 7.9681 179.783 7.92967C179.908 7.89124 179.991 7.81823 180.03 7.71063C180.077 7.59534 180.1 7.42241 180.1 7.19184V1.85409C180.1 1.62351 180.077 1.45443 180.03 1.34683C179.991 1.23923 179.908 1.16621 179.783 1.12778C179.658 1.08167 179.467 1.05861 179.209 1.05861C179.186 1.05861 179.174 1.03555 179.174 0.98944C179.174 0.943325 179.186 0.920268 179.209 0.920268H184.086C184.164 0.920268 184.203 0.954854 184.203 1.02403L184.227 2.52275C184.227 2.53812 184.203 2.54965 184.156 2.55733C184.117 2.56502 184.094 2.55733 184.086 2.53428C183.898 1.6581 183.355 1.22001 182.456 1.22001H181.987C181.706 1.22001 181.507 1.26997 181.39 1.36988C181.272 1.4698 181.214 1.63889 181.214 1.87714V4.22898H182.339C183.199 4.22898 183.629 3.94461 183.629 3.37586C183.629 3.35281 183.648 3.34128 183.687 3.34128C183.734 3.34128 183.758 3.35281 183.758 3.37586L183.746 4.37885L183.758 4.9207C183.773 5.16664 183.781 5.36647 183.781 5.52019C183.781 5.53556 183.758 5.54325 183.711 5.54325C183.664 5.54325 183.64 5.53556 183.64 5.52019C183.64 4.85921 183.203 4.52873 182.327 4.52873H181.214V7.14572C181.214 7.39935 181.261 7.57613 181.354 7.67604C181.456 7.77596 181.632 7.82591 181.882 7.82591H182.456C183.504 7.82591 184.168 7.32634 184.449 6.32719Z" fill="black"/>
<path d="M189.325 7.14572C189.325 7.39167 189.352 7.57228 189.407 7.68757C189.469 7.79517 189.583 7.87203 189.747 7.91814C189.919 7.96426 190.185 7.98731 190.544 7.98731C190.568 7.98731 190.579 8.01037 190.579 8.05649C190.579 8.1026 190.568 8.12566 190.544 8.12566C190.224 8.12566 189.974 8.12181 189.794 8.11413L188.774 8.1026L187.93 8.11413C187.781 8.12181 187.578 8.12566 187.32 8.12566C187.297 8.12566 187.285 8.1026 187.285 8.05649C187.285 8.01037 187.297 7.98731 187.32 7.98731C187.586 7.98731 187.777 7.9681 187.895 7.92967C188.012 7.89124 188.09 7.81823 188.129 7.71063C188.176 7.60303 188.199 7.4301 188.199 7.19184V1.85409C188.199 1.62351 188.176 1.45443 188.129 1.34683C188.09 1.23923 188.008 1.16621 187.883 1.12778C187.766 1.08167 187.578 1.05861 187.32 1.05861C187.297 1.05861 187.285 1.03555 187.285 0.98944C187.285 0.943325 187.297 0.920268 187.32 0.920268L187.93 0.931797C188.274 0.947168 188.551 0.954854 188.762 0.954854C188.942 0.954854 189.161 0.943325 189.419 0.920268C189.512 0.912582 189.638 0.904896 189.794 0.89721C189.958 0.889525 190.149 0.885682 190.368 0.885682C191.142 0.885682 191.752 1.04708 192.197 1.36988C192.65 1.69269 192.877 2.18842 192.877 2.85708C192.877 3.34128 192.748 3.75247 192.49 4.09064C192.24 4.42881 191.916 4.68244 191.517 4.85153C191.126 5.02061 190.724 5.10516 190.31 5.10516C190.091 5.10516 189.907 5.08594 189.759 5.04751C189.735 5.04751 189.723 5.0283 189.723 4.98987C189.723 4.96681 189.727 4.94376 189.735 4.9207C189.751 4.89764 189.766 4.88996 189.782 4.89764C189.907 4.92839 190.044 4.94376 190.192 4.94376C190.599 4.94376 190.943 4.77851 191.224 4.44803C191.505 4.11754 191.646 3.64487 191.646 3.03001C191.646 2.42283 191.502 1.954 191.212 1.62351C190.923 1.28534 190.525 1.11625 190.017 1.11625C189.829 1.11625 189.684 1.13547 189.583 1.1739C189.489 1.21233 189.423 1.28534 189.384 1.39294C189.344 1.49286 189.325 1.65426 189.325 1.87714V7.14572Z" fill="black"/>
<path d="M197.564 1.16237C197.087 1.16237 196.693 1.3084 196.38 1.60046C196.075 1.88483 195.841 2.31907 195.677 2.90319C195.677 2.91856 195.653 2.92625 195.606 2.92625C195.567 2.92625 195.548 2.91472 195.548 2.89166C195.579 2.59192 195.614 2.20763 195.653 1.7388C195.692 1.26228 195.712 0.904896 195.712 0.666638C195.712 0.628209 195.731 0.608995 195.771 0.608995C195.817 0.608995 195.841 0.628209 195.841 0.666638C195.841 0.835725 196.06 0.920268 196.497 0.920268C197.17 0.943325 197.955 0.954854 198.854 0.954854C199.315 0.954854 199.803 0.947168 200.319 0.931797L201.116 0.920268C201.413 0.920268 201.628 0.901053 201.761 0.862624C201.902 0.824196 201.992 0.747338 202.031 0.632052C202.039 0.601309 202.062 0.585938 202.101 0.585938C202.14 0.585938 202.16 0.601309 202.16 0.632052C202.136 0.87031 202.113 1.23154 202.089 1.71574C202.066 2.19994 202.054 2.59192 202.054 2.89166C202.054 2.91472 202.031 2.92625 201.984 2.92625C201.945 2.92625 201.921 2.91472 201.914 2.89166C201.835 2.29986 201.652 1.86561 201.363 1.58893C201.073 1.30456 200.683 1.16237 200.19 1.16237C199.971 1.16237 199.807 1.18158 199.698 1.22001C199.596 1.25844 199.526 1.32761 199.487 1.42753C199.456 1.51976 199.44 1.66963 199.44 1.87714V7.19184C199.44 7.4301 199.463 7.60303 199.51 7.71063C199.557 7.81823 199.651 7.89124 199.792 7.92967C199.932 7.9681 200.155 7.98731 200.46 7.98731C200.483 7.98731 200.495 8.01037 200.495 8.05649C200.495 8.1026 200.483 8.12566 200.46 8.12566C200.186 8.12566 199.971 8.12181 199.815 8.11413L198.854 8.1026L197.939 8.11413C197.775 8.12181 197.549 8.12566 197.259 8.12566C197.244 8.12566 197.236 8.1026 197.236 8.05649C197.236 8.01037 197.244 7.98731 197.259 7.98731C197.564 7.98731 197.787 7.9681 197.928 7.92967C198.076 7.89124 198.174 7.81823 198.221 7.71063C198.275 7.59534 198.303 7.42241 198.303 7.19184V1.85409C198.303 1.65426 198.283 1.50823 198.244 1.416C198.205 1.32377 198.135 1.25844 198.033 1.22001C197.932 1.18158 197.775 1.16237 197.564 1.16237Z" fill="black"/>
<path d="M208.088 4.05605C208.885 4.05605 209.499 4.21361 209.928 4.52873C210.358 4.83616 210.573 5.30883 210.573 5.94675C210.573 6.39252 210.464 6.78449 210.245 7.12267C210.034 7.45315 209.733 7.71063 209.342 7.89509C208.959 8.07954 208.518 8.17177 208.017 8.17177C207.822 8.17177 207.584 8.16024 207.302 8.13719C206.646 8.11413 206.294 8.1026 206.247 8.1026L205.497 8.11413C205.341 8.12181 205.122 8.12566 204.84 8.12566C204.817 8.12566 204.805 8.1026 204.805 8.05649C204.805 8.01037 204.817 7.98731 204.84 7.98731C205.114 7.97963 205.309 7.96041 205.427 7.92967C205.544 7.89124 205.626 7.82207 205.673 7.72216C205.72 7.61456 205.743 7.43778 205.743 7.19184V1.85409C205.743 1.60814 205.72 1.43521 205.673 1.3353C205.634 1.2277 205.556 1.15853 205.438 1.12778C205.321 1.09704 205.126 1.07398 204.852 1.05861C204.836 1.05861 204.829 1.03555 204.829 0.98944C204.829 0.943325 204.836 0.920268 204.852 0.920268L205.427 0.931797C205.77 0.947168 206.06 0.954854 206.294 0.954854C206.536 0.954854 206.845 0.947168 207.22 0.931797L207.853 0.920268C207.877 0.920268 207.888 0.943325 207.888 0.98944C207.888 1.03555 207.877 1.05861 207.853 1.05861C207.556 1.07398 207.341 1.10088 207.209 1.13931C207.083 1.17005 206.994 1.23923 206.939 1.34683C206.892 1.45443 206.869 1.6312 206.869 1.87714V4.15981C207.275 4.09064 207.681 4.05605 208.088 4.05605ZM207.806 7.90661C208.377 7.90661 208.783 7.76827 209.026 7.49158C209.268 7.20721 209.389 6.76528 209.389 6.16579C209.389 5.52787 209.256 5.06673 208.99 4.78236C208.725 4.4903 208.303 4.34427 207.724 4.34427C207.513 4.34427 207.228 4.37117 206.869 4.42497V7.19184C206.869 7.43778 206.927 7.6184 207.044 7.73368C207.169 7.84897 207.423 7.90661 207.806 7.90661ZM213.176 7.19184C213.176 7.4301 213.195 7.60303 213.234 7.71063C213.273 7.81823 213.352 7.89124 213.469 7.92967C213.594 7.9681 213.789 7.98731 214.055 7.98731C214.078 7.98731 214.09 8.01037 214.09 8.05649C214.09 8.1026 214.078 8.12566 214.055 8.12566C213.805 8.12566 213.606 8.12181 213.457 8.11413L212.59 8.1026L211.746 8.11413C211.597 8.12181 211.394 8.12566 211.136 8.12566C211.112 8.12566 211.101 8.1026 211.101 8.05649C211.101 8.01037 211.112 7.98731 211.136 7.98731C211.402 7.98731 211.593 7.9681 211.71 7.92967C211.835 7.89124 211.921 7.81823 211.968 7.71063C212.015 7.59534 212.039 7.42241 212.039 7.19184V1.85409C212.039 1.62351 212.015 1.45443 211.968 1.34683C211.921 1.23923 211.835 1.16621 211.71 1.12778C211.593 1.08167 211.402 1.05861 211.136 1.05861C211.112 1.05861 211.101 1.03555 211.101 0.98944C211.101 0.943325 211.112 0.920268 211.136 0.920268L211.746 0.931797C212.089 0.947168 212.371 0.954854 212.59 0.954854C212.832 0.954854 213.125 0.947168 213.469 0.931797L214.055 0.920268C214.078 0.920268 214.09 0.943325 214.09 0.98944C214.09 1.03555 214.078 1.05861 214.055 1.05861C213.797 1.05861 213.606 1.08167 213.481 1.12778C213.363 1.1739 213.281 1.2546 213.234 1.36988C213.195 1.47748 213.176 1.64657 213.176 1.87714V7.19184Z" fill="black"/>
<path d="M148.722 21.8217C148.746 21.8217 148.757 21.8447 148.757 21.8908C148.757 21.9369 148.746 21.96 148.722 21.96C148.456 21.96 148.241 21.9562 148.077 21.9485L147.221 21.9369L146.225 21.9485C146.084 21.9562 145.897 21.96 145.662 21.96C145.639 21.96 145.627 21.9369 145.627 21.8908C145.627 21.8447 145.639 21.8217 145.662 21.8217C145.959 21.8217 146.174 21.8024 146.307 21.764C146.44 21.7256 146.53 21.6526 146.577 21.545C146.624 21.4374 146.647 21.2644 146.647 21.0262V18.3631H142.626V21.0262C142.626 21.2568 142.649 21.4297 142.696 21.545C142.743 21.6526 142.833 21.7256 142.966 21.764C143.107 21.8024 143.325 21.8217 143.622 21.8217C143.638 21.8217 143.646 21.8447 143.646 21.8908C143.646 21.9369 143.638 21.96 143.622 21.96C143.357 21.96 143.149 21.9562 143.001 21.9485L142.028 21.9369L141.172 21.9485C141.024 21.9562 140.817 21.96 140.551 21.96C140.535 21.96 140.527 21.9369 140.527 21.8908C140.527 21.8447 140.535 21.8217 140.551 21.8217C140.832 21.8217 141.039 21.8024 141.172 21.764C141.305 21.7256 141.395 21.6526 141.442 21.545C141.489 21.4297 141.512 21.2568 141.512 21.0262V15.6884C141.512 15.4579 141.489 15.2888 141.442 15.1812C141.395 15.0736 141.305 15.0006 141.172 14.9621C141.039 14.916 140.836 14.893 140.563 14.893C140.547 14.893 140.539 14.8699 140.539 14.8238C140.539 14.7777 140.547 14.7546 140.563 14.7546L141.184 14.7661C141.543 14.7815 141.825 14.7892 142.028 14.7892C142.301 14.7892 142.626 14.7815 143.001 14.7661L143.622 14.7546C143.638 14.7546 143.646 14.7777 143.646 14.8238C143.646 14.8699 143.638 14.893 143.622 14.893C143.333 14.893 143.118 14.916 142.978 14.9621C142.845 15.0082 142.751 15.0889 142.696 15.2042C142.649 15.3118 142.626 15.4809 142.626 15.7115V18.0633H146.647V15.7115C146.647 15.4809 146.624 15.3118 146.577 15.2042C146.53 15.0889 146.436 15.0082 146.295 14.9621C146.162 14.916 145.951 14.893 145.662 14.893C145.639 14.893 145.627 14.8699 145.627 14.8238C145.627 14.7777 145.639 14.7546 145.662 14.7546L146.225 14.7661C146.6 14.7815 146.932 14.7892 147.221 14.7892C147.432 14.7892 147.718 14.7815 148.077 14.7661L148.722 14.7546C148.746 14.7546 148.757 14.7777 148.757 14.8238C148.757 14.8699 148.746 14.893 148.722 14.893C148.441 14.893 148.234 14.916 148.101 14.9621C147.976 15.0006 147.89 15.0736 147.843 15.1812C147.796 15.2888 147.772 15.4579 147.772 15.6884V21.0262C147.772 21.2568 147.796 21.4297 147.843 21.545C147.89 21.6526 147.976 21.7256 148.101 21.764C148.234 21.8024 148.441 21.8217 148.722 21.8217Z" fill="black"/>
<path d="M156.597 20.1615C156.597 20.1462 156.613 20.1385 156.644 20.1385C156.667 20.1385 156.687 20.1462 156.702 20.1615C156.726 20.1692 156.738 20.1769 156.738 20.1846C156.659 20.7687 156.62 21.3029 156.62 21.7871C156.62 21.8486 156.609 21.8947 156.585 21.9254C156.562 21.9485 156.515 21.96 156.445 21.96H151.357C151.333 21.96 151.321 21.9369 151.321 21.8908C151.321 21.8447 151.333 21.8217 151.357 21.8217C151.622 21.8217 151.814 21.8024 151.931 21.764C152.056 21.7256 152.138 21.6526 152.177 21.545C152.224 21.4297 152.248 21.2568 152.248 21.0262V15.6884C152.248 15.4579 152.224 15.2888 152.177 15.1812C152.138 15.0736 152.056 15.0006 151.931 14.9621C151.806 14.916 151.614 14.893 151.357 14.893C151.333 14.893 151.321 14.8699 151.321 14.8238C151.321 14.7777 151.333 14.7546 151.357 14.7546H156.234C156.312 14.7546 156.351 14.7892 156.351 14.8584L156.374 16.3571C156.374 16.3725 156.351 16.384 156.304 16.3917C156.265 16.3994 156.241 16.3917 156.234 16.3686C156.046 15.4924 155.503 15.0544 154.604 15.0544H154.135C153.854 15.0544 153.654 15.1043 153.537 15.2042C153.42 15.3041 153.361 15.4732 153.361 15.7115V18.0633H154.487C155.346 18.0633 155.776 17.779 155.776 17.2102C155.776 17.1872 155.796 17.1756 155.835 17.1756C155.882 17.1756 155.905 17.1872 155.905 17.2102L155.894 18.2132L155.905 18.755C155.921 19.001 155.929 19.2008 155.929 19.3545C155.929 19.3699 155.905 19.3776 155.858 19.3776C155.811 19.3776 155.788 19.3699 155.788 19.3545C155.788 18.6936 155.35 18.3631 154.475 18.3631H153.361V20.9801C153.361 21.2337 153.408 21.4105 153.502 21.5104C153.604 21.6103 153.779 21.6603 154.03 21.6603H154.604C155.651 21.6603 156.316 21.1607 156.597 20.1615Z" fill="black"/>
<path d="M166.842 21.8217C166.912 21.8217 166.951 21.8293 166.959 21.8447C166.975 21.8524 166.982 21.8908 166.982 21.96C166.982 22.0676 166.971 22.2021 166.947 22.3635C166.885 22.8938 166.854 23.4203 166.854 23.9429C166.854 23.9814 166.83 24.0006 166.783 24.0006C166.736 24.0006 166.713 23.9814 166.713 23.9429C166.713 23.2973 166.529 22.8054 166.162 22.4673C165.802 22.1291 165.263 21.96 164.544 21.96H161.355C160.714 21.96 160.249 22.1099 159.96 22.4096C159.671 22.7094 159.526 23.2205 159.526 23.9429C159.526 23.9814 159.503 24.0006 159.456 24.0006C159.409 24.0006 159.386 23.9814 159.386 23.9429C159.386 23.2896 159.343 22.7363 159.257 22.2828C159.233 22.1214 159.222 21.9984 159.222 21.9139C159.222 21.8447 159.225 21.8063 159.233 21.7986C159.249 21.7832 159.288 21.7755 159.351 21.7755C159.937 21.7755 160.441 21.4258 160.863 20.7264C161.293 20.0194 161.613 19.1931 161.824 18.2478C162.043 17.2948 162.152 16.4839 162.152 15.8152C162.152 15.2004 161.738 14.893 160.91 14.893C160.886 14.893 160.875 14.8699 160.875 14.8238C160.875 14.7777 160.886 14.7546 160.91 14.7546H166.619C166.643 14.7546 166.654 14.7777 166.654 14.8238C166.654 14.8699 166.643 14.893 166.619 14.893C166.338 14.893 166.131 14.916 165.998 14.9621C165.873 15.0006 165.787 15.0736 165.74 15.1812C165.693 15.2888 165.669 15.4579 165.669 15.6884V21.0262C165.669 21.3259 165.685 21.5219 165.716 21.6141C165.748 21.7064 165.834 21.764 165.974 21.7871C166.115 21.8101 166.404 21.8217 166.842 21.8217ZM164.544 15.7115C164.544 15.4655 164.532 15.3041 164.509 15.2273C164.485 15.1427 164.431 15.0928 164.345 15.0774C164.267 15.0544 164.102 15.0428 163.852 15.0428H163.208C162.997 15.0428 162.848 15.0659 162.762 15.112C162.676 15.1581 162.617 15.2388 162.586 15.3541C162.555 15.4694 162.528 15.6807 162.504 15.9882L162.481 16.2188C162.387 17.2025 162.188 18.2439 161.883 19.343C161.578 20.4421 161.136 21.2183 160.558 21.6718H163.794C164.083 21.6718 164.267 21.6641 164.345 21.6487C164.431 21.6334 164.485 21.5872 164.509 21.5104C164.532 21.4258 164.544 21.2568 164.544 21.0031V15.7115Z" fill="black"/>
<path d="M173.116 17.9135C173.757 17.9826 174.269 18.194 174.652 18.5475C175.035 18.9011 175.226 19.3392 175.226 19.8618C175.226 20.2615 175.113 20.6265 174.886 20.957C174.668 21.2798 174.359 21.5373 173.96 21.7294C173.569 21.9139 173.132 22.0061 172.647 22.0061C172.421 22.0061 172.159 21.9946 171.862 21.9715C171.76 21.9638 171.631 21.9562 171.475 21.9485C171.319 21.9408 171.143 21.9369 170.947 21.9369L170.103 21.9485C169.955 21.9562 169.752 21.96 169.494 21.96C169.47 21.96 169.458 21.9369 169.458 21.8908C169.458 21.8447 169.47 21.8217 169.494 21.8217C169.744 21.8217 169.931 21.8024 170.056 21.764C170.181 21.7179 170.267 21.641 170.314 21.5334C170.369 21.4258 170.396 21.2568 170.396 21.0262V15.6884C170.396 15.4655 170.369 15.3003 170.314 15.1927C170.267 15.0774 170.181 15.0006 170.056 14.9621C169.939 14.916 169.755 14.893 169.505 14.893C169.49 14.893 169.482 14.8699 169.482 14.8238C169.482 14.7777 169.49 14.7546 169.505 14.7546L170.115 14.7661C170.459 14.7815 170.736 14.7892 170.947 14.7892C171.166 14.7892 171.397 14.7777 171.639 14.7546C171.725 14.7469 171.827 14.7392 171.944 14.7316C172.069 14.7239 172.21 14.72 172.366 14.72C173.061 14.72 173.593 14.8545 173.96 15.1235C174.335 15.3848 174.523 15.7499 174.523 16.2188C174.523 16.58 174.398 16.9105 174.148 17.2102C173.906 17.51 173.562 17.7444 173.116 17.9135ZM172.167 14.9506C171.916 14.9506 171.745 15.0006 171.651 15.1005C171.565 15.2004 171.522 15.4041 171.522 15.7115V17.9019L172.014 17.9135C172.475 17.9135 172.823 17.7674 173.058 17.4754C173.292 17.1756 173.409 16.7913 173.409 16.3225C173.409 15.8844 173.304 15.5462 173.093 15.308C172.882 15.0697 172.573 14.9506 172.167 14.9506ZM172.46 21.741C173.515 21.741 174.042 21.2068 174.042 20.1385C174.042 19.5544 173.886 19.0855 173.573 18.732C173.269 18.3784 172.819 18.2017 172.225 18.2017C171.944 18.2017 171.709 18.2094 171.522 18.2247V21.0262C171.522 21.203 171.545 21.3413 171.592 21.4412C171.639 21.5411 171.729 21.618 171.862 21.6718C171.995 21.7179 172.194 21.741 172.46 21.741Z" fill="black"/>
<path d="M186 21.8217C186.024 21.8217 186.036 21.8447 186.036 21.8908C186.036 21.9369 186.024 21.96 186 21.96C185.735 21.96 185.52 21.9562 185.356 21.9485L184.5 21.9369L183.503 21.9485C183.363 21.9562 183.175 21.96 182.941 21.96C182.917 21.96 182.905 21.9369 182.905 21.8908C182.905 21.8447 182.917 21.8217 182.941 21.8217C183.238 21.8217 183.452 21.8024 183.585 21.764C183.718 21.7256 183.808 21.6526 183.855 21.545C183.902 21.4374 183.925 21.2644 183.925 21.0262V16.53L180.045 20.6112V21.0262C180.045 21.2568 180.068 21.4297 180.115 21.545C180.162 21.6526 180.252 21.7256 180.385 21.764C180.526 21.8024 180.744 21.8217 181.041 21.8217C181.057 21.8217 181.065 21.8447 181.065 21.8908C181.065 21.9369 181.057 21.96 181.041 21.96C180.776 21.96 180.568 21.9562 180.42 21.9485L179.447 21.9369L178.591 21.9485C178.443 21.9562 178.236 21.96 177.97 21.96C177.954 21.96 177.946 21.9369 177.946 21.8908C177.946 21.8447 177.954 21.8217 177.97 21.8217C178.251 21.8217 178.458 21.8024 178.591 21.764C178.724 21.7256 178.814 21.6526 178.861 21.545C178.908 21.4297 178.931 21.2568 178.931 21.0262V15.6884C178.931 15.4579 178.908 15.2888 178.861 15.1812C178.814 15.0736 178.724 15.0006 178.591 14.9621C178.458 14.916 178.255 14.893 177.982 14.893C177.966 14.893 177.958 14.8699 177.958 14.8238C177.958 14.7777 177.966 14.7546 177.982 14.7546L178.603 14.7661C178.962 14.7815 179.244 14.7892 179.447 14.7892C179.72 14.7892 180.045 14.7815 180.42 14.7661L181.041 14.7546C181.057 14.7546 181.065 14.7777 181.065 14.8238C181.065 14.8699 181.057 14.893 181.041 14.893C180.752 14.893 180.537 14.916 180.397 14.9621C180.264 15.0082 180.17 15.0889 180.115 15.2042C180.068 15.3118 180.045 15.4809 180.045 15.7115V20.1731L183.925 16.1035V15.7115C183.925 15.4809 183.902 15.3118 183.855 15.2042C183.808 15.0889 183.714 15.0082 183.574 14.9621C183.441 14.916 183.23 14.893 182.941 14.893C182.917 14.893 182.905 14.8699 182.905 14.8238C182.905 14.7777 182.917 14.7546 182.941 14.7546L183.503 14.7661C183.878 14.7815 184.211 14.7892 184.5 14.7892C184.711 14.7892 184.996 14.7815 185.356 14.7661L186 14.7546C186.024 14.7546 186.036 14.7777 186.036 14.8238C186.036 14.8699 186.024 14.893 186 14.893C185.719 14.893 185.512 14.916 185.379 14.9621C185.254 15.0006 185.168 15.0736 185.121 15.1812C185.074 15.2888 185.051 15.4579 185.051 15.6884V21.0262C185.051 21.2568 185.074 21.4297 185.121 21.545C185.168 21.6526 185.254 21.7256 185.379 21.764C185.512 21.8024 185.719 21.8217 186 21.8217Z" fill="black"/>
<path d="M199.975 21.8217C199.998 21.8217 200.01 21.8447 200.01 21.8908C200.01 21.9369 199.998 21.96 199.975 21.96H198.275C198.181 21.96 198.095 21.9293 198.017 21.8678C197.947 21.8063 197.818 21.6449 197.63 21.3836C197.45 21.1223 197.149 20.6688 196.727 20.0232C196.383 19.4929 196.122 19.1201 195.942 18.9049C195.762 18.682 195.582 18.5322 195.403 18.4553C195.223 18.3708 194.981 18.3285 194.676 18.3285H194.594V21.0262C194.594 21.2568 194.617 21.4297 194.664 21.545C194.711 21.6526 194.797 21.7256 194.922 21.764C195.055 21.8024 195.262 21.8217 195.543 21.8217C195.559 21.8217 195.567 21.8447 195.567 21.8908C195.567 21.9369 195.559 21.96 195.543 21.96C195.27 21.96 195.055 21.9562 194.898 21.9485L193.996 21.9369L193.163 21.9485C193.015 21.9562 192.808 21.96 192.542 21.96C192.526 21.96 192.519 21.9369 192.519 21.8908C192.519 21.8447 192.526 21.8217 192.542 21.8217C192.823 21.8217 193.031 21.8024 193.163 21.764C193.296 21.7256 193.386 21.6526 193.433 21.545C193.48 21.4297 193.503 21.2568 193.503 21.0262V18.3285H193.398C193.101 18.3285 192.863 18.3708 192.683 18.4553C192.503 18.5322 192.323 18.682 192.143 18.9049C191.964 19.1201 191.702 19.489 191.358 20.0117C190.92 20.688 190.612 21.153 190.432 21.4066C190.26 21.6526 190.135 21.8063 190.057 21.8678C189.986 21.9293 189.904 21.96 189.811 21.96H188.111C188.087 21.96 188.075 21.9369 188.075 21.8908C188.075 21.8447 188.087 21.8217 188.111 21.8217C188.361 21.814 188.587 21.7371 188.791 21.5911C189.002 21.4374 189.201 21.2375 189.388 20.9916C189.584 20.738 189.869 20.3383 190.244 19.7926C190.533 19.3699 190.768 19.0509 190.948 18.8357C191.127 18.6205 191.303 18.463 191.475 18.3631C191.647 18.2555 191.85 18.1863 192.085 18.1556L190.549 16.1842C190.205 15.7461 189.853 15.4233 189.494 15.2158C189.134 15.0006 188.751 14.893 188.345 14.893C188.329 14.893 188.322 14.8699 188.322 14.8238C188.322 14.7777 188.329 14.7546 188.345 14.7546L188.826 14.7661C189.138 14.7815 189.439 14.7892 189.728 14.7892C189.971 14.7892 190.279 14.7815 190.655 14.7661L191.358 14.7546C191.374 14.7546 191.381 14.7777 191.381 14.8238C191.381 14.8699 191.374 14.893 191.358 14.893C190.92 14.893 190.701 15.0428 190.701 15.3426C190.701 15.6116 190.873 15.992 191.217 16.4839L192.354 18.1325C192.417 18.1248 192.523 18.121 192.671 18.121C192.788 18.121 193.066 18.1287 193.503 18.144V15.6884C193.503 15.4655 193.476 15.3003 193.421 15.1927C193.367 15.0774 193.269 15.0006 193.128 14.9621C192.995 14.916 192.792 14.893 192.519 14.893C192.503 14.893 192.495 14.8699 192.495 14.8238C192.495 14.7777 192.503 14.7546 192.519 14.7546L193.163 14.7661C193.507 14.7815 193.785 14.7892 193.996 14.7892C194.23 14.7892 194.543 14.7815 194.934 14.7661L195.578 14.7546C195.594 14.7546 195.602 14.7777 195.602 14.8238C195.602 14.8699 195.594 14.893 195.578 14.893C195.305 14.893 195.098 14.916 194.957 14.9621C194.816 15.0082 194.719 15.0889 194.664 15.2042C194.617 15.3118 194.594 15.4809 194.594 15.7115V18.144C195.031 18.1287 195.305 18.121 195.414 18.121C195.563 18.121 195.668 18.1248 195.731 18.1325L196.845 16.53C197.204 16.0151 197.384 15.6193 197.384 15.3426C197.384 15.0428 197.169 14.893 196.739 14.893C196.716 14.893 196.704 14.8699 196.704 14.8238C196.704 14.7777 196.716 14.7546 196.739 14.7546L197.431 14.7661C197.806 14.7815 198.115 14.7892 198.357 14.7892C198.646 14.7892 198.947 14.7815 199.26 14.7661L199.74 14.7546C199.756 14.7546 199.764 14.7777 199.764 14.8238C199.764 14.8699 199.756 14.893 199.74 14.893C199.342 14.893 198.959 15.0006 198.591 15.2158C198.232 15.4233 197.88 15.7461 197.536 16.1842L196.001 18.1556C196.243 18.1863 196.45 18.2555 196.622 18.3631C196.794 18.463 196.966 18.6205 197.138 18.8357C197.31 19.0433 197.544 19.3622 197.841 19.7926C198.216 20.3383 198.498 20.738 198.685 20.9916C198.881 21.2375 199.08 21.4374 199.283 21.5911C199.494 21.7371 199.725 21.814 199.975 21.8217Z" fill="black"/>
<path d="M210.102 21.8217C210.126 21.8217 210.137 21.8447 210.137 21.8908C210.137 21.9369 210.126 21.96 210.102 21.96C209.836 21.96 209.622 21.9562 209.457 21.9485L208.602 21.9369L207.605 21.9485C207.464 21.9562 207.277 21.96 207.042 21.96C207.019 21.96 207.007 21.9369 207.007 21.8908C207.007 21.8447 207.019 21.8217 207.042 21.8217C207.339 21.8217 207.554 21.8024 207.687 21.764C207.82 21.7256 207.91 21.6526 207.957 21.545C208.004 21.4374 208.027 21.2644 208.027 21.0262V16.53L204.147 20.6112V21.0262C204.147 21.2568 204.17 21.4297 204.217 21.545C204.264 21.6526 204.354 21.7256 204.487 21.764C204.627 21.8024 204.846 21.8217 205.143 21.8217C205.159 21.8217 205.167 21.8447 205.167 21.8908C205.167 21.9369 205.159 21.96 205.143 21.96C204.877 21.96 204.67 21.9562 204.522 21.9485L203.549 21.9369L202.693 21.9485C202.544 21.9562 202.337 21.96 202.072 21.96C202.056 21.96 202.048 21.9369 202.048 21.8908C202.048 21.8447 202.056 21.8217 202.072 21.8217C202.353 21.8217 202.56 21.8024 202.693 21.764C202.826 21.7256 202.916 21.6526 202.963 21.545C203.009 21.4297 203.033 21.2568 203.033 21.0262V15.6884C203.033 15.4579 203.009 15.2888 202.963 15.1812C202.916 15.0736 202.826 15.0006 202.693 14.9621C202.56 14.916 202.357 14.893 202.083 14.893C202.068 14.893 202.06 14.8699 202.06 14.8238C202.06 14.7777 202.068 14.7546 202.083 14.7546L202.705 14.7661C203.064 14.7815 203.346 14.7892 203.549 14.7892C203.822 14.7892 204.147 14.7815 204.522 14.7661L205.143 14.7546C205.159 14.7546 205.167 14.7777 205.167 14.8238C205.167 14.8699 205.159 14.893 205.143 14.893C204.854 14.893 204.639 14.916 204.498 14.9621C204.366 15.0082 204.272 15.0889 204.217 15.2042C204.17 15.3118 204.147 15.4809 204.147 15.7115V20.1731L208.027 16.1035V15.7115C208.027 15.4809 208.004 15.3118 207.957 15.2042C207.91 15.0889 207.816 15.0082 207.675 14.9621C207.543 14.916 207.332 14.893 207.042 14.893C207.019 14.893 207.007 14.8699 207.007 14.8238C207.007 14.7777 207.019 14.7546 207.042 14.7546L207.605 14.7661C207.98 14.7815 208.312 14.7892 208.602 14.7892C208.813 14.7892 209.098 14.7815 209.457 14.7661L210.102 14.7546C210.126 14.7546 210.137 14.7777 210.137 14.8238C210.137 14.8699 210.126 14.893 210.102 14.893C209.821 14.893 209.614 14.916 209.481 14.9621C209.356 15.0006 209.27 15.0736 209.223 15.1812C209.176 15.2888 209.153 15.4579 209.153 15.6884V21.0262C209.153 21.2568 209.176 21.4297 209.223 21.545C209.27 21.6526 209.356 21.7256 209.481 21.764C209.614 21.8024 209.821 21.8217 210.102 21.8217Z" fill="black"/>
<path d="M221.931 21.8217C221.947 21.8217 221.955 21.8447 221.955 21.8908C221.955 21.9369 221.947 21.96 221.931 21.96C221.673 21.96 221.466 21.9562 221.31 21.9485L220.466 21.9369L219.645 21.9485C219.504 21.9562 219.305 21.96 219.047 21.96C219.032 21.96 219.024 21.9369 219.024 21.8908C219.024 21.8447 219.032 21.8217 219.047 21.8217C219.391 21.8217 219.622 21.7832 219.739 21.7064C219.856 21.6295 219.915 21.4681 219.915 21.2222L219.903 21.0262L219.669 16.1381L217.171 21.8793C217.156 21.91 217.125 21.9254 217.078 21.9254C217.039 21.9254 217.003 21.91 216.972 21.8793L214.041 16.1842L213.936 20.565C213.928 20.9724 214.006 21.2837 214.17 21.4989C214.342 21.7141 214.596 21.8217 214.932 21.8217C214.956 21.8217 214.967 21.8447 214.967 21.8908C214.967 21.9369 214.956 21.96 214.932 21.96C214.721 21.96 214.557 21.9562 214.44 21.9485L213.795 21.9369L213.103 21.9485C212.986 21.9562 212.822 21.96 212.611 21.96C212.588 21.96 212.576 21.9369 212.576 21.8908C212.576 21.8447 212.588 21.8217 212.611 21.8217C212.931 21.8217 213.178 21.7141 213.35 21.4989C213.529 21.2837 213.623 20.9724 213.631 20.565L213.736 15.6077C213.596 15.3618 213.439 15.1812 213.268 15.0659C213.103 14.9506 212.912 14.893 212.693 14.893C212.67 14.893 212.658 14.8699 212.658 14.8238C212.658 14.7777 212.67 14.7546 212.693 14.7546L213.197 14.7661C213.299 14.7738 213.432 14.7777 213.596 14.7777L214.147 14.7661C214.209 14.7585 214.287 14.7546 214.381 14.7546C214.483 14.7546 214.565 14.793 214.627 14.8699C214.69 14.9391 214.788 15.1005 214.921 15.3541L217.5 20.2999L219.833 15.0428C219.88 14.9352 219.93 14.8622 219.985 14.8238C220.04 14.7777 220.106 14.7546 220.184 14.7546C220.239 14.7546 220.309 14.7585 220.395 14.7661C220.481 14.7738 220.587 14.7777 220.712 14.7777L221.345 14.7661C221.447 14.7585 221.599 14.7546 221.802 14.7546C221.818 14.7546 221.826 14.7777 221.826 14.8238C221.826 14.8699 221.818 14.893 221.802 14.893C221.427 14.893 221.154 14.9621 220.982 15.1005C220.817 15.2311 220.743 15.4502 220.759 15.7576L221.029 21.0262C221.044 21.2644 221.071 21.4374 221.111 21.545C221.157 21.6526 221.24 21.7256 221.357 21.764C221.474 21.8024 221.665 21.8217 221.931 21.8217Z" fill="black"/>
<path d="M228.257 22.0983C227.53 22.0983 226.882 21.9331 226.311 21.6026C225.748 21.2644 225.311 20.811 224.998 20.2422C224.693 19.6658 224.541 19.0394 224.541 18.3631C224.541 17.5714 224.744 16.8951 225.151 16.334C225.557 15.7653 226.077 15.3387 226.71 15.0544C227.351 14.77 228.003 14.6278 228.668 14.6278C229.41 14.6278 230.063 14.8007 230.625 15.1466C231.188 15.4848 231.618 15.9344 231.915 16.4954C232.22 17.0565 232.372 17.6521 232.372 18.2824C232.372 18.9818 232.185 19.6235 231.81 20.2077C231.434 20.7918 230.93 21.2529 230.297 21.5911C229.672 21.9293 228.992 22.0983 228.257 22.0983ZM228.656 21.8217C229.125 21.8217 229.543 21.6987 229.91 21.4527C230.285 21.1991 230.579 20.8302 230.79 20.346C231.008 19.8618 231.118 19.2854 231.118 18.6167C231.118 17.9096 230.997 17.2755 230.754 16.7145C230.52 16.1534 230.18 15.7153 229.734 15.4002C229.297 15.0851 228.781 14.9275 228.187 14.9275C227.429 14.9275 226.839 15.1965 226.417 15.7345C226.002 16.2649 225.795 17.0027 225.795 17.948C225.795 18.6782 225.917 19.3392 226.159 19.931C226.409 20.5228 226.749 20.9878 227.179 21.3259C227.616 21.6564 228.109 21.8217 228.656 21.8217Z" fill="black"/>
<path d="M239.613 14.6278C239.965 14.6278 240.328 14.6585 240.703 14.72C241.086 14.7815 241.387 14.8661 241.606 14.9737C241.676 14.9967 241.719 15.0275 241.735 15.0659C241.758 15.0966 241.774 15.1543 241.782 15.2388L241.923 16.7375C241.923 16.7606 241.903 16.776 241.864 16.7837C241.825 16.7913 241.801 16.7798 241.794 16.7491C241.567 16.1496 241.223 15.6923 240.762 15.3772C240.309 15.062 239.773 14.9045 239.156 14.9045C238.343 14.9045 237.706 15.185 237.245 15.7461C236.784 16.3071 236.553 17.0603 236.553 18.0057C236.553 18.7128 236.678 19.3622 236.928 19.954C237.186 20.5458 237.538 21.0147 237.983 21.3605C238.437 21.7064 238.941 21.8793 239.496 21.8793C240.551 21.8793 241.352 21.2337 241.899 19.9425C241.907 19.9118 241.93 19.9002 241.969 19.9079C242.016 19.9156 242.04 19.931 242.04 19.954L241.864 21.4297C241.848 21.5219 241.829 21.5834 241.805 21.6141C241.79 21.6372 241.747 21.6641 241.676 21.6948C240.996 21.9639 240.273 22.0983 239.507 22.0983C238.554 22.0983 237.761 21.9139 237.128 21.545C236.495 21.1684 236.026 20.6919 235.721 20.1154C235.424 19.539 235.275 18.9395 235.275 18.317C235.275 17.5945 235.475 16.9527 235.873 16.3917C236.28 15.8306 236.815 15.3964 237.479 15.0889C238.144 14.7815 238.855 14.6278 239.613 14.6278Z" fill="black"/>
<path d="M246.775 14.9967C246.299 14.9967 245.904 15.1427 245.591 15.4348C245.287 15.7192 245.052 16.1534 244.888 16.7375C244.888 16.7529 244.864 16.7606 244.818 16.7606C244.778 16.7606 244.759 16.7491 244.759 16.726C244.79 16.4263 244.825 16.042 244.864 15.5731C244.904 15.0966 244.923 14.7392 244.923 14.501C244.923 14.4626 244.943 14.4433 244.982 14.4433C245.029 14.4433 245.052 14.4626 245.052 14.501C245.052 14.6701 245.271 14.7546 245.709 14.7546C246.381 14.7777 247.166 14.7892 248.065 14.7892C248.526 14.7892 249.015 14.7815 249.53 14.7661L250.328 14.7546C250.625 14.7546 250.84 14.7354 250.972 14.697C251.113 14.6585 251.203 14.5817 251.242 14.4664C251.25 14.4357 251.273 14.4203 251.312 14.4203C251.351 14.4203 251.371 14.4357 251.371 14.4664C251.348 14.7047 251.324 15.0659 251.301 15.5501C251.277 16.0343 251.265 16.4263 251.265 16.726C251.265 16.7491 251.242 16.7606 251.195 16.7606C251.156 16.7606 251.133 16.7491 251.125 16.726C251.047 16.1342 250.863 15.7 250.574 15.4233C250.285 15.1389 249.894 14.9967 249.401 14.9967C249.183 14.9967 249.018 15.0159 248.909 15.0544C248.807 15.0928 248.737 15.162 248.698 15.2619C248.667 15.3541 248.651 15.504 248.651 15.7115V21.0262C248.651 21.2644 248.675 21.4374 248.721 21.545C248.768 21.6526 248.862 21.7256 249.003 21.764C249.144 21.8024 249.366 21.8217 249.671 21.8217C249.695 21.8217 249.706 21.8447 249.706 21.8908C249.706 21.9369 249.695 21.96 249.671 21.96C249.398 21.96 249.183 21.9562 249.026 21.9485L248.065 21.9369L247.151 21.9485C246.986 21.9562 246.76 21.96 246.471 21.96C246.455 21.96 246.447 21.9369 246.447 21.8908C246.447 21.8447 246.455 21.8217 246.471 21.8217C246.775 21.8217 246.998 21.8024 247.139 21.764C247.287 21.7256 247.385 21.6526 247.432 21.545C247.487 21.4297 247.514 21.2568 247.514 21.0262V15.6884C247.514 15.4886 247.494 15.3426 247.455 15.2503C247.416 15.1581 247.346 15.0928 247.244 15.0544C247.143 15.0159 246.986 14.9967 246.775 14.9967Z" fill="black"/>
<path d="M261.965 21.8217C261.988 21.8217 262 21.8447 262 21.8908C262 21.9369 261.988 21.96 261.965 21.96C261.699 21.96 261.484 21.9562 261.32 21.9485L260.464 21.9369L259.468 21.9485C259.327 21.9562 259.14 21.96 258.905 21.96C258.882 21.96 258.87 21.9369 258.87 21.8908C258.87 21.8447 258.882 21.8217 258.905 21.8217C259.202 21.8217 259.417 21.8024 259.55 21.764C259.683 21.7256 259.773 21.6526 259.82 21.545C259.866 21.4374 259.89 21.2644 259.89 21.0262V16.53L256.009 20.6112V21.0262C256.009 21.2568 256.033 21.4297 256.08 21.545C256.127 21.6526 256.216 21.7256 256.349 21.764C256.49 21.8024 256.709 21.8217 257.006 21.8217C257.021 21.8217 257.029 21.8447 257.029 21.8908C257.029 21.9369 257.021 21.96 257.006 21.96C256.74 21.96 256.533 21.9562 256.385 21.9485L255.411 21.9369L254.556 21.9485C254.407 21.9562 254.2 21.96 253.934 21.96C253.919 21.96 253.911 21.9369 253.911 21.8908C253.911 21.8447 253.919 21.8217 253.934 21.8217C254.216 21.8217 254.423 21.8024 254.556 21.764C254.689 21.7256 254.778 21.6526 254.825 21.545C254.872 21.4297 254.896 21.2568 254.896 21.0262V15.6884C254.896 15.4579 254.872 15.2888 254.825 15.1812C254.778 15.0736 254.689 15.0006 254.556 14.9621C254.423 14.916 254.22 14.893 253.946 14.893C253.93 14.893 253.923 14.8699 253.923 14.8238C253.923 14.7777 253.93 14.7546 253.946 14.7546L254.567 14.7661C254.927 14.7815 255.208 14.7892 255.411 14.7892C255.685 14.7892 256.009 14.7815 256.385 14.7661L257.006 14.7546C257.021 14.7546 257.029 14.7777 257.029 14.8238C257.029 14.8699 257.021 14.893 257.006 14.893C256.717 14.893 256.502 14.916 256.361 14.9621C256.228 15.0082 256.134 15.0889 256.08 15.2042C256.033 15.3118 256.009 15.4809 256.009 15.7115V20.1731L259.89 16.1035V15.7115C259.89 15.4809 259.866 15.3118 259.82 15.2042C259.773 15.0889 259.679 15.0082 259.538 14.9621C259.405 14.916 259.194 14.893 258.905 14.893C258.882 14.893 258.87 14.8699 258.87 14.8238C258.87 14.7777 258.882 14.7546 258.905 14.7546L259.468 14.7661C259.843 14.7815 260.175 14.7892 260.464 14.7892C260.675 14.7892 260.961 14.7815 261.32 14.7661L261.965 14.7546C261.988 14.7546 262 14.7777 262 14.8238C262 14.8699 261.988 14.893 261.965 14.893C261.684 14.893 261.476 14.916 261.344 14.9621C261.219 15.0006 261.133 15.0736 261.086 15.1812C261.039 15.2888 261.015 15.4579 261.015 15.6884V21.0262C261.015 21.2568 261.039 21.4297 261.086 21.545C261.133 21.6526 261.219 21.7256 261.344 21.764C261.476 21.8024 261.684 21.8217 261.965 21.8217Z" fill="black"/>
</g>
<defs>
<clipPath id="clip0_49_1375">
<rect width="262" height="24" fill="white"/>
</clipPath>
<clipPath id="clip1_49_1375">
<rect width="116.709" height="23.4146" fill="white"/>
</clipPath>
</defs>
</svg>
