<svg width="440" height="41" viewBox="0 0 440 41" fill="none" xmlns="http://www.w3.org/2000/svg">
<g clip-path="url(#clip0_1_18298)">
<path d="M0 0H34.1107V2.29426H2.27405V37.9052H33.9131V40H0V0Z" fill="#BBAE91"/>
<path d="M30.2557 13.3672H17.4023V15.861H28.0805V24.7388H17.4023V27.1328H30.2557V13.3672Z" fill="#BBAE91"/>
<path d="M56.4938 37.46V19.4101H59.8143C62.8374 19.4101 68.1403 19.8101 69.5775 20.0601V18.0601C68.1403 18.3601 62.8374 18.8101 59.8143 18.8101H56.4938V2.51016H61.9949C67.2482 2.51016 71.5599 2.61016 74.93 4.61015L74.7813 1.91016H52.2812V38.06H75.4751L76.0203 35.11C71.4608 37.26 64.4729 37.46 59.6656 37.46H56.4938Z" fill="black"/>
<path d="M104.091 29.0113C104.091 23.1113 98.6893 19.9113 93.5847 17.1613C88.7279 14.6613 84.4657 12.2113 84.4657 7.36132C84.4657 4.56132 86.1012 1.71132 91.751 1.71132C96.3105 1.71132 99.284 3.76132 101.118 6.36132L101.415 3.56132C98.8876 2.16132 95.7158 1.11133 91.751 1.11133C84.0197 1.11133 80.8975 5.21132 80.8975 9.66132C80.8975 15.1113 85.7543 18.0113 91.1067 20.9113C96.0627 23.4613 100.473 26.7613 100.473 31.2113C100.473 34.7612 98.0451 38.1612 92.0484 38.1612C86.5472 38.1612 82.979 35.5112 80.9966 33.0112L80.6992 35.8112C85.6056 38.5612 90.6111 38.7612 92.0979 38.7612C99.7301 38.7612 104.091 34.1612 104.091 29.0113Z" fill="black"/>
<path d="M125.065 38.06V2.51016H128.435C134.878 2.51016 137.158 3.76015 138.645 4.61015L138.496 1.91016H107.422L107.273 4.61015C108.76 3.76015 111.09 2.51016 117.532 2.51016H120.853V38.06H125.065Z" fill="black"/>
<path d="M148.111 37.46V19.4101H151.431C154.455 19.4101 159.757 19.8101 161.195 20.0601V18.0601C159.757 18.3601 154.455 18.8101 151.431 18.8101H148.111V2.51016H153.612C158.865 2.51016 163.177 2.61016 166.547 4.61015L166.398 1.91016H143.898V38.06H167.092L167.637 35.11C163.078 37.26 156.09 37.46 151.283 37.46H148.111Z" fill="black"/>
<path d="M195.708 29.0113C195.708 23.1113 190.306 19.9113 185.202 17.1613C180.345 14.6613 176.083 12.2113 176.083 7.36132C176.083 4.56132 177.718 1.71132 183.368 1.71132C187.928 1.71132 190.901 3.76132 192.735 6.36132L193.032 3.56132C190.505 2.16132 187.333 1.11133 183.368 1.11133C175.637 1.11133 172.515 5.21132 172.515 9.66132C172.515 15.1113 177.371 18.0113 182.724 20.9113C187.68 23.4613 192.091 26.7613 192.091 31.2113C192.091 34.7612 189.662 38.1612 183.666 38.1612C178.164 38.1612 174.596 35.5112 172.614 33.0112L172.316 35.8112C177.223 38.5612 182.228 38.7612 183.715 38.7612C191.347 38.7612 195.708 34.1612 195.708 29.0113Z" fill="black"/>
</g>
<line x1="217" y1="13" x2="217" y2="27" stroke="#BBAE91" stroke-width="2"/>
<path d="M240.706 1.35451C242.176 1.35451 243.383 1.6368 244.328 2.20138C245.286 2.75283 245.982 3.4881 246.415 4.40719C246.861 5.31315 247.085 6.30445 247.085 7.38109C247.085 8.72033 246.769 9.90202 246.139 10.9261C245.509 11.9371 244.669 12.7249 243.619 13.2895C242.582 13.841 241.46 14.1167 240.253 14.1167C239.701 14.1167 239.078 14.0576 238.382 13.9394C237.7 13.8344 237.168 13.6965 236.788 13.5258C236.683 13.4733 236.61 13.4208 236.571 13.3683C236.545 13.3026 236.525 13.1976 236.512 13.0532L236.256 10.4929C236.256 10.4535 236.289 10.4338 236.354 10.4338C236.433 10.4206 236.479 10.4338 236.492 10.4732C236.86 11.4579 237.45 12.226 238.264 12.7774C239.078 13.3289 239.964 13.6046 240.922 13.6046C242.248 13.6046 243.245 13.1057 243.915 12.1078C244.597 11.0968 244.938 9.72477 244.938 7.99163V7.75529H242.438C241.703 7.75529 241.119 7.92598 240.686 8.26736C240.253 8.60873 240.036 9.0814 240.036 9.68538C240.036 9.71164 239.997 9.72477 239.918 9.72477C239.852 9.72477 239.82 9.71164 239.82 9.68538L239.839 7.67651L239.82 6.67208C239.793 6.19941 239.78 5.82521 239.78 5.54948C239.78 5.52322 239.82 5.51009 239.898 5.51009C239.977 5.51009 240.016 5.52322 240.016 5.54948C240.03 6.06155 240.253 6.47514 240.686 6.79025C241.132 7.09224 241.729 7.24323 242.477 7.24323H244.919C244.853 6.1272 244.63 5.15559 244.249 4.32841C243.882 3.4881 243.39 2.84474 242.773 2.39833C242.169 1.93878 241.48 1.70901 240.706 1.70901C239.852 1.70901 239.065 1.98474 238.343 2.53619C237.634 3.07451 237.03 3.89513 236.532 4.99803C236.518 5.03742 236.479 5.05055 236.413 5.03742C236.348 5.02429 236.315 5.0046 236.315 4.97834L236.61 2.45741C236.637 2.29985 236.663 2.19481 236.689 2.14229C236.715 2.08978 236.788 2.03726 236.906 1.98474C238.126 1.56458 239.393 1.35451 240.706 1.35451Z" fill="black"/>
<path d="M264.127 13.644C264.153 13.644 264.166 13.6834 264.166 13.7622C264.166 13.841 264.153 13.8804 264.127 13.8804H261.272C261.088 13.8804 260.924 13.8278 260.78 13.7228C260.648 13.6178 260.419 13.3486 260.091 12.9153C259.762 12.482 259.205 11.7008 258.417 10.5716L258.063 10.0596C257.538 9.31118 257.151 8.79255 256.901 8.50369C256.665 8.20171 256.415 7.99163 256.153 7.87346C255.89 7.74216 255.543 7.67651 255.109 7.67651H255.031V12.2851C255.031 12.679 255.07 12.9744 255.149 13.1713C255.228 13.3552 255.372 13.4799 255.582 13.5455C255.792 13.6112 256.133 13.644 256.606 13.644C256.645 13.644 256.665 13.6834 256.665 13.7622C256.665 13.841 256.645 13.8804 256.606 13.8804C256.16 13.8804 255.805 13.8738 255.543 13.8607L253.987 13.841L252.57 13.8607C252.32 13.8738 251.979 13.8804 251.546 13.8804C251.507 13.8804 251.487 13.841 251.487 13.7622C251.487 13.6834 251.507 13.644 251.546 13.644C252.018 13.644 252.36 13.6112 252.57 13.5455C252.793 13.4799 252.944 13.3552 253.023 13.1713C253.101 12.9744 253.141 12.679 253.141 12.2851V3.16642C253.141 2.77253 253.101 2.48367 253.023 2.29985C252.944 2.11603 252.793 1.9913 252.57 1.92565C252.36 1.84687 252.025 1.80748 251.566 1.80748C251.526 1.80748 251.507 1.76809 251.507 1.68932C251.507 1.61054 251.526 1.57115 251.566 1.57115L252.589 1.59084C253.167 1.6171 253.633 1.63023 253.987 1.63023C254.407 1.63023 254.932 1.6171 255.562 1.59084L256.606 1.57115C256.645 1.57115 256.665 1.61054 256.665 1.68932C256.665 1.76809 256.645 1.80748 256.606 1.80748C256.146 1.80748 255.805 1.84687 255.582 1.92565C255.372 2.00443 255.228 2.14229 255.149 2.33924C255.07 2.52306 255.031 2.81192 255.031 3.20581V7.3417C255.385 7.32857 255.825 7.32201 256.35 7.32201H256.488L258.653 4.32841C259.205 3.56688 259.48 2.96291 259.48 2.51649C259.48 2.04382 259.192 1.80748 258.614 1.80748C258.588 1.80748 258.575 1.76809 258.575 1.68932C258.575 1.61054 258.588 1.57115 258.614 1.57115L259.5 1.59084C260.051 1.6171 260.55 1.63023 260.996 1.63023C261.482 1.63023 261.987 1.6171 262.512 1.59084L263.32 1.57115C263.359 1.57115 263.379 1.61054 263.379 1.68932C263.379 1.76809 263.359 1.80748 263.32 1.80748C262.703 1.80748 262.066 2.00443 261.41 2.39833C260.753 2.79222 260.156 3.33054 259.618 4.01329L256.98 7.3417C257.426 7.38109 257.8 7.48613 258.102 7.65682C258.404 7.82751 258.699 8.0901 258.988 8.44461C259.29 8.78598 259.73 9.3637 260.307 10.1777C260.99 11.1231 261.495 11.8058 261.823 12.226C262.164 12.6462 262.519 12.9875 262.886 13.2501C263.267 13.4996 263.68 13.6309 264.127 13.644Z" fill="black"/>
<path d="M274.579 1.35451C275.17 1.35451 275.78 1.40702 276.41 1.51206C277.054 1.6171 277.559 1.76153 277.926 1.94535C278.045 1.98474 278.117 2.03726 278.143 2.1029C278.182 2.15542 278.209 2.2539 278.222 2.39833L278.458 4.95864C278.458 4.99803 278.425 5.02429 278.36 5.03742C278.294 5.05055 278.255 5.03086 278.241 4.97834C277.861 3.95421 277.283 3.17299 276.509 2.63466C275.748 2.09634 274.848 1.82718 273.812 1.82718C272.446 1.82718 271.377 2.30642 270.602 3.26489C269.828 4.22337 269.441 5.51009 269.441 7.12506C269.441 8.333 269.651 9.44247 270.071 10.4535C270.504 11.4645 271.095 12.2654 271.843 12.8562C272.604 13.4471 273.451 13.7425 274.382 13.7425C276.154 13.7425 277.5 12.6396 278.419 10.4338C278.432 10.3813 278.471 10.3616 278.537 10.3747C278.615 10.3878 278.655 10.4141 278.655 10.4535L278.36 12.9744C278.333 13.132 278.3 13.237 278.261 13.2895C278.235 13.3289 278.163 13.3749 278.045 13.4274C276.903 13.8869 275.688 14.1167 274.402 14.1167C272.801 14.1167 271.469 13.8016 270.405 13.1713C269.342 12.528 268.555 11.7139 268.043 10.7292C267.544 9.74446 267.295 8.72034 267.295 7.65682C267.295 6.42262 267.629 5.32628 268.299 4.3678C268.981 3.40932 269.88 2.66749 270.996 2.14229C272.112 1.6171 273.306 1.35451 274.579 1.35451Z" fill="black"/>
<path d="M296.511 13.644C296.55 13.644 296.57 13.6834 296.57 13.7622C296.57 13.841 296.55 13.8804 296.511 13.8804C296.078 13.8804 295.737 13.8738 295.487 13.8607L294.07 13.841L292.514 13.8607C292.265 13.8738 291.917 13.8804 291.471 13.8804C291.431 13.8804 291.412 13.841 291.412 13.7622C291.412 13.6834 291.431 13.644 291.471 13.644C291.93 13.644 292.265 13.6112 292.475 13.5455C292.698 13.4799 292.849 13.3552 292.928 13.1713C293.007 12.9744 293.046 12.679 293.046 12.2851V3.34367C293.046 2.89726 293.026 2.60184 292.987 2.45741C292.947 2.31298 292.856 2.22107 292.711 2.18168C292.58 2.14229 292.298 2.1226 291.865 2.1226H287.829C287.382 2.1226 287.08 2.14229 286.923 2.18168C286.765 2.22107 286.667 2.31955 286.628 2.4771C286.588 2.62153 286.568 2.91039 286.568 3.34367V12.2851C286.568 12.679 286.608 12.9744 286.687 13.1713C286.765 13.3552 286.91 13.4799 287.12 13.5455C287.33 13.6112 287.671 13.644 288.144 13.644C288.183 13.644 288.203 13.6834 288.203 13.7622C288.203 13.841 288.183 13.8804 288.144 13.8804C287.71 13.8804 287.363 13.8738 287.1 13.8607L285.525 13.841L284.127 13.8607C283.878 13.8738 283.53 13.8804 283.084 13.8804C283.057 13.8804 283.044 13.841 283.044 13.7622C283.044 13.6834 283.057 13.644 283.084 13.644C283.556 13.644 283.904 13.6112 284.127 13.5455C284.35 13.4799 284.501 13.3552 284.58 13.1713C284.659 12.9744 284.698 12.679 284.698 12.2851V3.40276C284.698 2.81192 284.593 2.39833 284.383 2.16199C284.173 1.92565 283.746 1.80748 283.103 1.80748C283.077 1.80748 283.064 1.76809 283.064 1.68932C283.064 1.61054 283.077 1.57115 283.103 1.57115C283.55 1.57115 283.983 1.57771 284.403 1.59084C286.162 1.6171 287.986 1.63023 289.876 1.63023C291.622 1.63023 293.617 1.61054 295.861 1.57115H296.511C296.55 1.57115 296.57 1.61054 296.57 1.68932C296.57 1.76809 296.55 1.80748 296.511 1.80748C295.868 1.80748 295.441 1.92565 295.231 2.16199C295.021 2.39833 294.916 2.81192 294.916 3.40276V12.2851C294.916 12.679 294.956 12.9744 295.034 13.1713C295.113 13.3552 295.264 13.4799 295.487 13.5455C295.71 13.6112 296.052 13.644 296.511 13.644Z" fill="black"/>
<path d="M309.762 10.808C309.762 10.7817 309.788 10.7686 309.841 10.7686C309.88 10.7686 309.913 10.7817 309.939 10.808C309.979 10.8211 309.998 10.8342 309.998 10.8474C309.867 11.8452 309.802 12.7578 309.802 13.5849C309.802 13.69 309.782 13.7688 309.743 13.8213C309.703 13.8607 309.624 13.8804 309.506 13.8804H300.962C300.922 13.8804 300.902 13.841 300.902 13.7622C300.902 13.6834 300.922 13.644 300.962 13.644C301.408 13.644 301.729 13.6112 301.926 13.5455C302.136 13.4799 302.274 13.3552 302.34 13.1713C302.418 12.9744 302.458 12.679 302.458 12.2851V3.16642C302.458 2.77253 302.418 2.48367 302.34 2.29985C302.274 2.11603 302.136 1.9913 301.926 1.92565C301.716 1.84687 301.395 1.80748 300.962 1.80748C300.922 1.80748 300.902 1.76809 300.902 1.68932C300.902 1.61054 300.922 1.57115 300.962 1.57115H309.152C309.283 1.57115 309.349 1.63023 309.349 1.7484L309.388 4.30871C309.388 4.33497 309.349 4.35467 309.27 4.3678C309.204 4.38093 309.165 4.3678 309.152 4.32841C308.837 2.83161 307.925 2.08321 306.415 2.08321H305.628C305.155 2.08321 304.82 2.16855 304.624 2.33924C304.427 2.50993 304.328 2.79879 304.328 3.20581V7.22354H306.218C307.662 7.22354 308.384 6.73773 308.384 5.76612C308.384 5.72674 308.417 5.70704 308.482 5.70704C308.561 5.70704 308.601 5.72674 308.601 5.76612L308.581 7.47957L308.601 8.40522C308.627 8.82537 308.64 9.16675 308.64 9.42935C308.64 9.4556 308.601 9.46873 308.522 9.46873C308.443 9.46873 308.404 9.4556 308.404 9.42935C308.404 8.30018 307.669 7.7356 306.199 7.7356H304.328V12.2063C304.328 12.6396 304.407 12.9416 304.564 13.1123C304.735 13.2829 305.03 13.3683 305.45 13.3683H306.415C308.174 13.3683 309.29 12.5149 309.762 10.808Z" fill="black"/>
<path d="M317.95 12.2063C317.95 12.6265 317.996 12.935 318.088 13.132C318.193 13.3158 318.383 13.4471 318.659 13.5258C318.948 13.6046 319.394 13.644 319.998 13.644C320.037 13.644 320.057 13.6834 320.057 13.7622C320.057 13.841 320.037 13.8804 319.998 13.8804C319.46 13.8804 319.04 13.8738 318.738 13.8607L317.025 13.841L315.607 13.8607C315.358 13.8738 315.017 13.8804 314.583 13.8804C314.544 13.8804 314.524 13.841 314.524 13.7622C314.524 13.6834 314.544 13.644 314.583 13.644C315.03 13.644 315.351 13.6112 315.548 13.5455C315.745 13.4799 315.876 13.3552 315.942 13.1713C316.021 12.9875 316.06 12.6921 316.06 12.2851V3.16642C316.06 2.77253 316.021 2.48367 315.942 2.29985C315.876 2.11603 315.738 1.9913 315.528 1.92565C315.332 1.84687 315.017 1.80748 314.583 1.80748C314.544 1.80748 314.524 1.76809 314.524 1.68932C314.524 1.61054 314.544 1.57115 314.583 1.57115L315.607 1.59084C316.185 1.6171 316.651 1.63023 317.005 1.63023C317.307 1.63023 317.674 1.61054 318.108 1.57115C318.265 1.55802 318.475 1.54489 318.738 1.53176C319.013 1.51863 319.335 1.51206 319.702 1.51206C321.002 1.51206 322.026 1.78779 322.774 2.33924C323.535 2.89069 323.916 3.73757 323.916 4.87986C323.916 5.70704 323.699 6.40949 323.266 6.9872C322.846 7.56491 322.301 7.99819 321.632 8.28705C320.976 8.57591 320.3 8.72033 319.604 8.72033C319.236 8.72033 318.928 8.68751 318.679 8.62186C318.639 8.62186 318.619 8.58904 318.619 8.52339C318.619 8.484 318.626 8.44461 318.639 8.40522C318.665 8.36583 318.692 8.3527 318.718 8.36583C318.928 8.41835 319.158 8.44461 319.407 8.44461C320.09 8.44461 320.667 8.16232 321.14 7.59774C321.612 7.03315 321.848 6.22567 321.848 5.17528C321.848 4.13803 321.606 3.33711 321.12 2.77253C320.634 2.19481 319.965 1.90596 319.112 1.90596C318.797 1.90596 318.554 1.93878 318.383 2.00443C318.226 2.07008 318.114 2.19481 318.049 2.37863C317.983 2.54932 317.95 2.82504 317.95 3.20581V12.2063Z" fill="black"/>
<path d="M331.787 1.98474C330.986 1.98474 330.324 2.2342 329.799 2.73314C329.287 3.21894 328.893 3.96077 328.617 4.95864C328.617 4.9849 328.578 4.99803 328.499 4.99803C328.434 4.99803 328.401 4.97834 328.401 4.93895C328.453 4.42688 328.512 3.77039 328.578 2.96947C328.644 2.15542 328.676 1.54489 328.676 1.13786C328.676 1.07221 328.709 1.03939 328.775 1.03939C328.854 1.03939 328.893 1.07221 328.893 1.13786C328.893 1.42672 329.26 1.57115 329.995 1.57115C331.124 1.61054 332.443 1.63023 333.953 1.63023C334.727 1.63023 335.548 1.6171 336.414 1.59084L337.753 1.57115C338.251 1.57115 338.612 1.53832 338.836 1.47267C339.072 1.40702 339.223 1.27573 339.288 1.07878C339.301 1.02626 339.341 1 339.406 1C339.472 1 339.505 1.02626 339.505 1.07878C339.466 1.4858 339.426 2.10291 339.387 2.93008C339.347 3.75726 339.328 4.42688 339.328 4.93895C339.328 4.97834 339.288 4.99803 339.21 4.99803C339.144 4.99803 339.105 4.97834 339.091 4.93895C338.96 3.92795 338.652 3.18612 338.166 2.71344C337.68 2.22764 337.024 1.98474 336.197 1.98474C335.83 1.98474 335.554 2.01756 335.37 2.08321C335.2 2.14886 335.082 2.26703 335.016 2.43772C334.963 2.59527 334.937 2.85131 334.937 3.20581V12.2851C334.937 12.6921 334.977 12.9875 335.055 13.1713C335.134 13.3552 335.292 13.4799 335.528 13.5455C335.764 13.6112 336.138 13.644 336.65 13.644C336.689 13.644 336.709 13.6834 336.709 13.7622C336.709 13.841 336.689 13.8804 336.65 13.8804C336.191 13.8804 335.83 13.8738 335.567 13.8607L333.953 13.841L332.417 13.8607C332.142 13.8738 331.761 13.8804 331.275 13.8804C331.249 13.8804 331.236 13.841 331.236 13.7622C331.236 13.6834 331.249 13.644 331.275 13.644C331.787 13.644 332.161 13.6112 332.397 13.5455C332.647 13.4799 332.811 13.3552 332.89 13.1713C332.982 12.9744 333.027 12.679 333.027 12.2851V3.16642C333.027 2.82504 332.995 2.57558 332.929 2.41802C332.863 2.26046 332.745 2.14886 332.575 2.08321C332.404 2.01756 332.142 1.98474 331.787 1.98474Z" fill="black"/>
<path d="M349.46 6.92811C350.799 6.92811 351.829 7.19728 352.551 7.7356C353.273 8.26079 353.634 9.06828 353.634 10.1581C353.634 10.9196 353.45 11.5892 353.083 12.1669C352.729 12.7315 352.223 13.1713 351.567 13.4865C350.924 13.8016 350.182 13.9591 349.342 13.9591C349.014 13.9591 348.614 13.9394 348.141 13.9C347.039 13.8607 346.448 13.841 346.369 13.841L345.109 13.8607C344.847 13.8738 344.479 13.8804 344.007 13.8804C343.967 13.8804 343.948 13.841 343.948 13.7622C343.948 13.6834 343.967 13.644 344.007 13.644C344.466 13.6309 344.794 13.5981 344.991 13.5455C345.188 13.4799 345.326 13.3617 345.404 13.191C345.483 13.0072 345.523 12.7052 345.523 12.2851V3.16642C345.523 2.74627 345.483 2.45085 345.404 2.28016C345.339 2.09634 345.208 1.97817 345.011 1.92565C344.814 1.87313 344.486 1.83374 344.026 1.80748C344 1.80748 343.987 1.76809 343.987 1.68932C343.987 1.61054 344 1.57115 344.026 1.57115L344.991 1.59084C345.569 1.6171 346.054 1.63023 346.448 1.63023C346.855 1.63023 347.373 1.6171 348.003 1.59084L349.067 1.57115C349.106 1.57115 349.126 1.61054 349.126 1.68932C349.126 1.76809 349.106 1.80748 349.067 1.80748C348.568 1.83374 348.207 1.8797 347.984 1.94535C347.774 1.99787 347.623 2.11603 347.531 2.29985C347.452 2.48367 347.413 2.78566 347.413 3.20581V7.10537C348.095 6.9872 348.778 6.92811 349.46 6.92811ZM348.988 13.5062C349.946 13.5062 350.628 13.2698 351.035 12.7971C351.442 12.3113 351.646 11.5564 351.646 10.5323C351.646 9.44248 351.423 8.65469 350.976 8.16888C350.53 7.66995 349.821 7.42048 348.85 7.42048C348.496 7.42048 348.016 7.46644 347.413 7.55835V12.2851C347.413 12.7052 347.511 13.0138 347.708 13.2107C347.918 13.4077 348.345 13.5062 348.988 13.5062ZM358.005 12.2851C358.005 12.6921 358.038 12.9875 358.103 13.1713C358.169 13.3552 358.3 13.4799 358.497 13.5455C358.707 13.6112 359.035 13.644 359.482 13.644C359.521 13.644 359.541 13.6834 359.541 13.7622C359.541 13.841 359.521 13.8804 359.482 13.8804C359.062 13.8804 358.727 13.8738 358.478 13.8607L357.021 13.841L355.603 13.8607C355.354 13.8738 355.012 13.8804 354.579 13.8804C354.54 13.8804 354.52 13.841 354.52 13.7622C354.52 13.6834 354.54 13.644 354.579 13.644C355.026 13.644 355.347 13.6112 355.544 13.5455C355.754 13.4799 355.898 13.3552 355.977 13.1713C356.056 12.9744 356.095 12.679 356.095 12.2851V3.16642C356.095 2.77253 356.056 2.48367 355.977 2.29985C355.898 2.11603 355.754 1.9913 355.544 1.92565C355.347 1.84687 355.026 1.80748 354.579 1.80748C354.54 1.80748 354.52 1.76809 354.52 1.68932C354.52 1.61054 354.54 1.57115 354.579 1.57115L355.603 1.59084C356.181 1.6171 356.653 1.63023 357.021 1.63023C357.427 1.63023 357.92 1.6171 358.497 1.59084L359.482 1.57115C359.521 1.57115 359.541 1.61054 359.541 1.68932C359.541 1.76809 359.521 1.80748 359.482 1.80748C359.048 1.80748 358.727 1.84687 358.517 1.92565C358.32 2.00443 358.182 2.14229 358.103 2.33924C358.038 2.52306 358.005 2.81192 358.005 3.20581V12.2851Z" fill="black"/>
<path d="M249.762 37.2777C249.801 37.2777 249.821 37.3171 249.821 37.3959C249.821 37.4746 249.801 37.514 249.762 37.514C249.316 37.514 248.955 37.5075 248.679 37.4943L247.242 37.4746L245.569 37.4943C245.332 37.5075 245.017 37.514 244.623 37.514C244.584 37.514 244.564 37.4746 244.564 37.3959C244.564 37.3171 244.584 37.2777 244.623 37.2777C245.122 37.2777 245.483 37.2449 245.706 37.1792C245.929 37.1136 246.08 36.9888 246.159 36.805C246.238 36.6212 246.277 36.3258 246.277 35.9188V31.3693H239.524V35.9188C239.524 36.3126 239.564 36.6081 239.642 36.805C239.721 36.9888 239.872 37.1136 240.095 37.1792C240.331 37.2449 240.699 37.2777 241.198 37.2777C241.224 37.2777 241.237 37.3171 241.237 37.3959C241.237 37.4746 241.224 37.514 241.198 37.514C240.751 37.514 240.404 37.5075 240.154 37.4943L238.52 37.4746L237.083 37.4943C236.833 37.5075 236.486 37.514 236.039 37.514C236.013 37.514 236 37.4746 236 37.3959C236 37.3171 236.013 37.2777 236.039 37.2777C236.512 37.2777 236.86 37.2449 237.083 37.1792C237.306 37.1136 237.457 36.9888 237.536 36.805C237.614 36.6081 237.654 36.3126 237.654 35.9188V26.8001C237.654 26.4062 237.614 26.1173 237.536 25.9335C237.457 25.7497 237.306 25.625 237.083 25.5593C236.86 25.4806 236.518 25.4412 236.059 25.4412C236.033 25.4412 236.02 25.4018 236.02 25.323C236.02 25.2442 236.033 25.2048 236.059 25.2048L237.103 25.2245C237.706 25.2508 238.179 25.2639 238.52 25.2639C238.979 25.2639 239.524 25.2508 240.154 25.2245L241.198 25.2048C241.224 25.2048 241.237 25.2442 241.237 25.323C241.237 25.4018 241.224 25.4412 241.198 25.4412C240.712 25.4412 240.351 25.4806 240.115 25.5593C239.892 25.6381 239.734 25.776 239.642 25.9729C239.564 26.1567 239.524 26.4456 239.524 26.8395V30.8572H246.277V26.8395C246.277 26.4456 246.238 26.1567 246.159 25.9729C246.08 25.776 245.923 25.6381 245.687 25.5593C245.464 25.4806 245.109 25.4412 244.623 25.4412C244.584 25.4412 244.564 25.4018 244.564 25.323C244.564 25.2442 244.584 25.2048 244.623 25.2048L245.569 25.2245C246.199 25.2508 246.756 25.2639 247.242 25.2639C247.596 25.2639 248.075 25.2508 248.679 25.2245L249.762 25.2048C249.801 25.2048 249.821 25.2442 249.821 25.323C249.821 25.4018 249.801 25.4412 249.762 25.4412C249.29 25.4412 248.942 25.4806 248.719 25.5593C248.509 25.625 248.364 25.7497 248.285 25.9335C248.207 26.1173 248.167 26.4062 248.167 26.8001V35.9188C248.167 36.3126 248.207 36.6081 248.285 36.805C248.364 36.9888 248.509 37.1136 248.719 37.1792C248.942 37.2449 249.29 37.2777 249.762 37.2777Z" fill="black"/>
<path d="M262.987 34.4417C262.987 34.4154 263.013 34.4023 263.066 34.4023C263.105 34.4023 263.138 34.4154 263.164 34.4417C263.204 34.4548 263.223 34.4679 263.223 34.481C263.092 35.4789 263.026 36.3914 263.026 37.2186C263.026 37.3237 263.007 37.4024 262.967 37.4549C262.928 37.4943 262.849 37.514 262.731 37.514H254.186C254.147 37.514 254.127 37.4746 254.127 37.3959C254.127 37.3171 254.147 37.2777 254.186 37.2777C254.633 37.2777 254.954 37.2449 255.151 37.1792C255.361 37.1136 255.499 36.9888 255.565 36.805C255.643 36.6081 255.683 36.3126 255.683 35.9188V26.8001C255.683 26.4062 255.643 26.1173 255.565 25.9335C255.499 25.7497 255.361 25.625 255.151 25.5593C254.941 25.4806 254.62 25.4412 254.186 25.4412C254.147 25.4412 254.127 25.4018 254.127 25.323C254.127 25.2442 254.147 25.2048 254.186 25.2048H262.377C262.508 25.2048 262.574 25.2639 262.574 25.3821L262.613 27.9424C262.613 27.9687 262.574 27.9883 262.495 28.0015C262.429 28.0146 262.39 28.0015 262.377 27.9621C262.062 26.4653 261.15 25.7169 259.64 25.7169H258.853C258.38 25.7169 258.045 25.8022 257.848 25.9729C257.652 26.1436 257.553 26.4325 257.553 26.8395V30.8572H259.443C260.887 30.8572 261.609 30.3714 261.609 29.3998C261.609 29.3604 261.642 29.3407 261.707 29.3407C261.786 29.3407 261.826 29.3604 261.826 29.3998L261.806 31.1132L261.826 32.0389C261.852 32.459 261.865 32.8004 261.865 33.063C261.865 33.0893 261.826 33.1024 261.747 33.1024C261.668 33.1024 261.629 33.0893 261.629 33.063C261.629 31.9339 260.894 31.3693 259.424 31.3693H257.553V35.84C257.553 36.2733 257.632 36.5752 257.789 36.7459C257.96 36.9166 258.255 37.002 258.675 37.002H259.64C261.399 37.002 262.515 36.1485 262.987 34.4417Z" fill="black"/>
<path d="M280.192 37.2777C280.31 37.2777 280.376 37.2908 280.389 37.3171C280.415 37.3302 280.428 37.3959 280.428 37.514C280.428 37.6978 280.409 37.9276 280.369 38.2033C280.264 39.1093 280.212 40.0087 280.212 40.9015C280.212 40.9672 280.173 41 280.094 41C280.015 41 279.976 40.9672 279.976 40.9015C279.976 39.7986 279.667 38.9583 279.05 38.3806C278.447 37.8029 277.541 37.514 276.333 37.514H270.978C269.902 37.514 269.121 37.7701 268.635 38.2821C268.15 38.7942 267.907 39.6673 267.907 40.9015C267.907 40.9672 267.867 41 267.789 41C267.71 41 267.67 40.9672 267.67 40.9015C267.67 39.7855 267.598 38.8401 267.454 38.0655C267.415 37.7898 267.395 37.5797 267.395 37.4352C267.395 37.3171 267.401 37.2514 267.415 37.2383C267.441 37.212 267.506 37.1989 267.611 37.1989C268.596 37.1989 269.442 36.6015 270.151 35.4067C270.873 34.1988 271.411 32.7873 271.766 31.1723C272.133 29.5442 272.317 28.159 272.317 27.0167C272.317 25.9664 271.621 25.4412 270.23 25.4412C270.191 25.4412 270.171 25.4018 270.171 25.323C270.171 25.2442 270.191 25.2048 270.23 25.2048H279.818C279.858 25.2048 279.877 25.2442 279.877 25.323C279.877 25.4018 279.858 25.4412 279.818 25.4412C279.346 25.4412 278.998 25.4806 278.775 25.5593C278.565 25.625 278.42 25.7497 278.342 25.9335C278.263 26.1173 278.223 26.4062 278.223 26.8001V35.9188C278.223 36.4308 278.25 36.7656 278.302 36.9232C278.355 37.0807 278.499 37.1792 278.735 37.2186C278.972 37.258 279.457 37.2777 280.192 37.2777ZM276.333 26.8395C276.333 26.4193 276.314 26.1436 276.274 26.0123C276.235 25.8679 276.143 25.7825 275.999 25.7563C275.867 25.7169 275.592 25.6972 275.172 25.6972H274.089C273.734 25.6972 273.485 25.7366 273.341 25.8154C273.196 25.8941 273.098 26.032 273.045 26.229C272.993 26.4259 272.947 26.787 272.908 27.3122L272.868 27.7061C272.711 29.3867 272.376 31.1658 271.864 33.0433C271.352 34.9209 270.611 36.247 269.639 37.0217H275.073C275.559 37.0217 275.867 37.0085 275.999 36.9823C276.143 36.956 276.235 36.8772 276.274 36.7459C276.314 36.6015 276.333 36.3127 276.333 35.8794V26.8395Z" fill="black"/>
<path d="M290.729 30.6012C291.806 30.7193 292.665 31.0804 293.308 31.6844C293.952 32.2884 294.273 33.0368 294.273 33.9296C294.273 34.6123 294.083 35.236 293.702 35.8006C293.335 36.352 292.816 36.7919 292.147 37.1201C291.491 37.4352 290.756 37.5928 289.942 37.5928C289.561 37.5928 289.121 37.5731 288.623 37.5337C288.452 37.5206 288.235 37.5075 287.973 37.4943C287.71 37.4812 287.415 37.4746 287.087 37.4746L285.669 37.4943C285.42 37.5075 285.079 37.514 284.646 37.514C284.606 37.514 284.587 37.4746 284.587 37.3959C284.587 37.3171 284.606 37.2777 284.646 37.2777C285.066 37.2777 285.381 37.2449 285.591 37.1792C285.801 37.1004 285.945 36.9691 286.024 36.7853C286.116 36.6015 286.162 36.3126 286.162 35.9188V26.8001C286.162 26.4193 286.116 26.137 286.024 25.9532C285.945 25.7563 285.801 25.625 285.591 25.5593C285.394 25.4806 285.085 25.4412 284.665 25.4412C284.639 25.4412 284.626 25.4018 284.626 25.323C284.626 25.2442 284.639 25.2048 284.665 25.2048L285.689 25.2245C286.267 25.2508 286.733 25.2639 287.087 25.2639C287.454 25.2639 287.842 25.2442 288.249 25.2048C288.393 25.1917 288.564 25.1786 288.76 25.1654C288.97 25.1523 289.207 25.1457 289.469 25.1457C290.637 25.1457 291.53 25.3755 292.147 25.8351C292.777 26.2815 293.092 26.9051 293.092 27.7061C293.092 28.3232 292.882 28.8877 292.462 29.3998C292.055 29.9119 291.477 30.3123 290.729 30.6012ZM289.135 25.5396C288.715 25.5396 288.426 25.625 288.268 25.7957C288.124 25.9664 288.052 26.3143 288.052 26.8395V30.5815L288.879 30.6012C289.653 30.6012 290.237 30.3517 290.631 29.8528C291.025 29.3407 291.222 28.6842 291.222 27.8833C291.222 27.1349 291.044 26.5572 290.69 26.1502C290.336 25.7431 289.817 25.5396 289.135 25.5396ZM289.627 37.1398C291.399 37.1398 292.285 36.2273 292.285 34.4023C292.285 33.4044 292.022 32.6035 291.497 31.9995C290.985 31.3955 290.231 31.0935 289.233 31.0935C288.76 31.0935 288.367 31.1067 288.052 31.1329V35.9188C288.052 36.2207 288.091 36.4571 288.17 36.6278C288.249 36.7985 288.4 36.9298 288.623 37.0217C288.846 37.1004 289.181 37.1398 289.627 37.1398Z" fill="black"/>
<path d="M312.367 37.2777C312.406 37.2777 312.426 37.3171 312.426 37.3959C312.426 37.4746 312.406 37.514 312.367 37.514C311.921 37.514 311.56 37.5075 311.284 37.4943L309.847 37.4746L308.173 37.4943C307.937 37.5075 307.622 37.514 307.228 37.514C307.189 37.514 307.169 37.4746 307.169 37.3959C307.169 37.3171 307.189 37.2777 307.228 37.2777C307.727 37.2777 308.088 37.2449 308.311 37.1792C308.534 37.1136 308.685 36.9888 308.764 36.805C308.843 36.6212 308.882 36.3258 308.882 35.9188V28.2378L302.365 35.2097V35.9188C302.365 36.3126 302.405 36.6081 302.483 36.805C302.562 36.9888 302.713 37.1136 302.936 37.1792C303.172 37.2449 303.54 37.2777 304.039 37.2777C304.065 37.2777 304.078 37.3171 304.078 37.3959C304.078 37.4746 304.065 37.514 304.039 37.514C303.592 37.514 303.245 37.5075 302.995 37.4943L301.361 37.4746L299.924 37.4943C299.675 37.5075 299.327 37.514 298.88 37.514C298.854 37.514 298.841 37.4746 298.841 37.3959C298.841 37.3171 298.854 37.2777 298.88 37.2777C299.353 37.2777 299.701 37.2449 299.924 37.1792C300.147 37.1136 300.298 36.9888 300.377 36.805C300.455 36.6081 300.495 36.3126 300.495 35.9188V26.8001C300.495 26.4062 300.455 26.1173 300.377 25.9335C300.298 25.7497 300.147 25.625 299.924 25.5593C299.701 25.4806 299.36 25.4412 298.9 25.4412C298.874 25.4412 298.861 25.4018 298.861 25.323C298.861 25.2442 298.874 25.2048 298.9 25.2048L299.944 25.2245C300.547 25.2508 301.02 25.2639 301.361 25.2639C301.821 25.2639 302.365 25.2508 302.995 25.2245L304.039 25.2048C304.065 25.2048 304.078 25.2442 304.078 25.323C304.078 25.4018 304.065 25.4412 304.039 25.4412C303.553 25.4412 303.192 25.4806 302.956 25.5593C302.733 25.6381 302.575 25.776 302.483 25.9729C302.405 26.1567 302.365 26.4456 302.365 26.8395V34.4613L308.882 27.5091V26.8395C308.882 26.4456 308.843 26.1567 308.764 25.9729C308.685 25.776 308.528 25.6381 308.291 25.5593C308.068 25.4806 307.714 25.4412 307.228 25.4412C307.189 25.4412 307.169 25.4018 307.169 25.323C307.169 25.2442 307.189 25.2048 307.228 25.2048L308.173 25.2245C308.803 25.2508 309.361 25.2639 309.847 25.2639C310.201 25.2639 310.68 25.2508 311.284 25.2245L312.367 25.2048C312.406 25.2048 312.426 25.2442 312.426 25.323C312.426 25.4018 312.406 25.4412 312.367 25.4412C311.894 25.4412 311.547 25.4806 311.323 25.5593C311.113 25.625 310.969 25.7497 310.89 25.9335C310.812 26.1173 310.772 26.4062 310.772 26.8001V35.9188C310.772 36.3126 310.812 36.6081 310.89 36.805C310.969 36.9888 311.113 37.1136 311.323 37.1792C311.547 37.2449 311.894 37.2777 312.367 37.2777Z" fill="black"/>
<path d="M335.835 37.2777C335.875 37.2777 335.894 37.3171 335.894 37.3959C335.894 37.4746 335.875 37.514 335.835 37.514H332.981C332.823 37.514 332.679 37.4615 332.547 37.3565C332.429 37.2514 332.213 36.9757 331.898 36.5293C331.596 36.0829 331.09 35.3082 330.382 34.2053C329.804 33.2994 329.364 32.6626 329.063 32.2949C328.761 31.9142 328.459 31.6581 328.157 31.5268C327.855 31.3824 327.448 31.3102 326.936 31.3102H326.798V35.9188C326.798 36.3126 326.838 36.6081 326.917 36.805C326.995 36.9888 327.14 37.1136 327.35 37.1792C327.573 37.2449 327.921 37.2777 328.393 37.2777C328.419 37.2777 328.433 37.3171 328.433 37.3959C328.433 37.4746 328.419 37.514 328.393 37.514C327.934 37.514 327.573 37.5075 327.31 37.4943L325.794 37.4746L324.396 37.4943C324.147 37.5075 323.799 37.514 323.353 37.514C323.327 37.514 323.314 37.4746 323.314 37.3959C323.314 37.3171 323.327 37.2777 323.353 37.2777C323.826 37.2777 324.173 37.2449 324.396 37.1792C324.62 37.1136 324.771 36.9888 324.849 36.805C324.928 36.6081 324.967 36.3126 324.967 35.9188V31.3102H324.79C324.291 31.3102 323.891 31.3824 323.589 31.5268C323.287 31.6581 322.985 31.9142 322.684 32.2949C322.382 32.6626 321.942 33.2928 321.364 34.1856C320.629 35.341 320.111 36.1354 319.809 36.5687C319.52 36.9888 319.31 37.2514 319.179 37.3565C319.061 37.4615 318.923 37.514 318.766 37.514H315.911C315.871 37.514 315.852 37.4746 315.852 37.3959C315.852 37.3171 315.871 37.2777 315.911 37.2777C316.331 37.2646 316.711 37.1333 317.053 36.8838C317.407 36.6212 317.742 36.2798 318.057 35.8597C318.385 35.4264 318.864 34.7436 319.494 33.8114C319.98 33.0893 320.373 32.5444 320.675 32.1768C320.977 31.8091 321.273 31.54 321.561 31.3693C321.85 31.1855 322.191 31.0673 322.585 31.0148L320.006 27.647C319.428 26.8986 318.838 26.3471 318.234 25.9926C317.63 25.625 316.987 25.4412 316.305 25.4412C316.278 25.4412 316.265 25.4018 316.265 25.323C316.265 25.2442 316.278 25.2048 316.305 25.2048L317.112 25.2245C317.637 25.2508 318.142 25.2639 318.628 25.2639C319.035 25.2639 319.553 25.2508 320.183 25.2245L321.364 25.2048C321.391 25.2048 321.404 25.2442 321.404 25.323C321.404 25.4018 321.391 25.4412 321.364 25.4412C320.629 25.4412 320.262 25.6972 320.262 26.2093C320.262 26.6688 320.551 27.3187 321.128 28.159L323.038 30.9754C323.143 30.9622 323.32 30.9557 323.57 30.9557C323.766 30.9557 324.232 30.9688 324.967 30.9951V26.8001C324.967 26.4193 324.921 26.137 324.83 25.9532C324.738 25.7563 324.574 25.625 324.337 25.5593C324.114 25.4806 323.773 25.4412 323.314 25.4412C323.287 25.4412 323.274 25.4018 323.274 25.323C323.274 25.2442 323.287 25.2048 323.314 25.2048L324.396 25.2245C324.974 25.2508 325.44 25.2639 325.794 25.2639C326.188 25.2639 326.713 25.2508 327.369 25.2245L328.452 25.2048C328.479 25.2048 328.492 25.2442 328.492 25.323C328.492 25.4018 328.479 25.4412 328.452 25.4412C327.993 25.4412 327.645 25.4806 327.409 25.5593C327.173 25.6381 327.008 25.776 326.917 25.9729C326.838 26.1567 326.798 26.4456 326.798 26.8395V30.9951C327.533 30.9688 327.993 30.9557 328.177 30.9557C328.426 30.9557 328.603 30.9622 328.708 30.9754L330.579 28.2378C331.182 27.3581 331.484 26.6819 331.484 26.2093C331.484 25.6972 331.123 25.4412 330.401 25.4412C330.362 25.4412 330.342 25.4018 330.342 25.323C330.342 25.2442 330.362 25.2048 330.401 25.2048L331.563 25.2245C332.193 25.2508 332.711 25.2639 333.118 25.2639C333.604 25.2639 334.109 25.2508 334.634 25.2245L335.442 25.2048C335.468 25.2048 335.481 25.2442 335.481 25.323C335.481 25.4018 335.468 25.4412 335.442 25.4412C334.772 25.4412 334.129 25.625 333.512 25.9926C332.908 26.3471 332.318 26.8986 331.74 27.647L329.161 31.0148C329.568 31.0673 329.916 31.1855 330.205 31.3693C330.493 31.54 330.782 31.8091 331.071 32.1768C331.36 32.5313 331.753 33.0761 332.252 33.8114C332.882 34.7436 333.355 35.4264 333.67 35.8597C333.998 36.2798 334.332 36.6212 334.674 36.8838C335.028 37.1333 335.415 37.2646 335.835 37.2777Z" fill="black"/>
<path d="M352.843 37.2777C352.883 37.2777 352.902 37.3171 352.902 37.3959C352.902 37.4746 352.883 37.514 352.843 37.514C352.397 37.514 352.036 37.5075 351.76 37.4943L350.323 37.4746L348.65 37.4943C348.413 37.5075 348.098 37.514 347.705 37.514C347.665 37.514 347.646 37.4746 347.646 37.3959C347.646 37.3171 347.665 37.2777 347.705 37.2777C348.203 37.2777 348.564 37.2449 348.787 37.1792C349.011 37.1136 349.162 36.9888 349.24 36.805C349.319 36.6212 349.358 36.3258 349.358 35.9188V28.2378L342.842 35.2097V35.9188C342.842 36.3126 342.881 36.6081 342.96 36.805C343.039 36.9888 343.189 37.1136 343.413 37.1792C343.649 37.2449 344.016 37.2777 344.515 37.2777C344.541 37.2777 344.555 37.3171 344.555 37.3959C344.555 37.4746 344.541 37.514 344.515 37.514C344.069 37.514 343.721 37.5075 343.472 37.4943L341.838 37.4746L340.4 37.4943C340.151 37.5075 339.803 37.514 339.357 37.514C339.331 37.514 339.317 37.4746 339.317 37.3959C339.317 37.3171 339.331 37.2777 339.357 37.2777C339.829 37.2777 340.177 37.2449 340.4 37.1792C340.623 37.1136 340.774 36.9888 340.853 36.805C340.932 36.6081 340.971 36.3126 340.971 35.9188V26.8001C340.971 26.4062 340.932 26.1173 340.853 25.9335C340.774 25.7497 340.623 25.625 340.4 25.5593C340.177 25.4806 339.836 25.4412 339.376 25.4412C339.35 25.4412 339.337 25.4018 339.337 25.323C339.337 25.2442 339.35 25.2048 339.376 25.2048L340.42 25.2245C341.024 25.2508 341.496 25.2639 341.838 25.2639C342.297 25.2639 342.842 25.2508 343.472 25.2245L344.515 25.2048C344.541 25.2048 344.555 25.2442 344.555 25.323C344.555 25.4018 344.541 25.4412 344.515 25.4412C344.029 25.4412 343.669 25.4806 343.432 25.5593C343.209 25.6381 343.052 25.776 342.96 25.9729C342.881 26.1567 342.842 26.4456 342.842 26.8395V34.4613L349.358 27.5091V26.8395C349.358 26.4456 349.319 26.1567 349.24 25.9729C349.162 25.776 349.004 25.6381 348.768 25.5593C348.545 25.4806 348.19 25.4412 347.705 25.4412C347.665 25.4412 347.646 25.4018 347.646 25.323C347.646 25.2442 347.665 25.2048 347.705 25.2048L348.65 25.2245C349.28 25.2508 349.838 25.2639 350.323 25.2639C350.678 25.2639 351.157 25.2508 351.76 25.2245L352.843 25.2048C352.883 25.2048 352.902 25.2442 352.902 25.323C352.902 25.4018 352.883 25.4412 352.843 25.4412C352.371 25.4412 352.023 25.4806 351.8 25.5593C351.59 25.625 351.445 25.7497 351.367 25.9335C351.288 26.1173 351.249 26.4062 351.249 26.8001V35.9188C351.249 36.3126 351.288 36.6081 351.367 36.805C351.445 36.9888 351.59 37.1136 351.8 37.1792C352.023 37.2449 352.371 37.2777 352.843 37.2777Z" fill="black"/>
<path d="M372.709 37.2777C372.735 37.2777 372.748 37.3171 372.748 37.3959C372.748 37.4746 372.735 37.514 372.709 37.514C372.276 37.514 371.928 37.5075 371.665 37.4943L370.248 37.4746L368.87 37.4943C368.633 37.5075 368.299 37.514 367.865 37.514C367.839 37.514 367.826 37.4746 367.826 37.3959C367.826 37.3171 367.839 37.2777 367.865 37.2777C368.443 37.2777 368.83 37.212 369.027 37.0807C369.224 36.9494 369.322 36.6737 369.322 36.2536L369.303 35.9188L368.909 27.5682L364.715 37.3762C364.689 37.4287 364.637 37.4549 364.558 37.4549C364.492 37.4549 364.433 37.4287 364.381 37.3762L359.459 27.647L359.281 35.131C359.268 35.8268 359.399 36.3586 359.675 36.7262C359.964 37.0939 360.39 37.2777 360.955 37.2777C360.994 37.2777 361.014 37.3171 361.014 37.3959C361.014 37.4746 360.994 37.514 360.955 37.514C360.6 37.514 360.325 37.5075 360.128 37.4943L359.045 37.4746L357.883 37.4943C357.687 37.5075 357.411 37.514 357.057 37.514C357.017 37.514 356.998 37.4746 356.998 37.3959C356.998 37.3171 357.017 37.2777 357.057 37.2777C357.595 37.2777 358.008 37.0939 358.297 36.7262C358.599 36.3586 358.756 35.8268 358.769 35.131L358.947 26.6622C358.71 26.2421 358.448 25.9335 358.159 25.7366C357.883 25.5396 357.562 25.4412 357.194 25.4412C357.155 25.4412 357.135 25.4018 357.135 25.323C357.135 25.2442 357.155 25.2048 357.194 25.2048L358.041 25.2245C358.212 25.2376 358.435 25.2442 358.71 25.2442L359.636 25.2245C359.741 25.2114 359.872 25.2048 360.03 25.2048C360.2 25.2048 360.338 25.2705 360.443 25.4018C360.548 25.5199 360.712 25.7957 360.935 26.229L365.267 34.678L369.185 25.6972C369.263 25.5134 369.349 25.3886 369.441 25.323C369.532 25.2442 369.644 25.2048 369.775 25.2048C369.867 25.2048 369.985 25.2114 370.13 25.2245C370.274 25.2376 370.451 25.2442 370.661 25.2442L371.724 25.2245C371.895 25.2114 372.151 25.2048 372.492 25.2048C372.518 25.2048 372.532 25.2442 372.532 25.323C372.532 25.4018 372.518 25.4412 372.492 25.4412C371.862 25.4412 371.403 25.5593 371.114 25.7957C370.838 26.0189 370.714 26.3931 370.74 26.9183L371.193 35.9188C371.219 36.3258 371.265 36.6212 371.331 36.805C371.409 36.9888 371.547 37.1136 371.744 37.1792C371.941 37.2449 372.263 37.2777 372.709 37.2777Z" fill="black"/>
<path d="M383.333 37.7504C382.112 37.7504 381.023 37.4681 380.064 36.9035C379.119 36.3258 378.384 35.5511 377.859 34.5795C377.348 33.5948 377.092 32.5247 377.092 31.3693C377.092 30.0169 377.433 28.8615 378.115 27.903C378.798 26.9314 379.671 26.2027 380.734 25.7169C381.81 25.2311 382.906 24.9882 384.022 24.9882C385.269 24.9882 386.365 25.2836 387.31 25.8744C388.255 26.4522 388.977 27.2203 389.476 28.1787C389.987 29.1372 390.243 30.1548 390.243 31.2314C390.243 32.4262 389.928 33.5226 389.298 34.5204C388.668 35.5183 387.822 36.3061 386.759 36.8838C385.708 37.4615 384.567 37.7504 383.333 37.7504ZM384.002 37.2777C384.79 37.2777 385.492 37.0676 386.109 36.6475C386.739 36.2142 387.231 35.584 387.585 34.7568C387.953 33.9296 388.137 32.9449 388.137 31.8026C388.137 30.5946 387.933 29.5114 387.526 28.5529C387.133 27.5945 386.562 26.8461 385.814 26.3077C385.078 25.7694 384.212 25.5002 383.215 25.5002C381.941 25.5002 380.95 25.9598 380.242 26.8789C379.546 27.7848 379.198 29.0453 379.198 30.6603C379.198 31.9076 379.402 33.0368 379.809 34.0478C380.229 35.0588 380.8 35.8531 381.521 36.4308C382.256 36.9954 383.083 37.2777 384.002 37.2777Z" fill="black"/>
<path d="M402.403 24.9882C402.994 24.9882 403.604 25.0407 404.234 25.1457C404.878 25.2508 405.383 25.3952 405.75 25.579C405.868 25.6184 405.941 25.6709 405.967 25.7366C406.006 25.7891 406.033 25.8876 406.046 26.032L406.282 28.5923C406.282 28.6317 406.249 28.658 406.184 28.6711C406.118 28.6842 406.078 28.6645 406.065 28.612C405.685 27.5879 405.107 26.8067 404.333 26.2683C403.572 25.73 402.672 25.4609 401.635 25.4609C400.27 25.4609 399.201 25.9401 398.426 26.8986C397.652 27.857 397.265 29.1438 397.265 30.7587C397.265 31.9667 397.475 33.0762 397.895 34.0872C398.328 35.0981 398.919 35.8991 399.667 36.4899C400.428 37.0807 401.275 37.3762 402.206 37.3762C403.978 37.3762 405.324 36.2733 406.243 34.0675C406.256 34.0149 406.295 33.9952 406.361 34.0084C406.439 34.0215 406.479 34.0478 406.479 34.0872L406.184 36.6081C406.157 36.7656 406.124 36.8707 406.085 36.9232C406.059 36.9626 405.987 37.0085 405.868 37.0611C404.727 37.5206 403.512 37.7504 402.226 37.7504C400.625 37.7504 399.293 37.4352 398.229 36.805C397.166 36.1617 396.379 35.3476 395.867 34.3629C395.368 33.3781 395.119 32.354 395.119 31.2905C395.119 30.0563 395.453 28.96 396.123 28.0015C396.805 27.043 397.704 26.3012 398.82 25.776C399.936 25.2508 401.13 24.9882 402.403 24.9882Z" fill="black"/>
<path d="M414.432 25.6184C413.631 25.6184 412.968 25.8679 412.443 26.3668C411.931 26.8526 411.538 27.5944 411.262 28.5923C411.262 28.6186 411.223 28.6317 411.144 28.6317C411.078 28.6317 411.045 28.612 411.045 28.5726C411.098 28.0606 411.157 27.4041 411.223 26.6031C411.288 25.7891 411.321 25.1786 411.321 24.7715C411.321 24.7059 411.354 24.6731 411.42 24.6731C411.498 24.6731 411.538 24.7059 411.538 24.7715C411.538 25.0604 411.905 25.2048 412.64 25.2048C413.769 25.2442 415.088 25.2639 416.598 25.2639C417.372 25.2639 418.192 25.2508 419.059 25.2245L420.397 25.2048C420.896 25.2048 421.257 25.172 421.48 25.1063C421.716 25.0407 421.867 24.9094 421.933 24.7125C421.946 24.6599 421.986 24.6337 422.051 24.6337C422.117 24.6337 422.15 24.6599 422.15 24.7125C422.11 25.1195 422.071 25.7366 422.031 26.5638C421.992 27.3909 421.972 28.0606 421.972 28.5726C421.972 28.612 421.933 28.6317 421.854 28.6317C421.789 28.6317 421.749 28.612 421.736 28.5726C421.605 27.5616 421.296 26.8198 420.811 26.3471C420.325 25.8613 419.669 25.6184 418.842 25.6184C418.474 25.6184 418.199 25.6512 418.015 25.7169C417.844 25.7825 417.726 25.9007 417.661 26.0714C417.608 26.229 417.582 26.485 417.582 26.8395V35.9188C417.582 36.3258 417.621 36.6212 417.7 36.805C417.779 36.9888 417.936 37.1136 418.173 37.1792C418.409 37.2449 418.783 37.2777 419.295 37.2777C419.334 37.2777 419.354 37.3171 419.354 37.3959C419.354 37.4746 419.334 37.514 419.295 37.514C418.835 37.514 418.474 37.5075 418.212 37.4943L416.598 37.4746L415.062 37.4943C414.786 37.5075 414.406 37.514 413.92 37.514C413.894 37.514 413.881 37.4746 413.881 37.3959C413.881 37.3171 413.894 37.2777 413.92 37.2777C414.432 37.2777 414.806 37.2449 415.042 37.1792C415.292 37.1136 415.456 36.9888 415.534 36.805C415.626 36.6081 415.672 36.3126 415.672 35.9188V26.8001C415.672 26.4587 415.639 26.2093 415.574 26.0517C415.508 25.8941 415.39 25.7825 415.219 25.7169C415.049 25.6512 414.786 25.6184 414.432 25.6184Z" fill="black"/>
<path d="M439.941 37.2777C439.98 37.2777 440 37.3171 440 37.3959C440 37.4746 439.98 37.514 439.941 37.514C439.495 37.514 439.134 37.5075 438.858 37.4943L437.421 37.4746L435.747 37.4943C435.511 37.5075 435.196 37.514 434.802 37.514C434.763 37.514 434.743 37.4746 434.743 37.3959C434.743 37.3171 434.763 37.2777 434.802 37.2777C435.301 37.2777 435.662 37.2449 435.885 37.1792C436.108 37.1136 436.259 36.9888 436.338 36.805C436.417 36.6212 436.456 36.3258 436.456 35.9188V28.2378L429.939 35.2097V35.9188C429.939 36.3126 429.979 36.6081 430.057 36.805C430.136 36.9888 430.287 37.1136 430.51 37.1792C430.747 37.2449 431.114 37.2777 431.613 37.2777C431.639 37.2777 431.652 37.3171 431.652 37.3959C431.652 37.4746 431.639 37.514 431.613 37.514C431.167 37.514 430.819 37.5075 430.569 37.4943L428.935 37.4746L427.498 37.4943C427.249 37.5075 426.901 37.514 426.454 37.514C426.428 37.514 426.415 37.4746 426.415 37.3959C426.415 37.3171 426.428 37.2777 426.454 37.2777C426.927 37.2777 427.275 37.2449 427.498 37.1792C427.721 37.1136 427.872 36.9888 427.951 36.805C428.03 36.6081 428.069 36.3126 428.069 35.9188V26.8001C428.069 26.4062 428.03 26.1173 427.951 25.9335C427.872 25.7497 427.721 25.625 427.498 25.5593C427.275 25.4806 426.934 25.4412 426.474 25.4412C426.448 25.4412 426.435 25.4018 426.435 25.323C426.435 25.2442 426.448 25.2048 426.474 25.2048L427.518 25.2245C428.121 25.2508 428.594 25.2639 428.935 25.2639C429.395 25.2639 429.939 25.2508 430.569 25.2245L431.613 25.2048C431.639 25.2048 431.652 25.2442 431.652 25.323C431.652 25.4018 431.639 25.4412 431.613 25.4412C431.127 25.4412 430.766 25.4806 430.53 25.5593C430.307 25.6381 430.149 25.776 430.057 25.9729C429.979 26.1567 429.939 26.4456 429.939 26.8395V34.4613L436.456 27.5091V26.8395C436.456 26.4456 436.417 26.1567 436.338 25.9729C436.259 25.776 436.102 25.6381 435.865 25.5593C435.642 25.4806 435.288 25.4412 434.802 25.4412C434.763 25.4412 434.743 25.4018 434.743 25.323C434.743 25.2442 434.763 25.2048 434.802 25.2048L435.747 25.2245C436.377 25.2508 436.935 25.2639 437.421 25.2639C437.775 25.2639 438.254 25.2508 438.858 25.2245L439.941 25.2048C439.98 25.2048 440 25.2442 440 25.323C440 25.4018 439.98 25.4412 439.941 25.4412C439.468 25.4412 439.121 25.4806 438.897 25.5593C438.687 25.625 438.543 25.7497 438.464 25.9335C438.386 26.1173 438.346 26.4062 438.346 26.8001V35.9188C438.346 36.3126 438.386 36.6081 438.464 36.805C438.543 36.9888 438.687 37.1136 438.897 37.1792C439.121 37.2449 439.468 37.2777 439.941 37.2777Z" fill="black"/>
<defs>
<clipPath id="clip0_1_18298">
<rect width="196" height="40" fill="white"/>
</clipPath>
</defs>
</svg>
