<svg width="1180" height="445" viewBox="0 0 1180 445" fill="none" xmlns="http://www.w3.org/2000/svg">
<path d="M0 31.0823C60.1682 2.73144 206.703 64.8555 277.77 121.904M277.77 121.904C320.117 155.898 335.668 188.089 290.186 198.264C244.022 208.591 243.399 168.496 277.77 121.904ZM277.77 121.904C334.096 45.5537 484.398 -48.2414 682.269 33.8286C781.293 74.9008 814.764 130.734 810.118 187.973M810.118 187.973C799.815 314.903 602.074 448.746 516.089 443.871C391.33 436.797 182.137 275.28 536.313 202.028C639.181 180.753 730.522 178.952 810.118 187.973ZM810.118 187.973C1004.57 210.011 1128.93 296.636 1180 321.668" stroke="#6D81BD" stroke-opacity="0.2" stroke-width="2"/>
</svg>
