<svg width="121" height="78" viewBox="0 0 121 78" fill="none" xmlns="http://www.w3.org/2000/svg">
<path d="M38.5995 23.6544C38.5302 23.7657 38.4426 23.8484 38.3368 23.9024C38.2311 23.9564 38.1121 23.9525 37.98 23.8907L36.4587 23.1789C36.3171 23.1127 36.1416 23.0392 35.9322 22.9584C35.7296 22.8751 35.5083 22.7889 35.2684 22.6996C35.0331 22.6125 34.7849 22.5223 34.5239 22.4289C34.2675 22.3377 34.0146 22.2452 33.7652 22.1515C33.5205 22.06 33.2863 21.9706 33.0627 21.8832C32.8413 21.7911 32.6457 21.7053 32.4758 21.6259C32.4522 21.6148 32.4109 21.5926 32.3518 21.5592C32.2996 21.5233 32.2403 21.4841 32.174 21.4415C32.1145 21.3965 32.0553 21.3572 31.9961 21.3238C31.9439 21.2879 31.9061 21.2644 31.8825 21.2534C31.7881 21.2092 31.6793 21.1899 31.5559 21.1955C31.4373 21.2032 31.3479 21.2591 31.2877 21.3632C31.2363 21.4484 31.1503 21.5893 31.0296 21.7858C30.9111 21.9777 30.7724 22.2003 30.6136 22.4537C30.4569 22.7025 30.288 22.9713 30.1068 23.2603C29.9256 23.5493 29.7455 23.8359 29.5665 24.1202C29.3897 24.3997 29.2206 24.6627 29.0593 24.9093C28.9048 25.1533 28.7739 25.3594 28.6664 25.5276C28.4893 25.7955 28.3146 26.0645 28.1422 26.3346C27.9768 26.6022 27.8236 26.8497 27.6827 27.0771C27.5488 27.3019 27.435 27.4959 27.3414 27.6591C27.2478 27.8223 27.1888 27.9299 27.1645 27.9818C27.0652 28.1941 26.9733 28.4213 26.8887 28.6635C26.8063 28.901 26.7066 29.1447 26.5897 29.3948C26.5588 29.4608 26.4954 29.5347 26.3997 29.6164C26.3087 29.7003 26.2034 29.7718 26.0837 29.8308C25.9641 29.8899 25.8346 29.927 25.6952 29.9423C25.5583 29.9645 25.4309 29.948 25.313 29.8928C25.2611 29.8685 25.2059 29.8082 25.1475 29.7119C25.0868 29.6203 25.0328 29.5145 24.9854 29.3946C24.9428 29.2769 24.9128 29.1565 24.8957 29.0334C24.8763 28.9151 24.8853 28.8158 24.9229 28.7356C24.9957 28.58 25.061 28.4466 25.1186 28.3356C25.1811 28.2268 25.2447 28.1215 25.3096 28.0196C25.3746 27.9177 25.4463 27.8075 25.5247 27.6889C25.6032 27.5704 25.6961 27.427 25.8036 27.2588C25.8124 27.2399 25.874 27.1451 25.9884 26.9744C26.1028 26.8036 26.2442 26.5937 26.4124 26.3447C26.5807 26.0957 26.7602 25.8289 26.9508 25.5443C27.1414 25.2598 27.3209 24.993 27.4892 24.7439C27.6574 24.4949 27.7964 24.2839 27.9061 24.111C28.0205 23.9402 28.0844 23.8465 28.098 23.8299C28.3394 23.4368 28.5629 23.0698 28.7683 22.7289C28.8531 22.5846 28.9379 22.4403 29.0227 22.2959C29.1144 22.1491 29.1982 22.0129 29.2742 21.8875C29.3524 21.7573 29.4204 21.6425 29.4784 21.5431C29.5364 21.4437 29.581 21.3669 29.6122 21.3125C29.8014 20.9697 29.9655 20.6497 30.1045 20.3525C30.2505 20.0528 30.4053 19.7773 30.5688 19.5261C30.7078 19.3151 30.8644 19.2015 31.0388 19.1853C31.2153 19.1644 31.4192 19.208 31.6503 19.3162C31.7966 19.3846 31.9197 19.4595 32.0196 19.5407C32.1243 19.6242 32.2421 19.7167 32.3729 19.8181C32.5084 19.9218 32.6733 20.0363 32.8676 20.1617C33.0619 20.2872 33.3219 20.426 33.6474 20.5783C33.6662 20.5872 33.7592 20.622 33.9262 20.6829C34.0932 20.7438 34.2991 20.82 34.5438 20.9115C34.7932 21.0052 35.0697 21.1087 35.3732 21.2219C35.6767 21.3352 35.9744 21.4486 36.2663 21.5622C36.5629 21.678 36.8372 21.7862 37.0891 21.8868C37.341 21.9874 37.5425 22.073 37.6934 22.1437C37.8821 22.232 38.0478 22.3325 38.1906 22.4453C38.338 22.5603 38.4531 22.6831 38.5357 22.8138C38.6183 22.9444 38.6662 23.0818 38.6792 23.2259C38.6945 23.3653 38.6679 23.5082 38.5995 23.6544ZM38.7433 28.6209C38.7654 28.5737 38.7708 28.513 38.7595 28.4387C38.7552 28.3619 38.7369 28.2844 38.7045 28.206C38.6791 28.1251 38.6422 28.0503 38.5939 27.9817C38.5455 27.9131 38.493 27.8655 38.4364 27.839C38.2901 27.7706 38.1423 27.7302 37.9928 27.7177C37.8481 27.7075 37.7038 27.7148 37.56 27.7395C37.4184 27.7595 37.2783 27.7946 37.1399 27.8448C37.0061 27.8972 36.8817 27.954 36.7668 28.0153C36.4955 28.1528 36.1962 28.3377 35.8691 28.5699C35.5488 28.7996 35.235 29.0524 34.9277 29.3283C34.625 29.6065 34.3481 29.891 34.0971 30.1818C33.8507 30.4748 33.6669 30.751 33.5455 31.0105C33.4837 31.1426 33.4897 31.2834 33.5634 31.4329C33.6372 31.5824 33.7732 31.7035 33.9713 31.7963C34.0846 31.8492 34.2422 31.8626 34.4442 31.8364C34.6532 31.8076 34.8812 31.7504 35.1283 31.6648C35.3823 31.5766 35.6415 31.465 35.9059 31.33C36.1751 31.1972 36.4263 31.0473 36.6597 30.8805C37.0989 30.5685 37.4991 30.2354 37.8604 29.8811C38.2239 29.5221 38.5182 29.1021 38.7433 28.6209ZM44.5667 32.6739C44.5327 32.7097 44.4308 32.7799 44.2611 32.8845C44.0936 32.9844 43.8695 33.1009 43.5887 33.2341C43.3079 33.3672 42.9783 33.5062 42.5999 33.6512C42.2285 33.7937 41.8253 33.9242 41.3904 34.0427C40.8789 34.1772 40.4319 34.2785 40.0492 34.3467C39.6734 34.4124 39.3424 34.4502 39.056 34.46C38.7766 34.4672 38.5339 34.4514 38.3278 34.4125C38.1287 34.3711 37.9513 34.3139 37.7956 34.2411C37.5881 34.144 37.4148 34.0227 37.2759 33.8772C37.1439 33.7292 37.0519 33.551 36.9998 33.3426C36.9478 33.1343 36.9345 32.8923 36.96 32.6167C36.9876 32.3364 37.0573 32.0153 37.1691 31.6536L37.0983 31.6205C36.7589 31.8297 36.4018 32.0277 36.0268 32.2146C35.6588 32.3989 35.2923 32.5494 34.9271 32.6661C34.569 32.7803 34.2212 32.8476 33.8839 32.868C33.5513 32.8906 33.2553 32.8413 32.9958 32.7199C32.859 32.6559 32.7261 32.5649 32.5972 32.4471C32.4706 32.3246 32.3689 32.1793 32.2923 32.0112C32.2157 31.8431 32.1736 31.6566 32.1659 31.4518C32.1605 31.2422 32.2129 31.0195 32.3233 30.7836C32.4204 30.5761 32.5567 30.3523 32.7322 30.1124C32.9099 29.8678 33.1109 29.6226 33.3352 29.3768C33.5617 29.1262 33.7999 28.8812 34.05 28.6417C34.307 28.3997 34.561 28.1764 34.812 27.9718C35.0677 27.7694 35.3112 27.593 35.5426 27.4425C35.7741 27.292 35.982 27.1794 36.1664 27.1047C36.3786 27.02 36.6155 26.9439 36.877 26.8765C37.1432 26.8113 37.4218 26.7691 37.7125 26.7499C38.0033 26.7307 38.2995 26.7428 38.6012 26.7862C38.9051 26.8249 39.2033 26.9127 39.4958 27.0495C39.7317 27.1599 39.8721 27.3205 39.9172 27.5313C39.9645 27.7375 39.9389 28.0073 39.8404 28.3407C39.8319 28.3712 39.833 28.412 39.8436 28.4629C39.859 28.5161 39.8721 28.574 39.8831 28.6367C39.8988 28.7015 39.9086 28.7665 39.9126 28.8316C39.9189 28.892 39.9098 28.9482 39.8856 29.0001C39.8503 29.0756 39.7896 29.1622 39.7036 29.26C39.6198 29.353 39.5236 29.4604 39.4149 29.582C39.3132 29.7012 39.2071 29.8356 39.0969 29.9852C38.9888 30.1302 38.8928 30.2923 38.8089 30.4716C38.6942 30.7169 38.574 30.9798 38.4485 31.2603C38.323 31.5409 38.2287 31.8101 38.1655 32.0681C38.1092 32.3235 38.1013 32.5555 38.1416 32.7642C38.1867 32.975 38.3202 33.1323 38.5419 33.2361C38.7683 33.342 39.1246 33.3794 39.6108 33.3481C40.0969 33.3168 40.6653 33.2204 41.3158 33.059C41.7325 32.955 42.1327 32.8432 42.5164 32.7237C42.9001 32.6042 43.2433 32.4974 43.5461 32.4033C43.8489 32.3093 44.1044 32.2362 44.3128 32.1842C44.5211 32.1322 44.6583 32.1216 44.7244 32.1525C44.8046 32.19 44.8475 32.2273 44.8531 32.2645C44.8609 32.2969 44.8494 32.3461 44.8185 32.4122C44.8141 32.4216 44.7994 32.4406 44.7745 32.4692C44.7519 32.4931 44.7281 32.5194 44.7032 32.548C44.6783 32.5766 44.6522 32.6017 44.6248 32.6234C44.5974 32.6451 44.578 32.6619 44.5667 32.6739ZM51.439 34.1729C51.2007 34.6824 50.9199 35.1289 50.5966 35.5125C50.2734 35.896 49.9094 36.2317 49.5044 36.5195C49.1017 36.8026 48.6548 37.0449 48.1638 37.2464C47.6749 37.4432 47.1448 37.6178 46.5732 37.7701C46.3579 37.8247 46.1225 37.8669 45.867 37.8968C45.6162 37.929 45.3626 37.9426 45.1061 37.9376C44.8497 37.9326 44.5986 37.91 44.353 37.8698C44.1142 37.8271 43.9004 37.7616 43.7117 37.6733C43.5749 37.6093 43.4658 37.5353 43.3844 37.4512C43.3077 37.3693 43.2447 37.2766 43.1954 37.173C43.1509 37.0716 43.113 36.9619 43.082 36.8439C43.0579 36.7234 43.0302 36.5983 42.9989 36.4686C42.6533 36.8877 42.3541 37.2566 42.1015 37.5754C41.8513 37.9012 41.6262 38.2041 41.4261 38.4842C41.2238 38.7691 41.033 39.0479 40.8537 39.3205C40.6722 39.5978 40.4762 39.9 40.2657 40.227C40.2209 40.2981 40.1565 40.3743 40.0724 40.4557C39.9908 40.5441 39.9055 40.622 39.8164 40.6896C39.7273 40.7571 39.6377 40.8072 39.5477 40.8399C39.4602 40.8794 39.3857 40.8849 39.3244 40.8562C39.2584 40.8253 39.1881 40.7665 39.1136 40.6799C39.0416 40.6002 38.9799 40.511 38.9284 40.4121C38.8747 40.318 38.8339 40.227 38.806 40.1392C38.7781 40.0514 38.774 39.9862 38.7939 39.9438C38.8711 39.7787 38.9673 39.6224 39.0823 39.4749C39.202 39.3297 39.3113 39.1882 39.4102 39.0505C39.9052 38.3735 40.3829 37.746 40.8431 37.1678C41.3081 36.5918 41.7544 36.0129 42.182 35.4309C42.6095 34.8489 43.0223 34.237 43.4204 33.5952C43.8253 32.9509 44.2165 32.2254 44.594 31.4187C44.6028 31.3998 44.6203 31.3563 44.6465 31.288C44.6796 31.2173 44.7138 31.1441 44.7491 31.0687C44.7867 30.9885 44.8185 30.9142 44.8447 30.846C44.8756 30.78 44.8966 30.7351 44.9076 30.7115C44.9804 30.5559 45.071 30.4114 45.1794 30.2781C45.2878 30.1448 45.4026 30.0346 45.5238 29.9476C45.652 29.858 45.7832 29.7987 45.9176 29.7696C46.052 29.7404 46.1805 29.7546 46.3032 29.812C46.3551 29.8362 46.3937 29.8888 46.4191 29.9697C46.4467 30.0459 46.4597 30.1411 46.458 30.2553C46.4585 30.3648 46.4408 30.4887 46.4048 30.6271C46.3735 30.7678 46.3236 30.9112 46.2552 31.0574C46.1404 31.3027 45.9949 31.5768 45.8188 31.8796C45.6426 32.1825 45.4571 32.4867 45.2623 32.7923C45.0745 33.0955 44.8909 33.3834 44.7116 33.656C44.5323 33.9286 44.3845 34.1585 44.2682 34.3456C44.6464 34.0165 45.0441 33.7196 45.4613 33.4547C45.8832 33.1921 46.3013 32.9622 46.7156 32.765C47.1298 32.5678 47.5334 32.4059 47.9262 32.2792C48.3259 32.1499 48.6962 32.0529 49.037 31.9881C49.3778 31.9233 49.6812 31.8956 49.9471 31.905C50.2151 31.9097 50.427 31.9484 50.5827 32.0213C50.795 32.1206 50.9732 32.2558 51.1175 32.4268C51.2687 32.5953 51.3807 32.7799 51.4535 32.9807C51.5332 33.179 51.5699 33.3831 51.5638 33.593C51.5645 33.8003 51.5229 33.9936 51.439 34.1729ZM49.9706 34.288C50.0677 34.0804 50.1225 33.9019 50.1349 33.7525C50.1474 33.603 50.136 33.4799 50.1009 33.3829C50.0679 33.2812 50.0192 33.201 49.9548 33.1421C49.8951 33.0854 49.8416 33.046 49.7944 33.0239C49.6057 32.9356 49.349 32.919 49.0242 32.974C48.7017 33.0244 48.3443 33.1246 47.9521 33.2746C47.5621 33.4199 47.1544 33.6029 46.7291 33.8237C46.3038 34.0444 45.8963 34.2764 45.5065 34.5195C45.4079 34.5827 45.2762 34.6677 45.1112 34.7745C44.9509 34.8835 44.7897 35.0007 44.6276 35.1261C44.4676 35.2467 44.3227 35.3658 44.193 35.4834C44.0632 35.6009 43.9807 35.6975 43.9454 35.7729C43.9255 35.8154 43.919 35.8785 43.9258 35.9622C43.9327 36.0459 43.956 36.1373 43.9959 36.2365C44.0427 36.3331 44.1093 36.4304 44.1957 36.5283C44.2869 36.6285 44.4056 36.7128 44.5518 36.7812C44.7499 36.8739 45.0016 36.9198 45.3068 36.9188C45.6142 36.9132 45.9428 36.8685 46.2924 36.7848C46.649 36.6987 47.014 36.5762 47.3873 36.4173C47.7653 36.2607 48.1193 36.0756 48.4493 35.8619C48.7862 35.6458 49.0887 35.4049 49.3567 35.1393C49.6247 34.8737 49.8294 34.5899 49.9706 34.288ZM58.0205 37.2523C57.8859 37.5401 57.6969 37.8455 57.4537 38.1688C57.2105 38.492 56.9311 38.8126 56.6155 39.1307C56.2999 39.4489 55.9571 39.7514 55.5871 40.0383C55.2218 40.3274 54.8451 40.5795 54.4569 40.7946C54.1216 40.9828 53.7691 41.1341 53.3992 41.2486C53.0341 41.3652 52.6632 41.439 52.2866 41.4697C51.9099 41.5005 51.5344 41.4858 51.16 41.4257C50.7904 41.3677 50.4334 41.2582 50.089 41.097C49.9475 41.0308 49.8277 40.9058 49.7297 40.7219C49.6364 40.5403 49.567 40.3324 49.5213 40.0983C49.4825 39.8616 49.4749 39.6137 49.4984 39.3544C49.5219 39.0952 49.5834 38.8594 49.6827 38.6471C49.8482 38.2933 50.0456 37.9515 50.2746 37.6216C50.5084 37.294 50.7905 36.9861 51.1209 36.6979C51.4581 36.4072 51.8519 36.1371 52.3021 35.8878C52.7523 35.6384 53.28 35.4138 53.8853 35.214C54.0077 35.1735 54.1525 35.1406 54.3196 35.1153C54.4936 35.0874 54.6667 35.0678 54.8388 35.0563C55.0178 35.0424 55.1854 35.0345 55.3415 35.0328C55.5023 35.0332 55.6317 35.0392 55.7299 35.0506C56.0219 35.078 56.3154 35.1204 56.6105 35.178C56.9077 35.2308 57.1863 35.2807 57.4462 35.3275C57.5772 34.9 57.6496 34.5055 57.6635 34.144C57.6843 33.78 57.626 33.4192 57.4886 33.0616C57.4286 32.9071 57.3419 32.7544 57.2285 32.6035C57.1198 32.4549 56.9973 32.3171 56.8612 32.1902C56.7251 32.0633 56.5847 31.9516 56.4401 31.8551C56.2977 31.754 56.1639 31.6713 56.0387 31.607C55.9774 31.5783 55.8998 31.5535 55.8061 31.5326C55.7146 31.507 55.6173 31.4874 55.5145 31.4738C55.4185 31.4577 55.3204 31.4462 55.22 31.4395C55.1266 31.4303 55.0438 31.429 54.9717 31.4355C54.8811 31.4449 54.7718 31.4512 54.6437 31.4545C54.5226 31.4554 54.429 31.4403 54.3629 31.4094C54.2969 31.3785 54.2579 31.3143 54.2461 31.2167C54.2364 31.1145 54.2482 31.0279 54.2813 30.9572C54.31 30.8959 54.3643 30.835 54.4443 30.7747C54.5312 30.7118 54.623 30.657 54.7196 30.6102C54.8232 30.561 54.9281 30.5209 55.0345 30.4902C55.1409 30.4595 55.2325 30.442 55.3093 30.4376C55.521 30.4275 55.7534 30.447 56.0063 30.4964C56.2639 30.5479 56.5626 30.6532 56.9023 30.8121C57.2469 30.9848 57.5623 31.1957 57.8484 31.4445C58.1414 31.6909 58.3809 31.984 58.5668 32.324C58.7549 32.6593 58.8803 33.0429 58.9428 33.4746C59.0075 33.9017 58.9875 34.3868 58.8828 34.9301C58.8496 35.0871 58.8028 35.2607 58.7425 35.451C58.6823 35.6413 58.6128 35.8389 58.5343 36.0436C58.4579 36.2437 58.3747 36.4462 58.2845 36.6513C58.199 36.8585 58.111 37.0589 58.0205 37.2523ZM56.9511 36.7174C56.9754 36.6655 56.9938 36.6138 57.0065 36.5622C57.026 36.5081 57.048 36.4551 57.0722 36.4032C56.948 36.3738 56.7886 36.3395 56.5942 36.3003C56.402 36.2564 56.1868 36.2247 55.9487 36.2053C55.7127 36.1811 55.4574 36.1738 55.1827 36.1833C54.9149 36.1902 54.6386 36.2277 54.3538 36.2957C54.3144 36.3061 54.2314 36.3362 54.1045 36.3861C53.9799 36.4313 53.838 36.4885 53.6791 36.5579C53.5223 36.6226 53.3668 36.6907 53.2126 36.7623C53.063 36.8361 52.9459 36.902 52.8612 36.9602C52.5448 37.1571 52.275 37.3529 52.0517 37.5474C51.8331 37.7442 51.6448 37.9378 51.4866 38.1283C51.3307 38.3141 51.1991 38.497 51.092 38.6768C50.9895 38.8589 50.8975 39.0372 50.8158 39.2118C50.7121 39.4335 50.6483 39.6251 50.6246 39.7864C50.6008 39.9478 50.6337 40.0495 50.7234 40.0914C50.8366 40.1444 50.952 40.1927 51.0697 40.2362C51.1895 40.275 51.323 40.303 51.4703 40.3202C51.6244 40.3348 51.8014 40.3313 52.0012 40.3098C52.2011 40.2883 52.4387 40.2414 52.7141 40.1689C53.1515 40.0574 53.5873 39.8818 54.0215 39.6421C54.4578 39.3978 54.8653 39.1169 55.2438 38.7995C55.6223 38.482 55.9595 38.1424 56.2553 37.7805C56.5558 37.4209 56.7878 37.0665 56.9511 36.7174ZM66.3172 42.3504C66.3017 42.3834 66.2496 42.4395 66.1608 42.5187C66.0767 42.6001 65.9786 42.6807 65.8665 42.7605C65.009 43.2046 64.168 43.6133 63.3436 43.9865C62.526 44.3573 61.7533 44.657 61.0253 44.8857C60.2995 45.1096 59.6331 45.2435 59.0261 45.2872C58.4238 45.3332 57.9102 45.251 57.4853 45.0407C57.0891 44.8553 56.778 44.6292 56.552 44.3625C56.3307 44.098 56.1844 43.8024 56.113 43.4757C56.0416 43.149 56.0394 42.7973 56.1065 42.4204C56.1758 42.0388 56.3065 41.6428 56.4985 41.2323C56.653 40.9021 56.8435 40.5686 57.0701 40.2319C57.2967 39.8951 57.5552 39.5762 57.8456 39.275C58.1313 38.9717 58.4455 38.6932 58.7885 38.4396C59.1336 38.1813 59.5043 37.9666 59.9006 37.7956C60.0596 37.7262 60.2305 37.6681 60.4133 37.6214C60.5984 37.57 60.785 37.5337 60.9732 37.5125C61.1661 37.4935 61.3536 37.4921 61.5358 37.5084C61.7227 37.5268 61.8962 37.5677 62.0562 37.6311C62.2236 37.7037 62.3625 37.806 62.4732 37.9383C62.586 38.0659 62.6689 38.2082 62.7219 38.3652C62.7749 38.5223 62.7979 38.6883 62.7908 38.8632C62.7837 39.0382 62.7461 39.2046 62.678 39.3625C62.5181 39.7534 62.2207 40.1002 61.7859 40.4027C61.358 40.7028 60.7709 40.9744 60.0246 41.2175C59.8883 41.263 59.7196 41.3163 59.5185 41.3774C59.3174 41.4386 59.1011 41.5013 58.8698 41.5656C58.6454 41.6273 58.4128 41.6881 58.1721 41.748C57.9382 41.8053 57.7146 41.8531 57.5012 41.8913C57.4107 42.0847 57.3484 42.2855 57.3142 42.4938C57.28 42.7021 57.2819 42.9071 57.3197 43.1088C57.3645 43.308 57.4509 43.4922 57.5788 43.6612C57.7114 43.8325 57.9003 43.9756 58.1456 44.0904C58.4004 44.2096 58.6945 44.2753 59.028 44.2876C59.3637 44.2952 59.7264 44.2636 60.116 44.1929C60.5125 44.1196 60.928 44.0121 61.3623 43.8703C61.8036 43.726 62.2561 43.564 62.7197 43.3842C63.1856 43.1996 63.6581 43.0009 64.1372 42.7881C64.621 42.5774 65.1001 42.3646 65.5745 42.1495C65.6022 42.1395 65.6403 42.1257 65.6888 42.1081C65.7372 42.0905 65.7881 42.074 65.8413 42.0587C65.9014 42.0408 65.9582 42.03 66.0117 42.0263C66.0721 42.0201 66.1235 42.0269 66.166 42.0467C66.1801 42.0534 66.1957 42.0693 66.2127 42.0945C66.2366 42.1171 66.2582 42.1445 66.2777 42.1766C66.2994 42.204 66.3142 42.2339 66.322 42.2664C66.3298 42.2988 66.3282 42.3268 66.3172 42.3504ZM61.4548 39.23C61.5138 39.0794 61.5359 38.946 61.5212 38.8299C61.5113 38.7159 61.451 38.636 61.3402 38.5899C61.0836 38.4871 60.7685 38.5093 60.3948 38.6565C60.0212 38.8037 59.6046 39.0918 59.1451 39.5208C59.0519 39.6094 58.9521 39.7122 58.8456 39.8292C58.7413 39.9414 58.6383 40.0571 58.5366 40.1762C58.4395 40.2976 58.3425 40.4189 58.2455 40.5403C58.1554 40.6591 58.0766 40.766 58.0092 40.861C58.3406 40.7918 58.6493 40.7034 58.9354 40.5957C59.2216 40.4881 59.4893 40.3891 59.7386 40.2987C59.9324 40.2284 60.1216 40.156 60.3061 40.0812C60.4927 40.0018 60.6607 39.9194 60.8099 39.834C60.9661 39.746 61.0988 39.6529 61.2081 39.5545C61.3243 39.4536 61.4065 39.3454 61.4548 39.23ZM75.4329 46.1152C75.3998 46.186 75.3352 46.2564 75.2392 46.3265C75.1501 46.394 75.0457 46.4573 74.9261 46.5164C74.8065 46.5754 74.6798 46.6311 74.546 46.6835C74.4191 46.7334 74.3049 46.7749 74.2032 46.8078C73.8542 46.9147 73.4502 47.0161 72.9914 47.1119C72.5372 47.21 72.0384 47.2929 71.495 47.3606C70.9584 47.4258 70.3831 47.4757 69.7688 47.5104C69.1593 47.5472 68.5236 47.5602 67.8616 47.5495C67.8033 47.551 67.7011 47.5607 67.5547 47.5785C67.4131 47.5985 67.246 47.6238 67.0534 47.6544C66.8608 47.6851 66.6566 47.716 66.4407 47.7473C66.2271 47.7738 66.0238 47.7966 65.8309 47.8156C65.6427 47.8368 65.4753 47.8504 65.3287 47.8566C65.1889 47.8602 65.0931 47.8499 65.0413 47.8256C64.9469 47.7815 64.8581 47.7255 64.7748 47.6578C64.6937 47.5854 64.6229 47.5091 64.5626 47.4292C64.507 47.3514 64.4677 47.2755 64.4448 47.2016C64.4241 47.1229 64.427 47.0552 64.4535 46.9986C64.5175 46.8618 64.6163 46.7614 64.7498 46.6973C64.8832 46.6333 65.0442 46.5965 65.2327 46.5869C65.4725 46.5783 65.6726 46.5685 65.8331 46.5573C65.9936 46.5461 66.1353 46.5319 66.2584 46.5148C66.3861 46.4998 66.5067 46.4757 66.62 46.4424C66.738 46.4114 66.8697 46.3695 67.0151 46.3168C67.1766 46.2544 67.3573 46.1693 67.5572 46.0616C67.7571 45.9538 67.9624 45.8285 68.173 45.6855C68.3837 45.5426 68.5917 45.3869 68.797 45.2184C69.007 45.0522 69.2018 44.8817 69.3813 44.7069C69.5656 44.5344 69.7276 44.3601 69.8675 44.184C70.0074 44.008 70.1148 43.8397 70.1899 43.6793C70.234 43.585 70.2664 43.4851 70.2869 43.3797C70.3144 43.2718 70.3257 43.1678 70.3208 43.0678C70.3205 42.9699 70.2996 42.8796 70.2578 42.7968C70.2207 42.7162 70.1598 42.6561 70.0748 42.6163C69.9428 42.5545 69.7894 42.5259 69.6148 42.5304C69.4423 42.5303 69.2634 42.5501 69.0781 42.5898C68.8996 42.6271 68.7215 42.676 68.5437 42.7366C68.3727 42.7946 68.2204 42.8498 68.0866 42.9022C67.6922 43.057 67.3249 43.2215 66.9845 43.3958C66.6442 43.5701 66.3228 43.7532 66.0202 43.9451C65.7199 44.1323 65.4337 44.3262 65.1616 44.5267C64.8895 44.7271 64.628 44.9297 64.3771 45.1343C64.2519 45.3402 64.1147 45.5721 63.9653 45.83C63.8181 46.0831 63.6553 46.3635 63.4769 46.671C63.2985 46.9786 63.1371 47.2682 62.9927 47.5399C62.8461 47.8163 62.7073 48.0763 62.5761 48.3197C62.445 48.5631 62.317 48.7936 62.1922 49.0112C62.0674 49.2288 61.9352 49.4315 61.7956 49.6192C61.7206 49.6934 61.6433 49.7664 61.5636 49.8384C61.4818 49.9151 61.3949 49.9779 61.3029 50.0269C61.2135 50.0828 61.12 50.1167 61.0225 50.1286C60.9274 50.1474 60.8257 50.1314 60.7172 50.0806C60.6653 50.0563 60.6129 50.0146 60.5601 49.9554C60.5073 49.8962 60.4624 49.8263 60.4253 49.7457C60.3908 49.672 60.3667 49.5946 60.3529 49.5134C60.3439 49.4344 60.3559 49.3596 60.389 49.2888C60.4618 49.1331 60.5641 48.9452 60.6959 48.7251C60.8254 48.5097 60.9584 48.293 61.0949 48.0751C61.236 47.8594 61.3649 47.6638 61.4815 47.4884C61.6028 47.3151 61.6859 47.193 61.7306 47.1219C62.024 46.6669 62.3233 46.1686 62.6284 45.6271C62.9357 45.0809 63.2615 44.4829 63.6057 43.8332C63.7057 43.6442 63.8463 43.3621 64.0276 42.9869C64.218 42.6045 64.3807 42.2752 64.5156 41.9991C64.6575 41.7205 64.7797 41.4901 64.8821 41.308C65.127 40.8706 65.3556 40.5664 65.5679 40.3954C65.7823 40.2198 65.9933 40.1805 66.2009 40.2776C66.3613 40.3527 66.4697 40.4896 66.5261 40.6886C66.5804 40.8922 66.5711 41.0718 66.4982 41.2275C66.421 41.3926 66.3171 41.5654 66.1867 41.7459C66.061 41.9286 65.9283 42.1138 65.7887 42.3015C65.6539 42.4914 65.5201 42.679 65.3875 42.8641C65.2617 43.0468 65.1613 43.2184 65.0863 43.3788C65.0223 43.5156 65.0044 43.5906 65.0327 43.6038C65.6411 43.1639 66.2369 42.7815 66.8203 42.4564C67.4037 42.1313 67.9229 41.8941 68.378 41.7448C68.5792 41.6836 68.7897 41.6269 69.0097 41.5746C69.2297 41.5222 69.4489 41.4839 69.6673 41.4596C69.8857 41.4353 70.0941 41.4322 70.2926 41.4503C70.4981 41.4659 70.6834 41.5124 70.8485 41.5896C71.0252 41.6666 71.1774 41.7838 71.305 41.9412C71.4348 42.094 71.5336 42.2638 71.6014 42.4508C71.6691 42.6378 71.7032 42.8291 71.7037 43.0248C71.7041 43.2205 71.6679 43.3962 71.5951 43.5519C71.5222 43.7076 71.4207 43.8815 71.2906 44.0736C71.1674 44.2632 71.021 44.4592 70.8515 44.6617C70.6843 44.8594 70.503 45.0564 70.3077 45.2525C70.1124 45.4487 69.9121 45.631 69.7068 45.7994C69.5062 45.9701 69.3039 46.1198 69.0999 46.2486C68.9028 46.3749 68.7142 46.4707 68.5342 46.5359C69.614 46.5754 70.6277 46.535 71.5752 46.4148C72.5275 46.2969 73.4362 46.1183 74.3014 45.879C74.6114 45.7941 74.8646 45.7199 75.061 45.6566C75.2574 45.5932 75.3957 45.5803 75.4759 45.6178C75.5089 45.6333 75.5271 45.6619 75.5306 45.7038C75.5362 45.7409 75.5327 45.7853 75.52 45.8368C75.5143 45.8859 75.5017 45.9375 75.4821 45.9916C75.4648 46.041 75.4484 46.0822 75.4329 46.1152ZM82.7617 49.9755C82.6977 50.1123 82.5936 50.2304 82.4494 50.3297C82.3099 50.4311 82.1512 50.5122 81.9734 50.5727C81.8094 50.6282 81.6229 50.6704 81.414 50.6991C81.205 50.7279 80.9851 50.7371 80.7541 50.7268C80.5301 50.714 80.3009 50.6815 80.0666 50.6293C79.8369 50.5794 79.6136 50.5037 79.3966 50.4021C79.1466 50.2851 78.9382 50.1589 78.7716 50.0234C78.6072 49.8833 78.4722 49.754 78.3666 49.6356C78.261 49.5171 78.1791 49.4156 78.121 49.3309C78.0698 49.2437 78.03 49.1934 78.0017 49.1802C77.9404 49.1515 77.8926 49.1493 77.8583 49.1735C77.8239 49.1976 77.7989 49.2204 77.7831 49.2418C77.716 49.3484 77.6423 49.4692 77.5619 49.6041C77.4884 49.7365 77.393 49.8729 77.2755 50.0135C77.1649 50.1515 77.0265 50.2937 76.8602 50.4402C76.6961 50.5819 76.4899 50.7154 76.2415 50.8407C76.0646 50.9362 75.8593 51.0184 75.6258 51.0874C75.397 51.1586 75.1528 51.2197 74.8931 51.2708C74.6357 51.3171 74.3698 51.3508 74.0954 51.3719C73.821 51.393 73.552 51.3965 73.2883 51.3824C73.0294 51.3705 72.7816 51.3409 72.545 51.2934C72.3132 51.2482 72.1053 51.1825 71.9213 51.0965C71.6052 50.9486 71.3688 50.7718 71.212 50.5662C71.0552 50.3606 70.9585 50.1371 70.9219 49.8957C70.8901 49.6565 70.9056 49.4022 70.9685 49.1326C71.0361 48.8652 71.135 48.5923 71.2652 48.314C71.3976 48.031 71.5607 47.7623 71.7545 47.5079C71.9552 47.251 72.1725 47.0077 72.4066 46.7779C72.6453 46.5504 72.8925 46.3354 73.1482 46.133C73.4108 45.9281 73.669 45.7327 73.9228 45.5467C74.579 45.0659 75.2107 44.7606 75.8177 44.6306C76.4318 44.4981 76.9888 44.5488 77.4888 44.7828C77.7436 44.902 77.9718 45.0778 78.1736 45.3102C78.3754 45.5426 78.5092 45.8036 78.575 46.0931C78.5956 46.1718 78.6023 46.2928 78.5949 46.4561C78.5922 46.6216 78.5837 46.7873 78.5694 46.9531C78.5598 47.1211 78.5486 47.274 78.5359 47.4118C78.5279 47.5518 78.5278 47.638 78.5356 47.6704C78.5776 47.8511 78.6372 48.0371 78.7144 48.2285C78.7938 48.4151 78.8953 48.5977 79.0188 48.7763C79.1422 48.9548 79.2863 49.12 79.4511 49.2718C79.6227 49.4211 79.817 49.5465 80.034 49.6481C80.3171 49.7805 80.6463 49.8512 81.0217 49.86C81.4017 49.8711 81.7767 49.8194 82.1465 49.7049C82.2598 49.6717 82.3582 49.6458 82.4416 49.6274C82.5272 49.6042 82.6006 49.6069 82.662 49.6356C82.6856 49.6466 82.7047 49.6671 82.7195 49.697C82.7343 49.7269 82.7444 49.7604 82.7501 49.7976C82.7626 49.8322 82.7694 49.867 82.7703 49.9019C82.7712 49.9368 82.7683 49.9614 82.7617 49.9755ZM77.0285 47.7761C77.1168 47.5874 77.1678 47.4416 77.1814 47.3387C77.1972 47.2311 77.1948 47.138 77.1741 47.0593C77.1534 46.9806 77.1257 46.8986 77.0908 46.8133C77.056 46.728 77.0342 46.6086 77.0256 46.455C77.0166 46.2898 76.9982 46.1633 76.9703 46.0755C76.9471 45.9899 76.8694 45.9162 76.7373 45.8544C76.4071 45.6999 76.0138 45.7171 75.5574 45.9061C75.3291 46.0005 75.097 46.1219 74.8608 46.2702C74.6269 46.4138 74.3914 46.5853 74.1543 46.7849C73.9672 46.9389 73.7737 47.1128 73.5737 47.3068C73.3759 47.496 73.1853 47.6943 73.002 47.9018C72.8187 48.1093 72.6482 48.32 72.4907 48.5338C72.3401 48.745 72.2173 48.9521 72.1224 49.155C72.0827 49.2399 72.0629 49.3313 72.0631 49.4291C72.0634 49.527 72.0869 49.6242 72.1336 49.7209C72.1804 49.8175 72.2469 49.909 72.333 49.9953C72.4239 50.0838 72.54 50.1612 72.6816 50.2274C72.7854 50.2759 72.9294 50.306 73.1138 50.3175C73.3029 50.3312 73.501 50.3319 73.708 50.3195C73.9151 50.3071 74.1125 50.2845 74.3004 50.2516C74.4952 50.2163 74.6515 50.1773 74.7692 50.1346C75.1082 50 75.3877 49.8634 75.6078 49.7248C75.8279 49.5863 76.016 49.4299 76.1723 49.2558C76.3307 49.0769 76.4733 48.8705 76.6 48.6365C76.729 48.3978 76.8718 48.111 77.0285 47.7761ZM84.6658 46.571C84.6263 46.4835 84.5894 46.4087 84.5551 46.3467C84.5256 46.2869 84.4997 46.2317 84.4774 46.181C84.4551 46.1303 84.4341 46.0831 84.4143 46.0393C84.3968 45.9908 84.3803 45.94 84.3649 45.8868C84.3524 45.8522 84.3477 45.8069 84.3509 45.7509C84.3541 45.6949 84.3586 45.6423 84.3643 45.5933C84.3722 45.5395 84.3803 45.4915 84.3885 45.4493C84.4014 45.4094 84.4101 45.3847 84.4145 45.3753C84.4851 45.2243 84.5893 45.1062 84.7268 45.0211C84.8644 44.936 85.0116 44.9042 85.1682 44.9257C85.2057 44.9318 85.256 44.9409 85.3192 44.9533C85.3872 44.9678 85.4564 44.9858 85.5268 45.0073C85.5995 45.024 85.6734 45.0442 85.7486 45.0679C85.8238 45.0916 85.8908 45.1143 85.9496 45.1361C86.4579 45.3279 86.9479 45.4911 87.4198 45.6256C87.8938 45.7554 88.3726 45.8443 88.8562 45.8923C88.938 45.9018 89.0185 45.9078 89.0978 45.9104C89.184 45.9105 89.2625 45.9271 89.3333 45.9602C89.3805 45.9823 89.43 46.0055 89.4819 46.0298C89.5338 46.054 89.5776 46.0832 89.6135 46.1172C89.6493 46.1512 89.6737 46.1914 89.6865 46.2376C89.7016 46.2792 89.6948 46.3306 89.6661 46.3919C89.6352 46.458 89.5808 46.5188 89.503 46.5744C89.43 46.6323 89.3439 46.6811 89.2447 46.721C89.1456 46.7608 89.0392 46.7915 88.9256 46.8131C88.8142 46.83 88.7036 46.8329 88.5938 46.8218C88.5378 46.8186 88.4278 46.8016 88.2639 46.7709C88.1022 46.7355 87.9182 46.6926 87.7118 46.642C87.5124 46.589 87.3035 46.5315 87.0852 46.4696C86.8717 46.4099 86.6848 46.3484 86.5247 46.285C86.3483 46.2197 86.2072 46.1709 86.1015 46.1387C85.998 46.1018 85.9147 46.0772 85.8514 46.0648C85.7929 46.0547 85.7464 46.0559 85.7117 46.0685C85.6818 46.0832 85.6544 46.1049 85.6296 46.1335C85.8208 46.499 85.9841 46.8629 86.1193 47.2252C86.2546 47.5875 86.3617 47.9424 86.4406 48.2898C86.5195 48.6373 86.5678 48.9704 86.5854 49.2891C86.6078 49.6101 86.6016 49.912 86.5671 50.1948C86.5439 50.3795 86.5157 50.5503 86.4825 50.7073C86.4516 50.8595 86.4111 51.0074 86.3613 51.1508C86.3183 51.2917 86.2661 51.4341 86.2046 51.5778C86.1501 51.719 86.0852 51.8698 86.0102 52.0302C85.8954 52.2755 85.7479 52.517 85.5677 52.7547C85.3875 52.9924 85.1848 53.2167 84.9596 53.4276C84.7391 53.6407 84.5019 53.8345 84.2478 54.0088C83.9984 54.1854 83.7471 54.3353 83.494 54.4584C83.1903 54.6037 82.8801 54.726 82.5634 54.8251C82.2468 54.9242 81.9352 54.9941 81.6287 55.0346C81.3291 55.0727 81.0392 55.078 80.7589 55.0503C80.4785 55.0226 80.2228 54.9547 79.9916 54.8466C79.836 54.7737 79.6965 54.6539 79.5734 54.487C79.4502 54.3201 79.3473 54.1282 79.2648 53.9114C79.1892 53.692 79.1377 53.458 79.1102 53.2094C79.0897 52.9583 79.1032 52.7144 79.1506 52.4779C79.2063 52.1991 79.271 51.9563 79.3448 51.7493C79.4209 51.5377 79.5097 51.3233 79.6112 51.1063C79.7525 50.8044 79.9533 50.5102 80.2138 50.2239C80.4813 49.935 80.7856 49.6777 81.1269 49.4521C81.473 49.2288 81.848 49.0478 82.2522 48.9091C82.6633 48.7679 83.0854 48.6952 83.5187 48.6909C83.8308 48.6874 84.1472 48.7118 84.4678 48.7641C84.7883 48.8163 85.1027 48.9001 85.411 49.0156C85.3759 48.5622 85.2854 48.1288 85.1395 47.7155C84.9936 47.3023 84.8357 46.9208 84.6658 46.571ZM84.8774 51.6123C85.0915 51.1547 85.23 50.7911 85.2929 50.5216C85.3627 50.2495 85.3457 50.0891 85.2419 50.0406C85.19 50.0163 85.1205 49.9866 85.0334 49.9516C84.9485 49.9119 84.8508 49.8748 84.7404 49.8404C84.63 49.806 84.5116 49.7765 84.3851 49.7518C84.2609 49.7224 84.1311 49.7048 83.9958 49.699C83.6925 49.6836 83.3731 49.7211 83.0376 49.8113C82.709 49.8991 82.3909 50.0321 82.0833 50.2101C81.7757 50.3882 81.4914 50.6088 81.2303 50.8719C80.9761 51.1325 80.7718 51.4279 80.6173 51.7582C80.5025 52.0035 80.419 52.2433 80.3669 52.4777C80.3169 52.7073 80.2956 52.9187 80.303 53.1119C80.3151 53.3073 80.3567 53.4763 80.428 53.619C80.5062 53.759 80.6137 53.8611 80.7505 53.9251C80.8685 53.9803 81.0241 54.0042 81.2173 53.9968C81.4152 53.9917 81.6196 53.9666 81.8304 53.9215C82.046 53.8786 82.2542 53.8207 82.455 53.7479C82.6627 53.6726 82.8332 53.5971 82.9664 53.5214C83.1342 53.4332 83.3117 53.3179 83.4991 53.1755C83.6865 53.0332 83.8653 52.8783 84.0357 52.7107C84.213 52.5407 84.375 52.3605 84.5215 52.1703C84.6727 51.9823 84.7913 51.7963 84.8774 51.6123ZM91.3148 55.737C91.1361 55.7626 90.9031 55.7629 90.6158 55.7377C90.3333 55.7148 90.0281 55.6726 89.7003 55.6112C89.3725 55.5499 89.0385 55.4712 88.6981 55.3752C88.3578 55.2792 88.0416 55.1744 87.7498 55.0609C87.7066 55.1039 87.6482 55.1858 87.5744 55.3066C87.5029 55.4226 87.4227 55.5633 87.3338 55.7288C87.2471 55.8895 87.1549 56.0619 87.0571 56.2462C86.9641 56.4327 86.8744 56.6121 86.7881 56.7845C86.7039 56.9521 86.6274 57.1032 86.5587 57.2378C86.4947 57.3746 86.4483 57.4737 86.4196 57.535C86.3865 57.6058 86.3322 57.6666 86.2566 57.7175C86.1836 57.7753 86.1031 57.8182 86.0153 57.8461C85.9275 57.874 85.837 57.8892 85.7439 57.8916C85.6508 57.894 85.5664 57.8776 85.491 57.8423C85.3919 57.7959 85.3158 57.7373 85.2627 57.6665C85.2074 57.6004 85.1648 57.5316 85.135 57.4601C85.1099 57.3909 85.0966 57.3271 85.0951 57.2689C85.0936 57.2107 85.0983 57.1698 85.1094 57.1462C85.1463 57.0427 85.2093 56.9141 85.2985 56.7603C85.3947 56.6041 85.5021 56.4358 85.6209 56.2556C85.7397 56.0755 85.8653 55.887 85.9977 55.6901C86.1369 55.4908 86.2693 55.294 86.3947 55.0996C86.5293 54.8981 86.6678 54.6696 86.8103 54.4143C86.9597 54.1564 87.1076 53.8893 87.2542 53.6128C87.4008 53.3364 87.5416 53.0601 87.6765 52.784C87.8184 52.5054 87.9478 52.241 88.0648 51.991C88.1865 51.7432 88.2937 51.5202 88.3864 51.3221C88.4813 51.1192 88.5575 50.9565 88.6149 50.8338C88.7186 50.6121 88.8541 50.4455 89.0213 50.3339C89.1885 50.2224 89.3829 50.2185 89.6046 50.3222C89.666 50.3509 89.7232 50.4007 89.7763 50.4716C89.8341 50.5446 89.8804 50.6238 89.9153 50.7091C89.9523 50.7897 89.9766 50.8729 89.9882 50.9588C90.0019 51.04 89.9956 51.1089 89.9691 51.1656C89.8587 51.4014 89.7287 51.6425 89.579 51.8887C89.434 52.1371 89.2876 52.3763 89.1398 52.6061C88.9942 52.8313 88.8587 53.041 88.7333 53.2353C88.6148 53.4271 88.5257 53.5867 88.4662 53.7141C88.4044 53.8462 88.4322 53.9771 88.5498 54.1069C88.6673 54.2366 88.837 54.3534 89.0587 54.4571C89.2332 54.5388 89.4333 54.6151 89.6588 54.6861C89.8865 54.7524 90.1116 54.806 90.334 54.8468C90.5564 54.8876 90.7679 54.9089 90.9683 54.9107C91.1734 54.9147 91.3453 54.8916 91.4837 54.8414C91.6015 54.7987 91.722 54.7315 91.8455 54.6397C91.9736 54.5502 92.0817 54.4483 92.1696 54.3342C92.2801 54.1962 92.3947 54.0313 92.5132 53.8395C92.6317 53.6476 92.7584 53.4568 92.8932 53.2669C93.093 52.9751 93.3149 52.7712 93.5588 52.6554C93.8075 52.5417 94.038 52.5346 94.2503 52.6339C94.4343 52.72 94.5482 52.8452 94.5921 53.0094C94.636 53.1737 94.6204 53.3361 94.5454 53.4965C94.5211 53.5484 94.4524 53.6399 94.3393 53.771C94.2331 53.8995 94.1052 54.0438 93.9556 54.2038C93.8107 54.3661 93.66 54.5284 93.5035 54.6909C93.3516 54.8557 93.2201 54.9954 93.1089 55.1101C93.0296 55.1937 92.9258 55.3234 92.7975 55.4992C92.6715 55.6702 92.539 55.8612 92.4 56.0722C92.268 56.2807 92.1383 56.4903 92.011 56.701C91.8884 56.9139 91.7906 57.0982 91.7178 57.2538C91.4927 57.735 91.3892 58.1035 91.4075 58.3594C91.4306 58.6174 91.56 58.8016 91.7959 58.9119C91.9657 58.9914 92.1652 59.0445 92.3942 59.0711C92.6279 59.1 92.9039 59.094 93.222 59.0531C93.5471 59.0097 93.9213 58.9289 94.3446 58.8107C94.768 58.6925 95.2601 58.5317 95.821 58.3284C96.091 58.2305 96.3575 58.128 96.6203 58.021C96.8832 57.9139 97.1298 57.8108 97.3602 57.7116C97.5954 57.6146 97.8074 57.5241 97.9962 57.4399C98.1873 57.3511 98.345 57.2782 98.4694 57.2214C98.55 57.1844 98.6364 57.1472 98.7286 57.1098C98.8255 57.0747 98.9023 57.0704 98.9589 57.0968C99.0391 57.1344 99.1009 57.1805 99.1443 57.2353C99.1946 57.2876 99.1976 57.3609 99.1535 57.4553C99.1071 57.5543 98.9934 57.6621 98.8124 57.7787C98.6314 57.8952 98.4168 58.022 98.1687 58.1589C98.0906 58.2029 97.9699 58.2643 97.8065 58.3431C97.6432 58.4219 97.4521 58.5108 97.2333 58.6097C97.0192 58.7108 96.7855 58.817 96.5321 58.9285C96.2809 59.0352 96.0285 59.1385 95.7748 59.2383C95.5258 59.3403 95.2824 59.4363 95.0448 59.5264C94.8141 59.614 94.6051 59.6858 94.4178 59.7419C93.7427 59.9436 93.112 60.0625 92.5258 60.0987C91.9443 60.1372 91.4129 60.0438 90.9318 59.8187C90.5072 59.62 90.2518 59.2993 90.1658 58.8565C90.0797 58.4137 90.1812 57.8833 90.4704 57.2653C90.5322 57.1332 90.5996 56.9952 90.6728 56.8511C90.7506 56.7093 90.8263 56.5722 90.8997 56.4398C90.9754 56.3027 91.0477 56.1727 91.1168 56.0497C91.1905 55.929 91.2565 55.8247 91.3148 55.737ZM101.335 58.2516C101.5 57.8977 101.565 57.6176 101.53 57.4112C101.499 57.2069 101.415 57.0728 101.278 57.0088C101.16 56.9536 101.029 56.9209 100.884 56.9107C100.746 56.898 100.606 56.9016 100.465 56.9216C100.323 56.9416 100.188 56.9731 100.058 57.0161C99.929 57.0591 99.8172 57.1074 99.7231 57.1611C99.5392 57.2591 99.3384 57.375 99.1205 57.5088C98.9073 57.6449 98.6874 57.7892 98.4607 57.9419C98.2387 58.0968 98.0193 58.2586 97.8023 58.4274C97.5853 58.5961 97.3824 58.7657 97.1934 58.936C97.0114 59.1039 96.8492 59.2723 96.7068 59.4415C96.5666 59.6059 96.4612 59.7636 96.3906 59.9146C96.2868 60.1363 96.2454 60.3354 96.2663 60.5119C96.2894 60.6838 96.4189 60.8249 96.6548 60.9352C96.735 60.9727 96.8761 60.9784 97.0781 60.9522C97.2824 60.9212 97.5082 60.8687 97.7556 60.7947C98.0077 60.7229 98.2606 60.6371 98.5143 60.5373C98.7702 60.4328 98.991 60.3234 99.1768 60.209C99.3764 60.0897 99.5837 59.9538 99.7988 59.8014C100.019 59.6512 100.229 59.4908 100.429 59.3201C100.63 59.1495 100.809 58.9747 100.968 58.7958C101.129 58.6123 101.251 58.4308 101.335 58.2516ZM104.462 62.9409C104.412 63.0494 104.313 63.1615 104.167 63.2771C104.026 63.395 103.828 63.5236 103.573 63.6631C103.357 63.7805 103.13 63.8843 102.892 63.9743C102.654 64.0644 102.414 64.1301 102.17 64.1714C101.927 64.2127 101.686 64.2236 101.448 64.2042C101.21 64.1847 100.982 64.1243 100.765 64.0227C100.482 63.8903 100.261 63.712 100.101 63.4878C99.946 63.2658 99.8404 63.0122 99.784 62.7271C99.7346 62.4395 99.7313 62.1332 99.7741 61.8082C99.8191 61.4785 99.9013 61.1431 100.021 60.8022C99.6717 61.007 99.2839 61.1907 98.8571 61.3532C98.435 61.518 98.0143 61.6489 97.5951 61.7461C97.1828 61.8407 96.7927 61.8939 96.4249 61.9058C96.064 61.9152 95.7703 61.8669 95.5439 61.761C95.3929 61.6904 95.2643 61.5842 95.1581 61.4425C95.0566 61.303 94.9814 61.1442 94.9325 60.9661C94.8883 60.7901 94.8742 60.6053 94.8901 60.4115C94.9061 60.2176 94.9571 60.0288 95.0432 59.8448C95.1292 59.6608 95.2339 59.474 95.3571 59.2844C95.485 59.097 95.6385 58.9043 95.8174 58.7062C96.0032 58.5057 96.2168 58.2951 96.458 58.0744C96.704 57.856 96.988 57.6237 97.3101 57.3777C97.671 57.098 98.0573 56.8561 98.4691 56.652C98.8831 56.4432 99.2819 56.279 99.6656 56.1595C100.051 56.0353 100.398 55.9587 100.705 55.9298C101.018 55.8983 101.251 55.9179 101.402 55.9885C101.444 56.0084 101.487 56.0399 101.53 56.0831C101.578 56.1284 101.624 56.1761 101.67 56.2262C101.722 56.2738 101.77 56.3191 101.813 56.3623C101.863 56.4029 101.907 56.4321 101.945 56.4497C101.983 56.4674 102.024 56.478 102.068 56.4815C102.115 56.4802 102.161 56.479 102.208 56.4778C102.257 56.4719 102.304 56.4683 102.351 56.4671C102.397 56.4659 102.439 56.4741 102.477 56.4918C102.534 56.5183 102.586 56.5658 102.635 56.6345C102.683 56.7031 102.724 56.7824 102.756 56.8725C102.791 56.9578 102.814 57.0492 102.826 57.1468C102.838 57.2443 102.837 57.3329 102.823 57.4125C102.802 57.5062 102.796 57.5809 102.804 57.6366C102.819 57.6898 102.834 57.7396 102.846 57.7858C102.864 57.8343 102.871 57.8865 102.868 57.9425C102.872 57.996 102.851 58.07 102.807 58.1643C102.785 58.2115 102.722 58.3028 102.619 58.4383C102.515 58.5738 102.395 58.7331 102.257 58.9161C102.127 59.0966 101.994 59.2876 101.86 59.4891C101.725 59.6907 101.616 59.8811 101.532 60.0603C101.296 60.5651 101.128 60.9924 101.027 61.3422C100.931 61.6942 100.887 61.9866 100.893 62.2194C100.899 62.4523 100.95 62.6374 101.047 62.7746C101.144 62.9119 101.268 63.0159 101.419 63.0865C101.546 63.1461 101.687 63.1832 101.841 63.1978C101.997 63.2078 102.159 63.2001 102.326 63.1747C102.498 63.1516 102.672 63.1122 102.847 63.0563C103.028 63.0027 103.203 62.941 103.374 62.8714C103.609 62.7744 103.807 62.7005 103.969 62.6497C104.133 62.5941 104.25 62.5829 104.321 62.616C104.387 62.6469 104.434 62.6946 104.461 62.7592C104.489 62.8237 104.489 62.8843 104.462 62.9409ZM109.461 64.8137C109.031 64.9577 108.564 65.0957 108.06 65.2277C107.562 65.3571 107.054 65.4531 106.536 65.5155C106.02 65.5732 105.51 65.5818 105.006 65.5413C104.509 65.4983 104.045 65.3764 103.616 65.1756C103.333 65.0431 103.11 64.887 102.947 64.7072C102.784 64.5273 102.67 64.3334 102.607 64.1254C102.548 63.9195 102.533 63.7055 102.562 63.4834C102.593 63.2566 102.66 63.0347 102.761 62.8177C102.876 62.5724 103.026 62.3984 103.212 62.2957C103.394 62.1908 103.607 62.1957 103.852 62.3105C104.079 62.4164 104.123 62.6669 103.984 63.062C103.925 63.2243 103.896 63.3718 103.898 63.5046C103.899 63.6374 103.92 63.7568 103.963 63.8629C104.005 63.969 104.066 64.0606 104.145 64.1378C104.228 64.2171 104.322 64.2811 104.426 64.3297C104.86 64.5327 105.382 64.6449 105.993 64.6663C106.609 64.6899 107.331 64.5849 108.159 64.3513C107.857 64.2101 107.618 64.0462 107.44 63.8598C107.263 63.6733 107.137 63.4762 107.061 63.2685C106.986 63.0607 106.957 62.8518 106.975 62.6416C106.993 62.4314 107.046 62.232 107.134 62.0433C107.298 61.6942 107.523 61.4029 107.811 61.1694C108.098 60.9359 108.47 60.7503 108.925 60.6127C109.159 60.5437 109.402 60.4907 109.655 60.4539C109.915 60.4145 110.174 60.4007 110.433 60.4126C110.699 60.422 110.962 60.456 111.222 60.5144C111.485 60.5682 111.741 60.6536 111.991 60.7705C112.179 60.8588 112.337 60.9701 112.464 61.1042C112.598 61.2359 112.693 61.3895 112.749 61.5652C112.812 61.7383 112.831 61.9312 112.806 62.1439C112.786 62.3587 112.718 62.5888 112.604 62.8341C112.533 62.9851 112.447 63.1318 112.346 63.2742C112.247 63.4119 112.149 63.5415 112.052 63.6628C111.962 63.7817 111.878 63.8864 111.802 63.9769C111.727 64.0627 111.68 64.1269 111.66 64.1693C111.642 64.2071 111.634 64.2434 111.635 64.2783C111.636 64.3133 111.635 64.3506 111.634 64.3902C111.64 64.4273 111.64 64.4704 111.634 64.5195C111.628 64.5686 111.609 64.6285 111.576 64.6993C111.558 64.737 111.51 64.7977 111.43 64.8813C111.358 64.9624 111.271 65.0567 111.168 65.1642C111.069 65.267 110.967 65.3745 110.862 65.4868C110.758 65.599 110.669 65.698 110.594 65.7838C110.474 65.9291 110.348 66.0943 110.215 66.2795C110.083 66.4647 109.973 66.6493 109.887 66.8333C109.843 66.9276 109.804 67.03 109.769 67.1404C109.742 67.2483 109.731 67.3523 109.736 67.4523C109.741 67.5524 109.766 67.6449 109.813 67.7299C109.864 67.8171 109.946 67.8872 110.059 67.9402C110.234 68.0219 110.449 68.0652 110.706 68.0702C110.967 68.0774 111.254 68.0536 111.567 67.9988C111.887 67.9416 112.228 67.8593 112.588 67.7521C112.956 67.6423 113.33 67.5126 113.711 67.3629C113.851 67.3079 113.973 67.2757 114.075 67.266C114.18 67.2516 114.253 67.2544 114.296 67.2742C114.333 67.2919 114.365 67.3412 114.39 67.4221C114.418 67.4982 114.413 67.5764 114.375 67.6566C114.329 67.7557 114.249 67.8475 114.134 67.932C114.025 68.0187 113.901 68.0872 113.762 68.1374C113.395 68.2705 113.007 68.4052 112.598 68.5417C112.197 68.6756 111.787 68.783 111.37 68.8637C110.959 68.942 110.556 68.9746 110.159 68.9616C109.761 68.9534 109.392 68.8698 109.052 68.7109C108.849 68.616 108.69 68.4954 108.574 68.3493C108.456 68.2079 108.378 68.0504 108.338 67.8767C108.299 67.7029 108.296 67.5178 108.331 67.3211C108.367 67.1198 108.435 66.913 108.535 66.7007C108.594 66.5733 108.672 66.4315 108.768 66.2752C108.864 66.1189 108.971 65.9589 109.088 65.7951C109.205 65.6313 109.324 65.4685 109.446 65.3069C109.569 65.1406 109.689 64.9895 109.804 64.8537L109.461 64.8137ZM111.589 62.532C111.693 62.3103 111.725 62.1126 111.686 61.9388C111.651 61.7673 111.544 61.6396 111.365 61.5557C111.152 61.4564 110.934 61.3945 110.71 61.3701C110.488 61.3409 110.267 61.3385 110.049 61.3628C109.835 61.3893 109.628 61.439 109.427 61.5118C109.226 61.5846 109.042 61.6709 108.875 61.7708C108.712 61.8729 108.569 61.9873 108.447 62.114C108.327 62.236 108.237 62.3606 108.177 62.488C108.142 62.5635 108.115 62.6516 108.096 62.7522C108.078 62.8529 108.082 62.9553 108.108 63.0595C108.139 63.1659 108.199 63.2715 108.287 63.3764C108.379 63.4765 108.516 63.5696 108.7 63.6557C108.785 63.6954 108.897 63.7333 109.035 63.7693C109.18 63.8028 109.326 63.8305 109.471 63.8523C109.616 63.8742 109.749 63.8905 109.87 63.9014C109.994 63.9075 110.082 63.9028 110.136 63.8875C110.226 63.8665 110.343 63.8005 110.487 63.6896C110.636 63.5809 110.783 63.4571 110.928 63.3181C111.081 63.1767 111.217 63.0333 111.336 62.8881C111.461 62.7451 111.545 62.6264 111.589 62.532Z" fill="white"/>
<path d="M3.27239 0.0807083C3.04082 -0.0697267 2.73114 -0.00395501 2.58071 0.227613L0.129229 4.00124C-0.0212059 4.23281 0.0445657 4.54248 0.276134 4.69292C0.507703 4.84335 0.817378 4.77758 0.967813 4.54601L3.14691 1.19168L6.50124 3.37077C6.73281 3.52121 7.04248 3.45543 7.19292 3.22387C7.34335 2.9923 7.27758 2.68262 7.04601 2.53219L3.27239 0.0807083ZM55.9575 53.0018C42.5462 54.1467 13.0376 45.3535 3.48909 0.396122L2.51091 0.603878C12.1624 46.0465 42.1204 55.1867 56.0425 53.9982L55.9575 53.0018Z" fill="white"/>
</svg>
