<svg width="171" height="73" viewBox="0 0 171 73" fill="none" xmlns="http://www.w3.org/2000/svg">
<g filter="url(#filter0_f_611_571)">
<rect x="33.6719" y="38.0049" width="114.922" height="5.2386" transform="rotate(6.65742 33.6719 38.0049)" fill="black"/>
</g>
<g filter="url(#filter1_f_611_571)">
<rect x="31.2578" y="21.4912" width="75.0345" height="5.2386" transform="rotate(6.65742 31.2578 21.4912)" fill="black"/>
</g>
<path d="M46.8508 26.2678C46.828 26.4814 46.7253 26.7405 46.5427 27.0452C46.3601 27.3498 46.1103 27.6653 45.7933 27.9915C45.4823 28.3185 45.1119 28.639 44.6822 28.9533C44.2524 29.2675 43.7761 29.5408 43.2531 29.773C42.736 30.0059 42.1801 30.1806 41.5854 30.2972C40.9967 30.4143 40.3818 30.4387 39.7408 30.3702C39.6518 30.3607 39.5291 30.3296 39.3727 30.2769C39.2215 30.2307 39.0687 30.1724 38.9142 30.1018C38.7656 30.032 38.6357 29.9551 38.5246 29.8712C38.4189 29.7938 38.3701 29.7166 38.3783 29.6394C38.3999 29.4377 38.4598 29.27 38.5581 29.1364C38.6564 29.0029 38.7815 28.8992 38.9335 28.8254C39.0854 28.7516 39.2586 28.7041 39.4529 28.6828C39.6532 28.6622 39.8631 28.6636 40.0827 28.687C40.2133 28.701 40.3465 28.7182 40.4824 28.7387C40.6182 28.7593 40.7574 28.7771 40.8998 28.7923C41.0897 28.8126 41.3247 28.8047 41.6046 28.7686C41.8852 28.7265 42.1806 28.659 42.4906 28.5661C42.8007 28.4732 43.1106 28.3532 43.4204 28.2063C43.7362 28.0599 44.0215 27.8893 44.2764 27.6944C44.532 27.4937 44.7449 27.2703 44.9152 27.0244C45.0915 26.7791 45.1952 26.5111 45.2262 26.2203C45.2491 26.0066 45.224 25.7638 45.151 25.4919C45.078 25.22 44.9467 24.9599 44.7571 24.7116C44.5735 24.4638 44.3235 24.2481 44.007 24.0642C43.697 23.875 43.3136 23.756 42.8566 23.7072C42.7735 23.6983 42.6517 23.7153 42.491 23.7582C42.3304 23.801 42.1599 23.8519 41.9795 23.9106C41.7998 23.9635 41.6267 24.011 41.4601 24.0532C41.2935 24.0955 41.1657 24.1118 41.0767 24.1023C40.869 24.0801 40.6978 24.0528 40.5632 24.0204C40.4352 23.9828 40.3358 23.9301 40.265 23.8625C40.1941 23.7949 40.1463 23.7088 40.1215 23.6041C40.1032 23.4941 40.1033 23.3531 40.1217 23.1809C40.1325 23.0801 40.2201 22.9904 40.3845 22.9119C40.5555 22.8281 40.7559 22.7505 40.9856 22.679C41.2219 22.6022 41.4638 22.529 41.7114 22.4594C41.9655 22.3845 42.1837 22.3088 42.3659 22.2322C42.6119 22.1204 42.8691 21.9888 43.1374 21.8374C43.4057 21.686 43.6693 21.5221 43.9282 21.3457C44.1878 21.1633 44.4358 20.9767 44.6723 20.7859C44.9094 20.5891 45.1162 20.3951 45.2927 20.2039C45.4751 20.0133 45.6236 19.8311 45.7382 19.6572C45.8535 19.4775 45.9187 19.3164 45.9339 19.1739C45.9479 19.0434 45.9269 18.9031 45.8709 18.753C45.8155 18.5971 45.72 18.4518 45.5843 18.3173C45.4486 18.1827 45.2691 18.0645 45.0459 17.9626C44.8227 17.8607 44.5479 17.7924 44.2215 17.7575C43.996 17.7334 43.7365 17.7177 43.4432 17.7104C43.1499 17.7031 42.8463 17.7066 42.5327 17.7212C42.2256 17.7304 41.9205 17.7488 41.6174 17.7764C41.3203 17.8047 41.0492 17.8418 40.8042 17.8877C40.5658 17.9282 40.3653 17.9788 40.2027 18.0395C40.0461 18.1008 39.9548 18.1691 39.9287 18.2443C39.8839 18.3836 39.8152 18.6044 39.7229 18.9066C39.6372 19.2036 39.5368 19.553 39.4219 19.9549C39.3128 20.3574 39.1938 20.7979 39.0646 21.2763C38.9361 21.7488 38.8067 22.2301 38.6763 22.7204C38.5465 23.2048 38.4203 23.6835 38.2978 24.1566C38.1818 24.6244 38.0758 25.0543 37.9799 25.4462C37.89 25.8387 37.8117 26.1785 37.745 26.4655C37.6849 26.7472 37.6488 26.9444 37.6368 27.0572C37.6127 27.2827 37.5981 27.5033 37.5931 27.7188C37.5946 27.9291 37.5853 28.1291 37.565 28.3191C37.539 28.5624 37.4881 28.758 37.4122 28.906C37.3423 29.0546 37.2519 29.171 37.1409 29.2551C37.0298 29.3393 36.8982 29.3913 36.746 29.4111C36.5939 29.4308 36.4288 29.4312 36.2507 29.4122C36.1202 29.3982 36.0131 29.3328 35.9296 29.2158C35.846 29.0988 35.7795 28.9627 35.7301 28.8073C35.686 28.6585 35.657 28.5084 35.6432 28.3569C35.6293 28.2053 35.6272 28.085 35.6367 27.996C35.6475 27.8951 35.6877 27.7434 35.7574 27.5407C35.8336 27.3328 35.9398 27.041 36.076 26.6654C36.2081 26.2713 36.3433 25.8206 36.4815 25.3131C36.6263 24.8004 36.7665 24.2751 36.9019 23.7374C37.0434 23.2003 37.1749 22.6711 37.2966 22.1499C37.4243 21.6293 37.534 21.1638 37.6259 20.7534C37.7184 20.3372 37.7934 20 37.851 19.7421C37.9085 19.4841 37.9379 19.3492 37.9392 19.3373C37.957 19.1712 37.9561 19.039 37.9365 18.9409C37.9229 18.8434 37.892 18.768 37.8436 18.7149C37.8019 18.6564 37.746 18.6174 37.6761 18.5979C37.6067 18.5725 37.5305 18.5554 37.4475 18.5465C37.4 18.5414 37.3492 18.539 37.2952 18.5392C37.2477 18.5342 37.1972 18.5288 37.1438 18.5231C37.0548 18.5136 36.9721 18.4447 36.8958 18.3165C36.8254 18.1889 36.7987 18.045 36.8159 17.8848C36.8311 17.7423 36.9366 17.5976 37.1324 17.4504C37.3288 17.2973 37.5994 17.1521 37.9442 17.0149C38.2949 16.8783 38.713 16.7579 39.1983 16.6537C39.6902 16.5442 40.2333 16.4611 40.8276 16.4045C41.4284 16.3427 42.0739 16.3126 42.764 16.3143C43.4607 16.3107 44.1918 16.3498 44.9574 16.4315C45.3728 16.4759 45.7563 16.5949 46.1077 16.7885C46.4592 16.9821 46.7584 17.2152 47.0054 17.4877C47.259 17.7549 47.4474 18.0421 47.5707 18.3494C47.7005 18.6514 47.7511 18.9359 47.7226 19.2029C47.7023 19.3929 47.5995 19.625 47.4141 19.8993C47.2287 20.1736 46.9877 20.463 46.6911 20.7674C46.3945 21.0719 46.0521 21.3835 45.6639 21.7021C45.2822 22.0155 44.8818 22.3089 44.4624 22.5822C44.4561 22.6416 44.5167 22.7201 44.6443 22.8177C44.7785 22.9101 44.9385 23.0142 45.1242 23.1301C45.3105 23.24 45.5015 23.3625 45.6972 23.4974C45.8935 23.6264 46.0503 23.7602 46.1675 23.8988C46.2642 24.0052 46.359 24.1294 46.4518 24.2713C46.5507 24.4139 46.6347 24.582 46.7041 24.7755C46.7735 24.969 46.8219 25.1902 46.8493 25.4393C46.8833 25.683 46.8838 25.9592 46.8508 26.2678ZM56.4043 24.9203C56.3841 25.1103 56.3558 25.2903 56.3196 25.4605C56.2834 25.6307 56.239 25.794 56.1863 25.9505C56.1335 26.1069 56.0686 26.265 55.9915 26.4249C55.9151 26.5788 55.8261 26.7373 55.7246 26.9006C55.6219 27.0757 55.4471 27.2791 55.2002 27.5108C54.9534 27.7426 54.6611 27.9784 54.3233 28.2185C53.9915 28.4591 53.6273 28.6934 53.2308 28.9211C52.8403 29.1495 52.4467 29.3506 52.05 29.5243C51.6532 29.698 51.2669 29.8308 50.8909 29.9227C50.5209 30.0152 50.1905 30.0459 49.8997 30.0149C49.5021 29.9724 49.1618 29.87 48.8791 29.7077C48.5969 29.5395 48.3693 29.3382 48.1963 29.1036C48.0239 28.8631 47.9022 28.598 47.8311 28.3083C47.7659 28.0192 47.7485 27.7322 47.779 27.4474C47.7993 27.2574 47.8461 27.0434 47.9196 26.8051C47.9931 26.5669 48.0823 26.3213 48.1874 26.0684C48.2924 25.8155 48.413 25.5583 48.5489 25.2967C48.6849 25.0351 48.8256 24.786 48.9709 24.5494C49.1162 24.3129 49.2626 24.0944 49.4101 23.8941C49.5575 23.6937 49.6985 23.5257 49.8331 23.39C50.0687 23.1511 50.3452 22.9225 50.6626 22.7043C50.986 22.4868 51.3329 22.3017 51.7033 22.1492C52.0744 21.9908 52.4651 21.8735 52.8754 21.7972C53.2916 21.7216 53.7134 21.7067 54.1407 21.7523C54.4612 21.7866 54.7672 21.9003 55.0586 22.0935C55.3508 22.2808 55.6013 22.5206 55.8101 22.813C56.0249 23.1061 56.1878 23.4356 56.2988 23.8016C56.4097 24.1676 56.4449 24.5405 56.4043 24.9203ZM54.988 25.0302C55.0508 24.4426 54.9308 23.9646 54.628 23.5961C54.3312 23.2283 53.8682 23.0107 53.2391 22.9435C53.0255 22.9207 52.8028 22.954 52.5712 23.0433C52.3396 23.1326 52.114 23.2495 51.8945 23.3941C51.6749 23.5388 51.469 23.6968 51.2766 23.8684C51.0907 24.0346 50.9335 24.1859 50.8049 24.3222C50.6757 24.4644 50.5285 24.6618 50.3635 24.9143C50.1991 25.1608 50.0384 25.4288 49.8815 25.7181C49.7311 26.0022 49.5982 26.2911 49.4828 26.5849C49.3739 26.8734 49.3074 27.1304 49.2833 27.356C49.2688 27.4925 49.2806 27.6348 49.3188 27.7829C49.3576 27.9251 49.4185 28.0577 49.5014 28.1806C49.5909 28.2982 49.7 28.3999 49.8289 28.4857C49.9578 28.5715 50.1054 28.6232 50.2715 28.641C50.4496 28.66 50.6838 28.631 50.9741 28.554C51.2704 28.4776 51.5856 28.3642 51.9198 28.2138C52.2606 28.0582 52.6048 27.8698 52.9526 27.6489C53.3009 27.422 53.6189 27.1708 53.9064 26.8954C54.1999 26.6206 54.4445 26.3256 54.6402 26.0104C54.836 25.6952 54.9519 25.3684 54.988 25.0302ZM69.7292 22.8323C69.7098 21.8338 69.519 21.0632 69.1569 20.5203C68.8013 19.9721 68.3237 19.6659 67.7243 19.6019C67.5463 19.5829 67.3565 19.5896 67.1549 19.6221C66.9593 19.6552 66.7588 19.7059 66.5535 19.774C66.3481 19.8421 66.1445 19.9223 65.9425 20.0148C65.7412 20.1014 65.5455 20.1915 65.3554 20.2852C65.1844 20.369 65.0561 20.4183 64.9704 20.4332C64.8848 20.4481 64.8005 20.4511 64.7174 20.4422C64.6343 20.4333 64.5606 20.3924 64.4964 20.3195C64.4321 20.2466 64.4076 20.139 64.4228 19.9965C64.4305 19.9253 64.4568 19.8471 64.5019 19.7619C64.5536 19.6714 64.6142 19.5818 64.6837 19.4932C64.7591 19.4052 64.8402 19.3208 64.9268 19.24C65.0194 19.1599 65.1075 19.0943 65.191 19.0432C65.6781 18.7531 66.1811 18.5397 66.6999 18.403C67.2253 18.2611 67.7105 18.2139 68.1557 18.2614C68.7254 18.3223 69.2268 18.5169 69.6599 18.8453C70.0937 19.1677 70.4435 19.6013 70.7095 20.1459C70.982 20.6852 71.1656 21.3261 71.2604 22.0685C71.3617 22.8056 71.3649 23.6193 71.2698 24.5095C71.2393 24.7944 71.1918 25.0984 71.1273 25.4217C71.0687 25.7455 71.0018 26.0625 70.9267 26.3726C70.8522 26.6768 70.7736 26.9625 70.691 27.2298C70.6091 27.4912 70.5316 27.711 70.4585 27.8893C70.223 28.4644 69.9257 28.9998 69.5666 29.4957C69.2135 29.9922 68.8168 30.418 68.3767 30.7732C67.9432 31.123 67.4737 31.388 66.9683 31.5681C66.4628 31.7482 65.943 31.8097 65.4089 31.7527C65.0172 31.7108 64.6753 31.5963 64.3832 31.409C64.0917 31.2158 63.8544 30.9653 63.6711 30.6576C63.4945 30.3447 63.3713 29.9804 63.3017 29.5647C63.2327 29.1432 63.2248 28.6832 63.278 28.1847C63.3212 27.7811 63.4239 27.3809 63.5864 26.9841C63.7554 26.582 63.9765 26.1974 64.2498 25.8305C64.5238 25.4576 64.8462 25.1078 65.2172 24.7813C65.5942 24.4554 66.0155 24.1643 66.481 23.9079C66.9472 23.6456 67.4512 23.4233 67.9929 23.2411C68.5352 23.0529 69.114 22.9167 69.7292 22.8323ZM65.8326 30.4834C66.07 30.5087 66.3331 30.4618 66.622 30.3426C66.9115 30.2175 67.2023 30.0234 67.4945 29.7605C67.7873 29.4917 68.0726 29.153 68.3503 28.7445C68.6281 28.336 68.8739 27.8611 69.0878 27.3197C69.1452 27.1757 69.2122 26.9698 69.2888 26.7019C69.3714 26.4346 69.4476 26.1426 69.5175 25.8259C69.5873 25.5093 69.6453 25.1913 69.6914 24.8721C69.7375 24.5529 69.7528 24.2694 69.7372 24.0217C69.2419 24.1068 68.7182 24.261 68.1662 24.4841C67.6201 24.7079 67.1082 25.0043 66.6306 25.3735C66.153 25.7426 65.7455 26.1853 65.4083 26.7015C65.0717 27.2118 64.8678 27.7993 64.7968 28.464C64.7265 29.1227 64.779 29.6145 64.9544 29.9394C65.1363 30.2589 65.4291 30.4403 65.8326 30.4834ZM78.438 28.6336C78.3518 29.4408 78.1567 30.1432 77.8528 30.741C77.5494 31.3329 77.191 31.8228 76.7774 32.2108C76.3644 32.5928 75.924 32.8669 75.456 33.033C74.9934 33.2057 74.5544 33.2698 74.139 33.2255C74.0499 33.216 73.9236 33.1905 73.76 33.149C73.5957 33.1134 73.4201 33.0436 73.2331 32.9396C73.0455 32.8415 72.8567 32.6983 72.6668 32.51C72.4827 32.3222 72.3232 32.0741 72.188 31.7655C72.0536 31.4511 71.9561 31.0715 71.8955 30.6268C71.8356 30.1763 71.8393 29.6364 71.9065 29.0073C72.0073 28.0637 72.1856 27.1524 72.4416 26.2734C72.7035 25.395 73.0115 24.5905 73.3657 23.8601C73.7198 23.1296 74.1037 22.4863 74.5172 21.9302C74.9308 21.3742 75.3426 20.9469 75.7526 20.6486C76.1113 20.3808 76.4726 20.1733 76.8365 20.0261C77.2004 19.8789 77.5811 19.8265 77.9787 19.869C78.2102 19.8937 78.4293 19.9501 78.6359 20.0382C78.8486 20.127 79.0277 20.2482 79.1733 20.4018C79.3249 20.556 79.4365 20.748 79.508 20.9777C79.586 21.2022 79.6089 21.4657 79.5766 21.7684C79.5252 22.2491 79.2511 22.8201 78.7543 23.4813C78.2641 24.1372 77.52 24.838 76.5219 25.5838C76.5753 25.5895 76.6439 25.5938 76.7276 25.5968C76.8173 25.6003 76.9093 25.6102 77.0036 25.6262C77.1038 25.6429 77.2028 25.6715 77.3005 25.712C77.3989 25.7465 77.4894 25.7982 77.5721 25.867C77.7097 25.9838 77.8176 26.0973 77.8959 26.2077C77.9741 26.3181 78.0352 26.4207 78.0791 26.5154C78.1236 26.6042 78.1575 26.6799 78.1809 26.7424C78.2042 26.8049 78.2294 26.8496 78.2566 26.8765C78.5729 27.1744 78.9235 27.404 79.3085 27.5651C79.6934 27.7263 80.0669 27.8262 80.4289 27.8649C80.7138 27.8953 80.9808 27.8969 81.2298 27.8694C81.4794 27.8361 81.7129 27.786 81.9301 27.7192C82.1539 27.647 82.3612 27.5611 82.5519 27.4614C82.7432 27.3558 82.926 27.2463 83.1002 27.1329C83.229 27.0506 83.3477 26.9792 83.4562 26.9188C83.5653 26.8524 83.6525 26.8227 83.7178 26.8297C83.7712 26.8354 83.8188 26.8675 83.8606 26.926C83.903 26.9785 83.9207 27.0374 83.9138 27.1027C83.9017 27.2155 83.869 27.353 83.8156 27.5154C83.7623 27.6778 83.6499 27.8308 83.4785 27.9746C83.2999 28.1296 83.0827 28.2805 82.8269 28.4272C82.577 28.5746 82.2991 28.704 81.9931 28.8153C81.6877 28.9208 81.3641 29.0002 81.0222 29.0538C80.6869 29.102 80.3413 29.1071 79.9852 29.069C79.73 29.0418 79.4681 28.9928 79.1995 28.9221C78.931 28.8514 78.6772 28.7552 78.438 28.6336ZM78.2264 21.8493C78.2498 21.6297 78.228 21.4413 78.1607 21.284C78.0935 21.1268 77.9352 21.0348 77.686 21.0082C77.4248 20.9803 77.1365 21.0666 76.821 21.2669C76.5055 21.4673 76.1809 21.7808 75.8472 22.2073C75.5201 22.6286 75.1928 23.1639 74.8653 23.8132C74.5385 24.4565 74.2299 25.2099 73.9396 26.0732C74.2426 25.8775 74.5173 25.6938 74.7638 25.522C75.0162 25.3509 75.2596 25.1788 75.4942 25.0058C75.7294 24.8268 75.9623 24.6416 76.1928 24.4502C76.4299 24.2534 76.6851 24.0286 76.9582 23.7756C77.1177 23.6306 77.27 23.4698 77.4149 23.2932C77.5657 23.1172 77.6985 22.9423 77.8131 22.7685C77.9283 22.5887 78.0215 22.4186 78.0927 22.2581C78.1698 22.0983 78.2143 21.962 78.2264 21.8493ZM77.1216 28.7361C77.1406 28.5581 77.1396 28.3989 77.1185 28.2586C77.1041 28.113 77.0626 27.9675 76.9941 27.8221C76.9701 27.7655 76.9363 27.7169 76.8926 27.6762C76.849 27.6355 76.7967 27.5909 76.7359 27.5424C76.6756 27.488 76.6075 27.4237 76.5314 27.3495C76.4553 27.2754 76.3695 27.1792 76.2741 27.0609C76.2158 26.9887 76.1683 26.8996 76.1316 26.7936C76.0955 26.6817 76.0647 26.5764 76.0393 26.4776C76.0204 26.3736 75.9996 26.2873 75.9769 26.2188C75.9548 26.1445 75.9289 26.1057 75.8993 26.1025C75.8755 26.1 75.7897 26.1448 75.6418 26.2371C75.4939 26.3293 75.3102 26.4477 75.0906 26.5924C74.8711 26.737 74.6259 26.8969 74.3551 27.072C74.0902 27.2478 73.826 27.4177 73.5624 27.5816C73.5467 27.6159 73.5246 27.6826 73.496 27.7816C73.4733 27.8812 73.4455 28.0013 73.4125 28.1418C73.386 28.277 73.3577 28.4301 73.3274 28.6009C73.2978 28.7658 73.2735 28.9373 73.2545 29.1153C73.1942 29.6791 73.1896 30.1438 73.2406 30.5094C73.2916 30.875 73.3746 31.166 73.4895 31.3824C73.6051 31.5928 73.7421 31.7425 73.9007 31.8315C74.0593 31.9204 74.2157 31.9731 74.37 31.9896C74.7261 32.0277 75.0619 31.9465 75.3774 31.7461C75.6989 31.5463 75.9822 31.2825 76.2273 30.9545C76.4784 30.6272 76.6818 30.2678 76.8377 29.8763C77.0001 29.4794 77.1001 29.106 77.1375 28.7558L77.1216 28.7361ZM93.5581 28.5291C93.5397 28.7012 93.4709 28.868 93.3516 29.0293C93.2383 29.1913 93.0965 29.3382 92.9264 29.4701C92.7694 29.5913 92.583 29.7065 92.3673 29.8155C92.1515 29.9245 91.9166 30.0165 91.6625 30.0914C91.415 30.161 91.1545 30.2112 90.8811 30.242C90.6137 30.2734 90.3434 30.2746 90.0704 30.2454C89.7559 30.2118 89.4831 30.1527 89.252 30.068C89.0216 29.9773 88.8271 29.8875 88.6686 29.7985C88.51 29.7096 88.3834 29.63 88.2889 29.5599C88.2009 29.4845 88.1391 29.4449 88.1035 29.4411C88.0264 29.4328 87.9737 29.4482 87.9455 29.4872C87.9173 29.5262 87.8987 29.5602 87.8896 29.5893C87.8566 29.7298 87.8217 29.8881 87.7848 30.0643C87.7546 30.2351 87.702 30.4186 87.627 30.6147C87.5586 30.8054 87.4616 31.0112 87.336 31.2318C87.211 31.4466 87.0373 31.6681 86.8148 31.8965C86.6586 32.0658 86.4669 32.2314 86.2395 32.3932C86.0181 32.5557 85.7762 32.7129 85.5138 32.8649C85.2521 33.011 84.9765 33.1467 84.6871 33.2718C84.3976 33.397 84.1073 33.501 83.8164 33.584C83.5313 33.6676 83.2518 33.7277 82.9777 33.7645C82.7096 33.8019 82.4599 33.8082 82.2284 33.7835C81.8308 33.741 81.5087 33.6376 81.2621 33.4732C81.0156 33.3088 80.8275 33.1026 80.698 32.8547C80.5743 32.6074 80.4963 32.3259 80.464 32.0104C80.4376 31.6954 80.4432 31.3629 80.4806 31.0127C80.5186 30.6566 80.5952 30.3047 80.7104 29.9568C80.8322 29.6037 80.977 29.259 81.145 28.9228C81.3189 28.5872 81.5067 28.2622 81.7084 27.9476C81.9166 27.6277 82.1236 27.3196 82.3293 27.0235C82.8612 26.258 83.432 25.6917 84.0414 25.3246C84.6574 24.9522 85.28 24.7997 85.909 24.8669C86.2295 24.9011 86.5424 25.0065 86.8476 25.1832C87.1529 25.3599 87.3951 25.5928 87.5743 25.8821C87.6261 25.9596 87.6783 26.0883 87.7312 26.268C87.7899 26.4483 87.8425 26.631 87.8887 26.816C87.9409 27.0017 87.9858 27.1716 88.0234 27.3256C88.0669 27.4803 88.0989 27.5738 88.1195 27.606C88.2323 27.7861 88.3662 27.9655 88.5212 28.1441C88.6768 28.3168 88.8548 28.4769 89.0551 28.6243C89.2554 28.7718 89.4732 28.8971 89.7082 29.0002C89.9499 29.0981 90.2072 29.1616 90.4802 29.1907C90.8363 29.2288 91.2194 29.1827 91.6295 29.0524C92.0455 28.9228 92.4325 28.727 92.7906 28.4652C92.901 28.3869 92.998 28.3222 93.0815 28.2711C93.1656 28.2141 93.2462 28.1897 93.3234 28.1979C93.3531 28.2011 93.3815 28.2161 93.4086 28.243C93.4357 28.27 93.4593 28.3025 93.4792 28.3406C93.5057 28.3735 93.526 28.4086 93.54 28.4462C93.554 28.4837 93.56 28.5113 93.5581 28.5291ZM86.5256 28.2821C86.551 28.0447 86.5519 27.8677 86.5283 27.7512C86.5054 27.6287 86.468 27.5286 86.4163 27.4511C86.3646 27.3735 86.3039 27.295 86.2344 27.2156C86.1648 27.1361 86.0968 27.0148 86.0302 26.8516C85.9589 26.6759 85.8918 26.5457 85.8288 26.4609C85.7718 26.3768 85.6601 26.3259 85.494 26.3081C85.0785 26.2637 84.6587 26.429 84.2345 26.8038C84.0224 26.9913 83.8161 27.2093 83.6154 27.458C83.4154 27.7007 83.2241 27.9744 83.0415 28.2791C82.8962 28.5156 82.7513 28.7763 82.6068 29.061C82.463 29.3397 82.3304 29.6257 82.2091 29.9188C82.0877 30.212 81.9815 30.5038 81.8905 30.7942C81.806 31.0793 81.7501 31.3494 81.7229 31.6046C81.7115 31.7114 81.7241 31.8178 81.7608 31.9238C81.7975 32.0298 81.8592 32.1264 81.9459 32.2137C82.0326 32.301 82.1387 32.3753 82.2642 32.4368C82.3957 32.4988 82.5504 32.5394 82.7284 32.5584C82.859 32.5723 83.0263 32.5512 83.2304 32.495C83.4404 32.4394 83.6553 32.3663 83.8751 32.2757C84.0948 32.1851 84.3004 32.087 84.4918 31.9814C84.6897 31.8705 84.8445 31.77 84.9561 31.6799C85.2733 31.4077 85.5254 31.1555 85.7122 30.9233C85.8991 30.6912 86.0448 30.4516 86.1492 30.2047C86.2542 29.9518 86.3318 29.675 86.3819 29.3742C86.4327 29.0675 86.4806 28.7035 86.5256 28.2821ZM101.261 28.1545C101.193 28.7955 101.055 29.384 100.847 29.92C100.64 30.4561 100.371 30.9556 100.039 31.4183C99.7081 31.8752 99.3141 32.3043 98.857 32.7057C98.4006 33.1011 97.8911 33.4878 97.3285 33.8659C97.1156 34.0052 96.8762 34.1387 96.6105 34.2664C96.3507 34.3947 96.0809 34.504 95.8011 34.5941C95.5214 34.6843 95.2409 34.7534 94.9597 34.8014C94.685 34.8441 94.429 34.8527 94.1916 34.8274C94.0195 34.809 93.8736 34.7694 93.7541 34.7086C93.6405 34.6484 93.5376 34.5714 93.4456 34.4776C93.3595 34.3843 93.2777 34.2795 93.2001 34.1632C93.129 34.0416 93.0524 33.9163 92.9701 33.7875C92.7518 34.3704 92.5651 34.8817 92.4101 35.3213C92.2604 35.7675 92.1293 36.1797 92.0169 36.5579C91.9038 36.9419 91.8009 37.3151 91.7082 37.6774C91.6149 38.0455 91.5151 38.446 91.4088 38.8789C91.3868 38.9726 91.3454 39.0792 91.2846 39.1987C91.2291 39.3249 91.1657 39.4411 91.0943 39.5476C91.0229 39.654 90.9445 39.7416 90.8591 39.8106C90.779 39.886 90.7004 39.9197 90.6232 39.9114C90.5401 39.9025 90.4421 39.8651 90.3291 39.799C90.2214 39.7394 90.1213 39.6657 90.0286 39.5778C89.9353 39.4958 89.8572 39.4124 89.7942 39.3276C89.7312 39.2429 89.7026 39.1738 89.7083 39.1204C89.7305 38.9127 89.7764 38.7075 89.8461 38.5049C89.9217 38.3028 89.9875 38.1088 90.0433 37.9227C90.3275 37.0046 90.6112 36.1466 90.8946 35.3485C91.1838 34.5511 91.4517 33.7574 91.6982 32.9673C91.9446 32.1773 92.1639 31.3604 92.3561 30.5166C92.5549 29.6675 92.7085 28.7355 92.8169 27.7206C92.8194 27.6969 92.8221 27.6432 92.8251 27.5595C92.8346 27.4704 92.8444 27.3784 92.8546 27.2835C92.8653 27.1826 92.8722 27.0903 92.8751 27.0066C92.884 26.9235 92.89 26.8671 92.8932 26.8374C92.9141 26.6416 92.9585 26.4512 93.0262 26.2664C93.094 26.0816 93.1774 25.9194 93.2763 25.7799C93.3818 25.6351 93.5019 25.5219 93.6367 25.4403C93.7715 25.3586 93.916 25.326 94.0703 25.3425C94.1356 25.3495 94.1971 25.3921 94.2548 25.4703C94.3131 25.5425 94.3626 25.6408 94.4033 25.7652C94.4447 25.8837 94.4716 26.0247 94.4842 26.1881C94.5027 26.3521 94.5021 26.5261 94.4825 26.7101C94.4495 27.0187 94.394 27.3699 94.3159 27.7637C94.2378 28.1576 94.1502 28.5564 94.053 28.9602C93.9624 29.3586 93.8708 29.739 93.7781 30.1013C93.6853 30.4635 93.6108 30.7677 93.5545 31.0138C93.8418 30.5162 94.1621 30.0462 94.5155 29.6038C94.8748 29.162 95.2422 28.7571 95.6177 28.389C95.9931 28.0209 96.3701 27.6951 96.7485 27.4113C97.1335 27.1223 97.4986 26.8792 97.8438 26.682C98.189 26.4848 98.5074 26.3417 98.7991 26.2528C99.0913 26.158 99.3353 26.121 99.5312 26.142C99.7983 26.1705 100.042 26.2505 100.262 26.3821C100.488 26.5083 100.679 26.6667 100.832 26.8572C100.993 27.0424 101.109 27.2498 101.18 27.4796C101.258 27.704 101.285 27.929 101.261 28.1545ZM99.7126 28.8264C99.7405 28.5653 99.7333 28.3515 99.6911 28.1849C99.6489 28.0183 99.5907 27.889 99.5165 27.7971C99.4429 27.6992 99.3602 27.6303 99.2684 27.5905C99.1826 27.5513 99.11 27.5286 99.0506 27.5222C98.8132 27.4969 98.5288 27.5745 98.1974 27.7552C97.8666 27.9299 97.5166 28.1717 97.1475 28.4804C96.779 28.7832 96.4055 29.1334 96.0269 29.5312C95.6482 29.9289 95.293 30.3321 94.9612 30.7409C94.878 30.846 94.7669 30.9872 94.6279 31.1644C94.4948 31.3423 94.3638 31.5294 94.2348 31.7257C94.1064 31.9161 93.9938 32.0991 93.897 32.2749C93.8002 32.4506 93.7467 32.5859 93.7366 32.6809C93.7309 32.7343 93.7473 32.8051 93.7859 32.8932C93.8245 32.9814 93.8839 33.0718 93.9641 33.1644C94.0508 33.2517 94.1592 33.3323 94.2894 33.4062C94.4255 33.4808 94.5855 33.5279 94.7695 33.5475C95.0187 33.5742 95.3086 33.5301 95.6389 33.4153C95.97 33.2946 96.3093 33.1238 96.6571 32.9028C97.0114 32.6766 97.3612 32.4078 97.7066 32.0966C98.0579 31.786 98.3726 31.4534 98.6505 31.099C98.9351 30.7392 99.1731 30.3655 99.3645 29.9777C99.556 29.59 99.672 29.2063 99.7126 28.8264ZM111.743 33.452C111.739 33.4935 111.695 33.5639 111.613 33.6631C111.531 33.7564 111.444 33.8672 111.352 33.9954C111.066 34.259 110.762 34.5236 110.439 34.7893C110.117 35.0549 109.78 35.3101 109.43 35.5548C109.086 35.7942 108.729 36.0172 108.359 36.2237C107.995 36.425 107.626 36.5956 107.251 36.7356C106.876 36.8756 106.502 36.9767 106.129 37.039C105.762 37.1018 105.401 37.1112 105.046 37.0673C104.547 37.014 104.128 36.8883 103.789 36.69C103.45 36.4917 103.181 36.2318 102.981 35.9104C102.781 35.5948 102.649 35.2237 102.587 34.7968C102.519 34.3634 102.513 33.8885 102.568 33.3722C102.614 32.9449 102.693 32.5092 102.807 32.0652C102.915 31.6145 103.065 31.1683 103.256 30.7266C103.454 30.2795 103.695 29.8461 103.98 29.4264C104.272 29.0013 104.615 28.5998 105.009 28.2217C105.389 27.8662 105.767 27.6154 106.143 27.4695C106.519 27.3236 106.876 27.2687 107.214 27.3048C107.439 27.3289 107.637 27.3861 107.808 27.4763C107.985 27.5612 108.129 27.6697 108.241 27.8017C108.359 27.9344 108.445 28.0876 108.498 28.2613C108.552 28.4292 108.572 28.6114 108.557 28.8078C108.539 29.088 108.481 29.3549 108.381 29.6084C108.288 29.8626 108.153 30.1123 107.977 30.3576C107.802 30.5969 107.583 30.8407 107.323 31.089C107.063 31.3313 106.76 31.5811 106.414 31.8383C106.284 31.9384 106.12 32.062 105.925 32.2092C105.73 32.3504 105.519 32.4989 105.292 32.6548C105.071 32.8112 104.841 32.9668 104.603 33.1214C104.364 33.276 104.136 33.4137 103.919 33.5346C103.893 33.7779 103.897 34.0273 103.929 34.2829C103.969 34.5332 104.043 34.7663 104.152 34.982C104.267 35.1924 104.425 35.3743 104.625 35.5277C104.825 35.6752 105.08 35.7654 105.388 35.7983C105.816 35.844 106.254 35.8158 106.703 35.7137C107.152 35.6057 107.605 35.4409 108.061 35.2195C108.517 34.9981 108.975 34.7259 109.436 34.403C109.897 34.08 110.358 33.7241 110.819 33.3353C110.846 33.3141 110.881 33.2909 110.926 33.2656C110.971 33.2345 111.022 33.2069 111.079 33.1829C111.136 33.153 111.193 33.129 111.249 33.111C111.31 33.0936 111.368 33.0878 111.422 33.0935C111.439 33.0954 111.465 33.1101 111.498 33.1376C111.537 33.1658 111.575 33.1999 111.613 33.24C111.651 33.2741 111.683 33.3105 111.709 33.3493C111.735 33.3881 111.747 33.4223 111.743 33.452ZM107.2 29.122C107.208 28.9368 107.175 28.7893 107.103 28.6795C107.031 28.5698 106.926 28.5076 106.79 28.493C106.552 28.4677 106.263 28.5958 105.92 28.8773C105.585 29.1536 105.255 29.5745 104.93 30.1401C104.782 30.4004 104.626 30.7109 104.462 31.0715C104.297 31.432 104.172 31.8178 104.086 32.2288C104.419 32.0303 104.727 31.8171 105.01 31.5892C105.298 31.3619 105.56 31.1528 105.797 30.962C105.935 30.8507 106.084 30.7166 106.245 30.5597C106.406 30.3968 106.556 30.2298 106.695 30.0585C106.839 29.8878 106.956 29.7202 107.045 29.5557C107.141 29.3919 107.192 29.2473 107.2 29.122ZM55.9948 41.8112C55.9822 41.9299 55.931 42.0715 55.8414 42.236C55.7577 42.4012 55.653 42.5671 55.5271 42.7337C55.4072 42.901 55.2791 43.0613 55.1426 43.2148C55.0121 43.369 54.8933 43.4973 54.7863 43.5999C54.5107 43.8766 54.2222 44.1609 53.9209 44.4529C53.6262 44.7395 53.3172 45.0187 52.9941 45.2903C52.6775 45.5566 52.3477 45.8064 52.0047 46.0399C51.6675 46.274 51.3161 46.4736 50.9503 46.6386C50.5845 46.8036 50.2054 46.9251 49.8129 47.0033C49.421 47.0755 49.0174 47.0894 48.6019 47.045C48.2815 47.0107 47.9907 46.9227 47.7298 46.7807C47.4748 46.6395 47.2617 46.4426 47.0906 46.1902C46.9195 45.9379 46.7959 45.6335 46.7199 45.2773C46.6505 44.9157 46.6405 44.5035 46.69 44.0406C46.742 43.5539 46.7952 43.1395 46.8498 42.7971C46.9103 42.4555 46.9612 42.1758 47.0025 41.9581C47.0437 41.7404 47.0665 41.5838 47.0707 41.4882C47.0814 41.3873 47.0661 41.3346 47.0245 41.3302C46.977 41.3251 46.8956 41.3854 46.7801 41.5112C46.6653 41.631 46.5285 41.7874 46.3698 41.9806C46.2177 42.1684 46.0479 42.3813 45.8604 42.6194C45.6788 42.8581 45.4952 43.0876 45.3096 43.3079C44.9857 43.6995 44.6593 44.0578 44.3305 44.3828C44.0082 44.7025 43.6788 44.9764 43.3423 45.2046C43.0064 45.4268 42.6614 45.594 42.3073 45.7063C41.9597 45.8132 41.599 45.8467 41.2251 45.8068C40.9996 45.7827 40.7851 45.7117 40.5816 45.594C40.3787 45.4702 40.2047 45.3016 40.0594 45.088C39.9207 44.8691 39.8168 44.6059 39.7476 44.2984C39.685 43.9856 39.6752 43.6274 39.7183 43.2238C39.7411 43.0102 39.7784 42.774 39.83 42.5154C39.8876 42.2575 39.9514 41.9972 40.0215 41.7346C40.0922 41.466 40.1652 41.2037 40.2406 40.9476C40.3166 40.6857 40.3844 40.4438 40.4441 40.2221C40.5098 40.001 40.5637 39.8057 40.6058 39.6361C40.6485 39.4606 40.6717 39.328 40.6753 39.2384C40.5308 39.355 40.3577 39.5706 40.156 39.8852C39.955 40.1938 39.7248 40.5504 39.4655 40.9549C39.2062 41.3594 38.9206 41.785 38.6088 42.2319C38.2969 42.6788 37.9639 43.0994 37.6096 43.4938C37.0992 44.0575 36.5286 44.4827 35.8977 44.7695C35.2734 45.0509 34.5992 45.153 33.8752 45.0756C33.6497 45.0515 33.4292 44.98 33.2138 44.8609C33.0044 44.7425 32.8202 44.5848 32.6611 44.3877C32.5081 44.1913 32.3917 43.9598 32.3122 43.6932C32.2273 43.42 32.2026 43.1172 32.2381 42.7849C32.2546 42.6306 32.3008 42.4795 32.3766 42.3315C32.4531 42.1776 32.5346 42.0603 32.6213 41.9795C32.6954 41.9034 32.7828 41.8437 32.8835 41.8004C32.9907 41.7518 33.1215 41.7358 33.2758 41.7523C33.4242 41.7681 33.5281 41.8633 33.5875 42.0377C33.6528 42.2127 33.6715 42.4308 33.6436 42.6919C33.6252 42.864 33.6361 43.0153 33.6762 43.1456C33.7163 43.2759 33.7731 43.39 33.8467 43.4879C33.9209 43.5799 34.0092 43.6524 34.1116 43.7053C34.214 43.7583 34.3186 43.7905 34.4254 43.8019C34.5857 43.819 34.7505 43.8216 34.9198 43.8097C35.0898 43.7918 35.2653 43.7505 35.4462 43.6858C35.6272 43.6211 35.8173 43.5274 36.0165 43.4046C36.2163 43.2759 36.4265 43.1063 36.6471 42.8957C36.9005 42.6587 37.1455 42.3877 37.3822 42.0829C37.6254 41.7727 37.8616 41.4438 38.0908 41.0962C38.3201 40.7485 38.5506 40.389 38.7823 40.0175C39.0147 39.6402 39.2533 39.2605 39.4982 38.8785C39.7065 38.5586 39.8929 38.3024 40.0575 38.1099C40.2281 37.9181 40.3593 37.785 40.4513 37.7108C40.471 37.6949 40.524 37.6766 40.6102 37.6558C40.7031 37.6297 40.8045 37.6075 40.9145 37.5892C41.0251 37.565 41.1292 37.5461 41.2267 37.5325C41.3248 37.513 41.3887 37.5048 41.4184 37.508C41.4658 37.5131 41.5381 37.5388 41.6352 37.5852C41.7323 37.6316 41.8275 37.6958 41.9208 37.7778C42.0147 37.8538 42.0951 37.9434 42.1621 38.0466C42.2292 38.1498 42.2563 38.2608 42.2436 38.3795C42.2138 38.6584 42.1492 38.9546 42.0497 39.2681C41.9502 39.5816 41.8422 39.9182 41.7257 40.278C41.6158 40.6324 41.5067 41.0079 41.3983 41.4045C41.2899 41.801 41.2119 42.2219 41.1644 42.667C41.106 43.213 41.1368 43.6274 41.2566 43.9104C41.3771 44.1873 41.5471 44.3375 41.7667 44.361C41.9982 44.3857 42.2422 44.3488 42.4989 44.2501C42.7555 44.1515 43.0143 44.0051 43.2751 43.8108C43.5419 43.6173 43.8095 43.3877 44.078 43.1223C44.3464 42.8568 44.6082 42.5697 44.8633 42.2608C45.1249 41.9466 45.3786 41.6226 45.6244 41.2887C45.8701 40.9548 46.1004 40.6252 46.3152 40.3C46.4868 40.0423 46.6372 39.8422 46.7665 39.7C46.8964 39.5518 47.0129 39.4442 47.1161 39.3772C47.2252 39.3108 47.3223 39.2731 47.4073 39.2642C47.4988 39.25 47.5891 39.2476 47.6782 39.2571C48.0164 39.2933 48.271 39.4105 48.4419 39.6088C48.6194 39.8019 48.6948 40.023 48.6682 40.2723C48.6523 40.4206 48.6312 40.5624 48.6047 40.6977C48.5848 40.8276 48.5584 40.9628 48.5254 41.1034C48.493 41.238 48.4593 41.3844 48.4244 41.5428C48.3954 41.7017 48.3609 41.8841 48.3209 42.0899C48.2809 42.2958 48.2407 42.5316 48.2003 42.7974C48.1665 43.0578 48.1309 43.3632 48.0935 43.7133C48.051 44.1109 48.0639 44.4395 48.1323 44.6989C48.2006 44.9583 48.2984 45.1668 48.4256 45.3244C48.5528 45.4821 48.6966 45.5965 48.8571 45.6677C49.0235 45.7395 49.1839 45.7836 49.3382 45.8001C49.6646 45.835 50.0032 45.7841 50.3539 45.6475C50.7046 45.5109 51.0607 45.3238 51.4222 45.0863C51.7838 44.8488 52.1458 44.5784 52.5083 44.275C52.8768 43.9722 53.2394 43.6688 53.596 43.3647C53.7543 43.2316 53.9197 43.0872 54.0924 42.9316C54.2651 42.7759 54.4348 42.62 54.6016 42.4637C54.7683 42.3075 54.9256 42.1562 55.0732 42.0099C55.2269 41.8643 55.3634 41.7378 55.4829 41.6305C55.609 41.5179 55.6869 41.4632 55.7165 41.4664C55.7522 41.4702 55.7965 41.5049 55.8495 41.5706C55.9031 41.6304 55.9516 41.7106 55.9948 41.8112ZM59.1803 41.1611C59.1866 41.1018 59.1699 41.034 59.13 40.9577C59.0967 40.8761 59.0479 40.7988 58.9837 40.726C58.926 40.6478 58.8581 40.5805 58.7801 40.5241C58.7021 40.4678 58.6275 40.4358 58.5563 40.4282C58.3723 40.4085 58.197 40.4198 58.0305 40.4621C57.8698 40.5049 57.7162 40.5665 57.5695 40.6469C57.4235 40.7214 57.2848 40.8116 57.1535 40.9176C57.028 41.0243 56.9144 41.1322 56.8127 41.2414C56.5699 41.4915 56.3145 41.8034 56.0465 42.1769C55.7851 42.5452 55.5393 42.9361 55.309 43.3496C55.0847 43.7639 54.8907 44.1753 54.727 44.584C54.5692 44.9933 54.4729 45.3612 54.438 45.6876C54.4202 45.8538 54.4792 46.0041 54.6149 46.1387C54.7506 46.2732 54.9431 46.3538 55.1923 46.3804C55.3348 46.3956 55.5106 46.3514 55.7197 46.2477C55.9354 46.1387 56.1612 45.9917 56.3971 45.8068C56.6395 45.6166 56.8788 45.3991 57.115 45.1542C57.3572 44.91 57.5736 44.654 57.7643 44.3863C58.124 43.8845 58.4336 43.3743 58.6931 42.8558C58.9532 42.3314 59.1156 41.7665 59.1803 41.1611ZM67.0012 43.3832C66.9777 43.4347 66.8935 43.5487 66.7486 43.7253C66.6043 43.896 66.4048 44.1058 66.1501 44.3547C65.8954 44.6036 65.5901 44.8771 65.2341 45.1752C64.8847 45.468 64.4964 45.7597 64.0692 46.0502C63.5651 46.3865 63.1184 46.6629 62.7291 46.8794C62.3464 47.0906 62.0017 47.2549 61.6951 47.3722C61.395 47.4842 61.1261 47.5575 60.8883 47.5921C60.657 47.6215 60.4435 47.6257 60.2477 47.6047C59.9865 47.5769 59.7536 47.51 59.5488 47.404C59.3506 47.2928 59.1845 47.134 59.0505 46.9276C58.9165 46.7212 58.8119 46.464 58.7368 46.1558C58.6623 45.8417 58.6182 45.4679 58.6045 45.0342L58.5155 45.0247C58.2256 45.3779 57.9124 45.7256 57.5757 46.0678C57.2456 46.4047 56.9044 46.7044 56.5523 46.9669C56.2067 47.2241 55.8549 47.4266 55.4969 47.5744C55.145 47.7229 54.8057 47.7797 54.4793 47.7449C54.3072 47.7265 54.1294 47.6775 53.9458 47.5978C53.7629 47.5123 53.5986 47.3927 53.4529 47.239C53.3073 47.0854 53.1921 46.8991 53.1075 46.6799C53.0235 46.4549 52.9973 46.194 53.029 45.8972C53.0569 45.6361 53.1213 45.3429 53.2221 45.0175C53.3235 44.6862 53.4499 44.3455 53.6013 43.9956C53.7534 43.6397 53.9203 43.2853 54.102 42.9326C54.2903 42.5746 54.4824 42.2379 54.6781 41.9227C54.8798 41.6081 55.078 41.3261 55.2727 41.0768C55.4674 40.8275 55.6508 40.628 55.8228 40.4783C56.0211 40.3074 56.2495 40.1368 56.5078 39.9663C56.772 39.7964 57.0581 39.6469 57.366 39.5177C57.6739 39.3886 57.9995 39.2913 58.3426 39.2259C58.6863 39.1546 59.0422 39.1386 59.4102 39.1779C59.7069 39.2096 59.919 39.3313 60.0464 39.543C60.1745 39.7487 60.2473 40.0506 60.2648 40.4486C60.2669 40.4849 60.2833 40.5286 60.3138 40.5799C60.3503 40.6318 60.3861 40.6897 60.4213 40.7535C60.4625 40.8179 60.4973 40.8847 60.526 40.9537C60.5552 41.0169 60.5664 41.0811 60.5594 41.1464C60.5493 41.2413 60.5158 41.3578 60.4591 41.4958C60.4029 41.6279 60.3387 41.7801 60.2662 41.9524C60.2004 42.1194 60.1356 42.3046 60.0718 42.5079C60.0087 42.7052 59.9651 42.9167 59.9411 43.1422C59.9081 43.4508 59.8759 43.7805 59.8444 44.1313C59.8129 44.482 59.811 44.809 59.8387 45.1121C59.8729 45.4098 59.9508 45.6642 60.0723 45.8753C60.1997 46.087 60.4029 46.2078 60.6818 46.2375C60.9667 46.268 61.3667 46.1757 61.8819 45.9606C62.3971 45.7455 62.9771 45.4293 63.6219 45.012C64.0347 44.744 64.4267 44.4737 64.798 44.2012C65.1692 43.9288 65.5014 43.6851 65.7944 43.4703C66.0875 43.2555 66.3372 43.0811 66.5436 42.9471C66.75 42.8131 66.8947 42.7505 66.9778 42.7594C67.0787 42.7702 67.1391 42.7946 67.1591 42.8328C67.1796 42.865 67.1855 42.9227 67.1766 43.0057C67.1753 43.0176 67.1665 43.0437 67.1502 43.084C67.1346 43.1183 67.1186 43.1556 67.1023 43.1959C67.086 43.2362 67.067 43.2731 67.0454 43.3069C67.0238 43.3406 67.0091 43.366 67.0012 43.3832ZM85.0721 44.8184C85.0664 44.8718 85.0472 44.9388 85.0146 45.0193C84.9879 45.1005 84.9517 45.1867 84.906 45.2778C84.8662 45.3696 84.8171 45.4634 84.7589 45.5592C84.7072 45.6498 84.6505 45.7307 84.5888 45.8022C84.4715 45.9457 84.3189 46.1095 84.1312 46.2935C83.9494 46.4782 83.7489 46.6698 83.5296 46.8685C83.3109 47.0612 83.0771 47.2553 82.8281 47.4508C82.5857 47.641 82.3481 47.8137 82.1155 47.969C81.9281 48.093 81.7125 48.229 81.4686 48.3771C81.2247 48.5251 80.9702 48.66 80.7051 48.7817C80.44 48.9034 80.1715 49.0008 79.8996 49.0738C79.6283 49.1409 79.3769 49.162 79.1455 49.1373C78.9378 49.1151 78.7273 49.0626 78.514 48.9798C78.3074 48.8917 78.1239 48.7551 77.9636 48.5699C77.8092 48.3853 77.6912 48.1416 77.6095 47.8388C77.5285 47.53 77.5123 47.1471 77.5612 46.6901C77.5916 46.4053 77.6235 46.1626 77.6569 45.9621C77.6969 45.7562 77.7295 45.5916 77.7547 45.4683C77.7805 45.339 77.7966 45.2447 77.8029 45.1853C77.8099 45.12 77.7986 45.0858 77.7689 45.0826C77.757 45.0814 77.6841 45.1456 77.5502 45.2754C77.4222 45.4058 77.2512 45.5736 77.0372 45.7788C76.8298 45.9787 76.5895 46.2052 76.3164 46.4581C76.0492 46.7117 75.7708 46.9581 75.4811 47.1972C75.204 47.4317 74.9228 47.6478 74.6376 47.8454C74.3524 48.043 74.0819 48.2152 73.8261 48.362C73.5769 48.5034 73.3463 48.6108 73.1344 48.6842C72.9225 48.7576 72.7483 48.7871 72.6118 48.7725C72.5109 48.7617 72.4075 48.7176 72.3017 48.6403C72.196 48.563 72.0947 48.4711 71.998 48.3648C71.9073 48.259 71.8294 48.1457 71.7643 48.0247C71.6992 47.9037 71.6539 47.7938 71.6284 47.695C71.5781 47.4916 71.551 47.2396 71.5471 46.939C71.5438 46.6326 71.5669 46.2479 71.6164 45.785C71.6284 45.6722 71.6477 45.5482 71.6741 45.413C71.7012 45.2718 71.727 45.1425 71.7516 45.0251C71.7827 44.9024 71.8056 44.7998 71.8205 44.7173C71.8353 44.6349 71.8367 44.593 71.8249 44.5917C71.8011 44.5892 71.7201 44.6736 71.5817 44.8449C71.444 45.0102 71.2591 45.2246 71.0268 45.4879C70.8012 45.7459 70.5365 46.0327 70.2326 46.3484C69.9288 46.6641 69.6051 46.9687 69.2617 47.2621C69.0574 47.4324 68.8347 47.6067 68.5936 47.785C68.359 47.958 68.1144 48.112 67.8599 48.2469C67.6054 48.3817 67.3478 48.4893 67.0872 48.5695C66.8331 48.6444 66.5873 48.6691 66.3499 48.6438C66.1244 48.6197 65.9382 48.5368 65.7913 48.395C65.6503 48.2539 65.5392 48.086 65.4579 47.8912C65.3833 47.6912 65.3366 47.4821 65.3178 47.264C65.2991 47.0459 65.2996 46.8449 65.3192 46.6609C65.3446 46.4235 65.3721 46.2224 65.4017 46.0575C65.4313 45.8926 65.4636 45.7309 65.4985 45.5726C65.54 45.409 65.5861 45.2308 65.6367 45.0381C65.6873 44.8455 65.7468 44.5967 65.8154 44.2919C65.8723 44.0399 65.9282 43.7697 65.983 43.4815C66.0378 43.1932 66.0887 42.9135 66.1357 42.6424C66.1892 42.366 66.2372 42.1131 66.2798 41.8835C66.3282 41.6546 66.3776 41.4738 66.4278 41.3411C66.4532 41.2718 66.5036 41.1931 66.579 41.1051C66.6544 41.0172 66.7381 40.9361 66.8301 40.8619C66.9286 40.7823 67.0285 40.718 67.1298 40.6688C67.2318 40.6136 67.3183 40.5899 67.3896 40.5975C67.5142 40.6108 67.6125 40.6453 67.6846 40.701C67.7567 40.7568 67.8091 40.8284 67.8417 40.9159C67.8803 41.0041 67.8992 41.1081 67.8984 41.2281C67.9042 41.3427 67.8998 41.4683 67.8852 41.6048C67.8624 41.8185 67.8002 42.091 67.6988 42.4223C67.604 42.7483 67.4994 43.1092 67.3851 43.5052C67.2707 43.9012 67.1568 44.3212 67.0434 44.7652C66.9365 45.204 66.8599 45.64 66.8136 46.0732C66.7997 46.2038 66.7923 46.3291 66.7915 46.449C66.7907 46.569 66.7971 46.6777 66.8107 46.7752C66.8308 46.8674 66.8585 46.9454 66.8937 47.0092C66.9295 47.067 66.9742 47.0988 67.0276 47.1045C67.1878 47.1216 67.3916 47.0684 67.6389 46.9447C67.8928 46.8158 68.1669 46.638 68.4612 46.4113C68.7614 46.1853 69.075 45.9187 69.402 45.6114C69.7296 45.2983 70.0501 44.9664 70.3637 44.6157C70.5139 44.4457 70.6684 44.2641 70.8271 44.071C70.9917 43.8785 71.1474 43.685 71.2942 43.4906C71.447 43.2969 71.5902 43.1081 71.7239 42.9243C71.8576 42.7405 71.9751 42.5669 72.0766 42.4037C72.1991 42.2127 72.2996 42.0584 72.3782 41.9407C72.4633 41.8178 72.5394 41.7239 72.6063 41.659C72.6739 41.5882 72.7416 41.5444 72.8095 41.5276C72.8838 41.5055 72.9715 41.4999 73.0724 41.5107C73.1495 41.5189 73.2241 41.5509 73.2962 41.6066C73.3749 41.657 73.4433 41.7184 73.5017 41.7906C73.5659 41.8635 73.6147 41.9408 73.648 42.0224C73.6878 42.0986 73.7046 42.1665 73.6983 42.2258C73.6799 42.3979 73.6349 42.5942 73.5633 42.8146C73.4977 43.0357 73.422 43.2947 73.3363 43.5917C73.2505 43.8887 73.163 44.2305 73.0737 44.6171C72.9903 45.0043 72.922 45.4472 72.8687 45.9458C72.8478 46.1416 72.8446 46.3123 72.859 46.4579C72.8794 46.6042 72.9116 46.7246 72.9555 46.8194C72.9994 46.9141 73.0514 46.9887 73.1116 47.0431C73.1725 47.0917 73.2326 47.1191 73.2919 47.1254C73.3928 47.1362 73.5481 47.0868 73.7579 46.9771C73.9737 46.8681 74.2277 46.7092 74.5202 46.5003C74.8132 46.2855 75.1354 46.0228 75.4867 45.7122C75.844 45.4022 76.2113 45.0543 76.5886 44.6684C76.7908 44.4619 76.987 44.2548 77.1772 44.047C77.3734 43.8399 77.5552 43.6552 77.7226 43.493C77.8906 43.3249 78.043 43.1911 78.1796 43.0917C78.3163 42.9922 78.4292 42.9473 78.5182 42.9568C78.7556 42.9821 78.9549 43.0545 79.1163 43.1737C79.2776 43.293 79.35 43.4298 79.3335 43.5841C79.3183 43.7265 79.2887 43.8914 79.2447 44.0788C79.2013 44.2603 79.1497 44.4618 79.09 44.6836C79.0363 44.9059 78.9836 45.1464 78.9319 45.405C78.8803 45.6636 78.8393 45.9353 78.8088 46.2202C78.7771 46.5169 78.7657 46.7648 78.7744 46.9638C78.7897 47.1575 78.827 47.3145 78.8862 47.4349C78.9513 47.5559 79.0436 47.6468 79.1632 47.7076C79.2834 47.7625 79.4384 47.8 79.6283 47.8203C79.7529 47.8336 79.9209 47.8066 80.1322 47.7391C80.3501 47.6663 80.5853 47.5714 80.8379 47.4543C81.0911 47.3313 81.346 47.1935 81.6024 47.0408C81.8588 46.8881 82.0908 46.7388 82.2985 46.5929C82.5061 46.4471 82.7049 46.3002 82.8948 46.1524C83.0912 45.9993 83.2876 45.8463 83.484 45.6932C83.6811 45.5341 83.8818 45.3695 84.086 45.1992C84.2962 45.0296 84.5196 44.8494 84.756 44.6586C84.8349 44.595 84.9039 44.5663 84.9633 44.5727C85.0523 44.5822 85.0886 44.6641 85.0721 44.8184ZM98.7702 46.0566C98.7607 46.1456 98.7101 46.2542 98.6184 46.3825C98.5326 46.5114 98.4218 46.6496 98.2859 46.7972C98.1561 46.9454 98.0107 47.0979 97.8499 47.2548C97.6891 47.4117 97.5348 47.5633 97.3871 47.7096C96.8659 48.2061 96.3494 48.6582 95.8377 49.0657C95.3325 49.4679 94.8459 49.8091 94.3778 50.0892C93.9097 50.3693 93.467 50.5802 93.0497 50.7217C92.639 50.8579 92.2645 50.9079 91.9262 50.8718C91.5049 50.8267 91.1783 50.6808 90.9466 50.434C90.7149 50.1871 90.5438 49.8777 90.4335 49.5058C90.3238 49.1279 90.2604 48.71 90.2433 48.252C90.2268 47.788 90.2258 47.3197 90.2403 46.8471C90.0581 47.0917 89.8562 47.3523 89.6346 47.6287C89.4136 47.8992 89.1844 48.1629 88.9469 48.4196C88.7094 48.6764 88.4734 48.9183 88.2391 49.1453C88.0054 49.3665 87.7877 49.5503 87.5859 49.6968C87.3389 49.8745 87.093 50.0403 86.8485 50.1943C86.6105 50.3429 86.3629 50.4695 86.1056 50.5741C85.8549 50.6734 85.589 50.747 85.3077 50.795C85.0331 50.8377 84.7355 50.8419 84.415 50.8077C83.9462 50.7576 83.5988 50.5254 83.373 50.1111C83.153 49.6975 83.07 49.2384 83.1239 48.734C83.1581 48.4135 83.2161 48.0955 83.2978 47.7801C83.3795 47.4647 83.4639 47.1526 83.5509 46.8438C83.6439 46.5356 83.7306 46.2297 83.811 45.9262C83.8921 45.6167 83.9485 45.3136 83.9802 45.0169C83.9973 44.8566 84.0128 44.7112 84.0268 44.5807C84.0414 44.4442 84.058 44.3169 84.0766 44.1988C84.0958 44.0748 84.1177 43.9541 84.1423 43.8367C84.1668 43.7193 84.1979 43.5965 84.2356 43.4685C84.2928 43.2705 84.3916 43.104 84.5321 42.969C84.6726 42.8339 84.8763 42.7806 85.1434 42.8092C85.6894 42.8675 85.9221 43.2735 85.8416 44.0272C85.8277 44.1578 85.7973 44.3016 85.7505 44.4587C85.7103 44.6104 85.6632 44.7705 85.6092 44.9388C85.5558 45.1011 85.4989 45.2691 85.4383 45.4427C85.3843 45.611 85.3336 45.7767 85.2862 45.9397C85.118 46.3899 84.9699 46.8213 84.8418 47.2338C84.7143 47.6403 84.6319 48.0187 84.5945 48.3688C84.585 48.4579 84.5861 48.56 84.5978 48.6753C84.6101 48.7847 84.6346 48.8923 84.6713 48.9983C84.7087 49.0983 84.7624 49.1851 84.8326 49.2586C84.9087 49.3328 85.0002 49.3756 85.107 49.387C85.4215 49.4206 85.7226 49.3837 86.0102 49.2764C86.3037 49.1697 86.5802 49.0251 86.8398 48.8428C87.106 48.6551 87.3565 48.4448 87.5915 48.2118C87.833 47.9735 88.0647 47.7431 88.2866 47.5207C88.5025 47.2977 88.7327 47.0252 88.9772 46.7031C89.2282 46.3758 89.4687 46.0353 89.6985 45.6817C89.929 45.3222 90.1443 44.9641 90.3445 44.6073C90.5453 44.2446 90.7091 43.9199 90.8357 43.6333C90.8918 43.5013 90.9603 43.3945 91.041 43.3131C91.1217 43.2317 91.2035 43.1684 91.2864 43.1232C91.3752 43.0787 91.4594 43.0487 91.5391 43.0332C91.6188 43.0177 91.6853 43.0128 91.7387 43.0185C91.899 43.0356 92.0178 43.0753 92.0952 43.1376C92.1732 43.194 92.204 43.2993 92.1875 43.4536C92.1748 43.5723 92.1428 43.731 92.0916 43.9296C92.0463 44.1288 91.9941 44.3363 91.9351 44.5521C91.876 44.7679 91.8209 44.9751 91.7696 45.1737C91.7243 45.3729 91.6957 45.5289 91.6836 45.6417C91.6728 45.7426 91.655 45.8817 91.63 46.0591C91.6057 46.2306 91.5834 46.4113 91.5631 46.6012C91.5428 46.7911 91.5258 46.9784 91.5121 47.163C91.499 47.3417 91.4986 47.4857 91.511 47.5951C91.5214 47.7222 91.5339 47.8856 91.5486 48.0853C91.5693 48.2856 91.6021 48.4842 91.6471 48.681C91.6986 48.8726 91.7705 49.0424 91.8628 49.1903C91.9609 49.3388 92.0961 49.4223 92.2682 49.4407C92.5887 49.4749 92.9608 49.4186 93.3847 49.2718C93.8085 49.125 94.2575 48.9119 94.7315 48.6324C95.2062 48.347 95.6988 48.0064 96.2092 47.6108C96.7262 47.2098 97.2349 46.7749 97.7351 46.3062C97.7949 46.2525 97.855 46.1959 97.9154 46.1363C97.9817 46.0774 98.0444 46.0241 98.1035 45.9764C98.1686 45.9293 98.2297 45.8908 98.2869 45.8609C98.3501 45.8316 98.4054 45.8195 98.4529 45.8246C98.5181 45.8316 98.5875 45.857 98.6608 45.9008C98.7407 45.9394 98.7772 45.9913 98.7702 46.0566ZM108.896 50.3076C108.884 50.4203 108.806 50.565 108.661 50.7416C108.516 50.9123 108.339 51.0884 108.127 51.2699C107.816 51.5368 107.485 51.8015 107.133 52.064C106.787 52.3272 106.434 52.5626 106.076 52.7705C105.718 52.9723 105.359 53.1291 104.999 53.2407C104.645 53.3589 104.307 53.4008 103.987 53.3666C103.381 53.3019 102.965 53.0384 102.738 52.576C102.518 52.1142 102.452 51.4679 102.54 50.637C102.564 50.4175 102.593 50.2044 102.627 49.998C102.667 49.7862 102.706 49.5893 102.744 49.4073C102.782 49.2192 102.818 49.052 102.851 48.9055C102.891 48.7597 102.922 48.637 102.945 48.5374C102.674 48.7125 102.287 48.8513 101.784 48.9536C101.287 49.0506 100.729 49.111 100.108 49.1347C99.945 49.1413 99.7793 49.1476 99.6106 49.1536C99.4425 49.1536 99.2863 49.155 99.142 49.1576C98.9976 49.1601 98.8711 49.1646 98.7624 49.171C98.6602 49.1721 98.5907 49.1767 98.5538 49.1848C98.5169 49.1928 98.4811 49.219 98.4464 49.2633C98.4182 49.3023 98.3891 49.3502 98.359 49.407C98.3349 49.4645 98.3131 49.5282 98.2936 49.5981C98.2747 49.6622 98.2592 49.7235 98.2469 49.7822C98.1783 50.087 98.1171 50.4076 98.0631 50.744C98.0158 51.0751 97.9721 51.4276 97.9322 51.8015C97.8821 52.2703 97.7952 52.6062 97.6715 52.809C97.5537 53.0125 97.3702 53.101 97.1209 53.0743C96.9844 53.0598 96.8679 53.0263 96.7715 52.974C96.675 52.9217 96.595 52.8561 96.5314 52.7773C96.4731 52.705 96.4306 52.6254 96.4038 52.5386C96.383 52.4523 96.3771 52.3676 96.3859 52.2845C96.4062 52.0946 96.4448 51.8737 96.5018 51.6216C96.5593 51.3637 96.6211 51.0942 96.6872 50.8131C96.7598 50.5267 96.8333 50.2315 96.9079 49.9273C96.9883 49.6238 97.0615 49.3315 97.1276 49.0504C97.2078 48.6928 97.2773 48.2951 97.3361 47.8572C97.4014 47.414 97.4566 46.9817 97.5016 46.5603C97.5526 46.1396 97.5971 45.7512 97.6351 45.3951C97.6797 45.0337 97.7214 44.7561 97.7601 44.5621C97.7724 44.5034 97.7964 44.4189 97.8322 44.3087C97.868 44.1985 97.9183 44.0928 97.9831 43.9917C98.0486 43.8846 98.1299 43.7973 98.2272 43.7296C98.331 43.6567 98.4512 43.6275 98.5877 43.6421C98.7123 43.6554 98.8229 43.6882 98.9193 43.7406C99.0158 43.7929 99.0961 43.8555 99.1604 43.9284C99.2252 43.9953 99.274 44.0726 99.3067 44.1601C99.34 44.2417 99.3525 44.321 99.3443 44.3982C99.3417 44.4219 99.3255 44.4892 99.2957 44.6001C99.2718 44.7116 99.2387 44.8521 99.1966 45.0217C99.1551 45.1853 99.1085 45.3694 99.0566 45.574C99.0107 45.7791 98.9644 45.9873 98.9179 46.1984C98.8713 46.4095 98.8283 46.615 98.789 46.8149C98.7556 47.0154 98.7303 47.1958 98.7132 47.356C98.7081 47.4035 98.7054 47.4572 98.7049 47.5172C98.7052 47.5713 98.7143 47.6263 98.7323 47.6822C98.751 47.7322 98.7762 47.7769 98.808 47.8163C98.8399 47.8558 98.8884 47.879 98.9537 47.8859C99.6362 47.9588 100.206 47.9867 100.664 47.9696C101.123 47.9466 101.5 47.9028 101.795 47.8383C102.091 47.7678 102.321 47.6874 102.487 47.5971C102.653 47.5068 102.784 47.4278 102.881 47.3601C103.024 47.2613 103.156 47.1223 103.277 46.9432C103.398 46.7641 103.513 46.5632 103.621 46.3406C103.729 46.1121 103.833 45.8681 103.933 45.6087C104.039 45.3439 104.146 45.0762 104.253 44.8055C104.287 44.7131 104.326 44.6243 104.371 44.539C104.417 44.4479 104.473 44.3699 104.54 44.305C104.613 44.2408 104.696 44.1926 104.79 44.1606C104.89 44.1233 105.011 44.1122 105.154 44.1274C105.361 44.1496 105.529 44.2336 105.658 44.3794C105.792 44.5258 105.848 44.7028 105.826 44.9106C105.813 45.0352 105.757 45.1943 105.658 45.3878C105.56 45.5754 105.449 45.7766 105.324 45.9913C105.199 46.2001 105.075 46.406 104.952 46.6089C104.834 46.8064 104.75 46.9775 104.699 47.1221C104.581 47.4337 104.474 47.7343 104.377 48.0241C104.287 48.3086 104.203 48.5907 104.125 48.8705C104.053 49.145 103.991 49.4204 103.937 49.6968C103.884 49.9732 103.842 50.2568 103.81 50.5476C103.778 50.8503 103.766 51.1011 103.775 51.3002C103.784 51.4992 103.815 51.6615 103.867 51.7872C103.926 51.9076 104.01 51.9975 104.117 52.057C104.226 52.1106 104.36 52.146 104.52 52.1631C104.722 52.1846 104.947 52.1547 105.196 52.0732C105.451 51.9924 105.712 51.8792 105.98 51.7337C106.248 51.5823 106.518 51.4131 106.79 51.2261C107.063 51.0331 107.321 50.8416 107.563 50.6514C107.668 50.5665 107.773 50.4817 107.878 50.3969C107.99 50.3068 108.095 50.225 108.193 50.1514C108.29 50.0778 108.381 50.0184 108.464 49.9733C108.547 49.9281 108.615 49.9084 108.668 49.9141C108.751 49.9229 108.813 49.9626 108.853 50.0329C108.894 50.1033 108.908 50.1948 108.896 50.3076ZM128.055 52.3542C128.043 52.467 127.964 52.6117 127.819 52.7883C127.675 52.9589 127.497 53.135 127.286 53.3165C126.975 53.5834 126.644 53.8481 126.292 54.1106C125.945 54.3738 125.593 54.6093 125.235 54.8171C124.877 55.019 124.518 55.1757 124.158 55.2873C123.803 55.4055 123.466 55.4474 123.145 55.4132C122.54 55.3485 122.124 55.085 121.897 54.6226C121.676 54.1608 121.61 53.5145 121.699 52.6837C121.723 52.4641 121.751 52.2511 121.785 52.0446C121.826 51.8329 121.865 51.636 121.903 51.4539C121.941 51.2659 121.977 51.0986 122.01 50.9522C122.05 50.8063 122.081 50.6836 122.104 50.584C121.833 50.7591 121.446 50.8979 120.943 51.0002C120.446 51.0972 119.887 51.1576 119.267 51.1813C119.104 51.1879 118.938 51.1942 118.769 51.2002C118.601 51.2003 118.445 51.2016 118.301 51.2042C118.156 51.2068 118.03 51.2113 117.921 51.2177C117.819 51.2187 117.749 51.2233 117.713 51.2314C117.676 51.2395 117.64 51.2656 117.605 51.3099C117.577 51.349 117.548 51.3969 117.518 51.4537C117.494 51.5111 117.472 51.5748 117.452 51.6448C117.433 51.7088 117.418 51.7701 117.406 51.8289C117.337 52.1337 117.276 52.4543 117.222 52.7906C117.175 53.1217 117.131 53.4742 117.091 53.8481C117.041 54.3169 116.954 54.6528 116.83 54.8557C116.712 55.0592 116.529 55.1476 116.28 55.121C116.143 55.1064 116.027 55.0729 115.93 55.0206C115.834 54.9683 115.754 54.9027 115.69 54.8239C115.632 54.7516 115.589 54.6721 115.563 54.5852C115.542 54.4989 115.536 54.4143 115.545 54.3312C115.565 54.1413 115.604 53.9203 115.661 53.6683C115.718 53.4103 115.78 53.1408 115.846 52.8597C115.919 52.5734 115.992 52.2781 116.067 51.9739C116.147 51.6704 116.22 51.3781 116.286 51.097C116.367 50.7395 116.436 50.3417 116.495 49.9038C116.56 49.4606 116.615 49.0283 116.66 48.607C116.711 48.1862 116.756 47.7978 116.794 47.4417C116.838 47.0803 116.88 46.8027 116.919 46.6087C116.931 46.55 116.955 46.4656 116.991 46.3553C117.027 46.2451 117.077 46.1394 117.142 46.0383C117.207 45.9313 117.289 45.8439 117.386 45.7763C117.49 45.7033 117.61 45.6741 117.746 45.6887C117.871 45.702 117.982 45.7349 118.078 45.7872C118.175 45.8395 118.255 45.9021 118.319 45.975C118.384 46.042 118.433 46.1192 118.465 46.2067C118.499 46.2883 118.511 46.3677 118.503 46.4448C118.5 46.4686 118.484 46.5359 118.454 46.6467C118.431 46.7582 118.398 46.8987 118.355 47.0683C118.314 47.232 118.267 47.416 118.215 47.6206C118.169 47.8258 118.123 48.0339 118.077 48.245C118.03 48.4561 117.987 48.6616 117.948 48.8615C117.914 49.062 117.889 49.2424 117.872 49.4027C117.867 49.4501 117.864 49.5039 117.864 49.5638C117.864 49.6179 117.873 49.6729 117.891 49.7288C117.91 49.7788 117.935 49.8236 117.967 49.863C117.999 49.9024 118.047 49.9256 118.112 49.9326C118.795 50.0055 119.365 50.0334 119.823 50.0163C120.282 49.9932 120.659 49.9494 120.954 49.8849C121.249 49.8145 121.48 49.7341 121.646 49.6437C121.811 49.5534 121.943 49.4744 122.04 49.4067C122.183 49.3079 122.315 49.169 122.436 48.9898C122.557 48.8107 122.672 48.6098 122.779 48.3873C122.888 48.1587 122.992 47.9148 123.092 47.6553C123.198 47.3905 123.305 47.1228 123.412 46.8521C123.445 46.7597 123.485 46.6709 123.53 46.5857C123.576 46.4945 123.632 46.4165 123.699 46.3516C123.772 46.2874 123.855 46.2393 123.949 46.2072C124.049 46.1699 124.17 46.1588 124.312 46.174C124.52 46.1962 124.688 46.2802 124.817 46.426C124.951 46.5724 125.007 46.7495 124.985 46.9572C124.972 47.0818 124.916 47.2409 124.817 47.4344C124.719 47.622 124.607 47.8232 124.482 48.038C124.358 48.2468 124.234 48.4526 124.11 48.6555C123.993 48.8531 123.909 49.0241 123.857 49.1687C123.74 49.4803 123.633 49.781 123.536 50.0707C123.445 50.3552 123.361 50.6373 123.283 50.9171C123.212 51.1916 123.15 51.4671 123.096 51.7435C123.043 52.0199 123 52.3035 122.969 52.5943C122.937 52.8969 122.925 53.1478 122.934 53.3468C122.943 53.5458 122.973 53.7081 123.026 53.8338C123.085 53.9542 123.168 54.0441 123.276 54.1037C123.384 54.1572 123.519 54.1926 123.679 54.2097C123.881 54.2313 124.106 54.2013 124.355 54.1198C124.61 54.039 124.871 53.9259 125.138 53.7804C125.407 53.629 125.677 53.4597 125.949 53.2727C126.222 53.0798 126.479 52.8882 126.722 52.698C126.827 52.6132 126.932 52.5284 127.037 52.4436C127.149 52.3534 127.253 52.2716 127.351 52.198C127.449 52.1244 127.54 52.0651 127.622 52.0199C127.705 51.9747 127.773 51.955 127.827 51.9607C127.91 51.9696 127.972 52.0092 128.012 52.0795C128.053 52.1499 128.067 52.2415 128.055 52.3542ZM137.058 50.3447C137.053 50.3863 137.018 50.4665 136.951 50.5854C136.89 50.705 136.814 50.8289 136.722 50.9572C135.959 51.7579 135.199 52.5142 134.445 53.2259C133.697 53.9324 132.972 54.5451 132.268 55.0642C131.565 55.5773 130.893 55.9707 130.251 56.2443C129.616 56.5186 129.028 56.6209 128.49 56.5514C127.991 56.4981 127.57 56.3691 127.225 56.1642C126.887 55.96 126.618 55.6942 126.419 55.3668C126.22 55.0394 126.087 54.659 126.019 54.2256C125.952 53.7862 125.946 53.3084 126.001 52.7921C126.045 52.3766 126.128 51.9442 126.248 51.4949C126.368 51.0455 126.529 50.6036 126.731 50.169C126.928 49.7338 127.165 49.3149 127.442 48.9123C127.72 48.5038 128.041 48.133 128.407 47.8C128.554 47.6655 128.717 47.5389 128.898 47.4202C129.079 47.2955 129.268 47.1866 129.464 47.0935C129.666 47.001 129.869 46.9297 130.072 46.8794C130.281 46.8297 130.485 46.8094 130.682 46.8184C130.89 46.8347 131.079 46.8939 131.248 46.996C131.418 47.0922 131.561 47.2155 131.677 47.3659C131.793 47.5164 131.88 47.6877 131.937 47.8799C131.995 48.0721 132.016 48.2665 132.001 48.463C131.973 48.9462 131.78 49.4328 131.422 49.9227C131.07 50.4073 130.535 50.9204 129.817 51.462C129.686 51.562 129.523 51.6827 129.328 51.8239C129.133 51.9651 128.922 52.1137 128.695 52.2695C128.475 52.4201 128.245 52.5726 128.007 52.7272C127.775 52.8765 127.55 53.0116 127.333 53.1325C127.307 53.3758 127.315 53.6167 127.355 53.8551C127.396 54.0935 127.474 54.315 127.59 54.5195C127.713 54.7187 127.875 54.8861 128.077 55.0216C128.284 55.1579 128.542 55.2425 128.851 55.2754C129.172 55.3097 129.515 55.2713 129.881 55.1603C130.247 55.0434 130.629 54.8741 131.024 54.6522C131.427 54.4251 131.837 54.1538 132.255 53.8383C132.679 53.5175 133.109 53.1733 133.545 52.8056C133.981 52.432 134.419 52.0406 134.859 51.6314C135.304 51.2229 135.744 50.8137 136.178 50.4038C136.205 50.3826 136.241 50.3535 136.287 50.3164C136.333 50.2793 136.382 50.2425 136.433 50.206C136.492 50.1642 136.549 50.1314 136.606 50.1074C136.669 50.0781 136.728 50.0663 136.781 50.072C136.799 50.0739 136.822 50.0854 136.849 50.1064C136.884 50.122 136.917 50.1436 136.95 50.1712C136.984 50.1928 137.011 50.2197 137.032 50.2519C137.052 50.2841 137.061 50.3151 137.058 50.3447ZM130.626 48.7753C130.634 48.59 130.608 48.4372 130.549 48.3169C130.496 48.1971 130.4 48.1329 130.263 48.1243C129.947 48.1085 129.614 48.25 129.264 48.5487C128.913 48.8474 128.569 49.3149 128.231 49.9511C128.163 50.0819 128.093 50.2305 128.022 50.3969C127.95 50.5573 127.882 50.7211 127.816 50.8881C127.756 51.0558 127.696 51.2234 127.636 51.3911C127.583 51.5535 127.537 51.6987 127.5 51.8267C127.833 51.6282 128.135 51.4173 128.405 51.1941C128.675 50.9708 128.928 50.7638 129.164 50.5729C129.348 50.4245 129.526 50.2755 129.698 50.1258C129.871 49.9702 130.022 49.8182 130.152 49.6701C130.289 49.5166 130.398 49.3661 130.479 49.2188C130.568 49.0662 130.617 48.9183 130.626 48.7753ZM153.085 54.983C153.074 55.0839 153.016 55.2067 152.911 55.3515C152.805 55.4963 152.662 55.6522 152.482 55.819C152.163 56.115 151.825 56.412 151.469 56.7102C151.113 57.0083 150.749 57.2725 150.376 57.5028C150.009 57.7337 149.642 57.9135 149.274 58.0423C148.906 58.1711 148.55 58.2171 148.206 58.1803C147.683 58.1245 147.299 57.9034 147.052 57.5168C146.811 57.131 146.689 56.5627 146.685 55.8119C146.681 55.5655 146.689 55.2932 146.709 54.9952C146.729 54.6972 146.749 54.3992 146.769 54.1012C146.794 53.8038 146.816 53.515 146.834 53.2348C146.852 52.9546 146.86 52.7064 146.86 52.4902C146.859 52.2681 146.842 52.0892 146.809 51.9536C146.781 51.8186 146.732 51.7473 146.661 51.7397C146.536 51.7264 146.396 51.7715 146.241 51.8749C146.092 51.9791 145.918 52.1495 145.718 52.3863C145.519 52.6172 145.292 52.9171 145.037 53.2859C144.787 53.6554 144.5 54.0989 144.174 54.6164C143.914 55.0327 143.692 55.3662 143.509 55.6168C143.332 55.868 143.174 56.0611 143.033 56.1962C142.893 56.3312 142.764 56.4165 142.646 56.4519C142.528 56.4874 142.401 56.4978 142.264 56.4832C142.163 56.4724 142.065 56.4409 141.968 56.3885C141.872 56.3362 141.783 56.2727 141.701 56.1979C141.625 56.1178 141.556 56.0294 141.495 55.9328C141.439 55.8368 141.398 55.7394 141.373 55.6407C141.329 55.4378 141.3 55.1677 141.288 54.8303C141.283 54.4876 141.281 54.0852 141.282 53.6232C141.28 53.1967 141.276 52.8362 141.272 52.5416C141.268 52.2411 141.253 51.9844 141.228 51.7716C141.209 51.5595 141.177 51.379 141.133 51.2302C141.095 51.0821 141.037 50.9439 140.961 50.8157C140.752 50.8054 140.42 51.019 139.965 51.4566C139.504 51.8995 139.09 52.3475 138.723 52.8006C138.363 53.2483 138.015 53.6973 137.679 54.1476C137.581 54.2812 137.468 54.4342 137.342 54.6068C137.215 54.7793 137.085 54.9546 136.952 55.1324C136.826 55.305 136.7 55.4687 136.576 55.6234C136.457 55.7788 136.354 55.9058 136.265 56.0044C136.216 56.0652 136.136 56.1137 136.024 56.1498C135.919 56.1805 135.805 56.2074 135.683 56.2303C135.567 56.2479 135.451 56.2596 135.337 56.2654C135.223 56.2652 135.136 56.2619 135.077 56.2556C134.982 56.2455 134.904 56.1891 134.843 56.0865C134.788 55.9787 134.749 55.8365 134.726 55.6599C134.704 55.4774 134.693 55.2633 134.696 55.0174C134.704 54.7722 134.724 54.5042 134.755 54.2134C134.784 53.9404 134.835 53.6307 134.908 53.2844C134.981 52.938 135.061 52.5834 135.148 52.2205C135.24 51.8583 135.335 51.5023 135.433 51.1525C135.531 50.7968 135.619 50.4791 135.697 50.1993C135.804 49.8146 135.89 49.4847 135.955 49.2095C136.021 48.9344 136.063 48.7049 136.083 48.5209C136.098 48.3785 136.152 48.2642 136.246 48.1781C136.34 48.0861 136.461 48.048 136.609 48.0639C137.202 48.1273 137.456 48.5655 137.369 49.3786C137.348 49.5744 137.31 49.7924 137.254 50.0326C137.198 50.2727 137.132 50.5267 137.056 50.7947C136.986 51.0573 136.909 51.3282 136.825 51.6074C136.747 51.8812 136.668 52.1518 136.585 52.4191C136.508 52.687 136.439 52.9467 136.376 53.1981C136.313 53.4494 136.264 53.6784 136.23 53.8848C136.407 53.7476 136.635 53.5259 136.914 53.2195C137.192 52.9132 137.523 52.5163 137.905 52.0289C138.293 51.5421 138.651 51.1152 138.978 50.748C139.312 50.3755 139.619 50.0601 139.899 49.8019C140.458 49.2913 141.025 49.0668 141.6 49.1283C141.743 49.1435 141.864 49.1924 141.963 49.2751C142.063 49.3517 142.145 49.4565 142.208 49.5894C142.279 49.717 142.332 49.8637 142.368 50.0297C142.405 50.1897 142.432 50.3606 142.449 50.5425C142.484 50.8883 142.504 51.2926 142.508 51.7553C142.513 52.218 142.513 52.6652 142.509 53.0969C142.506 53.5168 142.532 53.8347 142.587 54.0507C142.643 54.2607 142.688 54.3676 142.724 54.3714C142.789 54.3784 142.871 54.3392 142.971 54.2537C143.07 54.1683 143.175 54.0535 143.287 53.9093C143.398 53.7651 143.514 53.6065 143.635 53.4333C143.756 53.2541 143.87 53.0803 143.978 52.9118C144.087 52.7373 144.185 52.5767 144.273 52.43C144.367 52.278 144.443 52.16 144.5 52.0761C144.751 51.6888 144.987 51.3628 145.208 51.0983C145.434 50.8343 145.651 50.6264 145.859 50.4746C146.074 50.3175 146.284 50.2108 146.488 50.1546C146.698 50.0931 146.914 50.074 147.133 50.0975C147.341 50.1197 147.512 50.1799 147.645 50.2782C147.779 50.3706 147.886 50.4931 147.966 50.6456C148.052 50.7988 148.11 50.9792 148.142 51.1867C148.181 51.3889 148.205 51.6106 148.215 51.8517C148.222 52.0145 148.213 52.2357 148.189 52.5153C148.172 52.7895 148.15 53.0842 148.122 53.3994C148.1 53.7152 148.075 54.0337 148.047 54.3548C148.025 54.6706 148.014 54.9485 148.012 55.1884C148.008 55.7342 148.07 56.164 148.198 56.4778C148.333 56.7864 148.57 56.9587 148.908 56.9949C149.086 57.0139 149.295 56.9761 149.533 56.8815C149.777 56.7875 150.041 56.6477 150.325 56.4619C150.609 56.2761 150.912 56.0534 151.234 55.7937C151.562 55.5286 151.902 55.2408 152.253 54.9302C152.379 54.8176 152.5 54.7314 152.614 54.6716C152.735 54.6065 152.837 54.5784 152.92 54.5873C152.968 54.5923 153.007 54.6416 153.039 54.7351C153.078 54.8232 153.093 54.9059 153.085 54.983Z" fill="white"/>
<path d="M2 9.45949L11.9241 9.40376L6.91378 0.837113L2 9.45949ZM24.468 44.3443C26.4796 41.5807 27.8922 37.1272 28.569 32.2432C29.2489 27.3364 29.2027 21.8767 28.2038 17.0312C27.2099 12.2097 25.2429 7.85835 21.96 5.34749C18.6068 2.78295 14.0755 2.27938 8.33483 4.76603L9.01807 6.34334C14.3459 4.03549 18.1812 4.62147 20.9157 6.71286C23.7203 8.85792 25.5619 12.7288 26.5203 17.3783C27.4738 22.0037 27.5236 27.2636 26.8663 32.0073C26.2058 36.7738 24.8478 40.9017 23.0782 43.3327L24.468 44.3443Z" fill="white"/>
<rect y="1" width="171" height="63" fill="#D9D9D9" fill-opacity="0.2"/>
<defs>
<filter id="filter0_f_611_571" x="17.0231" y="21.9615" width="146.841" height="50.613" filterUnits="userSpaceOnUse" color-interpolation-filters="sRGB">
<feFlood flood-opacity="0" result="BackgroundImageFix"/>
<feBlend mode="normal" in="SourceGraphic" in2="BackgroundImageFix" result="shape"/>
<feGaussianBlur stdDeviation="8.02167" result="effect1_foregroundBlur_611_571"/>
</filter>
<filter id="filter1_f_611_571" x="14.609" y="5.44787" width="107.219" height="45.989" filterUnits="userSpaceOnUse" color-interpolation-filters="sRGB">
<feFlood flood-opacity="0" result="BackgroundImageFix"/>
<feBlend mode="normal" in="SourceGraphic" in2="BackgroundImageFix" result="shape"/>
<feGaussianBlur stdDeviation="8.02167" result="effect1_foregroundBlur_611_571"/>
</filter>
</defs>
</svg>
