<svg width="22" height="24" viewBox="0 0 22 24" fill="none" xmlns="http://www.w3.org/2000/svg">
<path fill-rule="evenodd" clip-rule="evenodd" d="M14.7568 11.2868L22 11.3568L18.3249 16.8601L14.7568 11.2868ZM18.3225 3.42687L21.9976 8.93024L14.7544 9.00017L18.3225 3.42687ZM9.36541 10.9139L7.35909 9.37079L7.76796 23.8856C7.76796 23.8856 5.91615 24.4893 5.68557 22.9229C5.48113 21.5477 4.91061 15.662 4.91061 15.662L4.13804 15.697C4.13804 15.697 3.56752 21.0582 3.31554 22.7901C3.05881 24.5476 1.11429 23.8203 1.11429 23.8203L1.70621 13.1563C1.70621 13.1563 -0.314379 11.3894 0.042195 9.84631C0.353603 8.49203 0.776737 6.34988 0.776737 6.34988C2.40984 4.75318 6.14674 4.66228 7.99141 6.30559V6.32191L10.2592 8.75542C10.2592 8.75542 11.2957 8.91859 12.2109 9.02348C13.611 9.18665 13.1784 10.6551 13.1784 10.6551L9.36541 10.9139ZM2.54296 2.19147C2.20303 -0.428513 6.53659 -0.943654 6.53659 1.99334C6.53659 4.97462 2.86388 4.71356 2.54296 2.19147Z" fill="#773844"/>
</svg>
