<svg width="157" height="32" viewBox="0 0 157 32" fill="none" xmlns="http://www.w3.org/2000/svg">
<g clip-path="url(#clip0_1_16824)">
<path d="M0 0H27.3234V1.83541H1.82156V30.3241H27.1651V32H0V0Z" fill="#BBAE91"/>
<path d="M24.2333 10.6934H13.9375V12.6884H22.4909V19.7906H13.9375V21.7058H24.2333V10.6934Z" fill="#BBAE91"/>
<path d="M45.2533 29.9692V15.5293H47.913C50.3346 15.5293 54.5823 15.8493 55.7336 16.0493V14.4493C54.5823 14.6893 50.3346 15.0493 47.913 15.0493H45.2533V2.0093H49.6598C53.8678 2.0093 57.3215 2.0893 60.021 3.68929L59.9019 1.5293H41.8789V30.4492H60.4577L60.8943 28.0892C57.2421 29.8092 51.6447 29.9692 47.7939 29.9692H45.2533Z" fill="black"/>
<path d="M83.3782 23.2087C83.3782 18.4887 79.0511 15.9287 74.9622 13.7287C71.0717 11.7287 67.6577 9.76866 67.6577 5.88866C67.6577 3.64866 68.9677 1.36867 73.4933 1.36867C77.1456 1.36867 79.5275 3.00866 80.9963 5.08866L81.2345 2.84866C79.2099 1.72867 76.6692 0.888672 73.4933 0.888672C67.3004 0.888672 64.7994 4.16866 64.7994 7.72866C64.7994 12.0887 68.6898 14.4087 72.9772 16.7287C76.9471 18.7687 80.4802 21.4087 80.4802 24.9687C80.4802 27.8086 78.535 30.5286 73.7315 30.5286C69.325 30.5286 66.4667 28.4086 64.8788 26.4086L64.6406 28.6486C68.5707 30.8486 72.5803 31.0086 73.7712 31.0086C79.8847 31.0086 83.3782 27.3286 83.3782 23.2087Z" fill="black"/>
<path d="M100.177 30.4492V2.0093H102.877C108.038 2.0093 109.864 3.00929 111.055 3.68929L110.936 1.5293H86.0449L85.9258 3.68929C87.1167 3.00929 88.9825 2.0093 94.1433 2.0093H96.8031V30.4492H100.177Z" fill="black"/>
<path d="M118.64 29.9692V15.5293H121.3C123.721 15.5293 127.969 15.8493 129.12 16.0493V14.4493C127.969 14.6893 123.721 15.0493 121.3 15.0493H118.64V2.0093H123.046C127.254 2.0093 130.708 2.0893 133.408 3.68929L133.289 1.5293H115.266V30.4492H133.844L134.281 28.0892C130.629 29.8092 125.031 29.9692 121.181 29.9692H118.64Z" fill="black"/>
<path d="M156.769 23.2087C156.769 18.4887 152.442 15.9287 148.353 13.7287C144.462 11.7287 141.048 9.76866 141.048 5.88866C141.048 3.64866 142.358 1.36867 146.884 1.36867C150.536 1.36867 152.918 3.00866 154.387 5.08866L154.625 2.84866C152.6 1.72867 150.06 0.888672 146.884 0.888672C140.691 0.888672 138.19 4.16866 138.19 7.72866C138.19 12.0887 142.08 14.4087 146.368 16.7287C150.338 18.7687 153.871 21.4087 153.871 24.9687C153.871 27.8086 151.926 30.5286 147.122 30.5286C142.716 30.5286 139.857 28.4086 138.269 26.4086L138.031 28.6486C141.961 30.8486 145.971 31.0086 147.162 31.0086C153.275 31.0086 156.769 27.3286 156.769 23.2087Z" fill="black"/>
</g>
<defs>
<clipPath id="clip0_1_16824">
<rect width="157" height="32" fill="white"/>
</clipPath>
</defs>
</svg>
