<svg width="22" height="16" viewBox="0 0 22 16" fill="none" xmlns="http://www.w3.org/2000/svg">
<path fill-rule="evenodd" clip-rule="evenodd" d="M21.1514 5.56834C21.1514 5.02347 20.6489 4.57769 20.0345 4.57769H18.6988L17.7303 2.34425C17.4897 1.78957 16.7656 1.20195 16.1211 1.03863L16.1209 1.03858L16.1199 1.03833C16.0682 1.02565 14.3956 0.615234 10.9975 0.615234C7.54501 0.615234 5.87377 1.03889 5.87377 1.03889C5.22936 1.20221 4.50539 1.78957 4.26486 2.34451L3.29637 4.57772H1.96071C1.34636 4.57772 0.84375 5.02347 0.84375 5.56837C0.84375 6.11315 1.34633 6.55903 1.96071 6.55903H2.4371L2.09344 7.35156C1.85292 7.90598 1.65603 8.8464 1.65603 9.44077V14.1237C1.65603 14.8171 2.29576 15.3845 3.07753 15.3845C3.8593 15.3845 4.49903 14.8171 4.49903 14.1237V13.4033H17.4959V14.1237C17.4959 14.8171 18.1356 15.3845 18.9174 15.3845C19.6992 15.3845 20.3389 14.8171 20.3389 14.1237L20.3392 9.44077C20.3392 8.8464 20.1421 7.90598 19.9018 7.35143L19.558 6.55903H20.0345C20.6489 6.55903 21.1514 6.11312 21.1514 5.56834ZM4.43646 5.86082L5.5772 3.11465C5.65454 2.92871 5.90046 2.77655 6.12384 2.77655H15.8715C16.0949 2.77655 16.3409 2.9287 16.418 3.11439L17.5587 5.86057C17.6358 6.04651 17.5164 6.19866 17.293 6.19866H4.70227C4.47888 6.19866 4.35926 6.04652 4.43646 5.86082ZM6.78279 9.40847C6.78279 10.1629 6.0966 10.7744 5.25014 10.7744C4.40367 10.7744 3.71748 10.1629 3.71748 9.40847C3.71748 8.65409 4.40367 8.04253 5.25014 8.04253C6.0966 8.04253 6.78279 8.65409 6.78279 9.40847ZM16.7451 10.7744C17.5915 10.7744 18.2777 10.1629 18.2777 9.40847C18.2777 8.65409 17.5915 8.04253 16.7451 8.04253C15.8986 8.04253 15.2124 8.65409 15.2124 9.40847C15.2124 10.1629 15.8986 10.7744 16.7451 10.7744Z" fill="#BE6833"/>
</svg>
