<svg width="15" height="24" viewBox="0 0 15 24" fill="none" xmlns="http://www.w3.org/2000/svg">
<path fill-rule="evenodd" clip-rule="evenodd" d="M11.9511 12.7692C11.2024 12.2323 10.3133 11.501 10.3133 11.501V8.72398L14.3071 12.105C14.1223 13.1048 12.9548 13.4889 11.9511 12.7692ZM5.37433 2.17018C5.04912 -0.421726 9.30493 -0.940107 9.30493 1.98272C9.30493 4.94721 5.69018 4.68108 5.37433 2.17018ZM9.11776 5.96314L9.27452 14.1577L13.5444 23.4145C13.032 24.0023 11.6914 24.2962 11.0339 23.1322C9.49678 20.413 5.0538 12.4753 5.0538 12.4753L4.511 8.68696L2.99257 9.18219L2.24155 13.3038C2.24155 13.3038 0.353453 13.5352 0.465756 12.0217C0.585078 10.4619 0.779268 7.49283 0.779268 7.49283L4.88768 5.05598C7.69994 4.84076 9.12946 5.9724 9.12946 5.9724L9.11776 5.96314ZM4.43847 14.0142L6.18853 17.1083L2.73287 24C1.88124 24 0.695041 23.1993 1.2589 21.8547C1.79935 20.5727 4.45251 14.0235 4.45251 14.0235L4.43847 14.0142Z" fill="#465587"/>
</svg>
