<svg width="24" height="20" viewBox="0 0 24 20" fill="none" xmlns="http://www.w3.org/2000/svg">
<path d="M22.4688 0.6711C22.4334 0.686887 18.8838 2.16053 11.9998 2.16053C5.11567 2.16053 1.60711 0.702679 1.53365 0.6711L1.40088 0.613003C0.740188 0.323894 0 0.80795 0 1.52913V18.5988C0 19.2853 0.675886 19.7677 1.3251 19.5445L1.4546 19.5C4.86797 18.4714 8.42455 17.9551 12 17.9683C15.5747 17.9508 19.131 18.463 22.5454 19.4867L22.6673 19.5297C23.3179 19.7593 24 19.2766 24 18.5867V1.53197C24 0.815532 23.2687 0.331525 22.6093 0.611472L22.4688 0.6711ZM21.8204 17.0813C15.3812 15.4573 8.6185 15.4573 2.17928 17.0813V3.10531C3.94171 3.59746 7.21896 4.26579 11.9999 4.26579C16.7808 4.26579 20.058 3.59742 21.8204 3.10531V17.0813Z" fill="#773844"/>
<path d="M13.0597 11.7736L10.5045 8.43675L6.62792 13.6839H17.3723L14.5364 10.2603L13.0597 11.7736Z" fill="#773844"/>
<path d="M15.2741 7.82897C15.2741 8.66454 14.5727 9.34208 13.7077 9.34208C12.8426 9.34208 12.1412 8.66454 12.1412 7.82897C12.1412 6.99321 12.8426 6.31586 13.7077 6.31586C14.5727 6.31586 15.2741 6.99321 15.2741 7.82897Z" fill="#773844"/>
</svg>
