<svg width="54" height="44" viewBox="0 0 54 44" fill="none" xmlns="http://www.w3.org/2000/svg">
<path fill-rule="evenodd" clip-rule="evenodd" d="M23.582 37.3321L23.7122 34.5391C30.7221 34.2392 34.1319 30.6544 34.1319 24.5865C34.1319 17.2548 27.9382 14.8453 23.8674 15.7009C24.3581 14.2651 26.4761 3.53554 17.5184 3.53554C8.88623 3.53554 10.7088 12.19 11.0293 13.8619C4.56012 13.8619 3.35341 19.4823 3.35341 22.1524C3.35341 25.6978 6.48784 29.4497 13.1122 29.4497V32.4886C-2.86538 32.4886 -3.51129 14.6536 7.22388 11.1672C6.25251 4.519 10.8941 0 17.4934 0C23.5019 0 28.3287 4.39115 27.6477 12.19L36.1598 0L47.4207 14.5208L43.6253 16.0648L50.45 23.844L44.8871 25.8896L54 36.7076L23.582 37.3321ZM9.06148 20.0183L9.97778 18.0858L16.1165 21.6115L16.3818 12.5834L19.7065 11.9785L20.6779 25.865L28.2987 20.4855L29.5204 23.0228L21.0084 31.3822L21.8445 44L15.4755 43.7L15.9763 27.3304L9.06148 20.0183ZM41.297 39.4318L41.7377 43.7345H32.9052L33.3508 38.9991L41.297 39.4318Z" fill="white"/>
</svg>
