<svg width="103" height="72" viewBox="0 0 103 72" fill="none" xmlns="http://www.w3.org/2000/svg">
<path d="M96.9529 18.3906C98.3293 20.1594 99.4946 22.0811 100.425 24.1171L74.0308 43.4564L63 36.5833V28.3146L74.0308 35.1877L96.9529 18.3906Z" fill="#21A038"/>
<path d="M51.741 35.9981C51.741 35.627 51.7501 35.2585 51.7683 34.892L45.0833 34.5664C45.0605 35.0413 45.0469 35.5209 45.0469 36.0048C45.044 39.7859 45.7923 43.5303 47.2487 47.0232C48.7051 50.5162 50.8411 53.689 53.534 56.3595L58.2758 51.6485C56.2029 49.5965 54.5585 47.1573 53.437 44.4715C52.3155 41.7857 51.7392 38.906 51.741 35.9981Z" fill="url(#paint0_linear_1_18231)"/>
<path d="M74.0209 13.8523C74.394 13.8523 74.7648 13.8659 75.1334 13.884L75.4679 7.23707C74.9887 7.21445 74.5062 7.20315 74.0209 7.20315C70.215 7.19853 66.4459 7.94119 62.9297 9.38848C59.4135 10.8358 56.2195 12.9592 53.5312 15.6368L58.2731 20.35C60.3377 18.289 62.7919 16.6538 65.4945 15.5387C68.197 14.4236 71.0946 13.8505 74.0209 13.8523Z" fill="url(#paint1_linear_1_18231)"/>
<path d="M74.0235 58.1477C73.6504 58.1477 73.2795 58.1477 72.9087 58.1183L72.5742 64.7629C73.0551 64.7871 73.5382 64.7992 74.0235 64.7992C77.8279 64.8031 81.5952 64.06 85.1095 62.6123C88.6238 61.1646 91.8157 59.0409 94.5019 56.3633L89.7692 51.6523C87.7042 53.7123 85.2503 55.3465 82.5482 56.4612C79.8462 57.5759 76.9491 58.1491 74.0235 58.1477Z" fill="url(#paint2_linear_1_18231)"/>
<path d="M86.5848 17.7159L92.2186 13.5884C87.0693 9.44384 80.6416 7.18771 74.0156 7.19926V13.8507C78.5024 13.8452 82.885 15.1929 86.5848 17.7159Z" fill="url(#paint3_linear_1_18231)"/>
<path d="M102.997 35.997C103.001 34.2667 102.848 32.5393 102.542 30.8359L96.3052 35.4044C96.3052 35.6013 96.3052 35.798 96.3052 35.997C96.3068 39.0915 95.6542 42.1519 94.3898 44.9797C93.1252 47.8075 91.2769 50.3396 88.9648 52.4119L93.4633 57.3537C96.4691 54.6564 98.8712 51.3615 100.514 47.6824C102.156 44.0032 103.002 40.022 102.997 35.997Z" fill="#21A038"/>
<path d="M74.0253 58.1457C70.9117 58.1467 67.8326 57.4978 64.9873 56.241C62.1421 54.9842 59.5941 53.1473 57.5084 50.8496L52.5391 55.3186C55.2523 58.3068 58.5672 60.6947 62.2687 62.3276C65.9702 63.9604 69.9755 64.8018 74.0253 64.797V58.1457Z" fill="url(#paint4_linear_1_18231)"/>
<path d="M59.0813 19.5862L54.5852 14.6445C51.5785 17.3412 49.1756 20.636 47.5324 24.3152C45.8892 27.9943 45.0424 31.9757 45.0469 36.0011H51.741C51.7396 32.9067 52.3923 29.8463 53.6568 27.0186C54.9213 24.1909 56.7694 21.6587 59.0813 19.5862Z" fill="url(#paint5_linear_1_18231)"/>
<path fill-rule="evenodd" clip-rule="evenodd" d="M32.9756 68C32.9756 68 59.0216 60.8249 61.9511 17.8879C61.9511 17.8879 48.71 17.3089 32.9756 4C17.2389 17.309 4 17.8879 4 17.8879C6.93008 60.824 32.9756 68 32.9756 68Z" fill="#465587" stroke="#FAF8F5" stroke-width="6"/>
<defs>
<linearGradient id="paint0_linear_1_18231" x1="54.8878" y1="55.5295" x2="47.6535" y2="34.4896" gradientUnits="userSpaceOnUse">
<stop offset="0.14" stop-color="#F1E813"/>
<stop offset="0.3" stop-color="#E6E418"/>
<stop offset="0.58" stop-color="#C9DA26"/>
<stop offset="0.89" stop-color="#A2CC39"/>
</linearGradient>
<linearGradient id="paint1_linear_1_18231" x1="55.4425" y1="16.8128" x2="74.2511" y2="9.60165" gradientUnits="userSpaceOnUse">
<stop offset="0.06" stop-color="#0FA7DF"/>
<stop offset="0.54" stop-color="#0098F8"/>
<stop offset="0.92" stop-color="#0290EA"/>
</linearGradient>
<linearGradient id="paint2_linear_1_18231" x1="72.1329" y1="60.7847" x2="93.4221" y2="55.9461" gradientUnits="userSpaceOnUse">
<stop offset="0.12" stop-color="#A2CC39"/>
<stop offset="0.28" stop-color="#86C239"/>
<stop offset="0.87" stop-color="#219F38"/>
</linearGradient>
<linearGradient id="paint3_linear_1_18231" x1="72.6232" y1="9.42697" x2="90.8159" y2="15.0752" gradientUnits="userSpaceOnUse">
<stop offset="0.06" stop-color="#0290EA"/>
<stop offset="0.79" stop-color="#0C89CA"/>
</linearGradient>
<linearGradient id="paint4_linear_1_18231" x1="54.2183" y1="54.5089" x2="74.0117" y2="61.9513" gradientUnits="userSpaceOnUse">
<stop offset="0.13" stop-color="#F1E813"/>
<stop offset="0.3" stop-color="#EAE616"/>
<stop offset="0.53" stop-color="#D8DF1F"/>
<stop offset="0.8" stop-color="#BAD52D"/>
<stop offset="0.98" stop-color="#A2CC39"/>
</linearGradient>
<linearGradient id="paint5_linear_1_18231" x1="47.5407" y1="36.8062" x2="55.4141" y2="16.2003" gradientUnits="userSpaceOnUse">
<stop offset="0.07" stop-color="#A2CC39"/>
<stop offset="0.26" stop-color="#81C45E"/>
<stop offset="0.92" stop-color="#0FA7DF"/>
</linearGradient>
</defs>
</svg>
