<svg width="40" height="40" viewBox="0 0 40 40" fill="none" xmlns="http://www.w3.org/2000/svg">
<path fill-rule="evenodd" clip-rule="evenodd" d="M30.007 17.5376C32.5916 14.8574 34.9449 11.9579 37.0412 8.87116C39.0827 12.3409 40.106 16.3279 39.9913 20.3654C38.2242 20.6742 36.4114 20.5806 34.6844 20.0914C32.9575 19.6023 31.3597 18.7299 30.007 17.5376V17.5376ZM25.1188 0.483819C29.0899 1.26991 32.6845 3.38602 35.3245 6.49177C33.1977 9.75833 30.7682 12.812 28.0689 15.6112C26.3388 13.5569 25.1589 11.0869 24.6423 8.43794C24.1257 5.789 24.2898 3.05006 25.1188 0.483819V0.483819ZM26.1398 17.533C24.5767 19.0476 22.7605 20.6766 20.6778 22.3421C15.9085 16.4496 12.0152 9.88266 9.12138 2.84948C12.0011 1.16632 15.2376 0.207559 18.559 0.0536997C19.8397 -0.0285396 21.1247 -0.0163045 22.4036 0.0903065C21.5334 3.08193 21.4195 6.24709 22.0723 9.29494C22.7252 12.3428 24.1239 15.1756 26.1398 17.533V17.533ZM13.4901 27.4441C9.94361 23.3625 4.69848 20.3242 0 19.4182C0.117462 13.7809 2.38087 8.18022 6.83087 4.46014C9.79242 11.5053 13.7226 18.0909 18.5048 24.0214C16.9597 25.17 15.2927 26.3185 13.5036 27.4441H13.4901ZM4.0931 32.4774C1.88296 29.51 0.513173 25.9886 0.131016 22.2918C4.33928 23.3905 8.15372 25.6752 11.1318 28.8809C8.85308 30.1965 6.50819 31.3909 4.10666 32.4591L4.0931 32.4774ZM13.2371 31.7133C14.4614 33.754 15.3966 36.4309 14.6647 39.341C11.4137 38.578 8.42159 36.953 5.99508 34.6326C8.38047 33.5344 10.6574 32.3447 12.8305 31.0727C12.9841 31.2648 13.1196 31.4799 13.2506 31.695L13.2371 31.7133ZM31.8548 36.5864C28.8415 38.7096 24.9923 39.9999 20.3209 39.9999C19.3169 40.0022 18.3136 39.9426 17.3166 39.8215C18.0395 36.7329 17.4612 33.4658 15.5411 30.2719C15.4192 30.066 15.2881 29.8601 15.1571 29.6588C16.9371 28.5331 18.6403 27.3709 20.2622 26.1492C23.6605 30.1252 27.5631 33.6285 31.8684 36.5681L31.8548 36.5864ZM28.096 19.4869C31.5431 22.4886 35.6407 23.756 39.7745 23.2115C39.1798 27.5733 37.1897 31.6173 34.1092 34.7241C30.8022 32.6513 26.7226 29.2973 22.4759 24.447C24.4818 22.8317 26.3431 21.1662 28.096 19.4869Z" fill="#D5B753"/>
</svg>
