<svg width="34" height="40" viewBox="0 0 34 40" fill="none" xmlns="http://www.w3.org/2000/svg">
<path fill-rule="evenodd" clip-rule="evenodd" d="M29.3779 40L5.50669 39.9624C-0.757448 34.6339 -1.52842 25.3711 2.43726 18.7468C1.91204 15.1506 1.15071 9.89717 0.717035 6.67187C-0.477971 -2.19654 34.6108 -2.45006 33.2568 7.2728C32.5389 12.437 31.9269 16.329 31.5125 18.8501C35.43 25.4838 34.7217 34.709 29.3779 40ZM6.24875 9.1601C6.88962 10.9112 7.25583 12.5356 8.14245 13.1225C10.7992 11.6549 13.8104 10.9061 16.8641 10.9535C19.8224 10.9064 22.7449 11.5895 25.3592 12.9394C26.5783 12.6483 27.1613 11.6342 27.8793 9.40422C29.7585 3.62497 4.33578 3.8691 6.27284 9.1601H6.24875Z" fill="#D5B753"/>
</svg>
