<svg width="40" height="40" viewBox="0 0 40 40" fill="none" xmlns="http://www.w3.org/2000/svg">
<path fill-rule="evenodd" clip-rule="evenodd" d="M20.7009 40C-7.45856 40 -6.18708 0 20.2452 0C46.5862 0 46.4313 40 20.7009 40ZM34.154 19.1233L26.8076 15.7662L26.1787 6.9317L31.6885 6.75501C28.904 4.26776 25.085 2.67754 20.2178 2.67754C19.794 2.67754 19.3793 2.67754 18.9737 2.71831L21.1931 5.36867L14.0245 10.5425L6.05378 9.5141C4.79487 11.2755 3.86836 13.2497 3.31941 15.3404L6.25886 22.1361L3.52449 25.6926C4.5709 29.1621 6.77042 32.1761 9.76341 34.2417L13.6462 33.612L16.6312 36.9645C17.9435 37.1912 19.2732 37.3034 20.6052 37.2998C22.4435 37.3129 24.2734 37.0502 26.0329 36.5206L26.4886 29.7927L34.0218 24.3561L35.9815 27.1333C37.4108 23.4323 37.6856 19.3891 36.7699 15.5306L34.154 19.1233ZM8.35065 22.4216L14.2751 14.3527L24.0368 17.5241V27.7631L14.6032 30.7079L8.35065 22.4216Z" fill="#D5B753"/>
</svg>
