<svg width="43" height="40" viewBox="0 0 43 40" fill="none" xmlns="http://www.w3.org/2000/svg">
<path fill-rule="evenodd" clip-rule="evenodd" d="M37.9571 29.5043L37.4312 31.3837L17.1939 19.1015L17.0238 13.6874C17.0238 13.6874 21.301 16.7193 23.0335 18.096C23.4507 18.3861 23.7624 18.8041 23.9214 19.2868C24.0805 19.7695 24.0783 20.2908 23.9152 20.7721L33.0496 26.4878L34.5385 20.3931L36.5533 22.8991L39.4267 22.9919L40.1576 24.4111H43C43 28.0811 41.6929 29.5739 37.9571 29.5043ZM14.6029 19.3451L19.9204 39.5822C19.9204 39.5822 16.9774 40.897 16.1034 38.422C15.2951 36.1365 11.2771 25.6603 11.2771 25.6603L9.66831 26.3873C9.66831 26.3873 6.27288 35.7923 5.19392 38.4491C4.08403 41.1793 1.28415 39.4739 1.28415 39.4739L6.45077 20.0219L6.22647 14.8205L4.17684 15.3387L2.94319 22.2262C2.94319 22.2262 -0.177663 22.6322 0.0079642 20.0876C0.197459 17.4811 0.518439 12.5118 0.518439 12.5118L7.3093 8.44734C12.1085 8.19211 15.3183 9.6075 14.9471 14.8398C14.8388 16.3519 14.6029 19.3451 14.6029 19.3451ZM6.99219 3.64041C6.44691 -0.706324 13.4891 -1.57258 13.4891 3.3117C13.4891 8.25785 7.51813 7.82472 6.99219 3.64041ZM25.845 27.8491L26.6957 29.9567L30.4586 29.0789L36.9284 33.1704L35.5401 38.1358C35.9771 38.1358 36.4566 38.8319 36.4566 39.7214H32.3806L32.2182 35.4211L27.7515 35.22L25.7367 38.1436C26.0998 38.2028 26.426 38.4 26.6473 38.694C26.8685 38.988 26.9676 39.3561 26.9239 39.7214H21.6567L24.65 27.8723L25.845 27.8491Z" fill="#3F4C1C"/>
</svg>
