<svg width="24" height="40" viewBox="0 0 24 40" fill="none" xmlns="http://www.w3.org/2000/svg">
<path fill-rule="evenodd" clip-rule="evenodd" d="M19.9162 21.282C18.6185 20.3872 17.0775 19.1684 17.0775 19.1684V14.54L24 20.175C23.6796 21.8413 21.656 22.4815 19.9162 21.282ZM8.51655 3.61696C7.95285 -0.702877 15.3296 -1.56684 15.3296 3.30454C15.3296 8.24535 9.06402 7.8018 8.51655 3.61696ZM15.0052 9.93857L15.2769 23.5962L22.6779 39.0242C21.7898 40.0039 19.4661 40.4937 18.3265 38.5536C15.6621 34.0217 7.96096 20.7922 7.96096 20.7922L7.02011 14.4783L4.38817 15.3037L3.08639 22.173C3.08639 22.173 -0.186307 22.5587 0.00835167 20.0362C0.215176 17.4366 0.551773 12.488 0.551773 12.488L7.67302 8.42663C12.5476 8.06793 15.0254 9.954 15.0254 9.954L15.0052 9.93857ZM6.89439 23.3571L9.92782 28.5139L3.93802 40C2.46186 40 0.405779 38.6655 1.38313 36.4246C2.31992 34.2878 6.91872 23.3725 6.91872 23.3725L6.89439 23.3571Z" fill="#3F4C1C"/>
</svg>
