<svg width="46" height="33" viewBox="0 0 46 33" fill="none" xmlns="http://www.w3.org/2000/svg">
<path fill-rule="evenodd" clip-rule="evenodd" d="M27.3906 28.5612L27.9834 26.3573L46 25.9699L45.3148 28.4953L27.3906 28.5612ZM36.0639 13.4553L27.7601 16.3254L25.0654 13.4049L0 13.2965L0.716043 11.3327H13.4585C13.6473 11.0622 13.8743 10.8208 14.1322 10.6161C16.4035 8.84216 18.4285 7.4439 20.0993 6.3555C22.6824 4.66286 23.7218 4.58927 26.5975 6.02627L29.1268 11.3017H36.5798L36.0755 13.4669L36.0639 13.4553ZM27.918 2.99734C28.2067 -1.37175 35.2324 -0.875971 34.32 3.90757C33.3884 8.75695 27.6408 7.19601 27.918 2.98959V2.99734ZM4.65428 30.7341L19.926 30.5869L20.0223 28.596L5.39342 28.6619L6.04017 26.8414L20.1185 26.5277L20.3495 21.5389C20.3495 21.5389 16.3728 19.2149 14.0937 17.9948C13.2237 17.5223 12.7078 16.4455 12.5539 15.206L22.1203 15.4965L26.074 19.7029L23.8219 30.5482L44.7989 30.339L44.0752 33L3.98058 32.6359L4.65428 30.7341Z" fill="#3F4C1C"/>
</svg>
