<svg width="213" height="85" viewBox="0 0 213 85" fill="none" xmlns="http://www.w3.org/2000/svg">
<g filter="url(#filter0_d_525_570)">
<path d="M52.8021 13.9169C52.6948 13.8865 52.5886 13.8497 52.4835 13.8065C52.3783 13.7633 52.2853 13.7056 52.2046 13.6333C52.1303 13.5621 52.0714 13.4769 52.0279 13.3776C51.9909 13.2794 51.9837 13.1595 52.0063 13.0181C52.0526 12.7288 52.1641 12.506 52.3408 12.3497C52.5239 12.1944 52.7386 12.1298 52.9849 12.1561C53.302 12.1936 53.5864 12.2292 53.8381 12.2629C54.0909 12.2902 54.3271 12.3181 54.5467 12.3466C54.7663 12.3752 54.9795 12.4027 55.1862 12.4292C55.4004 12.4503 55.6205 12.4756 55.8466 12.5052C56.0726 12.5348 56.3142 12.5701 56.5713 12.6113C56.8359 12.647 57.1354 12.6916 57.4697 12.7451C57.5018 12.7503 57.5988 12.7625 57.7605 12.7818C57.9287 12.8021 58.1263 12.8238 58.3534 12.847C58.5868 12.8712 58.8364 12.8979 59.102 12.9272C59.3677 12.9566 59.6237 12.9843 59.87 13.0106C60.1163 13.0368 60.3365 13.0621 60.5303 13.0866C60.7317 13.1056 60.8747 13.1186 60.9593 13.1255C61.1007 13.1482 61.2704 13.1588 61.4684 13.1576C61.6664 13.1563 61.8714 13.1528 62.0833 13.1472C62.2962 13.1351 62.5048 13.1289 62.7093 13.1287C62.9201 13.1294 63.1027 13.1422 63.257 13.1669C63.3534 13.1823 63.4231 13.2 63.4661 13.2201C63.5154 13.2412 63.5546 13.2639 63.5837 13.2884C63.6202 13.3074 63.6567 13.3264 63.6932 13.3454C63.7362 13.3655 63.7962 13.3817 63.8734 13.3941C64.0212 13.4177 64.1551 13.4259 64.2749 13.4187C64.4012 13.4126 64.5286 13.4198 64.6571 13.4404C64.8757 13.4753 65.0502 13.5593 65.1806 13.6922C65.3184 13.8198 65.3678 14.0057 65.3287 14.25C65.3019 14.4171 65.2493 14.5604 65.1709 14.6797C65.0925 14.799 65.0011 14.8965 64.8966 14.972C64.7922 15.0476 64.6781 15.1019 64.5541 15.1348C64.4366 15.1688 64.3227 15.1802 64.2124 15.1691C64.0175 15.1511 63.8561 15.1912 63.7283 15.2895C63.6015 15.3813 63.499 15.5066 63.4209 15.6655C63.2445 16.0263 63.0669 16.4561 62.8882 16.955C62.7105 17.4474 62.532 17.9859 62.3528 18.5704C62.181 19.1495 62.0105 19.7617 61.8413 20.4072C61.6785 21.0536 61.5211 21.7075 61.3691 22.3689C61.2235 23.0313 61.0849 23.6915 60.9532 24.3496C60.829 25.0022 60.7186 25.6307 60.6219 26.235L60.5663 26.5821C60.554 26.6592 60.5127 26.7318 60.4425 26.7996C60.3787 26.8686 60.3031 26.929 60.2157 26.9809C60.1283 27.0329 60.0397 27.0714 59.9499 27.0966C59.8656 27.1293 59.7972 27.1447 59.7447 27.1429C59.4683 27.0987 59.2743 26.972 59.1627 26.763C59.0501 26.5603 58.9817 26.3285 58.9575 26.0675C58.9398 25.8075 58.9488 25.5453 58.9845 25.2807C59.0203 25.016 59.051 24.8034 59.0767 24.6427C59.124 24.347 59.194 23.9922 59.2866 23.5785C59.3792 23.1647 59.4865 22.7204 59.6087 22.2454C59.7319 21.7641 59.864 21.2676 60.0052 20.7562C60.1474 20.2383 60.2876 19.7333 60.4257 19.2411C60.5712 18.7435 60.71 18.2679 60.8419 17.8143C60.9803 17.3618 61.1007 16.9591 61.2034 16.6063C61.3124 16.2545 61.4015 15.9655 61.4707 15.7392C61.5399 15.5129 61.5813 15.3778 61.5949 15.3338C61.6453 15.1836 61.6306 15.0692 61.5509 14.9905C61.4787 14.9064 61.3021 14.8353 61.0213 14.7772C60.7845 14.7327 60.5407 14.6904 60.29 14.6503C60.0468 14.6047 59.8062 14.563 59.5683 14.5249C59.3315 14.4804 59.1102 14.4417 58.9045 14.4088C58.6988 14.3759 58.522 14.3476 58.3742 14.3239C58.1492 14.2879 57.8851 14.2489 57.5819 14.207C57.2787 14.1651 56.9767 14.1365 56.6758 14.1214C56.376 14.0998 56.0956 14.101 55.8346 14.1252C55.581 14.144 55.3909 14.1993 55.2641 14.2911C55.2119 14.3289 55.1435 14.4267 55.0589 14.5846C54.9817 14.7371 54.8959 14.9442 54.8012 15.206C54.7066 15.4677 54.6042 15.7777 54.4942 16.1359C54.3851 16.4877 54.2758 16.8823 54.1663 17.3197C54.0817 17.6424 53.9753 17.9979 53.8473 18.3862C53.7267 18.7691 53.5971 19.167 53.4584 19.58C53.3209 19.9865 53.1796 20.3958 53.0345 20.8077C52.8959 21.2207 52.7663 21.6186 52.6457 22.0015C52.6153 22.1088 52.5676 22.2627 52.5026 22.4632C52.4439 22.6648 52.379 22.8852 52.3078 23.1243C52.243 23.3645 52.1809 23.6084 52.1215 23.856C52.0631 24.0973 52.0195 24.3079 51.9907 24.4879C51.9752 24.5843 51.9652 24.6882 51.9606 24.7995C51.957 24.9044 51.9475 25.0051 51.932 25.1015C51.9145 25.2108 51.8847 25.3148 51.8425 25.4136C51.8068 25.5133 51.7538 25.5972 51.6836 25.6651C51.6124 25.7394 51.5185 25.7903 51.402 25.8178C51.2845 25.8517 51.1385 25.858 50.9639 25.8367C50.7389 25.8007 50.5656 25.7301 50.4439 25.6249C50.3277 25.5272 50.244 25.4116 50.1928 25.2782C50.1481 25.1457 50.1279 25.004 50.1323 24.8531C50.1367 24.7021 50.1491 24.5624 50.1697 24.4338C50.1831 24.3502 50.2053 24.2318 50.2364 24.0786C50.275 23.9199 50.3146 23.7548 50.3553 23.5833C50.4033 23.4064 50.4499 23.2391 50.4949 23.0815C50.5409 22.9174 50.5808 22.7919 50.6145 22.705C50.6597 22.587 50.7139 22.4341 50.7769 22.2464C50.8473 22.0533 50.9231 21.8478 51.0041 21.63C51.0851 21.4122 51.1639 21.1875 51.2405 20.9558C51.3246 20.7187 51.3997 20.4967 51.4658 20.2897C51.6232 19.8006 51.787 19.3125 51.9572 18.8255C52.1285 18.332 52.2923 17.844 52.4487 17.3613C52.605 16.8787 52.7475 16.4004 52.8761 15.9265C53.0047 15.4525 53.105 14.9906 53.177 14.5406C53.2047 14.367 53.1932 14.2333 53.1423 14.1394C53.0988 14.0402 52.9854 13.966 52.8021 13.9169ZM82.1755 23.127C82.1601 23.2234 82.0988 23.3389 81.9915 23.4734C81.8907 23.6089 81.7622 23.7532 81.6058 23.9062C81.4559 24.0602 81.2889 24.2181 81.1048 24.3798C80.9206 24.5415 80.744 24.6979 80.5748 24.8488C79.9787 25.36 79.3903 25.823 78.8097 26.2378C78.2365 26.6471 77.687 26.9911 77.1611 27.2695C76.6352 27.548 76.141 27.7524 75.6784 27.8828C75.2232 28.0078 74.8124 28.0409 74.446 27.9823C73.9896 27.9092 73.6422 27.7317 73.4038 27.4496C73.1654 27.1675 72.9968 26.8207 72.8978 26.4093C72.7998 25.9914 72.7546 25.5325 72.762 25.0327C72.7705 24.5263 72.7961 24.0162 72.8388 23.5021C72.6264 23.7582 72.3916 24.0306 72.1345 24.3191C71.8783 24.6011 71.6136 24.8753 71.3403 25.1414C71.0669 25.4075 70.7961 25.6576 70.5279 25.8916C70.2607 26.1192 70.0131 26.307 69.785 26.4551C69.5057 26.6346 69.2285 26.8012 68.9534 26.955C68.6857 27.1034 68.4088 27.2272 68.1225 27.3264C67.8438 27.4203 67.5499 27.4853 67.2408 27.5216C66.9392 27.5524 66.6148 27.5401 66.2676 27.4845C65.7598 27.4033 65.3946 27.1306 65.1722 26.6664C64.9562 26.2033 64.8919 25.6985 64.9794 25.1521C65.0349 24.8049 65.1162 24.4619 65.2232 24.123C65.3301 23.7841 65.4398 23.4489 65.5522 23.1174C65.671 22.787 65.7829 22.4587 65.8878 22.1327C65.9937 21.8002 66.0724 21.4732 66.1239 21.1518C66.1517 20.9782 66.1769 20.8207 66.1995 20.6793C66.2231 20.5314 66.2485 20.3937 66.2755 20.2662C66.3035 20.1322 66.3342 20.002 66.3677 19.8755C66.4011 19.7489 66.442 19.617 66.4903 19.4797C66.5639 19.2673 66.681 19.0916 66.8417 18.9524C67.0025 18.8133 67.2275 18.7669 67.5168 18.8132C68.1082 18.9079 68.3386 19.3634 68.2079 20.1798C68.1853 20.3213 68.144 20.4762 68.0841 20.6446C68.0317 20.8077 67.9712 20.9793 67.9028 21.1596C67.8354 21.3334 67.7638 21.5131 67.688 21.6988C67.6196 21.879 67.5549 22.0566 67.4939 22.2315C67.2851 22.7123 67.0992 23.1738 66.9362 23.6158C66.7741 24.0514 66.6628 24.4588 66.6021 24.8381C66.5867 24.9346 66.582 25.0459 66.5882 25.1722C66.5954 25.292 66.616 25.4107 66.6499 25.5282C66.6849 25.6393 66.7385 25.7369 66.8107 25.8209C66.8894 25.9061 66.9866 25.9579 67.1023 25.9764C67.4431 26.0309 67.7731 26.0079 68.0925 25.9074C68.4183 25.8079 68.7278 25.6662 69.0209 25.4823C69.3215 25.2931 69.6065 25.0782 69.8757 24.8378C70.1524 24.592 70.4179 24.3543 70.6722 24.1246C70.9201 23.894 71.1864 23.6102 71.4711 23.2734C71.7632 22.9311 72.0445 22.5739 72.315 22.2019C72.5866 21.8233 72.8416 21.4455 73.0799 21.0682C73.3193 20.6846 73.5162 20.3403 73.6705 20.0353C73.7392 19.8946 73.8198 19.7823 73.9123 19.6982C74.0049 19.6141 74.0976 19.5498 74.1905 19.5053C74.2897 19.4619 74.3832 19.434 74.4709 19.4216C74.5586 19.4093 74.6313 19.4078 74.6892 19.417C74.8628 19.4448 74.9899 19.4948 75.0707 19.5671C75.1524 19.6329 75.1799 19.7494 75.1532 19.9165C75.1326 20.0451 75.0888 20.2161 75.0217 20.4295C74.961 20.644 74.8923 20.8671 74.8157 21.0988C74.739 21.3304 74.6672 21.553 74.6 21.7664C74.5393 21.9809 74.4992 22.1492 74.4797 22.2713C74.4622 22.3806 74.4348 22.5312 74.3975 22.723C74.3613 22.9084 74.3267 23.104 74.2937 23.3097C74.2608 23.5154 74.2316 23.7184 74.2062 23.9187C74.1817 24.1126 74.1731 24.2695 74.1803 24.3893C74.1844 24.5284 74.1888 24.7071 74.1934 24.9255C74.2045 25.1448 74.2289 25.363 74.2667 25.58C74.312 25.7917 74.3806 25.9807 74.4727 26.147C74.5711 26.3144 74.7136 26.4131 74.9 26.4429C75.2472 26.4984 75.6558 26.4583 76.1258 26.3226C76.5959 26.1868 77.0971 25.9802 77.6294 25.7028C78.1627 25.4189 78.7187 25.076 79.2973 24.6741C79.8833 24.2668 80.4622 23.822 81.0338 23.3399C81.1019 23.2849 81.1706 23.2266 81.2398 23.1652C81.3154 23.1048 81.3867 23.0502 81.4539 23.0016C81.5274 22.9541 81.5962 22.9156 81.6602 22.8863C81.7307 22.858 81.7916 22.848 81.843 22.8562C81.9138 22.8675 81.9878 22.8992 82.0652 22.9511C82.1501 22.9977 82.1868 23.0563 82.1755 23.127ZM94.2099 23.9451C94.1588 24.1413 94.0927 24.3483 94.0117 24.5661C93.9317 24.7775 93.8427 25.0039 93.7447 25.2454C93.6542 25.4814 93.5606 25.7368 93.4639 26.0114C93.3747 26.2806 93.2925 26.5675 93.2174 26.8719C93.1447 27.2031 93.0932 27.5246 93.0631 27.8362C93.0395 28.1489 93.0504 28.4309 93.0959 28.6821C93.1478 28.9344 93.2455 29.1478 93.389 29.3224C93.5335 29.4906 93.7408 29.5963 94.0108 29.6395C94.3708 29.6971 94.7842 29.6478 95.2509 29.4918C95.7186 29.3293 96.2223 29.0868 96.7618 28.7643C97.3023 28.4355 97.8724 28.0454 98.4721 27.5941C99.0792 27.1374 99.7021 26.6437 100.341 26.113C100.379 26.0796 100.413 26.0553 100.442 26.0401C100.477 26.0259 100.501 26.0199 100.514 26.022C100.539 26.0261 100.573 26.0612 100.616 26.1273C100.665 26.1879 100.676 26.2821 100.649 26.4096C100.61 26.5747 100.53 26.7828 100.411 27.0341C100.298 27.2863 100.097 27.5574 99.8063 27.8472C99.5319 28.1197 99.227 28.3973 98.8917 28.6799C98.5564 28.9625 98.2001 29.2319 97.8229 29.488C97.4456 29.7441 97.0581 29.9821 96.6603 30.2019C96.2635 30.4153 95.8654 30.5956 95.4661 30.7427C95.0678 30.8833 94.6761 30.9822 94.2912 31.0393C93.9137 31.0909 93.5561 31.0799 93.2185 31.0061C92.7361 30.8893 92.3666 30.6851 92.11 30.3935C91.8598 30.1029 91.6863 29.7653 91.5896 29.3806C91.4994 28.9969 91.4667 28.5829 91.4917 28.1386C91.5231 27.6953 91.5786 27.2657 91.6584 26.8499C91.6843 26.7288 91.7256 26.5739 91.7822 26.3851C91.8388 26.1964 91.8884 26.0098 91.9311 25.8254C91.9738 25.6411 91.9995 25.4804 92.0082 25.3433C92.0234 25.2073 91.9994 25.1309 91.9361 25.1142C91.8911 25.107 91.7652 25.1725 91.5585 25.3109C91.3582 25.4503 91.11 25.6413 90.814 25.8841C90.5255 26.1214 90.2083 26.3937 89.8625 26.701C89.523 27.0093 89.1954 27.3261 88.8796 27.6514C88.7924 27.7429 88.6888 27.8549 88.5687 27.9873C88.4497 28.1133 88.3301 28.2425 88.21 28.375C88.0963 28.5084 87.9864 28.6392 87.8802 28.7672C87.775 28.8889 87.6922 28.9943 87.6318 29.0835C87.5364 29.2265 87.4425 29.3598 87.3502 29.4835C87.2653 29.6018 87.1793 29.7067 87.0922 29.7982C87.0124 29.8844 86.9326 29.9507 86.8526 29.9973C86.7801 30.0384 86.7085 30.0533 86.6378 30.042L86.6281 30.0405C86.5906 30.0279 86.5294 29.9983 86.4445 29.9518C86.3607 29.8988 86.2784 29.8362 86.1977 29.7639C86.1169 29.6916 86.0431 29.6172 85.9763 29.5406C85.9169 29.4585 85.8827 29.3838 85.8737 29.3165C85.8701 29.2565 85.8728 29.1779 85.8818 29.0804C85.8908 28.9829 85.9071 28.8603 85.9308 28.7124C85.9544 28.5646 85.9865 28.3851 86.0268 28.174C86.0747 27.9574 86.1287 27.7024 86.1888 27.4087C86.247 27.1279 86.3039 26.8337 86.3597 26.5262C86.422 26.2197 86.4693 25.9239 86.5017 25.639C86.5405 25.3551 86.5555 25.0971 86.5465 24.8649C86.5449 24.6273 86.5127 24.4375 86.4497 24.2956C85.8911 24.3249 85.1401 24.8772 84.1966 25.9526C83.5676 26.6695 83.0254 27.3179 82.57 27.8977C82.1156 28.4711 81.7629 28.9652 81.512 29.38C81.3605 29.6261 81.2264 29.8255 81.1096 29.9783C80.9929 30.131 80.8823 30.2452 80.7779 30.3208C80.6789 30.4038 80.5818 30.4542 80.4867 30.472C80.3905 30.4961 80.2883 30.4963 80.1801 30.4723C80.0214 30.4338 79.8995 30.3714 79.8144 30.2853C79.7293 30.1991 79.6676 30.0903 79.6293 29.9589C79.5899 29.834 79.5665 29.6918 79.5591 29.5323C79.5591 29.3675 79.5616 29.1866 79.5668 28.9896C79.5758 28.7273 79.6132 28.3905 79.6791 27.979C79.7449 27.5676 79.8229 27.1417 79.9132 26.7012C80.0035 26.2607 80.0954 25.8303 80.189 25.4102C80.2826 24.99 80.3595 24.6331 80.4197 24.3394C80.4552 24.2 80.4825 24.0297 80.5015 23.8283C80.5205 23.627 80.5438 23.4197 80.5713 23.2066C80.6053 22.9944 80.6473 22.7935 80.6975 22.6037C80.7486 22.4075 80.8236 22.2481 80.9224 22.1254C81.0818 21.9531 81.2561 21.8524 81.4454 21.8234C81.6347 21.7943 81.8408 21.8042 82.0637 21.8531C82.2406 21.9012 82.3418 21.9899 82.3673 22.1193C82.3927 22.2486 82.3846 22.4022 82.3429 22.5802C82.3054 22.7324 82.26 22.9131 82.2068 23.1221C82.161 23.3258 82.1067 23.5413 82.044 23.7686C81.9823 23.9895 81.92 24.2136 81.8573 24.4409C81.7945 24.6682 81.7333 24.8859 81.6737 25.0939C81.6171 25.2827 81.5522 25.503 81.4789 25.755C81.413 26.0016 81.3472 26.2482 81.2814 26.4948C81.222 26.7425 81.1716 26.975 81.1301 27.1926C81.0962 27.4047 81.0833 27.5675 81.0916 27.6809L81.1109 27.684C81.1559 27.6912 81.2204 27.6587 81.3045 27.5864C81.3896 27.5077 81.489 27.4017 81.6027 27.2682C81.7173 27.1283 81.8415 26.9702 81.9753 26.7938C82.1164 26.612 82.2619 26.4243 82.4115 26.2306C82.5622 26.0306 82.7124 25.8337 82.8621 25.6401C83.0192 25.4411 83.1705 25.2576 83.3161 25.0897C84.1552 24.0899 84.911 23.3834 85.5837 22.9702C86.2639 22.5516 86.8237 22.3906 87.2632 22.4873C87.4926 22.5372 87.6693 22.6479 87.7935 22.8195C87.9177 22.991 88.0041 23.1927 88.0527 23.4246C88.1078 23.6576 88.127 23.908 88.1106 24.1756C88.1005 24.4444 88.0728 24.7004 88.0272 24.9436C88.0015 25.1043 87.9668 25.2801 87.9231 25.4709C87.8868 25.6563 87.8473 25.8412 87.8047 26.0255C87.7684 26.2109 87.7326 26.3931 87.6974 26.5721C87.6696 26.7457 87.6519 26.8978 87.6442 27.0284C87.7594 26.9677 87.9085 26.8597 88.0916 26.7044C88.2757 26.5427 88.4689 26.3659 88.671 26.1741C88.8795 25.9833 89.0849 25.792 89.287 25.6001C89.4966 25.4029 89.6812 25.2379 89.8409 25.1053C90.1965 24.8193 90.5576 24.5408 90.924 24.2698C91.2969 23.9998 91.6539 23.7669 91.9952 23.5709C92.3374 23.3686 92.6554 23.215 92.949 23.1104C93.2427 23.0057 93.4919 22.9731 93.6966 23.0124C93.792 23.0343 93.8731 23.0835 93.94 23.1602C94.0143 23.2314 94.0737 23.3134 94.1182 23.4063C94.1626 23.4991 94.19 23.5958 94.2003 23.6963C94.2181 23.7915 94.2213 23.8744 94.2099 23.9451ZM104.752 27.6001C104.829 27.7773 104.882 27.9803 104.912 28.2092C104.948 28.4327 104.97 28.6503 104.975 28.8622C104.982 29.0677 104.979 29.2518 104.966 29.4146C104.961 29.5719 104.953 29.6796 104.944 29.7374C104.884 30.1103 104.749 30.4809 104.539 30.8494C104.329 31.2115 104.07 31.5557 103.76 31.882C103.457 32.2093 103.119 32.5112 102.745 32.7876C102.379 33.0587 102.006 33.2858 101.627 33.4692C101.254 33.66 100.889 33.7993 100.532 33.8873C100.175 33.9752 99.8581 33.9971 99.5816 33.9528C98.8102 33.8294 98.2926 33.4795 98.0288 32.9033C97.7714 32.328 97.7275 31.51 97.8973 30.4493C97.9395 30.1857 98.0363 29.8485 98.1878 29.4376C98.3467 29.0213 98.5332 28.5764 98.7475 28.103C98.9617 27.6296 99.1908 27.1454 99.4348 26.6504C99.6853 26.1564 99.9237 25.6968 100.15 25.2715C100.376 24.8461 100.574 24.4788 100.742 24.1695C100.917 23.8547 101.041 23.6372 101.113 23.5168C101.15 23.4502 101.209 23.3905 101.29 23.3375C101.378 23.2855 101.467 23.2405 101.559 23.2025C101.651 23.1644 101.741 23.1392 101.828 23.1269C101.917 23.1081 101.99 23.1034 102.048 23.1126C102.17 23.1322 102.269 23.1743 102.344 23.2392C102.426 23.305 102.49 23.3811 102.535 23.4675C102.581 23.5539 102.61 23.6409 102.622 23.7286C102.635 23.8099 102.638 23.8795 102.628 23.9373C102.621 23.9823 102.58 24.0714 102.506 24.2046C102.433 24.3314 102.343 24.485 102.235 24.6655C102.128 24.8396 102.009 25.025 101.879 25.2217C101.755 25.4195 101.638 25.6118 101.529 25.7988C101.421 25.9793 101.329 26.1458 101.252 26.2983C101.175 26.4443 101.131 26.5559 101.119 26.6331C101.137 26.6822 101.156 26.7115 101.174 26.721C101.2 26.7251 101.23 26.7233 101.264 26.7156C101.361 26.685 101.486 26.6457 101.639 26.5976C101.798 26.5505 101.963 26.5077 102.134 26.4692C102.313 26.4252 102.483 26.3931 102.644 26.3727C102.813 26.347 102.955 26.3434 103.071 26.3619C103.508 26.4319 103.863 26.5811 104.137 26.8094C104.411 27.0313 104.616 27.2949 104.752 27.6001ZM103.481 29.4836C103.572 28.9179 103.521 28.4713 103.33 28.144C103.146 27.8112 102.87 27.6155 102.504 27.5569C102.356 27.5332 102.21 27.5395 102.066 27.5758C101.922 27.612 101.779 27.6585 101.638 27.715C101.498 27.7652 101.366 27.8099 101.241 27.8492C101.116 27.8886 101.005 27.9005 100.909 27.8851C100.838 27.8738 100.774 27.8405 100.717 27.7852C100.661 27.7235 100.622 27.6579 100.6 27.5885C100.477 27.7402 100.339 27.9653 100.185 28.2639C100.04 28.557 99.8966 28.8737 99.7565 29.2139C99.6174 29.5477 99.4921 29.8771 99.3808 30.2021C99.2758 30.5281 99.2069 30.794 99.174 30.9998C99.102 31.4498 99.1317 31.8204 99.2631 32.1118C99.4019 32.3977 99.6031 32.5618 99.8667 32.604C100.079 32.6379 100.314 32.6129 100.571 32.5288C100.836 32.4393 101.099 32.3166 101.362 32.1608C101.624 32.005 101.877 31.8246 102.121 31.6197C102.366 31.4083 102.577 31.1982 102.756 30.9894C102.828 30.9087 102.9 30.8113 102.971 30.6974C103.048 30.5845 103.121 30.461 103.188 30.3268C103.256 30.1925 103.314 30.0535 103.364 29.9098C103.42 29.7671 103.459 29.625 103.481 29.4836ZM119.587 29.3313C119.58 29.3763 119.537 29.4617 119.457 29.5874C119.384 29.7142 119.294 29.8448 119.187 29.9793C118.309 30.8081 117.439 31.5886 116.577 32.3209C115.722 33.0479 114.897 33.674 114.101 34.1993C113.306 34.7182 112.551 35.1084 111.837 35.3699C111.129 35.6325 110.483 35.7105 109.9 35.604C109.36 35.5176 108.909 35.353 108.545 35.1103C108.188 34.8686 107.911 34.5637 107.713 34.1957C107.514 33.8278 107.391 33.4058 107.342 32.9298C107.293 32.4474 107.314 31.9265 107.404 31.3673C107.476 30.9172 107.59 30.4509 107.746 29.9683C107.903 29.4856 108.103 29.0134 108.349 28.5515C108.588 28.0887 108.87 27.6459 109.194 27.2231C109.52 26.794 109.892 26.4084 110.309 26.0664C110.476 25.9283 110.662 25.7997 110.865 25.6807C111.07 25.5552 111.282 25.4473 111.501 25.3571C111.726 25.2678 111.951 25.2016 112.175 25.1584C112.406 25.1163 112.629 25.1057 112.843 25.1268C113.069 25.1564 113.271 25.2316 113.45 25.3525C113.629 25.4669 113.778 25.6094 113.895 25.7799C114.013 25.9503 114.098 26.1419 114.15 26.3546C114.201 26.5672 114.213 26.7802 114.186 26.9933C114.128 27.5182 113.89 28.0372 113.472 28.5505C113.061 29.0583 112.449 29.5867 111.636 30.1357C111.488 30.2373 111.303 30.3594 111.083 30.5022C110.862 30.6449 110.624 30.7947 110.368 30.9515C110.12 31.103 109.861 31.2561 109.592 31.4109C109.331 31.5603 109.079 31.6946 108.835 31.8139C108.793 32.0775 108.788 32.3403 108.818 32.6024C108.849 32.8644 108.921 33.1101 109.036 33.3395C109.159 33.5634 109.326 33.755 109.538 33.9142C109.756 34.0744 110.032 34.1813 110.367 34.2347C110.714 34.2903 111.09 34.2681 111.495 34.168C111.901 34.0616 112.326 33.8988 112.77 33.6797C113.221 33.4553 113.683 33.1831 114.156 32.8632C114.637 32.5379 115.125 32.1874 115.62 31.8118C116.117 31.4297 116.616 31.0283 117.118 30.6076C117.627 30.1879 118.13 29.7673 118.626 29.3455C118.656 29.3239 118.697 29.2942 118.749 29.2564C118.801 29.2186 118.857 29.1814 118.915 29.1446C118.981 29.1024 119.046 29.0699 119.109 29.047C119.179 29.0187 119.243 29.0092 119.301 29.0185C119.321 29.0216 119.345 29.0353 119.374 29.0597C119.41 29.0788 119.446 29.1042 119.48 29.1361C119.516 29.1616 119.544 29.1924 119.564 29.2287C119.585 29.2649 119.593 29.2991 119.587 29.3313ZM112.67 27.2552C112.689 27.0539 112.67 26.8859 112.613 26.7515C112.561 26.618 112.461 26.5427 112.312 26.5254C111.969 26.4902 111.598 26.6253 111.199 26.9308C110.801 27.2363 110.4 27.7259 109.995 28.3996C109.913 28.5382 109.829 28.6961 109.741 28.8732C109.655 29.044 109.571 29.2185 109.489 29.3967C109.414 29.5759 109.34 29.7551 109.265 29.9343C109.197 30.1082 109.14 30.2637 109.091 30.4011C109.466 30.2038 109.806 29.9913 110.113 29.7635C110.42 29.5357 110.707 29.3246 110.976 29.1302C111.185 28.979 111.387 28.8267 111.583 28.6735C111.78 28.5138 111.953 28.3569 112.103 28.2029C112.261 28.0435 112.388 27.8859 112.486 27.73C112.591 27.5688 112.652 27.4105 112.67 27.2552ZM123.414 31.7534C123.274 32.6277 123.021 33.3818 122.656 34.0157C122.292 34.6431 121.874 35.1563 121.401 35.5554C120.929 35.9481 120.434 36.2215 119.915 36.3758C119.401 36.5375 118.919 36.5824 118.469 36.5104C118.373 36.495 118.237 36.46 118.061 36.4055C117.884 36.3574 117.696 36.2714 117.499 36.1474C117.3 36.0299 117.102 35.8631 116.906 35.6471C116.716 35.4321 116.557 35.1528 116.427 34.8089C116.299 34.4587 116.214 34.0397 116.173 33.5519C116.134 33.0576 116.168 32.4698 116.278 31.7884C116.441 30.7662 116.687 29.7837 117.016 28.8407C117.352 27.8988 117.733 27.0401 118.16 26.2645C118.588 25.489 119.043 24.8101 119.525 24.228C120.007 23.6458 120.48 23.2039 120.943 22.9023C121.349 22.631 121.755 22.4255 122.16 22.2859C122.564 22.1463 122.982 22.111 123.413 22.1799C123.663 22.22 123.899 22.2939 124.119 22.4017C124.346 22.5105 124.534 22.6527 124.684 22.8283C124.84 23.005 124.951 23.2205 125.015 23.4748C125.088 23.7237 125.098 24.0121 125.045 24.3399C124.962 24.8607 124.631 25.467 124.052 26.159C123.48 26.8455 122.63 27.5666 121.5 28.322C121.558 28.3313 121.633 28.3399 121.724 28.3479C121.821 28.3569 121.921 28.3728 122.023 28.3957C122.131 28.4196 122.237 28.4564 122.341 28.506C122.446 28.5492 122.542 28.6107 122.628 28.6904C122.771 28.8254 122.882 28.9553 122.961 29.08C123.04 29.2047 123.101 29.3199 123.143 29.4256C123.187 29.5249 123.219 29.6092 123.241 29.6786C123.263 29.7481 123.288 29.7982 123.316 29.8291C123.644 30.1716 124.013 30.4416 124.423 30.6391C124.833 30.8366 125.234 30.9667 125.626 31.0295C125.935 31.0789 126.226 31.0957 126.498 31.08C126.772 31.0579 127.029 31.0166 127.27 30.9562C127.518 30.8904 127.748 30.8086 127.962 30.7109C128.176 30.6068 128.382 30.4979 128.578 30.3842C128.723 30.3019 128.856 30.231 128.978 30.1713C129.1 30.1052 129.197 30.0779 129.268 30.0892C129.326 30.0984 129.376 30.1361 129.418 30.2022C129.461 30.2618 129.477 30.327 129.466 30.3977C129.446 30.5199 129.403 30.6679 129.335 30.8417C129.268 31.0155 129.137 31.1759 128.942 31.3227C128.738 31.4813 128.493 31.6333 128.206 31.7786C127.926 31.9249 127.616 32.05 127.276 32.1539C126.937 32.2513 126.58 32.3195 126.205 32.3583C125.837 32.3917 125.46 32.3776 125.074 32.3158C124.798 32.2716 124.515 32.2033 124.227 32.111C123.938 32.0187 123.667 31.8995 123.414 31.7534ZM123.57 24.3511C123.608 24.1132 123.595 23.9067 123.53 23.7316C123.466 23.5565 123.299 23.4473 123.029 23.4041C122.746 23.3589 122.427 23.4364 122.072 23.6367C121.717 23.837 121.345 24.16 120.958 24.6056C120.577 25.0458 120.19 25.6103 119.797 26.2989C119.404 26.9811 119.025 27.7842 118.659 28.7081C119.001 28.5121 119.31 28.3276 119.589 28.1546C119.873 27.9826 120.148 27.809 120.414 27.6339C120.68 27.4523 120.944 27.2639 121.206 27.0684C121.476 26.8676 121.767 26.6372 122.078 26.3772C122.261 26.2284 122.436 26.0619 122.603 25.8778C122.778 25.6947 122.932 25.5117 123.067 25.3289C123.203 25.1396 123.314 24.9596 123.401 24.7889C123.494 24.6192 123.55 24.4732 123.57 24.3511ZM121.974 31.79C122.005 31.5972 122.013 31.4237 121.998 31.2697C121.99 31.1103 121.953 30.9494 121.887 30.7872C121.864 30.7242 121.83 30.6693 121.785 30.6225C121.74 30.5757 121.685 30.5241 121.622 30.4678C121.559 30.405 121.489 30.3311 121.41 30.246C121.331 30.1609 121.243 30.0512 121.146 29.917C121.087 29.8349 121.04 29.7352 121.006 29.6176C120.973 29.4937 120.946 29.3772 120.924 29.2682C120.909 29.1538 120.891 29.0586 120.87 28.9828C120.851 28.9005 120.825 28.8567 120.792 28.8516C120.767 28.8475 120.671 28.8915 120.504 28.9835C120.338 29.0756 120.131 29.1941 119.884 29.3391C119.636 29.4842 119.36 29.6444 119.055 29.8197C118.757 29.9961 118.459 30.1661 118.163 30.3296C118.144 30.3661 118.116 30.4375 118.079 30.5437C118.049 30.6509 118.011 30.7801 117.967 30.9313C117.931 31.0771 117.891 31.2422 117.849 31.4266C117.807 31.6045 117.771 31.79 117.74 31.9828C117.642 32.5935 117.611 33.0995 117.645 33.5006C117.68 33.9018 117.754 34.2235 117.867 34.4657C117.981 34.7015 118.121 34.8724 118.289 34.9783C118.457 35.0843 118.624 35.1506 118.791 35.1774C119.177 35.2391 119.547 35.1698 119.902 34.9695C120.264 34.7702 120.588 34.4989 120.873 34.1556C121.165 33.8134 121.408 33.4334 121.6 33.0158C121.799 32.5928 121.929 32.1917 121.99 31.8124L121.974 31.79ZM132.231 30.8006C132.308 30.3185 132.289 29.9595 132.175 29.7237C132.068 29.4889 131.921 29.3566 131.735 29.3268C131.574 29.3011 131.405 29.307 131.227 29.3445C131.057 29.3766 130.891 29.4291 130.727 29.5019C130.564 29.5746 130.412 29.6591 130.271 29.7553C130.131 29.8514 130.013 29.948 129.919 30.0449C129.731 30.226 129.53 30.4344 129.314 30.6702C129.105 30.907 128.89 31.1562 128.67 31.4177C128.457 31.6802 128.249 31.9502 128.046 32.2277C127.844 32.5051 127.658 32.7787 127.49 33.0485C127.329 33.3128 127.192 33.5711 127.079 33.8234C126.967 34.0692 126.895 34.295 126.862 34.5007C126.813 34.8029 126.832 35.0564 126.918 35.2613C127.005 35.4599 127.209 35.5848 127.53 35.6363C127.64 35.6538 127.811 35.612 128.045 35.5109C128.28 35.4034 128.533 35.2627 128.805 35.0886C129.083 34.9155 129.357 34.7254 129.628 34.5181C129.9 34.3044 130.127 34.0969 130.311 33.8956C130.51 33.6834 130.712 33.4488 130.918 33.1917C131.131 32.9355 131.328 32.6704 131.51 32.3963C131.693 32.1222 131.848 31.8504 131.977 31.5809C132.107 31.305 132.191 31.0449 132.231 30.8006ZM137.603 35.3592C137.579 35.507 137.5 35.6756 137.364 35.8648C137.235 36.0551 137.041 36.2779 136.782 36.5333C136.563 36.7488 136.326 36.9515 136.072 37.1415C135.817 37.3316 135.551 37.4933 135.272 37.6267C134.994 37.7602 134.708 37.8562 134.415 37.9149C134.122 37.9735 133.828 37.9791 133.532 37.9318C133.146 37.8701 132.819 37.732 132.55 37.5175C132.288 37.3041 132.073 37.0358 131.908 36.7125C131.749 36.3839 131.64 36.0169 131.579 35.6117C131.52 35.2 131.503 34.7688 131.529 34.318C131.181 34.6841 130.778 35.0384 130.321 35.3806C129.87 35.7239 129.41 36.026 128.939 36.287C128.477 36.5426 128.026 36.7409 127.588 36.8818C127.158 37.0173 126.788 37.0603 126.48 37.011C126.274 36.978 126.083 36.8947 125.907 36.761C125.737 36.6283 125.592 36.4633 125.471 36.2661C125.358 36.0699 125.277 35.8526 125.23 35.6142C125.182 35.3759 125.178 35.1313 125.218 34.8806C125.259 34.6299 125.32 34.3694 125.403 34.0991C125.492 33.8299 125.61 33.5455 125.757 33.2459C125.911 32.941 126.095 32.6144 126.309 32.2662C126.53 31.9191 126.791 31.5422 127.093 31.1357C127.431 30.6754 127.812 30.2518 128.236 29.8648C128.662 29.4714 129.085 29.1368 129.505 28.8612C129.926 28.5791 130.315 28.3678 130.674 28.2275C131.04 28.0817 131.326 28.0252 131.532 28.0581C131.59 28.0674 131.652 28.0905 131.719 28.1276C131.792 28.1656 131.864 28.2069 131.936 28.2514C132.016 28.2905 132.089 28.3285 132.155 28.3656C132.229 28.3972 132.292 28.4171 132.344 28.4254C132.395 28.4336 132.448 28.4322 132.502 28.4211C132.558 28.4036 132.614 28.3862 132.669 28.3687C132.726 28.3448 132.782 28.3241 132.837 28.3066C132.893 28.2891 132.946 28.2845 132.998 28.2927C133.075 28.305 133.154 28.3441 133.236 28.41C133.318 28.4758 133.394 28.5572 133.464 28.6541C133.535 28.7446 133.595 28.8465 133.643 28.9596C133.69 29.0728 133.72 29.1796 133.73 29.2801C133.737 29.4 133.755 29.4919 133.785 29.5559C133.821 29.6146 133.855 29.6695 133.887 29.7206C133.925 29.7728 133.951 29.8331 133.967 29.9015C133.99 29.9645 133.991 30.0603 133.97 30.1889C133.96 30.2532 133.916 30.3846 133.838 30.5831C133.76 30.7816 133.67 31.0145 133.568 31.2816C133.473 31.5434 133.38 31.8186 133.287 32.1071C133.195 32.3956 133.129 32.662 133.09 32.9063C132.98 33.5941 132.925 34.1655 132.925 34.6204C132.931 35.0763 132.978 35.4431 133.065 35.7209C133.153 35.9986 133.278 36.2033 133.442 36.3349C133.605 36.4666 133.79 36.5489 133.995 36.5818C134.169 36.6096 134.351 36.6057 134.541 36.5703C134.733 36.5283 134.924 36.4634 135.116 36.3755C135.315 36.2886 135.51 36.1813 135.702 36.0538C135.9 35.9273 136.09 35.7928 136.271 35.6503C136.52 35.4529 136.733 35.2958 136.91 35.179C137.088 35.0558 137.225 35.002 137.322 35.0174C137.412 35.0318 137.484 35.0731 137.539 35.1412C137.594 35.2094 137.615 35.282 137.603 35.3592ZM144.254 35.8894C143.787 36.2103 143.274 36.5369 142.713 36.8691C142.159 37.1959 141.582 37.486 140.981 37.7392C140.381 37.9861 139.771 38.172 139.151 38.2969C138.539 38.4165 137.94 38.4295 137.355 38.3359C136.969 38.2741 136.647 38.1633 136.39 38.0034C136.132 37.8434 135.929 37.6494 135.781 37.4213C135.639 37.1942 135.547 36.9422 135.506 36.6653C135.466 36.3819 135.469 36.0924 135.516 35.7966C135.57 35.4624 135.691 35.2015 135.879 35.014C136.061 34.8255 136.319 34.758 136.653 34.8115C136.962 34.8609 137.101 35.1469 137.07 35.6694C137.055 35.8846 137.071 36.0718 137.118 36.231C137.165 36.3902 137.233 36.5262 137.32 36.6391C137.407 36.752 137.512 36.8412 137.633 36.9068C137.761 36.9734 137.896 37.018 138.037 37.0406C138.628 37.1353 139.295 37.0903 140.037 36.9057C140.785 36.7221 141.616 36.3474 142.531 35.7817C142.119 35.7159 141.775 35.6015 141.498 35.4384C141.221 35.2754 141.001 35.082 140.839 34.8583C140.677 34.6346 140.57 34.3934 140.52 34.1347C140.469 33.876 140.464 33.6181 140.505 33.3609C140.581 32.8852 140.752 32.4576 141.017 32.078C141.282 31.6985 141.664 31.3476 142.164 31.0254C142.421 30.8622 142.695 30.7148 142.987 30.5834C143.285 30.4466 143.593 30.3408 143.908 30.266C144.23 30.1858 144.558 30.136 144.891 30.1167C145.225 30.091 145.562 30.1054 145.903 30.16C146.16 30.2011 146.388 30.2804 146.587 30.398C146.793 30.5101 146.96 30.6621 147.087 30.8539C147.222 31.0403 147.311 31.2656 147.355 31.5297C147.405 31.7948 147.403 32.0945 147.35 32.4288C147.317 32.6345 147.264 32.8403 147.191 33.0463C147.12 33.2459 147.047 33.4353 146.972 33.6145C146.904 33.7883 146.84 33.9429 146.779 34.0781C146.719 34.2069 146.684 34.3003 146.675 34.3581C146.667 34.4096 146.669 34.4561 146.682 34.4978C146.695 34.5394 146.708 34.5843 146.72 34.6324C146.74 34.6751 146.754 34.7269 146.764 34.7878C146.774 34.8488 146.772 34.9275 146.756 35.0239C146.748 35.0753 146.711 35.1649 146.644 35.2927C146.585 35.4151 146.512 35.5585 146.427 35.7228C146.342 35.8807 146.257 36.045 146.17 36.2158C146.083 36.3865 146.01 36.5363 145.95 36.6651C145.856 36.8809 145.761 37.1228 145.665 37.391C145.57 37.6592 145.502 37.9187 145.462 38.1694C145.441 38.298 145.429 38.4345 145.426 38.579C145.43 38.7182 145.452 38.847 145.493 38.9655C145.533 39.0841 145.596 39.1864 145.681 39.2726C145.772 39.3597 145.895 39.4157 146.049 39.4404C146.287 39.4784 146.561 39.4563 146.871 39.374C147.187 39.2928 147.524 39.1654 147.882 38.9918C148.247 38.8128 148.627 38.5968 149.024 38.3438C149.428 38.0854 149.833 37.8007 150.238 37.4899C150.389 37.3754 150.523 37.2948 150.643 37.248C150.764 37.1948 150.853 37.1728 150.911 37.1821C150.962 37.1903 151.017 37.2387 151.075 37.3271C151.135 37.4091 151.156 37.5048 151.138 37.6141C151.117 37.7491 151.052 37.887 150.944 38.028C150.842 38.1699 150.716 38.2949 150.567 38.4029C150.172 38.6891 149.752 38.9845 149.308 39.2892C148.871 39.5885 148.415 39.8585 147.942 40.0992C147.476 40.3345 147.002 40.5126 146.521 40.6334C146.039 40.7607 145.567 40.7873 145.104 40.7132C144.828 40.669 144.595 40.579 144.406 40.4432C144.215 40.3138 144.066 40.1516 143.959 39.9564C143.852 39.7612 143.785 39.5396 143.759 39.2914C143.734 39.0369 143.744 38.7649 143.791 38.4756C143.819 38.3021 143.863 38.1048 143.925 37.8839C143.987 37.6631 144.06 37.4341 144.144 37.197C144.228 36.9599 144.315 36.7233 144.406 36.4873C144.497 36.2448 144.589 36.0221 144.681 35.8192L144.254 35.8894ZM146.026 32.4149C146.075 32.1127 146.045 31.8641 145.938 31.6689C145.837 31.4747 145.665 31.3581 145.421 31.319C145.131 31.2727 144.848 31.2735 144.57 31.3213C144.293 31.3627 144.027 31.4356 143.773 31.54C143.526 31.6454 143.294 31.7765 143.077 31.9331C142.861 32.0896 142.669 32.2568 142.503 32.4345C142.342 32.6132 142.21 32.7997 142.106 32.9941C142.004 33.1821 141.939 33.3629 141.911 33.5365C141.894 33.6393 141.892 33.7544 141.905 33.8817C141.918 34.009 141.958 34.1307 142.025 34.247C142.098 34.3642 142.206 34.4706 142.349 34.566C142.493 34.6549 142.691 34.7195 142.941 34.7596C143.057 34.7781 143.204 34.7852 143.383 34.7808C143.569 34.7711 143.753 34.7543 143.935 34.7307C144.117 34.707 144.283 34.6808 144.432 34.652C144.583 34.6168 144.688 34.5808 144.746 34.544C144.848 34.4877 144.966 34.3681 145.1 34.1853C145.242 34.0035 145.376 33.8041 145.503 33.5871C145.637 33.3646 145.751 33.1456 145.845 32.9298C145.945 32.7151 146.006 32.5434 146.026 32.4149ZM165.113 38.4262C164.973 39.3005 164.72 40.0545 164.355 40.6884C163.991 41.3158 163.573 41.8291 163.1 42.2282C162.629 42.6208 162.133 42.8943 161.614 43.0486C161.1 43.2103 160.618 43.2552 160.168 43.1831C160.072 43.1677 159.936 43.1327 159.76 43.0782C159.583 43.0301 159.396 42.9441 159.198 42.8202C158.999 42.7026 158.802 42.5359 158.605 42.3199C158.416 42.1049 158.256 41.8255 158.126 41.4817C157.998 41.1315 157.913 40.7124 157.873 40.2246C157.833 39.7304 157.868 39.1426 157.977 38.4611C158.14 37.439 158.387 36.4564 158.715 35.5135C159.051 34.5716 159.432 33.7128 159.86 32.9373C160.287 32.1617 160.742 31.4829 161.224 30.9007C161.706 30.3186 162.179 29.8767 162.643 29.575C163.049 29.3038 163.454 29.0983 163.859 28.9587C164.263 28.8191 164.681 28.7837 165.112 28.8526C165.363 28.8928 165.598 28.9667 165.818 29.0744C166.045 29.1832 166.233 29.3254 166.383 29.5011C166.539 29.6777 166.65 29.8932 166.715 30.1475C166.787 30.3964 166.797 30.6848 166.744 31.0127C166.661 31.5334 166.33 32.1398 165.751 32.8317C165.18 33.5183 164.329 34.2393 163.199 34.9948C163.257 35.004 163.332 35.0127 163.423 35.0206C163.52 35.0296 163.62 35.0456 163.722 35.0685C163.83 35.0924 163.936 35.1292 164.04 35.1788C164.145 35.222 164.241 35.2834 164.327 35.3632C164.47 35.4982 164.582 35.628 164.661 35.7527C164.739 35.8775 164.8 35.9927 164.843 36.0984C164.886 36.1976 164.919 36.282 164.941 36.3514C164.962 36.4208 164.987 36.471 165.015 36.5018C165.343 36.8443 165.712 37.1144 166.122 37.3119C166.532 37.5094 166.933 37.6395 167.325 37.7022C167.634 37.7516 167.925 37.7685 168.198 37.7528C168.471 37.7307 168.729 37.6894 168.969 37.629C169.217 37.5632 169.447 37.4814 169.661 37.3837C169.875 37.2795 170.081 37.1706 170.277 37.057C170.422 36.9747 170.555 36.9037 170.677 36.8441C170.8 36.778 170.896 36.7506 170.967 36.7619C171.025 36.7712 171.075 36.8089 171.117 36.8749C171.16 36.9346 171.176 36.9998 171.165 37.0705C171.145 37.1926 171.102 37.3406 171.034 37.5145C170.967 37.6883 170.836 37.8486 170.641 37.9954C170.438 38.1541 170.192 38.3061 169.905 38.4513C169.625 38.5977 169.315 38.7228 168.975 38.8266C168.636 38.9241 168.279 38.9922 167.904 39.031C167.536 39.0645 167.159 39.0503 166.773 38.9886C166.497 38.9444 166.215 38.8761 165.926 38.7838C165.637 38.6914 165.366 38.5722 165.113 38.4262ZM165.269 31.0238C165.307 30.786 165.294 30.5795 165.23 30.4044C165.165 30.2293 164.998 30.1201 164.728 30.0769C164.445 30.0316 164.126 30.1092 163.771 30.3095C163.416 30.5098 163.045 30.8327 162.657 31.2784C162.276 31.7186 161.889 32.283 161.496 32.9716C161.103 33.6539 160.724 34.4569 160.359 35.3808C160.7 35.1849 161.01 35.0004 161.288 34.8273C161.572 34.6553 161.847 34.4817 162.113 34.3066C162.379 34.1251 162.643 33.9366 162.906 33.7412C163.175 33.5404 163.466 33.31 163.778 33.05C163.96 32.9011 164.135 32.7346 164.303 32.5505C164.477 32.3674 164.632 32.1845 164.766 32.0016C164.902 31.8124 165.013 31.6324 165.1 31.4616C165.193 31.2919 165.249 31.146 165.269 31.0238ZM163.673 38.4628C163.704 38.2699 163.712 38.0965 163.697 37.9425C163.689 37.783 163.653 37.6222 163.586 37.4599C163.563 37.3969 163.529 37.342 163.484 37.2952C163.439 37.2484 163.384 37.1969 163.321 37.1405C163.258 37.0778 163.188 37.0039 163.109 36.9187C163.03 36.8336 162.942 36.724 162.845 36.5897C162.786 36.5077 162.739 36.4079 162.705 36.2904C162.672 36.1665 162.645 36.05 162.623 35.9409C162.608 35.8265 162.59 35.7314 162.57 35.6555C162.55 35.5732 162.524 35.5295 162.492 35.5244C162.466 35.5202 162.37 35.5642 162.203 35.6563C162.037 35.7483 161.83 35.8669 161.583 36.0119C161.335 36.1569 161.059 36.3171 160.754 36.4925C160.456 36.6689 160.158 36.8388 159.862 37.0024C159.843 37.0389 159.815 37.1103 159.778 37.2165C159.748 37.3237 159.711 37.4529 159.667 37.6041C159.63 37.7499 159.59 37.915 159.548 38.0994C159.506 38.2773 159.47 38.4627 159.439 38.6556C159.341 39.2663 159.31 39.7722 159.344 40.1734C159.379 40.5745 159.453 40.8962 159.566 41.1384C159.68 41.3742 159.821 41.5451 159.988 41.6511C160.156 41.757 160.323 41.8234 160.49 41.8501C160.876 41.9118 161.247 41.8425 161.602 41.6422C161.963 41.4429 162.287 41.1717 162.573 40.8284C162.865 40.4861 163.107 40.1062 163.299 39.6886C163.498 39.2656 163.629 38.8645 163.689 38.4852L163.673 38.4628ZM181.589 39.1738C181.559 39.3602 181.475 39.5379 181.336 39.7068C181.203 39.8768 181.04 40.0288 180.847 40.1627C180.67 40.2859 180.46 40.4007 180.219 40.5072C179.978 40.6136 179.716 40.7004 179.435 40.7675C179.162 40.8292 178.875 40.8691 178.576 40.8871C178.282 40.9061 177.988 40.892 177.692 40.8446C177.352 40.7901 177.058 40.7101 176.811 40.6047C176.565 40.4928 176.358 40.3839 176.191 40.278C176.023 40.172 175.89 40.0782 175.791 39.9964C175.699 39.9092 175.634 39.8625 175.596 39.8564C175.512 39.843 175.454 39.8568 175.421 39.8976C175.388 39.9385 175.366 39.9745 175.354 40.0056C175.31 40.1568 175.263 40.3273 175.213 40.5171C175.17 40.7015 175.102 40.8983 175.01 41.1076C174.924 41.3116 174.807 41.5301 174.657 41.7634C174.509 41.9902 174.307 42.2216 174.052 42.4576C173.872 42.6333 173.654 42.8027 173.397 42.966C173.146 43.1303 172.874 43.2878 172.58 43.4385C172.286 43.5827 171.978 43.7148 171.656 43.8346C171.333 43.9544 171.011 44.0512 170.69 44.125C170.374 44.1999 170.066 44.2495 169.766 44.2739C169.472 44.2993 169.199 44.292 168.948 44.2519C168.518 44.183 168.173 44.0519 167.913 43.8588C167.654 43.6657 167.461 43.4304 167.334 43.1529C167.214 42.8765 167.145 42.5655 167.127 42.2199C167.117 41.8753 167.142 41.5134 167.202 41.1341C167.264 40.7484 167.368 40.3693 167.513 39.997C167.666 39.6193 167.843 39.2521 168.045 38.8954C168.254 38.5398 168.477 38.1964 168.714 37.8652C168.959 37.5286 169.202 37.2048 169.443 36.8939C170.066 36.0904 170.72 35.506 171.405 35.1409C172.097 34.7703 172.784 34.6396 173.466 34.7486C173.813 34.8042 174.148 34.9369 174.47 35.1467C174.793 35.3566 175.043 35.6241 175.222 35.9494C175.274 36.0369 175.323 36.18 175.371 36.3787C175.424 36.5785 175.471 36.7805 175.511 36.9847C175.557 37.1899 175.597 37.3775 175.629 37.5475C175.667 37.7185 175.697 37.8221 175.717 37.8584C175.83 38.061 175.966 38.264 176.124 38.4674C176.284 38.6644 176.469 38.8489 176.679 39.0209C176.888 39.193 177.119 39.3419 177.369 39.4676C177.626 39.588 177.903 39.6718 178.199 39.7191C178.584 39.7808 179.004 39.7524 179.459 39.6339C179.919 39.5164 180.352 39.3252 180.757 39.0604C180.882 38.9814 180.991 38.9165 181.085 38.8656C181.18 38.8082 181.269 38.7863 181.352 38.7996C181.385 38.8048 181.415 38.8228 181.443 38.8536C181.471 38.8845 181.494 38.9213 181.514 38.9639C181.541 39.0012 181.561 39.0407 181.574 39.0824C181.587 39.124 181.592 39.1545 181.589 39.1738ZM173.943 38.504C173.984 38.2469 173.995 38.0541 173.976 37.9258C173.958 37.7911 173.923 37.68 173.871 37.5926C173.819 37.5051 173.758 37.4162 173.686 37.3256C173.615 37.2351 173.548 37.0991 173.485 36.9175C173.417 36.7221 173.351 36.5764 173.287 36.4805C173.23 36.3856 173.111 36.3238 172.931 36.295C172.481 36.223 172.015 36.379 171.531 36.7632C171.29 36.9553 171.052 37.1811 170.82 37.4405C170.588 37.6935 170.364 37.9808 170.148 38.3022C169.976 38.5516 169.803 38.8273 169.63 39.1292C169.457 39.4246 169.296 39.7286 169.147 40.041C168.999 40.3534 168.866 40.6652 168.751 40.9764C168.642 41.2821 168.566 41.5732 168.522 41.8496C168.503 41.9653 168.511 42.082 168.545 42.1995C168.579 42.317 168.641 42.4258 168.73 42.5258C168.82 42.6258 168.931 42.7129 169.064 42.7869C169.204 42.862 169.37 42.915 169.563 42.9459C169.704 42.9685 169.888 42.955 170.113 42.9054C170.345 42.8568 170.583 42.7894 170.828 42.7033C171.073 42.6171 171.302 42.522 171.517 42.4179C171.738 42.3083 171.913 42.2076 172.04 42.1158C172.401 41.8374 172.69 41.577 172.906 41.3348C173.123 41.0926 173.295 40.8399 173.423 40.5769C173.552 40.3074 173.652 40.0102 173.724 39.6855C173.797 39.3543 173.87 38.9604 173.943 38.504ZM185.467 36.3328C185.502 35.244 185.338 34.3936 184.975 33.7816C184.619 33.1642 184.116 32.8035 183.467 32.6996C183.274 32.6688 183.067 32.6653 182.845 32.6892C182.63 32.7142 182.409 32.7579 182.181 32.8204C181.954 32.8828 181.727 32.9587 181.502 33.0479C181.278 33.1307 181.06 33.2177 180.847 33.309C180.656 33.3905 180.514 33.437 180.419 33.4483C180.325 33.4596 180.233 33.458 180.143 33.4436C180.053 33.4292 179.975 33.3805 179.91 33.2974C179.844 33.2144 179.823 33.0957 179.848 32.9414C179.86 32.8643 179.893 32.7806 179.947 32.6903C180.009 32.5947 180.08 32.5005 180.161 32.408C180.248 32.3164 180.341 32.2291 180.44 32.1461C180.545 32.0641 180.645 31.9976 180.739 31.9467C181.286 31.6584 181.846 31.4546 182.419 31.3353C182.999 31.2106 183.531 31.1869 184.013 31.264C184.63 31.3628 185.165 31.6033 185.618 31.9857C186.072 32.3617 186.429 32.8539 186.687 33.4623C186.954 34.0653 187.117 34.7739 187.178 35.588C187.246 36.3967 187.203 37.2832 187.049 38.2475C187 38.5561 186.931 38.8846 186.842 39.233C186.76 39.5825 186.669 39.924 186.569 40.2575C186.471 40.5846 186.369 40.8913 186.264 41.1778C186.16 41.4578 186.063 41.6929 185.973 41.8829C185.684 42.4959 185.329 43.0623 184.91 43.582C184.497 44.1027 184.041 44.5439 183.541 44.9057C183.049 45.2621 182.522 45.524 181.961 45.6914C181.4 45.8588 180.831 45.8962 180.252 45.8036C179.828 45.7357 179.462 45.5914 179.154 45.3708C178.848 45.1437 178.604 44.8574 178.422 44.5118C178.247 44.1608 178.134 43.7569 178.081 43.3003C178.03 42.8371 178.048 42.3356 178.134 41.7956C178.204 41.3584 178.339 40.9283 178.539 40.5053C178.746 40.0769 179.008 39.6707 179.327 39.2865C179.647 38.8959 180.018 38.5333 180.441 38.1988C180.87 37.8653 181.345 37.5721 181.867 37.3194C182.39 37.0602 182.951 36.8468 183.552 36.6791C184.153 36.505 184.792 36.3896 185.467 36.3328ZM180.786 44.4451C181.043 44.4863 181.333 44.4501 181.654 44.3368C181.976 44.2169 182.304 44.0221 182.638 43.7524C182.972 43.4762 183.302 43.1236 183.628 42.6944C183.954 42.2652 184.248 41.7619 184.512 41.1843C184.583 41.0308 184.668 40.8103 184.766 40.5228C184.872 40.2364 184.971 39.9227 185.065 39.5817C185.159 39.2407 185.241 38.8977 185.309 38.5526C185.378 38.2075 185.41 37.8996 185.408 37.6288C184.863 37.6933 184.284 37.8314 183.67 38.043C183.062 38.2557 182.488 38.5494 181.946 38.9243C181.405 39.2993 180.936 39.7583 180.539 40.3013C180.144 40.838 179.888 41.4663 179.773 42.1863C179.659 42.8999 179.688 43.4386 179.86 43.8025C180.04 44.161 180.349 44.3752 180.786 44.4451ZM193.738 40.6431C193.815 40.1609 193.797 39.802 193.683 39.5662C193.575 39.3314 193.428 39.1991 193.242 39.1693C193.081 39.1435 192.912 39.1494 192.735 39.187C192.565 39.2191 192.398 39.2716 192.235 39.3443C192.071 39.4171 191.919 39.5016 191.779 39.5978C191.638 39.6939 191.52 39.7905 191.426 39.8874C191.239 40.0684 191.037 40.2769 190.821 40.5127C190.612 40.7495 190.397 40.9987 190.178 41.2602C189.964 41.5227 189.756 41.7927 189.554 42.0702C189.351 42.3476 189.165 42.6212 188.997 42.891C188.836 43.1553 188.699 43.4136 188.586 43.6659C188.474 43.9117 188.402 44.1375 188.369 44.3432C188.321 44.6453 188.339 44.8989 188.425 45.1038C188.512 45.3023 188.716 45.4273 189.038 45.4788C189.147 45.4962 189.319 45.4545 189.552 45.3534C189.787 45.2459 190.04 45.1051 190.312 44.9311C190.59 44.758 190.865 44.5679 191.135 44.3606C191.407 44.1469 191.635 43.9394 191.818 43.7381C192.017 43.5259 192.22 43.2913 192.426 43.0341C192.638 42.778 192.835 42.5129 193.018 42.2388C193.2 41.9647 193.356 41.6929 193.484 41.4234C193.614 41.1475 193.699 40.8874 193.738 40.6431ZM199.11 45.2016C199.087 45.3495 199.007 45.518 198.871 45.7073C198.742 45.8976 198.548 46.1204 198.29 46.3757C198.07 46.5912 197.834 46.794 197.579 46.984C197.324 47.174 197.058 47.3358 196.779 47.4692C196.501 47.6027 196.215 47.6987 195.922 47.7573C195.629 47.816 195.335 47.8216 195.039 47.7743C194.654 47.7126 194.326 47.5745 194.057 47.36C193.795 47.1466 193.581 46.8782 193.415 46.555C193.256 46.2264 193.147 45.8594 193.087 45.4542C193.027 45.0425 193.011 44.6112 193.037 44.1605C192.688 44.5266 192.285 44.8808 191.828 45.2231C191.378 45.5664 190.917 45.8685 190.447 46.1295C189.984 46.3851 189.533 46.5833 189.096 46.7242C188.665 46.8597 188.296 46.9028 187.987 46.8534C187.781 46.8205 187.59 46.7372 187.414 46.6035C187.244 46.4708 187.099 46.3058 186.979 46.1086C186.865 45.9124 186.784 45.6951 186.737 45.4567C186.689 45.2183 186.686 44.9738 186.726 44.7231C186.766 44.4724 186.827 44.2119 186.91 43.9416C186.999 43.6724 187.117 43.388 187.264 43.0884C187.419 42.7834 187.603 42.4569 187.817 42.1087C188.037 41.7616 188.298 41.3847 188.601 40.9782C188.938 40.5179 189.319 40.0943 189.744 39.7073C190.169 39.3138 190.592 38.9793 191.012 38.7036C191.433 38.4216 191.823 38.2103 192.181 38.0699C192.548 37.9241 192.834 37.8677 193.039 37.9006C193.097 37.9099 193.159 37.933 193.226 37.9701C193.299 38.0081 193.372 38.0494 193.444 38.0939C193.523 38.133 193.596 38.171 193.663 38.208C193.737 38.2397 193.799 38.2596 193.851 38.2678C193.902 38.2761 193.955 38.2747 194.01 38.2636C194.065 38.2461 194.121 38.2286 194.176 38.2111C194.233 38.1872 194.289 38.1665 194.345 38.149C194.4 38.1316 194.454 38.1269 194.505 38.1352C194.582 38.1475 194.662 38.1866 194.743 38.2524C194.825 38.3183 194.901 38.3996 194.971 38.4966C195.043 38.5871 195.102 38.6889 195.15 38.8021C195.198 38.9152 195.227 39.0221 195.237 39.1226C195.244 39.2425 195.263 39.3344 195.292 39.3984C195.329 39.457 195.363 39.5119 195.394 39.5631C195.432 39.6153 195.459 39.6756 195.474 39.744C195.497 39.807 195.498 39.9028 195.477 40.0314C195.467 40.0957 195.423 40.2271 195.345 40.4256C195.267 40.6241 195.177 40.8569 195.075 41.1241C194.98 41.3859 194.887 41.661 194.795 41.9495C194.702 42.2381 194.637 42.5045 194.598 42.7488C194.487 43.4366 194.432 44.008 194.432 44.4629C194.438 44.9188 194.485 45.2856 194.572 45.5633C194.66 45.8411 194.785 46.0458 194.949 46.1774C195.112 46.3091 195.297 46.3914 195.503 46.4243C195.676 46.4521 195.858 46.4482 196.049 46.4127C196.24 46.3708 196.432 46.3059 196.624 46.2179C196.822 46.131 197.017 46.0238 197.209 45.8963C197.407 45.7698 197.597 45.6353 197.778 45.4928C198.027 45.2953 198.24 45.1382 198.417 45.0215C198.595 44.8983 198.732 44.8444 198.829 44.8599C198.919 44.8743 198.991 44.9156 199.046 44.9837C199.101 45.0518 199.123 45.1245 199.11 45.2016ZM60.3932 40.2103C60.3757 40.3196 60.3011 40.456 60.1694 40.6196C60.0442 40.7841 59.9071 40.9402 59.7583 41.0878C59.4147 41.4218 59.0618 41.7115 58.6994 41.9568C58.3371 42.2021 57.9756 42.4014 57.6148 42.5547C57.2615 42.7025 56.9191 42.8027 56.5876 42.8551C56.2626 42.9086 55.9618 42.9132 55.6854 42.869C55.2933 42.8062 54.973 42.6858 54.7246 42.5075C54.4762 42.3293 54.2914 42.0624 54.1703 41.7068C54.0557 41.3522 54.0029 40.8987 54.0122 40.3463C54.0289 39.7886 54.1031 39.0983 54.2348 38.2754C54.0021 38.5349 53.7368 38.8122 53.4391 39.1074C53.1423 39.3962 52.8231 39.6813 52.4813 39.9629C52.146 40.2455 51.7961 40.5159 51.4317 40.7741C51.0684 41.0258 50.707 41.2449 50.3475 41.4313C49.9954 41.6123 49.6506 41.7483 49.313 41.8394C48.9818 41.9314 48.6747 41.9548 48.3919 41.9095C48.3276 41.8993 48.2282 41.8405 48.0937 41.7333C47.9603 41.6196 47.8208 41.4819 47.6752 41.3202C47.5361 41.1594 47.4097 40.981 47.2961 40.7848C47.1824 40.5886 47.117 40.4001 47.0997 40.2193C47.0512 39.8225 47.0582 39.4281 47.121 39.0359C47.1848 38.6373 47.2797 38.2503 47.4057 37.8749C47.5517 37.4565 47.7362 37.0245 47.9592 36.5789C48.1886 36.1343 48.4191 35.7031 48.6508 35.2852C48.8836 34.8609 49.0961 34.4598 49.2884 34.0818C49.4818 33.6974 49.6155 33.3561 49.6896 33.0581C49.7225 33.0172 49.7854 32.9745 49.8782 32.93C49.9721 32.8791 50.0713 32.8357 50.176 32.7997C50.2817 32.7572 50.3821 32.7272 50.4773 32.7094C50.5799 32.6863 50.6569 32.6788 50.7083 32.6871C50.7854 32.6994 50.8649 32.7385 50.9467 32.8043C51.0284 32.8702 51.1017 32.9478 51.1665 33.0373C51.2313 33.1268 51.2795 33.2169 51.3112 33.3077C51.3492 33.3995 51.3631 33.4775 51.3528 33.5418C51.3446 33.5933 51.3114 33.677 51.2533 33.7929C51.2016 33.9099 51.134 34.0442 51.0504 34.1956C50.9679 34.3406 50.8741 34.4938 50.7692 34.655C50.6653 34.8098 50.5635 34.9517 50.4637 35.0808C50.2613 35.3979 50.0615 35.6989 49.8643 35.9838C49.6745 36.2633 49.4971 36.5481 49.332 36.8381C49.1679 37.1218 49.0206 37.4246 48.8899 37.7465C48.7667 38.063 48.6738 38.4174 48.611 38.8095C48.5863 38.9638 48.5772 39.1239 48.5836 39.2897C48.5901 39.4556 48.6114 39.6107 48.6476 39.7549C48.6839 39.8992 48.7339 40.0193 48.7977 40.1152C48.8615 40.2111 48.9416 40.2668 49.038 40.2822C49.1408 40.2987 49.2569 40.2942 49.3863 40.2687C49.5231 40.2379 49.6582 40.1969 49.7917 40.1457C49.9316 40.0955 50.0693 40.0385 50.2048 39.9744C50.3403 39.9104 50.4619 39.8508 50.5697 39.7955C50.8502 39.6492 51.1327 39.4702 51.4171 39.2586C51.7015 39.0469 51.9704 38.8295 52.2237 38.6063C52.4834 38.3842 52.7148 38.174 52.918 37.9757C53.1222 37.771 53.2806 37.6052 53.3932 37.4781C53.5706 37.2758 53.7415 37.0526 53.9058 36.8085C54.0776 36.5591 54.2424 36.3119 54.4003 36.0668C54.5593 35.8153 54.7134 35.573 54.8628 35.3397C55.0197 35.1011 55.1746 34.8951 55.3276 34.7218C55.4871 34.5495 55.65 34.4174 55.8163 34.3253C55.9837 34.2268 56.1542 34.1915 56.3278 34.2192C56.4692 34.2419 56.5744 34.2851 56.6433 34.3489C56.7187 34.4137 56.7727 34.4882 56.8053 34.5726C56.838 34.6569 56.8535 34.7451 56.852 34.8372C56.8504 34.9292 56.8435 35.0138 56.8312 35.091C56.825 35.1296 56.7913 35.2165 56.7301 35.3517C56.6699 35.4806 56.5939 35.6464 56.5021 35.8493C56.4178 36.0468 56.3224 36.2722 56.2159 36.5255C56.1094 36.7787 56.0052 37.039 55.9031 37.3061C55.8074 37.5743 55.7182 37.8436 55.6354 38.1138C55.5536 38.3777 55.4937 38.6285 55.4556 38.8664C55.3723 39.3871 55.3291 39.8219 55.326 40.1709C55.3239 40.5134 55.3551 40.792 55.4197 41.0067C55.4853 41.215 55.5826 41.369 55.7117 41.4688C55.8418 41.5622 55.9968 41.6232 56.1768 41.6521C56.3183 41.6747 56.497 41.6703 56.713 41.6389C56.929 41.6076 57.1625 41.5493 57.4135 41.4642C57.6709 41.3801 57.9388 41.2714 58.2173 41.1379C58.4968 40.998 58.7735 40.8346 59.0474 40.6477C59.1369 40.5829 59.2413 40.5073 59.3606 40.4209C59.4809 40.3281 59.5965 40.2444 59.7074 40.1698C59.8192 40.0888 59.9221 40.0229 60.0159 39.9719C60.1108 39.9146 60.1808 39.8895 60.2258 39.8967C60.3672 39.9194 60.423 40.0239 60.3932 40.2103ZM59.5734 44.6582C59.6377 44.6684 59.6855 44.6992 59.7169 44.7503C59.7547 44.8025 59.7813 44.8628 59.7967 44.9312C59.8111 45.0061 59.8149 45.0858 59.8079 45.1704C59.8074 45.256 59.801 45.3374 59.7886 45.4146C59.765 45.5624 59.765 45.7272 59.7886 45.909C59.8187 46.0919 59.883 46.267 59.9815 46.4344C60.0864 46.6028 60.2308 46.7512 60.4146 46.8795C60.5975 47.0143 60.8335 47.1048 61.1228 47.1511C61.5149 47.2138 61.9364 47.1758 62.3872 47.0369C62.838 46.8981 63.2663 46.6732 63.672 46.3623C64.0778 46.0515 64.4306 45.6596 64.7305 45.1867C65.0357 44.7213 65.2362 44.1896 65.3318 43.5918C65.4203 43.0389 65.4375 42.5603 65.3836 42.1561C65.3296 41.7519 65.2284 41.4159 65.08 41.1482C64.9391 40.8751 64.7585 40.6649 64.5381 40.5176C64.3177 40.3702 64.0886 40.2775 63.8507 40.2394C63.7607 40.225 63.6575 40.2316 63.541 40.2591C63.4256 40.2802 63.3048 40.3136 63.1788 40.3594C63.0603 40.3998 62.9375 40.446 62.8105 40.4982C62.6899 40.5515 62.5799 40.5998 62.4807 40.6433C62.3099 40.7214 62.1482 40.7846 61.9954 40.8326C61.8491 40.8818 61.6635 40.8883 61.4385 40.8523C61.2649 40.8245 61.1241 40.7361 61.0161 40.5869C60.9156 40.4324 60.8828 40.2458 60.9177 40.0272C60.9445 39.8601 61.025 39.7279 61.1592 39.6307C61.2999 39.5346 61.5038 39.4551 61.771 39.3924C62.3395 39.2592 62.8507 39.1135 63.3046 38.9554C63.7659 38.7918 64.1623 38.6014 64.4938 38.3841C64.8263 38.1604 65.0954 37.9002 65.3011 37.6035C65.5068 37.3067 65.6426 36.9526 65.7084 36.5412C65.7342 36.3805 65.7337 36.2189 65.7069 36.0564C65.6876 35.8884 65.6396 35.7357 65.5627 35.5981C65.4868 35.4541 65.3843 35.3322 65.2553 35.2325C65.1336 35.1273 64.9828 35.0603 64.8028 35.0315C64.4171 34.9698 64.0316 35.0301 63.6464 35.2124C63.2612 35.3947 62.8737 35.6327 62.4839 35.9263C62.3113 36.0569 62.1712 36.1499 62.0634 36.2052C61.9567 36.254 61.8487 36.2697 61.7394 36.2522C61.6494 36.2378 61.5726 36.2025 61.5091 36.1461C61.4531 36.0844 61.4077 36.0178 61.373 35.9463C61.3457 35.8695 61.3254 35.7904 61.312 35.7091C61.3061 35.6225 61.3078 35.5502 61.3171 35.4923C61.3417 35.3381 61.4067 35.2001 61.5119 35.0785C61.6245 34.9514 61.7645 34.8387 61.9319 34.7402C62.2965 34.5216 62.647 34.3503 62.9834 34.2261C63.3197 34.1019 63.5942 34.0139 63.8069 33.9623C64.0463 33.9083 64.2916 33.8585 64.5429 33.813C64.8005 33.7685 65.0354 33.7632 65.2476 33.7972C65.5497 33.8455 65.8303 33.9465 66.0892 34.1C66.3492 34.2471 66.5656 34.44 66.7384 34.6786C66.9186 34.9118 67.0462 35.1861 67.121 35.5013C67.2022 35.8176 67.213 36.1622 67.1534 36.5351C67.0669 37.0751 66.8493 37.5908 66.5003 38.0822C66.1578 38.5746 65.6346 39.0216 64.9308 39.4233C65.3584 39.5115 65.717 39.681 66.0065 39.9317C66.2961 40.1824 66.5207 40.4887 66.6804 40.8505C66.8465 41.2133 66.9465 41.6183 66.9804 42.0655C67.0218 42.5073 67.0045 42.966 66.9283 43.4417C66.8522 43.9175 66.7123 44.3797 66.5086 44.8284C66.305 45.2771 66.0497 45.6978 65.743 46.0905C65.4426 46.4841 65.0992 46.838 64.7127 47.1519C64.3326 47.4669 63.9249 47.7281 63.4896 47.9353C63.0606 48.1436 62.612 48.2894 62.1438 48.3727C61.6819 48.457 61.2196 48.4621 60.7567 48.3881C60.3132 48.3171 59.9393 48.1814 59.6351 47.9811C59.3298 47.7872 59.0854 47.5635 58.9018 47.31C58.7247 47.0574 58.6015 46.7971 58.5323 46.5289C58.4632 46.2607 58.4455 46.0205 58.4795 45.8083C58.5052 45.6476 58.5619 45.4787 58.6496 45.3015C58.7437 45.1254 58.8381 44.9888 58.9327 44.8919C58.9955 44.8294 59.0812 44.7673 59.19 44.7056C59.2978 44.6503 59.4256 44.6345 59.5734 44.6582ZM91.256 42.4095C91.2468 42.4674 91.1965 42.555 91.1052 42.6722C91.0204 42.7905 90.9062 42.9272 90.7627 43.0822C90.6192 43.2373 90.4539 43.4053 90.2666 43.5863C90.0794 43.7674 89.8816 43.9533 89.673 44.1441C88.8314 44.9127 88.0568 45.5503 87.3494 46.0568C86.643 46.557 85.9969 46.9481 85.4111 47.2301C84.8254 47.5122 84.2946 47.6976 83.8189 47.7863C83.3432 47.875 82.9124 47.8885 82.5267 47.8268C82.1989 47.7743 81.8916 47.6757 81.6049 47.5309C81.3181 47.3861 81.0627 47.1903 80.8384 46.9435C80.6206 46.6976 80.4443 46.3991 80.3093 46.0478C80.1743 45.6965 80.0946 45.2882 80.0701 44.8228C80.0555 44.5435 80.0203 44.3104 79.9645 44.1234C79.9097 43.9301 79.8455 43.7748 79.772 43.6575C79.6995 43.5338 79.6186 43.4417 79.5294 43.3813C79.4466 43.3219 79.3634 43.2855 79.2798 43.2721C79.0934 43.2423 78.9041 43.2714 78.7121 43.3593C78.5264 43.4483 78.3565 43.5826 78.2025 43.7624C78.1377 43.8377 78.0647 43.9645 77.9834 44.1427C77.9086 44.3219 77.8227 44.529 77.7257 44.7641C77.6352 45.0001 77.5357 45.2512 77.4272 45.5174C77.3251 45.7846 77.2181 46.0411 77.1062 46.2869C77.0124 46.5026 76.9075 46.6639 76.7915 46.7706C76.6755 46.8773 76.5583 46.9508 76.4397 46.9912C76.3276 47.0326 76.2191 47.0515 76.1142 47.0479C76.0092 47.0443 75.915 47.0358 75.8314 47.0224C75.735 47.007 75.6555 46.9679 75.5931 46.9052C75.536 46.8499 75.4911 46.7801 75.4584 46.6957C75.4248 46.6178 75.4023 46.5318 75.3909 46.4377C75.3861 46.3446 75.3908 46.253 75.4052 46.163C75.4268 46.028 75.474 45.8773 75.5468 45.711C75.627 45.5392 75.7268 45.3277 75.8461 45.0765C75.9665 44.8188 76.1089 44.5054 76.2735 44.1361C76.4391 43.7604 76.6218 43.2984 76.8217 42.7502C76.9405 42.4198 77.0585 42.053 77.1758 41.6498C77.2941 41.2401 77.4043 40.8193 77.5064 40.3873C77.6095 39.9489 77.7024 39.5121 77.7853 39.077C77.8745 38.643 77.95 38.2331 78.0117 37.8474C78.0312 37.7252 78.0755 37.6136 78.1444 37.5126C78.2197 37.4125 78.3059 37.3274 78.4028 37.2572C78.4998 37.187 78.6001 37.1371 78.7037 37.1076C78.8084 37.0716 78.9025 37.0603 78.986 37.0736C79.0953 37.0911 79.1973 37.1338 79.2919 37.2017C79.3876 37.2632 79.4647 37.3579 79.5233 37.486C79.583 37.6076 79.6204 37.7652 79.6356 37.9589C79.6572 38.1535 79.6459 38.3891 79.6016 38.6655C79.5461 39.0127 79.4845 39.3358 79.4168 39.6348C79.3492 39.9339 79.2772 40.2191 79.2008 40.4903C79.1244 40.7616 79.0421 41.0287 78.9539 41.2915C78.8722 41.5553 78.7829 41.8245 78.6862 42.0992C79.1177 42.1221 79.5216 42.0911 79.8978 42.0062C80.274 41.9214 80.6552 41.7846 81.0414 41.5958C81.3071 41.4603 81.5811 41.2932 81.8634 41.0944C82.1468 40.8892 82.4157 40.6718 82.67 40.4422C82.9307 40.2136 83.1685 39.9846 83.3832 39.7552C83.5979 39.5259 83.7699 39.316 83.8993 39.1258C83.9841 39.0075 84.0722 38.8897 84.1635 38.7725C84.2558 38.6488 84.352 38.5422 84.452 38.4527C84.5595 38.3578 84.6698 38.2865 84.783 38.2386C84.9036 38.1854 85.0314 38.1696 85.1664 38.1912C85.2757 38.2087 85.3915 38.247 85.5139 38.3061C85.6363 38.3653 85.746 38.4422 85.8429 38.5368C85.9473 38.626 86.0267 38.7277 86.0809 38.8419C86.1426 38.9507 86.1637 39.0662 86.1442 39.1883C86.1267 39.2976 86.0633 39.4259 85.954 39.5732C85.8522 39.7152 85.7073 39.8173 85.5193 39.8795C85.3313 39.9417 85.1022 40.0963 84.8319 40.3431C84.5681 40.591 84.2464 40.912 83.8668 41.3062C83.5351 41.6487 83.1705 41.9497 82.7729 42.2092C82.3818 42.4697 81.8921 42.7078 81.3037 42.9235C81.4084 43.0523 81.486 43.2263 81.5367 43.4454C81.5884 43.658 81.6337 43.8895 81.6728 44.1397C81.7183 44.3909 81.7665 44.6459 81.8174 44.9046C81.8748 45.1643 81.9518 45.4041 82.0485 45.6239C82.1516 45.8448 82.2893 46.035 82.4616 46.1944C82.6339 46.3539 82.8614 46.4562 83.1443 46.5015C83.4336 46.5478 83.7375 46.5437 84.0561 46.4891C84.3822 46.4292 84.7181 46.3281 85.064 46.1856C85.4163 46.0442 85.7748 45.8642 86.1394 45.6456C86.504 45.4271 86.8733 45.1796 87.2472 44.9031C87.5242 44.6969 87.8176 44.4702 88.1274 44.2231C88.4383 43.9696 88.7343 43.7268 89.0154 43.4949C89.3039 43.2576 89.5631 43.0386 89.793 42.838C90.0229 42.6375 90.1921 42.4865 90.3006 42.3852C90.4963 42.1924 90.6512 42.0688 90.7654 42.0146C90.8796 41.9603 90.9817 41.9404 91.0717 41.9548C91.1681 41.9702 91.2247 42.0287 91.2414 42.1303C91.2656 42.2265 91.2704 42.3195 91.256 42.4095ZM104.04 43.4861C104.025 43.5825 103.971 43.6894 103.88 43.8066C103.796 43.9185 103.693 44.0305 103.569 44.1426C103.446 44.2547 103.313 44.3653 103.17 44.4743C103.035 44.5779 102.912 44.667 102.801 44.7416C102.418 44.9902 101.968 45.2511 101.449 45.5242C100.937 45.7983 100.367 46.0696 99.7368 46.338C99.1145 46.601 98.4402 46.8591 97.714 47.1121C96.9943 47.3661 96.2348 47.6006 95.4356 47.8156C95.3661 47.8375 95.2466 47.8843 95.0769 47.956C94.9136 48.0288 94.7215 48.1167 94.5006 48.2198C94.2797 48.3229 94.0449 48.4304 93.7963 48.5423C93.5486 48.6477 93.3122 48.745 93.0869 48.8342C92.8681 48.9245 92.6716 48.9985 92.4975 49.0564C92.3309 49.1089 92.2122 49.1294 92.1415 49.1181C92.0129 49.0975 91.8869 49.0609 91.7635 49.0082C91.6411 48.949 91.5299 48.8818 91.4299 48.8064C91.3363 48.7321 91.263 48.6545 91.21 48.5735C91.1581 48.486 91.1383 48.4037 91.1506 48.3266C91.1804 48.1402 91.2645 47.9855 91.4029 47.8626C91.5412 47.7397 91.722 47.64 91.9452 47.5637C92.2304 47.4708 92.4675 47.3901 92.6565 47.3214C92.8455 47.2528 93.011 47.187 93.1529 47.124C93.3013 47.062 93.4378 46.9915 93.5625 46.9126C93.6937 46.8347 93.8376 46.739 93.9942 46.6256C94.1667 46.495 94.3546 46.3306 94.5577 46.1323C94.7609 45.9341 94.9644 45.7128 95.1683 45.4685C95.3722 45.2242 95.5686 44.9655 95.7573 44.6924C95.9525 44.4204 96.1279 44.1485 96.2835 43.8767C96.4455 43.6059 96.5802 43.3406 96.6877 43.0809C96.7952 42.8212 96.8664 42.5821 96.9014 42.3635C96.922 42.2349 96.9265 42.1038 96.9149 41.9701C96.9108 41.8309 96.8886 41.7021 96.8482 41.5836C96.8143 41.4661 96.758 41.3647 96.6793 41.2796C96.607 41.1955 96.513 41.1442 96.3973 41.1257C96.2173 41.0969 96.0232 41.1153 95.8149 41.1809C95.6076 41.24 95.3995 41.3254 95.1904 41.437C94.9888 41.5432 94.7916 41.6632 94.5987 41.7972C94.4133 41.9258 94.2492 42.0446 94.1065 42.1536C93.6858 42.4753 93.301 42.7994 92.952 43.126C92.6031 43.4525 92.2798 43.7832 91.9823 44.118C91.6858 44.4464 91.4086 44.7779 91.1507 45.1124C90.8928 45.4469 90.6482 45.7803 90.417 46.1125C90.3376 46.4031 90.2524 46.7291 90.1617 47.0903C90.0719 47.4452 89.9728 47.8381 89.8642 48.2691C89.7557 48.7001 89.6615 49.1037 89.5815 49.4799C89.5005 49.8625 89.4231 50.2226 89.3493 50.5603C89.2755 50.8979 89.201 51.2189 89.1259 51.5234C89.0508 51.8278 88.9617 52.1169 88.8586 52.3905C88.794 52.5054 88.7263 52.6199 88.6553 52.7338C88.5833 52.8541 88.5005 52.9595 88.4069 53.05C88.3187 53.148 88.218 53.2209 88.1049 53.2687C87.9971 53.324 87.8693 53.3398 87.7215 53.3162C87.6508 53.3049 87.5735 53.2727 87.4897 53.2197C87.4058 53.1668 87.3278 53.0982 87.2555 53.0142C87.1887 52.9375 87.133 52.8528 87.0885 52.76C87.0505 52.6682 87.0391 52.574 87.0546 52.4776C87.0885 52.2655 87.1468 52.0045 87.2293 51.6946C87.3108 51.3912 87.3961 51.085 87.4851 50.7762C87.5805 50.4684 87.668 50.189 87.7478 49.9381C87.8339 49.6881 87.8916 49.5127 87.921 49.4119C88.1169 48.7642 88.305 48.0624 88.4853 47.3067C88.6666 46.5445 88.8523 45.7138 89.0423 44.8146C89.0974 44.5531 89.1693 44.1657 89.258 43.6524C89.3552 43.1273 89.4374 42.6756 89.5045 42.2974C89.5791 41.9137 89.6466 41.5949 89.707 41.3408C89.8508 40.7309 90.0208 40.2866 90.217 40.0082C90.4142 39.7232 90.6542 39.6034 90.9371 39.6487C91.1557 39.6837 91.3331 39.8109 91.4694 40.0306C91.6046 40.2566 91.6553 40.4757 91.6213 40.6878C91.5853 40.9128 91.52 41.1562 91.4254 41.418C91.3372 41.6808 91.2415 41.949 91.1384 42.2226C91.0417 42.4972 90.9455 42.7686 90.8499 43.0368C90.7617 43.2996 90.7001 43.5403 90.6651 43.7589C90.6353 43.9453 90.6396 44.0416 90.6782 44.0478C91.2578 43.3098 91.8422 42.6451 92.4313 42.0537C93.0205 41.4622 93.5628 40.9985 94.0583 40.6624C94.279 40.5197 94.5124 40.3791 94.7588 40.2405C95.0051 40.1019 95.2554 39.9804 95.5094 39.876C95.7635 39.7716 96.0129 39.6961 96.2577 39.6496C96.51 39.5976 96.7486 39.5897 96.9736 39.6257C97.2125 39.6573 97.4357 39.7458 97.6432 39.8911C97.8518 40.0299 98.0289 40.2 98.1747 40.4014C98.3205 40.6027 98.4274 40.8209 98.4952 41.0559C98.5631 41.291 98.5801 41.5146 98.5461 41.7267C98.5122 41.9389 98.4501 42.1828 98.3598 42.4584C98.277 42.7287 98.1686 43.0146 98.0346 43.3162C97.9017 43.6114 97.7516 43.9105 97.5845 44.2134C97.4173 44.5163 97.2394 44.8043 97.0506 45.0774C96.8683 45.3515 96.6767 45.6011 96.4759 45.8261C96.2825 46.0457 96.0889 46.2257 95.895 46.3661C97.2062 46.0418 98.4104 45.6445 99.5077 45.1739C100.611 44.7044 101.642 44.177 102.599 43.5917C102.943 43.3829 103.221 43.2067 103.435 43.0629C103.65 42.9192 103.811 42.8561 103.921 42.8736C103.966 42.8808 103.997 42.9089 104.016 42.958C104.036 43.0007 104.047 43.0552 104.049 43.1216C104.059 43.1825 104.062 43.2489 104.057 43.3206C104.053 43.3859 104.047 43.4411 104.04 43.4861ZM106.752 43.5441C106.762 43.4798 106.747 43.405 106.708 43.3196C106.677 43.2289 106.628 43.1419 106.562 43.0589C106.504 42.9704 106.434 42.8933 106.352 42.8274C106.27 42.7616 106.191 42.7225 106.114 42.7102C105.914 42.6783 105.723 42.6806 105.539 42.7171C105.361 42.7547 105.191 42.813 105.026 42.8922C104.863 42.965 104.707 43.0554 104.558 43.1634C104.415 43.2724 104.285 43.3835 104.168 43.4966C103.889 43.7553 103.593 44.0805 103.28 44.4721C102.974 44.8583 102.684 45.2701 102.41 45.7075C102.142 46.146 101.907 46.5831 101.705 47.019C101.51 47.4558 101.384 47.8511 101.328 48.2047C101.299 48.3847 101.355 48.5518 101.495 48.7061C101.635 48.8604 101.84 48.9591 102.11 49.0023C102.264 49.027 102.458 48.9888 102.692 48.8878C102.933 48.7813 103.188 48.6341 103.455 48.4462C103.73 48.2528 104.003 48.0295 104.274 47.7762C104.552 47.5239 104.802 47.2574 105.025 46.9766C105.446 46.4505 105.812 45.9124 106.124 45.3624C106.438 44.8059 106.647 44.1998 106.752 43.5441ZM115.144 46.4102C115.116 46.465 115.018 46.5844 114.85 46.7685C114.683 46.9462 114.453 47.1634 114.162 47.42C113.87 47.6766 113.522 47.9571 113.117 48.2616C112.72 48.5607 112.28 48.8562 111.799 49.1483C111.23 49.486 110.728 49.7616 110.291 49.9753C109.863 50.1836 109.478 50.3429 109.137 50.4532C108.804 50.5581 108.507 50.6226 108.246 50.6468C107.992 50.6655 107.759 50.658 107.547 50.624C107.264 50.5787 107.014 50.4926 106.797 50.3656C106.588 50.2331 106.416 50.0507 106.282 49.8182C106.147 49.5858 106.048 49.2995 105.984 48.9596C105.921 48.6132 105.894 48.2035 105.904 47.7303L105.807 47.7149C105.471 48.0831 105.11 48.444 104.724 48.7976C104.345 49.1457 103.957 49.4528 103.558 49.7186C103.167 49.9791 102.772 50.1797 102.374 50.3203C101.982 50.462 101.609 50.5046 101.256 50.448C101.069 50.4182 100.878 50.3546 100.683 50.2574C100.488 50.1538 100.316 50.0142 100.166 49.8385C100.016 49.6629 99.9017 49.4533 99.8219 49.2098C99.7433 48.9599 99.7296 48.6742 99.7811 48.3527C99.8263 48.0699 99.9131 47.7541 100.041 47.4054C100.171 47.0503 100.328 46.6864 100.513 46.3138C100.699 45.9348 100.901 45.5584 101.119 45.1845C101.344 44.8052 101.573 44.4494 101.804 44.1172C102.041 43.786 102.273 43.4902 102.5 43.2297C102.726 42.9692 102.937 42.7623 103.133 42.6091C103.359 42.4342 103.617 42.2613 103.908 42.0903C104.206 41.9203 104.526 41.7738 104.869 41.6506C105.212 41.5274 105.572 41.44 105.949 41.3883C106.328 41.3302 106.716 41.3331 107.115 41.3968C107.436 41.4483 107.66 41.5929 107.787 41.8308C107.915 42.0622 107.977 42.3952 107.973 42.8298C107.974 42.8694 107.989 42.918 108.019 42.9756C108.056 43.0342 108.092 43.0993 108.127 43.1708C108.168 43.2433 108.202 43.318 108.229 43.3949C108.257 43.4653 108.266 43.5359 108.255 43.6066C108.238 43.7095 108.195 43.8345 108.125 43.9816C108.057 44.1222 107.978 44.2843 107.889 44.4679C107.808 44.6461 107.727 44.8441 107.646 45.0619C107.566 45.2733 107.506 45.5011 107.467 45.7454C107.414 46.0797 107.36 46.437 107.306 46.8173C107.251 47.1977 107.231 47.5537 107.244 47.8854C107.264 48.2117 107.334 48.4933 107.455 48.7301C107.581 48.968 107.796 49.1111 108.098 49.1594C108.407 49.2088 108.848 49.131 109.421 48.9261C109.994 48.7212 110.644 48.4098 111.37 47.9919C111.835 47.7235 112.278 47.4514 112.698 47.1758C113.118 46.9001 113.493 46.6537 113.825 46.4364C114.156 46.2191 114.438 46.0434 114.671 45.9091C114.903 45.7749 115.064 45.715 115.154 45.7294C115.264 45.7469 115.328 45.777 115.348 45.8197C115.368 45.8559 115.371 45.919 115.357 46.009C115.355 46.0219 115.344 46.0498 115.324 46.0927C115.305 46.1293 115.285 46.169 115.265 46.2119C115.245 46.2549 115.222 46.2941 115.197 46.3296C115.171 46.3651 115.154 46.3919 115.144 46.4102ZM119.493 48.4709C119.287 48.5632 119.007 48.6437 118.654 48.7124C118.306 48.782 117.925 48.8364 117.51 48.8755C117.095 48.9146 116.666 48.935 116.224 48.9368C115.782 48.9386 115.366 48.9215 114.976 48.8855C114.939 48.9521 114.897 49.0706 114.85 49.2411C114.804 49.4052 114.756 49.6019 114.706 49.8312C114.658 50.0542 114.606 50.2932 114.552 50.5483C114.505 50.8044 114.459 51.0509 114.414 51.2877C114.371 51.5181 114.331 51.726 114.294 51.9114C114.265 52.0978 114.243 52.2328 114.23 52.3164C114.214 52.4129 114.17 52.5047 114.097 52.5918C114.029 52.6865 113.947 52.7656 113.851 52.8294C113.755 52.8932 113.651 52.9426 113.54 52.9775C113.429 53.0125 113.322 53.0218 113.219 53.0053C113.084 52.9837 112.973 52.9395 112.885 52.8726C112.795 52.8122 112.721 52.7442 112.66 52.6686C112.606 52.594 112.568 52.522 112.546 52.4525C112.525 52.3831 112.516 52.3323 112.521 52.3002C112.53 52.1631 112.562 51.9869 112.616 51.7714C112.678 51.5505 112.749 51.3113 112.83 51.0539C112.91 50.7965 112.996 50.5268 113.088 50.2447C113.186 49.9572 113.278 49.6751 113.361 49.3984C113.454 49.1099 113.542 48.7877 113.625 48.4318C113.716 48.0705 113.802 47.6986 113.883 47.316C113.964 46.9333 114.038 46.5529 114.105 46.1746C114.179 45.791 114.244 45.4288 114.298 45.088C114.359 44.7484 114.411 44.4435 114.455 44.1735C114.499 43.8971 114.534 43.6753 114.561 43.5081C114.61 43.206 114.715 42.9591 114.877 42.7676C115.04 42.576 115.272 42.5044 115.574 42.5527C115.658 42.5661 115.744 42.6062 115.832 42.6731C115.927 42.741 116.01 42.8202 116.081 42.9107C116.153 42.9948 116.211 43.0865 116.254 43.1857C116.299 43.2786 116.315 43.3635 116.303 43.4407C116.251 43.7621 116.178 44.0965 116.083 44.4439C115.994 44.7924 115.9 45.1301 115.802 45.4572C115.705 45.7779 115.614 46.0765 115.53 46.3532C115.454 46.6245 115.402 46.847 115.374 47.0205C115.345 47.2005 115.424 47.3483 115.609 47.4637C115.795 47.5792 116.039 47.6611 116.342 47.7094C116.579 47.7475 116.846 47.7704 117.142 47.7781C117.438 47.7794 117.727 47.7663 118.008 47.7388C118.29 47.7113 118.551 47.6641 118.792 47.5972C119.04 47.5314 119.239 47.4445 119.388 47.3365C119.515 47.2447 119.636 47.1224 119.753 46.9697C119.876 46.818 119.971 46.6584 120.038 46.491C120.123 46.2871 120.204 46.0495 120.28 45.7782C120.357 45.5069 120.443 45.234 120.54 44.9593C120.679 44.5399 120.876 44.2186 121.129 43.9954C121.389 43.7733 121.663 43.6853 121.953 43.7316C122.203 43.7718 122.383 43.883 122.493 44.0653C122.602 44.2476 122.639 44.4481 122.604 44.6666C122.593 44.7373 122.542 44.8709 122.451 45.0674C122.368 45.2584 122.264 45.4759 122.139 45.7196C122.021 45.9644 121.895 46.2114 121.763 46.4606C121.637 46.7108 121.528 46.924 121.433 47.1001C121.367 47.2279 121.287 47.4195 121.193 47.6748C121.101 47.9237 121.007 48.1989 120.913 48.5003C120.826 48.7962 120.742 49.0927 120.662 49.3897C120.587 49.6877 120.533 49.9428 120.5 50.155C120.395 50.8107 120.397 51.2891 120.507 51.5902C120.624 51.8924 120.843 52.0692 121.164 52.1206C121.396 52.1577 121.653 52.1528 121.938 52.106C122.229 52.0602 122.558 51.958 122.926 51.7994C123.302 51.6353 123.724 51.4094 124.192 51.1217C124.66 50.8339 125.196 50.4714 125.8 50.034C126.091 49.8234 126.376 49.6085 126.655 49.3895C126.934 49.1704 127.195 48.9616 127.438 48.7631C127.687 48.5656 127.91 48.3838 128.108 48.2177C128.307 48.0451 128.472 47.9033 128.602 47.7922C128.686 47.72 128.777 47.6455 128.875 47.5689C128.979 47.4933 129.07 47.4617 129.147 47.474C129.256 47.4915 129.346 47.5257 129.417 47.5766C129.496 47.6222 129.525 47.7092 129.504 47.8378C129.483 47.9728 129.383 48.1415 129.206 48.3438C129.028 48.5462 128.814 48.7724 128.563 49.0223C128.484 49.102 128.36 49.2173 128.191 49.3683C128.022 49.5192 127.823 49.6918 127.594 49.8859C127.372 50.0811 127.127 50.2892 126.861 50.5104C126.596 50.7251 126.328 50.9361 126.058 51.1433C125.794 51.3516 125.534 51.5507 125.28 51.7408C125.033 51.9254 124.806 52.0837 124.6 52.2156C123.859 52.6903 123.142 53.0502 122.45 53.2955C121.764 53.5419 121.093 53.6126 120.438 53.5076C119.859 53.4151 119.442 53.1175 119.186 52.6151C118.93 52.1126 118.87 51.4403 119.004 50.5981C119.033 50.4181 119.067 50.229 119.105 50.0308C119.15 49.8335 119.194 49.6427 119.236 49.4583C119.28 49.2675 119.322 49.0864 119.363 48.9149C119.41 48.7444 119.453 48.5964 119.493 48.4709ZM132.399 48.0439C132.477 47.5618 132.458 47.2028 132.344 46.967C132.237 46.7322 132.09 46.5999 131.903 46.5701C131.743 46.5444 131.574 46.5503 131.396 46.5878C131.226 46.62 131.06 46.6724 130.896 46.7452C130.733 46.8179 130.581 46.9024 130.44 46.9986C130.3 47.0948 130.182 47.1913 130.087 47.2883C129.9 47.4693 129.699 47.6777 129.483 47.9135C129.274 48.1503 129.059 48.3995 128.839 48.661C128.626 48.9235 128.418 49.1935 128.215 49.471C128.012 49.7485 127.827 50.0221 127.658 50.2918C127.498 50.5561 127.361 50.8144 127.248 51.0667C127.136 51.3125 127.063 51.5383 127.031 51.744C126.982 52.0462 127.001 52.2997 127.087 52.5047C127.174 52.7032 127.378 52.8282 127.699 52.8796C127.809 52.8971 127.98 52.8553 128.214 52.7542C128.449 52.6468 128.702 52.506 128.974 52.3319C129.252 52.1588 129.526 51.9687 129.797 51.7614C130.068 51.5477 130.296 51.3402 130.48 51.1389C130.679 50.9268 130.881 50.6921 131.087 50.435C131.3 50.1789 131.497 49.9137 131.679 49.6396C131.862 49.3655 132.017 49.0937 132.146 48.8242C132.276 48.5483 132.36 48.2882 132.399 48.0439ZM137.772 52.6025C137.748 52.7503 137.669 52.9189 137.533 53.1081C137.403 53.2984 137.21 53.5212 136.951 53.7766C136.732 53.9921 136.495 54.1948 136.241 54.3848C135.986 54.5749 135.72 54.7366 135.441 54.8701C135.163 55.0035 134.877 55.0995 134.584 55.1582C134.291 55.2168 133.997 55.2224 133.701 55.1751C133.315 55.1134 132.988 54.9753 132.719 54.7608C132.456 54.5474 132.242 54.2791 132.076 53.9558C131.918 53.6272 131.809 53.2602 131.748 52.855C131.689 52.4433 131.672 52.0121 131.698 51.5613C131.349 51.9275 130.947 52.2817 130.49 52.6239C130.039 52.9672 129.579 53.2693 129.108 53.5303C128.645 53.7859 128.195 53.9842 127.757 54.1251C127.327 54.2606 126.957 54.3036 126.649 54.2543C126.443 54.2213 126.252 54.138 126.075 54.0043C125.905 53.8716 125.76 53.7067 125.64 53.5094C125.527 53.3132 125.446 53.0959 125.399 52.8576C125.351 52.6192 125.347 52.3746 125.387 52.1239C125.427 51.8732 125.489 51.6127 125.572 51.3425C125.661 51.0732 125.779 50.7888 125.926 50.4893C126.08 50.1843 126.264 49.8577 126.478 49.5095C126.699 49.1624 126.96 48.7856 127.262 48.379C127.6 47.9187 127.981 47.4951 128.405 47.1081C128.831 46.7147 129.254 46.3801 129.674 46.1045C130.095 45.8224 130.484 45.6112 130.843 45.4708C131.209 45.325 131.495 45.2685 131.701 45.3015C131.759 45.3107 131.821 45.3339 131.888 45.3709C131.961 45.4089 132.033 45.4502 132.105 45.4947C132.185 45.5338 132.258 45.5719 132.324 45.6089C132.398 45.6405 132.461 45.6604 132.512 45.6687C132.564 45.6769 132.617 45.6755 132.671 45.6644C132.727 45.6469 132.782 45.6295 132.838 45.612C132.895 45.5881 132.951 45.5674 133.006 45.5499C133.062 45.5324 133.115 45.5278 133.167 45.536C133.244 45.5483 133.323 45.5874 133.405 45.6533C133.487 45.7191 133.563 45.8005 133.633 45.8974C133.704 45.9879 133.764 46.0898 133.812 46.2029C133.859 46.3161 133.888 46.4229 133.899 46.5235C133.906 46.6433 133.924 46.7352 133.953 46.7992C133.99 46.8579 134.024 46.9128 134.056 46.9639C134.094 47.0161 134.12 47.0765 134.136 47.1449C134.158 47.2079 134.16 47.3036 134.139 47.4322C134.129 47.4965 134.085 47.6279 134.007 47.8264C133.929 48.0249 133.839 48.2578 133.737 48.5249C133.642 48.7867 133.549 49.0619 133.456 49.3504C133.364 49.6389 133.298 49.9053 133.259 50.1496C133.149 50.8374 133.094 51.4088 133.094 51.8637C133.1 52.3196 133.147 52.6865 133.234 52.9642C133.321 53.2419 133.447 53.4466 133.61 53.5782C133.774 53.7099 133.959 53.7922 134.164 53.8251C134.338 53.8529 134.52 53.849 134.71 53.8136C134.901 53.7716 135.093 53.7067 135.285 53.6188C135.484 53.5319 135.679 53.4246 135.871 53.2971C136.069 53.1706 136.259 53.0361 136.44 52.8937C136.689 52.6962 136.902 52.5391 137.079 52.4223C137.257 52.2992 137.394 52.2453 137.49 52.2607C137.58 52.2751 137.653 52.3164 137.708 52.3845C137.763 52.4527 137.784 52.5253 137.772 52.6025Z" fill="white"/>
</g>
<path d="M6.50695 34.138C6.0309 33.858 5.41801 34.017 5.13803 34.493L0.575438 42.2508C0.295454 42.7269 0.454401 43.3397 0.930456 43.6197C1.40651 43.8997 2.0194 43.7408 2.29938 43.2647L6.35502 36.3689L13.2508 40.4246C13.7269 40.7045 14.3397 40.5456 14.6197 40.0695C14.8997 39.5935 14.7408 38.9806 14.2647 38.7006L6.50695 34.138ZM70.3686 56.4484C67.9881 58.3869 63.3979 60.1694 57.5853 61.1692C51.8095 62.1628 44.9599 62.36 38.1585 61.2376C24.5609 58.9935 11.3187 51.5251 6.96798 34.749L5.03202 35.251C9.64681 53.0453 23.7495 60.8867 37.8329 63.2109C44.872 64.3725 51.9469 64.1685 57.9244 63.1403C63.8651 62.1184 68.8568 60.2587 71.6314 57.9993L70.3686 56.4484Z" fill="white"/>
<defs>
<filter id="filter0_d_525_570" x="33.9062" y="0.0996094" width="179" height="84.3936" filterUnits="userSpaceOnUse" color-interpolation-filters="sRGB">
<feFlood flood-opacity="0" result="BackgroundImageFix"/>
<feColorMatrix in="SourceAlpha" type="matrix" values="0 0 0 0 0 0 0 0 0 0 0 0 0 0 0 0 0 0 127 0" result="hardAlpha"/>
<feOffset dy="2"/>
<feGaussianBlur stdDeviation="6"/>
<feComposite in2="hardAlpha" operator="out"/>
<feColorMatrix type="matrix" values="0 0 0 0 0 0 0 0 0 0 0 0 0 0 0 0 0 0 1 0"/>
<feBlend mode="normal" in2="BackgroundImageFix" result="effect1_dropShadow_525_570"/>
<feBlend mode="normal" in="SourceGraphic" in2="effect1_dropShadow_525_570" result="shape"/>
</filter>
</defs>
</svg>
