<svg width="214" height="40" viewBox="0 0 214 40" fill="none" xmlns="http://www.w3.org/2000/svg">
<g clip-path="url(#clip0_1_16808)">
<path d="M85.8008 0.203125C86.6586 0.236971 87.5226 0.236971 88.3835 0.22774C88.7617 1.54466 89.0877 2.87389 89.5058 4.17851C89.8994 2.86774 90.2499 1.54466 90.625 0.230817C91.283 0.230817 91.941 0.233894 92.599 0.230817C92.9741 1.58774 93.34 2.94774 93.709 4.30774C94.0933 2.94774 94.4653 1.58774 94.8527 0.230817C95.6061 0.233894 96.3594 0.230817 97.1127 0.206202C95.9566 2.37851 95.8305 4.96005 94.8189 7.18774C94.1548 7.61851 93.2262 7.3262 92.4606 7.40313C92.1562 6.17543 91.8549 4.94774 91.5505 3.72313C91.2307 4.94159 90.914 6.15697 90.6035 7.37851C89.8133 7.2862 88.8294 7.65851 88.1806 7.09851C87.6333 5.80313 87.3935 4.40313 86.9661 3.06466C86.631 2.09236 86.5971 0.944664 85.8008 0.203125Z" fill="#A0A747"/>
<path d="M83.0316 13.2578C86.3216 10.5655 90.8629 9.63317 94.9953 10.4763C98.2822 11.1593 101.225 13.1932 103.128 15.9501C101.283 17.7224 99.4598 19.5224 97.5904 21.2701C96.7418 20.107 95.804 18.9101 94.4388 18.3378C92.2773 17.4516 89.5777 18.0424 88.0526 19.8332C86.5429 21.5501 86.2539 23.9809 86.4353 26.1778C86.6628 28.0609 87.5145 30.0178 89.1503 31.0793C91.1427 32.2793 93.6763 32.0639 95.7456 31.1686C95.7117 29.3993 95.7917 27.627 95.7148 25.8578C95.7025 25.107 94.86 24.8947 94.4142 24.4455C97.3014 24.3962 100.192 24.427 103.082 24.4301C103.082 26.8486 103.079 29.2701 103.082 31.6916C103.103 32.907 103.116 34.1962 103.743 35.2824C100.893 38.1716 96.8463 39.5624 92.8492 39.7347C89.0457 40.0086 85.0763 38.7778 82.3091 36.1009C79.3051 33.2362 77.8476 29.0055 77.9122 24.9039C77.8753 20.5501 79.591 16.0393 83.0316 13.2578Z" fill="#A0A747"/>
<path d="M42.7796 18.1348C45.636 16.6425 49.4425 18.0671 50.657 21.0486C49.6331 21.7102 48.5939 22.3471 47.5669 23.0025C47.118 21.9717 46.1187 21.0671 44.9196 21.3317C44.0894 21.3533 43.6128 22.4917 44.3108 23.0179C45.8143 24.0302 47.7606 24.1133 49.2426 25.184C51.77 26.8548 51.5456 31.1717 48.9905 32.7102C47.364 33.7133 45.3101 33.7779 43.496 33.344C41.7034 32.9102 40.1999 31.5163 39.668 29.744C40.7226 29.1317 41.7495 28.4733 42.7827 27.8271C43.1885 28.7471 43.8988 29.6025 44.9349 29.7902C45.719 29.9009 46.7798 29.9533 47.2687 29.1902C47.5116 28.5225 46.9735 27.9379 46.3739 27.7533C44.7289 27.0979 42.8441 26.8056 41.5405 25.5071C39.4189 23.4486 40.0831 19.384 42.7796 18.1348Z" fill="#A0A747"/>
<path d="M115.691 23.6429C116.312 20.486 119.07 17.806 122.332 17.5937C125.09 17.2768 127.861 18.7414 129.3 21.0891C128.264 21.7291 127.221 22.3537 126.191 23.003C124.989 21.3137 122.455 20.886 120.786 22.1168C118.627 23.6983 118.591 27.3937 120.697 29.0337C122.474 30.366 125.496 30.0737 126.529 27.9414C124.835 28.0553 123.23 26.9106 122.966 25.1999C125.41 25.1845 127.858 25.1937 130.305 25.1937C130.388 27.3599 129.942 29.6676 128.445 31.3168C126.176 33.9014 122.034 34.2029 119.166 32.4737C116.198 30.726 114.935 26.9168 115.691 23.6429Z" fill="#A0A747"/>
<path d="M0.210938 17.8859C1.52384 17.8828 2.83982 17.8828 4.15272 17.8859C4.89065 21.092 5.63473 24.2951 6.37881 27.4982C7.24895 24.2982 8.08835 21.089 8.95234 17.8859C9.92088 17.8797 10.8894 17.8859 11.8579 17.889C12.7035 21.092 13.5521 24.292 14.4069 27.492C15.1633 24.292 15.895 21.0859 16.6453 17.8828C17.9582 17.8828 19.2711 17.8828 20.5871 17.8859C19.2465 23.0059 17.9182 28.129 16.5807 33.249C15.2863 33.249 13.9887 33.249 12.6912 33.249C11.9287 30.3813 11.1815 27.5136 10.4067 24.652C9.64108 27.5136 8.88163 30.3782 8.12832 33.2428C6.83079 33.2551 5.53326 33.249 4.23881 33.249C2.88901 28.129 1.55151 23.0059 0.210938 17.8859Z" fill="#A0A747"/>
<path d="M25.0391 17.8859C28.2675 17.8797 31.499 17.8859 34.7275 17.8828C34.7275 19.1197 34.7275 20.3567 34.7275 21.5967C32.7289 21.5967 30.7273 21.5936 28.7287 21.5967C28.7318 22.3536 28.7318 23.1074 28.7318 23.8644C30.2876 23.8644 31.8434 23.8644 33.3992 23.8644C33.4023 24.9813 33.4023 26.0951 33.3992 27.212C31.8434 27.212 30.2876 27.212 28.7318 27.212C28.7349 27.9813 28.7287 28.7505 28.7195 29.5228C30.798 29.5567 32.8796 29.5259 34.9612 29.5413C34.9581 30.7751 34.9581 32.012 34.9581 33.249C31.6528 33.249 28.3475 33.252 25.0421 33.2459C25.0391 28.1259 25.0421 23.0059 25.0391 17.8859Z" fill="#A0A747"/>
<path d="M55.3703 17.9238C59.0384 17.9238 62.7096 17.9238 66.3777 17.9238C66.3808 19.1331 66.3808 20.3454 66.3777 21.5577C65.1878 21.5577 63.9948 21.5608 62.8049 21.5608C62.8049 25.4623 62.8049 29.3669 62.8049 33.2684C61.5228 33.2684 60.2437 33.2684 58.9615 33.2684C58.9615 29.3669 58.9615 25.4623 58.9615 21.5577C57.7655 21.5608 56.5663 21.5577 55.3672 21.5577C55.3672 20.3454 55.3672 19.1331 55.3703 17.9238Z" fill="#A0A747"/>
<path d="M137.899 17.8897C139.649 17.8805 141.398 17.8805 143.151 17.8897C144.722 23.0128 146.308 28.1267 147.886 33.2497C146.561 33.2497 145.232 33.2497 143.907 33.2497C143.704 32.5174 143.492 31.7913 143.289 31.059C141.453 31.059 139.618 31.059 137.779 31.059C137.576 31.7913 137.367 32.5174 137.164 33.2497C135.83 33.2497 134.495 33.2528 133.164 33.2497C134.738 28.1267 136.328 23.0097 137.899 17.8897ZM138.692 27.7882C139.922 27.7882 141.149 27.7882 142.379 27.7882C141.758 25.7667 141.149 23.742 140.525 21.7236C139.907 23.7451 139.301 25.7667 138.692 27.7882Z" fill="#A0A747"/>
<path d="M152.277 17.904C154.62 17.9194 156.963 17.8702 159.306 17.9255C161.824 18.0117 163.967 20.2794 164.035 22.7809C164.195 24.6917 163.208 26.584 161.594 27.5994C162.565 29.4855 163.555 31.3625 164.53 33.2486C163.214 33.2517 161.901 33.2486 160.588 33.2486C159.752 31.6178 158.919 29.9902 158.079 28.3625C157.341 28.3655 156.607 28.3655 155.872 28.3655C155.872 29.9932 155.872 31.6209 155.872 33.2486C154.673 33.2486 153.473 33.2486 152.277 33.2486C152.277 28.1317 152.277 23.0179 152.277 17.904ZM155.872 21.5779C155.869 22.7102 155.869 23.8425 155.872 24.9779C156.994 24.9471 158.129 25.0702 159.245 24.8948C160.736 24.5194 160.739 22.0302 159.254 21.6425C158.135 21.4917 156.997 21.6086 155.872 21.5779Z" fill="#A0A747"/>
<path d="M169.266 17.9007C171.369 17.9192 173.469 17.8761 175.572 17.9161C177.813 18.0115 179.892 19.39 180.996 21.3223C182.911 24.6146 182.345 29.3315 179.314 31.7715C178.173 32.7069 176.71 33.2177 175.24 33.2361C173.247 33.27 171.255 33.2392 169.266 33.2484C169.266 28.1315 169.266 23.0177 169.266 17.9007ZM173.109 21.6946C173.109 24.2823 173.106 26.873 173.112 29.4607C174.422 29.4207 175.898 29.673 177.035 28.8546C178.939 27.4053 179.016 24.1684 177.34 22.5192C176.211 21.43 174.53 21.7253 173.109 21.6946Z" fill="#A0A747"/>
<path d="M186.867 17.8828C190.096 17.8828 193.324 17.8828 196.553 17.8828C196.553 19.1197 196.553 20.3567 196.553 21.5936C194.548 21.5967 192.543 21.5967 190.538 21.5967C190.538 22.3505 190.535 23.1074 190.538 23.8613C192.1 23.8674 193.662 23.8644 195.227 23.8674C195.227 24.9874 195.227 26.1074 195.227 27.2305C193.662 27.2305 192.1 27.2274 190.538 27.2336C190.535 27.9997 190.538 28.769 190.538 29.5382C192.62 29.5382 194.702 29.5382 196.783 29.5382C196.783 30.7751 196.783 32.012 196.783 33.249C193.478 33.249 190.173 33.249 186.867 33.249C186.867 28.1259 186.867 23.0059 186.867 17.8828Z" fill="#A0A747"/>
<path d="M202.068 17.9231C203.033 17.9201 203.999 17.9231 204.97 17.9262C206.661 20.477 208.359 23.0216 210.059 25.5662C210.062 23.0185 210.059 20.4708 210.062 17.9231C211.301 17.9231 212.543 17.9231 213.789 17.9231C213.792 23.037 213.789 28.1539 213.789 33.2678C212.826 33.2678 211.867 33.2678 210.908 33.2708C209.195 30.7139 207.51 28.1385 205.797 25.5847C205.791 28.1508 205.797 30.7201 205.794 33.2862C204.552 33.2893 203.307 33.2893 202.068 33.2862C202.068 28.1662 202.065 23.0431 202.068 17.9231Z" fill="#A0A747"/>
</g>
<defs>
<clipPath id="clip0_1_16808">
<rect width="214" height="40" fill="white"/>
</clipPath>
</defs>
</svg>
