<svg width="214" height="48" viewBox="0 0 214 48" fill="none" xmlns="http://www.w3.org/2000/svg">
<path d="M85.8008 5.20312C86.6586 5.23697 87.5226 5.23697 88.3835 5.22774C88.7617 6.54466 89.0877 7.87389 89.5058 9.17851C89.8994 7.86774 90.2499 6.54466 90.625 5.23082C91.283 5.23082 91.941 5.23389 92.599 5.23082C92.9741 6.58774 93.34 7.94774 93.709 9.30774C94.0933 7.94774 94.4653 6.58774 94.8527 5.23082C95.6061 5.23389 96.3594 5.23082 97.1127 5.2062C95.9566 7.37851 95.8305 9.96005 94.8189 12.1877C94.1548 12.6185 93.2262 12.3262 92.4606 12.4031C92.1562 11.1754 91.8549 9.94774 91.5505 8.72313C91.2307 9.94159 90.914 11.157 90.6035 12.3785C89.8133 12.2862 88.8294 12.6585 88.1806 12.0985C87.6333 10.8031 87.3935 9.40313 86.9661 8.06466C86.631 7.09236 86.5971 5.94466 85.8008 5.20312Z" fill="#A0A747"/>
<path d="M83.0316 18.2578C86.3216 15.5655 90.8629 14.6332 94.9953 15.4763C98.2822 16.1593 101.225 18.1932 103.128 20.9501C101.283 22.7224 99.4598 24.5224 97.5904 26.2701C96.7418 25.107 95.804 23.9101 94.4388 23.3378C92.2773 22.4516 89.5777 23.0424 88.0526 24.8332C86.5429 26.5501 86.2539 28.9809 86.4353 31.1778C86.6628 33.0609 87.5145 35.0178 89.1503 36.0793C91.1427 37.2793 93.6763 37.0639 95.7456 36.1686C95.7117 34.3993 95.7917 32.627 95.7148 30.8578C95.7025 30.107 94.86 29.8947 94.4142 29.4455C97.3014 29.3962 100.192 29.427 103.082 29.4301C103.082 31.8486 103.079 34.2701 103.082 36.6916C103.103 37.907 103.116 39.1962 103.743 40.2824C100.893 43.1716 96.8463 44.5624 92.8492 44.7347C89.0457 45.0086 85.0763 43.7778 82.3091 41.1009C79.3051 38.2362 77.8476 34.0055 77.9122 29.9039C77.8753 25.5501 79.591 21.0393 83.0316 18.2578Z" fill="#A0A747"/>
<path d="M42.7796 23.1348C45.636 21.6425 49.4425 23.0671 50.657 26.0486C49.6331 26.7102 48.5939 27.3471 47.5669 28.0025C47.118 26.9717 46.1187 26.0671 44.9196 26.3317C44.0894 26.3533 43.6128 27.4917 44.3108 28.0179C45.8143 29.0302 47.7606 29.1133 49.2426 30.184C51.77 31.8548 51.5456 36.1717 48.9905 37.7102C47.364 38.7133 45.3101 38.7779 43.496 38.344C41.7034 37.9102 40.1999 36.5163 39.668 34.744C40.7226 34.1317 41.7495 33.4733 42.7827 32.8271C43.1885 33.7471 43.8988 34.6025 44.9349 34.7902C45.719 34.9009 46.7798 34.9533 47.2687 34.1902C47.5116 33.5225 46.9735 32.9379 46.3739 32.7533C44.7289 32.0979 42.8441 31.8056 41.5405 30.5071C39.4189 28.4486 40.0831 24.384 42.7796 23.1348Z" fill="#A0A747"/>
<path d="M115.691 28.6429C116.312 25.486 119.07 22.806 122.332 22.5937C125.09 22.2768 127.861 23.7414 129.3 26.0891C128.264 26.7291 127.221 27.3537 126.191 28.003C124.989 26.3137 122.455 25.886 120.786 27.1168C118.627 28.6983 118.591 32.3937 120.697 34.0337C122.474 35.366 125.496 35.0737 126.529 32.9414C124.835 33.0553 123.23 31.9106 122.966 30.1999C125.41 30.1845 127.858 30.1937 130.305 30.1937C130.388 32.3599 129.942 34.6676 128.445 36.3168C126.176 38.9014 122.034 39.2029 119.166 37.4737C116.198 35.726 114.935 31.9168 115.691 28.6429Z" fill="#A0A747"/>
<path d="M0.210938 22.8859C1.52384 22.8828 2.83982 22.8828 4.15272 22.8859C4.89065 26.092 5.63473 29.2951 6.37881 32.4982C7.24895 29.2982 8.08835 26.089 8.95234 22.8859C9.92088 22.8797 10.8894 22.8859 11.8579 22.889C12.7035 26.092 13.5521 29.292 14.4069 32.492C15.1633 29.292 15.895 26.0859 16.6453 22.8828C17.9582 22.8828 19.2711 22.8828 20.5871 22.8859C19.2465 28.0059 17.9182 33.129 16.5807 38.249C15.2863 38.249 13.9887 38.249 12.6912 38.249C11.9287 35.3813 11.1815 32.5136 10.4067 29.652C9.64108 32.5136 8.88163 35.3782 8.12832 38.2428C6.83079 38.2551 5.53326 38.249 4.23881 38.249C2.88901 33.129 1.55151 28.0059 0.210938 22.8859Z" fill="#A0A747"/>
<path d="M25.0391 22.8859C28.2675 22.8797 31.499 22.8859 34.7275 22.8828C34.7275 24.1197 34.7275 25.3567 34.7275 26.5967C32.7289 26.5967 30.7273 26.5936 28.7287 26.5967C28.7318 27.3536 28.7318 28.1074 28.7318 28.8644C30.2876 28.8644 31.8434 28.8644 33.3992 28.8644C33.4023 29.9813 33.4023 31.0951 33.3992 32.212C31.8434 32.212 30.2876 32.212 28.7318 32.212C28.7349 32.9813 28.7287 33.7505 28.7195 34.5228C30.798 34.5567 32.8796 34.5259 34.9612 34.5413C34.9581 35.7751 34.9581 37.012 34.9581 38.249C31.6528 38.249 28.3475 38.252 25.0421 38.2459C25.0391 33.1259 25.0421 28.0059 25.0391 22.8859Z" fill="#A0A747"/>
<path d="M55.3703 22.9238C59.0384 22.9238 62.7096 22.9238 66.3777 22.9238C66.3808 24.1331 66.3808 25.3454 66.3777 26.5577C65.1878 26.5577 63.9948 26.5608 62.8049 26.5608C62.8049 30.4623 62.8049 34.3669 62.8049 38.2684C61.5228 38.2684 60.2437 38.2684 58.9615 38.2684C58.9615 34.3669 58.9615 30.4623 58.9615 26.5577C57.7655 26.5608 56.5663 26.5577 55.3672 26.5577C55.3672 25.3454 55.3672 24.1331 55.3703 22.9238Z" fill="#A0A747"/>
<path d="M137.895 22.8897C139.645 22.8805 141.394 22.8805 143.147 22.8897C144.718 28.0128 146.305 33.1267 147.882 38.2497C146.557 38.2497 145.228 38.2497 143.903 38.2497C143.7 37.5174 143.488 36.7913 143.285 36.059C141.45 36.059 139.614 36.059 137.775 36.059C137.572 36.7913 137.363 37.5174 137.16 38.2497C135.826 38.2497 134.492 38.2528 133.16 38.2497C134.734 33.1267 136.324 28.0097 137.895 22.8897ZM138.688 32.7882C139.918 32.7882 141.145 32.7882 142.375 32.7882C141.754 30.7667 141.145 28.742 140.521 26.7236C139.903 28.7451 139.297 30.7667 138.688 32.7882Z" fill="#A0A747"/>
<path d="M152.277 22.904C154.62 22.9194 156.963 22.8702 159.306 22.9255C161.824 23.0117 163.967 25.2794 164.035 27.7809C164.195 29.6917 163.208 31.584 161.594 32.5994C162.565 34.4855 163.555 36.3625 164.53 38.2486C163.214 38.2517 161.901 38.2486 160.588 38.2486C159.752 36.6178 158.919 34.9902 158.079 33.3625C157.341 33.3655 156.607 33.3655 155.872 33.3655C155.872 34.9932 155.872 36.6209 155.872 38.2486C154.673 38.2486 153.473 38.2486 152.277 38.2486C152.277 33.1317 152.277 28.0179 152.277 22.904ZM155.872 26.5779C155.869 27.7102 155.869 28.8425 155.872 29.9779C156.994 29.9471 158.129 30.0702 159.245 29.8948C160.736 29.5194 160.739 27.0302 159.254 26.6425C158.135 26.4917 156.997 26.6086 155.872 26.5779Z" fill="#A0A747"/>
<path d="M169.266 22.9007C171.369 22.9192 173.469 22.8761 175.572 22.9161C177.813 23.0115 179.892 24.39 180.996 26.3223C182.911 29.6146 182.345 34.3315 179.314 36.7715C178.173 37.7069 176.71 38.2177 175.24 38.2361C173.247 38.27 171.255 38.2392 169.266 38.2484C169.266 33.1315 169.266 28.0177 169.266 22.9007ZM173.109 26.6946C173.109 29.2823 173.106 31.873 173.112 34.4607C174.422 34.4207 175.898 34.673 177.035 33.8546C178.939 32.4053 179.016 29.1684 177.34 27.5192C176.211 26.43 174.53 26.7253 173.109 26.6946Z" fill="#A0A747"/>
<path d="M186.867 22.8828C190.096 22.8828 193.324 22.8828 196.553 22.8828C196.553 24.1197 196.553 25.3567 196.553 26.5936C194.548 26.5967 192.543 26.5967 190.538 26.5967C190.538 27.3505 190.535 28.1074 190.538 28.8613C192.1 28.8674 193.662 28.8644 195.227 28.8674C195.227 29.9874 195.227 31.1074 195.227 32.2305C193.662 32.2305 192.1 32.2274 190.538 32.2336C190.535 32.9997 190.538 33.769 190.538 34.5382C192.62 34.5382 194.702 34.5382 196.783 34.5382C196.783 35.7751 196.783 37.012 196.783 38.249C193.478 38.249 190.173 38.249 186.867 38.249C186.867 33.1259 186.867 28.0059 186.867 22.8828Z" fill="#A0A747"/>
<path d="M202.068 22.9231C203.033 22.9201 203.999 22.9231 204.97 22.9262C206.661 25.477 208.359 28.0216 210.059 30.5662C210.062 28.0185 210.059 25.4708 210.062 22.9231C211.301 22.9231 212.543 22.9231 213.789 22.9231C213.792 28.037 213.789 33.1539 213.789 38.2678C212.826 38.2678 211.867 38.2678 210.908 38.2708C209.195 35.7139 207.51 33.1385 205.797 30.5847C205.791 33.1508 205.797 35.7201 205.794 38.2862C204.552 38.2893 203.307 38.2893 202.068 38.2862C202.068 33.1662 202.065 28.0431 202.068 22.9231Z" fill="#A0A747"/>
</svg>
