<?xml version="1.0" standalone="no"?>
<!DOCTYPE svg PUBLIC "-//W3C//DTD SVG 1.1//EN" "http://www.w3.org/Graphics/SVG/1.1/DTD/svg11.dtd" >
<svg>
<metadata>
Created by FontForge 20090914 at Fri Jan 20 17:01:55 2023
 By www-data
Copyright (c) 2017 by TypeType. Designer Ivan Gladkikh, technical designers Victoria Usmanova, Nadyr Rakhimov. All rights reserved.
</metadata>
<defs>
<font id="TTTravels-Regular" horiz-adv-x="1310" >
  <font-face 
    font-family="TT Travels Regular"
    font-weight="400"
    font-stretch="normal"
    units-per-em="2048"
    panose-1="2 0 5 3 3 0 0 2 0 4"
    ascent="1638"
    descent="-410"
    x-height="1004"
    cap-height="1434"
    bbox="-369 -547.003 2945 1946"
    underline-thickness="0"
    underline-position="0"
    unicode-range="U+000D-U+FB06"
  />
<missing-glyph horiz-adv-x="0" 
 />
    <glyph glyph-name="uniFB00" unicode="ff" horiz-adv-x="1347" 
d="M883 1298l8.00293 0.000976562c64 104 161.667 156 293 156c35.333 0 70.166 -3.33301 104.499 -10s60.166 -14.334 77.499 -23.001l23 -12v-123c-44.667 32.667 -109.667 49 -195 49c-154 0 -231 -93.333 -231 -280v-51h325v-119h-325v-885h-127v885h-484v-885h-127v885
h-174v119h174v61c0 128.667 33.667 225.667 101 291s156.666 98 267.999 98c40 0 78 -5.16699 114 -15.5s64.667 -23.5 86 -39.5c40 -30.667 66.667 -58.667 80 -84zM352.003 1004h484v61c0 87.333 -21.667 154.833 -65 202.5s-103 71.5 -179 71.5
c-70.667 0 -128.667 -23 -174 -69c-44.667 -46.667 -66.667 -115 -66 -205v-61z" />
    <glyph glyph-name="uniFB01" unicode="fi" horiz-adv-x="1136" 
d="M836 885h-483.999v-885h-127v885h-174v119h174v61c0 129.333 33.333 226.333 100 291c66.667 65.333 155 98 265 98c113.333 0 203.666 -32 270.999 -96c66.667 -64 100 -148 100 -252h-125c0 56 -19 109 -57 159c-39.333 49.333 -101 74 -185 74
c-77.333 0 -137 -23.167 -179 -69.5s-63 -114.5 -63 -204.5v-61h611v-1004h-127v885z" />
    <glyph glyph-name="uniFB02" unicode="fl" horiz-adv-x="1136" 
d="M963 1065l0.000976562 -1065h-127v885h-484v-885h-127v885h-174v119h174v61c0 128.667 33.667 225.667 101 291s156.666 98 267.999 98c112 0 201.667 -32.667 269 -98c66.667 -64.667 100 -161.667 100 -291zM836.001 1004v61c0 180 -80.667 270 -242 270
s-242 -90 -242 -270v-61h484z" />
    <glyph glyph-name="uniFB03" unicode="ffi" horiz-adv-x="1748" 
d="M1448 0l0.000976562 885.001h-485v-885h-127v885h-484v-885h-127v885h-174v119h174v61c0 129.333 33.333 226.333 100 291c66.667 65.333 153.667 98 261 98c44.667 0 86.167 -5.83301 124.5 -17.5s69.166 -26.834 92.499 -45.501c45.333 -36.667 74 -69 86 -97l6 -18h8
c3.33301 12 16.333 32.667 39 62c14 18.667 32.333 36.667 55 54c23.333 17.333 54.5 32 93.5 44s80.167 18 123.5 18c108.667 0 195.667 -32.333 261 -97c65.333 -65.333 98 -149 98 -251h-125c0 55.333 -19.333 107.333 -58 156s-100 73 -184 73
c-162.667 0 -243.667 -90 -243 -270v-61h612v-1004h-127zM836.001 1004v61c0 180 -80.667 270 -242 270s-242 -90 -242 -270v-61h484z" />
    <glyph glyph-name="uniFB04" unicode="ffl" horiz-adv-x="1748" 
d="M1575 1004l-0.000976562 -1004h-127v885h-485v-885h-127v885h-484v-885h-127v885h-174v119h174v61c0 128.667 34 225.667 102 291c67.333 65.333 156.333 98 267 98c42.667 0 82.667 -5.83301 120 -17.5s67.333 -26.834 90 -45.501
c42.667 -35.333 70.334 -67.666 83.001 -96.999l8 -18h8c4.66699 16 16.667 36.667 36 62c16.667 20.667 35 38.667 55 54c22 16.667 52 31.167 90 43.5s78 18.5 120 18.5c112 0 201.667 -32.667 269 -98c66.667 -66 100 -163 100 -291v-61h2zM835.999 1004v61
c0 180 -80.667 270 -242 270s-242 -90 -242 -270v-61h484zM1446 1004v61c0 180 -80.333 270 -241 270c-161.333 0 -242 -90 -242 -270v-61h483z" />
    <glyph glyph-name="f_j.liga" unicode="fj" horiz-adv-x="1136" 
d="M836 885l-483.998 -0.000976562v-885h-127v885h-174v119h174v61c0 129.333 33.333 226.333 100 291c66.667 65.333 155 98 265 98c113.333 0 203.666 -32 270.999 -96c66.667 -64 100 -148 100 -252h-125c0 56 -19 108.333 -57 157c-38.667 48 -100.334 72 -185.001 72
c-161.333 0 -242 -90 -242 -270v-61h611v-1078c0 -237.333 -104.667 -356 -314 -356c-31.333 0 -67.333 5.33301 -108 16l-17 6v123c32.667 -15.333 67 -22.666 103 -21.999c67.333 0 119.333 17.667 156 53c35.333 35.333 53 100.333 53 195v944z" />
    <glyph glyph-name="f_k.liga" unicode="fk" horiz-adv-x="1755" 
d="M963 1065l0.000976562 -545l581 484h170l-581 -488l622 -516h-170l-622 512v-512h-127v885h-484v-885h-127v885h-174v119h174v61c0 128.667 33.667 225.667 101 291s156.666 98 267.999 98c112 0 201.667 -32.667 269 -98c66.667 -64.667 100 -161.667 100 -291z
M836.001 1004v61c0 180 -80.667 270 -242 270s-242 -90 -242 -270v-61h484z" />
    <glyph glyph-name=".notdef" horiz-adv-x="0" 
 />
    <glyph glyph-name="glyph1" horiz-adv-x="0" 
 />
    <glyph glyph-name="glyph1" horiz-adv-x="0" 
 />
    <glyph glyph-name="uni000D" unicode="&#xd;" horiz-adv-x="0" 
 />
    <glyph glyph-name="space" unicode=" " horiz-adv-x="491" 
 />
    <glyph glyph-name="exclam" unicode="!" horiz-adv-x="544" 
d="M319 385h-94l-20 721v328h135v-328zM209 3c-16.667 14.667 -25 34.999 -25 60.999s8.33301 46.333 25 61c15.333 14.667 36.333 22 63 22c26 0 47.333 -7.33301 64 -22c16 -14.667 24 -35 24 -61c0 -25.333 -8 -45.666 -24 -60.999s-37.333 -23 -64 -23
s-47.667 7.66699 -63 23z" />
    <glyph glyph-name="quotedbl" unicode="&#x22;" horiz-adv-x="712" 
d="M252 840h-90l-19 430v164h127v-164zM553 840h-92l-19 430v164h127v-164z" />
    <glyph glyph-name="numbersign" unicode="#" horiz-adv-x="1454" 
d="M874 0h-122l90 371h-400l-90 -371h-123l90 371h-237v114h264l113 463h-238v115h266l91 371h122l-90 -371h400l90 371h123l-90 -371h239v-115h-268l-113 -463h246v-114h-272zM981 948h-399l-113 -463h399z" />
    <glyph glyph-name="dollar" unicode="$" horiz-adv-x="1390" 
d="M760 -258l-134.999 -0.00195312v242c-77.333 3.33301 -169 32 -275 86c-57.333 29.333 -104 73 -140 131c-37.333 59.333 -56 128.333 -56 207v81h135v-81c0 -97.333 38.667 -172.666 116 -225.999s175.333 -80 294 -80c119.333 0 216.333 25.333 291 76s112 121 112 211
c0 101.333 -60.333 172.333 -181 213c-40.667 13.333 -105.334 29.5 -194.001 48.5s-149 32.833 -181 41.5c-64 16.667 -123.333 37.667 -178 63s-98.334 64.333 -131.001 117c-34 52 -51 115.667 -51 191c0 72.667 18 136 54 190c34.667 52.667 78.334 92.667 131.001 120
c100.667 51.333 185.334 77 254.001 77v242h135v-242c70.667 -3.33301 151 -30.333 241 -81c49.333 -28 91 -70.667 125 -128c33.333 -57.333 50 -125 50 -203v-41h-136v41c0 95.333 -32.333 168 -97 218s-152.334 75 -263.001 75c-106.667 0 -193 -24 -259 -72
c-66 -48.667 -99 -114 -99 -196c0 -64 22.667 -116 68 -156c45.333 -41.333 102 -69.333 170 -84c63.333 -14.667 136.666 -32.667 219.999 -54c68.667 -18 142 -38.667 220 -62c68.667 -22 125.334 -60 170.001 -114c44.667 -53.333 67 -121.333 67 -204
c0 -75.333 -19 -141.666 -57 -198.999c-39.333 -57.333 -86.666 -99.333 -141.999 -126c-110.667 -53.333 -203.334 -80 -278.001 -80v-242z" />
    <glyph glyph-name="percent" unicode="%" horiz-adv-x="1685" 
d="M422 0h-141l983 1434h141zM420 1454c95.333 0 171.666 -29.667 228.999 -89s86 -138 86 -236c0 -98.667 -28.667 -177.667 -86 -237s-133.666 -89 -228.999 -89c-96.667 0 -173.667 29.667 -231 89c-58 58.667 -87 137.667 -87 237c0 98 29 176.667 87 236
c57.333 59.333 134.333 89 231 89zM562 971c36 40.667 54 93.334 54 158.001s-18 117.334 -54 158.001s-83.333 61 -142 61c-60 0 -108 -20.333 -144 -61c-36.667 -40.667 -55 -93.334 -55 -158.001s18.333 -117.334 55 -158.001c36 -41.333 84 -62 144 -62
c58.667 0 106 20.667 142 62zM1266 -20c-95.333 0 -171.667 29.667 -229 89c-58 59.333 -87 138.333 -87 237c0 98 28.667 176.667 86 236s134 89 230 89c96.667 0 173.667 -29.667 231 -89s86 -138 86 -236c0 -98.667 -28.667 -177.667 -86 -237s-134.333 -89 -231 -89z
M1124 463c-36.667 -40.667 -55 -93.333 -55 -158c0 -64 18.333 -116.333 55 -157c36 -41.333 83.333 -62 142 -62c60 0 108 20.667 144 62s54 93.666 54 156.999c0 64.667 -18 117.334 -54 158.001s-84 61 -144 61c-58.667 0 -106 -20.333 -142 -61z" />
    <glyph glyph-name="ampersand" unicode="&#x26;" horiz-adv-x="1402" 
d="M653 -20c-162 0 -287.332 46.333 -375.999 139c-89.333 93.333 -134 209.333 -134 348c0 75.333 12.333 142 37 200c25.333 59.333 55.333 105 90 137c33.333 30.667 67.333 56.667 102 78s65 36 91 44l37 8v2l-293 369v129h956v-123h-780v-4l655 -834v475h123v-473
c0 -55.333 -3.33301 -96.333 -10 -123l-2 -16l213 -268l-98 -88l-174 219h-5c-9.33301 -20 -28.333 -45.667 -57 -77c-22.667 -24.667 -49.334 -46.667 -80.001 -66c-32 -20.667 -73.333 -38 -124 -52c-53.333 -16 -110.333 -24 -171 -24zM653.001 102
c49.333 0 95.499 6.83203 138.499 20.499s77.5 31.167 103.5 52.5c24 19.333 44.5 39.166 61.5 59.499s28.5 37.833 34.5 52.5l10 22l-415 522c-8 -0.666992 -19 -2.66699 -33 -6c-16 -3.33301 -40.667 -12.666 -74 -27.999c-36.667 -18 -68 -38 -94 -60
c-27.333 -23.333 -51.666 -58.666 -72.999 -105.999c-22 -48 -33 -102.667 -33 -164c0 -104.667 33 -191.667 99 -261s157.667 -104 275 -104z" />
    <glyph glyph-name="quotesingle" unicode="'" horiz-adv-x="421" 
d="M260 840h-90l-18 430v164h127v-164z" />
    <glyph glyph-name="parenleft" unicode="(" horiz-adv-x="856" 
d="M836 -393v-119c-196 0 -360.667 101 -494 303c-132.667 201.333 -199 462.333 -199 783c0 320 66.333 580.667 199 782c133.333 202 298 303 494 303v-119c-159.333 0 -293.333 -93.333 -402 -280c-109.333 -187.333 -164 -416 -164 -686
c0 -269.333 54.667 -498.333 164 -687c108.667 -186.667 242.667 -280 402 -280z" />
    <glyph glyph-name="parenright" unicode=")" horiz-adv-x="856" 
d="M20 -512v119c159.333 0 293.333 93.333 402 280c109.333 188.667 164 417.667 164 687c0 270 -54.667 498.667 -164 686c-108.667 186.667 -242.667 280 -402 280v119c196 0 360.667 -101 494 -303c132.667 -201.333 199 -462 199 -782
c0 -320.667 -66.333 -581.667 -199 -783c-133.333 -202 -298 -303 -494 -303z" />
    <glyph glyph-name="asterisk" unicode="*" horiz-adv-x="978" 
d="M512 1315l-14 -45h-17c-42 109.333 -63 201.333 -63 276c0 53.333 24 80 72 80c47.333 0 71 -26.667 71 -80c0 -34 -5.33301 -73.333 -16 -118c-10.667 -45.333 -21.667 -83 -33 -113zM582 1221l-45.001 2l-5 14c89.333 75.333 169.333 124.333 240 147
c51.333 19.333 84.333 6 99 -40s-2.66602 -77.667 -51.999 -95c-32 -10.667 -71.667 -18 -119 -22c-46.667 -4 -86 -6 -118 -6zM409.999 1266l35.998 -29l-4 -14c-115.333 -6.66699 -209.333 2 -282 26c-48.667 16.667 -65.667 48.334 -51 95.001
c14.667 45.333 47.334 58.666 98.001 39.999c33.333 -12 69.333 -29.667 108 -53c44.667 -28 76.334 -49.667 95.001 -65zM523.997 1130l-13.999 44.001l12 10c100.667 -60 173.667 -118.667 219 -176c35.333 -44.667 32.666 -80.334 -8.00098 -107.001
c-37.333 -30 -71.333 -23.667 -102 19c-22 26 -43 60 -63 102c-19.333 38.667 -34 74.667 -44 108zM417.998 1159l39 25l12 -10c-30.667 -108.667 -71 -193.334 -121 -254.001c-30.667 -42 -64.667 -48.333 -102 -19c-40.667 26.667 -43.334 62.334 -8.00098 107.001
c22.667 28 51 55.667 85 83c36.667 29.333 68.334 52 95.001 68z" />
    <glyph glyph-name="plus" unicode="+" horiz-adv-x="1040" 
d="M461 600v354h119v-354h358v-119h-358v-354h-119v354h-359v119h359z" />
    <glyph glyph-name="comma" unicode="," horiz-adv-x="380" 
d="M180 -266v197.999c0 26 -13 44.667 -39 56c-26 12 -39 37 -39 75c0 24.667 8.33301 44.834 25 60.501s37.667 23.5 63 23.5c57.333 0 87 -34 89 -102c0 -88.667 -10.667 -163 -32 -223c-20.667 -58.667 -43 -88 -67 -88z" />
    <glyph glyph-name="hyphen" unicode="-" horiz-adv-x="616" 
d="M82 481l453 189v-135l-453 -189v135z" />
    <glyph glyph-name="period" unicode="." horiz-adv-x="380" 
d="M127 3c-16.667 14.667 -25 35 -25 61s8.33301 46.333 25 61c16.667 15.333 37.834 23 63.501 23s46.834 -7.66699 63.501 -23c16.667 -14.667 25 -35 25 -61s-8.33301 -46.333 -25 -61c-16.667 -15.333 -37.834 -23 -63.501 -23s-46.834 7.66699 -63.501 23z" />
    <glyph glyph-name="slash" unicode="/" horiz-adv-x="907" 
d="M127 -246h-127l780 1680h127z" />
    <glyph glyph-name="zero" unicode="0" horiz-adv-x="1572" 
d="M1257 189c-116 -139.333 -273 -209 -471 -209s-354.667 69.667 -470 209s-173 315.333 -173 528s57.667 388.667 173 528s272 209 470 209s355 -69.667 471 -209c115.333 -139.333 173 -315.333 173 -528s-57.667 -388.667 -173 -528zM1156 1154
c-89.333 115.333 -212.334 173 -369.001 173c-157.333 0 -280.666 -57.667 -369.999 -173s-134 -261 -134 -437s44.667 -321.667 134 -437c88.667 -116 212 -174 370 -174c156.667 0 279.667 58 369 174c89.333 115.333 134 261 134 437s-44.667 321.667 -134 437z" />
    <glyph glyph-name="one" unicode="1" horiz-adv-x="731" 
d="M391 1266l-309 -275v162l311 281h133v-1434h-135v1266z" />
    <glyph glyph-name="two" unicode="2" horiz-adv-x="1384" 
d="M1262 0h-1139v111c0 62 14 119.5 42 172.5s66 97.833 114 134.5c92.667 72 206.334 133.667 341.001 185c126.667 48.667 240.334 105.667 341.001 171c48 31.333 85.833 69.166 113.5 113.499s41.5 92.5 41.5 144.5c0 96.667 -36.667 170.667 -110 222
c-74.667 51.333 -173 77 -295 77c-123.333 0 -221.666 -27 -294.999 -81c-74 -54 -111 -132.667 -111 -236v-41h-135v41c0 139.333 49.667 247.666 149 324.999c98.667 76.667 229.334 115 392.001 115s293.334 -37.333 392.001 -112s148 -178 148 -310
c0 -71.333 -17.5 -136.666 -52.5 -195.999s-82.5 -109 -142.5 -149c-92 -61.333 -226.667 -129.333 -404 -204c-46.667 -19.333 -87.167 -37.333 -121.5 -54s-69.333 -36.5 -105 -59.5s-64.834 -46.167 -87.501 -69.5s-41 -50.166 -55 -80.499s-21 -62.5 -21 -96.5h1000
v-123z" />
    <glyph glyph-name="three" unicode="3" horiz-adv-x="1368" 
d="M1235 434c0 -140 -51 -250.667 -153 -332c-103.333 -81.333 -237.333 -122 -402 -122c-166 0 -300.333 40.667 -403 122c-102.667 80.667 -154 192.667 -154 336v37h135v-37c0 -110 38.333 -193.333 115 -250c76.667 -57.333 179 -86 307 -86
c126 0 227.667 28.667 305 86c76.667 56.667 115 138.667 115 246c0 108 -38 189.333 -114 244c-75.333 54.667 -177.333 82 -306 82h-340v133l633 414v4h-797v123h1002v-134l-633 -413v-4h135c166.667 0 301 -39 403 -117c101.333 -78 152 -188.667 152 -332z" />
    <glyph glyph-name="four" unicode="4" horiz-adv-x="1335" 
d="M1063 0h-135v358h-877v129l830 947h182v-953h201v-123h-201v-358zM211 487v-6h717v813h-4z" />
    <glyph glyph-name="five" unicode="5" horiz-adv-x="1406" 
d="M1133 820c100.667 -86.667 151.002 -204.999 151.002 -354.999s-50.333 -268.333 -151 -355s-234 -130 -400 -130c-94 0 -178.5 13.5 -253.5 40.5s-133.167 63.167 -174.5 108.5c-80.667 87.333 -121 178 -121 272h135c0 -60 28 -122 84 -186
c29.333 -34 73.166 -61.333 131.499 -82s124.5 -31 198.5 -31c125.333 0 226 32 302 96c76 62.667 114 151.667 114 267s-38 204.666 -114 267.999c-76.667 62.667 -179.334 94 -308.001 94c-58 0 -111.833 -6.5 -161.5 -19.5s-88.5 -29.833 -116.5 -50.5
c-58 -43.333 -93 -80 -105 -110l-10 -20h-135v807h987v-123h-852v-500h4c7.33301 12 26.333 28.333 57 49c22 14.667 47.667 28.667 77 42c74.667 32 163.667 48 267 48c162 0 293.333 -43.333 394 -130z" />
    <glyph glyph-name="six" unicode="6" horiz-adv-x="1445" 
d="M1241 1059l-142.999 0.000976562c-5.33301 24 -19 55 -41 93c-18 30.667 -39.333 58 -64 82c-26.667 26 -63.5 48 -110.5 66s-97.5 27 -151.5 27c-148.667 0 -259.334 -58 -332.001 -174c-73.333 -116.667 -110 -266 -110 -448h4c3.33301 8 7.66602 16.333 12.999 25
c6 10 21.333 28.333 46 55c23.333 25.333 51.333 49 84 71c30.667 21.333 74.667 40.333 132 57c56 16.667 118 25 186 25c154 0 282.333 -44.333 385 -133c102 -88.667 153 -204 153 -346c0 -147.333 -50.333 -264 -151 -350s-235.334 -129 -404.001 -129
c-186.667 0 -330.667 59.667 -432 179c-100.667 118.667 -151 280 -151 484v72c0 210.667 49.667 386.667 149 528c98.667 140.667 241.334 211 428.001 211c73.333 0 141.333 -11.667 204 -35c60 -22 109.333 -50.333 148 -85c36.667 -34 67.334 -70 92.001 -108
c44 -68.667 66 -124.334 66 -167.001zM737.001 106.001c123.333 0 223.667 31.999 301 95.999c76.667 62.667 115 148.334 115 257.001c0 108 -38.667 193.667 -116 257c-78.667 63.333 -178.667 95 -300 95c-114 0 -210.333 -32.667 -289 -98
c-78.667 -66 -118 -150.667 -118 -254c0 -105.333 38.333 -190.333 115 -255c76.667 -65.333 174 -98 292 -98z" />
    <glyph glyph-name="seven" unicode="7" horiz-adv-x="1165" 
d="M967 1311h-916v123h1053v-140l-735 -1294h-144z" />
    <glyph glyph-name="eight" unicode="8" horiz-adv-x="1462" 
d="M1149 91c-107.333 -74 -246.666 -111.001 -417.999 -111.001c-172.667 0 -311.667 37.333 -417 112c-106.667 74 -160 175 -160 303c0 54 10.333 103.333 31 148s47.667 80 81 106c60.667 47.333 118.667 78 174 92l33 9v6c-29.333 6.66699 -61.333 18.334 -96 35.001
c-33.333 16 -61 33.667 -83 53c-26 22 -48.333 53 -67 93s-28 83.333 -28 130c0 118.667 48.333 213 145 283c97.333 69.333 226.333 104 387 104c161.333 0 290.666 -34.667 387.999 -104c96.667 -70 145 -164.333 145 -283c0 -47.333 -9.33301 -91 -28 -131
s-42 -71 -70 -93c-57.333 -45.333 -106.666 -72.333 -147.999 -81l-29 -6v-6c5.33301 -0.666992 16.666 -3.33398 33.999 -8.00098c22 -8 47.667 -18.667 77 -32c35.333 -16 67.666 -36.667 96.999 -62c28.667 -24.667 54.334 -58.667 77.001 -102
c23.333 -45.333 35 -95.666 35 -150.999c0 -128.667 -53.333 -230 -160 -304zM412 180.999c78.667 -50 185 -75 319 -75s240.667 25 320 75c78.667 50 118 121.667 118 215c0 92.667 -39.667 164 -119 214c-80.667 49.333 -187 74 -319 74
c-132.667 0 -238.667 -24.667 -318 -74c-80 -50 -120 -121.333 -120 -214c0 -93.333 39.667 -165 119 -215zM445 880.999c70.667 -46.667 165.998 -70.001 285.998 -70.001c120.667 0 216.334 23.333 287.001 70c70.667 46 106 108 106 186
c0 80.667 -35.333 144.334 -106 191.001c-71.333 46 -167 69 -287 69c-119.333 0 -214.666 -23 -285.999 -69c-71.333 -47.333 -107 -111 -107 -191c0 -78 35.667 -140 107 -186z" />
    <glyph glyph-name="nine" unicode="9" horiz-adv-x="1445" 
d="M168 375l142.999 0.00390625c0.666992 -2 2.16699 -6.16699 4.5 -12.5s4.5 -11.5 6.5 -15.5c4 -12.667 16.333 -34.334 37 -65.001c20 -30.667 43.333 -58 70 -82c27.333 -24.667 65.333 -46.334 114 -65.001c50 -19.333 104 -29 162 -29
c104.667 0 191.334 29.333 260.001 88c70 58.667 119.333 132.667 148 222c29.333 91.333 44 195.666 44 312.999h-4c-3.33301 -8 -7.66602 -16.333 -12.999 -25c-6.66699 -10 -22 -28.667 -46 -56c-24 -26 -52 -49.333 -84 -70c-29.333 -20 -73.333 -38.667 -132 -56
c-58 -17.333 -120 -26 -186 -26c-154.667 0 -282.667 44.333 -384 133c-102.667 88.667 -154 204 -154 346c0 147.333 50.667 264 152 350s235.666 129 402.999 129c186.667 0 330.667 -59.667 432 -179c100.667 -118.667 151 -280 151 -484v-72
c0 -212.667 -50 -389 -150 -529c-101.333 -140 -247 -210 -437 -210c-78.667 0 -149 11.667 -211 35c-65.333 23.333 -116.666 51.666 -153.999 84.999c-38.667 34 -71.334 70 -98.001 108c-49.333 69.333 -74 125 -74 167zM708.999 1327
c-123.333 0 -223.666 -31.666 -300.999 -94.999c-76.667 -62.667 -115 -148.334 -115 -257.001s39 -194.334 117 -257.001c77.333 -63.333 177 -95 299 -95c114 0 210.667 32.667 290 98c78 64.667 117 149.334 117 254.001s-38 189.667 -114 255
c-76.667 64.667 -174.334 97 -293.001 97z" />
    <glyph glyph-name="colon" unicode=":" horiz-adv-x="380" 
d="M127 3c-16.667 14.667 -25 35 -25 61s8.33301 46.333 25 61c16.667 15.333 37.834 23 63.501 23s46.834 -7.66699 63.501 -23c16.667 -14.667 25 -35 25 -61s-8.33301 -46.333 -25 -61c-16.667 -15.333 -37.834 -23 -63.501 -23s-46.834 7.66699 -63.501 23zM127 879
c-16.667 14.667 -25 35 -25 61c0 26.667 8.33301 47.334 25 62.001s37.834 22 63.501 22s46.834 -7.33301 63.501 -22s25 -35.334 25 -62.001c0 -26 -8.33301 -46.333 -25 -61c-16.667 -15.333 -37.834 -23 -63.501 -23s-46.834 7.66699 -63.501 23z" />
    <glyph glyph-name="semicolon" unicode=";" horiz-adv-x="380" 
d="M127 879c-16.667 14.667 -25 35 -25 61c0 26.667 8.33301 47.334 25 62.001s37.834 22 63.501 22s46.834 -7.33301 63.501 -22s25 -35.334 25 -62.001c0 -26 -8.33301 -46.333 -25 -61c-16.667 -15.333 -37.834 -23 -63.501 -23s-46.834 7.66699 -63.501 23zM180 -266
v197.999c0 26 -13 44.667 -39 56c-26 12 -39 37 -39 75c0 24.667 8.33301 44.834 25 60.501s37.667 23.5 63 23.5c57.333 0 87 -34 89 -102c0 -88.667 -10.667 -163 -32 -223c-20.667 -58.667 -43 -88 -67 -88z" />
    <glyph glyph-name="less" unicode="&#x3c;" horiz-adv-x="1153" 
d="M1071 -20l-1010 450v143l1010 451v-131l-876 -387v-8l876 -387v-131z" />
    <glyph glyph-name="equal" unicode="=" horiz-adv-x="1040" 
d="M938 678h-836v119h836v-119zM938 305h-836v119h836v-119z" />
    <glyph glyph-name="greater" unicode="&#x3e;" horiz-adv-x="1153" 
d="M82 1024l1010 -451v-143l-1010 -450v131l876 387v8l-876 387v131z" />
    <glyph glyph-name="question" unicode="?" horiz-adv-x="1232" 
d="M446 643c0 -33.333 13.833 -59.667 41.5 -79s63.834 -29 108.501 -29c43.333 0 77.666 8.66699 102.999 26s38 43.333 38 78v25h129v-25c0 -70 -23.667 -124 -71 -162s-113.666 -57 -198.999 -57c-88 0 -156.5 19.667 -205.5 59s-73.5 94.333 -73.5 165
s23.667 126 71 166c46.667 39.333 104.334 66.666 173.001 81.999c63.333 13.333 130.666 26.333 201.999 39c67.333 11.333 124.666 33 171.999 65s71 77.667 71 137c0 58 -36.667 105.667 -110 143c-72.667 36.667 -166 55 -280 55c-114.667 0 -208 -21 -280 -63
c-72.667 -42.667 -109 -102 -109 -178v-58h-135v58c0 113.333 49 202.333 147 267c96.667 64.667 222.667 97 378 97c153.333 0 279.333 -28.667 378 -86c97.333 -57.333 146 -135.666 146 -234.999c0 -79.333 -24 -142.333 -72 -189c-47.333 -46.667 -105 -78 -173 -94
c-59.333 -15.333 -127 -29 -203 -41c-68.667 -10.667 -127 -28.667 -175 -54c-48 -24.667 -72 -62 -72 -112zM531 2.99902c-16.667 14.667 -25 34.999 -25 60.999s8.33301 46.333 25 61c15.333 14.667 36.333 22 63 22c26 0 47.333 -7.33301 64 -22
c16 -14.667 24 -35 24 -61c0 -25.333 -8 -45.666 -24 -60.999s-37.333 -23 -64 -23s-47.667 7.66699 -63 23z" />
    <glyph glyph-name="at" unicode="@" horiz-adv-x="1998" 
d="M685 207c-76 82 -114.003 185.997 -114.003 311.997c0 125.333 38 229 114 311c76 81.333 171.333 122 286 122c87.333 0 155.333 -16.333 204 -49c37.333 -26 66.333 -52.667 87 -80l8 -14h6v123h127v-561c0 -55.333 13.5 -97.166 40.5 -125.499s65.5 -42.5 115.5 -42.5
c77.333 5.33301 127.333 39 150 101c20 55.333 30 132.333 30 231c0 234 -64.333 420.333 -193 559c-129.333 139.333 -310 209 -542 209c-225.333 0 -404 -72.667 -536 -218c-132 -146 -198 -332.333 -198 -559c0 -221.333 65.667 -404.666 197 -549.999
s305.333 -218 522 -218c66.667 0 129 6 187 18c60 13.333 100.667 26 122 38l35 18l47 -104c-10 -6 -25.333 -14.333 -46 -25c-21.333 -9.33301 -65.666 -22.333 -132.999 -39c-68.667 -16 -139.334 -24 -212.001 -24c-253.333 0 -457.666 81.667 -612.999 245
c-155.333 164.667 -233 378.334 -233 641.001c0 264 79.667 479.333 239 646c158.667 166 366 249 622 249c267.333 0 478 -81.667 632 -245c153.333 -164.667 230 -378.334 230 -641.001c0 -158 -29.333 -272.333 -88 -343c-58.667 -72 -131.667 -108 -219 -108
c-38.667 0 -74.5 6 -107.5 18s-57.833 27 -74.5 45c-36 36.667 -56.667 69 -62 97l-4 18h-6c-7.33301 -16.667 -21.666 -37 -42.999 -61c-18 -20.667 -38 -38.667 -60 -54c-24 -17.333 -55.667 -32.166 -95 -44.499s-80.666 -18.5 -123.999 -18.5
c-122.667 0 -222 41 -298 123zM1197 292.997c52.667 59.333 79 134.333 79 225c0 90 -26.333 165.333 -79 226c-53.333 60 -124.666 90 -213.999 90c-88.667 0 -158.334 -30 -209.001 -90c-50.667 -60.667 -76 -136 -76 -226c0 -92 25.333 -167.333 76 -226
c51.333 -59.333 121 -89 209 -89c90 0 161.333 30 214 90z" />
    <glyph glyph-name="A" unicode="A" horiz-adv-x="1443" 
d="M629 1434h186l588 -1434h-141l-142 344h-796l-142 -344h-141zM375 467h694l-344 848h-6z" />
    <glyph glyph-name="B" unicode="B" horiz-adv-x="1488" 
d="M1264 1055c0 -44 -7.00195 -84.999 -21.002 -122.999s-31.667 -67.333 -53 -88c-46.667 -46.667 -85.667 -74 -117 -82l-20 -8v-6c8.66699 -1.33301 19.334 -3.33301 32.001 -6c10 -2 33 -11.333 69 -28c34 -16.667 63.667 -35.667 89 -57
c26.667 -24 50.334 -58.333 71.001 -103c21.333 -46.667 32 -98.334 32 -155.001c0 -266 -175.667 -399 -527 -399h-614v1434h600c148 0 261.5 -32.667 340.5 -98s118.5 -159 118.5 -281zM818.998 676.001h-479v-553h479c258 0 387 92.333 387 277c0 184 -129 276 -387 276z
M339.998 1311v-512h463c107.333 0 187.833 21.333 241.5 64s80.167 106.667 79.5 192c0 83.333 -28 146.833 -84 190.5s-135 65.5 -237 65.5h-463z" />
    <glyph glyph-name="C" unicode="C" horiz-adv-x="1665" 
d="M336 187c-128.667 136.667 -193.003 313.332 -193.003 529.999c0 216 64.333 392.667 193 530c128 138 299.333 207 514 207c118.667 0 225 -22 319 -66c94.667 -45.333 166.334 -100 215.001 -164c48 -63.333 84.667 -125.5 110 -186.5s38 -115.5 38 -163.5h-135
c0 42 -22 102 -66 180c-26.667 46 -58.667 88.667 -96 128c-38 38.667 -90.667 72.667 -158 102c-67.333 28.667 -143 43 -227 43c-175.333 0 -313.333 -57.333 -414 -172c-102 -115.333 -153 -261.333 -153 -438s51 -322.667 153 -438
c101.333 -115.333 239.333 -173 414 -173c82.667 0 158.334 14.667 227.001 44c67.333 29.333 120 63.333 158 102c37.333 38.667 69.333 81.334 96 128.001c44 78 66 137.667 66 179h135c0 -48 -12.667 -102.5 -38 -163.5s-62 -122.833 -110 -185.5
c-49.333 -64 -121 -118.333 -215 -163c-93.333 -44.667 -199.666 -67 -318.999 -67c-214.667 0 -386 69 -514 207z" />
    <glyph glyph-name="D" unicode="D" horiz-adv-x="1568" 
d="M205 1434l516 0.000976562c212.667 0 383.334 -67.333 512.001 -202c128 -134.667 192 -306.334 192 -515.001c0 -209.333 -64 -381 -192 -515c-128.667 -134.667 -299.334 -202 -512.001 -202h-516v1434zM1134 291.001c101.333 112.667 152 254.667 152 426
s-50.667 313.333 -152 426c-102 112 -239.667 168 -413 168h-381v-1188h381c173.333 0 311 56 413 168z" />
    <glyph glyph-name="E" unicode="E" horiz-adv-x="1372" 
d="M1239 0h-1034v1434h1034v-123h-899v-514h782v-123h-782v-551h899v-123z" />
    <glyph glyph-name="F" unicode="F" horiz-adv-x="1304" 
d="M340 0h-135v1434h1028v-123h-893v-590h750v-123h-750v-598z" />
    <glyph glyph-name="G" unicode="G" horiz-adv-x="1718" 
d="M1534 0l-131.001 -0.00292969v311h-6c-4.66699 -14 -9.33398 -25.667 -14.001 -35c-5.33301 -12 -23.666 -38.333 -54.999 -79c-28 -38 -61.333 -72 -100 -102c-39.333 -30 -93 -56.333 -161 -79c-68.667 -24 -144.334 -36 -227.001 -36c-208.667 0 -377 69 -505 207
c-128 137.333 -192 314 -192 530s64.333 392.667 193 530c128 138 299.333 207 514 207c110.667 0 210 -19 298 -57c87.333 -38.667 154.666 -84.667 201.999 -138c44.667 -52.667 82.334 -106.167 113.001 -160.5s50.334 -101.166 59.001 -140.499l12 -57h-141l-2 4
c-4 16.667 -10.333 38.334 -19 65.001c-8 21.333 -26 55.333 -54 102c-28.667 48 -60.667 88.667 -96 122c-37.333 34.667 -88.333 65.334 -153 92.001c-66 27.333 -139 41 -219 41c-175.333 0 -313.333 -57.333 -414 -172c-102 -115.333 -153 -261.333 -153 -438
c0 -176 50.667 -321.667 152 -437c100.667 -116 235.667 -174 405 -174c84 0 160 15.667 228 47c68.667 32 121.334 68.667 158.001 110c37.333 42 68.333 88 93 138c40.667 82 61 147.667 61 197h-522v123h676v-721z" />
    <glyph glyph-name="H" unicode="H" horiz-adv-x="1581" 
d="M1376 0h-135v682h-901v-682h-135v1434h135v-629h901v629h135v-1434z" />
    <glyph glyph-name="I" unicode="I" horiz-adv-x="1159" 
d="M123 1434h913v-123h-389v-1188h389v-123h-913v123h389v1188h-389v123z" />
    <glyph glyph-name="J" unicode="J" horiz-adv-x="1286" 
d="M102 539h136v-72c0 -112.667 31.667 -201 95 -265s153 -96 269 -96c118 0 208.333 32.333 271 97c62.667 63.333 94 151.333 94 264v844h-654v123h789v-967c0 -144 -44.667 -261.333 -134 -352c-89.333 -90 -211 -135 -365 -135c-155.333 0 -277.333 45 -366 135
c-90 90 -135 207.333 -135 352v72z" />
    <glyph glyph-name="K" unicode="K" horiz-adv-x="1314" 
d="M1305 0h-177l-788 715v-715h-135v1434h135v-699l733 699h174l-729 -709z" />
    <glyph glyph-name="L" unicode="L" horiz-adv-x="1286" 
d="M340 123h905v-123h-1040v1434h135v-1311z" />
    <glyph glyph-name="M" unicode="M" horiz-adv-x="1835" 
d="M1495 1280h-6l-485 -879h-173l-485 879h-6v-1280h-135v1434h211l499 -912h3h2l499 912h211v-1434h-135v1280z" />
    <glyph glyph-name="N" unicode="N" horiz-adv-x="1611" 
d="M1407 0h-211l-852 1286h-4v-1286h-135v1434h213l850 -1287h4v1287h135v-1434z" />
    <glyph glyph-name="O" unicode="O" horiz-adv-x="1695" 
d="M335 187c-128 137.333 -192 314.001 -192 530.001c0 215.333 64 392 192 530c127.333 138 298.333 207 513 207c214 0 385 -69 513 -207c127.333 -138.667 191 -315.334 191 -530.001c0 -216 -63.667 -392.667 -191 -530c-128 -138 -299 -207 -513 -207
c-214.667 0 -385.667 69 -513 207zM1260 279.001c102 115.333 153.001 261.333 153.001 438s-51 322.667 -153 438c-102.667 114.667 -240 172 -412 172s-309 -57.333 -411 -172c-102.667 -114.667 -154 -260.667 -154 -438s51.333 -323.333 154 -438
c102 -115.333 239 -173 411 -173c171.333 0 308.666 57.667 411.999 173z" />
    <glyph glyph-name="P" unicode="P" horiz-adv-x="1423" 
d="M725 436l-385 -0.000976562v-436h-135v1434h520c178.667 0 315.834 -43 411.501 -129s143.5 -209.667 143.5 -371s-47.833 -284.666 -143.5 -369.999s-232.834 -128 -411.501 -128zM340 1311v-752h385c133.333 0 236 32 308 96s108 157 108 279s-36 215.333 -108 280
s-174.667 97 -308 97h-385z" />
    <glyph glyph-name="Q" unicode="Q" horiz-adv-x="1695" 
d="M335 187c-128 137.333 -191.999 314.001 -191.999 530.001c0 215.333 64 392 192 530c127.333 138 298.333 207 513 207c214 0 385 -69 513 -207c127.333 -138.667 191 -315.334 191 -530.001c0 -187.333 -49 -346.333 -147 -477
c-99.333 -131.333 -233 -213.333 -401 -246c1.33301 -2 7 -11 17 -27c5.33301 -8.66699 23.666 -28 54.999 -58c29.333 -28 62.333 -53 99 -75c36 -22 85.667 -42 149 -60c64 -17.333 132 -26 204 -26v-127c-100.667 0 -192 12.333 -274 37
c-84.667 25.333 -149.667 55 -195 89c-46 33.333 -86.333 67.833 -121 103.5s-58.667 66.5 -72 92.5l-18 37c-214.667 0 -385.667 69 -513 207zM1260 279.001c102 115.333 153.001 261.333 153.001 438s-51 322.667 -153 438c-102.667 114.667 -240 172 -412 172
s-309 -57.333 -411 -172c-102.667 -114.667 -154 -260.667 -154 -438s51.333 -323.333 154 -438c102 -115.333 239 -173 411 -173c171.333 0 308.666 57.667 411.999 173z" />
    <glyph glyph-name="R" unicode="R" horiz-adv-x="1464" 
d="M1341 0l-153.001 -0.000976562l-373 565h-475v-565h-135v1434h571c154.667 0 276.334 -38.667 365.001 -116c87.333 -77.333 131 -183.666 131 -318.999c0 -60 -9.5 -115.5 -28.5 -166.5s-43.5 -91.5 -73.5 -121.5c-27.333 -28.667 -57 -52.667 -89 -72
c-52.667 -32.667 -93.667 -49 -123 -49zM339.999 1311l0.000976562 -622.999h436c111.333 0 198.666 27.333 261.999 82c63.333 55.333 95 131.666 95 228.999c0 96.667 -31.667 173 -95 229c-64.667 55.333 -152 83 -262 83h-436z" />
    <glyph glyph-name="S" unicode="S" horiz-adv-x="1472" 
d="M1184 389c0 55.333 -17.498 101.167 -52.498 137.5s-83.167 62.833 -144.5 79.5c-44 12 -113.833 26.333 -209.5 43s-160.834 28.667 -195.501 36c-70.667 15.333 -135.667 35.333 -195 60c-58.667 24.667 -106 64 -142 118c-36.667 53.333 -55 120 -55 200
c0 121.333 50.333 217 151 287c101.333 69.333 230 104 386 104c160 0 289.667 -35.667 389 -107c98.667 -72 148 -175 148 -309v-41h-136v41c0 98 -36.333 171.333 -109 220s-170 73 -292 73c-119.333 0 -215.666 -23.333 -288.999 -70
c-74.667 -46.667 -112 -112.667 -112 -198c0 -56.667 17.5 -104 52.5 -142s82.833 -66 143.5 -84c46 -13.333 121.667 -30 227 -50s165.333 -31.667 180 -35c69.333 -14.667 133.666 -34.667 192.999 -60c58.667 -24.667 106.334 -62.334 143.001 -113.001
c36 -51.333 54 -114.666 54 -189.999c0 -130 -55 -230.667 -165 -302c-110.667 -71.333 -250.334 -107 -419.001 -107c-169.333 0 -308.333 37.333 -417 112c-109.333 74 -164 179.333 -164 316v81h135v-81c0 -102 41.667 -178.667 125 -230c82.667 -50.667 190 -76 322 -76
c131.333 0 238.666 24.333 321.999 73c84 48.667 126 120 126 214z" />
    <glyph glyph-name="T" unicode="T" horiz-adv-x="1286" 
d="M575 1311h-534v123h1204v-123h-534v-1311h-136v1311z" />
    <glyph glyph-name="U" unicode="U" horiz-adv-x="1564" 
d="M1245 481v953h135v-959c0 -163.333 -56.333 -286.333 -169 -369c-112.667 -84 -255.667 -126 -429 -126s-316.333 42 -429 126c-112.667 82.667 -169 205.667 -169 369v959h135v-953c0 -123.333 44 -216.333 132 -279c87.333 -64 198 -96 332 -96s244.333 32 331 96
c87.333 63.333 131 156.333 131 279z" />
    <glyph glyph-name="V" unicode="V" horiz-adv-x="1363" 
d="M1169 1434h144l-535 -1434h-192l-535 1434h144l483 -1295h8z" />
    <glyph glyph-name="W" unicode="W" horiz-adv-x="2068" 
d="M932 1434h205l354 -1274h8l346 1274h142l-390 -1434h-204l-357 1282h-4l-356 -1282h-205l-389 1434h141l346 -1274h9z" />
    <glyph glyph-name="X" unicode="X" horiz-adv-x="1302" 
d="M1063 1434h156l-490 -689l533 -745h-156l-455 637l-454 -637h-156l532 745l-489 689h156l411 -578z" />
    <glyph glyph-name="Y" unicode="Y" horiz-adv-x="1345" 
d="M745 0h-145v541l-559 893h152l477 -760h6l477 760h152l-560 -893v-541z" />
    <glyph glyph-name="Z" unicode="Z" horiz-adv-x="1325" 
d="M1038 1311h-905v123h1065v-134l-936 -1173v-4h961v-123h-1121v133l936 1174v4z" />
    <glyph glyph-name="bracketleft" unicode="[" horiz-adv-x="731" 
d="M332 -393h358v-119h-485v2171h485v-119h-358v-1933z" />
    <glyph glyph-name="backslash" unicode="\" horiz-adv-x="907" 
d="M0 1434h127l780 -1680h-127z" />
    <glyph glyph-name="bracketright" unicode="]" horiz-adv-x="731" 
d="M526 -512h-485v119h358v1933h-358v119h485v-2171z" />
    <glyph glyph-name="asciicircum" unicode="^" horiz-adv-x="1107" 
d="M473 1434h162l381 -717h-137l-324 610h-2l-324 -610h-137z" />
    <glyph glyph-name="underscore" unicode="_" horiz-adv-x="899" 
d="M-41 -131h981v-119h-981v119z" />
    <glyph glyph-name="grave" unicode="`" horiz-adv-x="598" 
d="M61 1524h168l308 -328h-127z" />
    <glyph glyph-name="a" unicode="a" horiz-adv-x="1292" 
d="M123 274c0 97.333 44.002 171.665 132.002 222.998c87.333 50.667 197.666 76 330.999 76c70 0 137 -8.66699 201 -26c63.333 -18 108.333 -35 135 -51l43 -27v184c0 82 -31 144.667 -93 188c-62.667 42.667 -140.334 64 -233.001 64
c-90.667 0 -169.334 -18.667 -236.001 -56c-66.667 -36.667 -100 -82.667 -100 -138h-127c3.33301 82.667 44.333 155.334 123 218.001c79.333 63.333 191.333 95 336 95c130.667 0 239.334 -31.333 326.001 -94c87.333 -63.333 131 -155.666 131 -276.999v-424
c0 -48 7.5 -81.833 22.5 -101.5s40.167 -29.5 75.5 -29.5c22.667 0 41 2.66699 55 8l6 5v-111c-18.667 -9.33301 -46 -14 -82 -14c-63.333 0 -108.666 14.333 -135.999 43c-28 27.333 -44.667 49 -50 65l-2 12h-6c-4.66699 -8 -24.667 -22.333 -60 -43
c-24.667 -15.333 -50 -28.333 -76 -39c-64.667 -29.333 -146.334 -44 -245.001 -44c-138 0 -251 24 -339 72s-132 122 -132 222zM254.002 273.999c0 -117.333 118.668 -176 356.001 -176c70 0 135 10.333 195 31c59.333 20.667 98.666 37.667 117.999 51
c18 13.333 32 24.333 42 33v141c-4.66699 6 -17.667 15.667 -39 29c-24 14 -64.667 29.333 -122 46c-60 17.333 -124.667 26 -194 26c-140 0 -241 -24.333 -303 -73c-35.333 -28 -53 -64 -53 -108z" />
    <glyph glyph-name="b" unicode="b" horiz-adv-x="1376" 
d="M717 -20c-174.667 -2.66699 -309.333 59.332 -404 185.999l-4 6h-8v-172h-127v1434h127v-603h8l4 7c97.333 126 232 188 404 186c150.667 0 276.334 -48.667 377.001 -146c99.333 -98 149 -223.333 149 -376c0 -153.333 -49.667 -278.666 -149 -375.999
c-100.667 -97.333 -226.334 -146 -377.001 -146zM1000 216.999c74.667 76.667 112 171.667 112 285s-37.333 208.333 -112 285c-74.667 76 -172.334 114 -293.001 114c-118.667 0 -216 -37 -292 -111c-76 -74.667 -114 -170.667 -114 -288s38 -213.333 114 -288
c74.667 -74.667 172 -112 292 -112c120.667 0 218.334 38.333 293.001 115z" />
    <glyph glyph-name="c" unicode="c" horiz-adv-x="1312" 
d="M283 125c-100 96.667 -150.001 222.328 -150.001 376.995s50 280.334 150 377.001c98.667 96.667 226.334 145 383.001 145c68 0 132.667 -10.167 194 -30.5s112.333 -47.166 153 -80.499c38.667 -32.667 72 -68 100 -106c51.333 -70 77 -134.333 77 -193h-133
c0 14.667 -7.16699 36.334 -21.5 65.001s-34.833 59.667 -61.5 93c-29.333 36 -70.666 66.333 -123.999 91c-56 25.333 -117.333 38 -184 38c-120 0 -217 -38 -291 -114c-74 -76.667 -111 -171.667 -111 -285s37 -208.333 111 -285c72.667 -76.667 169.667 -115 291 -115
c66.667 0 128 12.667 184 38c54 24.667 95.333 55.334 124 92.001c55.333 70 83 122.333 83 157h133c2 -38 -12.833 -85.667 -44.5 -143s-75.834 -109 -132.501 -155c-40.667 -33.333 -91.667 -60.166 -153 -80.499s-126 -30.5 -194 -30.5c-156 0 -283.667 48.333 -383 145z
" />
    <glyph glyph-name="d" unicode="d" horiz-adv-x="1376" 
d="M659 -20c-151.333 0 -276.664 48.6689 -375.997 146.002c-100 97.333 -150 222.666 -150 375.999c0 152.667 50 278 150 376c99.333 97.333 224.666 146 375.999 146c170 2 303.333 -58.333 400 -181c1.33301 -1.33301 2.16602 -2.33301 2.49902 -3
s0.833008 -1.33398 1.5 -2.00098l4 -7h8v603h127v-1434h-127v172h-8l-4 -6c-98.667 -126.667 -233.334 -188.667 -404.001 -186zM377.002 787.002c-75.333 -77.333 -113 -172.333 -113 -285s37.667 -207.667 113 -285c74.667 -76.667 172.334 -115 293.001 -115
c119.333 0 216.666 37.333 291.999 112c75.333 75.333 113 171.333 113 288s-37.667 212.667 -113 288c-76 74 -173.333 111 -292 111c-120 0 -217.667 -38 -293 -114z" />
    <glyph glyph-name="e" unicode="e" horiz-adv-x="1339" 
d="M1206 502l-5.99707 -77.999h-930c0 -30.667 16.667 -74 50 -130c19.333 -32.667 42.666 -62.667 69.999 -90c29.333 -29.333 69.333 -53.666 120 -72.999s105.334 -29 164.001 -29c42.667 0 83.667 5 123 15s71.666 23 96.999 39c49.333 30.667 81.666 58 96.999 82
l13 16h153c-4 -10 -8.66699 -19.667 -14 -29c-8 -14.667 -25 -37 -51 -67c-28 -32 -58 -59.667 -90 -83c-34 -24.667 -80 -46.334 -138 -65.001c-58.667 -20 -122 -30 -190 -30c-158.667 0 -288.334 48.333 -389.001 145c-101.333 97.333 -152 223 -152 377
s50.667 279.667 152 377c100.667 96.667 229 145 385 145s284.333 -48.333 385 -145s151 -222.334 151 -377.001zM266.003 543.001h807c0 81.333 -35.333 161.333 -106 240s-169.667 118 -297 118s-226.333 -39.333 -297 -118c-71.333 -79.333 -107 -159.333 -107 -240z" />
    <glyph glyph-name="f" unicode="f" horiz-adv-x="737" 
d="M352 1055l0.000976562 -50.999h326v-119h-326v-885h-127v885h-174v119h174v61c0 131.333 32.333 229 97 293c64 64 147.667 96 251 96c35.333 0 70.333 -3.33301 105 -10s60.667 -14.334 78 -23.001l22 -12v-123c-44.667 32.667 -109.334 49 -194.001 49
c-77.333 0.666992 -135.333 -22.5 -174 -69.5s-58 -117.167 -58 -210.5z" />
    <glyph glyph-name="g" unicode="g" horiz-adv-x="1167" 
d="M129 694c0 104 40 184.997 120 242.997s184.667 87 314 87h553v-123h-219v-6c7.33301 -4 16.333 -10 27 -18c10 -8 24.667 -29.333 44 -64c18 -34 27 -73.667 27 -119c0 -102 -39.667 -181.667 -119 -239c-80.667 -57.333 -185 -86 -313 -86c-180 0 -270 -33 -270 -99
c0 -33.333 25.667 -58.666 77 -75.999c52 -17.333 116.333 -26 193 -26c146.667 0 265.334 -27.333 356.001 -82s136 -127 136 -217c0 -91.333 -45 -164 -135 -218c-90.667 -54 -209.667 -81 -357 -81c-146.667 0 -265.334 26.667 -356.001 80
c-90 53.333 -135 126.333 -135 219c0 32.667 7 64.5 21 95.5s32 56.167 54 75.5c42.667 37.333 81 63 115 77l23 8v4c-0.666992 0 -4 0.833008 -10 2.5s-10 2.83398 -12 3.50098s-6.16699 2.33398 -12.5 5.00098s-11.833 5.66699 -16.5 9s-10.334 8 -17.001 14
s-13.667 13 -21 21c-22.667 24.667 -34 53.334 -34 86.001c0 32 12 60.667 36 86c22 24 46 40.667 72 50l35 14v4c-19.333 7.33301 -39.333 18.666 -60 33.999c-21.333 14.667 -39 31 -53 49c-17.333 20 -32.166 46.833 -44.499 80.5s-18.5 69.167 -18.5 106.5z
M924 -131.003c0 51.333 -32.998 93.667 -98.998 127c-66 32.667 -153.333 49 -262 49c-110.667 0 -198.334 -16.333 -263.001 -49s-97 -75 -97 -127c0 -54.667 32.667 -97.667 98 -129c66 -31.333 153.333 -47 262 -47c107.333 0 194.666 16 261.999 48
c66 32 99 74.667 99 128zM781.002 542.998c55.333 34 82.999 84.666 82.999 151.999c0 66.667 -27.667 117.667 -83 153s-128 53 -218 53c-91.333 0 -164.666 -17.667 -219.999 -53s-83 -86.666 -83 -153.999c0 -64.667 27 -114.5 81 -149.5s128 -52.5 222 -52.5
c90 0 162.667 17 218 51z" />
    <glyph glyph-name="h" unicode="h" horiz-adv-x="1300" 
d="M1137 0l-126.999 -0.000976562v537c0 127.333 -32.333 220.333 -97 279c-65.333 59.333 -151.333 89 -258 89c-114.667 0 -202.334 -34.333 -263.001 -103s-91 -158.667 -91 -270v-532h-127v1434h127v-588h8c6.66699 14.667 23.667 35.334 51 62.001
c21.333 20.667 44.666 38.667 69.999 54c28.667 17.333 66.334 32 113.001 44s95 18 145 18c130 0 237.333 -38.333 322 -115s127 -192.667 127 -348v-561z" />
    <glyph glyph-name="i" unicode="i" horiz-adv-x="475" 
d="M174 1004h127v-1004h-127v1004zM177 1320c-15.333 14 -22.998 32.667 -22.998 56s7.66699 42.333 23 57c15.333 14 35.666 21 60.999 21s45.666 -7 60.999 -21c15.333 -14.667 23 -33.667 23 -57s-7.66699 -42 -23 -56c-14.667 -14.667 -35 -22 -61 -22
s-46.333 7.33301 -61 22z" />
    <glyph glyph-name="j" unicode="j" horiz-adv-x="489" 
d="M188 1004l126.999 -0.000976562v-1078c0 -237.333 -104.333 -356 -313 -356c-31.333 0 -67.333 5.33301 -108 16l-17 6v119c32.667 -15.333 67 -22.666 103 -21.999c68.667 0 120.334 18.333 155.001 55c35.333 37.333 53 103 53 197v1063zM190.999 1320
c-15.333 14 -23 32.667 -23 56s7.66699 42.333 23 57c14.667 14 35 21 61 21c26.667 0 47.334 -7 62.001 -21c14.667 -14.667 22 -33.667 22 -57s-7.33301 -42 -22 -56c-14.667 -14.667 -35.334 -22 -62.001 -22c-26 0 -46.333 7.33301 -61 22z" />
    <glyph glyph-name="k" unicode="k" horiz-adv-x="1093" 
d="M1094 0h-170l-623 512v-512h-127v1434h127v-914l582 484h170l-582 -488z" />
    <glyph glyph-name="l" unicode="l" horiz-adv-x="475" 
d="M174 1434h127v-1434h-127v1434z" />
    <glyph glyph-name="m" unicode="m" horiz-adv-x="1861" 
d="M1698 0l-127 0.000976562v543c0 121.333 -23.833 212.5 -71.5 273.5s-118.834 91.167 -213.501 90.5c-94 0 -165.333 -31.167 -214 -93.5s-73 -150.5 -73 -264.5v-549h-127v551c0 237.333 -95.333 356 -286 356c-93.333 0 -164.166 -31 -212.499 -93
s-72.5 -150.333 -72.5 -265v-549h-127v1004h127v-148h6c6.66699 17.333 18.667 37 36 59c15.333 18.667 34 35.667 56 51c24 16 55.5 29.667 94.5 41s80.5 17 124.5 17c43.333 0 84 -6.83301 122 -20.5s69 -30.834 93 -51.501c44 -40 73.667 -77.333 89 -112l10 -23h8
c4.66699 16.667 19.334 41 44.001 73c19.333 24.667 40.666 45.667 63.999 63c24.667 18 58.667 34.333 102 49c44 14.667 92 22 144 22c130 0 229.833 -38.5 299.5 -115.5s104.5 -190.833 104.5 -341.5v-567z" />
    <glyph glyph-name="n" unicode="n" horiz-adv-x="1300" 
d="M1137 0l-126.999 -0.000976562v537c0 127.333 -32.333 220.333 -97 279c-65.333 59.333 -151.333 89 -258 89c-114.667 0 -202.334 -34.333 -263.001 -103s-91 -158.667 -91 -270v-532h-127v1004h127v-158h8c6.66699 14.667 23.667 35.334 51 62.001
c21.333 20.667 44.666 38.667 69.999 54c28.667 17.333 66.334 32 113.001 44s95 18 145 18c130 0 237.333 -38.333 322 -115s127 -192.667 127 -348v-561z" />
    <glyph glyph-name="o" unicode="o" horiz-adv-x="1339" 
d="M285 125c-101.333 97.333 -152 223.002 -152 377.002s50.667 279.667 152 377c100.667 96.667 229 145 385 145s284.333 -48.333 385 -145s151 -222.334 151 -377.001s-50.333 -280.334 -151 -377.001s-229 -145 -385 -145s-284.333 48.333 -385 145zM963 217.002
c74.667 76.667 111.999 171.667 111.999 285s-37.333 208.333 -112 285c-74.667 76 -172.334 114 -293.001 114c-120 0 -217.667 -38 -293 -114c-75.333 -77.333 -113 -172.333 -113 -285s37.667 -207.667 113 -285c74.667 -76.667 172.334 -115 293.001 -115
s218.334 38.333 293.001 115z" />
    <glyph glyph-name="p" unicode="p" horiz-adv-x="1376" 
d="M717 1024c150.667 0 276.335 -48.668 377.002 -146.001c99.333 -98 149 -223.333 149 -376c0 -153.333 -49.667 -278.666 -149 -375.999c-100.667 -97.333 -226.334 -146 -377.001 -146c-174.667 -2.66699 -309.334 59.333 -404.001 186l-4 6h-8v-582h-127v1414h127v-173
h8l4 7c97.333 126 232 188 404 186zM1000 216.999c74.667 76.667 112 171.667 112 285s-37.333 208.333 -112 285c-74.667 76 -172.334 114 -293.001 114c-118.667 0 -216 -37 -292 -111c-76 -74.667 -114 -170.667 -114 -288s38 -213.333 114 -288
c74.667 -74.667 172 -112 292 -112c120.667 0 218.334 38.333 293.001 115z" />
    <glyph glyph-name="q" unicode="q" horiz-adv-x="1376" 
d="M659 1024c170 2 303.335 -58.3311 400.002 -180.998c1.33301 -1.33301 2.16602 -2.33301 2.49902 -3s0.833008 -1.33398 1.5 -2.00098l4 -7h8v173h127v-1414h-127v582h-8l-4 -6c-98.667 -126.667 -233.334 -188.667 -404.001 -186
c-151.333 0 -276.666 48.667 -375.999 146c-100 97.333 -150 222.666 -150 375.999c0 152.667 50 278 150 376c99.333 97.333 224.666 146 375.999 146zM377.002 787.002c-75.333 -77.333 -113 -172.333 -113 -285s37.667 -207.667 113 -285
c74.667 -76.667 172.334 -115 293.001 -115c119.333 0 216.666 37.333 291.999 112c75.333 75.333 113 171.333 113 288s-37.667 212.667 -113 288c-76 74 -173.333 111 -292 111c-120 0 -217.667 -38 -293 -114z" />
    <glyph glyph-name="r" unicode="r" horiz-adv-x="860" 
d="M684 1024c37.333 0 74.332 -4 110.999 -12l14 -6v-134c-36.667 13.333 -83.667 20.333 -141 21c-116 0 -206 -39.667 -270 -119c-64.667 -78.667 -97 -175.667 -97 -291v-483h-127v1004h127v-203h8c10.667 22.667 27.334 48.667 50.001 78c20 26 42.667 48.667 68 68
c23.333 18 59.333 35.667 108 53c46 16 95.667 24 149 24z" />
    <glyph glyph-name="s" unicode="s" horiz-adv-x="1212" 
d="M952 281c0 42.667 -18.666 76.8359 -55.999 102.503s-87 41.5 -149 47.5c-65.333 6.66699 -129.333 15 -192 25c-68.667 10 -132.334 22 -191.001 36c-58.667 12.667 -108 40 -148 82c-38.667 40.667 -58 93.667 -58 159c0 94 40.667 166 122 216s188 75 320 75
c134 0 241.667 -27.667 323 -83c80.667 -54.667 121 -137 121 -247h-126c0 140.667 -106 211 -318 211c-210 0 -315 -57.333 -315 -172c0 -40.667 18.667 -73.334 56 -98.001s87.333 -40.334 150 -47.001c72.667 -8.66699 136.334 -17 191.001 -25
c72.667 -12 136.667 -24.333 192 -37c58.667 -14.667 107.667 -42.667 147 -84c38.667 -41.333 58 -95 58 -161c0 -70.667 -22.333 -129.334 -67 -176.001s-101.334 -79 -170.001 -97c-68 -18.667 -146.667 -28 -236 -28c-137.333 0 -250.333 28.333 -339 85
c-89.333 57.333 -134 143 -134 257v38h127v-38c0 -73.333 30.333 -129 91 -167s145.667 -57 255 -57c230.667 0.666992 346 61.667 346 183z" />
    <glyph glyph-name="t" unicode="t" horiz-adv-x="860" 
d="M225 358l-0.00195312 527h-174v119h174v225h127v-225h385v-119h-385v-512c0 -182.667 77.333 -274.334 232 -275.001c34.667 0 68.334 3.83301 101.001 11.5s57 16.167 73 25.5l20 12v-120c-49.333 -31.333 -117.666 -47 -204.999 -47
c-104.667 0 -188.667 31.333 -252 94c-64 62.667 -96 157.334 -96 284.001z" />
    <glyph glyph-name="u" unicode="u" 
d="M174 1004l126.999 -0.00195312v-537c0 -126.667 32.667 -219.667 98 -279c65.333 -60 150.666 -90 255.999 -90c114.667 0 202.667 34.667 264 104c60.667 68.667 91 158.334 91 269.001v533h127v-1004h-127v158h-9c-7.33301 -16.667 -23.666 -37 -48.999 -61
c-19.333 -19.333 -43 -37.666 -71 -54.999s-65.5 -32 -112.5 -44s-95.5 -18 -145.5 -18c-129.333 0 -236.666 38.667 -321.999 116c-84.667 76.667 -127 192 -127 346v562z" />
    <glyph glyph-name="v" unicode="v" horiz-adv-x="1114" 
d="M942 1004h131l-424 -1004h-184l-424 1004h131l383 -906h4z" />
    <glyph glyph-name="w" unicode="w" horiz-adv-x="1624" 
d="M1272 0h-168l-289 874h-6l-289 -874h-168l-301 1004h127l258 -877h4l289 877h166l289 -877h4l258 877h127z" />
    <glyph glyph-name="x" unicode="x" horiz-adv-x="1015" 
d="M817 1004h146l-381 -476l424 -528h-146l-352 438l-352 -438h-146l424 528l-381 476h146l309 -386z" />
    <glyph glyph-name="y" unicode="y" horiz-adv-x="1095" 
d="M0 1004h137.001l412 -889h6l406 889h135l-486 -1055c-60.667 -131.333 -118 -227 -172 -287c-55.333 -61.333 -119.333 -92 -192 -92c-43.333 0 -78.333 5.33301 -105 16l-14 4v119c28 -13.333 67.667 -20 119 -20c41.333 0 79.666 20 114.999 60
c34.667 42 72.667 108.667 114 200l8 18z" />
    <glyph glyph-name="z" unicode="z" horiz-adv-x="1083" 
d="M819 885h-700v119h862v-125l-737 -756v-4h757v-119h-919v125l737 756v4z" />
    <glyph glyph-name="braceleft" unicode="{" horiz-adv-x="794" 
d="M305 582l-14.002 -6.99902v-4c18.667 -6.66699 34.667 -15 48 -25c15.333 -12 29.333 -26 42 -42c32.667 -44.667 49 -104 49 -178v-416c0 -110 21 -191.667 63 -245c40.667 -52.667 114.667 -79 222 -79h39v-118h-39c-146 0 -251 37.333 -315 112
c-64.667 74.667 -97 195.667 -97 363v368c0 65.333 -15.667 115.5 -47 150.5s-75.666 52.5 -132.999 52.5v119c58 0 102.5 17.333 133.5 52s46.5 85 46.5 151v368c0 167.333 32.333 288.333 97 363c64 74.667 169 112 315 112h39v-118h-39
c-107.333 0 -181.333 -26.333 -222 -79c-42 -53.333 -63 -135 -63 -245v-416c0 -76.667 -16.333 -136.334 -49 -179.001c-27.333 -34 -52.666 -54 -75.999 -60z" />
    <glyph glyph-name="bar" unicode="|" horiz-adv-x="737" 
d="M430 -532h-123v2109h123v-2109z" />
    <glyph glyph-name="braceright" unicode="}" horiz-adv-x="794" 
d="M489 565l15.001 6v4c-17.333 6.66699 -33.333 15.334 -48 26.001c-16 11.333 -30 25.333 -42 42c-32.667 43.333 -49 102.666 -49 177.999v416c0 110 -20.667 191.667 -62 245c-42 52.667 -116.333 79 -223 79h-39v118h39c146 0 251.333 -37.333 316 -112
c64 -75.333 96 -196.333 96 -363v-368c0 -65.333 15.667 -115.5 47 -150.5s75.666 -52.5 132.999 -52.5v-119c-58 0 -102.5 -17.333 -133.5 -52s-46.5 -85 -46.5 -151v-368c0 -167.333 -32 -288.333 -96 -363c-64.667 -74.667 -170 -112 -316 -112h-39v118h39
c106.667 0 181 26.333 223 79c41.333 53.333 62 135 62 245v416c0 80 16.333 139.667 49 179c26.667 34 51.667 54 75 60z" />
    <glyph glyph-name="asciitilde" unicode="~" horiz-adv-x="1171" 
d="M823 565c-36 0 -73.332 -10.667 -111.999 -32c-37.333 -20.667 -71 -44.667 -101 -72c-30 -26.667 -68.667 -50.667 -116 -72c-49.333 -22 -102.666 -33 -159.999 -33c-64.667 0 -119.667 18.667 -165 56c-44.667 36.667 -67 90.334 -67 161.001
c0 34.667 4.33301 63.334 13 86.001l6 13h123c-8.66699 -18.667 -13.667 -45.334 -15 -80.001c0 -36.667 10.333 -65.334 31 -86.001s50 -31 88 -31c36.667 0 74 11 112 33c38.667 23.333 72 47.333 100 72c29.333 25.333 68.666 49 117.999 71s102.666 33 159.999 33
c65.333 0 120.333 -18.333 165 -55c44 -36.667 66 -90 66 -160c0 -38 -4 -67.333 -12 -88l-6 -12h-123c9.33301 22 14 48.667 14 80c0 77.333 -39.667 116 -119 116z" />
    <glyph glyph-name="uni00A0" unicode="&#xa0;" horiz-adv-x="491" 
 />
    <glyph glyph-name="exclamdown" unicode="&#xa1;" horiz-adv-x="544" 
d="M205 -410v308l20 720h94l21 -720v-308h-135zM209 879c-16.667 14.667 -25.001 34.999 -25.001 60.999c0 26.667 8.33301 47.334 25 62.001c15.333 14.667 36.333 22 63 22c26 0 47.333 -7.33301 64 -22c16 -14.667 24 -35.334 24 -62.001
c0 -25.333 -8 -45.666 -24 -60.999c-17.333 -15.333 -38.666 -23 -63.999 -23s-46.333 7.66699 -63 23z" />
    <glyph glyph-name="cent" unicode="&#xa2;" horiz-adv-x="1312" 
d="M729 -246l-127.001 -0.00292969v230c-138.667 13.333 -251.667 67.333 -339 162c-86.667 93.333 -130 212 -130 356c0 142 43.333 260.333 130 355s199.667 149 339 163v229h127v-229c76 -6.66699 145.667 -26.667 209 -60c62 -33.333 110.667 -71.666 146 -114.999
c70.667 -89.333 106 -166.333 106 -231h-133c0 14.667 -7.16699 36.334 -21.5 65.001s-34.833 59.667 -61.5 93c-29.333 36 -70.666 66.333 -123.999 91c-56 25.333 -117.333 38 -184 38c-120 0 -217 -38 -291 -114c-74 -76.667 -111 -171.667 -111 -285
s37 -208.333 111 -285c72.667 -76.667 169.667 -115 291 -115c66.667 0 128 12.667 184 38c54 24.667 95.333 55.334 124 92.001c55.333 70 83 122.333 83 157h133c0 -63.333 -35.333 -140.333 -106 -231c-35.333 -44 -84 -82.333 -146 -115
c-61.333 -32 -131 -51.667 -209 -59v-230z" />
    <glyph glyph-name="sterling" unicode="&#xa3;" horiz-adv-x="1163" 
d="M1079 1057h-135v18c0 81.333 -24.5 144.333 -73.5 189s-115.833 67 -200.5 67c-85.333 0 -152.833 -22.333 -202.5 -67s-74.5 -107.667 -74.5 -189v-366h445v-123h-445v-463h699v-123h-1031v123h197v463h-197v123h197v366c0 112 35.333 203.333 106 274
c70 70 172 105 306 105c132.667 0 234 -35.333 304 -106s105 -161.667 105 -273v-18z" />
    <glyph glyph-name="currency" unicode="&#xa4;" horiz-adv-x="1404" 
d="M268 557l-186 0.000976562v123h186v754h441c177.333 0 313.833 -37.5 409.5 -112.5s143.5 -183.833 143.5 -326.5s-47.833 -251.334 -143.5 -326.001s-232.167 -112 -409.5 -112h-306v-182h508v-123h-508v-252h-135v252h-186v123h186v182zM403 1311v-630.999h306
c132 0 233.833 26.833 305.5 80.5s107.5 132.167 107.5 235.5s-36 181.666 -108 234.999s-173.667 80 -305 80h-306z" />
    <glyph glyph-name="yen" unicode="&#xa5;" horiz-adv-x="1406" 
d="M551 668h-332v118h258l-405 648h151l477 -760h7l477 760h151l-405 -648h258v-118h-332l-80 -127v-95h412v-118h-412v-328h-145v328h-412v118h412v95z" />
    <glyph glyph-name="brokenbar" unicode="&#xa6;" horiz-adv-x="737" 
d="M307 1577h123v-905h-123v905zM430 -532h-123v917h123v-917z" />
    <glyph glyph-name="section" unicode="&#xa7;" horiz-adv-x="1329" 
d="M666 950c156 0 276.331 -33 360.998 -99c85.333 -66 128 -153.667 128 -263c0 -40.667 -7.66699 -79.167 -23 -115.5s-34.666 -65.833 -57.999 -88.5c-43.333 -41.333 -84.666 -69 -123.999 -83l-24 -8v-8c24.667 -6.66699 50.667 -16.334 78 -29.001
c24.667 -12 47.334 -26.667 68.001 -44c22 -19.333 40.667 -45.5 56 -78.5s23 -68.5 23 -106.5c0 -94.667 -43.667 -171.667 -131 -231c-86.667 -58 -204.667 -87 -354 -87s-267.333 27.667 -354 83c-86.667 54.667 -130 133.667 -130 237v65h127v-65
c0 -68 32.667 -118.667 98 -152c64.667 -32.667 151 -49 259 -49c107.333 0 194 17 260 51c65.333 34 98 83.333 98 148c0 132.667 -119.333 198.667 -358 198c-154.667 0 -275.334 33.667 -362.001 101c-86.667 66.667 -130 154 -130 262
c0 40.667 7.66699 79.334 23 116.001s34.666 66 57.999 88c44.667 41.333 86.667 68.666 126 81.999l22 9v8c-17.333 4.66699 -39 14.667 -65 30c-21.333 12.667 -40.666 27.667 -57.999 45c-18.667 18.667 -34.5 43.834 -47.5 75.501s-19.5 65.5 -19.5 101.5
c0 90 39.333 164.333 118 223s190.334 88 335.001 88c144 0 255.333 -29 334 -87s118 -134.667 118 -230v-31h-127v31c0 58 -29 105.333 -87 142c-58.667 37.333 -138 56 -238 56c-94 0 -171.667 -16.667 -233 -50c-62 -32.667 -93 -80 -93 -142c0 -64 30.333 -112 91 -144
c59.333 -32.667 137.666 -49 234.999 -49zM403.998 410c68 -44 155.333 -65.999 262 -65.999s193.667 22.333 261 67c67.333 44 101 103 101 177c0 75.333 -33.667 134.666 -101 177.999c-68.667 43.333 -155.667 65 -261 65c-106 0 -193.333 -21.667 -262 -65
c-68.667 -44 -103 -103.333 -103 -178c0 -76 34.333 -135.333 103 -178z" />
    <glyph glyph-name="dieresis" unicode="&#xa8;" horiz-adv-x="663" 
d="M84 1267c-14.667 14 -21.999 32.667 -21.999 56s7.33301 42.333 22 57c15.333 14 35.666 21 60.999 21c26.667 0 47.334 -7 62.001 -21c15.333 -14.667 23 -33.667 23 -57s-7.66699 -42 -23 -56c-14.667 -14.667 -35.334 -22 -62.001 -22c-26 0 -46.333 7.33301 -61 22z
M457.001 1267c-15.333 14 -23 32.667 -23 56s7.66699 42.333 23 57c14.667 14 35 21 61 21c26.667 0 47.334 -7 62.001 -21c14.667 -14.667 22 -33.667 22 -57s-7.33301 -42 -22 -56c-14.667 -14.667 -35.334 -22 -62.001 -22c-26 0 -46.333 7.33301 -61 22z" />
    <glyph glyph-name="copyright" unicode="&#xa9;" horiz-adv-x="1777" 
d="M1427 187c-139.333 -138 -318.666 -207 -537.999 -207s-398.666 69 -537.999 207c-138.667 136.667 -208 313.334 -208 530.001c0 215.333 69.333 392 208 530c139.333 138 318.666 207 537.999 207s398.666 -69 537.999 -207c138 -138 207 -314.667 207 -530
c0 -216.667 -69 -393.334 -207 -530.001zM437 272c111.333 -116 262 -173.999 452 -173.999s340.667 58 452 174c110.667 115.333 166 263.666 166 444.999c0 180.667 -55.333 328.667 -166 444c-111.333 116 -262 174 -452 174s-340.667 -58 -452 -174
c-111.333 -116.667 -167 -264.667 -167 -444c0 -180 55.667 -328.333 167 -445zM624 464.001c-68 66.667 -101.999 151.667 -101.999 255c0 102 34 187 102 255c67.333 67.333 157 101 269 101c62 0 118 -10.5 168 -31.5s87.667 -47.833 113 -80.5
c48.667 -64.667 73 -119.334 73 -164.001h-121c0 0.666992 -0.5 3.5 -1.5 8.5s-3 11.333 -6 19s-7.83301 16.834 -14.5 27.501c-10.667 18 -23.667 34 -39 48c-16.667 14.667 -40.5 27.334 -71.5 38.001s-64.5 16 -100.5 16c-76 0 -135.333 -22.333 -178 -67
c-44 -44.667 -66 -101.334 -66 -170.001s22 -125.334 66 -170.001c43.333 -45.333 102.666 -68 177.999 -68c36.667 0 70.667 5.33301 102 16s54.666 24.334 69.999 41.001c33.333 34 52.333 62.333 57 85l4 16h121c0 -45.333 -24.333 -100 -73 -164
c-25.333 -32.667 -63.166 -59.667 -113.499 -81s-106.166 -32 -167.499 -32c-112.667 0 -202.334 34 -269.001 102z" />
    <glyph glyph-name="ordfeminine" unicode="&#xaa;" horiz-adv-x="911" 
d="M72 1133c0 68 29.9951 122.001 89.9951 162.001c60.667 39.333 137 59 229 59c54 0 102.667 -6 146 -18c44 -13.333 72.667 -26 86 -38l24 -18v92c0 120 -70.333 180 -211 180c-86 0 -144.333 -17.667 -175 -53c-26.667 -30.667 -40 -56.667 -40 -78h-115
c0 28.667 10.667 61.667 32 99c12.667 23.333 30.334 45.333 53.001 66c22.667 21.333 55.834 38.833 99.501 52.5s92.167 20.5 145.5 20.5c106.667 0 188.334 -24.667 245.001 -74s85 -120.333 85 -213v-256c0 -32.667 5.5 -56.167 16.5 -70.5s30.167 -21.5 57.5 -21.5
l41 6v-102c-17.333 -6.66699 -40.666 -10 -69.999 -10c-36.667 0 -68.5 7 -95.5 21s-44.167 29.333 -51.5 46l-9 23h-4c-1.33301 -2.66699 -9.66602 -11.334 -24.999 -26.001c-12 -11.333 -40.333 -26.333 -85 -45c-44 -18.667 -94 -28 -150 -28c-96.667 0 -174 20 -232 60
s-87 94.667 -87 164zM421.995 1247c-153.333 0 -230.667 -38 -232 -114c0 -78 77.333 -117 232 -117c62.667 0 113 10.667 151 32c34 20 56 36.667 66 50l8 10v74c-50.667 43.333 -125.667 65 -225 65z" />
    <glyph glyph-name="guillemotleft" unicode="&#xab;" horiz-adv-x="897" 
d="M815 115h-139l-281 379l281 378h139l-283 -378zM481 115h-139l-281 379l281 378h139l-282 -378z" />
    <glyph glyph-name="logicalnot" unicode="&#xac;" horiz-adv-x="929" 
d="M838 324h-123v213h-654v118h777v-331z" />
    <glyph glyph-name="uni00AD" unicode="&#xad;" horiz-adv-x="616" 
d="M82 481l453 189v-135l-453 -189v135z" />
    <glyph glyph-name="registered" unicode="&#xae;" horiz-adv-x="1032" 
d="M586 852l-72 127h-51v-127h-98v369h170c98 0 147 -39.667 147 -119c0 -24 -5.5 -45.167 -16.5 -63.5s-23.167 -30.833 -36.5 -37.5l-19 -8l82 -141h-106zM584 1098c0 27.333 -15 41 -45 41h-76v-80h76c30 0 45 13 45 39zM841 736
c-80 -81.333 -188.333 -121.999 -325 -121.999s-244.667 40.667 -324 122c-80 81.333 -120 180.666 -120 297.999s40 216.666 120 297.999c79.333 81.333 187.333 122 324 122s245 -40.667 325 -122c80 -80.667 120 -180 120 -298c0 -117.333 -40 -216.666 -120 -297.999z
M770 1269c-61.333 63.333 -146 95 -254 95s-192.667 -31.667 -254 -95s-92 -141.333 -92 -234c0 -93.333 30.667 -171.666 92 -234.999s146 -95 254 -95s192.667 31.667 254 95s92 141.666 92 234.999c0 92.667 -30.667 170.667 -92 234z" />
    <glyph glyph-name="overscore" unicode="&#xaf;" horiz-adv-x="667" 
d="M606 1280h-545v102h545v-102z" />
    <glyph glyph-name="degree" unicode="&#xb0;" horiz-adv-x="892" 
d="M703 845c-66.667 -63.333 -152 -95 -256 -95c-105.333 0 -190.666 31.667 -255.999 95c-66 63.333 -99 149 -99 257s33 193.667 99 257c65.333 63.333 150.666 95 255.999 95c104 0 189.333 -31.667 256 -95c65.333 -63.333 98 -149 98 -257s-32.667 -193.667 -98 -257z
M612 1271c-42 42.667 -97 64 -165 64c-69.333 0 -124.333 -21.333 -165 -64c-42 -43.333 -63 -99.666 -63 -168.999s21 -125.666 63 -168.999c41.333 -43.333 96.333 -65 165 -65c68 0 123 21.667 165 65c41.333 43.333 62 99.666 62 168.999s-20.667 125.666 -62 168.999z
" />
    <glyph glyph-name="plusminus" unicode="&#xb1;" horiz-adv-x="1040" 
d="M102 78v119h359v284h-359v119h359v354h119v-354h358v-119h-358v-284h358v-119h-836z" />
    <glyph glyph-name="uni00B2" unicode="&#xb2;" horiz-adv-x="821" 
d="M743 860l-671 -0.000976562v84c0 56.667 13.333 105.667 40 147s61.667 70.666 105 87.999c40.667 16.667 85.667 32.667 135 48c34.667 10.667 79.667 23.334 135 38.001c42.667 10.667 77 28 103 52c27.333 25.333 41 56 41 92c0 44.667 -17.167 79.667 -51.5 105
s-84.833 38 -151.5 38c-134 0 -201 -52.333 -201 -157v-19h-118v19c0 81.333 27.833 145.666 83.5 192.999s134.167 71 235.5 71s180.333 -22.333 237 -67s85 -103.667 85 -177c0 -63.333 -19 -114.666 -57 -153.999c-40 -40 -86.667 -67.333 -140 -82
c-52 -15.333 -106.667 -29.666 -164 -42.999c-54.667 -12.667 -101 -32.667 -139 -60c-38 -26.667 -57 -63 -57 -109h550v-107z" />
    <glyph glyph-name="uni00B3" unicode="&#xb3;" horiz-adv-x="821" 
d="M535 1532l-438.998 -0.00195312v106h615v-114l-314 -178v-3h47c99.333 0 175.166 -22.333 227.499 -67s78.5 -106 78.5 -184c0 -79.333 -29.5 -141.166 -88.5 -185.499s-142.167 -66.5 -249.5 -66.5c-109.333 0 -193.333 22.333 -252 67s-88 106.334 -88 185.001v30h118
v-30c0 -96 74 -144.667 222 -146c146 0 219 48.667 219 146c0 50 -17.333 86.667 -52 110s-90.334 35 -167.001 35h-207v106l330 187v2z" />
    <glyph glyph-name="acute" unicode="&#xb4;" horiz-adv-x="598" 
d="M188 1196h-127l308 328h168z" />
    <glyph glyph-name="mu" unicode="&#xb5;" horiz-adv-x="1337" 
d="M301 -410l-126.997 -0.000976562v1414h127v-537c0 -126.667 32.667 -219.667 98 -279c65.333 -60 150.666 -90 255.999 -90c112.667 0 199.334 33 260.001 99c60 64 91.667 150 95 258v549h127v-775c0 -48 7.5 -81.833 22.5 -101.5s40.167 -29.5 75.5 -29.5
c22.667 0 41 2.66699 55 8l6 5v-111c-18.667 -9.33301 -46 -14 -82 -14c-37.333 0 -69 6.33301 -95 19c-25.333 11.333 -45 26 -59 44c-24 31.333 -38 63.333 -42 96l-2 19h-6c-3.33301 -12.667 -18 -34 -44 -64c-19.333 -21.333 -40.666 -40.333 -63.999 -57
c-26 -17.333 -61.333 -32.166 -106 -44.499s-91.667 -18.5 -141 -18.5c-56.667 0 -107.834 6 -153.501 18s-81.334 27 -107.001 45s-44.834 33.5 -57.501 46.5s-21.334 24.167 -26.001 33.5l-4 6h-6v-539z" />
    <glyph glyph-name="paragraph" unicode="&#xb6;" horiz-adv-x="1028" 
d="M41 1100c0 109.333 32.001 192.333 96.001 249c63.333 56.667 148 85 254 85h586v-115h-154v-1851h-123v1851h-186v-1851h-123v1298c-104.667 0 -189.334 28.667 -254.001 86c-64 57.333 -96 140 -96 248z" />
    <glyph glyph-name="middot" unicode="&#xb7;" horiz-adv-x="491" 
d="M310 572c16 -14.667 23.999 -35.335 23.999 -62.002c0 -25.333 -8 -45.666 -24 -60.999c-17.333 -15.333 -38.666 -23 -63.999 -23s-46.333 7.66699 -63 23c-16.667 14.667 -25 35 -25 61c0 26.667 8.33301 47.334 25 62.001c15.333 14.667 36.333 22 63 22
c26 0 47.333 -7.33301 64 -22z" />
    <glyph glyph-name="cedilla" unicode="&#xb8;" horiz-adv-x="499" 
d="M61 -233h92.999c0 -48 31.333 -72 94 -72c65.333 0 98 21.667 98 65c0 45.333 -32.667 68 -98 68h-101v86l107 119h96l-106 -121c64.667 0 113.334 -12.667 146.001 -38s48.667 -63.333 48 -114c0 -46.667 -16.5 -83.167 -49.5 -109.5s-79.833 -39.5 -140.5 -39.5
c-124.667 0 -187 52 -187 156z" />
    <glyph glyph-name="uni00B9" unicode="&#xb9;" horiz-adv-x="530" 
d="M227 1505l-196 -178v146l184 165h131v-778h-119v645z" />
    <glyph glyph-name="ordmasculine" unicode="&#xba;" horiz-adv-x="937" 
d="M189 1019c-71.333 70 -107 159.001 -107 267.001c0 107.333 35.667 196.666 107 267.999c70.667 70 164 105 280 105c116.667 0 210.334 -35 281.001 -105c70.667 -70.667 106 -160 106 -268s-35.333 -197 -106 -267c-70.667 -70.667 -164.334 -106 -281.001 -106
c-116 0 -209.333 35.333 -280 106zM661 1103c48 50 72 111.332 72 183.999c0 72 -24 133 -72 183c-49.333 49.333 -113.333 74 -192 74c-79.333 0 -143 -24.667 -191 -74c-48.667 -49.333 -73 -110.333 -73 -183c0 -73.333 24.333 -134.666 73 -183.999
c48 -50 111.667 -75 191 -75s143.333 25 192 75z" />
    <glyph glyph-name="guillemotright" unicode="&#xbb;" horiz-adv-x="897" 
d="M221 872l281 -378l-281 -379h-139l283 379l-283 378h139zM555 872l281 -378l-281 -379h-139l282 379l-282 378h139z" />
    <glyph glyph-name="onequarter" unicode="&#xbc;" horiz-adv-x="1509" 
d="M262 0h-131l983 1434h131zM248 1300l-197 -178v146l185 166h131v-779h-119v645zM1317 0h-119v168h-465v115l461 495h123v-504h121v-106h-121v-168zM881 279v-5h317v340h-4z" />
    <glyph glyph-name="onehalf" unicode="&#xbd;" horiz-adv-x="1640" 
d="M262 0h-131l983 1434h131zM248 1300l-197 -178v146l185 166h131v-779h-119v645zM1552 0h-670.999v84c0 56.667 13.167 105.667 39.5 147s61.166 70.666 104.499 87.999c40.667 16.667 85.667 32.667 135 48c36 10.667 81.333 23.334 136 38.001
c42.667 10.667 77 28 103 52c27.333 25.333 41 56 41 92c0 44.667 -17.167 79.667 -51.5 105s-84.833 38 -151.5 38c-134 0 -201 -52.333 -201 -157v-19h-118v19c0 81.333 27.833 145.666 83.5 192.999s134.167 71 235.5 71s180.333 -22.333 237 -67s85 -103.667 85 -177
c0 -63.333 -19 -114.666 -57 -153.999c-40 -40 -86.667 -67.333 -140 -82c-52 -15.333 -106.667 -29.666 -164 -42.999c-54.667 -12.667 -101 -32.667 -139 -60c-38.667 -26.667 -58 -63.334 -58 -110.001h551v-106z" />
    <glyph glyph-name="threequarters" unicode="&#xbe;" horiz-adv-x="1837" 
d="M590 0h-131l983 1434h131zM1645 0h-119v168h-465v115l461 495h123v-504h120v-106h-120v-168zM1208 279v-5h318v340h-4zM535 1327l-438.998 -0.000976562v107h615v-115l-314 -178v-2h47c99.333 0 175.166 -22.5 227.499 -67.5s78.5 -106.5 78.5 -184.5
c0 -79.333 -29.5 -141.166 -88.5 -185.499s-142.167 -66.5 -249.5 -66.5c-109.333 0 -193.333 22.333 -252 67s-88 106.334 -88 185.001v31h118v-31c0 -96.667 74 -145.334 222 -146.001c146 0 219 48.667 219 146c0 50 -17.333 86.667 -52 110s-90.334 35 -167.001 35h-207
v107l330 186v2z" />
    <glyph glyph-name="questiondown" unicode="&#xbf;" horiz-adv-x="1212" 
d="M786 360c0 33.333 -13.835 59.835 -41.502 79.502s-63.5 29.5 -107.5 29.5c-43.333 0 -77.666 -8.66699 -102.999 -26s-38 -43.333 -38 -78v-25h-129v25c0 70 23.667 124 71 162s113.666 57 198.999 57c88 0 156.333 -19.5 205 -58.5s73 -93.833 73 -164.5
c0 -71.333 -23.333 -126.333 -70 -165c-47.333 -39.333 -104.666 -65 -171.999 -77c-67.333 -12.667 -135 -23.667 -203 -33s-125.333 -29.333 -172 -60c-47.333 -31.333 -71 -76.333 -71 -135c0 -58 36.667 -105.667 110 -143c72.667 -36.667 165.667 -55 279 -55
c114 0 207.667 21 281 63c72.667 42.667 109 102 109 178v58h135v-58c0 -112.667 -48.667 -201.667 -146 -267c-97.333 -64.667 -223.333 -97 -378 -97s-280.667 28.667 -378 86c-98 57.333 -147 135.666 -147 234.999c0 80 24 142.333 72 187
c47.333 44 105.333 73.667 174 89c72.667 14.667 140.667 26.334 204 35.001c68.667 9.33301 126.334 25.666 173.001 48.999c47.333 23.333 71 59.666 71 108.999zM702.998 1002c16 -14.667 23.999 -35.335 23.999 -62.002c0 -25.333 -8 -45.666 -24 -60.999
c-17.333 -15.333 -38.666 -23 -63.999 -23s-46.333 7.66699 -63 23c-16.667 14.667 -25 35 -25 61c0 26.667 8.33301 47.334 25 62.001c15.333 14.667 36.333 22 63 22c26 0 47.333 -7.33301 64 -22z" />
    <glyph glyph-name="Agrave" unicode="&#xc0;" horiz-adv-x="1443" 
d="M629 1434h186l588 -1434h-141l-142 344h-796l-142 -344h-141zM375 467h694l-344 848h-6zM301 1946h168l307 -328h-127z" />
    <glyph glyph-name="Aacute" unicode="&#xc1;" horiz-adv-x="1443" 
d="M629 1434h186l588 -1434h-141l-142 344h-796l-142 -344h-141zM375 467h694l-344 848h-6zM791 1618h-127l307 328h168z" />
    <glyph glyph-name="Acircumflex" unicode="&#xc2;" horiz-adv-x="1443" 
d="M629 1434h186l588 -1434h-141l-142 344h-796l-142 -344h-141zM375 467h694l-344 848h-6zM1073 1618h-135l-217 260l-217 -260h-135l276 328h152z" />
    <glyph glyph-name="Atilde" unicode="&#xc3;" horiz-adv-x="1443" 
d="M629 1434h186l588 -1434h-141l-142 344h-796l-142 -344h-141zM375 467h694l-344 848h-6zM549 1602c-53.333 0 -94.667 13.166 -124 39.499s-44 62.833 -44 109.5l8 70h105c-3.33301 -13.333 -5.66602 -30.666 -6.99902 -51.999c0 -46.667 25.333 -69.667 76 -69
c31.333 0 80 23 146 69c65.333 45.333 128 68 188 68c52.667 0 93.834 -13.167 123.501 -39.5s44.5 -62.166 44.5 -107.499l-8 -72h-105c4 15.333 6 33 6 53c0 45.333 -25.667 68 -77 68c-18 1.33301 -40.333 -5.16699 -67 -19.5s-52.334 -30.5 -77.001 -48.5
s-54.334 -34.333 -89.001 -49s-67.667 -21.334 -99 -20.001z" />
    <glyph glyph-name="Adieresis" unicode="&#xc4;" horiz-adv-x="1443" 
d="M629 1434h186l588 -1434h-141l-142 344h-796l-142 -344h-141zM375 467h694l-344 848h-6zM474 1671c-14.667 14 -21.999 32.5 -21.999 55.5s7.33301 41.833 22 56.5c15.333 14 35.666 21 60.999 21c26 0 46.333 -7 61 -21c14.667 -14.667 22 -33.5 22 -56.5
s-7.33301 -41.5 -22 -55.5c-14.667 -14.667 -35 -22 -61 -22s-46.333 7.33301 -61 22zM846.001 1671c-14.667 14 -21.999 32.5 -21.999 55.5s7.33301 41.833 22 56.5c14.667 14 35 21 61 21s46.667 -7 62 -21c15.333 -14.667 23 -33.5 23 -56.5s-7.66699 -41.5 -23 -55.5
c-14.667 -14.667 -35.334 -22 -62.001 -22c-26 0 -46.333 7.33301 -61 22z" />
    <glyph glyph-name="Aring" unicode="&#xc5;" horiz-adv-x="1443" 
d="M629 1434h186l588 -1434h-141l-142 344h-796l-142 -344h-141zM375 467h694l-344 848h-6zM866 1628c-34.667 -34 -83 -51 -145 -51c-60.667 0 -108.667 17 -144 51s-53 77.667 -53 131c0 52.667 17.667 96.667 53 132c35.333 34 83.333 51 144 51
c62 0 110.333 -17 145 -51c34.667 -34.667 52 -78.667 52 -132s-17.333 -97 -52 -131zM792 1825c-16 17.333 -39.668 26 -71.001 26s-54.666 -8.66699 -69.999 -26c-16 -18 -24 -40 -24 -66s8 -47.667 24 -65c14.667 -18 38 -27 70 -27c31.333 0 55 9 71 27
c15.333 17.333 23 39 23 65s-7.66699 48 -23 66z" />
    <glyph glyph-name="AE" unicode="&#xc6;" horiz-adv-x="1923" 
d="M162 0h-142l590 1434h1180v-123h-743v-514h626v-123h-626v-551h743v-123h-879v346h-604v6zM911 469v842h-211l-346 -842h557z" />
    <glyph glyph-name="Ccedilla" unicode="&#xc7;" horiz-adv-x="1665" 
d="M664 -233h91.998c0 -48 31.333 -72 94 -72c65.333 0 98 21.667 98 65c0 45.333 -32.667 68 -98 68h-100v86l59 68c-203.333 9.33301 -365 82 -485 218c-120.667 134.667 -181 307 -181 517c0 216.667 64.333 393.667 193 531c128 137.333 299.333 206 514 206
c118.667 0 225 -22 319 -66c94.667 -45.333 166.334 -100 215.001 -164c48 -63.333 84.667 -125.5 110 -186.5s38 -115.5 38 -163.5h-135c0 42 -22 102 -66 180c-26.667 46 -58.667 88.667 -96 128c-38 38.667 -90.667 72.667 -158 102c-67.333 28.667 -143 43 -227 43
c-175.333 0 -313.333 -57.333 -414 -172c-102 -115.333 -153 -261.333 -153 -438s51 -322.667 153 -438c101.333 -115.333 239.333 -173 414 -173c82.667 0 158.334 14.667 227.001 44c67.333 29.333 120 63.333 158 102c37.333 38.667 69.333 81.334 96 128.001
c44 78 66 137.667 66 179h135c0 -80 -29 -167.667 -87 -263c-31.333 -52 -70 -100 -116 -144s-106 -82 -180 -114c-74.667 -32.667 -155.334 -51.334 -242.001 -56.001l-61 -70c64.667 0 113.334 -12.667 146.001 -38s48.667 -63.333 48 -114
c0 -46.667 -16.5 -83.167 -49.5 -109.5s-79.833 -39.5 -140.5 -39.5c-124 0 -186 52 -186 156z" />
    <glyph glyph-name="Egrave" unicode="&#xc8;" horiz-adv-x="1372" 
d="M1239 0h-1034v1434h1034v-123h-899v-514h782v-123h-782v-551h899v-123zM348 1946h168l307 -328h-127z" />
    <glyph glyph-name="Eacute" unicode="&#xc9;" horiz-adv-x="1372" 
d="M1239 0h-1034v1434h1034v-123h-899v-514h782v-123h-782v-551h899v-123zM791 1618h-127l307 328h168z" />
    <glyph glyph-name="Ecircumflex" unicode="&#xca;" horiz-adv-x="1372" 
d="M1239 0h-1034v1434h1034v-123h-899v-514h782v-123h-782v-551h899v-123zM1073 1618h-135l-217 260l-217 -260h-135l276 328h152z" />
    <glyph glyph-name="Edieresis" unicode="&#xcb;" horiz-adv-x="1372" 
d="M1239 0h-1034v1434h1034v-123h-899v-514h782v-123h-782v-551h899v-123zM486 1671c-14.667 14 -21.999 32.5 -21.999 55.5s7.33301 41.833 22 56.5c14.667 14 35 21 61 21s46.667 -7 62 -21c15.333 -14.667 23 -33.5 23 -56.5s-7.66699 -41.5 -23 -55.5
c-14.667 -14.667 -35.334 -22 -62.001 -22c-26 0 -46.333 7.33301 -61 22zM859.001 1671c-15.333 14 -22.998 32.5 -22.998 55.5s7.66699 41.833 23 56.5c15.333 14 35.666 21 60.999 21s45.666 -7 60.999 -21c15.333 -14.667 23 -33.5 23 -56.5s-7.66699 -41.5 -23 -55.5
c-14.667 -14.667 -35 -22 -61 -22s-46.333 7.33301 -61 22z" />
    <glyph glyph-name="Igrave" unicode="&#xcc;" horiz-adv-x="1159" 
d="M123 1434h913v-123h-389v-1188h389v-123h-913v123h389v1188h-389v123zM178 1946h168l307 -328h-127z" />
    <glyph glyph-name="Iacute" unicode="&#xcd;" horiz-adv-x="1159" 
d="M123 1434h913v-123h-389v-1188h389v-123h-913v123h389v1188h-389v123zM635 1616h-127l307 328h168z" />
    <glyph glyph-name="Icircumflex" unicode="&#xce;" horiz-adv-x="1159" 
d="M123 1434h913v-123h-389v-1188h389v-123h-913v123h389v1188h-389v123zM932 1618h-135l-217 260l-218 -260h-135l277 328h151z" />
    <glyph glyph-name="Idieresis" unicode="&#xcf;" horiz-adv-x="1159" 
d="M123 1434h913v-123h-389v-1188h389v-123h-913v123h389v1188h-389v123zM332 1671c-14.667 14 -21.998 32.5 -21.998 55.5s7.33301 41.833 22 56.5c15.333 14 35.666 21 60.999 21c26 0 46.667 -7 62 -21c15.333 -14.667 23 -33.5 23 -56.5s-7.66699 -41.5 -23 -55.5
c-14.667 -14.667 -35.334 -22 -62.001 -22c-26 0 -46.333 7.33301 -61 22zM705.002 1671c-15.333 14 -22.999 32.5 -22.999 55.5s7.66699 41.833 23 56.5c15.333 14 35.666 21 60.999 21c26.667 0 47.334 -7 62.001 -21c14.667 -14.667 22 -33.5 22 -56.5
s-7.33301 -41.5 -22 -55.5c-14.667 -14.667 -35.334 -22 -62.001 -22c-26 0 -46.333 7.33301 -61 22z" />
    <glyph glyph-name="Eth" unicode="&#xd0;" horiz-adv-x="1626" 
d="M262 1434l515.999 0.000976562c212.667 0 383.334 -67.333 512.001 -202s193 -306.334 193 -515.001c0 -209.333 -64 -381 -192 -515c-128.667 -134.667 -299.667 -202 -513 -202h-516v676h-221v123h221v635zM1191 291.001c101.333 112.667 152 254.667 152 426
s-50.667 313.333 -152 426c-102 112 -239.667 168 -413 168h-381v-512h332v-123h-332v-553h381c173.333 0 311 56 413 168z" />
    <glyph glyph-name="Ntilde" unicode="&#xd1;" horiz-adv-x="1611" 
d="M1407 0h-211l-852 1286h-4v-1286h-135v1434h213l850 -1287h4v1287h135v-1434zM672 1602c-53.333 0 -94.666 13.166 -123.999 39.499s-44 62.833 -44 109.5l8 70h104c-4 -15.333 -6 -32.666 -6 -51.999c0 -46.667 25.333 -69.667 76 -69c31.333 0 80 23 146 69
c65.333 45.333 128 68 188 68c52.667 0 93.834 -13.167 123.501 -39.5s44.5 -62.166 44.5 -107.499l-8 -72h-105c4 15.333 6 33 6 53c0 45.333 -25.667 68 -77 68c-18 1.33301 -40.333 -5.16699 -67 -19.5s-52.334 -30.5 -77.001 -48.5s-54.334 -34.333 -89.001 -49
s-67.667 -21.334 -99 -20.001z" />
    <glyph glyph-name="Ograve" unicode="&#xd2;" horiz-adv-x="1695" 
d="M335 187c-128 137.333 -192 314.001 -192 530.001c0 215.333 64 392 192 530c127.333 138 298.333 207 513 207c214 0 385 -69 513 -207c127.333 -138.667 191 -315.334 191 -530.001c0 -216 -63.667 -392.667 -191 -530c-128 -138 -299 -207 -513 -207
c-214.667 0 -385.667 69 -513 207zM1260 279.001c102 115.333 153.001 261.333 153.001 438s-51 322.667 -153 438c-102.667 114.667 -240 172 -412 172s-309 -57.333 -411 -172c-102.667 -114.667 -154 -260.667 -154 -438s51.333 -323.333 154 -438
c102 -115.333 239 -173 411 -173c171.333 0 308.666 57.667 411.999 173zM442.001 1946h168l308 -328h-127z" />
    <glyph glyph-name="Oacute" unicode="&#xd3;" horiz-adv-x="1695" 
d="M335 187c-128 137.333 -192 314.001 -192 530.001c0 215.333 64 392 192 530c127.333 138 298.333 207 513 207c214 0 385 -69 513 -207c127.333 -138.667 191 -315.334 191 -530.001c0 -216 -63.667 -392.667 -191 -530c-128 -138 -299 -207 -513 -207
c-214.667 0 -385.667 69 -513 207zM1260 279.001c102 115.333 153.001 261.333 153.001 438s-51 322.667 -153 438c-102.667 114.667 -240 172 -412 172s-309 -57.333 -411 -172c-102.667 -114.667 -154 -260.667 -154 -438s51.333 -323.333 154 -438
c102 -115.333 239 -173 411 -173c171.333 0 308.666 57.667 411.999 173zM903.001 1618h-127l307 328h168z" />
    <glyph glyph-name="Ocircumflex" unicode="&#xd4;" horiz-adv-x="1695" 
d="M335 187c-128 137.333 -192 314.001 -192 530.001c0 215.333 64 392 192 530c127.333 138 298.333 207 513 207c214 0 385 -69 513 -207c127.333 -138.667 191 -315.334 191 -530.001c0 -216 -63.667 -392.667 -191 -530c-128 -138 -299 -207 -513 -207
c-214.667 0 -385.667 69 -513 207zM1260 279.001c102 115.333 153.001 261.333 153.001 438s-51 322.667 -153 438c-102.667 114.667 -240 172 -412 172s-309 -57.333 -411 -172c-102.667 -114.667 -154 -260.667 -154 -438s51.333 -323.333 154 -438
c102 -115.333 239 -173 411 -173c171.333 0 308.666 57.667 411.999 173zM1200 1618h-135l-217 260l-217 -260h-135l276 328h152z" />
    <glyph glyph-name="Otilde" unicode="&#xd5;" horiz-adv-x="1695" 
d="M335 187c-128 137.333 -192 314.001 -192 530.001c0 215.333 64 392 192 530c127.333 138 298.333 207 513 207c214 0 385 -69 513 -207c127.333 -138.667 191 -315.334 191 -530.001c0 -216 -63.667 -392.667 -191 -530c-128 -138 -299 -207 -513 -207
c-214.667 0 -385.667 69 -513 207zM1260 279.001c102 115.333 153.001 261.333 153.001 438s-51 322.667 -153 438c-102.667 114.667 -240 172 -412 172s-309 -57.333 -411 -172c-102.667 -114.667 -154 -260.667 -154 -438s51.333 -323.333 154 -438
c102 -115.333 239 -173 411 -173c171.333 0 308.666 57.667 411.999 173zM674.001 1602c-53.333 0 -94.666 13.166 -123.999 39.499s-44 62.833 -44 109.5l8 70h104c-4 -15.333 -6 -32.666 -6 -51.999c0 -46.667 25.333 -69.667 76 -69c30.667 0 79.667 23 147 69
c66.667 45.333 129 68 187 68c52.667 0 93.834 -13.167 123.501 -39.5s44.5 -62.166 44.5 -107.499l-8 -72h-105c4 15.333 6 33 6 53c0 45.333 -25.667 68 -77 68c-18 1.33301 -40.333 -5.16699 -67 -19.5s-52.334 -30.5 -77.001 -48.5s-54.334 -34.333 -89.001 -49
s-67.667 -21.334 -99 -20.001z" />
    <glyph glyph-name="Odieresis" unicode="&#xd6;" horiz-adv-x="1695" 
d="M335 187c-128 137.333 -192 314.001 -192 530.001c0 215.333 64 392 192 530c127.333 138 298.333 207 513 207c214 0 385 -69 513 -207c127.333 -138.667 191 -315.334 191 -530.001c0 -216 -63.667 -392.667 -191 -530c-128 -138 -299 -207 -513 -207
c-214.667 0 -385.667 69 -513 207zM1260 279.001c102 115.333 153.001 261.333 153.001 438s-51 322.667 -153 438c-102.667 114.667 -240 172 -412 172s-309 -57.333 -411 -172c-102.667 -114.667 -154 -260.667 -154 -438s51.333 -323.333 154 -438
c102 -115.333 239 -173 411 -173c171.333 0 308.666 57.667 411.999 173zM601.001 1671c-15.333 14 -22.998 32.5 -22.998 55.5s7.66699 41.833 23 56.5c15.333 14 35.666 21 60.999 21s45.666 -7 60.999 -21c15.333 -14.667 23 -33.5 23 -56.5s-7.66699 -41.5 -23 -55.5
c-14.667 -14.667 -35 -22 -61 -22s-46.333 7.33301 -61 22zM973.003 1671c-15.333 14 -22.999 32.5 -22.999 55.5s7.66699 41.833 23 56.5c15.333 14 35.666 21 60.999 21c26.667 0 47.334 -7 62.001 -21c14.667 -14.667 22 -33.5 22 -56.5s-7.33301 -41.5 -22 -55.5
c-14.667 -14.667 -35.334 -22 -62.001 -22c-26 0 -46.333 7.33301 -61 22z" />
    <glyph glyph-name="multiply" unicode="&#xd7;" horiz-adv-x="880" 
d="M694 866l84 -84l-254 -254l254 -254l-84 -84l-254 254l-254 -254l-84 84l254 254l-254 254l84 84l254 -254z" />
    <glyph glyph-name="Oslash" unicode="&#xd8;" horiz-adv-x="1695" 
d="M262 279l-168 -102.999l-63 115l172 104c-39.333 86 -59.333 193.333 -60 322c0 216 64 393 192 531c127.333 137.333 298.333 206 513 206c77.333 0 150.666 -10 219.999 -30c68.667 -20.667 124.334 -46 167.001 -76c86.667 -62 146 -116.667 178 -164l19 -31l170 104
l63 -114l-172 -107c39.333 -86 59 -192.333 59 -319c0 -216 -63.667 -392.667 -191 -530c-128 -138 -299 -207 -513 -207c-80.667 0 -155 10.333 -223 31c-69.333 20 -125.333 44.667 -168 74c-88 61.333 -146 115.666 -174 162.999zM283 717.001
c0 -44 3.33203 -86 9.99902 -126c7.33301 -44.667 14 -75 20 -91l11 -31l991 612c-6.66699 12 -12 21 -16 27c-5.33301 8 -22.666 27.333 -51.999 58c-26.667 27.333 -56.334 52.333 -89.001 75c-32 22 -76 42 -132 60c-57.333 17.333 -116.666 26 -177.999 26
c-172 0 -309 -57.333 -411 -172c-102.667 -114.667 -154 -260.667 -154 -438zM1413 717.001c0 44 -3.33203 85.667 -9.99902 125s-13.667 70 -21 92l-10 29l-993 -613c1.33301 -2.66699 4 -6.83398 8 -12.501s7 -10.167 9 -13.5c7.33301 -12 24.333 -31.667 51 -59
c26 -27.333 56 -51.666 90 -72.999c34.667 -22 79 -41.667 133 -59c56 -18 115.333 -27 178 -27c171.333 0 308.666 57.667 411.999 173c102 115.333 153 261.333 153 438z" />
    <glyph glyph-name="Ugrave" unicode="&#xd9;" horiz-adv-x="1564" 
d="M1245 481v953h135v-959c0 -163.333 -56.333 -286.333 -169 -369c-112.667 -84 -255.667 -126 -429 -126s-316.333 42 -429 126c-112.667 82.667 -169 205.667 -169 369v959h135v-953c0 -123.333 44 -216.333 132 -279c87.333 -64 198 -96 332 -96s244.333 32 331 96
c87.333 63.333 131 156.333 131 279zM395 1946h168l307 -328h-127z" />
    <glyph glyph-name="Uacute" unicode="&#xda;" horiz-adv-x="1564" 
d="M1245 481v953h135v-959c0 -163.333 -56.333 -286.333 -169 -369c-112.667 -84 -255.667 -126 -429 -126s-316.333 42 -429 126c-112.667 82.667 -169 205.667 -169 369v959h135v-953c0 -123.333 44 -216.333 132 -279c87.333 -64 198 -96 332 -96s244.333 32 331 96
c87.333 63.333 131 156.333 131 279zM834 1618h-127l307 328h168z" />
    <glyph glyph-name="Ucircumflex" unicode="&#xdb;" horiz-adv-x="1564" 
d="M1245 481v953h135v-959c0 -163.333 -56.333 -286.333 -169 -369c-112.667 -84 -255.667 -126 -429 -126s-316.333 42 -429 126c-112.667 82.667 -169 205.667 -169 369v959h135v-953c0 -123.333 44 -216.333 132 -279c87.333 -64 198 -96 332 -96s244.333 32 331 96
c87.333 63.333 131 156.333 131 279zM1137 1618h-136l-217 260l-217 -260h-135l277 328h151z" />
    <glyph glyph-name="Udieresis" unicode="&#xdc;" horiz-adv-x="1564" 
d="M1245 481v953h135v-959c0 -163.333 -56.333 -286.333 -169 -369c-112.667 -84 -255.667 -126 -429 -126s-316.333 42 -429 126c-112.667 82.667 -169 205.667 -169 369v959h135v-953c0 -123.333 44 -216.333 132 -279c87.333 -64 198 -96 332 -96s244.333 32 331 96
c87.333 63.333 131 156.333 131 279zM535 1671c-15.333 14 -23 32.5 -23 55.5s7.66699 41.833 23 56.5c14.667 14 35 21 61 21c26.667 0 47.334 -7 62.001 -21c14.667 -14.667 22 -33.5 22 -56.5s-7.33301 -41.5 -22 -55.5c-14.667 -14.667 -35.334 -22 -62.001 -22
c-26 0 -46.333 7.33301 -61 22zM908 1671c-14.667 14 -21.999 32.5 -21.999 55.5s7.33301 41.833 22 56.5c14.667 14 35 21 61 21s46.667 -7 62 -21c15.333 -14.667 23 -33.5 23 -56.5s-7.66699 -41.5 -23 -55.5c-14.667 -14.667 -35.334 -22 -62.001 -22
c-26 0 -46.333 7.33301 -61 22z" />
    <glyph glyph-name="Yacute" unicode="&#xdd;" horiz-adv-x="1345" 
d="M745 0h-145v541l-559 893h152l477 -760h6l477 760h152l-560 -893v-541zM727 1618h-127l307 328h168z" />
    <glyph glyph-name="Thorn" unicode="&#xde;" horiz-adv-x="1447" 
d="M762 264h-422v-264h-135v1434h135v-248h422c178 0 314.667 -39.5 410 -118.5s143 -193.167 143 -342.5s-47.667 -263.5 -143 -342.5s-232 -118.5 -410 -118.5zM340 1063v-676h422c134 0 236.5 28.5 307.5 85.5s106.5 141.167 106.5 252.5s-35.5 195.5 -106.5 252.5
s-173.5 85.5 -307.5 85.5h-422z" />
    <glyph glyph-name="germandbls" unicode="&#xdf;" horiz-adv-x="1343" 
d="M354 1047v-1047h-127v885h-176v119h176v57c0 130 36.667 228 110 294s172.666 99 297.999 99c120.667 0 217.334 -30.333 290.001 -91s109 -139 109 -235c0 -45.333 -9 -87.166 -27 -125.499s-40 -67.833 -66 -88.5c-62 -49.333 -93 -91.333 -93 -126
c0 -19.333 8.83301 -39.666 26.5 -60.999s36.5 -39 56.5 -53s49.167 -33.167 87.5 -57.5s66.166 -42.833 83.499 -55.5c41.333 -30 74.833 -66.667 100.5 -110s38.5 -90.666 38.5 -141.999c0 -100 -33.667 -179.667 -101 -239c-68 -60 -164 -90 -288 -90
c-63.333 0 -120.333 8.5 -171 25.5s-88.667 39.167 -114 66.5c-49.333 52 -78.666 99.667 -87.999 143l-4 27h131c-0.666992 -4 0.5 -10.833 3.5 -20.5s9.66699 -21.667 20 -36s23.666 -28 39.999 -41s39.5 -24 69.5 -33s64.333 -13.5 103 -13.5
c88.667 0 156.167 19 202.5 57s69.5 89.333 69.5 154c0 74 -46.333 139.667 -139 197l-114 71c-41.333 25.333 -75 56.333 -101 93s-39 76 -39 118c0 60.667 31 114.334 93 161.001c26.667 19.333 48.834 44.5 66.501 75.5s26.5 64.833 26.5 101.5c0 64 -25.667 115 -77 153
c-52.667 37.333 -117.667 56 -195 56c-93.333 0.666992 -163.5 -23 -210.5 -71s-70.5 -120.333 -70.5 -217z" />
    <glyph glyph-name="agrave" unicode="&#xe0;" horiz-adv-x="1292" 
d="M123 274c0 97.333 44.002 171.665 132.002 222.998c87.333 50.667 197.666 76 330.999 76c70 0 137 -8.66699 201 -26c63.333 -18 108.333 -35 135 -51l43 -27v184c0 82 -31 144.667 -93 188c-62.667 42.667 -140.334 64 -233.001 64
c-90.667 0 -169.334 -18.667 -236.001 -56c-66.667 -36.667 -100 -82.667 -100 -138h-127c3.33301 82.667 44.333 155.334 123 218.001c79.333 63.333 191.333 95 336 95c130.667 0 239.334 -31.333 326.001 -94c87.333 -63.333 131 -155.666 131 -276.999v-424
c0 -48 7.5 -81.833 22.5 -101.5s40.167 -29.5 75.5 -29.5c22.667 0 41 2.66699 55 8l6 5v-111c-18.667 -9.33301 -46 -14 -82 -14c-63.333 0 -108.666 14.333 -135.999 43c-28 27.333 -44.667 49 -50 65l-2 12h-6c-4.66699 -8 -24.667 -22.333 -60 -43
c-24.667 -15.333 -50 -28.333 -76 -39c-64.667 -29.333 -146.334 -44 -245.001 -44c-138 0 -251 24 -339 72s-132 122 -132 222zM254.002 273.999c0 -117.333 118.668 -176 356.001 -176c70 0 135 10.333 195 31c59.333 20.667 98.666 37.667 117.999 51
c18 13.333 32 24.333 42 33v141c-4.66699 6 -17.667 15.667 -39 29c-24 14 -64.667 29.333 -122 46c-60 17.333 -124.667 26 -194 26c-140 0 -241 -24.333 -303 -73c-35.333 -28 -53 -64 -53 -108zM260.003 1536h168l307 -328h-127z" />
    <glyph glyph-name="aacute" unicode="&#xe1;" horiz-adv-x="1292" 
d="M123 274c0 97.333 44.002 171.665 132.002 222.998c87.333 50.667 197.666 76 330.999 76c70 0 137 -8.66699 201 -26c63.333 -18 108.333 -35 135 -51l43 -27v184c0 82 -31 144.667 -93 188c-62.667 42.667 -140.334 64 -233.001 64
c-90.667 0 -169.334 -18.667 -236.001 -56c-66.667 -36.667 -100 -82.667 -100 -138h-127c3.33301 82.667 44.333 155.334 123 218.001c79.333 63.333 191.333 95 336 95c130.667 0 239.334 -31.333 326.001 -94c87.333 -63.333 131 -155.666 131 -276.999v-424
c0 -48 7.5 -81.833 22.5 -101.5s40.167 -29.5 75.5 -29.5c22.667 0 41 2.66699 55 8l6 5v-111c-18.667 -9.33301 -46 -14 -82 -14c-63.333 0 -108.666 14.333 -135.999 43c-28 27.333 -44.667 49 -50 65l-2 12h-6c-4.66699 -8 -24.667 -22.333 -60 -43
c-24.667 -15.333 -50 -28.333 -76 -39c-64.667 -29.333 -146.334 -44 -245.001 -44c-138 0 -251 24 -339 72s-132 122 -132 222zM254.002 273.999c0 -117.333 118.668 -176 356.001 -176c70 0 135 10.333 195 31c59.333 20.667 98.666 37.667 117.999 51
c18 13.333 32 24.333 42 33v141c-4.66699 6 -17.667 15.667 -39 29c-24 14 -64.667 29.333 -122 46c-60 17.333 -124.667 26 -194 26c-140 0 -241 -24.333 -303 -73c-35.333 -28 -53 -64 -53 -108zM707.003 1208h-127l307 328h168z" />
    <glyph glyph-name="acircumflex" unicode="&#xe2;" horiz-adv-x="1292" 
d="M123 274c0 97.333 44.002 171.665 132.002 222.998c87.333 50.667 197.666 76 330.999 76c70 0 137 -8.66699 201 -26c63.333 -18 108.333 -35 135 -51l43 -27v184c0 82 -31 144.667 -93 188c-62.667 42.667 -140.334 64 -233.001 64
c-90.667 0 -169.334 -18.667 -236.001 -56c-66.667 -36.667 -100 -82.667 -100 -138h-127c3.33301 82.667 44.333 155.334 123 218.001c79.333 63.333 191.333 95 336 95c130.667 0 239.334 -31.333 326.001 -94c87.333 -63.333 131 -155.666 131 -276.999v-424
c0 -48 7.5 -81.833 22.5 -101.5s40.167 -29.5 75.5 -29.5c22.667 0 41 2.66699 55 8l6 5v-111c-18.667 -9.33301 -46 -14 -82 -14c-63.333 0 -108.666 14.333 -135.999 43c-28 27.333 -44.667 49 -50 65l-2 12h-6c-4.66699 -8 -24.667 -22.333 -60 -43
c-24.667 -15.333 -50 -28.333 -76 -39c-64.667 -29.333 -146.334 -44 -245.001 -44c-138 0 -251 24 -339 72s-132 122 -132 222zM254.002 273.999c0 -117.333 118.668 -176 356.001 -176c70 0 135 10.333 195 31c59.333 20.667 98.666 37.667 117.999 51
c18 13.333 32 24.333 42 33v141c-4.66699 6 -17.667 15.667 -39 29c-24 14 -64.667 29.333 -122 46c-60 17.333 -124.667 26 -194 26c-140 0 -241 -24.333 -303 -73c-35.333 -28 -53 -64 -53 -108zM1006 1208h-136l-217 260l-217 -260h-135l277 328h151z" />
    <glyph glyph-name="atilde" unicode="&#xe3;" horiz-adv-x="1292" 
d="M123 274c0 97.333 44.002 171.665 132.002 222.998c87.333 50.667 197.666 76 330.999 76c70 0 137 -8.66699 201 -26c63.333 -18 108.333 -35 135 -51l43 -27v184c0 82 -31 144.667 -93 188c-62.667 42.667 -140.334 64 -233.001 64
c-90.667 0 -169.334 -18.667 -236.001 -56c-66.667 -36.667 -100 -82.667 -100 -138h-127c3.33301 82.667 44.333 155.334 123 218.001c79.333 63.333 191.333 95 336 95c130.667 0 239.334 -31.333 326.001 -94c87.333 -63.333 131 -155.666 131 -276.999v-424
c0 -48 7.5 -81.833 22.5 -101.5s40.167 -29.5 75.5 -29.5c22.667 0 41 2.66699 55 8l6 5v-111c-18.667 -9.33301 -46 -14 -82 -14c-63.333 0 -108.666 14.333 -135.999 43c-28 27.333 -44.667 49 -50 65l-2 12h-6c-4.66699 -8 -24.667 -22.333 -60 -43
c-24.667 -15.333 -50 -28.333 -76 -39c-64.667 -29.333 -146.334 -44 -245.001 -44c-138 0 -251 24 -339 72s-132 122 -132 222zM254.002 273.999c0 -117.333 118.668 -176 356.001 -176c70 0 135 10.333 195 31c59.333 20.667 98.666 37.667 117.999 51
c18 13.333 32 24.333 42 33v141c-4.66699 6 -17.667 15.667 -39 29c-24 14 -64.667 29.333 -122 46c-60 17.333 -124.667 26 -194 26c-140 0 -241 -24.333 -303 -73c-35.333 -28 -53 -64 -53 -108zM475.003 1208c-53.333 0 -94.6641 13.332 -123.997 39.999
s-44 63.334 -44 110.001l8 69h105c-4 -15.333 -6 -32.333 -6 -51c0 -46.667 25 -69.667 75 -69c31.333 0 80 23 146 69c65.333 45.333 128 68 188 68c53.333 0 94.666 -13.167 123.999 -39.5s44 -62.5 44 -108.5l-8 -71h-104c4 15.333 6 33 6 53c0 45.333 -26 68 -78 68
c-17.333 1.33301 -39.333 -5.16699 -66 -19.5s-52.334 -30.666 -77.001 -48.999s-54.334 -34.833 -89.001 -49.5s-68 -21.334 -100 -20.001z" />
    <glyph glyph-name="adieresis" unicode="&#xe4;" horiz-adv-x="1292" 
d="M123 274c0 97.333 44.002 171.665 132.002 222.998c87.333 50.667 197.666 76 330.999 76c70 0 137 -8.66699 201 -26c63.333 -18 108.333 -35 135 -51l43 -27v184c0 82 -31 144.667 -93 188c-62.667 42.667 -140.334 64 -233.001 64
c-90.667 0 -169.334 -18.667 -236.001 -56c-66.667 -36.667 -100 -82.667 -100 -138h-127c3.33301 82.667 44.333 155.334 123 218.001c79.333 63.333 191.333 95 336 95c130.667 0 239.334 -31.333 326.001 -94c87.333 -63.333 131 -155.666 131 -276.999v-424
c0 -48 7.5 -81.833 22.5 -101.5s40.167 -29.5 75.5 -29.5c22.667 0 41 2.66699 55 8l6 5v-111c-18.667 -9.33301 -46 -14 -82 -14c-63.333 0 -108.666 14.333 -135.999 43c-28 27.333 -44.667 49 -50 65l-2 12h-6c-4.66699 -8 -24.667 -22.333 -60 -43
c-24.667 -15.333 -50 -28.333 -76 -39c-64.667 -29.333 -146.334 -44 -245.001 -44c-138 0 -251 24 -339 72s-132 122 -132 222zM254.002 273.999c0 -117.333 118.668 -176 356.001 -176c70 0 135 10.333 195 31c59.333 20.667 98.666 37.667 117.999 51
c18 13.333 32 24.333 42 33v141c-4.66699 6 -17.667 15.667 -39 29c-24 14 -64.667 29.333 -122 46c-60 17.333 -124.667 26 -194 26c-140 0 -241 -24.333 -303 -73c-35.333 -28 -53 -64 -53 -108zM392.003 1251c-14.667 14 -21.999 32.5 -21.999 55.5
s7.33301 41.833 22 56.5c14.667 14 35 21 61 21s46.667 -7 62 -21c15.333 -14.667 23 -33.5 23 -56.5s-7.66699 -41.5 -23 -55.5c-14.667 -14.667 -35.334 -22 -62.001 -22c-26 0 -46.333 7.33301 -61 22zM764.004 1251c-14.667 14 -21.999 32.5 -21.999 55.5
s7.33301 41.833 22 56.5c14.667 14 35 21 61 21s46.667 -7 62 -21c15.333 -14.667 23 -33.5 23 -56.5s-7.66699 -41.5 -23 -55.5c-14.667 -14.667 -35.334 -22 -62.001 -22c-26 0 -46.333 7.33301 -61 22z" />
    <glyph glyph-name="aring" unicode="&#xe5;" horiz-adv-x="1292" 
d="M123 274c0 97.333 44.002 171.665 132.002 222.998c87.333 50.667 197.666 76 330.999 76c70 0 137 -8.66699 201 -26c63.333 -18 108.333 -35 135 -51l43 -27v184c0 82 -31 144.667 -93 188c-62.667 42.667 -140.334 64 -233.001 64
c-90.667 0 -169.334 -18.667 -236.001 -56c-66.667 -36.667 -100 -82.667 -100 -138h-127c3.33301 82.667 44.333 155.334 123 218.001c79.333 63.333 191.333 95 336 95c130.667 0 239.334 -31.333 326.001 -94c87.333 -63.333 131 -155.666 131 -276.999v-424
c0 -48 7.5 -81.833 22.5 -101.5s40.167 -29.5 75.5 -29.5c22.667 0 41 2.66699 55 8l6 5v-111c-18.667 -9.33301 -46 -14 -82 -14c-63.333 0 -108.666 14.333 -135.999 43c-28 27.333 -44.667 49 -50 65l-2 12h-6c-4.66699 -8 -24.667 -22.333 -60 -43
c-24.667 -15.333 -50 -28.333 -76 -39c-64.667 -29.333 -146.334 -44 -245.001 -44c-138 0 -251 24 -339 72s-132 122 -132 222zM254.002 273.999c0 -117.333 118.668 -176 356.001 -176c70 0 135 10.333 195 31c59.333 20.667 98.666 37.667 117.999 51
c18 13.333 32 24.333 42 33v141c-4.66699 6 -17.667 15.667 -39 29c-24 14 -64.667 29.333 -122 46c-60 17.333 -124.667 26 -194 26c-140 0 -241 -24.333 -303 -73c-35.333 -28 -53 -64 -53 -108zM790.003 1219c-34.667 -34.667 -83 -52 -145 -52
c-61.333 0 -109.333 17.333 -144 52c-34.667 34 -52 77.667 -52 131s17.333 97 52 131c35.333 34 83.333 51 144 51c62 0 110.333 -17 145 -51s52 -77.667 52 -131s-17.333 -97 -52 -131zM716.003 1416c-16 17.333 -39.667 26 -71 26s-54.666 -8.66699 -69.999 -26
c-16 -18 -24 -40 -24 -66s8 -48 24 -66c15.333 -18 38.666 -27 69.999 -27s55 9 71 27c15.333 18 23 40 23 66s-7.66699 48 -23 66z" />
    <glyph glyph-name="ae" unicode="&#xe6;" horiz-adv-x="2093" 
d="M1960 514l-3.99902 -71.998h-842c0 -98 34.667 -179.667 104 -245c69.333 -66 163.666 -99 282.999 -99c44.667 0 86.334 5.33301 125.001 16s69 24 91 40c42.667 32 68.334 60.667 77.001 86l8 16h135c-6 -24.667 -21.333 -56.667 -46 -96
c-22 -32.667 -46.667 -60.667 -74 -84c-29.333 -25.333 -70.666 -47.333 -123.999 -66c-54 -20 -114 -30 -180 -30c-65.333 0 -126.5 8.5 -183.5 25.5s-102.5 38.5 -136.5 64.5c-68 51.333 -111.333 97.666 -130 138.999l-12 27h-4
c-0.666992 -1.33301 -1.66699 -3.66602 -3 -6.99902s-2.83301 -6.83301 -4.5 -10.5s-3.16699 -7.16699 -4.5 -10.5c-6.66699 -12.667 -21.667 -33.334 -45 -62.001c-24 -29.333 -51.667 -55 -83 -77c-30 -22 -75.667 -42.333 -137 -61c-58.667 -18.667 -125 -28 -199 -28
c-143.333 0 -253.833 24.5 -331.5 73.5s-116.5 118.5 -116.5 208.5c0 96 38.667 169.833 116 221.5s185.333 77.5 324 77.5h420c0 104 -32.667 187.667 -98 251c-66.667 63.333 -151.334 95 -254.001 95c-54 0 -102.333 -6.16699 -145 -18.5s-75.334 -28.5 -98.001 -48.5
c-46 -40.667 -71.667 -75 -77 -103l-4 -20h-127c0 36.667 17.667 80.667 53 132c20.667 31.333 46.667 59.333 78 84c33.333 26.667 78.166 48.5 134.499 65.5s118.166 25.5 185.499 25.5c56 0 109 -8.5 159 -25.5s90.667 -38.5 122 -64.5
c62.667 -52 103.334 -98.333 122.001 -139l13 -27h4c4 9.33301 8.33301 18.666 13 27.999c7.33301 12.667 22.333 33 45 61c23.333 28 50 54 80 78c26.667 21.333 67 42 121 62c50.667 18 105.667 27 165 27c151.333 0 270 -46.667 356 -140c86 -94 129 -217.333 129 -370z
M586.001 98.002c133.333 0 232.667 32.333 298 97c66 64 99 146.333 99 247h-420c-206 0 -309 -57.333 -309 -172s110.667 -172 332 -172zM1470 907.002c-100 0 -184.333 -31.333 -253 -94s-103 -146.667 -103 -252h715c0 101.333 -31.333 184.333 -94 249s-151 97 -265 97z
" />
    <glyph glyph-name="ccedilla" unicode="&#xe7;" horiz-adv-x="1312" 
d="M485 -233l92.998 -0.00488281c0 -48 31.333 -72 94 -72c65.333 0 98 21.667 98 65c0 45.333 -32.667 68 -98 68h-101v86l60 68c-146 7.33301 -265.333 59 -358 155c-93.333 96.667 -140 218.334 -140 365.001c0 154.667 50 280.334 150 377.001
c98.667 96.667 226.334 145 383.001 145c68 0 132.667 -10.167 194 -30.5s112.333 -47.166 153 -80.499c38.667 -32.667 72 -68 100 -106c51.333 -70 77 -134.333 77 -193h-133c0 14.667 -7.16699 36.334 -21.5 65.001s-34.833 59.667 -61.5 93
c-29.333 36 -70.666 66.333 -123.999 91c-56 25.333 -117.333 38 -184 38c-120 0 -217 -38 -291 -114c-74 -76.667 -111 -171.667 -111 -285s37 -208.333 111 -285c72.667 -76.667 169.667 -115 291 -115c66.667 0 128 12.667 184 38c54 24.667 95.333 55.334 124 92.001
c55.333 70 83 122.333 83 157h133c0 -64 -35.333 -140.667 -106 -230c-36.667 -44.667 -85.334 -83 -146.001 -115c-63.333 -33.333 -133 -53.333 -209 -60l-61 -72c64.667 0 113.334 -12.667 146.001 -38s48.667 -63.333 48 -114c0 -46.667 -16.5 -83.167 -49.5 -109.5
s-79.833 -39.5 -140.5 -39.5c-124.667 0 -187 52 -187 156z" />
    <glyph glyph-name="egrave" unicode="&#xe8;" horiz-adv-x="1339" 
d="M1206 502l-5.99707 -77.999h-930c0 -30.667 16.667 -74 50 -130c19.333 -32.667 42.666 -62.667 69.999 -90c29.333 -29.333 69.333 -53.666 120 -72.999s105.334 -29 164.001 -29c42.667 0 83.667 5 123 15s71.666 23 96.999 39c49.333 30.667 81.666 58 96.999 82
l13 16h153c-4 -10 -8.66699 -19.667 -14 -29c-8 -14.667 -25 -37 -51 -67c-28 -32 -58 -59.667 -90 -83c-34 -24.667 -80 -46.334 -138 -65.001c-58.667 -20 -122 -30 -190 -30c-158.667 0 -288.334 48.333 -389.001 145c-101.333 97.333 -152 223 -152 377
s50.667 279.667 152 377c100.667 96.667 229 145 385 145s284.333 -48.333 385 -145s151 -222.334 151 -377.001zM266.003 543.001h807c0 81.333 -35.333 161.333 -106 240s-169.667 118 -297 118s-226.333 -39.333 -297 -118c-71.333 -79.333 -107 -159.333 -107 -240z
M272.003 1536h168l308 -328h-127z" />
    <glyph glyph-name="eacute" unicode="&#xe9;" horiz-adv-x="1339" 
d="M1206 502l-5.99707 -77.999h-930c0 -30.667 16.667 -74 50 -130c19.333 -32.667 42.666 -62.667 69.999 -90c29.333 -29.333 69.333 -53.666 120 -72.999s105.334 -29 164.001 -29c42.667 0 83.667 5 123 15s71.666 23 96.999 39c49.333 30.667 81.666 58 96.999 82
l13 16h153c-4 -10 -8.66699 -19.667 -14 -29c-8 -14.667 -25 -37 -51 -67c-28 -32 -58 -59.667 -90 -83c-34 -24.667 -80 -46.334 -138 -65.001c-58.667 -20 -122 -30 -190 -30c-158.667 0 -288.334 48.333 -389.001 145c-101.333 97.333 -152 223 -152 377
s50.667 279.667 152 377c100.667 96.667 229 145 385 145s284.333 -48.333 385 -145s151 -222.334 151 -377.001zM266.003 543.001h807c0 81.333 -35.333 161.333 -106 240s-169.667 118 -297 118s-226.333 -39.333 -297 -118c-71.333 -79.333 -107 -159.333 -107 -240z
M719.003 1208h-127l307 328h168z" />
    <glyph glyph-name="ecircumflex" unicode="&#xea;" horiz-adv-x="1339" 
d="M1206 502l-5.99707 -77.999h-930c0 -30.667 16.667 -74 50 -130c19.333 -32.667 42.666 -62.667 69.999 -90c29.333 -29.333 69.333 -53.666 120 -72.999s105.334 -29 164.001 -29c42.667 0 83.667 5 123 15s71.666 23 96.999 39c49.333 30.667 81.666 58 96.999 82
l13 16h153c-4 -10 -8.66699 -19.667 -14 -29c-8 -14.667 -25 -37 -51 -67c-28 -32 -58 -59.667 -90 -83c-34 -24.667 -80 -46.334 -138 -65.001c-58.667 -20 -122 -30 -190 -30c-158.667 0 -288.334 48.333 -389.001 145c-101.333 97.333 -152 223 -152 377
s50.667 279.667 152 377c100.667 96.667 229 145 385 145s284.333 -48.333 385 -145s151 -222.334 151 -377.001zM266.003 543.001h807c0 81.333 -35.333 161.333 -106 240s-169.667 118 -297 118s-226.333 -39.333 -297 -118c-71.333 -79.333 -107 -159.333 -107 -240z
M1022 1208h-135l-217 260l-217 -260h-136l277 328h151z" />
    <glyph glyph-name="edieresis" unicode="&#xeb;" horiz-adv-x="1339" 
d="M1206 502l-5.99707 -77.999h-930c0 -30.667 16.667 -74 50 -130c19.333 -32.667 42.666 -62.667 69.999 -90c29.333 -29.333 69.333 -53.666 120 -72.999s105.334 -29 164.001 -29c42.667 0 83.667 5 123 15s71.666 23 96.999 39c49.333 30.667 81.666 58 96.999 82
l13 16h153c-4 -10 -8.66699 -19.667 -14 -29c-8 -14.667 -25 -37 -51 -67c-28 -32 -58 -59.667 -90 -83c-34 -24.667 -80 -46.334 -138 -65.001c-58.667 -20 -122 -30 -190 -30c-158.667 0 -288.334 48.333 -389.001 145c-101.333 97.333 -152 223 -152 377
s50.667 279.667 152 377c100.667 96.667 229 145 385 145s284.333 -48.333 385 -145s151 -222.334 151 -377.001zM266.003 543.001h807c0 81.333 -35.333 161.333 -106 240s-169.667 118 -297 118s-226.333 -39.333 -297 -118c-71.333 -79.333 -107 -159.333 -107 -240z
M422.003 1251c-14.667 14 -21.999 32.5 -21.999 55.5s7.33301 41.833 22 56.5c14.667 14 35 21 61 21s46.667 -7 62 -21c15.333 -14.667 23 -33.5 23 -56.5s-7.66699 -41.5 -23 -55.5c-14.667 -14.667 -35.334 -22 -62.001 -22c-26 0 -46.333 7.33301 -61 22zM795.004 1251
c-15.333 14 -22.999 32.5 -22.999 55.5s7.66699 41.833 23 56.5c15.333 14 35.666 21 60.999 21c26.667 0 47.334 -7 62.001 -21c14.667 -14.667 22 -33.5 22 -56.5s-7.33301 -41.5 -22 -55.5c-14.667 -14.667 -35.334 -22 -62.001 -22c-26 0 -46.333 7.33301 -61 22z" />
    <glyph glyph-name="igrave" unicode="&#xec;" horiz-adv-x="475" 
d="M-180 1536h168l307 -328h-127zM174 1004h127v-1004h-127v1004z" />
    <glyph glyph-name="iacute" unicode="&#xed;" horiz-adv-x="475" 
d="M303 1208h-127l307 328h168zM174 1004h127v-1004h-127v1004z" />
    <glyph glyph-name="icircumflex" unicode="&#xee;" horiz-adv-x="475" 
d="M174 1004h127v-1004h-127v1004zM590 1208h-135l-217 260l-218 -260h-135l277 328h151z" />
    <glyph glyph-name="idieresis" unicode="&#xef;" horiz-adv-x="475" 
d="M-11 1251c-15.333 14 -22.999 32.5 -22.999 55.5s7.66699 41.833 23 56.5c16 14 36.667 21 62 21c26 0 46.667 -7 62 -21c15.333 -14.667 23 -33.5 23 -56.5s-7.66699 -41.5 -23 -55.5c-14.667 -14.667 -35.334 -22 -62.001 -22c-26 0 -46.667 7.33301 -62 22z
M363.001 1251c-15.333 14 -23 32.5 -23 55.5s7.66699 41.833 23 56.5c14.667 14 35 21 61 21c26.667 0 47.334 -7 62.001 -21c14.667 -14.667 22 -33.5 22 -56.5s-7.33301 -41.5 -22 -55.5c-14.667 -14.667 -35.334 -22 -62.001 -22c-26 0 -46.333 7.33301 -61 22z
M174.001 1004h127v-1004h-127v1004z" />
    <glyph glyph-name="eth" unicode="&#xf0;" horiz-adv-x="1337" 
d="M578 1137l-96.999 34l51 158l-186 45l31 101c54.667 -8 118 -23 190 -45l51 149l101 -33l-51 -149c6.66699 -0.666992 16.667 -3.66699 30 -9c11.333 -4 35.666 -15 72.999 -33c78 -36.667 150 -87.667 216 -153c42.667 -43.333 78.167 -89 106.5 -137
s52.166 -106 71.499 -174c19.333 -72 29 -147.667 29 -227v-70c0 -179.333 -49.667 -326.666 -149 -441.999c-100 -114.667 -230.667 -172 -392 -172c-157.333 0 -283.333 44.333 -378 133s-142 203.334 -142 344.001s46 255.334 138 344.001c90.667 88.667 212 133 364 133
c61.333 0 119 -8.16699 173 -24.5s97 -37.5 129 -63.5c64.667 -52 106 -97.667 124 -137l10 -25h8c0 93.333 -15.333 177.666 -46 252.999s-67.667 134.666 -111 177.999c-43.333 41.333 -87.166 76.666 -131.499 105.999s-82.5 49 -114.5 59l-45 14zM372.001 712
c-72 -66.667 -108 -151.666 -108 -254.999c0 -104 36 -189 108 -255c70.667 -66.667 165 -100 283 -100c106.667 0 197 34 271 102c73.333 67.333 110 151.666 110 252.999c0 100 -37 184 -111 252c-75.333 68 -165.333 102 -270 102c-118 0 -212.333 -33 -283 -99z" />
    <glyph glyph-name="ntilde" unicode="&#xf1;" horiz-adv-x="1300" 
d="M1137 0l-126.999 -0.000976562v537c0 127.333 -32.333 220.333 -97 279c-65.333 59.333 -151.333 89 -258 89c-114.667 0 -202.334 -34.333 -263.001 -103s-91 -158.667 -91 -270v-532h-127v1004h127v-158h8c6.66699 14.667 23.667 35.334 51 62.001
c21.333 20.667 44.666 38.667 69.999 54c28.667 17.333 66.334 32 113.001 44s95 18 145 18c130 0 237.333 -38.333 322 -115s127 -192.667 127 -348v-561zM477.001 1208c-53.333 0 -94.6641 13.332 -123.997 39.999s-44 63.334 -44 110.001l8 69h105
c-4 -15.333 -6 -32.333 -6 -51c0 -46.667 25.333 -69.667 76 -69c38 0 86 23 144 69c24 18.667 53 34.667 87 48s68 20 102 20c53.333 0 94.666 -13.167 123.999 -39.5s44 -62.5 44 -108.5l-8 -71h-104c4 15.333 6 33 6 53c0 45.333 -26 68 -78 68
c-17.333 1.33301 -39.333 -5.16699 -66 -19.5s-52.334 -30.666 -77.001 -48.999s-54.334 -34.833 -89.001 -49.5s-68 -21.334 -100 -20.001z" />
    <glyph glyph-name="ograve" unicode="&#xf2;" horiz-adv-x="1339" 
d="M285 125c-101.333 97.333 -152 223.002 -152 377.002s50.667 279.667 152 377c100.667 96.667 229 145 385 145s284.333 -48.333 385 -145s151 -222.334 151 -377.001s-50.333 -280.334 -151 -377.001s-229 -145 -385 -145s-284.333 48.333 -385 145zM963 217.002
c74.667 76.667 111.999 171.667 111.999 285s-37.333 208.333 -112 285c-74.667 76 -172.334 114 -293.001 114c-120 0 -217.667 -38 -293 -114c-75.333 -77.333 -113 -172.333 -113 -285s37.667 -207.667 113 -285c74.667 -76.667 172.334 -115 293.001 -115
s218.334 38.333 293.001 115zM269.999 1536h168l307 -328h-127z" />
    <glyph glyph-name="oacute" unicode="&#xf3;" horiz-adv-x="1339" 
d="M285 125c-101.333 97.333 -152 223.002 -152 377.002s50.667 279.667 152 377c100.667 96.667 229 145 385 145s284.333 -48.333 385 -145s151 -222.334 151 -377.001s-50.333 -280.334 -151 -377.001s-229 -145 -385 -145s-284.333 48.333 -385 145zM963 217.002
c74.667 76.667 111.999 171.667 111.999 285s-37.333 208.333 -112 285c-74.667 76 -172.334 114 -293.001 114c-120 0 -217.667 -38 -293 -114c-75.333 -77.333 -113 -172.333 -113 -285s37.667 -207.667 113 -285c74.667 -76.667 172.334 -115 293.001 -115
s218.334 38.333 293.001 115zM726.999 1208h-127l307 328h168z" />
    <glyph glyph-name="ocircumflex" unicode="&#xf4;" horiz-adv-x="1339" 
d="M285 125c-101.333 97.333 -152 223.002 -152 377.002s50.667 279.667 152 377c100.667 96.667 229 145 385 145s284.333 -48.333 385 -145s151 -222.334 151 -377.001s-50.333 -280.334 -151 -377.001s-229 -145 -385 -145s-284.333 48.333 -385 145zM963 217.002
c74.667 76.667 111.999 171.667 111.999 285s-37.333 208.333 -112 285c-74.667 76 -172.334 114 -293.001 114c-120 0 -217.667 -38 -293 -114c-75.333 -77.333 -113 -172.333 -113 -285s37.667 -207.667 113 -285c74.667 -76.667 172.334 -115 293.001 -115
s218.334 38.333 293.001 115zM1022 1208h-135l-217 260l-217 -260h-136l277 328h151z" />
    <glyph glyph-name="otilde" unicode="&#xf5;" horiz-adv-x="1339" 
d="M285 125c-101.333 97.333 -152 223.002 -152 377.002s50.667 279.667 152 377c100.667 96.667 229 145 385 145s284.333 -48.333 385 -145s151 -222.334 151 -377.001s-50.333 -280.334 -151 -377.001s-229 -145 -385 -145s-284.333 48.333 -385 145zM963 217.002
c74.667 76.667 111.999 171.667 111.999 285s-37.333 208.333 -112 285c-74.667 76 -172.334 114 -293.001 114c-120 0 -217.667 -38 -293 -114c-75.333 -77.333 -113 -172.333 -113 -285s37.667 -207.667 113 -285c74.667 -76.667 172.334 -115 293.001 -115
s218.334 38.333 293.001 115zM499.999 1208c-53.333 0 -94.666 13.332 -123.999 39.999s-44 63.334 -44 110.001l8 69h104c-4 -15.333 -6 -32.333 -6 -51c0 -46.667 25.333 -69.667 76 -69c31.333 0 80 23 146 69c65.333 45.333 128 68 188 68
c53.333 0 94.666 -13.167 123.999 -39.5s44 -62.5 44 -108.5l-8 -71h-105c4 15.333 6 33 6 53c0 45.333 -26 68 -78 68c-18 1.33301 -40.333 -5.16699 -67 -19.5s-52.167 -30.666 -76.5 -48.999s-53.833 -34.833 -88.5 -49.5s-67.667 -21.334 -99 -20.001z" />
    <glyph glyph-name="odieresis" unicode="&#xf6;" horiz-adv-x="1339" 
d="M285 125c-101.333 97.333 -152 223.002 -152 377.002s50.667 279.667 152 377c100.667 96.667 229 145 385 145s284.333 -48.333 385 -145s151 -222.334 151 -377.001s-50.333 -280.334 -151 -377.001s-229 -145 -385 -145s-284.333 48.333 -385 145zM963 217.002
c74.667 76.667 111.999 171.667 111.999 285s-37.333 208.333 -112 285c-74.667 76 -172.334 114 -293.001 114c-120 0 -217.667 -38 -293 -114c-75.333 -77.333 -113 -172.333 -113 -285s37.667 -207.667 113 -285c74.667 -76.667 172.334 -115 293.001 -115
s218.334 38.333 293.001 115zM421.999 1251c-14.667 14 -21.999 32.5 -21.999 55.5s7.33301 41.833 22 56.5c14.667 14 35 21 61 21s46.667 -7 62 -21c15.333 -14.667 23 -33.5 23 -56.5s-7.66699 -41.5 -23 -55.5c-14.667 -14.667 -35.334 -22 -62.001 -22
c-26 0 -46.333 7.33301 -61 22zM795 1251c-15.333 14 -22.999 32.5 -22.999 55.5s7.66699 41.833 23 56.5c15.333 14 35.666 21 60.999 21c26.667 0 47.334 -7 62.001 -21c14.667 -14.667 22 -33.5 22 -56.5s-7.33301 -41.5 -22 -55.5
c-14.667 -14.667 -35.334 -22 -62.001 -22c-26 0 -46.333 7.33301 -61 22z" />
    <glyph glyph-name="divide" unicode="&#xf7;" horiz-adv-x="968" 
d="M102 580h764v-119h-764v119zM415 145c-18.667 16.667 -28 38.667 -28 66c0 28 9.33301 50.333 28 67c18 17.333 40.667 26 68 26s50.333 -8.66699 69 -26c18.667 -16.667 28 -39 28 -67c0 -27.333 -9.33301 -49.333 -28 -66s-41.667 -25 -69 -25s-50 8.33301 -68 25z
M415 763c-18.667 16.667 -28 38.667 -28 66c0 28 9.33301 50.333 28 67c18 17.333 40.667 26 68 26s50.333 -8.66699 69 -26c18.667 -16.667 28 -39 28 -67c0 -27.333 -9.33301 -49.333 -28 -66s-41.667 -25 -69 -25s-50 8.33301 -68 25z" />
    <glyph glyph-name="oslash" unicode="&#xf8;" horiz-adv-x="1331" 
d="M666 1024c84 0 160.666 -15 229.999 -45s117.333 -60 144 -90l41 -43l125 84l64 -92l-125 -84c38 -62.667 57 -146.667 57 -252c0 -154 -50.333 -279.333 -151 -376c-101.333 -97.333 -229.666 -146 -384.999 -146c-84 0 -160.667 15 -230 45
c-70 30.667 -118.333 60.667 -145 90l-41 43l-125 -84l-64 92l125 84c-38 62.667 -57 146.667 -57 252c0 154 50.667 279.667 152 377c100.667 96.667 229 145 385 145zM1071 502c0 64 -9.00098 116.332 -27.001 156.999l-10 21l-674 -451
c4.66699 -7.33301 21 -21.666 49 -42.999c18 -14.667 38 -27.667 60 -39c55.333 -30 121 -45 197 -45c120.667 0 218.334 38.333 293.001 115s112 171.667 112 285zM259.998 501.999c0 -59.333 8.99902 -112 26.999 -158l10 -20l674 450
c-5.33301 8.66699 -21.333 23.667 -48 45c-21.333 15.333 -41.666 28 -60.999 38c-56 29.333 -121.333 44 -196 44c-120 0 -217.667 -38 -293 -114c-75.333 -77.333 -113 -172.333 -113 -285z" />
    <glyph glyph-name="ugrave" unicode="&#xf9;" 
d="M174 1004l126.999 -0.00195312v-537c0 -126.667 32.667 -219.667 98 -279c65.333 -60 150.666 -90 255.999 -90c114.667 0 202.667 34.667 264 104c60.667 68.667 91 158.334 91 269.001v533h127v-1004h-127v158h-9c-7.33301 -16.667 -23.666 -37 -48.999 -61
c-19.333 -19.333 -43 -37.666 -71 -54.999s-65.5 -32 -112.5 -44s-95.5 -18 -145.5 -18c-129.333 0 -236.666 38.667 -321.999 116c-84.667 76.667 -127 192 -127 346v562zM259.999 1536h168l307 -328h-127z" />
    <glyph glyph-name="uacute" unicode="&#xfa;" 
d="M174 1004l126.999 -0.00195312v-537c0 -126.667 32.667 -219.667 98 -279c65.333 -60 150.666 -90 255.999 -90c114.667 0 202.667 34.667 264 104c60.667 68.667 91 158.334 91 269.001v533h127v-1004h-127v158h-9c-7.33301 -16.667 -23.666 -37 -48.999 -61
c-19.333 -19.333 -43 -37.666 -71 -54.999s-65.5 -32 -112.5 -44s-95.5 -18 -145.5 -18c-129.333 0 -236.666 38.667 -321.999 116c-84.667 76.667 -127 192 -127 346v562zM704.999 1208h-127l307 328h168z" />
    <glyph glyph-name="ucircumflex" unicode="&#xfb;" 
d="M174 1004l126.999 -0.00195312v-537c0 -126.667 32.667 -219.667 98 -279c65.333 -60 150.666 -90 255.999 -90c114.667 0 202.667 34.667 264 104c60.667 68.667 91 158.334 91 269.001v533h127v-1004h-127v158h-9c-7.33301 -16.667 -23.666 -37 -48.999 -61
c-19.333 -19.333 -43 -37.666 -71 -54.999s-65.5 -32 -112.5 -44s-95.5 -18 -145.5 -18c-129.333 0 -236.666 38.667 -321.999 116c-84.667 76.667 -127 192 -127 346v562zM1008 1208h-136l-217 260l-217 -260h-135l277 328h151z" />
    <glyph glyph-name="udieresis" unicode="&#xfc;" 
d="M174 1004l126.999 -0.00195312v-537c0 -126.667 32.667 -219.667 98 -279c65.333 -60 150.666 -90 255.999 -90c114.667 0 202.667 34.667 264 104c60.667 68.667 91 158.334 91 269.001v533h127v-1004h-127v158h-9c-7.33301 -16.667 -23.666 -37 -48.999 -61
c-19.333 -19.333 -43 -37.666 -71 -54.999s-65.5 -32 -112.5 -44s-95.5 -18 -145.5 -18c-129.333 0 -236.666 38.667 -321.999 116c-84.667 76.667 -127 192 -127 346v562zM407.999 1251c-14.667 14 -21.999 32.5 -21.999 55.5s7.33301 41.833 22 56.5
c14.667 14 35 21 61 21s46.667 -7 62 -21c15.333 -14.667 23 -33.5 23 -56.5s-7.66699 -41.5 -23 -55.5c-14.667 -14.667 -35.334 -22 -62.001 -22c-26 0 -46.333 7.33301 -61 22zM781 1251c-15.333 14 -22.999 32.5 -22.999 55.5s7.66699 41.833 23 56.5
c15.333 14 35.666 21 60.999 21c26.667 0 47.334 -7 62.001 -21c14.667 -14.667 22 -33.5 22 -56.5s-7.33301 -41.5 -22 -55.5c-14.667 -14.667 -35.334 -22 -62.001 -22c-26 0 -46.333 7.33301 -61 22z" />
    <glyph glyph-name="yacute" unicode="&#xfd;" horiz-adv-x="1095" 
d="M0 1004h137.001l412 -889h6l406 889h135l-486 -1055c-60.667 -131.333 -118 -227 -172 -287c-55.333 -61.333 -119.333 -92 -192 -92c-43.333 0 -78.333 5.33301 -105 16l-14 4v119c28 -13.333 67.667 -20 119 -20c41.333 0 79.666 20 114.999 60
c34.667 42 72.667 108.667 114 200l8 18zM608.001 1208h-127l307 328h168z" />
    <glyph glyph-name="thorn" unicode="&#xfe;" horiz-adv-x="1376" 
d="M717 1024c150.667 0 276.335 -48.668 377.002 -146.001c99.333 -98 149 -223.333 149 -376c0 -153.333 -49.667 -278.666 -149 -375.999c-100.667 -97.333 -226.334 -146 -377.001 -146c-174.667 -2.66699 -309.334 59.333 -404.001 186l-4 6h-8v-582h-127v1844h127v-603
h8l4 7c97.333 126 232 188 404 186zM1000 216.999c74.667 76.667 112 171.667 112 285s-37.333 208.333 -112 285c-74.667 76 -172.334 114 -293.001 114c-118.667 0 -216 -37 -292 -111c-76 -74.667 -114 -170.667 -114 -288s38 -213.333 114 -288
c74.667 -74.667 172 -112 292 -112c120.667 0 218.334 38.333 293.001 115z" />
    <glyph glyph-name="ydieresis" unicode="&#xff;" horiz-adv-x="1095" 
d="M0 1004h137.001l412 -889h6l406 889h135l-486 -1055c-60.667 -131.333 -118 -227 -172 -287c-55.333 -61.333 -119.333 -92 -192 -92c-43.333 0 -78.333 5.33301 -105 16l-14 4v119c28 -13.333 67.667 -20 119 -20c41.333 0 79.666 20 114.999 60
c34.667 42 72.667 108.667 114 200l8 18zM304.001 1251c-14.667 14 -22 32.5 -22 55.5s7.33301 41.833 22 56.5c14.667 14 35 21 61 21s46.333 -7 61 -21c15.333 -14.667 23 -33.5 23 -56.5s-7.66699 -41.5 -23 -55.5c-14.667 -14.667 -35 -22 -61 -22
s-46.333 7.33301 -61 22zM676.001 1251c-14.667 14 -21.999 32.5 -21.999 55.5s7.33301 41.833 22 56.5c14.667 14 35 21 61 21s46.667 -7 62 -21c15.333 -14.667 23 -33.5 23 -56.5s-7.66699 -41.5 -23 -55.5c-14.667 -14.667 -35.334 -22 -62.001 -22
c-26 0 -46.333 7.33301 -61 22z" />
    <glyph glyph-name="Amacron" unicode="&#x100;" horiz-adv-x="1443" 
d="M629 1434h186l588 -1434h-141l-142 344h-796l-142 -344h-141zM375 467h694l-344 848h-6zM995 1679h-544v103h544v-103z" />
    <glyph glyph-name="amacron" unicode="&#x101;" horiz-adv-x="1292" 
d="M123 274c0 97.333 44.002 171.665 132.002 222.998c87.333 50.667 197.666 76 330.999 76c70 0 137 -8.66699 201 -26c63.333 -18 108.333 -35 135 -51l43 -27v184c0 82 -31 144.667 -93 188c-62.667 42.667 -140.334 64 -233.001 64
c-90.667 0 -169.334 -18.667 -236.001 -56c-66.667 -36.667 -100 -82.667 -100 -138h-127c3.33301 82.667 44.333 155.334 123 218.001c79.333 63.333 191.333 95 336 95c130.667 0 239.334 -31.333 326.001 -94c87.333 -63.333 131 -155.666 131 -276.999v-424
c0 -48 7.5 -81.833 22.5 -101.5s40.167 -29.5 75.5 -29.5c22.667 0 41 2.66699 55 8l6 5v-111c-18.667 -9.33301 -46 -14 -82 -14c-63.333 0 -108.666 14.333 -135.999 43c-28 27.333 -44.667 49 -50 65l-2 12h-6c-4.66699 -8 -24.667 -22.333 -60 -43
c-24.667 -15.333 -50 -28.333 -76 -39c-64.667 -29.333 -146.334 -44 -245.001 -44c-138 0 -251 24 -339 72s-132 122 -132 222zM254.002 273.999c0 -117.333 118.668 -176 356.001 -176c70 0 135 10.333 195 31c59.333 20.667 98.666 37.667 117.999 51
c18 13.333 32 24.333 42 33v141c-4.66699 6 -17.667 15.667 -39 29c-24 14 -64.667 29.333 -122 46c-60 17.333 -124.667 26 -194 26c-140 0 -241 -24.333 -303 -73c-35.333 -28 -53 -64 -53 -108zM915.003 1260h-544v102h544v-102z" />
    <glyph glyph-name="Abreve" unicode="&#x102;" horiz-adv-x="1443" 
d="M629 1434h186l588 -1434h-141l-142 344h-796l-142 -344h-141zM375 467h694l-344 848h-6zM916 1682c-48 -36 -113.669 -54 -197.002 -54s-148.666 18 -195.999 54c-48 34.667 -72 85.667 -72 153v6h114v-4c0 -32 13.5 -57.667 40.5 -77s64.833 -29 113.5 -29
s86.334 9.66699 113.001 29s40 45 40 77v4h115v-6c0 -66.667 -23.667 -117.667 -71 -153z" />
    <glyph glyph-name="abreve" unicode="&#x103;" horiz-adv-x="1292" 
d="M123 274c0 97.333 44.002 171.665 132.002 222.998c87.333 50.667 197.666 76 330.999 76c70 0 137 -8.66699 201 -26c63.333 -18 108.333 -35 135 -51l43 -27v184c0 82 -31 144.667 -93 188c-62.667 42.667 -140.334 64 -233.001 64
c-90.667 0 -169.334 -18.667 -236.001 -56c-66.667 -36.667 -100 -82.667 -100 -138h-127c3.33301 82.667 44.333 155.334 123 218.001c79.333 63.333 191.333 95 336 95c130.667 0 239.334 -31.333 326.001 -94c87.333 -63.333 131 -155.666 131 -276.999v-424
c0 -48 7.5 -81.833 22.5 -101.5s40.167 -29.5 75.5 -29.5c22.667 0 41 2.66699 55 8l6 5v-111c-18.667 -9.33301 -46 -14 -82 -14c-63.333 0 -108.666 14.333 -135.999 43c-28 27.333 -44.667 49 -50 65l-2 12h-6c-4.66699 -8 -24.667 -22.333 -60 -43
c-24.667 -15.333 -50 -28.333 -76 -39c-64.667 -29.333 -146.334 -44 -245.001 -44c-138 0 -251 24 -339 72s-132 122 -132 222zM254.002 273.999c0 -117.333 118.668 -176 356.001 -176c70 0 135 10.333 195 31c59.333 20.667 98.666 37.667 117.999 51
c18 13.333 32 24.333 42 33v141c-4.66699 6 -17.667 15.667 -39 29c-24 14 -64.667 29.333 -122 46c-60 17.333 -124.667 26 -194 26c-140 0 -241 -24.333 -303 -73c-35.333 -28 -53 -64 -53 -108zM840.003 1272c-48.667 -35.333 -114.334 -53 -197.001 -53
c-83.333 0 -148.666 17.667 -195.999 53c-48 34.667 -72 85.667 -72 153v7h114v-5c0 -32 13.5 -57.667 40.5 -77s64.833 -29 113.5 -29s86.5 9.66699 113.5 29s40.5 45 40.5 77v5h114v-7c0 -66.667 -23.667 -117.667 -71 -153z" />
    <glyph glyph-name="Aogonek" unicode="&#x104;" horiz-adv-x="1443" 
d="M1413 -178l99.999 0.00195312c0 -48.667 -16.167 -87.167 -48.5 -115.5s-78.166 -42.5 -137.499 -42.5c-60.667 0 -106.834 13.5 -138.501 40.5s-47.5 64.167 -47.5 111.5c0 33.333 10 65.666 30 96.999c18.667 30.667 38.667 53 60 67l31 20l-142 344h-796l-142 -344
h-141l588 1434h186l588 -1434c-3.33301 0 -10.666 -3.33301 -21.999 -10s-26.5 -17.5 -45.5 -32.5s-37.167 -31.833 -54.5 -50.5c-28 -31.333 -42 -62.333 -42 -93c0 -18.667 8 -34 24 -46s37.333 -18 64 -18c27.333 0 48.5 6.66699 63.5 20s22.5 30.666 22.5 51.999z
M374.999 467.002h694l-344 848h-6z" />
    <glyph glyph-name="aogonek" unicode="&#x105;" horiz-adv-x="1292" 
d="M1262 -178l100.001 -0.000976562c0 -48.667 -16.167 -87.167 -48.5 -115.5s-78.166 -42.5 -137.499 -42.5c-60.667 0 -107 13.5 -139 40.5s-48 64.167 -48 111.5c0 33.333 9.33301 64.333 28 93c18.667 30 37.334 51.333 56.001 64l29 21
c-29.333 7.33301 -54.333 19.833 -75 37.5s-34 35.167 -40 52.5l-6 22h-6c-4.66699 -8 -24.667 -22.333 -60 -43c-24.667 -15.333 -50 -28.333 -76 -39c-64.667 -29.333 -146.334 -44 -245.001 -44c-138.667 0 -251.667 24.333 -339 73c-88 48 -132 121.667 -132 221
c0 97.333 44 171.666 132 222.999c87.333 50.667 197.666 76 330.999 76c70 0 137 -8.66699 201 -26c63.333 -18 108.333 -35 135 -51l43 -27v184c0 82 -31 144.667 -93 188c-62.667 42.667 -140.334 64 -233.001 64c-90.667 0 -169.334 -18.667 -236.001 -56
c-66.667 -36.667 -100 -82.667 -100 -138h-127c3.33301 82.667 44.333 155.334 123 218.001c79.333 63.333 191.333 95 336 95c130.667 0 239.334 -31.333 326.001 -94c87.333 -63.333 131 -155.666 131 -276.999v-424c0 -48 7.5 -81.833 22.5 -101.5
s40.167 -29.5 75.5 -29.5c22.667 0 41 2.66699 55 8l6 5v-111c-38 -17.333 -77.333 -47.666 -118 -90.999c-30.667 -31.333 -46 -63 -46 -95c0 -18.667 8.16699 -34 24.5 -46s37.833 -18 64.5 -18c27.333 0 48.5 6.66699 63.5 20s22.5 30.666 22.5 51.999zM254.001 273.999
c0 -117.333 118.668 -176 356.001 -176c70 0 135 10.333 195 31c59.333 20.667 98.666 37.667 117.999 51c18 13.333 32 24.333 42 33v141c-4.66699 6 -17.667 15.667 -39 29c-24 14 -64.667 29.333 -122 46c-60 17.333 -124.667 26 -194 26c-140 0 -241 -24.333 -303 -73
c-35.333 -28 -53 -64 -53 -108z" />
    <glyph glyph-name="Cacute" unicode="&#x106;" horiz-adv-x="1665" 
d="M336 187c-128.667 136.667 -193.003 313.332 -193.003 529.999c0 216 64.333 392.667 193 530c128 138 299.333 207 514 207c118.667 0 225 -22 319 -66c94.667 -45.333 166.334 -100 215.001 -164c48 -63.333 84.667 -125.5 110 -186.5s38 -115.5 38 -163.5h-135
c0 42 -22 102 -66 180c-26.667 46 -58.667 88.667 -96 128c-38 38.667 -90.667 72.667 -158 102c-67.333 28.667 -143 43 -227 43c-175.333 0 -313.333 -57.333 -414 -172c-102 -115.333 -153 -261.333 -153 -438s51 -322.667 153 -438
c101.333 -115.333 239.333 -173 414 -173c82.667 0 158.334 14.667 227.001 44c67.333 29.333 120 63.333 158 102c37.333 38.667 69.333 81.334 96 128.001c44 78 66 137.667 66 179h135c0 -48 -12.667 -102.5 -38 -163.5s-62 -122.833 -110 -185.5
c-49.333 -64 -121 -118.333 -215 -163c-93.333 -44.667 -199.666 -67 -318.999 -67c-214.667 0 -386 69 -514 207zM894.997 1618h-127l307 328h168z" />
    <glyph glyph-name="cacute" unicode="&#x107;" horiz-adv-x="1312" 
d="M283 125c-100 96.667 -150.001 222.328 -150.001 376.995s50 280.334 150 377.001c98.667 96.667 226.334 145 383.001 145c68 0 132.667 -10.167 194 -30.5s112.333 -47.166 153 -80.499c38.667 -32.667 72 -68 100 -106c51.333 -70 77 -134.333 77 -193h-133
c0 14.667 -7.16699 36.334 -21.5 65.001s-34.833 59.667 -61.5 93c-29.333 36 -70.666 66.333 -123.999 91c-56 25.333 -117.333 38 -184 38c-120 0 -217 -38 -291 -114c-74 -76.667 -111 -171.667 -111 -285s37 -208.333 111 -285c72.667 -76.667 169.667 -115 291 -115
c66.667 0 128 12.667 184 38c54 24.667 95.333 55.334 124 92.001c55.333 70 83 122.333 83 157h133c2 -38 -12.833 -85.667 -44.5 -143s-75.834 -109 -132.501 -155c-40.667 -33.333 -91.667 -60.166 -153 -80.499s-126 -30.5 -194 -30.5c-156 0 -283.667 48.333 -383 145z
M716.999 1207.99h-127l307 328h168z" />
    <glyph glyph-name="Ccircumflex" unicode="&#x108;" horiz-adv-x="1665" 
d="M336 187c-128.667 136.667 -193.003 313.332 -193.003 529.999c0 216 64.333 392.667 193 530c128 138 299.333 207 514 207c118.667 0 225 -22 319 -66c94.667 -45.333 166.334 -100 215.001 -164c48 -63.333 84.667 -125.5 110 -186.5s38 -115.5 38 -163.5h-135
c0 42 -22 102 -66 180c-26.667 46 -58.667 88.667 -96 128c-38 38.667 -90.667 72.667 -158 102c-67.333 28.667 -143 43 -227 43c-175.333 0 -313.333 -57.333 -414 -172c-102 -115.333 -153 -261.333 -153 -438s51 -322.667 153 -438
c101.333 -115.333 239.333 -173 414 -173c82.667 0 158.334 14.667 227.001 44c67.333 29.333 120 63.333 158 102c37.333 38.667 69.333 81.334 96 128.001c44 78 66 137.667 66 179h135c0 -48 -12.667 -102.5 -38 -163.5s-62 -122.833 -110 -185.5
c-49.333 -64 -121 -118.333 -215 -163c-93.333 -44.667 -199.666 -67 -318.999 -67c-214.667 0 -386 69 -514 207zM1190 1616h-135l-217 260l-217 -260h-136l277 328h151z" />
    <glyph glyph-name="ccircumflex" unicode="&#x109;" horiz-adv-x="1312" 
d="M283 125c-100 96.667 -150.001 222.328 -150.001 376.995s50 280.334 150 377.001c98.667 96.667 226.334 145 383.001 145c68 0 132.667 -10.167 194 -30.5s112.333 -47.166 153 -80.499c38.667 -32.667 72 -68 100 -106c51.333 -70 77 -134.333 77 -193h-133
c0 14.667 -7.16699 36.334 -21.5 65.001s-34.833 59.667 -61.5 93c-29.333 36 -70.666 66.333 -123.999 91c-56 25.333 -117.333 38 -184 38c-120 0 -217 -38 -291 -114c-74 -76.667 -111 -171.667 -111 -285s37 -208.333 111 -285c72.667 -76.667 169.667 -115 291 -115
c66.667 0 128 12.667 184 38c54 24.667 95.333 55.334 124 92.001c55.333 70 83 122.333 83 157h133c2 -38 -12.833 -85.667 -44.5 -143s-75.834 -109 -132.501 -155c-40.667 -33.333 -91.667 -60.166 -153 -80.499s-126 -30.5 -194 -30.5c-156 0 -283.667 48.333 -383 145z
M1014 1207.99h-135l-217 260l-218 -260h-135l277 328h151z" />
    <glyph glyph-name="Ccaron" unicode="&#x10c;" horiz-adv-x="1665" 
d="M336 187c-128.667 136.667 -193.003 313.332 -193.003 529.999c0 216 64.333 392.667 193 530c128 138 299.333 207 514 207c118.667 0 225 -22 319 -66c94.667 -45.333 166.334 -100 215.001 -164c48 -63.333 84.667 -125.5 110 -186.5s38 -115.5 38 -163.5h-135
c0 42 -22 102 -66 180c-26.667 46 -58.667 88.667 -96 128c-38 38.667 -90.667 72.667 -158 102c-67.333 28.667 -143 43 -227 43c-175.333 0 -313.333 -57.333 -414 -172c-102 -115.333 -153 -261.333 -153 -438s51 -322.667 153 -438
c101.333 -115.333 239.333 -173 414 -173c82.667 0 158.334 14.667 227.001 44c67.333 29.333 120 63.333 158 102c37.333 38.667 69.333 81.334 96 128.001c44 78 66 137.667 66 179h135c0 -48 -12.667 -102.5 -38 -163.5s-62 -122.833 -110 -185.5
c-49.333 -64 -121 -118.333 -215 -163c-93.333 -44.667 -199.666 -67 -318.999 -67c-214.667 0 -386 69 -514 207zM620.997 1946l217 -260l217 260h135l-277 -328h-151l-277 328h136z" />
    <glyph glyph-name="ccaron" unicode="&#x10d;" horiz-adv-x="1312" 
d="M283 125c-100 96.667 -150.001 222.328 -150.001 376.995s50 280.334 150 377.001c98.667 96.667 226.334 145 383.001 145c68 0 132.667 -10.167 194 -30.5s112.333 -47.166 153 -80.499c38.667 -32.667 72 -68 100 -106c51.333 -70 77 -134.333 77 -193h-133
c0 14.667 -7.16699 36.334 -21.5 65.001s-34.833 59.667 -61.5 93c-29.333 36 -70.666 66.333 -123.999 91c-56 25.333 -117.333 38 -184 38c-120 0 -217 -38 -291 -114c-74 -76.667 -111 -171.667 -111 -285s37 -208.333 111 -285c72.667 -76.667 169.667 -115 291 -115
c66.667 0 128 12.667 184 38c54 24.667 95.333 55.334 124 92.001c55.333 70 83 122.333 83 157h133c2 -38 -12.833 -85.667 -44.5 -143s-75.834 -109 -132.501 -155c-40.667 -33.333 -91.667 -60.166 -153 -80.499s-126 -30.5 -194 -30.5c-156 0 -283.667 48.333 -383 145z
M443.999 1535.99l218 -260l217 260h135l-277 -328h-151l-277 328h135z" />
    <glyph glyph-name="Dcaron" unicode="&#x10e;" horiz-adv-x="1568" 
d="M205 1434l516 0.000976562c212.667 0 383.334 -67.333 512.001 -202c128 -134.667 192 -306.334 192 -515.001c0 -209.333 -64 -381 -192 -515c-128.667 -134.667 -299.334 -202 -512.001 -202h-516v1434zM1134 291.001c101.333 112.667 152 254.667 152 426
s-50.667 313.333 -152 426c-102 112 -239.667 168 -413 168h-381v-1188h381c173.333 0 311 56 413 168zM481 1946l217 -260l217 260h136l-277 -328h-151l-277 328h135z" />
    <glyph glyph-name="dcaron" unicode="&#x10f;" horiz-adv-x="1423" 
d="M659 -20c-151.333 0 -276.664 48.6689 -375.997 146.002c-100 97.333 -150 222.666 -150 375.999c0 152.667 50 278 150 376c99.333 97.333 224.666 146 375.999 146c170 2 303.333 -58.333 400 -181c1.33301 -1.33301 2.16602 -2.33301 2.49902 -3
s0.833008 -1.33398 1.5 -2.00098l4 -7h8v603h127v-1434h-127v172h-8l-4 -6c-98.667 -126.667 -233.334 -188.667 -404.001 -186zM377.002 787.002c-75.333 -77.333 -113 -172.333 -113 -285s37.667 -207.667 113 -285c74.667 -76.667 172.334 -115 293.001 -115
c119.333 0 216.666 37.333 291.999 112c75.333 75.333 113 171.333 113 288s-37.667 212.667 -113 288c-76 74 -173.333 111 -292 111c-120 0 -217.667 -38 -293 -114zM1413 1112l0.000976562 160.001c0 23.333 -11 40 -33 50c-22.667 10 -34 31.333 -34 64
c0 19.333 7.5 35.5 22.5 48.5s33.167 19.5 54.5 19.5c54.667 0 82 -33.333 82 -100c0 -44.667 -5.83301 -86.834 -17.5 -126.501s-24.834 -69.167 -39.501 -88.5c-14 -18 -25.667 -27 -35 -27z" />
    <glyph glyph-name="Dcroat" unicode="&#x110;" horiz-adv-x="1626" 
d="M262 1434l515.999 0.000976562c212.667 0 383.334 -67.333 512.001 -202s193 -306.334 193 -515.001c0 -209.333 -64 -381 -192 -515c-128.667 -134.667 -299.667 -202 -513 -202h-516v676h-221v123h221v635zM1191 291.001c101.333 112.667 152 254.667 152 426
s-50.667 313.333 -152 426c-102 112 -239.667 168 -413 168h-381v-512h332v-123h-332v-553h381c173.333 0 311 56 413 168z" />
    <glyph glyph-name="dslash" unicode="&#x111;" horiz-adv-x="1392" 
d="M273 112c-93.333 88 -139.999 202.33 -139.999 342.997s47 254.667 141 342c93.333 87.333 212.333 131 357 131c52.667 0 102.667 -5.66699 150 -17s85.666 -25.666 114.999 -42.999c58.667 -35.333 98 -66.666 118 -93.999l12 -18h6v381h-403v118h403v179h127v-179h264
v-118h-264v-1137h-127v152h-6c-10.667 -16.667 -29.334 -37 -56.001 -61c-22 -19.333 -47 -36.666 -75 -51.999c-30 -16.667 -68.667 -30.667 -116 -42s-96.666 -17 -147.999 -17c-146 0 -265.333 44 -358 132zM367.001 708.997
c-68.667 -66.667 -103 -151.332 -103 -253.999c0 -103.333 34.333 -188.333 103 -255c68 -68 160.667 -102 278 -102c115.333 0 208.333 33.667 279 101c69.333 67.333 105.333 152.666 108 255.999c-2.66699 102 -38.667 186.667 -108 254
c-69.333 66.667 -162.333 100 -279 100c-118 0 -210.667 -33.333 -278 -100z" />
    <glyph glyph-name="Emacron" unicode="&#x112;" horiz-adv-x="1372" 
d="M1239 0h-1034v1434h1034v-123h-899v-514h782v-123h-782v-551h899v-123zM1012 1679h-545v103h545v-103z" />
    <glyph glyph-name="emacron" unicode="&#x113;" horiz-adv-x="1339" 
d="M1206 502l-5.99707 -77.999h-930c0 -30.667 16.667 -74 50 -130c19.333 -32.667 42.666 -62.667 69.999 -90c29.333 -29.333 69.333 -53.666 120 -72.999s105.334 -29 164.001 -29c42.667 0 83.667 5 123 15s71.666 23 96.999 39c49.333 30.667 81.666 58 96.999 82
l13 16h153c-4 -10 -8.66699 -19.667 -14 -29c-8 -14.667 -25 -37 -51 -67c-28 -32 -58 -59.667 -90 -83c-34 -24.667 -80 -46.334 -138 -65.001c-58.667 -20 -122 -30 -190 -30c-158.667 0 -288.334 48.333 -389.001 145c-101.333 97.333 -152 223 -152 377
s50.667 279.667 152 377c100.667 96.667 229 145 385 145s284.333 -48.333 385 -145s151 -222.334 151 -377.001zM266.003 543.001h807c0 81.333 -35.333 161.333 -106 240s-169.667 118 -297 118s-226.333 -39.333 -297 -118c-71.333 -79.333 -107 -159.333 -107 -240z
M942.003 1260h-545v102h545v-102z" />
    <glyph glyph-name="Edotaccent" unicode="&#x116;" horiz-adv-x="1372" 
d="M1239 0h-1034v1434h1034v-123h-899v-514h782v-123h-782v-551h899v-123zM687 1671c-15.333 14 -22.998 32.5 -22.998 55.5s7.66699 41.833 23 56.5c15.333 14 35.666 21 60.999 21s45.666 -7 60.999 -21c15.333 -14.667 23 -33.5 23 -56.5s-7.66699 -41.5 -23 -55.5
c-14.667 -14.667 -35 -22 -61 -22s-46.333 7.33301 -61 22z" />
    <glyph glyph-name="edotaccent" unicode="&#x117;" horiz-adv-x="1339" 
d="M1206 502l-5.99707 -77.999h-930c0 -30.667 16.667 -74 50 -130c19.333 -32.667 42.666 -62.667 69.999 -90c29.333 -29.333 69.333 -53.666 120 -72.999s105.334 -29 164.001 -29c42.667 0 83.667 5 123 15s71.666 23 96.999 39c49.333 30.667 81.666 58 96.999 82
l13 16h153c-4 -10 -8.66699 -19.667 -14 -29c-8 -14.667 -25 -37 -51 -67c-28 -32 -58 -59.667 -90 -83c-34 -24.667 -80 -46.334 -138 -65.001c-58.667 -20 -122 -30 -190 -30c-158.667 0 -288.334 48.333 -389.001 145c-101.333 97.333 -152 223 -152 377
s50.667 279.667 152 377c100.667 96.667 229 145 385 145s284.333 -48.333 385 -145s151 -222.334 151 -377.001zM266.003 543.001h807c0 81.333 -35.333 161.333 -106 240s-169.667 118 -297 118s-226.333 -39.333 -297 -118c-71.333 -79.333 -107 -159.333 -107 -240z
M609.003 1251c-15.333 14 -22.999 32.5 -22.999 55.5s7.66699 41.833 23 56.5c15.333 14 35.666 21 60.999 21c26.667 0 47.334 -7 62.001 -21c14.667 -14.667 22 -33.5 22 -56.5s-7.33301 -41.5 -22 -55.5c-14.667 -14.667 -35.334 -22 -62.001 -22
c-26 0 -46.333 7.33301 -61 22z" />
    <glyph glyph-name="Eogonek" unicode="&#x118;" horiz-adv-x="1372" 
d="M1100 0l-894.999 0.000976562v1434h1034v-123h-899v-514h782v-123h-782v-551h899v-123c-39.333 -18 -79 -48.333 -119 -91c-30 -32 -45 -63.667 -45 -95c0 -18.667 8 -34 24 -46s37.333 -18 64 -18c27.333 0 48.5 6.66699 63.5 20s22.5 30.666 22.5 51.999h101
c0 -48.667 -16.333 -87.167 -49 -115.5s-78.667 -42.5 -138 -42.5c-60.667 0 -106.834 13.5 -138.501 40.5s-47.5 64.167 -47.5 111.5c0 34 10.333 66.333 31 97c20 30.667 40.333 53 61 67z" />
    <glyph glyph-name="eogonek" unicode="&#x119;" horiz-adv-x="1339" 
d="M782 -178l101.003 0.00488281c0 -48.667 -16.333 -87.167 -49 -115.5s-78.667 -42.5 -138 -42.5c-60.667 0 -106.834 13.5 -138.501 40.5s-47.5 64.167 -47.5 111.5c0 61.333 32 117.333 96 168c-140 12.667 -254 67 -342 163c-87.333 95.333 -131 213.666 -131 354.999
c0 154 50.667 279.667 152 377c100.667 96.667 229 145 385 145s284.333 -48.333 385 -145s151 -222.334 151 -377.001l-6 -78h-930c0 -30.667 16.667 -74 50 -130c19.333 -32.667 42.666 -62.667 69.999 -90c29.333 -29.333 69.333 -53.666 120 -72.999
s105.334 -29 164.001 -29c42.667 0 83.667 5 123 15s71.666 23 96.999 39c49.333 30.667 81.666 58 96.999 82l13 16h153c-2.66699 -6.66699 -7 -15.334 -13 -26.001c-5.33301 -9.33301 -20 -29.333 -44 -60c-21.333 -27.333 -47.333 -53 -78 -77
c-30 -23.333 -69.667 -45.333 -119 -66c-52 -22.667 -106 -36.334 -162 -41.001c-88.667 -54.667 -133 -111.334 -133 -170.001c0 -18.667 8 -34 24 -46s37.333 -18 64 -18c27.333 0 48.5 6.66699 63.5 20s22.5 30.666 22.5 51.999zM266.003 543.005h807
c0 81.333 -35.333 161.333 -106 240s-169.667 118 -297 118s-226.333 -39.333 -297 -118c-71.333 -79.333 -107 -159.333 -107 -240z" />
    <glyph glyph-name="Ecaron" unicode="&#x11a;" horiz-adv-x="1372" 
d="M1239 0h-1034v1434h1034v-123h-899v-514h782v-123h-782v-551h899v-123zM516 1946l217 -260l217 260h135l-276 -328h-152l-276 328h135z" />
    <glyph glyph-name="ecaron" unicode="&#x11b;" horiz-adv-x="1339" 
d="M1206 502l-5.99707 -77.999h-930c0 -30.667 16.667 -74 50 -130c19.333 -32.667 42.666 -62.667 69.999 -90c29.333 -29.333 69.333 -53.666 120 -72.999s105.334 -29 164.001 -29c42.667 0 83.667 5 123 15s71.666 23 96.999 39c49.333 30.667 81.666 58 96.999 82
l13 16h153c-4 -10 -8.66699 -19.667 -14 -29c-8 -14.667 -25 -37 -51 -67c-28 -32 -58 -59.667 -90 -83c-34 -24.667 -80 -46.334 -138 -65.001c-58.667 -20 -122 -30 -190 -30c-158.667 0 -288.334 48.333 -389.001 145c-101.333 97.333 -152 223 -152 377
s50.667 279.667 152 377c100.667 96.667 229 145 385 145s284.333 -48.333 385 -145s151 -222.334 151 -377.001zM266.003 543.001h807c0 81.333 -35.333 161.333 -106 240s-169.667 118 -297 118s-226.333 -39.333 -297 -118c-71.333 -79.333 -107 -159.333 -107 -240z
M453.003 1536l217 -260l217 260h135l-277 -328h-151l-277 328h136z" />
    <glyph glyph-name="Gbreve" unicode="&#x11e;" horiz-adv-x="1718" 
d="M1534 0l-131.001 -0.00292969v311h-6c-4.66699 -14 -9.33398 -25.667 -14.001 -35c-5.33301 -12 -23.666 -38.333 -54.999 -79c-28 -38 -61.333 -72 -100 -102c-39.333 -30 -93 -56.333 -161 -79c-68.667 -24 -144.334 -36 -227.001 -36c-208.667 0 -377 69 -505 207
c-128 137.333 -192 314 -192 530s64.333 392.667 193 530c128 138 299.333 207 514 207c110.667 0 210 -19 298 -57c87.333 -38.667 154.666 -84.667 201.999 -138c44.667 -52.667 82.334 -106.167 113.001 -160.5s50.334 -101.166 59.001 -140.499l12 -57h-141l-2 4
c-4 16.667 -10.333 38.334 -19 65.001c-8 21.333 -26 55.333 -54 102c-28.667 48 -60.667 88.667 -96 122c-37.333 34.667 -88.333 65.334 -153 92.001c-66 27.333 -139 41 -219 41c-175.333 0 -313.333 -57.333 -414 -172c-102 -115.333 -153 -261.333 -153 -438
c0 -176 50.667 -321.667 152 -437c100.667 -116 235.667 -174 405 -174c84 0 160 15.667 228 47c68.667 32 121.334 68.667 158.001 110c37.333 42 68.333 88 93 138c40.667 82 61 147.667 61 197h-522v123h676v-721zM1035 1682c-48 -36 -113.667 -54 -197 -54
s-149 18 -197 54c-48 34.667 -72 85.667 -72 153v6h115v-4c0 -32 13.667 -57.667 41 -77s65 -29 113 -29s85.5 9.66699 112.5 29s40.5 45 40.5 77v4h115v-6c0 -66.667 -23.667 -117.667 -71 -153z" />
    <glyph glyph-name="gbreve" unicode="&#x11f;" horiz-adv-x="1146" 
d="M119 694c0 104 40 185 120 243c79.333 58 184 87 314 87h553v-123h-219v-6c7.33301 -4 16.333 -10 27 -18c10 -8 24.667 -29.333 44 -64c18 -34 27 -73.667 27 -119c0 -102.667 -40 -182.334 -120 -239.001c-80.667 -57.333 -184.667 -86 -312 -86
c-180 0 -270 -33 -270 -99c0 -33.333 25.667 -58.666 77 -75.999c52 -17.333 116.333 -26 193 -26c146 0 264.333 -27.333 355 -82s136 -127 136 -217c0 -91.333 -45 -164 -135 -218s-208.667 -81 -356 -81c-146.667 0 -265.334 26.667 -356.001 80
c-90.667 52.667 -136 125.667 -136 219c0 33.333 7 65.333 21 96s32 55.667 54 75c46 40 85.333 65.667 118 77l20 8v4c-0.666992 0 -5.16699 1.33301 -13.5 4s-15.166 5 -20.499 7c-14.667 5.33301 -32.667 20 -54 44c-22.667 24.667 -34 53.334 -34 86.001
c0 32 12 60.667 36 86c21.333 23.333 44.666 40 69.999 50l37 14v4c-19.333 7.33301 -39.333 18.666 -60 33.999c-21.333 14.667 -39 31 -53 49c-17.333 20 -32.166 46.833 -44.499 80.5s-18.5 69.167 -18.5 106.5zM913 -131c0 51.333 -32.999 93.667 -98.999 127
c-65.333 32.667 -152.333 49 -261 49c-110.667 0 -198.334 -16.333 -263.001 -49s-97 -75 -97 -127c0 -54.667 32.667 -97.667 98 -129c66 -31.333 153.333 -47 262 -47c108 0 195 16 261 48s99 74.667 99 128zM771.001 543.001c55.333 34 82.999 84.666 82.999 151.999
c0 66.667 -27.667 117.667 -83 153s-128 53 -218 53c-91.333 0 -164.666 -17.667 -219.999 -53s-83 -86.666 -83 -153.999c0 -64.667 27 -114.5 81 -149.5s128 -52.5 222 -52.5c90 0 162.667 17 218 51zM744 1272c-48.667 -35.333 -114.335 -53 -197.002 -53
c-83.333 0 -148.666 17.667 -195.999 53c-48 34.667 -72 85.667 -72 153v7h114v-5c0 -32 13.5 -57.667 40.5 -77s64.833 -29 113.5 -29s86.334 9.66699 113.001 29s40 45 40 77v5h115v-7c0 -66.667 -23.667 -117.667 -71 -153z" />
    <glyph glyph-name="uni0122" unicode="&#x122;" horiz-adv-x="1718" 
d="M1534 0l-131.001 -0.00292969v311h-6c-4.66699 -14 -9.33398 -25.667 -14.001 -35c-5.33301 -12 -23.666 -38.333 -54.999 -79c-28 -38 -61.333 -72 -100 -102c-39.333 -30 -93 -56.333 -161 -79c-68.667 -24 -144.334 -36 -227.001 -36c-208.667 0 -377 69 -505 207
c-128 137.333 -192 314 -192 530s64.333 392.667 193 530c128 138 299.333 207 514 207c110.667 0 210 -19 298 -57c87.333 -38.667 154.666 -84.667 201.999 -138c44.667 -52.667 82.334 -106.167 113.001 -160.5s50.334 -101.166 59.001 -140.499l12 -57h-141l-2 4
c-4 16.667 -10.333 38.334 -19 65.001c-8 21.333 -26 55.333 -54 102c-28.667 48 -60.667 88.667 -96 122c-37.333 34.667 -88.333 65.334 -153 92.001c-66 27.333 -139 41 -219 41c-175.333 0 -313.333 -57.333 -414 -172c-102 -115.333 -153 -261.333 -153 -438
c0 -176 50.667 -321.667 152 -437c100.667 -116 235.667 -174 405 -174c84 0 160 15.667 228 47c68.667 32 121.334 68.667 158.001 110c37.333 42 68.333 88 93 138c40.667 82 61 147.667 61 197h-522v123h676v-721zM843.999 -547.003l-0.000976562 160.001
c0 23.333 -11.333 40 -34 50s-34 31.667 -34 65c0 19.333 7.5 35.333 22.5 48s33.5 19 55.5 19c54.667 0 82 -33.333 82 -100c0 -44.667 -5.66699 -86.834 -17 -126.501s-24.666 -69.5 -39.999 -89.5c-14 -17.333 -25.667 -26 -35 -26z" />
    <glyph glyph-name="uni0123" unicode="&#x123;" horiz-adv-x="1146" 
d="M119 694c0 104 40 185 120 243c79.333 58 184 87 314 87h553v-123h-219v-6c7.33301 -4 16.333 -10 27 -18c10 -8 24.667 -29.333 44 -64c18 -34 27 -73.667 27 -119c0 -102.667 -40 -182.334 -120 -239.001c-80.667 -57.333 -184.667 -86 -312 -86
c-180 0 -270 -33 -270 -99c0 -33.333 25.667 -58.666 77 -75.999c52 -17.333 116.333 -26 193 -26c146 0 264.333 -27.333 355 -82s136 -127 136 -217c0 -91.333 -45 -164 -135 -218s-208.667 -81 -356 -81c-146.667 0 -265.334 26.667 -356.001 80
c-90.667 52.667 -136 125.667 -136 219c0 33.333 7 65.333 21 96s32 55.667 54 75c46 40 85.333 65.667 118 77l20 8v4c-0.666992 0 -5.16699 1.33301 -13.5 4s-15.166 5 -20.499 7c-14.667 5.33301 -32.667 20 -54 44c-22.667 24.667 -34 53.334 -34 86.001
c0 32 12 60.667 36 86c21.333 23.333 44.666 40 69.999 50l37 14v4c-19.333 7.33301 -39.333 18.666 -60 33.999c-21.333 14.667 -39 31 -53 49c-17.333 20 -32.166 46.833 -44.499 80.5s-18.5 69.167 -18.5 106.5zM913 -131c0 51.333 -32.999 93.667 -98.999 127
c-65.333 32.667 -152.333 49 -261 49c-110.667 0 -198.334 -16.333 -263.001 -49s-97 -75 -97 -127c0 -54.667 32.667 -97.667 98 -129c66 -31.333 153.333 -47 262 -47c108 0 195 16 261 48s99 74.667 99 128zM771.001 543.001c55.333 34 82.999 84.666 82.999 151.999
c0 66.667 -27.667 117.667 -83 153s-128 53 -218 53c-91.333 0 -164.666 -17.667 -219.999 -53s-83 -86.666 -83 -153.999c0 -64.667 27 -114.5 81 -149.5s128 -52.5 222 -52.5c90 0 162.667 17 218 51zM582 1550v-159c0 -23.333 11.333 -40 34 -50
c22 -11.333 33 -33 33 -65c0 -19.333 -7.5 -35.5 -22.5 -48.5s-33.5 -19.5 -55.5 -19.5c-54.667 0 -82 33.667 -82 101c0 44.667 5.83301 86.667 17.5 126s25.167 69 40.5 89c14 17.333 25.667 26 35 26z" />
    <glyph glyph-name="Imacron" unicode="&#x12a;" horiz-adv-x="1159" 
d="M123 1434h913v-123h-389v-1188h389v-123h-913v123h389v1188h-389v123zM852 1679h-545v103h545v-103z" />
    <glyph glyph-name="imacron" unicode="&#x12b;" horiz-adv-x="475" 
d="M510 1260h-545v102h545v-102zM174 1004h127v-1004h-127v1004z" />
    <glyph glyph-name="Iogonek" unicode="&#x12e;" horiz-adv-x="1159" 
d="M1047 -178h99.999c0 -48.667 -16.167 -87.167 -48.5 -115.5s-78.166 -42.5 -137.499 -42.5c-60.667 0 -107 13.5 -139 40.5s-48 64.167 -48 111.5c0 34 10.333 66.333 31 97s41 53 61 67l31 20h-774v123h389v1188h-389v123h913v-123h-389v-1188h389v-123
c-38 -17.333 -77.333 -47.666 -118 -90.999c-30.667 -31.333 -46 -63 -46 -95c0 -18.667 8.16699 -34 24.5 -46s37.833 -18 64.5 -18c27.333 0 48.5 6.66699 63.5 20s22.5 30.666 22.5 51.999z" />
    <glyph glyph-name="iogonek" unicode="&#x12f;" horiz-adv-x="475" 
d="M311 -178l101.001 0.000976562c0 -48.667 -16.333 -87.167 -49 -115.5s-78.667 -42.5 -138 -42.5c-60.667 0 -106.834 13.5 -138.501 40.5s-47.5 64.167 -47.5 111.5c0 35.333 11.333 69.333 34 102c22 33.333 44 57.333 66 72l35 22v992h127v-1004
c-39.333 -18 -79 -48.333 -119 -91c-30 -32 -45 -63.667 -45 -95c0 -18.667 8 -34 24 -46s37.333 -18 64 -18c27.333 0 48.5 6.66699 63.5 20s22.5 30.666 22.5 51.999zM177.001 1320c-15.333 14 -22.998 32.667 -22.998 56s7.66699 42.333 23 57
c15.333 14 35.666 21 60.999 21s45.666 -7 60.999 -21c15.333 -14.667 23 -33.667 23 -57s-7.66699 -42 -23 -56c-14.667 -14.667 -35 -22 -61 -22s-46.333 7.33301 -61 22z" />
    <glyph glyph-name="Idot" unicode="&#x130;" horiz-adv-x="1159" 
d="M123 1434h913v-123h-389v-1188h389v-123h-913v123h389v1188h-389v123zM519 1671c-15.333 14 -22.998 32.5 -22.998 55.5s7.66699 41.833 23 56.5c15.333 14 35.666 21 60.999 21s45.666 -7 60.999 -21c15.333 -14.667 23 -33.5 23 -56.5s-7.66699 -41.5 -23 -55.5
c-14.667 -14.667 -35 -22 -61 -22s-46.333 7.33301 -61 22z" />
    <glyph glyph-name="dotlessi" unicode="&#x131;" horiz-adv-x="475" 
d="M174 1004h127v-1004h-127v1004z" />
    <glyph glyph-name="uni0136" unicode="&#x136;" horiz-adv-x="1314" 
d="M1305 0h-177l-788 715v-715h-135v1434h135v-699l733 699h174l-729 -709zM715 -547l-0.000976562 160.001c0 23.333 -11.333 40 -34 50s-34 31.667 -34 65c0 19.333 7.5 35.333 22.5 48s33.5 19 55.5 19c54.667 0 82 -33.333 82 -100
c0 -44.667 -5.66699 -86.834 -17 -126.501s-24.666 -69.5 -39.999 -89.5c-14 -17.333 -25.667 -26 -35 -26z" />
    <glyph glyph-name="uni0137" unicode="&#x137;" horiz-adv-x="1093" 
d="M1094 0h-170l-623 512v-512h-127v1434h127v-914l582 484h170l-582 -488zM614 -547v160.001c0 23.333 -11 40 -33 50c-22.667 10 -34 31.667 -34 65c0 19.333 7.5 35.333 22.5 48s33.5 19 55.5 19c54.667 0 82 -33.333 82 -100c0 -44.667 -5.83301 -86.834 -17.5 -126.501
s-25.167 -69.5 -40.5 -89.5c-14 -17.333 -25.667 -26 -35 -26z" />
    <glyph glyph-name="Lacute" unicode="&#x139;" horiz-adv-x="1286" 
d="M340 123h905v-123h-1040v1434h135v-1311zM336 1618h-127l307 328h168z" />
    <glyph glyph-name="lacute" unicode="&#x13a;" horiz-adv-x="475" 
d="M174 1434h127v-1434h-127v1434zM303 1618h-127l307 328h168z" />
    <glyph glyph-name="uni013B" unicode="&#x13b;" horiz-adv-x="1286" 
d="M340 123h905v-123h-1040v1434h135v-1311zM739 -547l-0.000976562 159.999c0 23.333 -11 40 -33 50c-22.667 10 -34 31.667 -34 65c0 19.333 7.5 35.333 22.5 48s33.5 19 55.5 19c54.667 0 81.667 -33.333 81 -100c0 -45.333 -5.66699 -87.666 -17 -126.999
s-24.666 -69 -39.999 -89c-14 -17.333 -25.667 -26 -35 -26z" />
    <glyph glyph-name="uni013C" unicode="&#x13c;" horiz-adv-x="475" 
d="M174 1434h127v-1434h-127v1434zM227 -547l-0.000976562 159.999c0 23.333 -11 40 -33 50c-22.667 10 -34 31.667 -34 65c0 19.333 7.5 35.333 22.5 48s33.5 19 55.5 19c54.667 0 81.667 -33.333 81 -100c0 -45.333 -5.66699 -87.666 -17 -126.999
s-24.666 -69 -39.999 -89c-14 -17.333 -25.667 -26 -35 -26z" />
    <glyph glyph-name="Lcaron" unicode="&#x13d;" horiz-adv-x="1286" 
d="M340 123h905v-123h-1040v1434h135v-1311zM571 1112v159.998c0 23.333 -11 40 -33 50c-22.667 10 -34 31.333 -34 64c0 19.333 7.5 35.5 22.5 48.5s33.5 19.5 55.5 19.5c54.667 0 82 -33.333 82 -100c0 -45.333 -5.83301 -87.666 -17.5 -126.999
s-25.167 -68.666 -40.5 -87.999c-14 -18 -25.667 -27 -35 -27z" />
    <glyph glyph-name="lcaron" unicode="&#x13e;" horiz-adv-x="522" 
d="M174 1434h127v-1434h-127v1434zM512 1112l0.000976562 160.001c0 23.333 -11.333 40 -34 50s-34 31.333 -34 64c0 19.333 7.5 35.5 22.5 48.5s33.5 19.5 55.5 19.5c54.667 0 82 -33.333 82 -100c0 -44.667 -5.83301 -86.834 -17.5 -126.501
s-24.834 -69.167 -39.501 -88.5c-14 -18 -25.667 -27 -35 -27z" />
    <glyph glyph-name="Lslash" unicode="&#x141;" horiz-adv-x="1331" 
d="M252 561l-201 -102v129l201 102v744h135v-676l313 160v-130l-313 -159v-506h903v-123h-1038v561z" />
    <glyph glyph-name="lslash" unicode="&#x142;" horiz-adv-x="591" 
d="M225 584l-194 -97v119l194 96v732h127v-668l209 106v-118l-209 -107v-647h-127v584z" />
    <glyph glyph-name="Nacute" unicode="&#x143;" horiz-adv-x="1611" 
d="M1407 0h-211l-852 1286h-4v-1286h-135v1434h213l850 -1287h4v1287h135v-1434zM877 1618h-127l307 328h168z" />
    <glyph glyph-name="nacute" unicode="&#x144;" horiz-adv-x="1300" 
d="M1137 0l-126.999 -0.000976562v537c0 127.333 -32.333 220.333 -97 279c-65.333 59.333 -151.333 89 -258 89c-114.667 0 -202.334 -34.333 -263.001 -103s-91 -158.667 -91 -270v-532h-127v1004h127v-158h8c6.66699 14.667 23.667 35.334 51 62.001
c21.333 20.667 44.666 38.667 69.999 54c28.667 17.333 66.334 32 113.001 44s95 18 145 18c130 0 237.333 -38.333 322 -115s127 -192.667 127 -348v-561zM705.001 1208h-127l307 328h168z" />
    <glyph glyph-name="uni0145" unicode="&#x145;" horiz-adv-x="1611" 
d="M1407 0h-211l-852 1286h-4v-1286h-135v1434h213l850 -1287h4v1287h135v-1434zM825 -547v160.001c0 23.333 -11 40 -33 50c-22.667 10 -34 31.667 -34 65c0 19.333 7.5 35.333 22.5 48s33.5 19 55.5 19c54.667 0 82 -33.333 82 -100
c0 -44.667 -5.83301 -86.834 -17.5 -126.501s-25.167 -69.5 -40.5 -89.5c-14 -17.333 -25.667 -26 -35 -26z" />
    <glyph glyph-name="uni0146" unicode="&#x146;" horiz-adv-x="1300" 
d="M1137 0l-126.999 -0.000976562v537c0 127.333 -32.333 220.333 -97 279c-65.333 59.333 -151.333 89 -258 89c-114.667 0 -202.334 -34.333 -263.001 -103s-91 -158.667 -91 -270v-532h-127v1004h127v-158h8c6.66699 14.667 23.667 35.334 51 62.001
c21.333 20.667 44.666 38.667 69.999 54c28.667 17.333 66.334 32 113.001 44s95 18 145 18c130 0 237.333 -38.333 322 -115s127 -192.667 127 -348v-561zM657.001 -547.001v160.001c0 23.333 -11 40 -33 50c-22.667 10 -34 31.667 -34 65c0 19.333 7.5 35.333 22.5 48
s33.5 19 55.5 19c54.667 0 82 -33.333 82 -100c0 -44.667 -5.83301 -86.834 -17.5 -126.501s-25.167 -69.5 -40.5 -89.5c-14 -17.333 -25.667 -26 -35 -26z" />
    <glyph glyph-name="Ncaron" unicode="&#x147;" horiz-adv-x="1611" 
d="M1407 0h-211l-852 1286h-4v-1286h-135v1434h213l850 -1287h4v1287h135v-1434zM614 1946l217 -260l218 260h135l-277 -328h-151l-277 328h135z" />
    <glyph glyph-name="ncaron" unicode="&#x148;" horiz-adv-x="1300" 
d="M1137 0l-126.999 -0.000976562v537c0 127.333 -32.333 220.333 -97 279c-65.333 59.333 -151.333 89 -258 89c-114.667 0 -202.334 -34.333 -263.001 -103s-91 -158.667 -91 -270v-532h-127v1004h127v-158h8c6.66699 14.667 23.667 35.334 51 62.001
c21.333 20.667 44.666 38.667 69.999 54c28.667 17.333 66.334 32 113.001 44s95 18 145 18c130 0 237.333 -38.333 322 -115s127 -192.667 127 -348v-561zM438.001 1536l217 -260l217 260h136l-277 -328h-151l-277 328h135z" />
    <glyph glyph-name="Omacron" unicode="&#x14c;" horiz-adv-x="1695" 
d="M335 187c-128 137.333 -192 314.001 -192 530.001c0 215.333 64 392 192 530c127.333 138 298.333 207 513 207c214 0 385 -69 513 -207c127.333 -138.667 191 -315.334 191 -530.001c0 -216 -63.667 -392.667 -191 -530c-128 -138 -299 -207 -513 -207
c-214.667 0 -385.667 69 -513 207zM1260 279.001c102 115.333 153.001 261.333 153.001 438s-51 322.667 -153 438c-102.667 114.667 -240 172 -412 172s-309 -57.333 -411 -172c-102.667 -114.667 -154 -260.667 -154 -438s51.333 -323.333 154 -438
c102 -115.333 239 -173 411 -173c171.333 0 308.666 57.667 411.999 173zM1120 1679h-545v103h545v-103z" />
    <glyph glyph-name="omacron" unicode="&#x14d;" horiz-adv-x="1339" 
d="M285 125c-101.333 97.333 -152 223.002 -152 377.002s50.667 279.667 152 377c100.667 96.667 229 145 385 145s284.333 -48.333 385 -145s151 -222.334 151 -377.001s-50.333 -280.334 -151 -377.001s-229 -145 -385 -145s-284.333 48.333 -385 145zM963 217.002
c74.667 76.667 111.999 171.667 111.999 285s-37.333 208.333 -112 285c-74.667 76 -172.334 114 -293.001 114c-120 0 -217.667 -38 -293 -114c-75.333 -77.333 -113 -172.333 -113 -285s37.667 -207.667 113 -285c74.667 -76.667 172.334 -115 293.001 -115
s218.334 38.333 293.001 115zM941.999 1260h-545v102h545v-102z" />
    <glyph glyph-name="Ohungarumlaut" unicode="&#x150;" horiz-adv-x="1695" 
d="M335 187c-128 137.333 -192 314.001 -192 530.001c0 215.333 64 392 192 530c127.333 138 298.333 207 513 207c214 0 385 -69 513 -207c127.333 -138.667 191 -315.334 191 -530.001c0 -216 -63.667 -392.667 -191 -530c-128 -138 -299 -207 -513 -207
c-214.667 0 -385.667 69 -513 207zM1260 279.001c102 115.333 153.001 261.333 153.001 438s-51 322.667 -153 438c-102.667 114.667 -240 172 -412 172s-309 -57.333 -411 -172c-102.667 -114.667 -154 -260.667 -154 -438s51.333 -323.333 154 -438
c102 -115.333 239 -173 411 -173c171.333 0 308.666 57.667 411.999 173zM1047 1612h-109l309 327h148zM729.001 1612h-104l307 327h141z" />
    <glyph glyph-name="ohungarumlaut" unicode="&#x151;" horiz-adv-x="1343" 
d="M285 125c-101.333 97.333 -152 223.002 -152 377.002s50.667 279.667 152 377c100.667 96.667 229 145 385 145s284.333 -48.333 385 -145s151 -222.334 151 -377.001s-50.333 -280.334 -151 -377.001s-229 -145 -385 -145s-284.333 48.333 -385 145zM963 217.002
c74.667 76.667 111.999 171.667 111.999 285s-37.333 208.333 -112 285c-74.667 76 -172.334 114 -293.001 114c-120 0 -217.667 -38 -293 -114c-75.333 -77.333 -113 -172.333 -113 -285s37.667 -207.667 113 -285c74.667 -76.667 172.334 -115 293.001 -115
s218.334 38.333 293.001 115zM861.999 1208h-108l309 328h147zM544.999 1208h-105l308 328h141z" />
    <glyph glyph-name="OE" unicode="&#x152;" horiz-adv-x="2011" 
d="M351 195c-138.667 128.667 -208 302.667 -208 522c0 218 69.333 392 208 522c139.333 130 331.666 195 576.999 195h950v-123h-750v-514h631v-123h-631v-551h750v-123h-950c-245.333 0 -437.666 65 -576.999 195zM993 1311h-65c-204 0 -362.667 -54 -476 -162
c-112.667 -108 -169 -252 -169 -432c0 -181.333 56.333 -325.333 169 -432c113.333 -108 272 -162 476 -162h65v1188z" />
    <glyph glyph-name="oe" unicode="&#x153;" horiz-adv-x="2111" 
d="M270 125c-91.333 97.333 -136.999 220.996 -136.999 370.996c0 150.667 46 276.334 138 377.001c90.667 100.667 208 151 352 151c60.667 0 117.834 -9 171.501 -27s96.5 -40.667 128.5 -68c61.333 -53.333 101.666 -103.666 120.999 -150.999l13 -26h4l12 29
c4.66699 10.667 19 32.334 43 65.001c22.667 30.667 49 58.334 79 83.001c28.667 24 70.334 46 125.001 66c54.667 19.333 113 29 175 29c142 0 258 -50 348 -150c90 -101.333 135 -227.333 135 -378l-4 -72h-848c0 -44 24 -104.333 72 -181
c25.333 -40 64.333 -73.333 117 -100c53.333 -27.333 114.666 -41 183.999 -41c44.667 0 86.167 5.33301 124.5 16s68.166 24 89.499 40c42.667 32 68.334 60.667 77.001 86l6 16h148c-1.33301 -8 -4.33301 -18 -9 -30c-4 -10.667 -16.667 -33 -38 -67
c-20.667 -31.333 -45.667 -59.666 -75 -84.999c-28 -24 -70.667 -46.333 -128 -67c-55.333 -20.667 -118.333 -31 -189 -31c-62.667 0 -121.167 8.83301 -175.5 26.5s-98.166 40.5 -131.499 68.5c-30 25.333 -56.167 51.666 -78.5 78.999s-37.833 51 -46.5 71l-12 27h-4
c-4 -9.33301 -8.33301 -18.666 -13 -27.999c-8.66699 -16 -23.334 -38 -44.001 -66c-23.333 -31.333 -50 -59 -80 -83c-32 -24.667 -73.333 -46.334 -124 -65.001c-53.333 -20 -111 -30 -173 -30c-144.667 0 -262.334 48.333 -353.001 145zM993.001 488.996
c0 119.333 -31.332 217.667 -93.999 295c-63.333 78 -153.333 117 -270 117c-114.667 0 -204.334 -39.333 -269.001 -118c-65.333 -79.333 -98 -175 -98 -287c0 -113.333 32.333 -207.333 97 -282c64 -74.667 154 -112 270 -112c112.667 0 201.667 37.667 267 113
c64.667 74.667 97 166 97 274zM1489 900.997c-117.333 0 -207.333 -36.333 -270 -109c-63.333 -73.333 -95 -156.333 -95 -249h723c0 90 -32.333 172.333 -97 247c-65.333 74 -152.333 111 -261 111z" />
    <glyph glyph-name="Racute" unicode="&#x154;" horiz-adv-x="1464" 
d="M1341 0l-153.001 -0.000976562l-373 565h-475v-565h-135v1434h571c154.667 0 276.334 -38.667 365.001 -116c87.333 -77.333 131 -183.666 131 -318.999c0 -60 -9.5 -115.5 -28.5 -166.5s-43.5 -91.5 -73.5 -121.5c-27.333 -28.667 -57 -52.667 -89 -72
c-52.667 -32.667 -93.667 -49 -123 -49zM339.999 1311l0.000976562 -622.999h436c111.333 0 198.666 27.333 261.999 82c63.333 55.333 95 131.666 95 228.999c0 96.667 -31.667 173 -95 229c-64.667 55.333 -152 83 -262 83h-436zM713 1618h-127l307 328h168z" />
    <glyph glyph-name="racute" unicode="&#x155;" horiz-adv-x="860" 
d="M684 1024c37.333 0 74.332 -4 110.999 -12l14 -6v-134c-36.667 13.333 -83.667 20.333 -141 21c-116 0 -206 -39.667 -270 -119c-64.667 -78.667 -97 -175.667 -97 -291v-483h-127v1004h127v-203h8c10.667 22.667 27.334 48.667 50.001 78c20 26 42.667 48.667 68 68
c23.333 18 59.333 35.667 108 53c46 16 95.667 24 149 24zM544.999 1208h-127l307 328h168z" />
    <glyph glyph-name="uni0156" unicode="&#x156;" horiz-adv-x="1464" 
d="M1341 0l-153.001 -0.000976562l-373 565h-475v-565h-135v1434h571c154.667 0 276.334 -38.667 365.001 -116c87.333 -77.333 131 -183.666 131 -318.999c0 -60 -9.5 -115.5 -28.5 -166.5s-43.5 -91.5 -73.5 -121.5c-27.333 -28.667 -57 -52.667 -89 -72
c-52.667 -32.667 -93.667 -49 -123 -49zM339.999 1311l0.000976562 -622.999h436c111.333 0 198.666 27.333 261.999 82c63.333 55.333 95 131.666 95 228.999c0 96.667 -31.667 173 -95 229c-64.667 55.333 -152 83 -262 83h-436zM754 -547l-0.000976562 160.001
c0 23.333 -11.333 40 -34 50s-34 31.667 -34 65c0 19.333 7.5 35.333 22.5 48s33.5 19 55.5 19c54.667 0 82 -33.333 82 -100c0 -44.667 -5.66699 -86.834 -17 -126.501s-24.666 -69.5 -39.999 -89.5c-14 -17.333 -25.667 -26 -35 -26z" />
    <glyph glyph-name="uni0157" unicode="&#x157;" horiz-adv-x="860" 
d="M684 1024c37.333 0 74.332 -4 110.999 -12l14 -6v-134c-36.667 13.333 -83.667 20.333 -141 21c-116 0 -206 -39.667 -270 -119c-64.667 -78.667 -97 -175.667 -97 -291v-483h-127v1004h127v-203h8c10.667 22.667 27.334 48.667 50.001 78c20 26 42.667 48.667 68 68
c23.333 18 59.333 35.667 108 53c46 16 95.667 24 149 24zM226.999 -547l-0.000976562 159.999c0 23.333 -11 40 -33 50c-22.667 10 -34 31.667 -34 65c0 19.333 7.5 35.333 22.5 48s33.5 19 55.5 19c54.667 0 81.667 -33.333 81 -100
c0 -45.333 -5.66699 -87.666 -17 -126.999s-24.666 -69 -39.999 -89c-14 -17.333 -25.667 -26 -35 -26z" />
    <glyph glyph-name="Rcaron" unicode="&#x158;" horiz-adv-x="1464" 
d="M1341 0l-153.001 -0.000976562l-373 565h-475v-565h-135v1434h571c154.667 0 276.334 -38.667 365.001 -116c87.333 -77.333 131 -183.666 131 -318.999c0 -60 -9.5 -115.5 -28.5 -166.5s-43.5 -91.5 -73.5 -121.5c-27.333 -28.667 -57 -52.667 -89 -72
c-52.667 -32.667 -93.667 -49 -123 -49zM339.999 1311l0.000976562 -622.999h436c111.333 0 198.666 27.333 261.999 82c63.333 55.333 95 131.666 95 228.999c0 96.667 -31.667 173 -95 229c-64.667 55.333 -152 83 -262 83h-436zM453 1946l217 -260l217 260h135l-277 -328
h-151l-277 328h136z" />
    <glyph glyph-name="rcaron" unicode="&#x159;" horiz-adv-x="860" 
d="M684 1024c37.333 0 74.332 -4 110.999 -12l14 -6v-134c-36.667 13.333 -83.667 20.333 -141 21c-116 0 -206 -39.667 -270 -119c-64.667 -78.667 -97 -175.667 -97 -291v-483h-127v1004h127v-203h8c10.667 22.667 27.334 48.667 50.001 78c20 26 42.667 48.667 68 68
c23.333 18 59.333 35.667 108 53c46 16 95.667 24 149 24zM280.999 1536l217 -260l217 260h135l-277 -328h-151l-277 328h136z" />
    <glyph glyph-name="Sacute" unicode="&#x15a;" horiz-adv-x="1472" 
d="M1184 389c0 55.333 -17.498 101.167 -52.498 137.5s-83.167 62.833 -144.5 79.5c-44 12 -113.833 26.333 -209.5 43s-160.834 28.667 -195.501 36c-70.667 15.333 -135.667 35.333 -195 60c-58.667 24.667 -106 64 -142 118c-36.667 53.333 -55 120 -55 200
c0 121.333 50.333 217 151 287c101.333 69.333 230 104 386 104c160 0 289.667 -35.667 389 -107c98.667 -72 148 -175 148 -309v-41h-136v41c0 98 -36.333 171.333 -109 220s-170 73 -292 73c-119.333 0 -215.666 -23.333 -288.999 -70
c-74.667 -46.667 -112 -112.667 -112 -198c0 -56.667 17.5 -104 52.5 -142s82.833 -66 143.5 -84c46 -13.333 121.667 -30 227 -50s165.333 -31.667 180 -35c69.333 -14.667 133.666 -34.667 192.999 -60c58.667 -24.667 106.334 -62.334 143.001 -113.001
c36 -51.333 54 -114.666 54 -189.999c0 -130 -55 -230.667 -165 -302c-110.667 -71.333 -250.334 -107 -419.001 -107c-169.333 0 -308.333 37.333 -417 112c-109.333 74 -164 179.333 -164 316v81h135v-81c0 -102 41.667 -178.667 125 -230c82.667 -50.667 190 -76 322 -76
c131.333 0 238.666 24.333 321.999 73c84 48.667 126 120 126 214zM784.002 1618h-127l308 328h168z" />
    <glyph glyph-name="sacute" unicode="&#x15b;" horiz-adv-x="1212" 
d="M952 281c0 42.667 -18.666 76.8359 -55.999 102.503s-87 41.5 -149 47.5c-65.333 6.66699 -129.333 15 -192 25c-68.667 10 -132.334 22 -191.001 36c-58.667 12.667 -108 40 -148 82c-38.667 40.667 -58 93.667 -58 159c0 94 40.667 166 122 216s188 75 320 75
c134 0 241.667 -27.667 323 -83c80.667 -54.667 121 -137 121 -247h-126c0 140.667 -106 211 -318 211c-210 0 -315 -57.333 -315 -172c0 -40.667 18.667 -73.334 56 -98.001s87.333 -40.334 150 -47.001c72.667 -8.66699 136.334 -17 191.001 -25
c72.667 -12 136.667 -24.333 192 -37c58.667 -14.667 107.667 -42.667 147 -84c38.667 -41.333 58 -95 58 -161c0 -70.667 -22.333 -129.334 -67 -176.001s-101.334 -79 -170.001 -97c-68 -18.667 -146.667 -28 -236 -28c-137.333 0 -250.333 28.333 -339 85
c-89.333 57.333 -134 143 -134 257v38h127v-38c0 -73.333 30.333 -129 91 -167s145.667 -57 255 -57c230.667 0.666992 346 61.667 346 183zM657.001 1208h-127l308 328h168z" />
    <glyph glyph-name="Scedilla" unicode="&#x15e;" horiz-adv-x="1472" 
d="M575 -233l93 0.00195312c0 -48 31.333 -72 94 -72c65.333 0 98 21.667 98 65c0 45.333 -32.667 68 -98 68h-100v86l57 66c-166 3.33301 -301.333 41.666 -406 114.999c-106 72.667 -159 177 -159 313v81h135v-81c0 -102 41.667 -178.667 125 -230
c82.667 -50.667 190 -76 322 -76c131.333 0 238.666 24.333 321.999 73c84 48.667 126 120 126 214c0 55.333 -17.5 101.166 -52.5 137.499s-83.167 62.833 -144.5 79.5c-44 12 -113.833 26.333 -209.5 43s-160.834 28.667 -195.501 36
c-70.667 15.333 -135.667 35.333 -195 60c-58.667 24.667 -106 64 -142 118c-36.667 53.333 -55 120 -55 200c0 121.333 50.333 217 151 287c101.333 69.333 230 104 386 104c160 0 289.667 -35.667 389 -107c98.667 -72 148 -175 148 -309v-41h-136v41
c0 98 -36.333 171.333 -109 220s-170 73 -292 73c-119.333 0 -215.666 -23.333 -288.999 -70c-74.667 -46.667 -112 -112.667 -112 -198c0 -56.667 17.5 -104 52.5 -142s82.833 -66 143.5 -84c46 -13.333 121.667 -30 227 -50s165.333 -31.667 180 -35
c69.333 -14.667 133.666 -34.667 192.999 -60c58.667 -24.667 106.334 -62.334 143.001 -113.001c36 -51.333 54 -114.666 54 -189.999c0 -118.667 -46.333 -213 -139 -283c-92 -70 -212.333 -110.667 -361 -122l-61 -72c64.667 0 113.334 -12.667 146.001 -38
s48.667 -63.333 48 -114c0 -46.667 -16.5 -83.167 -49.5 -109.5s-79.833 -39.5 -140.5 -39.5c-124.667 0 -187 52 -187 156z" />
    <glyph glyph-name="scedilla" unicode="&#x15f;" horiz-adv-x="1212" 
d="M426 -233h91.999c0 -48 31.333 -72 94 -72c64.667 0 97.667 21.667 99 65c0 45.333 -33 68 -99 68h-100v86l59 68c-128.667 4 -233.667 34 -315 90c-82 56 -123 139.333 -123 250v38h127v-38c0 -73.333 30.333 -129 91 -167s145.667 -57 255 -57
c230.667 0 346 61 346 183c0 42.667 -18.667 76.834 -56 102.501s-87 41.5 -149 47.5c-65.333 6.66699 -129.333 15 -192 25c-68.667 10 -132.334 22 -191.001 36c-58.667 12.667 -108 40 -148 82c-38.667 40.667 -58 93.667 -58 159c0 94 40.667 166 122 216s188 75 320 75
c134 0 241.667 -27.667 323 -83c80.667 -54.667 121 -137 121 -247h-126c0 140.667 -106 211 -318 211c-210 0 -315 -57.333 -315 -172c0 -40.667 18.667 -73.334 56 -98.001s87.333 -40.334 150 -47.001c72.667 -8.66699 136.334 -17 191.001 -25
c72.667 -12 136.667 -24.333 192 -37c58.667 -14.667 107.667 -42.667 147 -84c38.667 -41.333 58 -95 58 -161c0 -96.667 -37.667 -169 -113 -217c-75.333 -47.333 -174.666 -74.666 -297.999 -81.999l-60 -70c130 0 195 -50.667 195 -152
c0 -46.667 -16.5 -83.167 -49.5 -109.5s-80.167 -39.5 -141.5 -39.5c-124 0 -186 52 -186 156z" />
    <glyph glyph-name="Scaron" unicode="&#x160;" horiz-adv-x="1472" 
d="M1184 389c0 55.333 -17.498 101.167 -52.498 137.5s-83.167 62.833 -144.5 79.5c-44 12 -113.833 26.333 -209.5 43s-160.834 28.667 -195.501 36c-70.667 15.333 -135.667 35.333 -195 60c-58.667 24.667 -106 64 -142 118c-36.667 53.333 -55 120 -55 200
c0 121.333 50.333 217 151 287c101.333 69.333 230 104 386 104c160 0 289.667 -35.667 389 -107c98.667 -72 148 -175 148 -309v-41h-136v41c0 98 -36.333 171.333 -109 220s-170 73 -292 73c-119.333 0 -215.666 -23.333 -288.999 -70
c-74.667 -46.667 -112 -112.667 -112 -198c0 -56.667 17.5 -104 52.5 -142s82.833 -66 143.5 -84c46 -13.333 121.667 -30 227 -50s165.333 -31.667 180 -35c69.333 -14.667 133.666 -34.667 192.999 -60c58.667 -24.667 106.334 -62.334 143.001 -113.001
c36 -51.333 54 -114.666 54 -189.999c0 -130 -55 -230.667 -165 -302c-110.667 -71.333 -250.334 -107 -419.001 -107c-169.333 0 -308.333 37.333 -417 112c-109.333 74 -164 179.333 -164 316v81h135v-81c0 -102 41.667 -178.667 125 -230c82.667 -50.667 190 -76 322 -76
c131.333 0 238.666 24.333 321.999 73c84 48.667 126 120 126 214zM518.002 1946l217 -260l217 260h135l-276 -328h-152l-276 328h135z" />
    <glyph glyph-name="scaron" unicode="&#x161;" horiz-adv-x="1212" 
d="M952 281c0 42.667 -18.666 76.8359 -55.999 102.503s-87 41.5 -149 47.5c-65.333 6.66699 -129.333 15 -192 25c-68.667 10 -132.334 22 -191.001 36c-58.667 12.667 -108 40 -148 82c-38.667 40.667 -58 93.667 -58 159c0 94 40.667 166 122 216s188 75 320 75
c134 0 241.667 -27.667 323 -83c80.667 -54.667 121 -137 121 -247h-126c0 140.667 -106 211 -318 211c-210 0 -315 -57.333 -315 -172c0 -40.667 18.667 -73.334 56 -98.001s87.333 -40.334 150 -47.001c72.667 -8.66699 136.334 -17 191.001 -25
c72.667 -12 136.667 -24.333 192 -37c58.667 -14.667 107.667 -42.667 147 -84c38.667 -41.333 58 -95 58 -161c0 -70.667 -22.333 -129.334 -67 -176.001s-101.334 -79 -170.001 -97c-68 -18.667 -146.667 -28 -236 -28c-137.333 0 -250.333 28.333 -339 85
c-89.333 57.333 -134 143 -134 257v38h127v-38c0 -73.333 30.333 -129 91 -167s145.667 -57 255 -57c230.667 0.666992 346 61.667 346 183zM385.001 1536l217 -260l217 260h135l-276 -328h-152l-276 328h135z" />
    <glyph glyph-name="uni0162" unicode="&#x162;" horiz-adv-x="1286" 
d="M575 1311h-534v123h1204v-123h-534v-1311h-136v1311zM633 -547l-0.000976562 160.001c0 23.333 -11.333 40 -34 50s-34 31.667 -34 65c0 19.333 7.5 35.333 22.5 48s33.5 19 55.5 19c54.667 0 82 -33.333 82 -100c0 -44.667 -5.66699 -86.834 -17 -126.501
s-24.666 -69.5 -39.999 -89.5c-14 -17.333 -25.667 -26 -35 -26z" />
    <glyph glyph-name="uni0163" unicode="&#x163;" horiz-adv-x="860" 
d="M225 358l-0.00195312 527h-174v119h174v225h127v-225h385v-119h-385v-512c0 -182.667 77.333 -274.334 232 -275.001c34.667 0 68.334 3.83301 101.001 11.5s57 16.167 73 25.5l20 12v-120c-49.333 -31.333 -117.666 -47 -204.999 -47
c-104.667 0 -188.667 31.333 -252 94c-64 62.667 -96 157.334 -96 284.001zM486.998 -547v160.001c0 23.333 -11 40 -33 50c-22.667 10 -34 31.667 -34 65c0 19.333 7.5 35.333 22.5 48s33.5 19 55.5 19c54.667 0 82 -33.333 82 -100
c0 -44.667 -5.83301 -86.834 -17.5 -126.501s-25.167 -69.5 -40.5 -89.5c-14 -17.333 -25.667 -26 -35 -26z" />
    <glyph glyph-name="Tcaron" unicode="&#x164;" horiz-adv-x="1286" 
d="M575 1311h-534v123h1204v-123h-534v-1311h-136v1311zM426 1946l217 -260l217 260h135l-276 -328h-152l-276 328h135z" />
    <glyph glyph-name="tcaron" unicode="&#x165;" horiz-adv-x="905" 
d="M225 358l-0.00195312 527h-174v119h174v225h127v-225h385v-119h-385v-512c0 -182.667 77.333 -274.334 232 -275.001c34.667 0 68.334 3.83301 101.001 11.5s57 16.167 73 25.5l20 12v-120c-49.333 -31.333 -117.666 -47 -204.999 -47
c-104.667 0 -188.667 31.333 -252 94c-64 62.667 -96 157.334 -96 284.001zM843.998 907l-0.000976562 160c0 23.333 -11.333 40.333 -34 51c-22.667 10 -34 31.333 -34 64c0 19.333 7.5 35.333 22.5 48s33.5 19 55.5 19c54.667 0 82 -33.333 82 -100
c0 -44.667 -5.66699 -86.667 -17 -126s-24.666 -69 -39.999 -89c-14 -18 -25.667 -27 -35 -27z" />
    <glyph glyph-name="Umacron" unicode="&#x16a;" horiz-adv-x="1564" 
d="M1245 481v953h135v-959c0 -163.333 -56.333 -286.333 -169 -369c-112.667 -84 -255.667 -126 -429 -126s-316.333 42 -429 126c-112.667 82.667 -169 205.667 -169 369v959h135v-953c0 -123.333 44 -216.333 132 -279c87.333 -64 198 -96 332 -96s244.333 32 331 96
c87.333 63.333 131 156.333 131 279zM1055 1679h-545v103h545v-103z" />
    <glyph glyph-name="umacron" unicode="&#x16b;" 
d="M174 1004l126.999 -0.00195312v-537c0 -126.667 32.667 -219.667 98 -279c65.333 -60 150.666 -90 255.999 -90c114.667 0 202.667 34.667 264 104c60.667 68.667 91 158.334 91 269.001v533h127v-1004h-127v158h-9c-7.33301 -16.667 -23.666 -37 -48.999 -61
c-19.333 -19.333 -43 -37.666 -71 -54.999s-65.5 -32 -112.5 -44s-95.5 -18 -145.5 -18c-129.333 0 -236.666 38.667 -321.999 116c-84.667 76.667 -127 192 -127 346v562zM927.999 1260h-545v102h545v-102z" />
    <glyph glyph-name="Uring" unicode="&#x16e;" horiz-adv-x="1564" 
d="M1245 481v953h135v-959c0 -163.333 -56.333 -286.333 -169 -369c-112.667 -84 -255.667 -126 -429 -126s-316.333 42 -429 126c-112.667 82.667 -169 205.667 -169 369v959h135v-953c0 -123.333 44 -216.333 132 -279c87.333 -64 198 -96 332 -96s244.333 32 331 96
c87.333 63.333 131 156.333 131 279zM929 1628c-35.333 -34 -83.332 -51 -143.999 -51c-62 0 -110.333 17 -145 51s-52 77.667 -52 131s17.333 97.333 52 132c35.333 34 83.666 51 144.999 51c60.667 0 108.667 -17 144 -51c34.667 -34.667 52 -78.667 52 -132
s-17.333 -97 -52 -131zM855.001 1825c-16 17.333 -39.667 26 -71 26s-54.666 -8.66699 -69.999 -26c-16 -18 -24 -40 -24 -66s8 -47.667 24 -65c15.333 -18 38.666 -27 69.999 -27s55 9 71 27c16 17.333 24 39 24 65s-8 48 -24 66z" />
    <glyph glyph-name="uring" unicode="&#x16f;" 
d="M174 1004l126.999 -0.00195312v-537c0 -126.667 32.667 -219.667 98 -279c65.333 -60 150.666 -90 255.999 -90c114.667 0 202.667 34.667 264 104c60.667 68.667 91 158.334 91 269.001v533h127v-1004h-127v158h-9c-7.33301 -16.667 -23.666 -37 -48.999 -61
c-19.333 -19.333 -43 -37.666 -71 -54.999s-65.5 -32 -112.5 -44s-95.5 -18 -145.5 -18c-129.333 0 -236.666 38.667 -321.999 116c-84.667 76.667 -127 192 -127 346v562zM799.999 1219c-34.667 -34.667 -82.666 -52 -143.999 -52c-62 0 -110.333 17.333 -145 52
c-34.667 34 -52 77.667 -52 131s17.333 97 52 131c35.333 34 83.666 51 144.999 51s109.333 -17 144 -51s52 -77.667 52 -131s-17.333 -97 -52 -131zM726 1416c-16 17.333 -39.667 26 -71 26s-54.666 -8.66699 -69.999 -26c-16 -18 -24 -40 -24 -66s8 -48 24 -66
c15.333 -18 38.666 -27 69.999 -27s55 9 71 27s24 40 24 66s-8 48 -24 66z" />
    <glyph glyph-name="Uhungarumlaut" unicode="&#x170;" horiz-adv-x="1564" 
d="M1245 481v953h135v-959c0 -163.333 -56.333 -286.333 -169 -369c-112.667 -84 -255.667 -126 -429 -126s-316.333 42 -429 126c-112.667 82.667 -169 205.667 -169 369v959h135v-953c0 -123.333 44 -216.333 132 -279c87.333 -64 198 -96 332 -96s244.333 32 331 96
c87.333 63.333 131 156.333 131 279zM977 1618h-109l310 328h147zM659 1618h-104l307 328h142z" />
    <glyph glyph-name="uhungarumlaut" unicode="&#x171;" 
d="M174 1004l126.999 -0.00195312v-537c0 -126.667 32.667 -219.667 98 -279c65.333 -60 150.666 -90 255.999 -90c114.667 0 202.667 34.667 264 104c60.667 68.667 91 158.334 91 269.001v533h127v-1004h-127v158h-9c-7.33301 -16.667 -23.666 -37 -48.999 -61
c-19.333 -19.333 -43 -37.666 -71 -54.999s-65.5 -32 -112.5 -44s-95.5 -18 -145.5 -18c-129.333 0 -236.666 38.667 -321.999 116c-84.667 76.667 -127 192 -127 346v562zM851.999 1208h-109l310 328h147zM534.999 1208h-105l307 328h142z" />
    <glyph glyph-name="Uogonek" unicode="&#x172;" horiz-adv-x="1564" 
d="M895 -178l99.999 0.000976562c0 -48.667 -16.167 -87.167 -48.5 -115.5s-78.166 -42.5 -137.499 -42.5c-60.667 0 -106.834 13.5 -138.501 40.5s-47.5 64.167 -47.5 111.5c0 64 32 119.333 96 166c-157.333 9.33301 -285.666 56 -384.999 140
c-100 84 -150 201.667 -150 353v959h135v-953c0 -123.333 44 -216.333 132 -279c87.333 -64 198 -96 332 -96s244.333 32 331 96c87.333 63.333 131 156.333 131 279v953h135v-959c0 -150 -48.667 -266.667 -146 -350c-98 -83.333 -225.333 -130.333 -382 -141
c-87.333 -56 -131 -112.667 -131 -170c0 -18.667 8 -34 24 -46s37.333 -18 64 -18c27.333 0 48.5 6.66699 63.5 20s22.5 30.666 22.5 51.999z" />
    <glyph glyph-name="uogonek" unicode="&#x173;" 
d="M1147 -178l99.998 -0.000976562c0 -48.667 -16.167 -87.167 -48.5 -115.5s-78.166 -42.5 -137.499 -42.5c-60.667 0 -107 13.5 -139 40.5s-48 64.167 -48 111.5c0 35.333 11.333 69.333 34 102c22.667 32 45 56.667 67 74l35 22v144h-9
c-7.33301 -16.667 -23.666 -37 -48.999 -61c-19.333 -19.333 -43 -37.666 -71 -54.999s-65.5 -32 -112.5 -44s-95.5 -18 -145.5 -18c-129.333 0 -236.666 38.667 -321.999 116c-84.667 76.667 -127 192 -127 346v562h127v-537c0 -126.667 32.667 -219.667 98 -279
c65.333 -60 150.666 -90 255.999 -90c114.667 0 202.667 34.667 264 104c60.667 68.667 91 158.334 91 269.001v533h127v-1004c-39.333 -18 -79 -48.333 -119 -91c-30 -32 -45 -63.667 -45 -95c0 -18.667 8 -34 24 -46s37.333 -18 64 -18c27.333 0 48.5 6.66699 63.5 20
s22.5 30.666 22.5 51.999z" />
    <glyph glyph-name="Ydieresis" unicode="&#x178;" horiz-adv-x="1345" 
d="M745 0h-145v541l-559 893h152l477 -760h6l477 760h152l-560 -893v-541zM424 1671c-14.667 14 -21.999 32.5 -21.999 55.5s7.33301 41.833 22 56.5c14.667 14 35 21 61 21s46.667 -7 62 -21c15.333 -14.667 23 -33.5 23 -56.5s-7.66699 -41.5 -23 -55.5
c-14.667 -14.667 -35.334 -22 -62.001 -22c-26 0 -46.333 7.33301 -61 22zM797.001 1671c-15.333 14 -22.999 32.5 -22.999 55.5s7.66699 41.833 23 56.5c15.333 14 35.666 21 60.999 21c26.667 0 47.334 -7 62.001 -21c14.667 -14.667 22 -33.5 22 -56.5
s-7.33301 -41.5 -22 -55.5c-14.667 -14.667 -35.334 -22 -62.001 -22c-26 0 -46.333 7.33301 -61 22z" />
    <glyph glyph-name="Zacute" unicode="&#x179;" horiz-adv-x="1325" 
d="M1038 1311h-905v123h1065v-134l-936 -1173v-4h961v-123h-1121v133l936 1174v4zM715 1618h-127l307 328h168z" />
    <glyph glyph-name="zacute" unicode="&#x17a;" horiz-adv-x="1083" 
d="M819 885h-700v119h862v-125l-737 -756v-4h757v-119h-919v125l737 756v4zM606 1208h-127l307 328h168z" />
    <glyph glyph-name="Zdotaccent" unicode="&#x17b;" horiz-adv-x="1325" 
d="M1038 1311h-905v123h1065v-134l-936 -1173v-4h961v-123h-1121v133l936 1174v4zM607 1671c-15.333 14 -22.999 32.5 -22.999 55.5s7.66699 41.833 23 56.5c15.333 14 35.666 21 60.999 21c26.667 0 47.334 -7 62.001 -21c14.667 -14.667 22 -33.5 22 -56.5
s-7.33301 -41.5 -22 -55.5c-14.667 -14.667 -35.334 -22 -62.001 -22c-26 0 -46.333 7.33301 -61 22z" />
    <glyph glyph-name="zdotaccent" unicode="&#x17c;" horiz-adv-x="1083" 
d="M819 885h-700v119h862v-125l-737 -756v-4h757v-119h-919v125l737 756v4zM492 1251c-14.667 14 -21.999 32.5 -21.999 55.5s7.33301 41.833 22 56.5c14.667 14 35 21 61 21s46.667 -7 62 -21c15.333 -14.667 23 -33.5 23 -56.5s-7.66699 -41.5 -23 -55.5
c-14.667 -14.667 -35.334 -22 -62.001 -22c-26 0 -46.333 7.33301 -61 22z" />
    <glyph glyph-name="Zcaron" unicode="&#x17d;" horiz-adv-x="1325" 
d="M1038 1311h-905v123h1065v-134l-936 -1173v-4h961v-123h-1121v133l936 1174v4zM446 1946l218 -260l217 260h135l-277 -328h-151l-277 328h135z" />
    <glyph glyph-name="zcaron" unicode="&#x17e;" horiz-adv-x="1083" 
d="M819 885h-700v119h862v-125l-737 -756v-4h757v-119h-919v125l737 756v4zM336 1536l217 -260l217 260h135l-276 -328h-152l-276 328h135z" />
    <glyph glyph-name="florin" unicode="&#x192;" horiz-adv-x="880" 
d="M563 1055l-10.001 -51h321l-26 -119h-322l-202 -959c-51.333 -237.333 -182.666 -356 -393.999 -356c-30 0 -65.333 5.33301 -106 16l-14 6l26 117c26 -10.667 58 -16 96 -16c68 0 123.667 17.667 167 53c43.333 34.667 75.333 99.667 96 195l200 944h-174l27 119h174
l12 61c26.667 128.667 75.334 225.667 146.001 291c69.333 65.333 149.666 98 240.999 98c47.333 0 88 -7.16699 122 -21.5s57.667 -32.166 71 -53.499c24.667 -42.667 34.667 -81.667 30 -117l-4 -23h-118c0.666992 0.666992 1.16699 4.16699 1.5 10.5s-1 14.5 -4 24.5
s-8 19.667 -15 29s-19.167 17.333 -36.5 24s-38.333 10 -63 10c-55.333 0 -104.5 -24.333 -147.5 -73s-74.5 -118.334 -94.5 -209.001z" />
    <glyph glyph-name="uni0218" unicode="&#x218;" horiz-adv-x="1472" 
d="M1184 389c0 55.333 -17.498 101.167 -52.498 137.5s-83.167 62.833 -144.5 79.5c-44 12 -113.833 26.333 -209.5 43s-160.834 28.667 -195.501 36c-70.667 15.333 -135.667 35.333 -195 60c-58.667 24.667 -106 64 -142 118c-36.667 53.333 -55 120 -55 200
c0 121.333 50.333 217 151 287c101.333 69.333 230 104 386 104c160 0 289.667 -35.667 389 -107c98.667 -72 148 -175 148 -309v-41h-136v41c0 98 -36.333 171.333 -109 220s-170 73 -292 73c-119.333 0 -215.666 -23.333 -288.999 -70
c-74.667 -46.667 -112 -112.667 -112 -198c0 -56.667 17.5 -104 52.5 -142s82.833 -66 143.5 -84c46 -13.333 121.667 -30 227 -50s165.333 -31.667 180 -35c69.333 -14.667 133.666 -34.667 192.999 -60c58.667 -24.667 106.334 -62.334 143.001 -113.001
c36 -51.333 54 -114.666 54 -189.999c0 -130 -55 -230.667 -165 -302c-110.667 -71.333 -250.334 -107 -419.001 -107c-169.333 0 -308.333 37.333 -417 112c-109.333 74 -164 179.333 -164 316v81h135v-81c0 -102 41.667 -178.667 125 -230c82.667 -50.667 190 -76 322 -76
c131.333 0 238.666 24.333 321.999 73c84 48.667 126 120 126 214zM733.002 -546.999l-0.000976562 160.001c0 23.333 -11 40 -33 50c-22.667 10 -34 31.667 -34 65c0 19.333 7.33301 35.333 22 48s33 19 55 19c54.667 0 82 -33.333 82 -100
c0 -44.667 -5.66699 -86.834 -17 -126.501s-24.666 -69.5 -39.999 -89.5c-14 -17.333 -25.667 -26 -35 -26z" />
    <glyph glyph-name="uni0219" unicode="&#x219;" horiz-adv-x="1212" 
d="M952 281c0 42.667 -18.666 76.8359 -55.999 102.503s-87 41.5 -149 47.5c-65.333 6.66699 -129.333 15 -192 25c-68.667 10 -132.334 22 -191.001 36c-58.667 12.667 -108 40 -148 82c-38.667 40.667 -58 93.667 -58 159c0 94 40.667 166 122 216s188 75 320 75
c134 0 241.667 -27.667 323 -83c80.667 -54.667 121 -137 121 -247h-126c0 140.667 -106 211 -318 211c-210 0 -315 -57.333 -315 -172c0 -40.667 18.667 -73.334 56 -98.001s87.333 -40.334 150 -47.001c72.667 -8.66699 136.334 -17 191.001 -25
c72.667 -12 136.667 -24.333 192 -37c58.667 -14.667 107.667 -42.667 147 -84c38.667 -41.333 58 -95 58 -161c0 -70.667 -22.333 -129.334 -67 -176.001s-101.334 -79 -170.001 -97c-68 -18.667 -146.667 -28 -236 -28c-137.333 0 -250.333 28.333 -339 85
c-89.333 57.333 -134 143 -134 257v38h127v-38c0 -73.333 30.333 -129 91 -167s145.667 -57 255 -57c230.667 0.666992 346 61.667 346 183zM608.001 -546.998l-0.000976562 159.999c0 23.333 -11 40 -33 50c-22.667 10 -34 31.667 -34 65c0 19.333 7.33301 35.333 22 48
s33 19 55 19c54.667 0 82 -33.333 82 -100c0 -45.333 -5.66699 -87.666 -17 -126.999s-24.666 -69 -39.999 -89c-14 -17.333 -25.667 -26 -35 -26z" />
    <glyph glyph-name="uni021A" unicode="&#x21a;" horiz-adv-x="1286" 
d="M575 1311h-534v123h1204v-123h-534v-1311h-136v1311zM633 -547l-0.000976562 160.001c0 23.333 -11.333 40 -34 50s-34 31.667 -34 65c0 19.333 7.5 35.333 22.5 48s33.5 19 55.5 19c54.667 0 82 -33.333 82 -100c0 -44.667 -5.66699 -86.834 -17 -126.501
s-24.666 -69.5 -39.999 -89.5c-14 -17.333 -25.667 -26 -35 -26z" />
    <glyph glyph-name="uni021B" unicode="&#x21b;" horiz-adv-x="860" 
d="M225 358l-0.00195312 527h-174v119h174v225h127v-225h385v-119h-385v-512c0 -182.667 77.333 -274.334 232 -275.001c34.667 0 68.334 3.83301 101.001 11.5s57 16.167 73 25.5l20 12v-120c-49.333 -31.333 -117.666 -47 -204.999 -47
c-104.667 0 -188.667 31.333 -252 94c-64 62.667 -96 157.334 -96 284.001zM486.998 -547v160.001c0 23.333 -11 40 -33 50c-22.667 10 -34 31.667 -34 65c0 19.333 7.5 35.333 22.5 48s33.5 19 55.5 19c54.667 0 82 -33.333 82 -100
c0 -44.667 -5.83301 -86.834 -17.5 -126.501s-25.167 -69.5 -40.5 -89.5c-14 -17.333 -25.667 -26 -35 -26z" />
    <glyph glyph-name="uni02BC" unicode="&#x2bc;" horiz-adv-x="282" 
d="M129 1112l0.000976562 160.001c0 23.333 -11.333 40 -34 50s-34 31.333 -34 64c0 19.333 7.5 35.5 22.5 48.5s33.5 19.5 55.5 19.5c54.667 0 82 -33.333 82 -100c0 -44.667 -5.83301 -86.834 -17.5 -126.501s-24.834 -69.167 -39.501 -88.5c-14 -18 -25.667 -27 -35 -27z
" />
    <glyph glyph-name="circumflex" unicode="&#x2c6;" horiz-adv-x="827" 
d="M766 1196h-135l-217 260l-217 -260h-136l277 328h151z" />
    <glyph glyph-name="caron" unicode="&#x2c7;" horiz-adv-x="827" 
d="M197 1524l217 -260l217 260h135l-277 -328h-151l-277 328h136z" />
    <glyph glyph-name="breve" unicode="&#x2d8;" horiz-adv-x="659" 
d="M527 1260c-48 -36 -113.667 -54 -197 -54s-149 18 -197 54c-48 34.667 -72 85.667 -72 153v6h115v-4c0 -32 13.667 -57.667 41 -77s65 -29 113 -29s85.5 9.66699 112.5 29s40.5 45 40.5 77v4h115v-6c0 -66.667 -23.667 -117.667 -71 -153z" />
    <glyph glyph-name="dotaccent" unicode="&#x2d9;" horiz-adv-x="290" 
d="M84 1267c-14.667 14 -21.999 32.667 -21.999 56s7.33301 42.333 22 57c15.333 14 35.666 21 60.999 21c26.667 0 47.334 -7 62.001 -21c15.333 -14.667 23 -33.667 23 -57s-7.66699 -42 -23 -56c-14.667 -14.667 -35.334 -22 -62.001 -22c-26 0 -46.333 7.33301 -61 22z
" />
    <glyph glyph-name="ring" unicode="&#x2da;" horiz-adv-x="516" 
d="M403 1268c-35.333 -34 -83.666 -51 -144.999 -51s-109.333 17 -144 51c-35.333 34 -53 77.667 -53 131s17.667 97 53 131c34.667 34 82.667 51 144 51s109.666 -17 144.999 -51c34.667 -34 52 -77.667 52 -131s-17.333 -97 -52 -131zM329 1465
c-16 17.333 -39.668 26 -71.001 26s-54.666 -8.66699 -69.999 -26c-16 -18 -24 -40 -24 -66s8 -47.667 24 -65c14.667 -18 38 -27 70 -27c31.333 0 55 9 71 27c15.333 17.333 23 39 23 65s-7.66699 48 -23 66z" />
    <glyph glyph-name="ogonek" unicode="&#x2db;" horiz-adv-x="495" 
d="M334 -178l99.999 0.00195312c0 -48.667 -16.167 -87.167 -48.5 -115.5s-78.166 -42.5 -137.499 -42.5c-60.667 0 -107 13.5 -139 40.5s-48 64.167 -48 111.5c0 34 10.333 66.333 31 97c21.333 31.333 42 53.666 62 66.999l30 20h140c-39.333 -18 -79 -48.333 -119 -91
c-30 -32 -45 -63.667 -45 -95c0 -18.667 8 -34 24 -46s37.333 -18 64 -18c27.333 0 48.5 6.66699 63.5 20s22.5 30.666 22.5 51.999z" />
    <glyph glyph-name="tilde" unicode="&#x2dc;" horiz-adv-x="806" 
d="M229 1214c-53.333 0 -94.665 13.3311 -123.998 39.998s-44 63.334 -44 110.001l9 70h104c-4 -14.667 -6 -32 -6 -52c0 -46.667 25.333 -69.667 76 -69c32 0 80.333 23 145 69c65.333 45.333 128.333 68 189 68c52.667 0 93.667 -13.167 123 -39.5s44 -62.166 44 -107.499
l-8 -72h-104c4 15.333 6 33 6 53c0 45.333 -26 68 -78 68c-17.333 1.33301 -39.333 -5.33398 -66 -20.001s-52.334 -31.167 -77.001 -49.5s-54.334 -34.666 -89.001 -48.999s-68 -20.833 -100 -19.5z" />
    <glyph glyph-name="hungarumlaut" unicode="&#x2dd;" horiz-adv-x="892" 
d="M483 1196h-108l309 328h147zM166 1196h-105l308 328h141z" />
    <glyph glyph-name="uni0401" unicode="&#x401;" horiz-adv-x="1372" 
d="M1239 0h-1034v1434h1034v-123h-899v-514h782v-123h-782v-551h899v-123zM482 1640c-14.667 14 -21.998 32.667 -21.998 56s7.33301 42.333 22 57c15.333 14 35.666 21 60.999 21c26 0 46.667 -7 62 -21c15.333 -14.667 23 -33.667 23 -57s-7.66699 -42 -23 -56
c-14.667 -14.667 -35.334 -22 -62.001 -22c-26 0 -46.333 7.33301 -61 22zM854.002 1640c-15.333 14 -22.999 32.667 -22.999 56s7.66699 42.333 23 57c14.667 14 35.334 21 62.001 21c25.333 0 45.666 -7 60.999 -21c15.333 -14.667 23 -33.667 23 -57
s-7.66699 -42 -23 -56c-14.667 -14.667 -35 -22 -61 -22c-26.667 0 -47.334 7.33301 -62.001 22z" />
    <glyph glyph-name="uni0402" unicode="&#x402;" horiz-adv-x="1583" 
d="M979 -14c104 0 184.332 33.333 240.999 100s85 158.667 85 276c0 116 -35.333 208 -106 276c-71.333 67.333 -169.333 101 -294 101h-379v-739h-135v1311h-371v123h1020v-123h-514v-449h379c168.667 0 300.334 -44.667 395.001 -134c93.333 -89.333 140 -211 140 -365
c0 -154.667 -39.667 -276.667 -119 -366s-193.333 -134 -342 -134c-59.333 0 -107 6 -143 18l-21 6v121c44 -14.667 98.667 -22 164 -22z" />
    <glyph glyph-name="uni0403" unicode="&#x403;" horiz-adv-x="1245" 
d="M764 1577h-127l307 328h168zM205 1434h999v-123h-864v-1311h-135v1434z" />
    <glyph glyph-name="uni0404" unicode="&#x404;" horiz-adv-x="1665" 
d="M285 778h634.999v-123h-635c0 -94.667 27 -187.667 81 -279c29.333 -50 65 -94.667 107 -134c42.667 -41.333 96.834 -74.333 162.501 -99s136.5 -37 212.5 -37c86.667 0 164.667 15.333 234 46c70.667 30.667 124 66 160 106c38.667 42.667 70 86.667 94 132
c40.667 76 61 132.333 61 169h135c0 -77.333 -29.667 -165 -89 -263c-32.667 -54 -74 -104.667 -124 -152c-48.667 -46.667 -114.667 -85.667 -198 -117c-84 -31.333 -175 -47 -273 -47c-214.667 0 -385.667 68.667 -513 206c-128 137.333 -192 314.333 -192 531
c0 216 64 393 192 531c127.333 137.333 298.333 206 513 206c98.667 0 190 -15.667 274 -47c82 -30.667 147.667 -69.334 197 -116.001c50.667 -48.667 92 -99.667 124 -153c59.333 -98 89 -186 89 -264h-135c0 37.333 -21.667 95.666 -65 174.999
c-24 44 -55.667 87.333 -95 130c-38.667 40.667 -91.667 75.334 -159 104.001c-70 29.333 -146.667 44 -230 44c-96 0 -182.667 -19 -260 -57c-77.333 -39.333 -136.333 -87.666 -177 -144.999c-84 -116 -126 -231.667 -126 -347z" />
    <glyph glyph-name="uni0405" unicode="&#x405;" horiz-adv-x="1472" 
d="M1184 389c0 55.333 -17.498 101.167 -52.498 137.5s-83.167 62.833 -144.5 79.5c-44 12 -113.833 26.333 -209.5 43s-160.834 28.667 -195.501 36c-70.667 15.333 -135.667 35.333 -195 60c-58.667 24.667 -106 64 -142 118c-36.667 53.333 -55 120 -55 200
c0 121.333 50.333 217 151 287c101.333 69.333 230 104 386 104c160 0 289.667 -35.667 389 -107c98.667 -72 148 -175 148 -309v-41h-136v41c0 98 -36.333 171.333 -109 220s-170 73 -292 73c-119.333 0 -215.666 -23.333 -288.999 -70
c-74.667 -46.667 -112 -112.667 -112 -198c0 -56.667 17.5 -104 52.5 -142s82.833 -66 143.5 -84c46 -13.333 121.667 -30 227 -50s165.333 -31.667 180 -35c69.333 -14.667 133.666 -34.667 192.999 -60c58.667 -24.667 106.334 -62.334 143.001 -113.001
c36 -51.333 54 -114.666 54 -189.999c0 -130 -55 -230.667 -165 -302c-110.667 -71.333 -250.334 -107 -419.001 -107c-169.333 0 -308.333 37.333 -417 112c-109.333 74 -164 179.333 -164 316v81h135v-81c0 -102 41.667 -178.667 125 -230c82.667 -50.667 190 -76 322 -76
c131.333 0 238.666 24.333 321.999 73c84 48.667 126 120 126 214z" />
    <glyph glyph-name="uni0406" unicode="&#x406;" horiz-adv-x="1159" 
d="M123 1434h913v-123h-389v-1188h389v-123h-913v123h389v1188h-389v123z" />
    <glyph glyph-name="uni0407" unicode="&#x407;" horiz-adv-x="1159" 
d="M123 1434h913v-123h-389v-1188h389v-123h-913v123h389v1188h-389v123zM332 1640c-14.667 14 -21.998 32.667 -21.998 56s7.33301 42.333 22 57c15.333 14 35.666 21 60.999 21c26 0 46.667 -7 62 -21c15.333 -14.667 23 -33.667 23 -57s-7.66699 -42 -23 -56
c-14.667 -14.667 -35.334 -22 -62.001 -22c-26 0 -46.333 7.33301 -61 22zM705.002 1640c-15.333 14 -22.999 32.667 -22.999 56s7.66699 42.333 23 57c15.333 14 35.666 21 60.999 21c26.667 0 47.334 -7 62.001 -21c14.667 -14.667 22 -33.667 22 -57
s-7.33301 -42 -22 -56c-14.667 -14.667 -35.334 -22 -62.001 -22c-26 0 -46.333 7.33301 -61 22z" />
    <glyph glyph-name="uni0408" unicode="&#x408;" horiz-adv-x="1286" 
d="M102 539h136v-72c0 -112.667 31.667 -201 95 -265s153 -96 269 -96c118 0 208.333 32.333 271 97c62.667 63.333 94 151.333 94 264v844h-654v123h789v-967c0 -144 -44.667 -261.333 -134 -352c-89.333 -90 -211 -135 -365 -135c-155.333 0 -277.333 45 -366 135
c-90 90 -135 207.333 -135 352v72z" />
    <glyph glyph-name="uni0409" unicode="&#x409;" horiz-adv-x="2285" 
d="M29 -12l-9 4v127c22.667 -5.33301 44 -8 64 -8c54 0 94.333 19.667 121 59c15.333 24.667 27 44.667 35 60c10 22 18.333 48.333 25 79l16 80c2.66699 17.333 6.66699 46 12 86l129 959h825v-504h342c178 0 314.667 -40.333 410 -121s143 -195.334 143 -344.001
c0 -149.333 -47.5 -264.166 -142.5 -344.499s-231.833 -120.5 -410.5 -120.5h-477v1311h-567l-113 -836c-22.667 -174 -57.334 -300 -104.001 -378s-124 -117 -232 -117c-21.333 0 -43.666 2.66699 -66.999 8zM1589 807h-342v-684h342c134.667 0 237.334 29 308.001 87
s106 143 106 255s-35.333 197 -106 255s-173.334 87 -308.001 87z" />
    <glyph glyph-name="uni040A" unicode="&#x40a;" horiz-adv-x="2338" 
d="M1667 0l-504 -0.000976562v713h-823v-713h-135v1434h135v-598h823v598h135v-598h369c174 0 305.5 -35.667 394.5 -107s133.5 -175.666 133.5 -312.999c0 -136 -44.5 -239.333 -133.5 -310s-220.5 -106 -394.5 -106zM1667 712.999h-369v-590h369
c259.333 0 389 97.667 389 293c0 198 -129.667 297 -389 297z" />
    <glyph glyph-name="uni040B" unicode="&#x40b;" horiz-adv-x="1593" 
d="M391 1311h-371.001v123h1020v-123h-514v-449h310c206.667 0 357.334 -42.333 452.001 -127s142 -221.667 142 -411v-324h-136v324c0 147.333 -36.333 253.333 -109 318s-189 97 -349 97h-310v-739h-135v1311z" />
    <glyph glyph-name="uni040C" unicode="&#x40c;" horiz-adv-x="1314" 
d="M1305 0h-177l-788 715v-715h-135v1434h135v-699l733 699h174l-729 -709zM750 1577h-127l307 328h168z" />
    <glyph glyph-name="uni040E" unicode="&#x40e;" horiz-adv-x="1335" 
d="M923 1678c-58.667 -45.333 -139.667 -67.998 -243 -67.998s-184.333 22.667 -243 68c-58 44.667 -87 105.334 -87 182.001v10h123v-10c0 -40.667 18 -73.834 54 -99.501s87 -38.5 153 -38.5s117 12.667 153 38s54 58.666 54 99.999v10h123v-10
c0 -76.667 -29 -137.334 -87 -182.001zM31 1434l149.001 -0.000976562l502 -912h6l475 912h152l-590 -1121c-59.333 -112 -114.333 -192 -165 -240c-50.667 -48.667 -122.667 -73 -216 -73h-111v123h95c55.333 0 100.666 13.667 135.999 41
c34 26.667 70.333 76.334 109 149.001l37 68z" />
    <glyph glyph-name="uni040F" unicode="&#x40f;" horiz-adv-x="1568" 
d="M852 -348h-135v348h-512v1434h135v-1311h889v1311h135v-1434h-512v-348z" />
    <glyph glyph-name="uni0410" unicode="&#x410;" horiz-adv-x="1443" 
d="M629 1434h186l588 -1434h-141l-142 344h-796l-142 -344h-141zM375 467h694l-344 848h-6z" />
    <glyph glyph-name="uni0411" unicode="&#x411;" horiz-adv-x="1474" 
d="M205 1434h995.002v-123h-860v-443h455c179.333 0 315.166 -36.5 407.499 -109.5s138.5 -181.167 138.5 -324.5c0 -142 -46.333 -249.833 -139 -323.5s-228.334 -110.5 -407.001 -110.5h-590v1434zM340.002 745l-0.000976562 -622h455c274.667 0 412 103.667 412 311
c-1.33301 207.333 -138.666 311 -411.999 311h-455z" />
    <glyph glyph-name="uni0412" unicode="&#x412;" horiz-adv-x="1488" 
d="M1264 1055c0 -44 -7.00195 -84.999 -21.002 -122.999s-31.667 -67.333 -53 -88c-46.667 -46.667 -85.667 -74 -117 -82l-20 -8v-6c8.66699 -1.33301 19.334 -3.33301 32.001 -6c10 -2 33 -11.333 69 -28c34 -16.667 63.667 -35.667 89 -57
c26.667 -24 50.334 -58.333 71.001 -103c21.333 -46.667 32 -98.334 32 -155.001c0 -266 -175.667 -399 -527 -399h-614v1434h600c148 0 261.5 -32.667 340.5 -98s118.5 -159 118.5 -281zM818.998 676.001h-479v-553h479c258 0 387 92.333 387 277c0 184 -129 276 -387 276z
M339.998 1311v-512h463c107.333 0 187.833 21.333 241.5 64s80.167 106.667 79.5 192c0 83.333 -28 146.833 -84 190.5s-135 65.5 -237 65.5h-463z" />
    <glyph glyph-name="uni0413" unicode="&#x413;" horiz-adv-x="1245" 
d="M205 1434h999v-123h-864v-1311h-135v1434z" />
    <glyph glyph-name="uni0414" unicode="&#x414;" horiz-adv-x="1566" 
d="M156 -348h-136v471h82c96 0 156.333 107 181 321l114 990h891v-1311h207v-471h-135v348h-1204v-348zM1153 1311h-635l-100 -867c-8.66699 -77.333 -22.167 -143.5 -40.5 -198.5s-35.5 -89.167 -51.5 -102.5l-21 -16v-4h848v1188z" />
    <glyph glyph-name="uni0415" unicode="&#x415;" horiz-adv-x="1372" 
d="M1239 0h-1034v1434h1034v-123h-899v-514h782v-123h-782v-551h899v-123z" />
    <glyph glyph-name="uni0416" unicode="&#x416;" horiz-adv-x="1982" 
d="M1982 0h-176l-747 715v-715h-135v715l-748 -715h-176l756 725l-699 709h174l693 -699v699h135v-699l692 699h174l-698 -709z" />
    <glyph glyph-name="uni0417" unicode="&#x417;" horiz-adv-x="1409" 
d="M1276 397c0 -127.333 -53.001 -228.333 -159.001 -303c-106 -76 -242 -114 -408 -114c-167.333 0 -303.666 38.667 -408.999 116c-104.667 76.667 -157 182 -157 316v71h138v-71c0 -100 39 -176.667 117 -230c77.333 -53.333 181 -80 311 -80
c128.667 0 232.667 26.667 312 80c78.667 52.667 118 124.334 118 215.001c0 87.333 -34.667 155.666 -104 204.999c-70.667 50 -165 75.333 -283 76h-207v123h203c112 0 198.333 24.333 259 73c60.667 48 91 111 91 189c0 79.333 -36.333 144 -109 194
c-73.333 49.333 -170.666 74 -291.999 74s-218.333 -24.667 -291 -74c-72.667 -50 -109 -117.333 -109 -202v-47h-137v47c0 120.667 49.333 217.334 148 290.001c97.333 72.667 226.666 109 387.999 109c160.667 0 290.667 -36.333 390 -109
c99.333 -73.333 149 -167.333 149 -282c0 -45.333 -7.66699 -87.5 -23 -126.5s-35 -69.833 -59 -92.5c-48 -44.667 -89.667 -73.334 -125 -86.001l-24 -8v-9c28 -6.66699 59.333 -18.667 94 -36c32 -17.333 59.667 -37.333 83 -60c26.667 -26 49.167 -61 67.5 -105
s27.5 -91.667 27.5 -143z" />
    <glyph glyph-name="uni0418" unicode="&#x418;" horiz-adv-x="1587" 
d="M1247 1288h-6l-833 -1288h-203v1434h135v-1289h6l834 1289h202v-1434h-135v1288z" />
    <glyph glyph-name="uni0419" unicode="&#x419;" horiz-adv-x="1587" 
d="M1039 1678c-58.667 -45.333 -139.334 -68 -242.001 -68c-103.333 0 -184.333 22.667 -243 68c-58 44.667 -87 105.334 -87 182.001v10h123v-10c0 -41.333 17.833 -74.666 53.5 -99.999s86.834 -38 153.501 -38c66 0 117 12.667 153 38s54 58.666 54 99.999v10h122v-10
c0 -76.667 -29 -137.334 -87 -182.001zM1247 1288h-6l-833 -1288h-203v1434h135v-1289h6l834 1289h202v-1434h-135v1288z" />
    <glyph glyph-name="uni041A" unicode="&#x41a;" horiz-adv-x="1314" 
d="M1305 0h-177l-788 715v-715h-135v1434h135v-699l733 699h174l-729 -709z" />
    <glyph glyph-name="uni041B" unicode="&#x41b;" horiz-adv-x="1515" 
d="M29 -12l-9 4v127c22.667 -5.33301 44 -8 64 -8c54 0 94.333 19.667 121 59c15.333 24.667 27 44.667 35 60c10 22 18.333 48.333 25 79l16 80c2.66699 17.333 6.66699 46 12 86l129 959h889v-1434h-135v1311h-631l-113 -836c-22.667 -174 -57.334 -300 -104.001 -378
s-124 -117 -232 -117c-21.333 0 -43.666 2.66699 -66.999 8z" />
    <glyph glyph-name="uni041C" unicode="&#x41c;" horiz-adv-x="1835" 
d="M1495 1280h-6l-485 -879h-173l-485 879h-6v-1280h-135v1434h211l499 -912h3h2l499 912h211v-1434h-135v1280z" />
    <glyph glyph-name="uni041D" unicode="&#x41d;" horiz-adv-x="1581" 
d="M1376 0h-135v682h-901v-682h-135v1434h135v-629h901v629h135v-1434z" />
    <glyph glyph-name="uni041E" unicode="&#x41e;" horiz-adv-x="1695" 
d="M335 187c-128 137.333 -192 314.001 -192 530.001c0 215.333 64 392 192 530c127.333 138 298.333 207 513 207c214 0 385 -69 513 -207c127.333 -138.667 191 -315.334 191 -530.001c0 -216 -63.667 -392.667 -191 -530c-128 -138 -299 -207 -513 -207
c-214.667 0 -385.667 69 -513 207zM1260 279.001c102 115.333 153.001 261.333 153.001 438s-51 322.667 -153 438c-102.667 114.667 -240 172 -412 172s-309 -57.333 -411 -172c-102.667 -114.667 -154 -260.667 -154 -438s51.333 -323.333 154 -438
c102 -115.333 239 -173 411 -173c171.333 0 308.666 57.667 411.999 173z" />
    <glyph glyph-name="uni041F" unicode="&#x41f;" horiz-adv-x="1568" 
d="M1364 0h-135v1311h-889v-1311h-135v1434h1159v-1434z" />
    <glyph glyph-name="uni0420" unicode="&#x420;" horiz-adv-x="1423" 
d="M725 436l-385 -0.000976562v-436h-135v1434h520c178.667 0 315.834 -43 411.501 -129s143.5 -209.667 143.5 -371s-47.833 -284.666 -143.5 -369.999s-232.834 -128 -411.501 -128zM340 1311v-752h385c133.333 0 236 32 308 96s108 157 108 279s-36 215.333 -108 280
s-174.667 97 -308 97h-385z" />
    <glyph glyph-name="uni0421" unicode="&#x421;" horiz-adv-x="1665" 
d="M336 187c-128.667 136.667 -193.003 313.332 -193.003 529.999c0 216 64.333 392.667 193 530c128 138 299.333 207 514 207c118.667 0 225 -22 319 -66c94.667 -45.333 166.334 -100 215.001 -164c48 -63.333 84.667 -125.5 110 -186.5s38 -115.5 38 -163.5h-135
c0 42 -22 102 -66 180c-26.667 46 -58.667 88.667 -96 128c-38 38.667 -90.667 72.667 -158 102c-67.333 28.667 -143 43 -227 43c-175.333 0 -313.333 -57.333 -414 -172c-102 -115.333 -153 -261.333 -153 -438s51 -322.667 153 -438
c101.333 -115.333 239.333 -173 414 -173c82.667 0 158.334 14.667 227.001 44c67.333 29.333 120 63.333 158 102c37.333 38.667 69.333 81.334 96 128.001c44 78 66 137.667 66 179h135c0 -48 -12.667 -102.5 -38 -163.5s-62 -122.833 -110 -185.5
c-49.333 -64 -121 -118.333 -215 -163c-93.333 -44.667 -199.666 -67 -318.999 -67c-214.667 0 -386 69 -514 207z" />
    <glyph glyph-name="uni0422" unicode="&#x422;" horiz-adv-x="1286" 
d="M575 1311h-534v123h1204v-123h-534v-1311h-136v1311z" />
    <glyph glyph-name="uni0423" unicode="&#x423;" horiz-adv-x="1335" 
d="M31 1434l149.001 -0.000976562l502 -912h6l475 912h152l-590 -1121c-59.333 -112 -114.333 -192 -165 -240c-50.667 -48.667 -122.667 -73 -216 -73h-111v123h95c55.333 0 100.666 13.667 135.999 41c34 26.667 70.333 76.334 109 149.001l37 68z" />
    <glyph glyph-name="uni0424" unicode="&#x424;" horiz-adv-x="1900" 
d="M334 275c-134 98 -201 245.332 -201 441.999s67 344.334 201 443.001c133.333 97.333 316.333 147.666 549 150.999v143h135v-143c232.667 -3.33301 415.667 -53.666 549 -150.999c133.333 -99.333 200 -247 200 -443c0 -196.667 -66.667 -344 -200 -442
s-316.333 -148.667 -549 -152v-143h-135v143c-232.667 3.33301 -415.667 54 -549 152zM434 1068c-108 -77.333 -162 -194.333 -162 -351s54 -273.667 162 -351c108 -76.667 257.667 -116.667 449 -120v942c-191.333 -3.33301 -341 -43.333 -449 -120zM1467 365.999
c107.333 77.333 161 194.333 161 351s-53.667 273.667 -161 351c-108 76.667 -257.667 116.667 -449 120v-942c191.333 3.33301 341 43.333 449 120z" />
    <glyph glyph-name="uni0425" unicode="&#x425;" horiz-adv-x="1302" 
d="M1063 1434h156l-490 -689l533 -745h-156l-455 637l-454 -637h-156l532 745l-489 689h156l411 -578z" />
    <glyph glyph-name="uni0426" unicode="&#x426;" horiz-adv-x="1579" 
d="M1507 -348h-135v348h-1167v1434h135v-1311h825v1311h135v-1311h207v-471z" />
    <glyph glyph-name="uni0427" unicode="&#x427;" horiz-adv-x="1433" 
d="M184 1036v398h135v-398c0 -146.667 36.667 -252.667 110 -318c72.667 -64.667 189 -97 349 -97h316v813h135v-1434h-135v498h-316c-206 0 -356.333 42.333 -451 127c-95.333 84 -143 221 -143 411z" />
    <glyph glyph-name="uni0428" unicode="&#x428;" horiz-adv-x="2011" 
d="M1073 123h598v1311h135v-1434h-1601v1434h135v-1311h598v1311h135v-1311z" />
    <glyph glyph-name="uni0429" unicode="&#x429;" horiz-adv-x="2084" 
d="M2013 -348h-135v348h-1673v1434h135v-1311h598v1311h135v-1311h598v1311h135v-1311h207v-471z" />
    <glyph glyph-name="uni042A" unicode="&#x42a;" horiz-adv-x="1642" 
d="M406 1311l-406 0.00195312v123h541v-504h405c178 0 314.667 -40.333 410 -121s143 -195.334 143 -344.001s-47.667 -263.334 -143 -344.001s-232 -121 -410 -121h-540v1311zM946 807.002h-405v-684h405c134.667 0 237.334 29 308.001 87s106 143 106 255
s-35.333 197 -106 255s-173.334 87 -308.001 87z" />
    <glyph glyph-name="uni042B" unicode="&#x42b;" horiz-adv-x="1853" 
d="M1513 1434h136v-1434h-136v1434zM205 0v1434h135v-504h369c178 0 314.667 -40.333 410 -121s143 -195.334 143 -344.001s-47.667 -263.334 -143 -344.001s-232 -121 -410 -121h-504zM709 807.002h-369v-684h369c134 0 236.333 29 307 87s106 143 106 255
s-35.333 197 -106 255s-173 87 -307 87z" />
    <glyph glyph-name="uni042C" unicode="&#x42c;" horiz-adv-x="1441" 
d="M205 0v1434h135v-504h405c178 0 314.667 -40.333 410 -121s143 -195.334 143 -344.001c0 -149.333 -47.5 -264.166 -142.5 -344.499s-231.833 -120.5 -410.5 -120.5h-540zM745 807h-405v-684h405c134.667 0 237.334 29 308.001 87s106 143 106 255s-35.333 197 -106 255
s-173.334 87 -308.001 87z" />
    <glyph glyph-name="uni042D" unicode="&#x42d;" horiz-adv-x="1665" 
d="M1380 655h-635v123h635c0 114.667 -41.667 230.334 -125 347.001c-41.333 57.333 -100.333 105.666 -177 144.999c-77.333 38 -164.333 57 -261 57c-84 0 -160.333 -14.667 -229 -44c-68 -28.667 -121.333 -63.334 -160 -104.001c-39.333 -42.667 -71 -86 -95 -130
c-43.333 -79.333 -65 -137.666 -65 -174.999h-135c0 78 29.667 166 89 264c32 53.333 73.333 104.333 124 153c49.333 46.667 115.333 85.334 198 116.001c84 31.333 175 47 273 47c214.667 0 386 -69 514 -207c127.333 -138.667 191 -315.334 191 -530.001
c0 -216.667 -63.667 -393.667 -191 -531c-128 -137.333 -299.333 -206 -514 -206c-99.333 0 -190.333 15.667 -273 47s-148.667 70.333 -198 117c-50 47.333 -91.333 98 -124 152c-59.333 98 -89 185.667 -89 263h135c0 -36.667 20.333 -93 61 -169
c24 -45.333 55.333 -89.333 94 -132c36 -40 89.667 -75.333 161 -106c68 -30.667 145.667 -46 233 -46c76 0 146.833 12.333 212.5 37s120.167 57.667 163.5 99c42 40 77.333 84.667 106 134c54 91.333 81 184.333 81 279z" />
    <glyph glyph-name="uni042E" unicode="&#x42e;" horiz-adv-x="2039" 
d="M340 1434v-656h276c3.33301 152 51.666 298 144.999 438c46.667 69.333 112.667 126.666 198 171.999c84.667 44 182.667 66 294 66c206.667 0 365.334 -70.333 476.001 -211c111.333 -141.333 167 -316.666 167 -525.999c0 -208.667 -52.333 -381 -157 -517
c-52.667 -69.333 -120.834 -123.333 -204.501 -162s-177.5 -58 -281.5 -58c-87.333 0 -167.666 14 -240.999 42s-134.333 65.667 -183 113c-47.333 44.667 -87.333 97.667 -120 159c-60 110 -91.667 230.333 -95 361h-274v-655h-135v1434h135zM752 717
c0 -172.667 41.998 -317.666 125.998 -434.999s209 -176 375 -176c112.667 0 208.334 29.667 287.001 89s134.334 133.333 167.001 222c33.333 90 50 190 50 300c0 166 -39 307 -117 423c-39.333 58.667 -92.5 104.5 -159.5 137.5s-142.833 49.5 -227.5 49.5
c-166.667 0 -291.667 -58.667 -375 -176c-84 -116.667 -126 -261.334 -126 -434.001z" />
    <glyph glyph-name="uni042F" unicode="&#x42f;" horiz-adv-x="1411" 
d="M1206 0h-135.001v535h-467l-317 -535h-154l332 557c-27.333 0 -67.666 17.333 -120.999 52c-32.667 21.333 -62 46.333 -88 75c-29.333 32 -53.333 74.5 -72 127.5s-28 110.833 -28 173.5c0 130 43.333 237.333 130 322s199 127 337 127h583v-1434zM294.999 983
c0 -94 28.668 -171.667 86.001 -233c56.667 -62 131.667 -93 225 -93h465v654h-448c-92.667 0 -170.334 -31.333 -233.001 -94c-63.333 -63.333 -95 -141.333 -95 -234z" />
    <glyph glyph-name="uni0430" unicode="&#x430;" horiz-adv-x="1292" 
d="M123 274c0 97.333 44.002 171.665 132.002 222.998c87.333 50.667 197.666 76 330.999 76c70 0 137 -8.66699 201 -26c63.333 -18 108.333 -35 135 -51l43 -27v184c0 82 -31 144.667 -93 188c-62.667 42.667 -140.334 64 -233.001 64
c-90.667 0 -169.334 -18.667 -236.001 -56c-66.667 -36.667 -100 -82.667 -100 -138h-127c3.33301 82.667 44.333 155.334 123 218.001c79.333 63.333 191.333 95 336 95c130.667 0 239.334 -31.333 326.001 -94c87.333 -63.333 131 -155.666 131 -276.999v-424
c0 -48 7.5 -81.833 22.5 -101.5s40.167 -29.5 75.5 -29.5c22.667 0 41 2.66699 55 8l6 5v-111c-18.667 -9.33301 -46 -14 -82 -14c-63.333 0 -108.666 14.333 -135.999 43c-28 27.333 -44.667 49 -50 65l-2 12h-6c-4.66699 -8 -24.667 -22.333 -60 -43
c-24.667 -15.333 -50 -28.333 -76 -39c-64.667 -29.333 -146.334 -44 -245.001 -44c-138 0 -251 24 -339 72s-132 122 -132 222zM254.002 273.999c0 -117.333 118.668 -176 356.001 -176c70 0 135 10.333 195 31c59.333 20.667 98.666 37.667 117.999 51
c18 13.333 32 24.333 42 33v141c-4.66699 6 -17.667 15.667 -39 29c-24 14 -64.667 29.333 -122 46c-60 17.333 -124.667 26 -194 26c-140 0 -241 -24.333 -303 -73c-35.333 -28 -53 -64 -53 -108z" />
    <glyph glyph-name="uni0431" unicode="&#x431;" horiz-adv-x="1316" 
d="M707 1165c-82.667 0 -155.169 -14.333 -217.502 -43s-110.166 -67.667 -143.499 -117c-61.333 -91.333 -92 -194.333 -92 -309h6c2.66699 6.66699 7 15.334 13 26.001c4.66699 8.66699 19 27.334 43 56.001c24.667 29.333 51 53.666 79 72.999
c32 22.667 74.333 42 127 58c54 16.667 114 25 180 25c144 0 262.333 -44.667 355 -134c91.333 -89.333 137 -203.666 137 -342.999c0 -140.667 -47.333 -255.334 -142 -344.001s-220 -133 -376 -133c-163.333 0 -294.666 56.667 -393.999 170s-149 261.333 -149 444v86
c0 179.333 47.667 325.666 143 438.999c94.667 112.667 231.334 169 410.001 169c180 0 270 48.667 270 146h131c0 -79.333 -29 -144 -87 -194c-58.667 -50 -156.334 -75 -293.001 -75zM958.998 204c69.333 67.333 104.001 151.667 104.001 253
c0 100.667 -34.667 185 -104 253c-70.667 67.333 -164.334 101 -281.001 101c-108 0 -199 -34 -273 -102c-74.667 -68.667 -112 -152.667 -112 -252c0 -102 37.333 -186.333 112 -253c74 -68 165 -102 273 -102c117.333 0 211 34 281 102z" />
    <glyph glyph-name="uni0432" unicode="&#x432;" horiz-adv-x="1232" 
d="M1036 737c0 -54 -13.001 -98.666 -39.001 -133.999c-25.333 -34.667 -51 -56 -77 -64l-39 -13v-6c16.667 0 42.334 -7 77.001 -21c25.333 -11.333 47.333 -24.333 66 -39c21.333 -17.333 39.333 -42.333 54 -75s22 -69 22 -109c0 -184 -133.333 -276 -400 -276h-526v1004
h500c114.667 0 203.667 -22.833 267 -68.5s95 -111.834 95 -198.501zM300.999 119.001h399c182 0 273 55.333 273 166s-89.333 166 -268 166h-404v-332zM908.999 727.001c0 105.333 -78.333 158 -235 158h-373v-316h391c69.333 0 122.833 13.667 160.5 41
s56.5 66.333 56.5 117z" />
    <glyph glyph-name="uni0433" unicode="&#x433;" horiz-adv-x="983" 
d="M174 0v1004h778v-119h-651v-885h-127z" />
    <glyph glyph-name="uni0434" unicode="&#x434;" horiz-adv-x="1234" 
d="M137 -256h-127v375h80c70.667 0 117.667 88.667 141 266l78 619h709v-885h156v-375h-127v256h-910v-256zM891 885h-473l-64 -500c-8.66699 -68 -20.5 -124.833 -35.5 -170.5s-28.167 -72.167 -39.5 -79.5l-17 -12v-4h629v766z" />
    <glyph glyph-name="uni0435" unicode="&#x435;" horiz-adv-x="1339" 
d="M1206 502l-5.99707 -77.999h-930c0 -30.667 16.667 -74 50 -130c19.333 -32.667 42.666 -62.667 69.999 -90c29.333 -29.333 69.333 -53.666 120 -72.999s105.334 -29 164.001 -29c42.667 0 83.667 5 123 15s71.666 23 96.999 39c49.333 30.667 81.666 58 96.999 82
l13 16h153c-4 -10 -8.66699 -19.667 -14 -29c-8 -14.667 -25 -37 -51 -67c-28 -32 -58 -59.667 -90 -83c-34 -24.667 -80 -46.334 -138 -65.001c-58.667 -20 -122 -30 -190 -30c-158.667 0 -288.334 48.333 -389.001 145c-101.333 97.333 -152 223 -152 377
s50.667 279.667 152 377c100.667 96.667 229 145 385 145s284.333 -48.333 385 -145s151 -222.334 151 -377.001zM266.003 543.001h807c0 81.333 -35.333 161.333 -106 240s-169.667 118 -297 118s-226.333 -39.333 -297 -118c-71.333 -79.333 -107 -159.333 -107 -240z" />
    <glyph glyph-name="uni0436" unicode="&#x436;" horiz-adv-x="1646" 
d="M1647 0h-170l-590 502v-502h-127v502l-590 -502h-170l596 508l-555 496h170l549 -494v494h127v-494l549 494h170l-555 -496z" />
    <glyph glyph-name="uni0437" unicode="&#x437;" horiz-adv-x="1173" 
d="M1051 274c0 -102.667 -43.002 -177.335 -129.002 -224.002c-85.333 -46.667 -198.666 -70 -339.999 -70c-312.667 0 -469 101 -469 303v26h127v-26c0 -65.333 28.333 -112.5 85 -141.5s142.334 -43.5 257.001 -43.5c228 0 342 58.667 342 176
c0 120 -112 180.333 -336 181h-174v118h194c192.667 4 289 59.333 289 166c0 110.667 -106.333 166 -319 166c-104.667 0 -184.5 -15.167 -239.5 -45.5s-82.5 -73.166 -82.5 -128.499v-8h-127v8c0 95.333 41.333 168 124 218s191 75 325 75c136 0 244.333 -23.333 325 -70
s121 -117 121 -211c0 -54 -15.667 -99.333 -47 -136c-31.333 -36 -62 -58.667 -92 -68l-47 -15v-4c24.667 -6.66699 49 -15.667 73 -27c24.667 -12 46.667 -26 66 -42c20.667 -17.333 38.167 -42.166 52.5 -74.499s21.5 -66.5 21.5 -102.5z" />
    <glyph glyph-name="uni0438" unicode="&#x438;" horiz-adv-x="1284" 
d="M1110 0h-125v868h-4l-629 -868h-178v1004h125v-869h4l629 869h178v-1004z" />
    <glyph glyph-name="uni0439" unicode="&#x439;" horiz-adv-x="1284" 
d="M844 1195c-48 -36 -113.669 -53.999 -197.002 -53.999s-148.666 17.667 -195.999 53c-48 35.333 -72 86.666 -72 153.999v6h115v-4c0 -32 13.333 -57.833 40 -77.5s64.334 -29.5 113.001 -29.5s86.5 9.83301 113.5 29.5s40.5 45.5 40.5 77.5v4h114v-6
c0 -66.667 -23.667 -117.667 -71 -153zM1110 0.000976562h-125v868h-4l-629 -868h-178v1004h125v-869h4l629 869h178v-1004z" />
    <glyph glyph-name="uni043A" unicode="&#x43a;" horiz-adv-x="1093" 
d="M1094 0h-170l-623 502v-502h-127v1004h127v-494l582 494h170l-582 -496z" />
    <glyph glyph-name="uni043B" unicode="&#x43b;" horiz-adv-x="1222" 
d="M236 387l94 617h719v-1004h-127v885h-486l-76 -498c-22 -146 -53.333 -250.333 -94 -313s-100.667 -94 -180 -94c-24 0 -46 3.33301 -66 10l-10 4v119c15.333 -6 37.333 -9.66699 66 -11c48 0 83 24 105 72c22 50.667 40.333 121.667 55 213z" />
    <glyph glyph-name="uni043C" unicode="&#x43c;" horiz-adv-x="1462" 
d="M1161 862h-4l-340 -592h-172l-340 592h-4v-862h-127v1004h197l358 -635h4l359 635h196v-1004h-127v862z" />
    <glyph glyph-name="uni043D" unicode="&#x43d;" horiz-adv-x="1286" 
d="M1112 0h-127v459h-684v-459h-127v1004h127v-426h684v426h127v-1004z" />
    <glyph glyph-name="uni043E" unicode="&#x43e;" horiz-adv-x="1339" 
d="M285 125c-101.333 97.333 -152 223.002 -152 377.002s50.667 279.667 152 377c100.667 96.667 229 145 385 145s284.333 -48.333 385 -145s151 -222.334 151 -377.001s-50.333 -280.334 -151 -377.001s-229 -145 -385 -145s-284.333 48.333 -385 145zM963 217.002
c74.667 76.667 111.999 171.667 111.999 285s-37.333 208.333 -112 285c-74.667 76 -172.334 114 -293.001 114c-120 0 -217.667 -38 -293 -114c-75.333 -77.333 -113 -172.333 -113 -285s37.667 -207.667 113 -285c74.667 -76.667 172.334 -115 293.001 -115
s218.334 38.333 293.001 115z" />
    <glyph glyph-name="uni043F" unicode="&#x43f;" horiz-adv-x="1263" 
d="M1090 0h-127v885h-662v-885h-127v1004h916v-1004z" />
    <glyph glyph-name="uni0440" unicode="&#x440;" horiz-adv-x="1376" 
d="M717 1024c150.667 0 276.335 -48.668 377.002 -146.001c99.333 -98 149 -223.333 149 -376c0 -153.333 -49.667 -278.666 -149 -375.999c-100.667 -97.333 -226.334 -146 -377.001 -146c-174.667 -2.66699 -309.334 59.333 -404.001 186l-4 6h-8v-582h-127v1414h127v-173
h8l4 7c97.333 126 232 188 404 186zM1000 216.999c74.667 76.667 112 171.667 112 285s-37.333 208.333 -112 285c-74.667 76 -172.334 114 -293.001 114c-118.667 0 -216 -37 -292 -111c-76 -74.667 -114 -170.667 -114 -288s38 -213.333 114 -288
c74.667 -74.667 172 -112 292 -112c120.667 0 218.334 38.333 293.001 115z" />
    <glyph glyph-name="uni0441" unicode="&#x441;" horiz-adv-x="1312" 
d="M283 125c-100 96.667 -150.001 222.328 -150.001 376.995s50 280.334 150 377.001c98.667 96.667 226.334 145 383.001 145c68 0 132.667 -10.167 194 -30.5s112.333 -47.166 153 -80.499c38.667 -32.667 72 -68 100 -106c51.333 -70 77 -134.333 77 -193h-133
c0 14.667 -7.16699 36.334 -21.5 65.001s-34.833 59.667 -61.5 93c-29.333 36 -70.666 66.333 -123.999 91c-56 25.333 -117.333 38 -184 38c-120 0 -217 -38 -291 -114c-74 -76.667 -111 -171.667 -111 -285s37 -208.333 111 -285c72.667 -76.667 169.667 -115 291 -115
c66.667 0 128 12.667 184 38c54 24.667 95.333 55.334 124 92.001c55.333 70 83 122.333 83 157h133c2 -38 -12.833 -85.667 -44.5 -143s-75.834 -109 -132.501 -155c-40.667 -33.333 -91.667 -60.166 -153 -80.499s-126 -30.5 -194 -30.5c-156 0 -283.667 48.333 -383 145z
" />
    <glyph glyph-name="uni0442" unicode="&#x442;" horiz-adv-x="1015" 
d="M31 1004h954v-119h-414v-885h-127v885h-413v119z" />
    <glyph glyph-name="uni0443" unicode="&#x443;" horiz-adv-x="1095" 
d="M0 1004h137.001l412 -889h6l406 889h135l-486 -1055c-60.667 -131.333 -118 -227 -172 -287c-55.333 -61.333 -119.333 -92 -192 -92c-43.333 0 -78.333 5.33301 -105 16l-14 4v119c28 -13.333 67.667 -20 119 -20c41.333 0 79.666 20 114.999 60
c34.667 42 72.667 108.667 114 200l8 18z" />
    <glyph glyph-name="uni0444" unicode="&#x444;" horiz-adv-x="1552" 
d="M294 126c-107.333 93.333 -161 218.667 -161 376c0 156.667 53.667 282 161 376c107.333 93.333 247 142 419 146v410h127v-410c172 -4 311.667 -52.667 419 -146c106.667 -94 160 -219.333 160 -376c0 -158 -53.333 -283.333 -160 -376
c-107.333 -93.333 -247 -142 -419 -146v-390h-127v390c-172 4 -311.667 52.667 -419 146zM713 102.001v799c-140.667 -4.66699 -250.667 -43.667 -330 -117s-119 -167.333 -119 -282s39.667 -208.667 119 -282c80 -74 190 -113.333 330 -118zM1170 220.001
c78.667 72.667 118 166.667 118 282s-39.333 209.333 -118 282c-78.667 73.333 -188.667 112.333 -330 117v-799c140 4.66699 250 44 330 118z" />
    <glyph glyph-name="uni0445" unicode="&#x445;" horiz-adv-x="1015" 
d="M817 1004h146l-381 -476l424 -528h-146l-352 438l-352 -438h-146l424 528l-381 476h146l309 -386z" />
    <glyph glyph-name="uni0446" unicode="&#x446;" horiz-adv-x="1271" 
d="M1083 -256v256h-909v1004h127v-885h627v885h127v-885h155v-375h-127z" />
    <glyph glyph-name="uni0447" unicode="&#x447;" horiz-adv-x="1177" 
d="M281 1004v-306c0 -169.333 104.333 -254 313 -254h283v560h127v-1004h-127v326h-283c-293.333 0 -440 124 -440 372v306h127z" />
    <glyph glyph-name="uni0448" unicode="&#x448;" horiz-adv-x="1662" 
d="M301 119h467v885h127v-885h467v885h127v-1004h-1315v1004h127v-885z" />
    <glyph glyph-name="uni0449" unicode="&#x449;" horiz-adv-x="1705" 
d="M1518 -256v256h-1344v1004h127v-885h467v885h127v-885h467v885h127v-885h156v-375h-127z" />
    </font>
</defs>
</svg>
