<?xml version="1.0" standalone="no"?>
<!DOCTYPE svg PUBLIC "-//W3C//DTD SVG 1.1//EN" "http://www.w3.org/Graphics/SVG/1.1/DTD/svg11.dtd" >
<svg>
<metadata>
Created by FontForge 20090914 at Fri Jan 20 16:30:07 2023
 By www-data
Copyright (c) 2017 by TypeType. Designer Ivan Gladkikh, technical designers Victoria Usmanova, Nadyr Rakhimov. All rights reserved.
</metadata>
<defs>
<font id="TTTravels-DemiBold" horiz-adv-x="1388" >
  <font-face 
    font-family="TT Travels DemiBold"
    font-weight="600"
    font-stretch="normal"
    units-per-em="2048"
    panose-1="2 0 5 3 3 0 0 2 0 4"
    ascent="1638"
    descent="-410"
    x-height="1004"
    cap-height="1434"
    bbox="-410 -592.003 2945 1954"
    underline-thickness="0"
    underline-position="0"
    unicode-range="U+000D-U+FB06"
  />
<missing-glyph horiz-adv-x="0" 
 />
    <glyph glyph-name="uniFB00" unicode="ff" horiz-adv-x="1433" 
d="M1366 1004l0.00195312 -197h-295v-807h-229v807h-410v-807h-229v807h-172v129l172 68v49c0 132.667 38.667 232.667 116 300s180.666 101 309.999 101c94.667 0 169.667 -17.667 225 -53c44.667 -28.667 74.667 -56 90 -82l8 -16h11c3.33301 9.33301 17 27 41 53
c17.333 18 36 33.333 56 46c57.333 34.667 128.666 52 213.999 52c38 0 76.333 -4.66699 115 -14c36.667 -10 63.667 -19 81 -27l25 -14v-209c-41.333 36.667 -101.333 55 -180 55c-77.333 0 -137.333 -18 -180 -54s-64 -89.667 -64 -161v-26h295zM432.002 1030v-26h410v26
c0 143.333 -68.333 215 -205 215s-205 -71.667 -205 -215z" />
    <glyph glyph-name="uniFB01" unicode="fi" horiz-adv-x="1224" 
d="M432 1004h639v-1004h-229v807h-410v-807h-229v807h-172v129l172 68v49c0 128.667 40 227.667 120 297c79.333 69.333 184.666 104 315.999 104c134.667 0 240.334 -32.333 317.001 -97s115 -150.334 115 -257.001h-229c0 30.667 -16.333 62.334 -49 95.001
c-33.333 33.333 -85.333 50 -156 50c-62.667 0 -112.5 -18.667 -149.5 -56s-55.5 -90.333 -55.5 -159v-26z" />
    <glyph glyph-name="uniFB02" unicode="fl" horiz-adv-x="1224" 
d="M1071 0l-229 -0.000976562v807h-410v-807h-229v807h-172v129l172 68v49c0 131.333 39.667 231 119 299c78.667 68 183.667 102 315 102c134.667 0 240.667 -34.333 318 -103c77.333 -69.333 116 -168.666 116 -297.999v-1053zM432 1004h410v26
c0 143.333 -68.333 215 -205 215s-205 -71.667 -205 -215v-26z" />
    <glyph glyph-name="uniFB03" unicode="ffi" horiz-adv-x="1865" 
d="M1073 1004h638.998v-1004h-229v807h-410v-807h-231v807h-410v-807h-229v807h-172v129l172 68v49c0 131.333 38.333 231 115 299c76 68 176 102 300 102c100.667 0 178.667 -17.667 234 -53c47.333 -30 78 -57.333 92 -82l8 -16h11c3.33301 9.33301 17.333 27 42 53
c19.333 19.333 39 34.666 59 45.999c24.667 14 57.334 26.167 98.001 36.5s83.334 15.5 128.001 15.5c130.667 0 233.667 -32.333 309 -97c75.333 -65.333 113 -151 113 -257h-229c0 30.667 -16.333 62.334 -49 95.001c-33.333 33.333 -84 50 -152 50
c-64 0 -114.833 -18.333 -152.5 -55s-56.5 -90 -56.5 -160v-26zM431.998 1030v-26h410v26c0 143.333 -68.333 215 -205 215s-205 -71.667 -205 -215z" />
    <glyph glyph-name="uniFB04" unicode="ffl" horiz-adv-x="1863" 
d="M952 1303l10.998 0.000976562c3.33301 9.33301 17.333 27 42 53c19.333 19.333 39 34.666 59 45.999c24.667 14 57.334 26.167 98.001 36.5s83.334 15.5 128.001 15.5c130.667 0 233.667 -35 309 -105c74 -71.333 111 -170 111 -296v-1053h-229v807h-410v-807h-229v807
h-410v-807h-229v807h-172v129l172 68v49c0 131.333 38.333 231 115 299c76 68 176 102 300 102c100.667 0 178.667 -17.667 234 -53c47.333 -30 78 -57.333 92 -82zM431.998 1030v-26h410v26c0 143.333 -68.333 215 -205 215s-205 -71.667 -205 -215zM1071 1004h410v26
c0 143.333 -68.333 215 -205 215s-205 -71.667 -205 -215v-26z" />
    <glyph glyph-name="f_j.liga" unicode="fj" horiz-adv-x="1224" 
d="M432 1004l639 -0.000976562v-1039c0 -263.333 -121.333 -395 -364 -395c-52 0 -96.667 6 -134 18l-18 6v205c30.667 -13.333 64.667 -20 102 -20c62 0 108.667 14.667 140 44c30 28.667 45 84.334 45 167.001v817h-410v-807h-229v807h-172v129l172 68v49
c0 128.667 40 227.667 120 297c79.333 69.333 184.666 104 315.999 104c134.667 0 240.334 -32.333 317.001 -97s115 -150.334 115 -257.001h-229c0 30.667 -16.333 62.334 -49 95.001c-33.333 33.333 -85.333 50 -156 50c-62.667 0 -112.5 -18.667 -149.5 -56
s-55.5 -90.333 -55.5 -159v-26z" />
    <glyph glyph-name="f_k.liga" unicode="fk" horiz-adv-x="1871" 
d="M1071 0l-229 -0.000976562v807h-410v-807h-229v807h-172v129l172 68v49c0 131.333 39.667 231 119 299c78.667 68 183.667 102 315 102c134.667 0 240.667 -34.333 318 -103c77.333 -69.333 116 -168.666 116 -297.999v-525l483 476h281l-496 -486l533 -518h-287
l-514 502v-502zM432 1004h410v26c0 143.333 -68.333 215 -205 215s-205 -71.667 -205 -215v-26z" />
    <glyph glyph-name=".notdef" horiz-adv-x="0" 
 />
    <glyph glyph-name="glyph1" horiz-adv-x="0" 
 />
    <glyph glyph-name="glyph1" horiz-adv-x="0" 
 />
    <glyph glyph-name="uni000D" unicode="&#xd;" horiz-adv-x="0" 
 />
    <glyph glyph-name="space" unicode=" " horiz-adv-x="491" 
 />
    <glyph glyph-name="exclam" unicode="!" horiz-adv-x="634" 
d="M190 1434h254v-299l-38 -705h-177l-39 705v299zM422 210c26 -24 39 -56.333 39 -97c0 -42 -13 -74.333 -39 -97c-26 -24 -60.667 -36 -104 -36c-44 0 -79 12 -105 36c-26 22.667 -39 55 -39 97c0 40.667 13 73 39 97s61 36 105 36c43.333 0 78 -12 104 -36z" />
    <glyph glyph-name="quotedbl" unicode="&#x22;" horiz-adv-x="831" 
d="M358 1434v-195l-30 -399h-154l-31 399v195h215zM688 1434v-195l-31 -399h-153l-31 399v195h215z" />
    <glyph glyph-name="numbersign" unicode="#" horiz-adv-x="1476" 
d="M930 0h-199l86 354h-332l-86 -354h-198l86 354h-226v176h269l90 373h-213v176h256l86 355h199l-86 -355h331l86 355h199l-86 -355h223v-176h-266l-90 -373h221v-176h-264zM950 903h-332l-90 -373h332z" />
    <glyph glyph-name="dollar" unicode="$" horiz-adv-x="1392" 
d="M819 -252l-253.998 0.000976562v238c-11.333 0.666992 -27.666 2.66699 -48.999 6c-22.667 3.33301 -58.667 13.666 -108 30.999c-50.667 16.667 -96.334 39 -137.001 67c-39.333 26.667 -75.666 69.334 -108.999 128.001c-32.667 57.333 -49 124 -49 200v67h262v-71
c0 -144.667 107.333 -217 322 -217c214 0 321 69.667 321 209c0 28.667 -7.66699 53.667 -23 75s-34.833 38.666 -58.5 51.999s-54.334 25.666 -92.001 36.999s-73.834 20.5 -108.501 27.5s-75.834 16 -123.501 27s-88.834 21.833 -123.501 32.5
c-70.667 20.667 -130.167 45.334 -178.5 74.001s-87.166 68 -116.499 118c-32.667 53.333 -49 118.333 -49 195c0 68.667 14.333 129.667 43 183c29.333 53.333 64.666 93.333 105.999 120c86.667 54 162.667 85.667 228 95l43 6v238h254v-240
c10 -0.666992 24.333 -2.66699 43 -6s51 -13.666 97 -30.999c46 -18 87 -40 123 -66c34.667 -27.333 66.667 -68.333 96 -123c28.667 -54.667 43 -118 43 -190v-39h-263v39c0 138 -91.333 207 -274 207c-86 0 -153.5 -16.667 -202.5 -50s-73.5 -80 -73.5 -140
c0 -82 57.667 -140 173 -174c32.667 -9.33301 89.5 -23 170.5 -41s142.833 -33.333 185.5 -46c62.667 -19.333 119.334 -42.333 170.001 -69c51.333 -27.333 93 -67.333 125 -120s48 -115.667 48 -189c0.666992 -77.333 -16 -143.5 -50 -198.5s-78 -99.167 -132 -132.5
c-42 -27.333 -86.667 -48.333 -134 -63s-87.333 -23.334 -120 -26.001l-25 -2v-238z" />
    <glyph glyph-name="percent" unicode="%" horiz-adv-x="1701" 
d="M163 862c-60.667 60.667 -91 144 -91 250s30.333 189.333 91 250c61.333 61.333 143 92 245 92c101.333 0 182.666 -30.667 243.999 -92c60.667 -60.667 91 -144 91 -250s-30.333 -189.333 -91 -250c-61.333 -61.333 -142.666 -92 -243.999 -92
c-102 0 -183.667 30.667 -245 92zM473 0h-227l983 1434h227zM513 982c25.333 35.333 38 78.666 38 129.999s-12.667 94.666 -38 129.999c-24.667 34.667 -59.667 52 -105 52c-46 0 -81.333 -17.333 -106 -52c-25.333 -35.333 -38 -78.666 -38 -129.999
s12.667 -94.666 38 -129.999c24.667 -34.667 60 -52 106 -52c45.333 0 80.333 17.333 105 52zM1539 572c60.667 -61.333 91 -144.666 91 -249.999c0 -106 -30.333 -189.333 -91 -250c-61.333 -61.333 -142.666 -92 -243.999 -92c-102 0 -183.667 30.667 -245 92
s-92 144.666 -92 249.999c0 104 30.667 187.333 92 250c61.333 61.333 143 92 245 92c101.333 0 182.666 -30.667 243.999 -92zM1189 452c-25.333 -35.333 -37.999 -78.666 -37.999 -129.999s12.667 -94.666 38 -129.999s60.666 -53 105.999 -53
c44.667 0 79.667 17.667 105 53s38 78.666 38 129.999s-12.667 94.666 -38 129.999c-24.667 34.667 -59.667 52 -105 52c-46 0 -81.333 -17.333 -106 -52z" />
    <glyph glyph-name="ampersand" unicode="&#x26;" horiz-adv-x="1423" 
d="M1196 401l227 -267.998l-161 -153l-166 190h-4c-6 -13.333 -25.333 -35 -58 -65c-24 -22.667 -50 -42.334 -78 -59.001c-30 -18.667 -70.833 -34.334 -122.5 -47.001s-105.5 -19 -161.5 -19c-173.333 0 -306.333 44.333 -399 133
c-93.333 89.333 -140 202.666 -140 339.999c0 68 11 130.667 33 188s50 101.666 84 132.999c31.333 28.667 63.333 53.334 96 74.001s60.667 34.334 84 41.001l35 8v8l-264 307v222h1005v-217h-690v-9l471 -569v315h209v-553zM676 201.002c80 0 142.333 16.335 187 49.002
c41.333 29.333 66.333 54.666 75 75.999l8 14l-332 391c-28.667 -6.66699 -54.667 -15.334 -78 -26.001c-26 -12.667 -49.333 -27.667 -70 -45c-22 -20 -40.667 -47.667 -56 -83s-23 -74 -23 -116c0 -80 25.5 -143.333 76.5 -190s121.833 -70 212.5 -70z" />
    <glyph glyph-name="quotesingle" unicode="'" horiz-adv-x="501" 
d="M358 1434v-195l-30 -399h-154l-31 399v195h215z" />
    <glyph glyph-name="parenleft" unicode="(" horiz-adv-x="905" 
d="M348 -213c-143.333 199.333 -215 461.666 -215 786.999c0 324.667 71.667 586.667 215 786s322.333 299 537 299v-197c-141.333 0 -261.666 -84.667 -360.999 -254s-149 -380.666 -149 -633.999c0 -254 49.667 -465.667 149 -635s219.666 -254 360.999 -254v-197
c-214.667 0 -393.667 99.667 -537 299z" />
    <glyph glyph-name="parenright" unicode=")" horiz-adv-x="905" 
d="M557 1360c143.333 -199.333 215 -461.335 215 -786.002c0 -325.333 -71.667 -587.666 -215 -786.999s-322.333 -299 -537 -299v197c142 0 262.667 84.667 362 254c98.667 168.667 148 380.334 148 635.001c0 254 -49.333 465.333 -148 634
c-99.333 169.333 -220 254 -362 254v197c214.667 0 393.667 -99.667 537 -299z" />
    <glyph glyph-name="asterisk" unicode="*" horiz-adv-x="1024" 
d="M524 1270h-24c0 34.667 -15.667 79.334 -47 134.001s-47 99.334 -47 134.001c0 34 9.5 60.667 28.5 80s44.833 29 77.5 29s58.5 -9.66699 77.5 -29s28.5 -46 28.5 -80c0 -34.667 -15.667 -79.334 -47 -134.001s-47 -99.334 -47 -134.001zM563 1210l-8 25
c32.667 12 68.667 42.667 108 92c39.333 50 75 80.667 107 92c66.667 24.667 113.667 5 141 -59c24.667 -68 3.66699 -114.333 -63 -139c-33.333 -12 -80.333 -13.667 -141 -5c-62 8 -110 6 -144 -6zM469 1235l-7.99902 -25c-34.667 13.333 -82.334 15 -143.001 5
c-62 -10 -109.333 -8 -142 6c-66.667 24.667 -87.667 71 -63 139c27.333 64 74.333 83.667 141 59c32.667 -12 68.667 -42.667 108 -92c39.333 -50 75 -80.667 107 -92zM528.001 1165l21.0029 15c21.333 -28 61 -54.333 119 -79c57.333 -24 96.666 -49.667 117.999 -77
c44 -56 38 -106.667 -18 -152c-57.333 -42 -108 -34.333 -152 23c-22.667 29.333 -37.334 74.333 -44.001 135s-21.334 105.667 -44.001 135zM475.004 1180l21.001 -15c-22.667 -29.333 -37.334 -74.333 -44.001 -135c-8 -60.667 -22.667 -105.667 -44 -135
c-44 -57.333 -94.667 -65 -152 -23c-56 45.333 -62 96 -18 152c22 27.333 61.667 53 119 77c56.667 24 96 50.333 118 79z" />
    <glyph glyph-name="plus" unicode="+" horiz-adv-x="1060" 
d="M436 436h-334v185h334v335h189v-335h333v-185h-333v-336h-189v336z" />
    <glyph glyph-name="comma" unicode="," horiz-adv-x="471" 
d="M217 -266l-0.00195312 164c0 28 -6 49.833 -18 65.5s-26.667 25.5 -44 29.5c-18 4 -33 16 -45 36s-18 48 -18 84c0 40.667 13 73 39 97s61 36 105 36c94.667 0 142.334 -55.333 143.001 -166c0 -108 -15.667 -192.667 -47 -254s-69.666 -92 -114.999 -92z" />
    <glyph glyph-name="hyphen" unicode="-" horiz-adv-x="645" 
d="M82 518l481 201v-223l-481 -201v223z" />
    <glyph glyph-name="period" unicode="." horiz-adv-x="471" 
d="M131 16c-26 22.667 -39 55 -39 97c0 40.667 13 73 39 97s61 36 105 36c43.333 0 78 -12 104 -36s39 -56.333 39 -97c0 -42 -13 -74.333 -39 -97c-26 -24 -60.667 -36 -104 -36c-44 0 -79 12 -105 36z" />
    <glyph glyph-name="slash" unicode="/" horiz-adv-x="991" 
d="M211 -246h-211l780 1680h211z" />
    <glyph glyph-name="zero" unicode="0" horiz-adv-x="1601" 
d="M311 185c-118.667 135.333 -178 312.666 -178 531.999c0 218 59.333 395.333 178 532s282 205 490 205c207.333 0 370.333 -68.333 489 -205s178 -314 178 -532c0 -219.333 -59.333 -396.666 -178 -531.999c-118.667 -136.667 -281.667 -205 -489 -205
c-208 0 -371.333 68.333 -490 205zM1097 352c70 94.667 105.001 216.334 105.001 365.001s-35 270.667 -105 366c-70.667 94.667 -169.334 142 -296.001 142c-127.333 0 -226 -47.333 -296 -142c-70.667 -94.667 -106 -216.667 -106 -366
c0 -148.667 35.333 -270.334 106 -365.001c70 -95.333 168.667 -143 296 -143c126 0 224.667 47.667 296 143z" />
    <glyph glyph-name="one" unicode="1" horiz-adv-x="798" 
d="M371 1126l-299 -235v270l329 273h224v-1434h-254v1126z" />
    <glyph glyph-name="two" unicode="2" horiz-adv-x="1441" 
d="M1319 0l-1196 -0.00390625v188c0 79.333 23.333 149.333 70 210c46 61.333 104 109.333 174 144c60 30.667 135 65.334 225 104.001c84 36 159.333 67 226 93c68.667 26.667 126.667 63.334 174 110.001c46 46 69 98.333 69 157c0 151.333 -107 227 -321 227
c-214.667 0 -322 -86.667 -322 -260v-49h-254v49c0 154.667 50.667 273.667 152 357c100.667 82.667 241.667 124 423 124c180 0 321 -39 423 -117c102 -79.333 153 -189.666 153 -330.999c0 -82.667 -22.333 -156.334 -67 -221.001c-44 -64.667 -100.333 -117 -169 -157
c-72 -41.333 -145.667 -78.666 -221 -111.999s-148.666 -63.333 -219.999 -90c-68 -25.333 -124.333 -55.333 -169 -90c-45.333 -35.333 -68 -73.666 -68 -114.999h918v-221z" />
    <glyph glyph-name="three" unicode="3" horiz-adv-x="1437" 
d="M877 1212l-701.001 -0.000976562v222h1067v-222l-545 -319v-8h154c138.667 0 250.667 -40.667 336 -122c84.667 -80.667 127 -187.667 127 -321c0 -146 -53.333 -259.333 -160 -340c-107.333 -81.333 -252.666 -122 -435.999 -122c-184 0 -329.333 40.667 -436 122
c-106.667 80.667 -160 195.334 -160 344.001v39h254v-39c0 -164 114 -245.667 342 -245c228 0 342 80.333 342 241c0 158.667 -114 238 -342 238h-393v201l551 323v8z" />
    <glyph glyph-name="four" unicode="4" horiz-adv-x="1409" 
d="M1145 0h-254v319h-840v222l758 893h336v-893h192v-222h-192v-319zM891 541v641h-8l-539 -635v-6h547z" />
    <glyph glyph-name="five" unicode="5" horiz-adv-x="1454" 
d="M778 961c166.667 0 300.668 -42.668 402.001 -128.001c100.667 -84.667 151 -204.667 151 -360s-52 -276.333 -156 -363c-104.667 -86.667 -247 -130 -427 -130c-182.667 0 -325.667 39 -429 117c-103.333 77.333 -155 185 -155 323h254c0 -68 28.167 -121.5 84.5 -160.5
s138.166 -58.5 245.499 -58.5c106.667 0 188.167 23 244.5 69s84.5 113.667 84.5 203c0 90 -29.5 158.333 -88.5 205s-142.167 70 -249.5 70c-101.333 0 -178.333 -16.667 -231 -50c-47.333 -31.333 -75.333 -57 -84 -77l-6 -15h-254v828h1069v-222h-815v-356h6
c12.667 12.667 28.667 25 48 37c21.333 12.667 43.333 23.334 66 32.001c62.667 24 142.667 36 240 36z" />
    <glyph glyph-name="six" unicode="6" horiz-adv-x="1488" 
d="M1300 1030l-265.999 0.00195312c1.33301 0.666992 -0.166992 7.66699 -4.5 21s-13 31 -26 53s-28.5 42 -46.5 60c-20 20 -48.5 36.5 -85.5 49.5s-77.5 19.5 -121.5 19.5c-112 0 -198.333 -41.333 -259 -124c-61.333 -83.333 -92 -191 -92 -323h7
c9.33301 15.333 27 32.666 53 51.999c24 17.333 48.333 32 73 44c28.667 14 66.834 26.167 114.501 36.5s96.5 15.5 146.5 15.5c165.333 0 300.666 -44.667 405.999 -134c104.667 -88.667 157 -201 157 -337c0 -144 -54.667 -260.667 -164 -350
c-108.667 -88.667 -253.334 -133 -434.001 -133c-204.667 0 -360 62 -466 186s-159 295.333 -159 514v49c0 208.667 53 381.667 159 519s258.667 206 458 206c96 0 181.333 -15 256 -45c73.333 -29.333 131 -67 173 -113c80.667 -92.667 121 -181.334 121 -266.001z
M998.001 651.002c-62.667 46.667 -142.001 70 -238.001 70s-175.333 -23.333 -238 -70s-94 -110 -94 -190c0 -79.333 31 -142.333 93 -189c62.667 -47.333 142.334 -71 239.001 -71c96 0 175.667 23.667 239 71c62 46.667 93 109.667 93 189c0 80 -31.333 143.333 -94 190z
" />
    <glyph glyph-name="seven" unicode="7" horiz-adv-x="1210" 
d="M516 0h-283l652 1208h-834v226h1118v-226z" />
    <glyph glyph-name="eight" unicode="8" horiz-adv-x="1462" 
d="M1175 92c-109.333 -74.667 -256.997 -112 -442.997 -112c-185.333 0 -333.333 37.667 -444 113c-110 75.333 -165 178 -165 308c0 50 10.333 96.667 31 140s47 77.666 79 102.999c64 50 120 81 168 93l31 8v11c-27.333 6 -58 17.667 -92 35
c-32.667 16 -59.334 33.667 -80.001 53c-25.333 22 -47 52.333 -65 91s-27 80 -27 124c0 118.667 50.333 214.334 151 287.001c100 72 237.333 108 412 108c174 0 311.667 -36 413 -108c100 -73.333 150 -169 150 -287c0 -44.667 -8.83301 -86.5 -26.5 -125.5
s-39.834 -68.833 -66.501 -89.5c-51.333 -41.333 -99.333 -68.666 -144 -81.999l-27 -6v-11c5.33301 -0.666992 16.666 -3.33398 33.999 -8.00098c12 -3.33301 37 -14 75 -32c36 -18.667 67 -39 93 -61s50.667 -55 74 -99c22 -44 33 -92 33 -144
c0 -130.667 -54.667 -233.667 -164 -309zM478.003 255c58.667 -38.667 142.999 -58 252.999 -58c109.333 0 193.666 19 252.999 57s89 92 89 162c0 70.667 -29.667 124.834 -89 162.501s-143.666 56.5 -252.999 56.5s-193.666 -18.833 -252.999 -56.5
s-89 -91.834 -89 -162.501c0 -69.333 29.667 -123 89 -161zM434.002 1040c0 -60.667 25.833 -108.5 77.5 -143.5s124.834 -52.5 219.501 -52.5s167.834 17.5 219.501 52.5s77.5 82.833 77.5 143.5c0 61.333 -26.333 109.5 -79 144.5s-125.334 52.5 -218.001 52.5
s-165.334 -17.5 -218.001 -52.5s-79 -83.167 -79 -144.5z" />
    <glyph glyph-name="nine" unicode="9" horiz-adv-x="1488" 
d="M158 403l265.999 -0.000976562c-1.33301 -1.33301 0.333984 -8.5 5.00098 -21.5s13.834 -30.333 27.501 -52s30.167 -41.167 49.5 -58.5c22 -20 52.167 -36.667 90.5 -50s80.5 -20 126.5 -20c114.667 0 204.667 42.667 270 128c64.667 84.667 97 193.334 97 326.001h-7
c-10 -16 -27.667 -34.667 -53 -56c-22 -19.333 -46 -35.333 -72 -48c-28.667 -15.333 -66.834 -28.333 -114.501 -39s-96.834 -16 -147.501 -16c-165.333 0 -300.333 45.333 -405 136c-105.333 91.333 -158 204.333 -158 339c0 144 54.667 260.667 164 350
c108.667 88.667 253.334 133 434.001 133c204.667 0 360 -62 466 -186c106 -124.667 159 -296 159 -514v-49c0 -208.667 -55 -381.667 -165 -519s-266 -206 -468 -206c-96.667 0 -183.667 15 -261 45c-78 30.667 -137.333 68.667 -178 114c-84 91.333 -126 179.333 -126 264
zM491.999 783.999c63.333 -47.333 142.334 -70.999 237.001 -70.999c95.333 0 174.666 23.667 237.999 71c62.667 46.667 94 109.667 94 189s-31 142.666 -93 189.999c-62.667 46.667 -142.334 70 -239.001 70c-97.333 0 -176.666 -23.333 -237.999 -70
c-62.667 -46.667 -94 -110 -94 -190c0 -78.667 31.667 -141.667 95 -189z" />
    <glyph glyph-name="colon" unicode=":" horiz-adv-x="471" 
d="M131 16c-26 22.667 -39 55 -39 97c0 40.667 13 73 39 97s61 36 105 36c43.333 0 78 -12 104 -36s39 -56.333 39 -97c0 -42 -13 -74.333 -39 -97c-26 -24 -60.667 -36 -104 -36c-44 0 -79 12 -105 36zM131 794c-26 22.667 -39 55 -39 97c0 40.667 13 73 39 97
s61 36 105 36c43.333 0 78 -12 104 -36s39 -56.333 39 -97c0 -42 -13 -74.333 -39 -97c-26 -24 -60.667 -36 -104 -36c-44 0 -79 12 -105 36z" />
    <glyph glyph-name="semicolon" unicode=";" horiz-adv-x="471" 
d="M131 794c-26 22.667 -39 55 -39 97c0 40.667 13 73 39 97s61 36 105 36c43.333 0 78 -12 104 -36s39 -56.333 39 -97c0 -42 -13 -74.333 -39 -97c-26 -24 -60.667 -36 -104 -36c-44 0 -79 12 -105 36zM217 -266l-0.00195312 164c0 28 -6 49.833 -18 65.5
s-26.667 25.5 -44 29.5c-18 4 -33 16 -45 36s-18 48 -18 84c0 40.667 13 73 39 97s61 36 105 36c94.667 0 142.334 -55.333 143.001 -166c0 -108 -15.667 -192.667 -47 -254s-69.666 -92 -114.999 -92z" />
    <glyph glyph-name="less" unicode="&#x3c;" horiz-adv-x="1189" 
d="M1108 -20l-1047 399v246l1047 399v-209l-829 -307v-12l829 -308v-208z" />
    <glyph glyph-name="equal" unicode="=" horiz-adv-x="1067" 
d="M965 827v-184h-863v184h863zM965 438v-184h-863v184h863z" />
    <glyph glyph-name="greater" unicode="&#x3e;" horiz-adv-x="1189" 
d="M82 1024l1046 -399v-246l-1046 -399v208l829 308v12l-829 307v209z" />
    <glyph glyph-name="question" unicode="?" horiz-adv-x="1286" 
d="M516 16c-26 22.667 -39 55 -39 97c0 40.667 13 73 39 97s61 36 105 36c43.333 0 78 -12 104 -36s39 -56.333 39 -97c0 -42 -13 -74.333 -39 -97c-26 -24 -60.667 -36 -104 -36c-44 0 -79 12 -105 36zM541 668c0 -45.333 27.333 -68 82 -68s82 21.333 82 64v12h245v-12
c0 -74.667 -30 -134.334 -90 -179.001c-60 -46 -139 -69 -237 -69c-97.333 0 -174.666 23.333 -231.999 70c-58.667 46 -88 106.667 -88 182c0 72.667 22.333 130 67 172c44.667 42.667 98.667 71.334 162 86.001c50.667 12 114 24.667 190 38c62.667 10 116.667 25 162 45
c44 19.333 66 49 66 89c0 87.333 -102.333 131 -307 131c-98 0 -173.667 -12.833 -227 -38.5s-80 -60.167 -80 -103.5v-61h-254v61c0 111.333 53 200.666 159 267.999c104.667 66 238.667 99 402 99c167.333 0 302.666 -30.333 405.999 -91
c103.333 -61.333 155 -149.666 155 -264.999c0 -64.667 -15.833 -120 -47.5 -166s-73.167 -78.333 -124.5 -97c-46 -18 -99.333 -33.333 -160 -46c-57.333 -12.667 -110.333 -21.667 -159 -27s-89.667 -15.333 -123 -30c-32.667 -14.667 -49 -36 -49 -64z" />
    <glyph glyph-name="at" unicode="@" horiz-adv-x="2023" 
d="M983 -356c-256 0 -461.336 81.334 -616.003 244.001c-156 164 -234 379 -234 645c0 265.333 82.667 481.333 248 648c164.667 166 376.334 249 635.001 249c282.667 0 502.667 -82 660 -246c156.667 -163.333 235 -373.666 235 -630.999
c0 -159.333 -32 -277.333 -96 -354c-64.667 -78 -144 -117 -238 -117c-38.667 0 -75 6 -109 18s-60.667 26.667 -80 44c-36 31.333 -59 62.666 -69 93.999l-6 18h-6c-6 -16.667 -19.333 -36.667 -40 -60c-17.333 -20 -36 -37.667 -56 -53
c-22 -17.333 -52.333 -31.833 -91 -43.5s-79 -17.5 -121 -17.5c-121.333 0 -220.333 40.333 -297 121c-77.333 81.333 -116 187 -116 317c0 133.333 37.333 239.666 112 318.999c74 79.333 163 119 267 119c75.333 0 135.333 -14.333 180 -43c30 -20.667 54 -43 72 -67
l6 -14h8v106h211v-510c0 -104 42.333 -156 127 -156c56.667 0 92.667 29 108 87c7.33301 32 12 60 14 84c2 24.667 3 60.667 3 108c0 216.667 -57.333 384.667 -172 504c-115.333 120 -284 180 -506 180c-209.333 0 -372.666 -64.667 -489.999 -194
c-117.333 -130.667 -176 -301 -176 -511c0 -200 55.667 -365.667 167 -497c110.667 -131.333 266 -197 466 -197c66.667 0 126.334 6.33301 179.001 19s90 26.334 112 41.001l33 18l102 -160c-11.333 -8 -28 -18.333 -50 -31c-24.667 -12.667 -72.667 -29.334 -144 -50.001
c-72.667 -20.667 -150 -31 -232 -31zM802.997 520.001c0 -76 18.5 -135.998 55.5 -179.998s87.5 -66 151.5 -66c65.333 0 117.666 22.667 156.999 68c38.667 44.667 58 104 58 178c0 75.333 -19.167 135.166 -57.5 179.499s-90.833 66.5 -157.5 66.5
c-65.333 0 -116.166 -21.833 -152.499 -65.5s-54.5 -103.834 -54.5 -180.501z" />
    <glyph glyph-name="A" unicode="A" horiz-adv-x="1513" 
d="M592 1434h330l581 -1434h-266l-115 285h-731l-115 -285h-266zM481 506h551l-270 682h-10z" />
    <glyph glyph-name="B" unicode="B" horiz-adv-x="1501" 
d="M1378 403c0 -139.333 -44.333 -241.331 -133 -305.998s-228 -97 -418 -97h-653v1434h649c320.667 0 481.334 -130 482.001 -390c0 -40.667 -7 -79 -21 -115s-31.667 -64.333 -53 -85c-41.333 -41.333 -79 -68.666 -113 -81.999l-22 -6v-11
c7.33301 -0.666992 17.666 -2.66699 30.999 -6c11.333 -2.66699 33.666 -11.667 66.999 -27c30.667 -14.667 59.334 -33.334 86.001 -56.001c23.333 -20.667 46 -54.334 68 -101.001c20 -44.667 30 -95.334 30 -152.001zM428 209.002h406c185.333 0 278 69.667 278 209
s-92.667 209 -278 209h-406v-418zM428 827.002h367c162 0 243 66.333 243 199s-81 199 -243 199h-367v-398z" />
    <glyph glyph-name="C" unicode="C" horiz-adv-x="1695" 
d="M331 183c-132 135.333 -198.001 313.334 -198.001 534.001c0 222 66 400.333 198 535c130.667 134.667 307.667 202 531 202c96 0 185.667 -14 269 -42c81.333 -27.333 149 -63 203 -107c52 -43.333 97.333 -92.333 136 -147c68.667 -98.667 103 -196 103 -292h-266
c2 20 -9.5 55.667 -34.5 107s-59.167 98 -102.5 140c-34 32.667 -78.167 59.5 -132.5 80.5s-112.833 31.5 -175.5 31.5c-142 0 -254.667 -47.667 -338 -143c-83.333 -96.667 -125 -218.334 -125 -365.001c0 -147.333 41.667 -268.666 125 -363.999
c82.667 -96 195.334 -144 338.001 -144c62.667 0 121.167 10.5 175.5 31.5s98.5 47.833 132.5 80.5c32 32 58.667 65 80 99c38 62.667 57 111.667 57 147h266c0 -96 -34.333 -193 -103 -291c-38.667 -54.667 -84 -103.667 -136 -147
c-54 -44.667 -121.333 -80.334 -202 -107.001c-82.667 -28 -172.667 -42 -270 -42c-222.667 0 -399.667 67.667 -531 203z" />
    <glyph glyph-name="D" unicode="D" horiz-adv-x="1591" 
d="M729 0h-555.001v1434h555c226.667 0 405 -64 535 -192c129.333 -129.333 194 -304.333 194 -525c0 -221.333 -64.667 -396 -194 -524c-129.333 -128.667 -307.666 -193 -534.999 -193zM427.999 221l301 0.000976562c146 0 259.667 45.667 341 137s122 211 122 359
c0 147.333 -40.667 266.666 -122 357.999s-195 137 -341 137h-301v-991z" />
    <glyph glyph-name="E" unicode="E" horiz-adv-x="1419" 
d="M1296 0h-1122v1434h1122v-217h-868v-375h741v-213h-741v-412h868v-217z" />
    <glyph glyph-name="F" unicode="F" horiz-adv-x="1351" 
d="M428 0h-254v1434h1106v-217h-852v-453h709v-213h-709v-551z" />
    <glyph glyph-name="G" unicode="G" horiz-adv-x="1736" 
d="M1284 524l-430.002 -0.000976562v209h719v-733h-234v238h-10c-4.66699 -10 -9.33398 -19 -14.001 -27c-8 -14 -24.667 -35 -50 -63c-27.333 -31.333 -57 -57.666 -89 -78.999c-31.333 -22 -77.666 -42.333 -138.999 -61c-58 -18.667 -121.667 -28 -191 -28
c-214.667 0 -387 67.667 -517 203c-130.667 134.667 -196 312.667 -196 534c0 222 66 400.333 198 535c130.667 134.667 307.667 202 531 202c104.667 0 200.834 -15.667 288.501 -47s160.167 -74.666 217.5 -129.999c110 -106.667 177 -232 201 -376h-269
c-21.333 72 -62.666 141 -123.999 207c-34 36 -78.333 64.5 -133 85.5s-115 31.5 -181 31.5c-142.667 0 -255.667 -47.667 -339 -143c-82.667 -95.333 -124 -217 -124 -365c0 -144.667 40 -265.334 120 -362.001c80 -97.333 190.333 -146 331 -146
c73.333 0 139.333 12 198 36c60 24.667 105.667 54 137 88c66 71.333 99 135 99 191z" />
    <glyph glyph-name="H" unicode="H" horiz-adv-x="1626" 
d="M1452 0h-254v633h-770v-633h-254v1434h254v-576h770v576h254v-1434z" />
    <glyph glyph-name="I" unicode="I" horiz-adv-x="1232" 
d="M123 1434h987v-217h-367v-1000h367v-217h-987v217h366v1000h-366v217z" />
    <glyph glyph-name="J" unicode="J" horiz-adv-x="1343" 
d="M427 282c47.333 -51.333 118.67 -77 214.003 -77s166.666 25.667 213.999 77s71 120.333 71 207v719h-588v226h842v-945c0 -158.667 -47 -283 -141 -373c-94.667 -90.667 -227.334 -136 -398.001 -136c-172.667 0 -305.334 45.333 -398.001 136
c-94 90.667 -141 215 -141 373v80h254v-80c0 -86.667 23.667 -155.667 71 -207z" />
    <glyph glyph-name="K" unicode="K" horiz-adv-x="1400" 
d="M1055 1434h305l-639 -709l680 -725h-307l-666 707v-707h-254v1434h254v-693z" />
    <glyph glyph-name="L" unicode="L" horiz-adv-x="1327" 
d="M428 225h858v-225h-1112v1434h254v-1209z" />
    <glyph glyph-name="M" unicode="M" horiz-adv-x="1900" 
d="M174 1434h412l360 -828h8l361 828h411v-1434h-253v1163h-11l-358 -798h-307l-359 798h-10v-1163h-254v1434z" />
    <glyph glyph-name="N" unicode="N" horiz-adv-x="1660" 
d="M1487 0h-418l-629 1186h-12v-1186h-254v1434h418l629 -1186h12v1186h254v-1434z" />
    <glyph glyph-name="O" unicode="O" horiz-adv-x="1724" 
d="M1394 1252c131.333 -135.333 197 -313.667 197 -535c0 -220.667 -65.667 -398.667 -197 -534c-132 -135.333 -309.333 -203 -532 -203s-399.667 67.667 -531 203c-132 135.333 -198 313.333 -198 534c0 222 66 400.333 198 535c130.667 134.667 307.667 202 531 202
c222.667 0 400 -67.333 532 -202zM1201 352.999c82.667 94.667 124 216 124 364s-41.333 269.667 -124 365c-83.333 95.333 -196.333 143 -339 143s-255.667 -47.667 -339 -143c-82.667 -95.333 -124 -217 -124 -365s41.333 -269.333 124 -364
c83.333 -96 196.333 -144 339 -144s255.667 48 339 144z" />
    <glyph glyph-name="P" unicode="P" horiz-adv-x="1472" 
d="M745 397h-317v-397h-254v1434h571c396 0 594 -172.667 594 -518c0 -346 -198 -519 -594 -519zM989 691c56 51.333 84 126.332 84 224.999s-28 173.334 -84 224.001c-56.667 51.333 -138 77 -244 77h-317v-603h317c106 0 187.333 25.667 244 77z" />
    <glyph glyph-name="Q" unicode="Q" horiz-adv-x="1724" 
d="M858 -57l-18.0029 36.998c-190 0 -352.667 61 -488 183c-66.667 58.667 -119.667 136.334 -159 233.001c-40 94.667 -60 201.667 -60 321c0 222 66 400.333 198 535c130.667 134.667 307.667 202 531 202c222.667 0 400 -67.333 532 -202
c131.333 -135.333 197 -313.666 197 -534.999c0 -106 -15.667 -203 -47 -291c-31.333 -87.333 -69 -154.666 -113 -201.999c-43.333 -46.667 -87.166 -86.5 -131.499 -119.5s-82.833 -54.833 -115.5 -65.5l-47 -16c84.667 -114.667 222.334 -172.334 413.001 -173.001v-229
c-106.667 0 -203.334 12.333 -290.001 37c-88.667 25.333 -157 55 -205 89c-47.333 33.333 -88.666 68 -123.999 104s-59.666 66.667 -72.999 92zM1201 352.998c82.667 94.667 124 216 124 364s-41.333 269.667 -124 365c-83.333 95.333 -196.333 143 -339 143
s-255.667 -47.667 -339 -143c-82.667 -95.333 -124 -217 -124 -365s41.333 -269.333 124 -364c83.333 -96 196.333 -144 339 -144s255.667 48 339 144z" />
    <glyph glyph-name="R" unicode="R" horiz-adv-x="1495" 
d="M797 520l-368.999 -0.000976562v-520h-254v1434h582c379.333 0 569 -151.667 569 -455c0 -60.667 -9 -117.167 -27 -169.5s-40.667 -93.166 -68 -122.499c-54.667 -58 -104.334 -94.333 -149.001 -109l-26 -9l358 -569h-287zM428.001 736.999h328c202 0 303 80 303 240
s-101 240 -303 240h-328v-480z" />
    <glyph glyph-name="S" unicode="S" horiz-adv-x="1472" 
d="M1307 1028l0.00390625 -39.0029h-263v39c0 139.333 -105 209 -315 209c-98.667 0 -175.834 -16.333 -231.501 -49s-83.5 -80.667 -83.5 -144c0 -85.333 62.333 -143 187 -173c34 -8.66699 95.167 -21 183.5 -37s156.5 -30.333 204.5 -43c70 -18.667 131.333 -41 184 -67
c55.333 -27.333 100.333 -67.666 135 -120.999s52 -118.333 52 -195c0 -136.667 -57 -242 -171 -316c-113.333 -74.667 -264 -112 -452 -112c-190.667 0 -342.334 37.667 -455.001 113c-112.667 74.667 -169 182.334 -169 323.001v67h262v-69
c0 -144.667 120.667 -217 362 -217c239.333 0 359.666 71 360.999 213c0 40.667 -16.833 74.667 -50.5 102s-79.5 47.666 -137.5 60.999c-28.667 6.66699 -87.667 17.834 -177 33.501s-159 30.167 -209 43.5c-67.333 16.667 -129 39.334 -185 68.001
c-54.667 28 -99.667 69.667 -135 125c-34.667 54.667 -52 121.667 -52 201c0 125.333 52 225 156 299c103.333 74 243.666 111 420.999 111c179.333 0 320.333 -37 423 -111c103.333 -75.333 155 -180.333 155 -315z" />
    <glyph glyph-name="T" unicode="T" horiz-adv-x="1318" 
d="M532 1208h-501v226h1257v-226h-502v-1208h-254v1208z" />
    <glyph glyph-name="U" unicode="U" horiz-adv-x="1613" 
d="M1270 113c-119.333 -88.667 -273.669 -133 -463.002 -133s-343.666 44.333 -462.999 133c-120 88.667 -180 218.334 -180 389.001v932h254v-918c0 -106.667 37 -185 111 -235c72.667 -50.667 165.334 -76 278.001 -76s205.667 25.333 279 76
c73.333 50 110 128.333 110 235v918h254v-932c0 -170.667 -60 -300.334 -180 -389.001z" />
    <glyph glyph-name="V" unicode="V" horiz-adv-x="1458" 
d="M1149 1434h268l-512 -1434h-352l-512 1434h268l410 -1174h20z" />
    <glyph glyph-name="W" unicode="W" horiz-adv-x="2160" 
d="M1368 0l-283 1149h-10l-282 -1149h-373l-359 1434h263l276 -1145h14l281 1145h371l280 -1145h15l276 1145h262l-358 -1434h-373z" />
    <glyph glyph-name="X" unicode="X" horiz-adv-x="1368" 
d="M684 944h4l326 490h293l-476 -689l517 -745h-293l-367 541h-8l-367 -541h-293l517 745l-476 689h293l326 -490h4z" />
    <glyph glyph-name="Y" unicode="Y" horiz-adv-x="1390" 
d="M297 1434l391 -686h14l392 686h276l-534 -920v-514h-281v514l-535 920h277z" />
    <glyph glyph-name="Z" unicode="Z" horiz-adv-x="1353" 
d="M418 217h844v-217h-1170v217l828 989v11h-809v217h1134v-217l-827 -990v-10z" />
    <glyph glyph-name="bracketleft" unicode="[" horiz-adv-x="796" 
d="M403 -315h353v-197h-582v2171h582v-197h-353v-1777z" />
    <glyph glyph-name="backslash" unicode="\" horiz-adv-x="991" 
d="M0 1434h211l780 -1680h-211z" />
    <glyph glyph-name="bracketright" unicode="]" horiz-adv-x="796" 
d="M623 -512h-582v197h352v1777h-352v197h582v-2171z" />
    <glyph glyph-name="asciicircum" unicode="^" horiz-adv-x="1136" 
d="M434 1434h268l363 -717h-231l-261 528h-10l-260 -528h-231z" />
    <glyph glyph-name="underscore" unicode="_" horiz-adv-x="944" 
d="M-41 -125h1026v-184h-1026v184z" />
    <glyph glyph-name="grave" unicode="`" horiz-adv-x="727" 
d="M61 1536h297l308 -328h-207z" />
    <glyph glyph-name="a" unicode="a" horiz-adv-x="1333" 
d="M113 283c0 104 43.667 181.999 131 233.999c87.333 51.333 197.666 77 330.999 77c67.333 0 130.666 -8 189.999 -24c59.333 -17.333 100.666 -34 123.999 -50l35 -22v145c0 55.333 -21 101.333 -63 138c-42.667 36.667 -110 55 -202 55
c-81.333 0 -145 -12.833 -191 -38.5s-69 -62.834 -69 -111.501h-237c0.666992 112.667 47 197.334 139 254.001c91.333 56 210.666 84 357.999 84c150.667 0 270.667 -32.333 360 -97c89.333 -65.333 134 -160 134 -284v-334c0 -46 5.83301 -78.333 17.5 -97
s31.834 -28 60.501 -28c24.667 0 40.334 3 47.001 9l4 2v-197c-22.667 -12 -58.667 -18 -108 -18c-54.667 0 -100.667 11 -138 33c-37.333 20.667 -61.666 42.334 -72.999 65.001l-15 33h-12c-6 -9.33301 -23.667 -24.333 -53 -45c-24.667 -16.667 -49 -30 -73 -40
c-68 -30.667 -155 -46 -261 -46c-127.333 0 -231.666 25.333 -312.999 76c-82 50 -123 125.667 -123 227zM637 167.999c58.667 0 112 7.00098 160 21.001c46.667 12.667 80 26 100 40l27 21v96c-55.333 41.333 -151 62.666 -287 63.999c-191.333 0 -287 -39.667 -287 -119
c0 -82 95.667 -123 287 -123z" />
    <glyph glyph-name="b" unicode="b" 
d="M741 -20c-74.667 0 -139.666 12.6689 -194.999 38.002c-58.667 25.333 -98.667 50.666 -120 75.999l-33 37h-10v-131h-229v1434h229v-562h10c8 12 25.333 30 52 54c22.667 19.333 45 34.666 67 45.999c65.333 34.667 141.666 52 228.999 52c150 0 276.667 -47 380 -141
c103.333 -95.333 155 -222.333 155 -381c0 -160 -51.667 -287 -155 -381s-230 -141 -380 -141zM948.001 275.002c60 58 90 133.667 90 227c0 92.667 -30 168 -90 226s-139 87 -237 87c-98.667 0 -178 -29 -238 -87s-90 -133.333 -90 -226c0 -93.333 30 -169 90 -227
s139.333 -87 238 -87c98 0 177 29 237 87z" />
    <glyph glyph-name="c" unicode="c" horiz-adv-x="1331" 
d="M271 120c-105.333 93.333 -157.999 220.667 -157.999 382c0 160.667 52.667 288 158 382c105.333 93.333 241 140 407 140c93.333 0 177.333 -15 252 -45c75.333 -30 133.333 -67.333 174 -112c83.333 -91.333 125 -175.666 125 -252.999h-242
c-5.33301 19.333 -17 42.666 -35 69.999c-17.333 24.667 -35.666 45.334 -54.999 62.001c-22.667 19.333 -53.5 35.666 -92.5 48.999s-81.167 20 -126.5 20c-98 0 -177 -29 -237 -87c-60.667 -58 -91 -133.333 -91 -226c0 -93.333 30 -169 90 -227s139.333 -87 238 -87
c46 0 88.167 6.5 126.5 19.5s69.166 30.167 92.499 51.5c45.333 41.333 72.666 78 81.999 110l8 20h242c0 -76 -41.667 -159.667 -125 -251c-41.333 -45.333 -99.333 -83 -174 -113s-158.667 -45 -252 -45c-166 0 -301.667 46.667 -407 140z" />
    <glyph glyph-name="d" unicode="d" 
d="M647 -20c-149.333 0 -275.666 47 -378.999 141s-155 221 -155 381c0 158.667 51.667 285.667 155 381c103.333 94 229.666 141 378.999 141c72 0 137.333 -12.667 196 -38c57.333 -24.667 97.333 -50.334 120 -77.001l32 -37h11v562h229v-1434h-229v131h-11
c-8.66699 -13.333 -25.667 -31 -51 -53c-20.667 -17.333 -43 -32.666 -67 -45.999c-65.333 -34.667 -142 -52 -230 -52zM440 728c-60 -58 -90 -133.333 -90 -226c0 -93.333 30 -169 90 -227s139.333 -87 238 -87c97.333 0 176.666 29 237.999 87c60 58 90 133.667 90 227
c0 92.667 -30 168 -90 226c-61.333 58 -140.666 87 -237.999 87c-98.667 0 -178 -29 -238 -87z" />
    <glyph glyph-name="e" unicode="e" horiz-adv-x="1355" 
d="M1243 502l-5.99902 -81.999h-879c6.66699 -30 17 -58 31 -84c14.667 -28 32.334 -52.333 53.001 -73c23.333 -23.333 56 -43.333 98 -60s88 -25 138 -25c55.333 0 104 9.33301 146 28c41.333 18 69.666 36 84.999 54l23 27h270c-8 -21.333 -17.333 -41.333 -28 -60
c-28 -47.333 -64.667 -89 -110 -125c-62 -50.667 -136 -85.667 -222 -105c-52.667 -11.333 -107.334 -17 -164.001 -17c-166 0 -301.667 46.667 -407 140s-158 220.666 -158 381.999c0 160.667 52.667 288 158 382c105.333 93.333 241 140 407 140
c166.667 0 302.667 -46.667 408 -140c104.667 -94 157 -221.333 157 -382zM678.001 825.001c-51.333 0 -97.502 -7.49902 -138.502 -22.499s-72.833 -33.833 -95.5 -56.5c-43.333 -45.333 -69.666 -86.333 -78.999 -123l-5 -23h631c0 16 -9 42 -27 78
c-12 24.667 -28.333 47.667 -49 69c-22 21.333 -54.167 39.666 -96.5 54.999s-89.166 23 -140.499 23z" />
    <glyph glyph-name="f" unicode="f" horiz-adv-x="794" 
d="M727 1004l-0.000976562 -197h-295v-807h-229v807h-172v129l172 68v49c0 132.667 37.333 232.667 112 300s182 101 322 101c36.667 0 74.334 -4.66699 113.001 -14c37.333 -10 64.333 -19 81 -27l25 -14v-209c-40.667 36.667 -100.667 55 -180 55
c-162.667 0 -244 -71.667 -244 -215v-26h295z" />
    <glyph glyph-name="g" unicode="g" horiz-adv-x="1230" 
d="M127 690c0 106.667 42.998 189 128.998 247s199.333 87 340 87h604v-184h-188v-4c35.333 -29.333 53 -80 53 -152c0 -105.333 -43 -187 -129 -245s-199.333 -87 -340 -87c-161.333 0 -242 -28 -242 -84s80.667 -84 242 -84c165.333 0 298 -24.667 398 -74
c98 -50 147 -127.667 147 -233s-49 -183 -147 -233c-100 -49.333 -232.667 -74 -398 -74c-166 0 -298.333 24.667 -397 74c-98.667 50 -148 127.667 -148 233c0 34.667 6.5 67.334 19.5 98.001s29.5 55.667 49.5 75c37.333 36 72.333 59 105 69l21 8v6
c-19.333 6.66699 -38.666 22.667 -57.999 48c-21.333 25.333 -32 54.333 -32 87c0 33.333 10.333 62.666 31 87.999c20 26 41 44 63 54l31 12v6c-11.333 4.66699 -28.666 16.667 -51.999 36c-18.667 15.333 -34 31.333 -46 48c-34 44 -52.667 103.333 -56 178zM902.998 -123
c0 82 -102.333 123 -307 123s-307 -41 -307 -123s102.333 -123 307 -123s307 41 307 123zM765.998 798c-41.333 28 -98 42 -170 42s-128.667 -14 -170 -42c-40.667 -28 -61 -64.333 -61 -109c0 -45.333 20.333 -82 61 -110c41.333 -28 98 -42 170 -42s128.667 14 170 42
c40.667 28 61 64.667 61 110c0 44.667 -20.333 81 -61 109z" />
    <glyph glyph-name="h" unicode="h" horiz-adv-x="1351" 
d="M1208 0l-228.999 0.000976562v508c0 103.333 -27.333 180.333 -82 231s-127 76 -217 76c-96 0 -169.333 -28.333 -220 -85c-51.333 -57.333 -77 -131.333 -77 -222v-508h-229v1434h229v-592h14c7.33301 16 23.666 37 48.999 63c16.667 18 39 36.667 67 56
c28 17.333 64.667 32.166 110 44.499s93 18.5 143 18.5c129.333 0 235.333 -38 318 -114c82.667 -76.667 124 -191 124 -343v-567z" />
    <glyph glyph-name="i" unicode="i" horiz-adv-x="536" 
d="M154 1004h229v-1004h-229v1004zM170 1250c-24.667 20.667 -36.999 49.333 -36.999 86c0 35.333 12.333 64 37 86c25.333 21.333 58.333 32 99 32c40 0 72.667 -10.667 98 -32c24 -22 36 -50.667 36 -86c0 -36 -12 -64.667 -36 -86c-24.667 -22 -57.334 -33 -98.001 -33
s-73.667 11 -99 33z" />
    <glyph glyph-name="j" unicode="j" horiz-adv-x="567" 
d="M184 1004l230 -0.000976562v-1039c0 -263.333 -121.667 -395 -365 -395c-52.667 0 -97 6 -133 18l-18 6v205c30.667 -13.333 64.667 -20 102 -20c62 0 108.333 14.667 139 44c30 28.667 45 84.334 45 167.001v1014zM201 1250
c-24.667 20.667 -36.998 49.334 -36.998 86.001c0 35.333 12.333 64 37 86c25.333 21.333 58 32 98 32s72.667 -10.667 98 -32c24.667 -22 37 -50.667 37 -86c0 -36.667 -12.333 -65.334 -37 -86.001c-24.667 -22 -57.334 -33 -98.001 -33s-73.334 11 -98.001 33z" />
    <glyph glyph-name="k" unicode="k" horiz-adv-x="1183" 
d="M866 1004h281l-496 -486l533 -518h-287l-514 502v-502h-229v1434h229v-906z" />
    <glyph glyph-name="l" unicode="l" horiz-adv-x="536" 
d="M154 1434h229v-1434h-229v1434z" />
    <glyph glyph-name="m" unicode="m" horiz-adv-x="1906" 
d="M1763 0l-228.996 0.00390625v514c0 200.667 -77 301 -231 301c-152.667 0 -229.334 -99 -230.001 -297v-518h-229v514c0 200.667 -76.667 301 -230 301c-154 0 -231 -100.333 -231 -301v-514h-229v1004h229v-162h12c4 14.667 15.667 35.667 35 63
c13.333 20 30.666 38.667 51.999 56c22 17.333 52.333 32.166 91 44.499s80.334 18.5 125.001 18.5c47.333 0 91.333 -5.83301 132 -17.5s72.667 -26.834 96 -45.501c44 -36.667 72.667 -70.334 86 -101.001l8 -18h12c3.33301 13.333 16.666 34.333 39.999 63
c14.667 19.333 33.667 38 57 56c23.333 17.333 54.666 32.166 93.999 44.499s81 18.5 125 18.5c277.333 0 415.666 -152.333 414.999 -457v-567z" />
    <glyph glyph-name="n" unicode="n" horiz-adv-x="1351" 
d="M1208 0l-228.999 0.000976562v508c0 103.333 -27.333 180.333 -82 231s-127 76 -217 76c-96 0 -169.333 -28.333 -220 -85c-51.333 -57.333 -77 -131.333 -77 -222v-508h-229v1004h229v-162h14c7.33301 16 23.666 37 48.999 63c16.667 18 39 36.667 67 56
c28 17.333 64.667 32.166 110 44.499s93 18.5 143 18.5c129.333 0 235.333 -38 318 -114c82.667 -76.667 124 -191 124 -343v-567z" />
    <glyph glyph-name="o" unicode="o" horiz-adv-x="1355" 
d="M271 120c-105.333 93.333 -158 220.667 -158 382c0 160.667 52.667 288 158 382c105.333 93.333 241 140 407 140c166.667 0 302.667 -46.667 408 -140c104.667 -94 157 -221.333 157 -382c0 -162 -52.333 -289.333 -157 -382c-105.333 -93.333 -241.333 -140 -408 -140
c-166 0 -301.667 46.667 -407 140zM916 275.001c60 58 90 133.667 90 227c0 92.667 -30 168 -90 226c-61.333 58 -140.666 87 -237.999 87c-98.667 0 -178 -29 -238 -87s-90 -133.333 -90 -226c0 -93.333 30 -169 90 -227s139.333 -87 238 -87
c97.333 0 176.666 29 237.999 87z" />
    <glyph glyph-name="p" unicode="p" 
d="M741 1024c150 0 276.668 -46.998 380.001 -140.998c103.333 -95.333 155 -222.333 155 -381c0 -160 -51.333 -287 -154 -381s-229.667 -141 -381 -141c-74.667 0 -139.667 12.667 -195 38c-58.667 25.333 -98.667 50.666 -120 75.999l-33 37h-10v-541h-229v1414h229v-132
h10c8 12 25.333 30 52 54c22.667 19.333 45 34.666 67 45.999c65.333 34.667 141.666 52 228.999 52zM948.001 275.002c60 58 90 133.667 90 227c0 92.667 -30 168 -90 226s-139 87 -237 87c-98.667 0 -178 -29 -238 -87s-90 -133.333 -90 -226c0 -93.333 30 -169 90 -227
s139.333 -87 238 -87c98 0 177 29 237 87z" />
    <glyph glyph-name="q" unicode="q" 
d="M647 1024c72 0 137.333 -12.667 196 -38c57.333 -24.667 97.333 -50.334 120 -77.001l32 -37h11v132h229v-1414h-229v541h-11c-8.66699 -13.333 -25.667 -31 -51 -53c-20.667 -17.333 -43 -32.666 -67 -45.999c-65.333 -34.667 -142 -52 -230 -52
c-149.333 0 -275.666 47 -378.999 141s-155 221 -155 381c0 158.667 51.667 285.667 155 381c103.333 94 229.666 141 378.999 141zM440 728c-60 -58 -90 -133.333 -90 -226c0 -93.333 30 -169 90 -227s139.333 -87 238 -87c97.333 0 176.666 29 237.999 87
c60 58 90 133.667 90 227c0 92.667 -30 168 -90 226c-61.333 58 -140.666 87 -237.999 87c-98.667 0 -178 -29 -238 -87z" />
    <glyph glyph-name="r" unicode="r" horiz-adv-x="933" 
d="M760 1024l112 -12v-254c-40.667 16.667 -95 24.667 -163 24c-103.333 0 -183.333 -31 -240 -93c-57.333 -62.667 -86 -140.667 -86 -234v-455h-229v1004h229v-193h14c9.33301 21.333 25.666 46 48.999 74c18.667 24.667 40.667 46.667 66 66
c26.667 20.667 62.334 38 107.001 52s91.667 21 141 21z" />
    <glyph glyph-name="s" unicode="s" horiz-adv-x="1224" 
d="M1083 680l-236.999 -0.00195312c0 50 -17.333 88.333 -52 115c-35.333 27.333 -100 41 -194 41c-160 0 -240 -38.333 -240 -115c0 -32.667 19 -57 57 -73c36.667 -17.333 83.667 -27.333 141 -30c61.333 -4 122.666 -10.333 183.999 -19
c65.333 -8.66699 126.333 -20.667 183 -36c56.667 -16 103.667 -46 141 -90c37.333 -45.333 56 -102.666 56 -171.999c0 -75.333 -23 -137.666 -69 -186.999c-47.333 -50.667 -107.333 -85.334 -180 -104.001c-74 -20 -161.667 -30 -263 -30
c-153.333 0 -276.333 27.667 -369 83c-92.667 54.667 -139 143 -139 265v32h238v-32c0 -106.667 90 -160 270 -160c182 0 273.667 43.667 275 131c0 42.667 -26.333 72.334 -79 89.001c-53.333 17.333 -116.666 28.333 -189.999 33c-74.667 4.66699 -149 12.667 -223 24
c-75.333 11.333 -139 39 -191 83c-52.667 44 -79 107 -79 189c0 101.333 43.333 178 130 230c87.333 51.333 203.666 77 348.999 77c148.667 0 266 -28 352 -84s129 -142.667 129 -260z" />
    <glyph glyph-name="t" unicode="t" horiz-adv-x="899" 
d="M217 375l-0.000976562 431.999h-166v145l246 277h149v-225h351v-197h-351v-401c0 -144 72.667 -216.667 218 -218c30 0 58.833 3.33301 86.5 10s47.834 14.334 60.501 23.001l16 10v-213c-51.333 -26 -116 -38.667 -194 -38c-277.333 0 -416 131.667 -416 395z" />
    <glyph glyph-name="u" unicode="u" horiz-adv-x="1361" 
d="M154 1004l229.001 0.00195312v-508c0 -103.333 27.333 -180.333 82 -231c55.333 -51.333 127.666 -77 216.999 -77c96 0 169.333 28.333 220 85c51.333 57.333 77 131.666 77 222.999v508h229v-1004h-229v162h-14c-8 -17.333 -24 -38.333 -48 -63
c-17.333 -18.667 -40 -37.334 -68 -56.001c-27.333 -18 -63.666 -33 -108.999 -45s-93.333 -18 -144 -18c-128.667 0 -234.334 38.333 -317.001 115c-83.333 76 -125 189.667 -125 341v568z" />
    <glyph glyph-name="v" unicode="v" horiz-adv-x="1169" 
d="M907 1004h242l-395 -1004h-338l-396 1004h242l318 -828h10z" />
    <glyph glyph-name="w" unicode="w" horiz-adv-x="1746" 
d="M879 764h-11l-231 -764h-309l-287 1004h233l207 -783h8l234 783h301l233 -783h9l207 783h233l-287 -1004h-309z" />
    <glyph glyph-name="x" unicode="x" horiz-adv-x="1099" 
d="M799 1004h262l-381 -478l420 -526h-262l-283 365h-10l-283 -365h-262l420 526l-381 478h262l244 -318h10z" />
    <glyph glyph-name="y" unicode="y" horiz-adv-x="1167" 
d="M10 1004h246l340 -764h10l303 764h248l-440 -1065c-48.667 -117.333 -105 -208 -169 -272c-64.667 -64.667 -144.334 -97 -239.001 -97c-50 0 -91.667 5.33301 -125 16l-20 4v209c34.667 -13.333 76.334 -20 125.001 -20c83.333 0 146 53.333 188 160l8 20z" />
    <glyph glyph-name="z" unicode="z" horiz-adv-x="1146" 
d="M727 803h-612v201h929v-201l-645 -598v-4h666v-201h-983v201l645 598v4z" />
    <glyph glyph-name="braceleft" unicode="{" horiz-adv-x="808" 
d="M102 469v102.001v103c55.333 1.33301 98.666 19 129.999 53s47 81.667 47 143v338c0 164 35 283.667 105 359c70 74.667 185.667 112 347 112h37v-196h-37c-90 0 -149.667 -22 -179 -66c-29.333 -45.333 -44 -115 -44 -209v-348c0 -46 -5.83301 -87.5 -17.5 -124.5
s-26.5 -65.5 -44.5 -85.5c-35.333 -39.333 -67.333 -62 -96 -68l-18 -7v-8l9 -2c6 -1.33301 13.167 -3.83301 21.5 -7.5s18.5 -9.5 30.5 -17.5c20.667 -12.667 38.667 -28.334 54 -47.001c16.667 -20.667 31 -49.834 43 -87.501s18 -78.5 18 -122.5v-349
c0 -93.333 14.667 -162.666 44 -207.999c29.333 -44 89 -66 179 -66h37v-197h-37c-161.333 0 -277 37.667 -347 113c-70 74.667 -105 194 -105 358v338c0 62 -15.667 110 -47 144s-74.666 51.667 -129.999 53z" />
    <glyph glyph-name="bar" unicode="|" horiz-adv-x="835" 
d="M528 -532h-221v2109h221v-2109z" />
    <glyph glyph-name="braceright" unicode="}" horiz-adv-x="808" 
d="M707 674l0.00195312 -102.998v-102c-55.333 -1.33301 -98.666 -18.833 -129.999 -52.5s-47 -81.834 -47 -144.501v-338c0 -164 -35 -283.667 -105 -359c-70.667 -74.667 -186.334 -112 -347.001 -112h-37v197h37c90.667 0 150.334 22 179.001 66
c29.333 45.333 44 114.666 44 207.999v349c0 46 6 87.667 18 125s27 66 45 86c34.667 38.667 66.334 61 95.001 67l18 6v8c-0.666992 0 -3 0.666992 -7 2l-11.5 4c-3.66699 1.33301 -9.33398 4 -17.001 8s-16.167 9 -25.5 15c-20.667 12.667 -38.334 28.334 -53.001 47.001
c-16.667 20 -31.167 48.667 -43.5 86s-18.5 78.333 -18.5 123v348c0 93.333 -14.667 162.666 -44 207.999c-28.667 44.667 -88.334 67 -179.001 67h-37v196h37c161.333 0 277 -37.333 347 -112c70 -75.333 105 -195 105 -359v-338c0 -61.333 15.667 -109 47 -143
s74.666 -51.667 129.999 -53z" />
    <glyph glyph-name="asciitilde" unicode="~" horiz-adv-x="1230" 
d="M367 328c-75.333 0 -138.336 19.333 -189.003 58s-76 98.334 -76 179.001c0 47.333 5.66699 84.333 17 111l4 14h211c-8.66699 -22 -13.667 -48.667 -15 -80c0 -27.333 8.33301 -49.166 25 -65.499s38.667 -24.5 66 -24.5c50 0 110 31 180 93
c26 22.667 63.667 43.667 113 63c50 19.333 103.667 29 161 29c74.667 0 137.667 -19 189 -57c50 -38.667 75 -98.334 75 -179.001c0 -46 -5.33301 -82.333 -16 -109l-6 -14h-209c9.33301 22 14 47.333 14 76c0 27.333 -8.16699 49.166 -24.5 65.499
s-38.166 24.5 -65.499 24.5c-51.333 0 -111.666 -30.667 -180.999 -92c-27.333 -23.333 -64.666 -44.333 -111.999 -63c-50 -19.333 -103.667 -29 -161 -29z" />
    <glyph glyph-name="uni00A0" unicode="&#xa0;" horiz-adv-x="491" 
 />
    <glyph glyph-name="exclamdown" unicode="&#xa1;" horiz-adv-x="634" 
d="M406 573l38 -704v-279h-254v279l39 704h177zM422 988c26 -24 39 -56.333 39 -97c0 -42 -13 -74.333 -39 -97c-26 -24 -60.667 -36 -104 -36c-44 0 -79 12 -105 36c-26 22.667 -39 55 -39 97c0 40.667 13 73 39 97s61 36 105 36c43.333 0 78 -12 104 -36z" />
    <glyph glyph-name="cent" unicode="&#xa2;" horiz-adv-x="1331" 
d="M793 -246h-230v236c-14.667 0 -44 6.66699 -88 20c-68 19.333 -129.333 50.333 -184 93c-72 56 -122.667 130.333 -152 223c-17.333 54 -26 112.667 -26 176c0 61.333 8 118.833 24 172.5s37.667 97.834 65 132.501c26.667 34 56 64.333 88 91
c13.333 10.667 26.833 20.5 40.5 29.5s28 17.167 43 24.5s27.833 13.333 38.5 18s23.834 9.5 39.501 14.5l32.5 10.5c6 2 16.667 5 32 9l23 6l24 4v235h115h115v-233c73.333 -10.667 139.666 -32.667 198.999 -66c58.667 -34.667 104.334 -71.667 137.001 -111
c66.667 -82 100 -157 100 -225h-242c-5.33301 19.333 -17 42.666 -35 69.999c-17.333 24.667 -35.666 45.334 -54.999 62.001c-22.667 19.333 -53.5 35.666 -92.5 48.999s-81.167 20 -126.5 20c-98 0 -177 -29 -237 -87c-60.667 -58 -91 -133.333 -91 -226
c0 -93.333 30 -169 90 -227s139.333 -87 238 -87c46 0 88.167 6.5 126.5 19.5s69.166 30.167 92.499 51.5c45.333 41.333 72.666 78 81.999 110l8 20h242c0 -70 -33.333 -145.333 -100 -226c-34.667 -42.667 -81.667 -80 -141 -112s-124.333 -53 -195 -63v-234z" />
    <glyph glyph-name="sterling" unicode="&#xa3;" horiz-adv-x="1245" 
d="M1161 1026h-254v23c0 65.333 -16.333 114.5 -49 147.5s-81.667 49.167 -147 48.5c-58.667 0 -106.167 -17.833 -142.5 -53.5s-54.5 -83.167 -54.5 -142.5v-314h412v-196h-412v-330h670v-209h-1112v209h188v330h-188v196h188v285c0 134.667 36.333 240.667 109 318
c72 77.333 186 116 342 116c158 0 272.333 -37.333 343 -112c71.333 -75.333 107 -173 107 -293v-23z" />
    <glyph glyph-name="currency" unicode="&#xa4;" horiz-adv-x="1472" 
d="M250 549h-178v209h178v676h493c397.333 0 596 -147 596 -441c0 -296 -198.667 -444 -596 -444h-239v-123h506v-209h-506v-217h-254v217h-178v209h178v123zM504 758h239c220 0 330 78 330 234c0 155.333 -110 233 -330 233h-239v-467z" />
    <glyph glyph-name="yen" unicode="&#xa5;" horiz-adv-x="1472" 
d="M524 639h-313v176h211l-361 619h277l391 -686h14l392 686h276l-360 -619h211v-176h-314l-71 -125h385v-176h-394v-338h-264v338h-393v176h385z" />
    <glyph glyph-name="brokenbar" unicode="&#xa6;" horiz-adv-x="835" 
d="M307 1577h221v-905h-221v905zM528 -532h-221v917h221v-917z" />
    <glyph glyph-name="section" unicode="&#xa7;" horiz-adv-x="1380" 
d="M690 197c-180.667 0 -316.999 32.168 -408.999 96.501s-138 154.833 -138 271.5c0 44 7.16699 84.5 21.5 121.5s33.166 66.167 56.499 87.5c48.667 45.333 89.667 72.666 123 81.999l23 8v10c-18 4.66699 -39.333 15 -64 31c-22 13.333 -40.333 28 -55 44
c-17.333 17.333 -32.333 41.833 -45 73.5s-19 64.834 -19 99.501c0 95.333 42.667 174.666 128 237.999c84.667 62.667 208.667 94 372 94c162.667 0 286.667 -31.667 372 -95s128 -149 128 -257v-29h-238v29c0 46 -22.667 85.667 -68 119c-45.333 32.667 -110 49 -194 49
c-72 0 -133.667 -13.667 -185 -41s-77 -65.666 -77 -114.999c0 -54 25.333 -92.333 76 -115c50 -24 114 -36 192 -36c184 0 321.333 -33.333 412 -100c90 -67.333 135 -158.333 135 -273c0 -44 -7.33301 -84.5 -22 -121.5s-33.334 -65.833 -56.001 -86.5
c-48.667 -44 -89.667 -70.333 -123 -79l-22 -8v-10c22 -6 46.667 -15.667 74 -29c25.333 -12.667 47 -27 65 -43c20.667 -17.333 38.167 -42.333 52.5 -75s21.5 -67.667 21.5 -105c0 -100.667 -46.667 -180.667 -140 -240c-93.333 -58.667 -225 -88 -395 -88
c-173.333 0 -305.666 29.167 -396.999 87.5s-137 145.166 -137 260.499v49h237v-49c0 -109.333 99 -164 297 -164c88 0 159.667 13 215 39c54.667 26 82 63.667 82 113c0 104 -99.667 156 -299 156zM912.001 726.001c-57.333 34.667 -131.333 52 -222 52
s-164.667 -17.333 -222 -52c-58 -34.667 -87 -83.334 -87 -146.001s29 -111.667 87 -147c57.333 -34.667 131.333 -52 222 -52s164.667 17.333 222 52c58 35.333 87 84.333 87 147s-29 111.334 -87 146.001z" />
    <glyph glyph-name="dieresis" unicode="&#xa8;" horiz-adv-x="782" 
d="M502 1242c-23.333 20 -35 47.667 -35 83s11.667 63 35 83c22.667 20 53.334 30 92.001 30s69.334 -10 92.001 -30c23.333 -20 35 -47.667 35 -83s-11.667 -63 -35 -83c-22.667 -20 -53.334 -30 -92.001 -30s-69.334 10 -92.001 30zM96 1242c-23.333 20 -35 47.667 -35 83
s11.667 63 35 83c22.667 20 53.667 30 93 30c38 0 68.667 -10 92 -30c22.667 -20 34 -47.667 34 -83s-11.333 -63 -34 -83c-23.333 -20 -54 -30 -92 -30c-39.333 0 -70.333 10 -93 30z" />
    <glyph glyph-name="copyright" unicode="&#xa9;" horiz-adv-x="1802" 
d="M1454 184c-142.667 -136 -326.998 -204 -552.998 -204s-410.333 68 -553 204c-143.333 135.333 -215 313 -215 533s71.667 398 215 534c143.333 135.333 327.666 203 552.999 203s409.666 -67.667 552.999 -203c143.333 -136 215 -314 215 -534
s-71.667 -397.667 -215 -533zM1316 1121c-102 104.667 -240.333 157.001 -415 157.001c-175.333 0 -313.333 -52.333 -414 -157c-102 -104.667 -153 -239.334 -153 -404.001c0 -163.333 51 -297.666 153 -402.999c101.333 -105.333 239.333 -158 414 -158
s313 52.667 415 158c101.333 105.333 152 239.666 152 402.999c0 164 -50.667 298.667 -152 404zM777.002 845.001c-32 -35.333 -48 -77.332 -48 -125.999s16 -90.667 48 -126c32 -34.667 74.667 -52 128 -52c44 0 80.333 9.33301 109 28c29.333 18 46.333 36 51 54l10 28
h197c0 -74 -32.333 -140 -97 -198c-64.667 -58.667 -154.667 -88 -270 -88c-112.667 0 -203.667 32.667 -273 98s-104 150.666 -104 255.999s34.667 190.666 104 255.999s160.333 98 273 98c115.333 0 205.333 -29.333 270 -88s97 -125 97 -199h-197
c0 6.66699 -5.66699 19.667 -17 39c-6.66699 12.667 -15.667 23.667 -27 33c-12 10.667 -29.5 19.834 -52.5 27.501s-47.5 11.5 -73.5 11.5c-53.333 0 -96 -17.333 -128 -52z" />
    <glyph glyph-name="ordfeminine" unicode="&#xaa;" horiz-adv-x="948" 
d="M61 1122c0 73.333 29.668 129.666 89.001 168.999c58.667 38 135 57 229 57c47.333 0 91.333 -5.5 132 -16.5s69.667 -23.5 87 -37.5l20 -16v100c0 84.667 -53 127 -159 127c-54 0 -95.5 -9.16699 -124.5 -27.5s-43.5 -41.833 -43.5 -70.5h-195
c0 52.667 24.333 105.334 73 158.001c26.667 28.667 65 51.5 115 68.5s108.333 25.5 175 25.5c115.333 0 203.5 -24 264.5 -72s91.5 -117.667 91.5 -209v-235c0 -30 4.16699 -51.167 12.5 -63.5s23.166 -18.5 44.499 -18.5l35 6v-154c-22.667 -8 -54 -12 -94 -12
c-81.333 0.666992 -137.333 30.667 -168 90l-4 10h-6c-6.66699 -10.667 -17.334 -22.667 -32.001 -36c-12 -11.333 -27.667 -22 -47 -32c-49.333 -24 -105.666 -36 -168.999 -36c-103.333 0 -183.5 19.5 -240.5 58.5s-85.5 94.5 -85.5 166.5zM262.001 1128
c0 -51.333 59.333 -77 178 -77s178 25.667 178 77c0 50.667 -59.333 76 -178 76s-178 -25.333 -178 -76z" />
    <glyph glyph-name="guillemotleft" unicode="&#xab;" horiz-adv-x="1032" 
d="M569 117h-235l-273 381l273 381h235l-276 -379v-4zM971 117h-236l-272 381l272 381h236l-277 -379v-4z" />
    <glyph glyph-name="logicalnot" unicode="&#xac;" horiz-adv-x="954" 
d="M862 303h-188v189h-613v184h801v-373z" />
    <glyph glyph-name="uni00AD" unicode="&#xad;" horiz-adv-x="645" 
d="M82 518l481 201v-223l-481 -201v223z" />
    <glyph glyph-name="registered" unicode="&#xae;" horiz-adv-x="1024" 
d="M500 977h-19v-125h-131v367h178c109.333 0 164 -39.667 164 -119c0 -22.667 -5.16699 -43.167 -15.5 -61.5s-21.5 -30.833 -33.5 -37.5l-16 -8l75 -141h-141zM481 1063h33c28.667 0 43 11 43 33c0 21.333 -14.333 32 -43 32h-33v-65zM831 729
c-81.333 -79.333 -187.667 -118.999 -319 -118.999c-130.667 0 -236.667 39.667 -318 119s-122 180.666 -122 303.999c0 122.667 40.667 223.667 122 303c80.667 78.667 186.667 118 318 118c132 0 238.333 -39.333 319 -118s121 -179.667 121 -303
c0 -124 -40.333 -225.333 -121 -304zM290.999 814.001c58.667 -56.667 132.334 -85 221.001 -85s162.334 28.333 221.001 85s88 129.334 88 218.001s-29.333 161.334 -88 218.001s-132.334 85 -221.001 85s-162.334 -28.333 -221.001 -85s-88 -129.334 -88 -218.001
s29.333 -161.334 88 -218.001z" />
    <glyph glyph-name="overscore" unicode="&#xaf;" horiz-adv-x="731" 
d="M670 1255h-609v156h609v-156z" />
    <glyph glyph-name="degree" unicode="&#xb0;" horiz-adv-x="901" 
d="M184 836c-68 62.667 -102 149.998 -102 261.998s34 199.333 102 262c66.667 62.667 155.667 94 267 94c110.667 0 199.667 -31.333 267 -94c67.333 -63.333 101 -150.666 101 -261.999s-33.667 -198.666 -101 -261.999c-68.667 -63.333 -157.667 -95 -267 -95
c-110.667 0 -199.667 31.667 -267 95zM570 964.998c29.333 33.333 44.001 77.666 44.001 132.999s-14.667 99.666 -44 132.999c-28.667 32.667 -68.334 49 -119.001 49c-51.333 0 -91.333 -16.333 -120 -49c-29.333 -33.333 -44 -77.666 -44 -132.999
s14.667 -99.666 44 -132.999s69.333 -50 120 -50c50 0 89.667 16.667 119 50z" />
    <glyph glyph-name="plusminus" unicode="&#xb1;" horiz-adv-x="1060" 
d="M958 55h-856v185h334v245h-334v185h334v319h189v-319h333v-185h-333v-245h333v-185z" />
    <glyph glyph-name="uni00B2" unicode="&#xb2;" horiz-adv-x="819" 
d="M752 860l-690.999 0.00292969v129c0 65.333 17.333 118.333 52 159c34 40 75.667 67.667 125 83s98.333 28.333 147 39c50.667 11.333 92.334 26.666 125.001 45.999c34 20 51 47.667 51 83c0 64 -45.667 96 -137 96c-46 0 -80.667 -9.83301 -104 -29.5
s-35 -46.167 -35 -79.5v-18h-197v18c0 85.333 29.167 152.166 87.5 200.499s141.166 72.5 248.499 72.5c106.667 0 189 -23 247 -69c58 -46.667 87 -107 87 -181c0 -50 -11.833 -94.333 -35.5 -133s-54.834 -67.667 -93.501 -87
c-32.667 -16.667 -72.667 -33.334 -120 -50.001c-23.333 -8 -60 -18.333 -110 -31s-84 -24 -102 -34c-24.667 -14 -37 -30.667 -37 -50h492v-164z" />
    <glyph glyph-name="uni00B3" unicode="&#xb3;" horiz-adv-x="831" 
d="M442 1475l-352.001 0.00195312v163h627v-163l-246 -123v-9c103.333 0 177.333 -23 222 -69c44.667 -46.667 67 -103.334 67 -170.001c0 -82.667 -30.167 -147.334 -90.5 -194.001s-146.166 -70 -257.499 -70c-114 0 -201 23.167 -261 69.5s-90 110.5 -90 192.5v18h197
v-18c0 -65.333 51.333 -98 154 -98c48.667 0 86 9.33301 112 28s39 44 39 76c0 69.333 -50.333 104 -151 104h-219v129l249 125v9z" />
    <glyph glyph-name="acute" unicode="&#xb4;" horiz-adv-x="727" 
d="M268 1208h-207l308 328h297z" />
    <glyph glyph-name="mu" unicode="&#xb5;" 
d="M383 -410l-229.001 0.00292969v1414h229v-508c0 -103.333 27.333 -180.333 82 -231c55.333 -51.333 127.666 -77 216.999 -77c96 0 169.333 28.333 220 85c51.333 57.333 77 131.666 77 222.999v508h229v-695c0 -46 5.83301 -78.333 17.5 -97s31.834 -28 60.501 -28
c26 0 41 3 45 9l6 2v-197c-23.333 -12 -59.333 -18 -108 -18c-38.667 0 -74.167 6.16699 -106.5 18.5s-56.5 28.166 -72.5 47.499c-35.333 40.667 -55.666 76 -60.999 106l-4 18h-12c-3.33301 -13.333 -15.666 -35 -36.999 -65c-14.667 -21.333 -32 -41 -52 -59
c-21.333 -18.667 -50.333 -34.334 -87 -47.001s-75 -19 -115 -19c-86.667 0 -152.667 15.333 -198 46c-36.667 23.333 -64.334 47.333 -83.001 72l-8 15h-10v-523z" />
    <glyph glyph-name="paragraph" unicode="&#xb6;" horiz-adv-x="1122" 
d="M41 1085c0 112.667 32.333 199 97 259s154.667 90 270 90h673v-177h-153v-1789h-193v1789h-135v-1789h-192v1269c-111.333 0 -200.333 29.667 -267 89c-66.667 58.667 -100 145 -100 259z" />
    <glyph glyph-name="middot" unicode="&#xb7;" horiz-adv-x="491" 
d="M141 433c-26 24 -39 56.667 -39 98c0 40.667 13 73 39 97s61 36 105 36c43.333 0 78 -12 104 -36s39 -56.333 39 -97c0 -41.333 -13 -74 -39 -98s-60.667 -36 -104 -36c-44 0 -79 12 -105 36z" />
    <glyph glyph-name="cedilla" unicode="&#xb8;" horiz-adv-x="530" 
d="M147 -184v102l119 133h117l-113 -129c132.667 0 199 -54.667 199 -164c0 -51.333 -18 -90.666 -54 -117.999s-86.333 -41 -151 -41c-135.333 0 -203 53.667 -203 161h127c0 -36.667 25.333 -55 76 -55c52 0 78 17.667 78 53c0 37.333 -26 56.666 -78 57.999h-117z" />
    <glyph glyph-name="uni00B9" unicode="&#xb9;" horiz-adv-x="591" 
d="M231 1409l-102 -86l-109 135l207 180h201v-778h-197v549z" />
    <glyph glyph-name="ordmasculine" unicode="&#xba;" horiz-adv-x="942" 
d="M768 998c-74.667 -70 -173.667 -105 -297 -105s-222.333 35 -297 105c-75.333 69.333 -113 162 -113 278s37.667 209 113 279c75.333 69.333 174.333 104 297 104s221.667 -34.667 297 -104c75.333 -70 113 -163 113 -279s-37.667 -208.667 -113 -278zM623 1430
c-38.667 40.667 -89.333 61.001 -152 61.001s-113 -20.333 -151 -61c-38.667 -40.667 -58 -92 -58 -154c0 -61.333 19.333 -112.333 58 -153c38 -41.333 88.333 -62 151 -62c62 0 112.667 20.667 152 62c38 40.667 57 91.667 57 153s-19 112.666 -57 153.999z" />
    <glyph glyph-name="guillemotright" unicode="&#xbb;" horiz-adv-x="1032" 
d="M698 879l273 -381l-273 -381h-235l276 379v4l-276 379h235zM297 879l272 -381l-272 -381h-236l277 379v4l-277 379h236z" />
    <glyph glyph-name="onequarter" unicode="&#xbc;" horiz-adv-x="1595" 
d="M367 0h-220l983 1434h220zM242 1204l-103 -86l-108 135l207 181h200v-779h-196v549zM1427 0h-198v156h-424v163l420 459h202v-463h107v-159h-107v-156zM1231 573h-6l-232 -254v-4h238v258z" />
    <glyph glyph-name="onehalf" unicode="&#xbd;" horiz-adv-x="1718" 
d="M367 0h-220l983 1434h220zM242 1204l-103 -86l-108 135l207 181h200v-779h-196v549zM1630 0l-689.997 0.00390625v129c0 64.667 17 117.667 51 159c34 40 75.667 67.667 125 83c47.333 14.667 96.666 27.667 147.999 39c48.667 10.667 90.334 26 125.001 46
c34 18.667 51 46.334 51 83.001c0 64 -45.667 96 -137 96c-46 0 -80.833 -10 -104.5 -30s-35.5 -46.333 -35.5 -79v-18h-196v18c0 85.333 29.167 152.166 87.5 200.499s141.166 72.5 248.499 72.5s189.666 -23.333 246.999 -70c57.333 -47.333 86 -107.333 86 -180
c0 -50.667 -11.833 -95.334 -35.5 -134.001s-54.5 -67.334 -92.5 -86.001c-32.667 -16.667 -72.667 -33.334 -120 -50.001c-20 -6.66699 -44.333 -13.834 -73 -21.501l-70 -19c-18 -5 -35.833 -11 -53.5 -18s-30.834 -15.167 -39.501 -24.5s-13 -20 -13 -32h491v-164z" />
    <glyph glyph-name="threequarters" unicode="&#xbe;" horiz-adv-x="1851" 
d="M623 0h-220l983 1434h220zM1683 0h-198v156h-424v163l420 459h202v-463h107v-159h-107v-156zM1487 573h-6l-232 -254v-4h238v258zM442 1270l-352.001 0.00195312v164h627v-164l-246 -123v-8c103.333 0 177.333 -23.333 222 -70s67 -103.334 67 -170.001
c0 -82.667 -30.167 -147.334 -90.5 -194.001s-146.166 -70 -257.499 -70c-114 0 -201 23.167 -261 69.5s-90 110.5 -90 192.5v18h197v-18c0 -65.333 51.333 -98 154 -98c48.667 0 86 9.33301 112 28s39 44 39 76c0 69.333 -50.333 104.333 -151 105h-219v129l249 125v8z" />
    <glyph glyph-name="questiondown" unicode="&#xbf;" horiz-adv-x="1265" 
d="M770 988c26 -24 39 -56.333 39 -97c0 -42 -13 -74.333 -39 -97c-26 -24 -60.667 -36 -104 -36c-44 0 -79 12 -105 36c-26 22.667 -39 55 -39 97c0 40.667 13 73 39 97s61 36 105 36c43.333 0 78 -12 104 -36zM745 336c0 45.333 -26.998 67.999 -80.998 67.999
c-54.667 -0.666992 -82 -22 -82 -64v-12h-246v12c0 74 30 134 90 180c60.667 45.333 140 68 238 68c96.667 0 174 -23 232 -69c58 -47.333 87 -108.333 87 -183c0 -59.333 -15.333 -109 -46 -149s-71.334 -68 -122.001 -84c-54 -16.667 -106 -30 -156 -40
c-50 -10.667 -101.667 -20 -155 -28c-48 -7.33301 -88 -20.333 -120 -39c-32 -19.333 -48 -46 -48 -80c0 -80.667 102.333 -121 307 -121s307 47.333 307 142v63h254v-63c0 -115.333 -52.333 -205.333 -157 -270s-239.334 -97 -404.001 -97
c-167.333 0 -302.666 28.667 -405.999 86s-155 144 -155 260c0 64 15.833 118.833 47.5 164.5s73.167 77.834 124.5 96.501c50.667 17.333 104 32 160 44c59.333 11.333 112.666 19 159.999 23s88 13.667 122 29c32.667 14.667 49 35.667 49 63z" />
    <glyph glyph-name="Agrave" unicode="&#xc0;" horiz-adv-x="1513" 
d="M592 1434h330l581 -1434h-266l-115 285h-731l-115 -285h-266zM481 506h551l-270 682h-10zM250 1946h297l307 -328h-207z" />
    <glyph glyph-name="Aacute" unicode="&#xc1;" horiz-adv-x="1513" 
d="M592 1434h330l581 -1434h-266l-115 285h-731l-115 -285h-266zM481 506h551l-270 682h-10zM866 1618h-207l308 328h297z" />
    <glyph glyph-name="Acircumflex" unicode="&#xc2;" horiz-adv-x="1513" 
d="M592 1434h330l581 -1434h-266l-115 285h-731l-115 -285h-266zM481 506h551l-270 682h-10zM752 1849l-181 -231h-215l262 328h273l262 -328h-215l-180 231h-6z" />
    <glyph glyph-name="Atilde" unicode="&#xc3;" horiz-adv-x="1513" 
d="M592 1434h330l581 -1434h-266l-115 285h-731l-115 -285h-266zM481 506h551l-270 682h-10zM584 1577c-57.333 0 -102.832 13.668 -136.499 41.001s-50.5 65.666 -50.5 114.999l11 84h157c-4 -12 -6 -26.333 -6 -43c0 -37.333 19.667 -56.666 59 -57.999
c16 -0.666992 35.667 5 59 17s46 25.5 68 40.5s50.333 28.667 85 41s69.334 17.833 104.001 16.5c58 0 103.5 -13.5 136.5 -40.5s49.5 -65.5 49.5 -115.5l-10 -84h-158c4 12 6 26.333 6 43c0 37.333 -19.667 56.666 -59 57.999c-14.667 0.666992 -33.834 -5 -57.501 -17
s-46.834 -25.5 -69.501 -40.5s-51.167 -28.667 -85.5 -41s-68.5 -17.833 -102.5 -16.5z" />
    <glyph glyph-name="Adieresis" unicode="&#xc4;" horiz-adv-x="1513" 
d="M592 1434h330l581 -1434h-266l-115 285h-731l-115 -285h-266zM481 506h551l-270 682h-10zM866 1668c-23.333 20 -35 47.667 -35 83s11.667 63 35 83c22.667 20 53.667 30 93 30c38 0 68.667 -10 92 -30c22.667 -20 34 -47.667 34 -83s-11.333 -63 -34 -83
c-23.333 -20 -54 -30 -92 -30c-39.333 0 -70.333 10 -93 30zM461 1668c-23.333 20 -35.001 47.667 -35.001 83s11.667 63 35 83c22.667 20 53.334 30 92.001 30c38 0 68.667 -10 92 -30s35 -47.667 35 -83s-11.667 -63 -35 -83s-54 -30 -92 -30s-68.667 10 -92 30z" />
    <glyph glyph-name="Aring" unicode="&#xc5;" horiz-adv-x="1513" 
d="M592 1434h330l581 -1434h-266l-115 285h-731l-115 -285h-266zM481 506h551l-270 682h-10zM593 1611c-38.667 36 -57.999 84 -57.999 144s19.333 108.333 58 145c38.667 36 93 54 163 54c69.333 0 123.666 -18 162.999 -54c38.667 -36.667 58 -85 58 -145
s-19.333 -108 -58 -144c-38.667 -36.667 -93 -55 -163 -55s-124.333 18.333 -163 55zM756.001 1686c46 0 69 23.333 69 70c0 46 -23 69 -69 69c-46.667 0 -70 -23 -70 -69c0 -46.667 23.333 -70 70 -70z" />
    <glyph glyph-name="AE" unicode="&#xc6;" horiz-adv-x="1988" 
d="M1866 0h-957v287h-530l-117 -287h-262l582 1434h1284v-217h-703v-375h576v-213h-576v-412h703v-217zM909 504v713h-153l-289 -713h442z" />
    <glyph glyph-name="Ccedilla" unicode="&#xc7;" horiz-adv-x="1695" 
d="M758 -184l-0.00195312 101.999l55 64c-208.667 8.66699 -374 80.334 -496 215.001c-122.667 132.667 -184 306 -184 520c0 222 66 400.333 198 535c130.667 134.667 307.667 202 531 202c96 0 185.667 -14 269 -42c81.333 -27.333 149 -63 203 -107
c52 -43.333 97.333 -92.333 136 -147c68.667 -98.667 103 -196 103 -292h-266c2 20 -9.5 55.667 -34.5 107s-59.167 98 -102.5 140c-34 32.667 -78.167 59.5 -132.5 80.5s-112.833 31.5 -175.5 31.5c-142 0 -254.667 -47.667 -338 -143
c-83.333 -96.667 -125 -218.334 -125 -365.001c0 -147.333 41.667 -268.666 125 -363.999c82.667 -96 195.334 -144 338.001 -144c62.667 0 121.167 10.5 175.5 31.5s98.5 47.833 132.5 80.5c32 32 58.667 65 80 99c38 62.667 57 111.667 57 147h266
c0 -110 -48.667 -226.333 -146 -349c-49.333 -61.333 -116.666 -113.333 -201.999 -156c-86 -44 -183.667 -70 -293 -78l-51 -62c66.667 0 116.5 -13.667 149.5 -41s49.167 -68.333 48.5 -123c0 -51.333 -17.833 -90.666 -53.5 -117.999s-86.167 -41 -151.5 -41
c-67.333 0 -118 13.5 -152 40.5s-50.667 67.167 -50 120.5h127c0 -36.667 25 -55 75 -55c52 0 78 17.667 78 53c0 37.333 -26 56.666 -78 57.999h-116z" />
    <glyph glyph-name="Egrave" unicode="&#xc8;" horiz-adv-x="1419" 
d="M1296 0h-1122v1434h1122v-217h-868v-375h741v-213h-741v-412h868v-217zM268 1946h297l307 -328h-206z" />
    <glyph glyph-name="Eacute" unicode="&#xc9;" horiz-adv-x="1419" 
d="M1296 0h-1122v1434h1122v-217h-868v-375h741v-213h-741v-412h868v-217zM838 1618h-207l307 328h297z" />
    <glyph glyph-name="Ecircumflex" unicode="&#xca;" horiz-adv-x="1419" 
d="M1296 0h-1122v1434h1122v-217h-868v-375h741v-213h-741v-412h868v-217zM733 1849l-180 -231h-215l262 328h272l263 -328h-215l-181 231h-6z" />
    <glyph glyph-name="Edieresis" unicode="&#xcb;" horiz-adv-x="1419" 
d="M1296 0h-1122v1434h1122v-217h-868v-375h741v-213h-741v-412h868v-217zM862 1668c-23.333 20 -35 47.667 -35 83s11.667 63 35 83c22.667 20 53.667 30 93 30c38 0 68.667 -10 92 -30c22.667 -20 34 -47.667 34 -83s-11.333 -63 -34 -83c-23.333 -20 -54 -30 -92 -30
c-39.333 0 -70.333 10 -93 30zM457 1668c-23.333 20 -35.001 47.667 -35.001 83s11.667 63 35 83c22.667 20 53.334 30 92.001 30c38 0 68.667 -10 92 -30s35 -47.667 35 -83s-11.667 -63 -35 -83s-54 -30 -92 -30s-68.667 10 -92 30z" />
    <glyph glyph-name="Igrave" unicode="&#xcc;" horiz-adv-x="1232" 
d="M123 1434h987v-217h-367v-1000h367v-217h-987v217h366v1000h-366v217zM125 1946h297l307 -328h-207z" />
    <glyph glyph-name="Iacute" unicode="&#xcd;" horiz-adv-x="1232" 
d="M123 1434h987v-217h-367v-1000h367v-217h-987v217h366v1000h-366v217zM707 1618h-207l307 328h297z" />
    <glyph glyph-name="Icircumflex" unicode="&#xce;" horiz-adv-x="1232" 
d="M123 1434h987v-217h-367v-1000h367v-217h-987v217h366v1000h-366v217zM612 1849l-180 -231h-215l262 328h273l262 -328h-215l-181 231h-6z" />
    <glyph glyph-name="Idieresis" unicode="&#xcf;" horiz-adv-x="1232" 
d="M123 1434h987v-217h-367v-1000h367v-217h-987v217h366v1000h-366v217zM727 1668c-23.333 20 -35 47.667 -35 83s11.667 63 35 83s54.333 30 93 30s69.334 -10 92.001 -30s34 -47.667 34 -83s-11.333 -63 -34 -83s-53.334 -30 -92.001 -30s-69.667 10 -93 30zM322 1668
c-23.333 20 -35 47.667 -35 83s11.667 63 35 83c22.667 20 53.334 30 92.001 30s69.334 -10 92.001 -30c23.333 -20 35 -47.667 35 -83s-11.667 -63 -35 -83c-22.667 -20 -53.334 -30 -92.001 -30s-69.334 10 -92.001 30z" />
    <glyph glyph-name="Eth" unicode="&#xd0;" horiz-adv-x="1673" 
d="M811 0h-555.001v625h-215v213h215v596h555c226.667 0 405 -64 535 -192c129.333 -129.333 194 -304.333 194 -525c0 -221.333 -64.667 -396 -194 -524c-129.333 -128.667 -307.666 -193 -534.999 -193zM509.999 221l301 0.000976562c146 0 259.667 45.667 341 137
s122 211 122 359c0 147.333 -40.667 266.666 -122 357.999s-195 137 -341 137h-301v-374h293v-213h-293v-404z" />
    <glyph glyph-name="Ntilde" unicode="&#xd1;" horiz-adv-x="1660" 
d="M1487 0h-418l-629 1186h-12v-1186h-254v1434h418l629 -1186h12v1186h254v-1434zM688 1577c-57.333 0 -102.664 13.668 -135.997 41.001s-50 65.666 -50 114.999l10 84h158c-4 -12 -6 -26.333 -6 -43c0 -37.333 19.667 -56.666 59 -57.999c16 -0.666992 35.667 5 59 17
s46 25.5 68 40.5s50.167 28.667 84.5 41s68.833 17.833 103.5 16.5c58 0 103.667 -13.5 137 -40.5s50 -65.5 50 -115.5l-11 -84h-157c4 12 6 26.333 6 43c0 37.333 -19.667 56.666 -59 57.999c-14.667 0.666992 -33.834 -5 -57.501 -17s-46.834 -25.5 -69.501 -40.5
s-51.334 -28.667 -86.001 -41s-69 -17.833 -103 -16.5z" />
    <glyph glyph-name="Ograve" unicode="&#xd2;" horiz-adv-x="1724" 
d="M1394 1252c131.333 -135.333 197 -313.667 197 -535c0 -220.667 -65.667 -398.667 -197 -534c-132 -135.333 -309.333 -203 -532 -203s-399.667 67.667 -531 203c-132 135.333 -198 313.333 -198 534c0 222 66 400.333 198 535c130.667 134.667 307.667 202 531 202
c222.667 0 400 -67.333 532 -202zM1201 352.999c82.667 94.667 124 216 124 364s-41.333 269.667 -124 365c-83.333 95.333 -196.333 143 -339 143s-255.667 -47.667 -339 -143c-82.667 -95.333 -124 -217 -124 -365s41.333 -269.333 124 -364
c83.333 -96 196.333 -144 339 -144s255.667 48 339 144zM362 1946h297l308 -328h-207z" />
    <glyph glyph-name="Oacute" unicode="&#xd3;" horiz-adv-x="1724" 
d="M1394 1252c131.333 -135.333 197 -313.667 197 -535c0 -220.667 -65.667 -398.667 -197 -534c-132 -135.333 -309.333 -203 -532 -203s-399.667 67.667 -531 203c-132 135.333 -198 313.333 -198 534c0 222 66 400.333 198 535c130.667 134.667 307.667 202 531 202
c222.667 0 400 -67.333 532 -202zM1201 352.999c82.667 94.667 124 216 124 364s-41.333 269.667 -124 365c-83.333 95.333 -196.333 143 -339 143s-255.667 -47.667 -339 -143c-82.667 -95.333 -124 -217 -124 -365s41.333 -269.333 124 -364
c83.333 -96 196.333 -144 339 -144s255.667 48 339 144zM956 1618h-206l307 328h297z" />
    <glyph glyph-name="Ocircumflex" unicode="&#xd4;" horiz-adv-x="1724" 
d="M1394 1252c131.333 -135.333 197 -313.667 197 -535c0 -220.667 -65.667 -398.667 -197 -534c-132 -135.333 -309.333 -203 -532 -203s-399.667 67.667 -531 203c-132 135.333 -198 313.333 -198 534c0 222 66 400.333 198 535c130.667 134.667 307.667 202 531 202
c222.667 0 400 -67.333 532 -202zM1201 352.999c82.667 94.667 124 216 124 364s-41.333 269.667 -124 365c-83.333 95.333 -196.333 143 -339 143s-255.667 -47.667 -339 -143c-82.667 -95.333 -124 -217 -124 -365s41.333 -269.333 124 -364
c83.333 -96 196.333 -144 339 -144s255.667 48 339 144zM858 1849l-180 -231h-215l262 328h272l263 -328h-216l-180 231h-6z" />
    <glyph glyph-name="Otilde" unicode="&#xd5;" horiz-adv-x="1724" 
d="M1394 1252c131.333 -135.333 197 -313.667 197 -535c0 -220.667 -65.667 -398.667 -197 -534c-132 -135.333 -309.333 -203 -532 -203s-399.667 67.667 -531 203c-132 135.333 -198 313.333 -198 534c0 222 66 400.333 198 535c130.667 134.667 307.667 202 531 202
c222.667 0 400 -67.333 532 -202zM1201 352.999c82.667 94.667 124 216 124 364s-41.333 269.667 -124 365c-83.333 95.333 -196.333 143 -339 143s-255.667 -47.667 -339 -143c-82.667 -95.333 -124 -217 -124 -365s41.333 -269.333 124 -364
c83.333 -96 196.333 -144 339 -144s255.667 48 339 144zM686 1577c-57.333 0 -102.666 13.668 -135.999 41.001s-50 65.666 -50 114.999l10 84h158c-4 -12 -6 -26.333 -6 -43c0 -37.333 19.667 -56.666 59 -57.999c16 -0.666992 35.667 5 59 17s46 25.5 68 40.5
s50.167 28.667 84.5 41s68.833 17.833 103.5 16.5c58 0 103.667 -13.5 137 -40.5s50 -65.5 50 -115.5l-11 -84h-157c4 12 6 26.333 6 43c0 37.333 -20 56.666 -60 57.999c-14.667 0.666992 -33.667 -5 -57 -17s-46.333 -25.5 -69 -40.5s-51.334 -28.667 -86.001 -41
s-69 -17.833 -103 -16.5z" />
    <glyph glyph-name="Odieresis" unicode="&#xd6;" horiz-adv-x="1724" 
d="M1394 1252c131.333 -135.333 197 -313.667 197 -535c0 -220.667 -65.667 -398.667 -197 -534c-132 -135.333 -309.333 -203 -532 -203s-399.667 67.667 -531 203c-132 135.333 -198 313.333 -198 534c0 222 66 400.333 198 535c130.667 134.667 307.667 202 531 202
c222.667 0 400 -67.333 532 -202zM1201 352.999c82.667 94.667 124 216 124 364s-41.333 269.667 -124 365c-83.333 95.333 -196.333 143 -339 143s-255.667 -47.667 -339 -143c-82.667 -95.333 -124 -217 -124 -365s41.333 -269.333 124 -364
c83.333 -96 196.333 -144 339 -144s255.667 48 339 144zM973 1668c-23.333 20 -35 47.667 -35 83s11.667 63 35 83s54 30 92 30s68.667 -10 92 -30s35 -47.667 35 -83s-11.667 -63 -35 -83s-54 -30 -92 -30s-68.667 10 -92 30zM567 1668c-23.333 20 -35 47.667 -35 83
s11.667 63 35 83s54.333 30 93 30s69.334 -10 92.001 -30s34 -47.667 34 -83s-11.333 -63 -34 -83s-53.334 -30 -92.001 -30s-69.667 10 -93 30z" />
    <glyph glyph-name="multiply" unicode="&#xd7;" horiz-adv-x="950" 
d="M102 780l134 133l239 -243l240 243l133 -133l-244 -239l244 -240l-133 -133l-240 244l-239 -244l-134 133l244 240z" />
    <glyph glyph-name="Oslash" unicode="&#xd8;" horiz-adv-x="1736" 
d="M276 254l-155 -89.999l-101 184l160 92c-27.333 76 -41 168.333 -41 277c0 222 66 400.333 198 535s309 202 531 202c81.333 0 157 -9.33301 227 -28c69.333 -18.667 125.666 -41.667 168.999 -69c86.667 -54.667 146 -104.334 178 -149.001l18 -28l156 90l100 -185
l-162 -94c28.667 -68 43 -159.333 43 -274c0 -220.667 -65.667 -398.667 -197 -534c-132 -135.333 -309.333 -203 -532 -203c-81.333 0 -156 9.66699 -224 29c-71.333 19.333 -127.666 42 -168.999 68c-87.333 54 -147.333 103.333 -180 148zM406 717.001
c0 -43.333 4 -84.332 12 -122.999l2 -16l813 471c-10.667 17.333 -28.334 37.666 -53.001 60.999c-21.333 20.667 -45 38.667 -71 54c-69.333 40.667 -149.666 61 -240.999 61c-143.333 0 -256 -47.667 -338 -143c-82.667 -95.333 -124 -217 -124 -365zM1331 717.002
c0 44 -4.00098 84.333 -12.001 121l-2 16l-813 -469c10.667 -17.333 28.667 -37.666 54 -60.999c18.667 -18.667 42.334 -36.334 71.001 -53.001c29.333 -16.667 65.5 -31.167 108.5 -43.5s86.5 -18.5 130.5 -18.5c142.667 0 255.667 48 339 144
c82.667 94.667 124 216 124 364z" />
    <glyph glyph-name="Ugrave" unicode="&#xd9;" horiz-adv-x="1613" 
d="M1270 113c-119.333 -88.667 -273.669 -133 -463.002 -133s-343.666 44.333 -462.999 133c-120 88.667 -180 218.334 -180 389.001v932h254v-918c0 -106.667 37 -185 111 -235c72.667 -50.667 165.334 -76 278.001 -76s205.667 25.333 279 76
c73.333 50 110 128.333 110 235v918h254v-932c0 -170.667 -60 -300.334 -180 -389.001zM327.997 1946h297l307 -328h-207z" />
    <glyph glyph-name="Uacute" unicode="&#xda;" horiz-adv-x="1613" 
d="M1270 113c-119.333 -88.667 -273.669 -133 -463.002 -133s-343.666 44.333 -462.999 133c-120 88.667 -180 218.334 -180 389.001v932h254v-918c0 -106.667 37 -185 111 -235c72.667 -50.667 165.334 -76 278.001 -76s205.667 25.333 279 76
c73.333 50 110 128.333 110 235v918h254v-932c0 -170.667 -60 -300.334 -180 -389.001zM892.997 1618h-207l307 328h297z" />
    <glyph glyph-name="Ucircumflex" unicode="&#xdb;" horiz-adv-x="1613" 
d="M1270 113c-119.333 -88.667 -273.669 -133 -463.002 -133s-343.666 44.333 -462.999 133c-120 88.667 -180 218.334 -180 389.001v932h254v-918c0 -106.667 37 -185 111 -235c72.667 -50.667 165.334 -76 278.001 -76s205.667 25.333 279 76
c73.333 50 110 128.333 110 235v918h254v-932c0 -170.667 -60 -300.334 -180 -389.001zM804.997 1849l-180 -231h-215l262 328h272l262 -328h-215l-180 231h-6z" />
    <glyph glyph-name="Udieresis" unicode="&#xdc;" horiz-adv-x="1613" 
d="M1270 113c-119.333 -88.667 -273.669 -133 -463.002 -133s-343.666 44.333 -462.999 133c-120 88.667 -180 218.334 -180 389.001v932h254v-918c0 -106.667 37 -185 111 -235c72.667 -50.667 165.334 -76 278.001 -76s205.667 25.333 279 76
c73.333 50 110 128.333 110 235v918h254v-932c0 -170.667 -60 -300.334 -180 -389.001zM917.997 1668c-23.333 20 -34.999 47.667 -34.999 83s11.667 63 35 83s54 30 92 30c38.667 0 69.334 -10 92.001 -30c23.333 -20 35 -47.667 35 -83s-11.667 -63 -35 -83
c-22.667 -20 -53.334 -30 -92.001 -30s-69.334 10 -92.001 30zM511.998 1668c-23.333 20 -35 47.667 -35 83s11.667 63 35 83c22.667 20 53.667 30 93 30c38 0 68.667 -10 92 -30c22.667 -20 34 -47.667 34 -83s-11.333 -63 -34 -83c-23.333 -20 -54 -30 -92 -30
c-39.333 0 -70.333 10 -93 30z" />
    <glyph glyph-name="Yacute" unicode="&#xdd;" horiz-adv-x="1390" 
d="M297 1434l391 -686h14l392 686h276l-534 -920v-514h-281v514l-535 920h277zM801 1618h-207l307 328h297z" />
    <glyph glyph-name="Thorn" unicode="&#xde;" horiz-adv-x="1488" 
d="M428 0h-254v1434h254v-220h348c393.333 0 590 -162.333 590 -487s-196.667 -487 -590 -487h-348v-240zM428 461h348c216 0 324 88.667 324 266s-108 266 -324 266h-348v-532z" />
    <glyph glyph-name="germandbls" unicode="&#xdf;" horiz-adv-x="1404" 
d="M915 -20c-69.333 0 -130.671 10.1689 -184.004 30.502s-92.333 46.166 -117 77.499c-23.333 28.667 -42 58.167 -56 88.5s-21.667 56.166 -23 77.499l-3 33h242c-0.666992 -0.666992 0 -4 2 -10s6 -14.167 12 -24.5s13.333 -20.166 22 -29.499c22 -23.333 57 -35 105 -35
c44.667 0 80.834 12.333 108.501 37s41.5 55.667 41.5 93c0 66 -43 124.333 -129 175c-68.667 40 -115 70 -139 90c-65.333 54.667 -97.666 119 -96.999 193c0 48 26.333 99.333 79 154s79 110 79 166c0 44 -19.333 80 -58 108c-39.333 27.333 -88.333 41 -147 41
c-147.333 0 -221 -71.667 -221 -215v-1030h-229v807h-172v129l172 68v40c0 135.333 38.333 237.5 115 306.5s188.334 103.5 335.001 103.5c136 0 243.667 -32.333 323 -97c80 -64.667 120 -145 120 -241c0 -60 -13.333 -111.333 -40 -154
c-28 -44.667 -54.333 -79.334 -79 -104.001c-26 -26 -39 -49.333 -39 -70c0 -18.667 8 -37.167 24 -55.5s34 -33.666 54 -45.999l79.5 -48c33 -19.667 59.167 -36.5 78.5 -50.5c38.667 -28 69.834 -65.167 93.501 -111.5s35.5 -99.5 35.5 -159.5
c0 -98.667 -33 -179.334 -99 -242.001c-66.667 -63.333 -163 -95 -289 -95z" />
    <glyph glyph-name="agrave" unicode="&#xe0;" horiz-adv-x="1333" 
d="M113 283c0 104 43.667 181.999 131 233.999c87.333 51.333 197.666 77 330.999 77c67.333 0 130.666 -8 189.999 -24c59.333 -17.333 100.666 -34 123.999 -50l35 -22v145c0 55.333 -21 101.333 -63 138c-42.667 36.667 -110 55 -202 55
c-81.333 0 -145 -12.833 -191 -38.5s-69 -62.834 -69 -111.501h-237c0.666992 112.667 47 197.334 139 254.001c91.333 56 210.666 84 357.999 84c150.667 0 270.667 -32.333 360 -97c89.333 -65.333 134 -160 134 -284v-334c0 -46 5.83301 -78.333 17.5 -97
s31.834 -28 60.501 -28c24.667 0 40.334 3 47.001 9l4 2v-197c-22.667 -12 -58.667 -18 -108 -18c-54.667 0 -100.667 11 -138 33c-37.333 20.667 -61.666 42.334 -72.999 65.001l-15 33h-12c-6 -9.33301 -23.667 -24.333 -53 -45c-24.667 -16.667 -49 -30 -73 -40
c-68 -30.667 -155 -46 -261 -46c-127.333 0 -231.666 25.333 -312.999 76c-82 50 -123 125.667 -123 227zM637 167.999c58.667 0 112 7.00098 160 21.001c46.667 12.667 80 26 100 40l27 21v96c-55.333 41.333 -151 62.666 -287 63.999c-191.333 0 -287 -39.667 -287 -119
c0 -82 95.667 -123 287 -123zM203 1536h297l307 -328h-207z" />
    <glyph glyph-name="aacute" unicode="&#xe1;" horiz-adv-x="1333" 
d="M113 283c0 104 43.667 181.999 131 233.999c87.333 51.333 197.666 77 330.999 77c67.333 0 130.666 -8 189.999 -24c59.333 -17.333 100.666 -34 123.999 -50l35 -22v145c0 55.333 -21 101.333 -63 138c-42.667 36.667 -110 55 -202 55
c-81.333 0 -145 -12.833 -191 -38.5s-69 -62.834 -69 -111.501h-237c0.666992 112.667 47 197.334 139 254.001c91.333 56 210.666 84 357.999 84c150.667 0 270.667 -32.333 360 -97c89.333 -65.333 134 -160 134 -284v-334c0 -46 5.83301 -78.333 17.5 -97
s31.834 -28 60.501 -28c24.667 0 40.334 3 47.001 9l4 2v-197c-22.667 -12 -58.667 -18 -108 -18c-54.667 0 -100.667 11 -138 33c-37.333 20.667 -61.666 42.334 -72.999 65.001l-15 33h-12c-6 -9.33301 -23.667 -24.333 -53 -45c-24.667 -16.667 -49 -30 -73 -40
c-68 -30.667 -155 -46 -261 -46c-127.333 0 -231.666 25.333 -312.999 76c-82 50 -123 125.667 -123 227zM637 167.999c58.667 0 112 7.00098 160 21.001c46.667 12.667 80 26 100 40l27 21v96c-55.333 41.333 -151 62.666 -287 63.999c-191.333 0 -287 -39.667 -287 -119
c0 -82 95.667 -123 287 -123zM766 1208h-207l307 328h297z" />
    <glyph glyph-name="acircumflex" unicode="&#xe2;" horiz-adv-x="1333" 
d="M113 283c0 104 43.667 181.999 131 233.999c87.333 51.333 197.666 77 330.999 77c67.333 0 130.666 -8 189.999 -24c59.333 -17.333 100.666 -34 123.999 -50l35 -22v145c0 55.333 -21 101.333 -63 138c-42.667 36.667 -110 55 -202 55
c-81.333 0 -145 -12.833 -191 -38.5s-69 -62.834 -69 -111.501h-237c0.666992 112.667 47 197.334 139 254.001c91.333 56 210.666 84 357.999 84c150.667 0 270.667 -32.333 360 -97c89.333 -65.333 134 -160 134 -284v-334c0 -46 5.83301 -78.333 17.5 -97
s31.834 -28 60.501 -28c24.667 0 40.334 3 47.001 9l4 2v-197c-22.667 -12 -58.667 -18 -108 -18c-54.667 0 -100.667 11 -138 33c-37.333 20.667 -61.666 42.334 -72.999 65.001l-15 33h-12c-6 -9.33301 -23.667 -24.333 -53 -45c-24.667 -16.667 -49 -30 -73 -40
c-68 -30.667 -155 -46 -261 -46c-127.333 0 -231.666 25.333 -312.999 76c-82 50 -123 125.667 -123 227zM637 167.999c58.667 0 112 7.00098 160 21.001c46.667 12.667 80 26 100 40l27 21v96c-55.333 41.333 -151 62.666 -287 63.999c-191.333 0 -287 -39.667 -287 -119
c0 -82 95.667 -123 287 -123zM670 1440l-181 -232h-215l263 328h272l262 -328h-215l-180 232h-6z" />
    <glyph glyph-name="atilde" unicode="&#xe3;" horiz-adv-x="1333" 
d="M113 283c0 104 43.667 181.999 131 233.999c87.333 51.333 197.666 77 330.999 77c67.333 0 130.666 -8 189.999 -24c59.333 -17.333 100.666 -34 123.999 -50l35 -22v145c0 55.333 -21 101.333 -63 138c-42.667 36.667 -110 55 -202 55
c-81.333 0 -145 -12.833 -191 -38.5s-69 -62.834 -69 -111.501h-237c0.666992 112.667 47 197.334 139 254.001c91.333 56 210.666 84 357.999 84c150.667 0 270.667 -32.333 360 -97c89.333 -65.333 134 -160 134 -284v-334c0 -46 5.83301 -78.333 17.5 -97
s31.834 -28 60.501 -28c24.667 0 40.334 3 47.001 9l4 2v-197c-22.667 -12 -58.667 -18 -108 -18c-54.667 0 -100.667 11 -138 33c-37.333 20.667 -61.666 42.334 -72.999 65.001l-15 33h-12c-6 -9.33301 -23.667 -24.333 -53 -45c-24.667 -16.667 -49 -30 -73 -40
c-68 -30.667 -155 -46 -261 -46c-127.333 0 -231.666 25.333 -312.999 76c-82 50 -123 125.667 -123 227zM637 167.999c58.667 0 112 7.00098 160 21.001c46.667 12.667 80 26 100 40l27 21v96c-55.333 41.333 -151 62.666 -287 63.999c-191.333 0 -287 -39.667 -287 -119
c0 -82 95.667 -123 287 -123zM496 1188c-57.333 0 -102.832 13.501 -136.499 40.501s-50.5 65.167 -50.5 114.5l10 84h158c-4 -12 -6 -26.333 -6 -43c0 -38 19.667 -57 59 -57c16 -1.33301 35.667 4 59 16s46 25.667 68 41s50.333 29 85 41s69.334 17.667 104.001 17
c58 0 103.5 -13.5 136.5 -40.5s49.5 -65.5 49.5 -115.5l-10 -84h-158c4 12 6 26.333 6 43c0 37.333 -19.667 56.666 -59 57.999c-14.667 0.666992 -33.834 -5 -57.501 -17s-46.834 -25.5 -69.501 -40.5s-51.167 -28.667 -85.5 -41s-68.5 -17.833 -102.5 -16.5z" />
    <glyph glyph-name="adieresis" unicode="&#xe4;" horiz-adv-x="1333" 
d="M113 283c0 104 43.667 181.999 131 233.999c87.333 51.333 197.666 77 330.999 77c67.333 0 130.666 -8 189.999 -24c59.333 -17.333 100.666 -34 123.999 -50l35 -22v145c0 55.333 -21 101.333 -63 138c-42.667 36.667 -110 55 -202 55
c-81.333 0 -145 -12.833 -191 -38.5s-69 -62.834 -69 -111.501h-237c0.666992 112.667 47 197.334 139 254.001c91.333 56 210.666 84 357.999 84c150.667 0 270.667 -32.333 360 -97c89.333 -65.333 134 -160 134 -284v-334c0 -46 5.83301 -78.333 17.5 -97
s31.834 -28 60.501 -28c24.667 0 40.334 3 47.001 9l4 2v-197c-22.667 -12 -58.667 -18 -108 -18c-54.667 0 -100.667 11 -138 33c-37.333 20.667 -61.666 42.334 -72.999 65.001l-15 33h-12c-6 -9.33301 -23.667 -24.333 -53 -45c-24.667 -16.667 -49 -30 -73 -40
c-68 -30.667 -155 -46 -261 -46c-127.333 0 -231.666 25.333 -312.999 76c-82 50 -123 125.667 -123 227zM637 167.999c58.667 0 112 7.00098 160 21.001c46.667 12.667 80 26 100 40l27 21v96c-55.333 41.333 -151 62.666 -287 63.999c-191.333 0 -287 -39.667 -287 -119
c0 -82 95.667 -123 287 -123zM793 1228c-23.333 19.333 -35 47 -35 83c0 35.333 11.667 63 35 83c23.333 19.333 54 29 92 29s68.667 -9.66699 92 -29c23.333 -20 35 -47.667 35 -83c0 -36 -11.667 -63.667 -35 -83c-23.333 -20 -54 -30 -92 -30s-68.667 10 -92 30z
M387 1228c-23.333 19.333 -35 47.001 -35 83.001c0 35.333 11.667 63 35 83c23.333 19.333 54.333 29 93 29c38 0 68.667 -9.66699 92 -29c22.667 -20 34 -47.667 34 -83c0 -36.667 -11.333 -64.334 -34 -83.001c-23.333 -20 -54 -30 -92 -30c-38.667 0 -69.667 10 -93 30z
" />
    <glyph glyph-name="aring" unicode="&#xe5;" horiz-adv-x="1333" 
d="M113 283c0 104 43.667 181.999 131 233.999c87.333 51.333 197.666 77 330.999 77c67.333 0 130.666 -8 189.999 -24c59.333 -17.333 100.666 -34 123.999 -50l35 -22v145c0 55.333 -21 101.333 -63 138c-42.667 36.667 -110 55 -202 55
c-81.333 0 -145 -12.833 -191 -38.5s-69 -62.834 -69 -111.501h-237c0.666992 112.667 47 197.334 139 254.001c91.333 56 210.666 84 357.999 84c150.667 0 270.667 -32.333 360 -97c89.333 -65.333 134 -160 134 -284v-334c0 -46 5.83301 -78.333 17.5 -97
s31.834 -28 60.501 -28c24.667 0 40.334 3 47.001 9l4 2v-197c-22.667 -12 -58.667 -18 -108 -18c-54.667 0 -100.667 11 -138 33c-37.333 20.667 -61.666 42.334 -72.999 65.001l-15 33h-12c-6 -9.33301 -23.667 -24.333 -53 -45c-24.667 -16.667 -49 -30 -73 -40
c-68 -30.667 -155 -46 -261 -46c-127.333 0 -231.666 25.333 -312.999 76c-82 50 -123 125.667 -123 227zM637 167.999c58.667 0 112 7.00098 160 21.001c46.667 12.667 80 26 100 40l27 21v96c-55.333 41.333 -151 62.666 -287 63.999c-191.333 0 -287 -39.667 -287 -119
c0 -82 95.667 -123 287 -123zM511 1201c-38.667 36 -58 84.333 -58 145c0 60 19.333 108 58 144c39.333 36 93.666 54 162.999 54s123.666 -18 162.999 -54c38.667 -36 58 -84 58 -144c0 -60.667 -19.333 -109 -58 -145c-39.333 -36 -93.666 -54 -162.999 -54
s-123.666 18 -162.999 54zM674 1276c46 0 69 23.333 69 70c0 46 -23 69 -69 69c-46.667 0 -70 -23 -70 -69c0 -46.667 23.333 -70 70 -70z" />
    <glyph glyph-name="ae" unicode="&#xe6;" horiz-adv-x="2117" 
d="M2005 498l-3.99805 -76.002h-825c0 -85.333 26.833 -149.666 80.5 -192.999s131.167 -65 232.5 -65c82 0 142.333 14 181 42c32 23.333 52.333 44.666 61 63.999l4 13h247c-0.666992 -6 -3.33398 -17 -8.00098 -33c-4 -13.333 -16 -37.666 -36 -72.999
c-20.667 -34.667 -46.334 -65.334 -77.001 -92.001c-31.333 -27.333 -77.333 -51.333 -138 -72c-62 -22 -132 -33 -210 -33c-60 0 -117 6.5 -171 19.5s-97.333 30.167 -130 51.5c-65.333 41.333 -109.666 78.333 -132.999 111l-14 20h-16
c-3.33301 -5.33301 -7.33301 -12.333 -12 -21c-7.33301 -10.667 -22.333 -27 -45 -49c-24 -24 -51.667 -44.667 -83 -62c-30.667 -18 -75 -34 -133 -48c-56 -14.667 -118.667 -22 -188 -22c-155.333 0 -273.333 25.167 -354 75.5s-121 123.833 -121 220.5
c0 120.667 54 202.334 162 245.001c54 20.667 114 35.667 180 45c64.667 8 145.667 12 243 12h240c0 77.333 -25 140.333 -75 189c-49.333 48.667 -118.666 73 -207.999 73c-55.333 0 -101.833 -8 -139.5 -24s-64.834 -35.667 -81.501 -59c-20.667 -24.667 -31 -45 -31 -61
h-235c0 77.333 40.333 151.333 121 222s200 106 358 106c52 0 102.167 -6.83301 150.5 -20.5s87.5 -30.834 117.5 -51.501c58.667 -41.333 99 -78.666 121 -111.999l13 -21h16c8 18 27.333 42 58 72c25.333 24.667 51.666 45.334 78.999 62.001c32 18.667 71.333 35 118 49
c48.667 14.667 101.667 22 159 22c164 0 292.667 -45.667 386 -137s140 -221 140 -389zM621.002 163.998c115.333 0 197.333 21.668 246 65.001c47.333 43.333 71 107.666 71 192.999h-322c-76.667 0 -138 -6.66699 -184 -20c-54.667 -16.667 -82 -51.667 -82 -105
c0.666992 -88.667 91 -133 271 -133zM1468 839.999c-83.333 0 -152.667 -23.667 -208 -71c-56 -47.333 -84 -111 -84 -191h589c0 78 -26.333 141.333 -79 190c-53.333 48 -126 72 -218 72z" />
    <glyph glyph-name="ccedilla" unicode="&#xe7;" horiz-adv-x="1331" 
d="M575 -184l0.00195312 101.999l56 64c-154.667 8 -279.334 58.333 -374.001 151c-96 92.667 -144 215.667 -144 369c0 161.333 52.667 288.666 158 381.999s241 140 407 140c93.333 0 177.333 -15 252 -45c75.333 -30 133.333 -67.333 174 -112
c83.333 -91.333 125 -175.666 125 -252.999h-242c-5.33301 19.333 -17 42.666 -35 69.999c-17.333 24.667 -35.666 45.334 -54.999 62.001c-22.667 19.333 -53.5 35.666 -92.5 48.999s-81.167 20 -126.5 20c-98 0 -177 -29 -237 -87c-60.667 -58 -91 -133.333 -91 -226
c0 -93.333 30 -169 90 -227s139.333 -87 238 -87c46 0 88.167 6.5 126.5 19.5s69.166 30.167 92.499 51.5c45.333 41.333 72.666 78 81.999 110l8 20h242c0 -71.333 -36 -149.666 -108 -234.999c-36 -42.667 -86.333 -80 -151 -112
c-64 -31.333 -136.667 -50.666 -218 -57.999l-54 -62c132.667 0 199 -54.667 199 -164c0 -51.333 -18 -90.666 -54 -117.999s-86.333 -41 -151 -41c-135.333 0 -203 53.667 -203 161h127c0 -36.667 25.333 -55 76 -55c52 0 78 17.667 78 53c0 37.333 -26 56.666 -78 57.999
h-117z" />
    <glyph glyph-name="egrave" unicode="&#xe8;" horiz-adv-x="1355" 
d="M1243 502l-5.99902 -81.999h-879c6.66699 -30 17 -58 31 -84c14.667 -28 32.334 -52.333 53.001 -73c23.333 -23.333 56 -43.333 98 -60s88 -25 138 -25c55.333 0 104 9.33301 146 28c41.333 18 69.666 36 84.999 54l23 27h270c-8 -21.333 -17.333 -41.333 -28 -60
c-28 -47.333 -64.667 -89 -110 -125c-62 -50.667 -136 -85.667 -222 -105c-52.667 -11.333 -107.334 -17 -164.001 -17c-166 0 -301.667 46.667 -407 140s-158 220.666 -158 381.999c0 160.667 52.667 288 158 382c105.333 93.333 241 140 407 140
c166.667 0 302.667 -46.667 408 -140c104.667 -94 157 -221.333 157 -382zM678.001 825.001c-51.333 0 -97.502 -7.49902 -138.502 -22.499s-72.833 -33.833 -95.5 -56.5c-43.333 -45.333 -69.666 -86.333 -78.999 -123l-5 -23h631c0 16 -9 42 -27 78
c-12 24.667 -28.333 47.667 -49 69c-22 21.333 -54.167 39.666 -96.5 54.999s-89.166 23 -140.499 23zM192.999 1536h296l308 -328h-207z" />
    <glyph glyph-name="eacute" unicode="&#xe9;" horiz-adv-x="1355" 
d="M1243 502l-5.99902 -81.999h-879c6.66699 -30 17 -58 31 -84c14.667 -28 32.334 -52.333 53.001 -73c23.333 -23.333 56 -43.333 98 -60s88 -25 138 -25c55.333 0 104 9.33301 146 28c41.333 18 69.666 36 84.999 54l23 27h270c-8 -21.333 -17.333 -41.333 -28 -60
c-28 -47.333 -64.667 -89 -110 -125c-62 -50.667 -136 -85.667 -222 -105c-52.667 -11.333 -107.334 -17 -164.001 -17c-166 0 -301.667 46.667 -407 140s-158 220.666 -158 381.999c0 160.667 52.667 288 158 382c105.333 93.333 241 140 407 140
c166.667 0 302.667 -46.667 408 -140c104.667 -94 157 -221.333 157 -382zM678.001 825.001c-51.333 0 -97.502 -7.49902 -138.502 -22.499s-72.833 -33.833 -95.5 -56.5c-43.333 -45.333 -69.666 -86.333 -78.999 -123l-5 -23h631c0 16 -9 42 -27 78
c-12 24.667 -28.333 47.667 -49 69c-22 21.333 -54.167 39.666 -96.5 54.999s-89.166 23 -140.499 23zM763.999 1208h-207l307 328h297z" />
    <glyph glyph-name="ecircumflex" unicode="&#xea;" horiz-adv-x="1355" 
d="M1243 502l-5.99902 -81.999h-879c6.66699 -30 17 -58 31 -84c14.667 -28 32.334 -52.333 53.001 -73c23.333 -23.333 56 -43.333 98 -60s88 -25 138 -25c55.333 0 104 9.33301 146 28c41.333 18 69.666 36 84.999 54l23 27h270c-8 -21.333 -17.333 -41.333 -28 -60
c-28 -47.333 -64.667 -89 -110 -125c-62 -50.667 -136 -85.667 -222 -105c-52.667 -11.333 -107.334 -17 -164.001 -17c-166 0 -301.667 46.667 -407 140s-158 220.666 -158 381.999c0 160.667 52.667 288 158 382c105.333 93.333 241 140 407 140
c166.667 0 302.667 -46.667 408 -140c104.667 -94 157 -221.333 157 -382zM678.001 825.001c-51.333 0 -97.502 -7.49902 -138.502 -22.499s-72.833 -33.833 -95.5 -56.5c-43.333 -45.333 -69.666 -86.333 -78.999 -123l-5 -23h631c0 16 -9 42 -27 78
c-12 24.667 -28.333 47.667 -49 69c-22 21.333 -54.167 39.666 -96.5 54.999s-89.166 23 -140.499 23zM675.999 1440l-180 -232h-215l262 328h272l262 -328h-215l-180 232h-6z" />
    <glyph glyph-name="edieresis" unicode="&#xeb;" horiz-adv-x="1355" 
d="M1243 502l-5.99902 -81.999h-879c6.66699 -30 17 -58 31 -84c14.667 -28 32.334 -52.333 53.001 -73c23.333 -23.333 56 -43.333 98 -60s88 -25 138 -25c55.333 0 104 9.33301 146 28c41.333 18 69.666 36 84.999 54l23 27h270c-8 -21.333 -17.333 -41.333 -28 -60
c-28 -47.333 -64.667 -89 -110 -125c-62 -50.667 -136 -85.667 -222 -105c-52.667 -11.333 -107.334 -17 -164.001 -17c-166 0 -301.667 46.667 -407 140s-158 220.666 -158 381.999c0 160.667 52.667 288 158 382c105.333 93.333 241 140 407 140
c166.667 0 302.667 -46.667 408 -140c104.667 -94 157 -221.333 157 -382zM678.001 825.001c-51.333 0 -97.502 -7.49902 -138.502 -22.499s-72.833 -33.833 -95.5 -56.5c-43.333 -45.333 -69.666 -86.333 -78.999 -123l-5 -23h631c0 16 -9 42 -27 78
c-12 24.667 -28.333 47.667 -49 69c-22 21.333 -54.167 39.666 -96.5 54.999s-89.166 23 -140.499 23zM788.999 1228c-23.333 19.333 -35 47 -35 83c0 35.333 11.667 63 35 83c23.333 19.333 54 29 92 29s68.667 -9.66699 92 -29c23.333 -20 35 -47.667 35 -83
c0 -36 -11.667 -63.667 -35 -83c-23.333 -20 -54 -30 -92 -30s-68.667 10 -92 30zM382.999 1228c-23.333 19.333 -35 47 -35 83c0 35.333 11.667 63 35 83c23.333 19.333 54 29 92 29s68.667 -9.66699 92 -29c23.333 -20 35 -47.667 35 -83c0 -36 -11.667 -63.667 -35 -83
c-23.333 -20 -54 -30 -92 -30s-68.667 10 -92 30z" />
    <glyph glyph-name="igrave" unicode="&#xec;" horiz-adv-x="536" 
d="M-233 1536h296l308 -328h-207zM154 1004h229v-1004h-229v1004z" />
    <glyph glyph-name="iacute" unicode="&#xed;" horiz-adv-x="536" 
d="M373 1208h-207l307 328h297zM154 1004h229v-1004h-229v1004z" />
    <glyph glyph-name="icircumflex" unicode="&#xee;" horiz-adv-x="536" 
d="M154 1004h229v-1004h-229v1004zM266 1440l-180 -232h-215l262 328h273l262 -328h-215l-181 232h-6z" />
    <glyph glyph-name="idieresis" unicode="&#xef;" horiz-adv-x="536" 
d="M379 1228c-23.333 19.333 -35 47 -35 83c0 35.333 11.667 63 35 83c23.333 19.333 54 29 92 29s68.667 -9.66699 92 -29c23.333 -20 35 -47.667 35 -83c0 -36 -11.667 -63.667 -35 -83c-23.333 -20 -54 -30 -92 -30s-68.667 10 -92 30zM-27 1228
c-22.667 18.667 -34 46.333 -34 83c0 35.333 11.333 63 34 83c23.333 19.333 54.333 29 93 29c38 0 68.667 -9.66699 92 -29c23.333 -20 35 -47.667 35 -83c0 -36 -11.667 -63.667 -35 -83c-23.333 -20 -54 -30 -92 -30c-38.667 0 -69.667 10 -93 30zM154 1004h229v-1004
h-229v1004z" />
    <glyph glyph-name="eth" unicode="&#xf0;" horiz-adv-x="1359" 
d="M647 1217l-53.001 -146l-164 64l53 147l-157 49l57 170c58.667 -12.667 114 -27.667 166 -45l51 137l168 -61l-51 -135c20 -6 38.667 -12.333 56 -19c22 -8 63.667 -31.333 125 -70c60.667 -39.333 113.334 -82.666 158.001 -129.999c45.333 -49.333 87 -120 125 -212
c37.333 -94 56 -195.333 56 -304v-54c0 -196 -52 -349.667 -156 -461c-105.333 -111.333 -243 -167 -413 -167c-167.333 0 -301.333 43.333 -402 130c-102 86.667 -153 201.667 -153 345c0 144 46.333 258.333 139 343c93.333 85.333 218.333 128 375 128
c51.333 0 100 -5.66699 146 -17s82.667 -25.333 110 -42c55.333 -35.333 90 -66.333 104 -93l10 -16h9c0 66.667 -12.333 127 -37 181c-25.333 56 -55 100 -89 132c-70 65.333 -135.333 109.666 -196 132.999zM349.999 455c0 -80.667 28.9971 -146.667 86.9971 -198
c58.667 -51.333 136.334 -77 233.001 -77c88.667 0 162.334 26.333 221.001 79s88 118 88 196c0 76.667 -29.667 141 -89 193c-59.333 51.333 -132.666 77 -219.999 77c-96.667 0 -174 -25 -232 -75c-58.667 -50.667 -88 -115.667 -88 -195z" />
    <glyph glyph-name="ntilde" unicode="&#xf1;" horiz-adv-x="1351" 
d="M1208 0l-228.999 0.000976562v508c0 103.333 -27.333 180.333 -82 231s-127 76 -217 76c-96 0 -169.333 -28.333 -220 -85c-51.333 -57.333 -77 -131.333 -77 -222v-508h-229v1004h229v-162h14c7.33301 16 23.666 37 48.999 63c16.667 18 39 36.667 67 56
c28 17.333 64.667 32.166 110 44.499s93 18.5 143 18.5c129.333 0 235.333 -38 318 -114c82.667 -76.667 124 -191 124 -343v-567zM504.001 1188c-57.333 0 -102.831 13.5 -136.498 40.5s-50.5 65.167 -50.5 114.5l11 84h157c-4 -12 -6 -26.333 -6 -43c0 -38 20 -57 60 -57
c16 -1.33301 35.5 4 58.5 16s45.5 25.667 67.5 41s50.333 29 85 41s69.334 17.667 104.001 17c58 0 103.5 -13.5 136.5 -40.5s49.5 -65.5 49.5 -115.5l-10 -84h-158c3.33301 10.667 5.66602 25 6.99902 43c0 38 -20 57.333 -60 58c-14.667 0.666992 -33.834 -5 -57.501 -17
s-46.834 -25.5 -69.501 -40.5s-51.167 -28.667 -85.5 -41s-68.5 -17.833 -102.5 -16.5z" />
    <glyph glyph-name="ograve" unicode="&#xf2;" horiz-adv-x="1355" 
d="M271 120c-105.333 93.333 -158 220.667 -158 382c0 160.667 52.667 288 158 382c105.333 93.333 241 140 407 140c166.667 0 302.667 -46.667 408 -140c104.667 -94 157 -221.333 157 -382c0 -162 -52.333 -289.333 -157 -382c-105.333 -93.333 -241.333 -140 -408 -140
c-166 0 -301.667 46.667 -407 140zM916 275.001c60 58 90 133.667 90 227c0 92.667 -30 168 -90 226c-61.333 58 -140.666 87 -237.999 87c-98.667 0 -178 -29 -238 -87s-90 -133.333 -90 -226c0 -93.333 30 -169 90 -227s139.333 -87 238 -87
c97.333 0 176.666 29 237.999 87zM188 1536h297l308 -328h-207z" />
    <glyph glyph-name="oacute" unicode="&#xf3;" horiz-adv-x="1355" 
d="M271 120c-105.333 93.333 -158 220.667 -158 382c0 160.667 52.667 288 158 382c105.333 93.333 241 140 407 140c166.667 0 302.667 -46.667 408 -140c104.667 -94 157 -221.333 157 -382c0 -162 -52.333 -289.333 -157 -382c-105.333 -93.333 -241.333 -140 -408 -140
c-166 0 -301.667 46.667 -407 140zM916 275.001c60 58 90 133.667 90 227c0 92.667 -30 168 -90 226c-61.333 58 -140.666 87 -237.999 87c-98.667 0 -178 -29 -238 -87s-90 -133.333 -90 -226c0 -93.333 30 -169 90 -227s139.333 -87 238 -87
c97.333 0 176.666 29 237.999 87zM764 1208h-207l307 328h297z" />
    <glyph glyph-name="ocircumflex" unicode="&#xf4;" horiz-adv-x="1355" 
d="M271 120c-105.333 93.333 -158 220.667 -158 382c0 160.667 52.667 288 158 382c105.333 93.333 241 140 407 140c166.667 0 302.667 -46.667 408 -140c104.667 -94 157 -221.333 157 -382c0 -162 -52.333 -289.333 -157 -382c-105.333 -93.333 -241.333 -140 -408 -140
c-166 0 -301.667 46.667 -407 140zM916 275.001c60 58 90 133.667 90 227c0 92.667 -30 168 -90 226c-61.333 58 -140.666 87 -237.999 87c-98.667 0 -178 -29 -238 -87s-90 -133.333 -90 -226c0 -93.333 30 -169 90 -227s139.333 -87 238 -87
c97.333 0 176.666 29 237.999 87zM676 1440l-180 -232h-215l262 328h272l262 -328h-215l-180 232h-6z" />
    <glyph glyph-name="otilde" unicode="&#xf5;" horiz-adv-x="1355" 
d="M271 120c-105.333 93.333 -158 220.667 -158 382c0 160.667 52.667 288 158 382c105.333 93.333 241 140 407 140c166.667 0 302.667 -46.667 408 -140c104.667 -94 157 -221.333 157 -382c0 -162 -52.333 -289.333 -157 -382c-105.333 -93.333 -241.333 -140 -408 -140
c-166 0 -301.667 46.667 -407 140zM916 275.001c60 58 90 133.667 90 227c0 92.667 -30 168 -90 226c-61.333 58 -140.666 87 -237.999 87c-98.667 0 -178 -29 -238 -87s-90 -133.333 -90 -226c0 -93.333 30 -169 90 -227s139.333 -87 238 -87
c97.333 0 176.666 29 237.999 87zM504 1188c-57.333 0 -102.831 13.5 -136.498 40.5s-50.5 65.167 -50.5 114.5l11 84h157c-4 -12 -6 -26.333 -6 -43c0 -38 20 -57 60 -57c16 -1.33301 35.5 4 58.5 16s45.5 25.667 67.5 41s50.333 29 85 41s69.334 17.667 104.001 17
c58 0 103.5 -13.5 136.5 -40.5s49.5 -65.5 49.5 -115.5l-10 -84h-158c3.33301 10.667 5.66602 25 6.99902 43c0 38 -20 57.333 -60 58c-14.667 0.666992 -33.834 -5 -57.501 -17s-46.834 -25.5 -69.501 -40.5s-51.167 -28.667 -85.5 -41s-68.5 -17.833 -102.5 -16.5z" />
    <glyph glyph-name="odieresis" unicode="&#xf6;" horiz-adv-x="1355" 
d="M271 120c-105.333 93.333 -158 220.667 -158 382c0 160.667 52.667 288 158 382c105.333 93.333 241 140 407 140c166.667 0 302.667 -46.667 408 -140c104.667 -94 157 -221.333 157 -382c0 -162 -52.333 -289.333 -157 -382c-105.333 -93.333 -241.333 -140 -408 -140
c-166 0 -301.667 46.667 -407 140zM916 275.001c60 58 90 133.667 90 227c0 92.667 -30 168 -90 226c-61.333 58 -140.666 87 -237.999 87c-98.667 0 -178 -29 -238 -87s-90 -133.333 -90 -226c0 -93.333 30 -169 90 -227s139.333 -87 238 -87
c97.333 0 176.666 29 237.999 87zM789 1228c-23.333 19.333 -35 47 -35 83c0 35.333 11.667 63 35 83c23.333 19.333 54 29 92 29s68.667 -9.66699 92 -29c23.333 -20 35 -47.667 35 -83c0 -36 -11.667 -63.667 -35 -83c-23.333 -20 -54 -30 -92 -30s-68.667 10 -92 30z
M383 1228c-23.333 19.333 -35 47 -35 83c0 35.333 11.667 63 35 83c23.333 19.333 54 29 92 29s68.667 -9.66699 92 -29c23.333 -20 35 -47.667 35 -83c0 -36 -11.667 -63.667 -35 -83c-23.333 -20 -54 -30 -92 -30s-68.667 10 -92 30z" />
    <glyph glyph-name="divide" unicode="&#xf7;" horiz-adv-x="1024" 
d="M413 97c-24 20 -36 49.333 -36 88c0 38 12 67.333 36 88c24 20 57 30 99 30s75 -10 99 -30c24 -20.667 36 -50 36 -88c0 -38.667 -12 -68 -36 -88c-23.333 -20.667 -56.333 -31 -99 -31s-75.667 10.333 -99 31zM102 596h820v-164h-820v164zM413 756
c-24 20 -36 49.333 -36 88c0 37.333 12 66.666 36 87.999c23.333 20.667 56.333 31 99 31s75.667 -10.333 99 -31c24 -21.333 36 -50.666 36 -87.999c0 -38.667 -12 -68 -36 -88c-23.333 -20.667 -56.333 -31 -99 -31s-75.667 10.333 -99 31z" />
    <glyph glyph-name="oslash" unicode="&#xf8;" horiz-adv-x="1335" 
d="M231 145l-128.997 -76.999l-82 131l127 75c-30 60 -45 136 -45 228c0 161.333 52.667 288.666 158 381.999s241.333 140 408 140c53.333 0 105.666 -5.66699 156.999 -17s93.666 -25.333 126.999 -42c69.333 -36 113.666 -67 132.999 -93l17 -16l131 80l82 -131l-127 -78
c30 -60 45 -135 45 -225c0 -162 -52.333 -289.333 -157 -382c-105.333 -93.333 -241.333 -140 -408 -140c-112 0 -206.667 19.333 -284 58c-60.667 29.333 -106 59 -136 89zM340.003 502.001c0 -38 4 -67.333 12 -88l2 -13l545 332c-2 2 -10.333 9.66699 -25 23
c-14 10 -40 22.333 -78 37c-40 14.667 -82.667 22 -128 22c-98 0 -177 -29 -237 -87c-60.667 -58 -91 -133.333 -91 -226zM995.003 502.001c0 33.333 -4.00098 62.667 -12.001 88l-2 12l-545 -332l25 -22c10.667 -10 36.334 -22.333 77.001 -37
c40.667 -15.333 84 -23 130 -23c98.667 0 177.667 29.333 237 88c60 58 90 133.333 90 226z" />
    <glyph glyph-name="ugrave" unicode="&#xf9;" horiz-adv-x="1361" 
d="M154 1004l229.001 0.00195312v-508c0 -103.333 27.333 -180.333 82 -231c55.333 -51.333 127.666 -77 216.999 -77c96 0 169.333 28.333 220 85c51.333 57.333 77 131.666 77 222.999v508h229v-1004h-229v162h-14c-8 -17.333 -24 -38.333 -48 -63
c-17.333 -18.667 -40 -37.334 -68 -56.001c-27.333 -18 -63.666 -33 -108.999 -45s-93.333 -18 -144 -18c-128.667 0 -234.334 38.333 -317.001 115c-83.333 76 -125 189.667 -125 341v568zM197.001 1536h297l307 -328h-207z" />
    <glyph glyph-name="uacute" unicode="&#xfa;" horiz-adv-x="1361" 
d="M154 1004l229.001 0.00195312v-508c0 -103.333 27.333 -180.333 82 -231c55.333 -51.333 127.666 -77 216.999 -77c96 0 169.333 28.333 220 85c51.333 57.333 77 131.666 77 222.999v508h229v-1004h-229v162h-14c-8 -17.333 -24 -38.333 -48 -63
c-17.333 -18.667 -40 -37.334 -68 -56.001c-27.333 -18 -63.666 -33 -108.999 -45s-93.333 -18 -144 -18c-128.667 0 -234.334 38.333 -317.001 115c-83.333 76 -125 189.667 -125 341v568zM762.001 1208h-207l307 328h297z" />
    <glyph glyph-name="ucircumflex" unicode="&#xfb;" horiz-adv-x="1361" 
d="M154 1004l229.001 0.00195312v-508c0 -103.333 27.333 -180.333 82 -231c55.333 -51.333 127.666 -77 216.999 -77c96 0 169.333 28.333 220 85c51.333 57.333 77 131.666 77 222.999v508h229v-1004h-229v162h-14c-8 -17.333 -24 -38.333 -48 -63
c-17.333 -18.667 -40 -37.334 -68 -56.001c-27.333 -18 -63.666 -33 -108.999 -45s-93.333 -18 -144 -18c-128.667 0 -234.334 38.333 -317.001 115c-83.333 76 -125 189.667 -125 341v568zM676.001 1440l-180 -232h-215l262 328h272l262 -328h-215l-180 232h-6z" />
    <glyph glyph-name="udieresis" unicode="&#xfc;" horiz-adv-x="1361" 
d="M154 1004l229.001 0.00195312v-508c0 -103.333 27.333 -180.333 82 -231c55.333 -51.333 127.666 -77 216.999 -77c96 0 169.333 28.333 220 85c51.333 57.333 77 131.666 77 222.999v508h229v-1004h-229v162h-14c-8 -17.333 -24 -38.333 -48 -63
c-17.333 -18.667 -40 -37.334 -68 -56.001c-27.333 -18 -63.666 -33 -108.999 -45s-93.333 -18 -144 -18c-128.667 0 -234.334 38.333 -317.001 115c-83.333 76 -125 189.667 -125 341v568zM791.001 1228c-23.333 19.333 -35 47 -35 83c0 35.333 11.667 63 35 83
c23.333 19.333 54 29 92 29s68.667 -9.66699 92 -29c23.333 -20 35 -47.667 35 -83c0 -36 -11.667 -63.667 -35 -83c-23.333 -20 -54 -30 -92 -30s-68.667 10 -92 30zM385.001 1228c-23.333 19.333 -34.999 47.001 -34.999 83.001c0 35.333 11.667 63 35 83
c23.333 19.333 54.333 29 93 29c38 0 68.667 -9.66699 92 -29c22.667 -20 34 -47.667 34 -83c0 -36.667 -11.333 -64.334 -34 -83.001c-22.667 -20 -53.334 -30 -92.001 -30s-69.667 10 -93 30z" />
    <glyph glyph-name="yacute" unicode="&#xfd;" horiz-adv-x="1167" 
d="M10 1004h246l340 -764h10l303 764h248l-440 -1065c-48.667 -117.333 -105 -208 -169 -272c-64.667 -64.667 -144.334 -97 -239.001 -97c-50 0 -91.667 5.33301 -125 16l-20 4v209c34.667 -13.333 76.334 -20 125.001 -20c83.333 0 146 53.333 188 160l8 20zM684 1208
h-207l307 328h297z" />
    <glyph glyph-name="thorn" unicode="&#xfe;" 
d="M741 1024c150 0 276.668 -46.998 380.001 -140.998c103.333 -95.333 155 -222.333 155 -381c0 -160 -51.333 -287 -154 -381s-229.667 -141 -381 -141c-74.667 0 -139.667 12.667 -195 38c-58.667 25.333 -98.667 50.666 -120 75.999l-33 37h-10v-541h-229v1844h229v-562
h10c8 12 25.333 30 52 54c22.667 19.333 45 34.666 67 45.999c65.333 34.667 141.666 52 228.999 52zM948.001 275.002c60 58 90 133.667 90 227c0 92.667 -30 168 -90 226s-139 87 -237 87c-98.667 0 -178 -29 -238 -87s-90 -133.333 -90 -226c0 -93.333 30 -169 90 -227
s139.333 -87 238 -87c98 0 177 29 237 87z" />
    <glyph glyph-name="ydieresis" unicode="&#xff;" horiz-adv-x="1167" 
d="M10 1004h246l340 -764h10l303 764h248l-440 -1065c-48.667 -117.333 -105 -208 -169 -272c-64.667 -64.667 -144.334 -97 -239.001 -97c-50 0 -91.667 5.33301 -125 16l-20 4v209c34.667 -13.333 76.334 -20 125.001 -20c83.333 0 146 53.333 188 160l8 20zM697 1228
c-23.333 19.333 -35 47.001 -35 83.001c0 35.333 11.667 63 35 83c23.333 19.333 54 29 92 29s68.667 -9.66699 92 -29c22.667 -20 34 -47.667 34 -83c0 -36.667 -11.333 -64.334 -34 -83.001c-23.333 -20 -54 -30 -92 -30s-68.667 10 -92 30zM291 1228
c-23.333 19.333 -35 47 -35 83c0 35.333 11.667 63 35 83c23.333 19.333 54 29 92 29s68.667 -9.66699 92 -29c23.333 -20 35 -47.667 35 -83c0 -36 -11.667 -63.667 -35 -83c-23.333 -20 -54 -30 -92 -30s-68.667 10 -92 30z" />
    <glyph glyph-name="Amacron" unicode="&#x100;" horiz-adv-x="1513" 
d="M592 1434h330l581 -1434h-266l-115 285h-731l-115 -285h-266zM481 506h551l-270 682h-10zM1061 1638h-608v156h608v-156z" />
    <glyph glyph-name="amacron" unicode="&#x101;" horiz-adv-x="1333" 
d="M113 283c0 104 43.667 181.999 131 233.999c87.333 51.333 197.666 77 330.999 77c67.333 0 130.666 -8 189.999 -24c59.333 -17.333 100.666 -34 123.999 -50l35 -22v145c0 55.333 -21 101.333 -63 138c-42.667 36.667 -110 55 -202 55
c-81.333 0 -145 -12.833 -191 -38.5s-69 -62.834 -69 -111.501h-237c0.666992 112.667 47 197.334 139 254.001c91.333 56 210.666 84 357.999 84c150.667 0 270.667 -32.333 360 -97c89.333 -65.333 134 -160 134 -284v-334c0 -46 5.83301 -78.333 17.5 -97
s31.834 -28 60.501 -28c24.667 0 40.334 3 47.001 9l4 2v-197c-22.667 -12 -58.667 -18 -108 -18c-54.667 0 -100.667 11 -138 33c-37.333 20.667 -61.666 42.334 -72.999 65.001l-15 33h-12c-6 -9.33301 -23.667 -24.333 -53 -45c-24.667 -16.667 -49 -30 -73 -40
c-68 -30.667 -155 -46 -261 -46c-127.333 0 -231.666 25.333 -312.999 76c-82 50 -123 125.667 -123 227zM637 167.999c58.667 0 112 7.00098 160 21.001c46.667 12.667 80 26 100 40l27 21v96c-55.333 41.333 -151 62.666 -287 63.999c-191.333 0 -287 -39.667 -287 -119
c0 -82 95.667 -123 287 -123zM981 1229h-608v155h608v-155z" />
    <glyph glyph-name="Abreve" unicode="&#x102;" horiz-adv-x="1513" 
d="M592 1434h330l581 -1434h-266l-115 285h-731l-115 -285h-266zM481 506h551l-270 682h-10zM975 1690c-53.333 -41.333 -127 -62 -221 -62s-167.667 20.667 -221 62s-80 99.333 -80 174v8h172v-4c0 -28.667 11.167 -51.834 33.5 -69.501s54.166 -26.5 95.499 -26.5
c40.667 0 72.334 8.83301 95.001 26.5s34 40.834 34 69.501v4h172v-8c0 -74.667 -26.667 -132.667 -80 -174z" />
    <glyph glyph-name="abreve" unicode="&#x103;" horiz-adv-x="1333" 
d="M113 283c0 104 43.667 181.999 131 233.999c87.333 51.333 197.666 77 330.999 77c67.333 0 130.666 -8 189.999 -24c59.333 -17.333 100.666 -34 123.999 -50l35 -22v145c0 55.333 -21 101.333 -63 138c-42.667 36.667 -110 55 -202 55
c-81.333 0 -145 -12.833 -191 -38.5s-69 -62.834 -69 -111.501h-237c0.666992 112.667 47 197.334 139 254.001c91.333 56 210.666 84 357.999 84c150.667 0 270.667 -32.333 360 -97c89.333 -65.333 134 -160 134 -284v-334c0 -46 5.83301 -78.333 17.5 -97
s31.834 -28 60.501 -28c24.667 0 40.334 3 47.001 9l4 2v-197c-22.667 -12 -58.667 -18 -108 -18c-54.667 0 -100.667 11 -138 33c-37.333 20.667 -61.666 42.334 -72.999 65.001l-15 33h-12c-6 -9.33301 -23.667 -24.333 -53 -45c-24.667 -16.667 -49 -30 -73 -40
c-68 -30.667 -155 -46 -261 -46c-127.333 0 -231.666 25.333 -312.999 76c-82 50 -123 125.667 -123 227zM637 167.999c58.667 0 112 7.00098 160 21.001c46.667 12.667 80 26 100 40l27 21v96c-55.333 41.333 -151 62.666 -287 63.999c-191.333 0 -287 -39.667 -287 -119
c0 -82 95.667 -123 287 -123zM885 1249c-52.667 -40.667 -126.333 -61 -221 -61s-168.667 20.667 -222 62s-80 99 -80 173v9h173v-5c0 -28.667 11.167 -51.834 33.5 -69.501s54.166 -26.5 95.499 -26.5c40.667 0 72.334 8.83301 95.001 26.5s34 40.834 34 69.501v5h172v-9
c0 -74.667 -26.667 -132.667 -80 -174z" />
    <glyph glyph-name="Aogonek" unicode="&#x104;" horiz-adv-x="1513" 
d="M592 1434l330 -0.000976562l581 -1434c-1.33301 -0.666992 -4.83301 -2.16699 -10.5 -4.5l-12 -5l-13 -5.5c-6.33301 -2.66699 -11.333 -5.16699 -15 -7.5l-16 -10c-7 -4.33301 -13.333 -8.83301 -19 -13.5l-20 -16.5c-7.66699 -6.33301 -15.5 -13.166 -23.5 -20.499
c-32.667 -30.667 -49 -62.334 -49 -95.001c0 -18 6.83301 -32.5 20.5 -43.5s31.5 -16.5 53.5 -16.5c49.333 0 74 18.667 74 56h135c0 -53.333 -18.167 -94.333 -54.5 -123s-87.833 -43 -154.5 -43c-66 0 -117 14.333 -153 43s-54 69.667 -54 123
c0 70.667 42.333 131.334 127 182.001h-82l-115 285h-731l-115 -285h-266zM481 505.999h551l-270 682h-10z" />
    <glyph glyph-name="aogonek" unicode="&#x105;" horiz-adv-x="1333" 
d="M113 283c0 104 43.6689 182.001 131.002 234.001c87.333 51.333 197.666 77 330.999 77c67.333 0 130.666 -8 189.999 -24c59.333 -17.333 100.666 -34 123.999 -50l35 -22v145c0 55.333 -21 101.333 -63 138c-42.667 36.667 -110 55 -202 55
c-81.333 0 -145 -12.833 -191 -38.5s-69 -62.834 -69 -111.501h-237c0.666992 112.667 47 197.334 139 254.001c91.333 56 210.666 84 357.999 84c150.667 0 270.667 -32.333 360 -97c89.333 -65.333 134 -160 134 -284v-334c0 -46 5.83301 -78.333 17.5 -97
s31.834 -28 60.501 -28c24.667 0 40.334 3 47.001 9l4 2v-197c-5.33301 -2 -22 -9.33301 -50 -22c-22 -10 -48.667 -29.667 -80 -59c-33.333 -31.333 -50 -63 -50 -95c0 -18 6.83301 -32.5 20.5 -43.5s31.5 -16.5 53.5 -16.5c24.667 0 43.167 4.66699 55.5 14
s18.166 23.333 17.499 42h135c0 -53.333 -18 -94.333 -54 -123s-87.333 -43 -154 -43c-66 0 -117 14.333 -153 43s-54 69.667 -54 123c0 28 8 55.333 24 82s30.5 45.667 43.5 57s26.5 21.666 40.5 30.999l6 4c-30 8.66699 -56.667 22.667 -80 42s-38.333 37.333 -45 54
l-10 23h-12c-6 -9.33301 -23.667 -24.333 -53 -45c-24.667 -16.667 -49 -30 -73 -40c-68 -30.667 -155 -46 -261 -46c-127.333 0 -231.666 25.333 -312.999 76c-82 50 -123 125.667 -123 227zM637.002 168.001c58.667 0 112 7.00098 160 21.001c46.667 12.667 80 26 100 40
l27 21v96c-55.333 41.333 -151 62.666 -287 63.999c-191.333 0 -287 -39.667 -287 -119c0 -82 95.667 -123 287 -123z" />
    <glyph glyph-name="Cacute" unicode="&#x106;" horiz-adv-x="1695" 
d="M331 183c-132 135.333 -198.001 313.334 -198.001 534.001c0 222 66 400.333 198 535c130.667 134.667 307.667 202 531 202c96 0 185.667 -14 269 -42c81.333 -27.333 149 -63 203 -107c52 -43.333 97.333 -92.333 136 -147c68.667 -98.667 103 -196 103 -292h-266
c2 20 -9.5 55.667 -34.5 107s-59.167 98 -102.5 140c-34 32.667 -78.167 59.5 -132.5 80.5s-112.833 31.5 -175.5 31.5c-142 0 -254.667 -47.667 -338 -143c-83.333 -96.667 -125 -218.334 -125 -365.001c0 -147.333 41.667 -268.666 125 -363.999
c82.667 -96 195.334 -144 338.001 -144c62.667 0 121.167 10.5 175.5 31.5s98.5 47.833 132.5 80.5c32 32 58.667 65 80 99c38 62.667 57 111.667 57 147h266c0 -96 -34.333 -193 -103 -291c-38.667 -54.667 -84 -103.667 -136 -147
c-54 -44.667 -121.333 -80.334 -202 -107.001c-82.667 -28 -172.667 -42 -270 -42c-222.667 0 -399.667 67.667 -531 203zM947.999 1618h-207l308 328h297z" />
    <glyph glyph-name="cacute" unicode="&#x107;" horiz-adv-x="1331" 
d="M271 120c-105.333 93.333 -157.999 220.667 -157.999 382c0 160.667 52.667 288 158 382c105.333 93.333 241 140 407 140c93.333 0 177.333 -15 252 -45c75.333 -30 133.333 -67.333 174 -112c83.333 -91.333 125 -175.666 125 -252.999h-242
c-5.33301 19.333 -17 42.666 -35 69.999c-17.333 24.667 -35.666 45.334 -54.999 62.001c-22.667 19.333 -53.5 35.666 -92.5 48.999s-81.167 20 -126.5 20c-98 0 -177 -29 -237 -87c-60.667 -58 -91 -133.333 -91 -226c0 -93.333 30 -169 90 -227s139.333 -87 238 -87
c46 0 88.167 6.5 126.5 19.5s69.166 30.167 92.499 51.5c45.333 41.333 72.666 78 81.999 110l8 20h242c0 -76 -41.667 -159.667 -125 -251c-41.333 -45.333 -99.333 -83 -174 -113s-158.667 -45 -252 -45c-166 0 -301.667 46.667 -407 140zM756.001 1208h-207l307 328h297z
" />
    <glyph glyph-name="Ccircumflex" unicode="&#x108;" horiz-adv-x="1695" 
d="M331 183c-132 135.333 -198.001 313.334 -198.001 534.001c0 222 66 400.333 198 535c130.667 134.667 307.667 202 531 202c96 0 185.667 -14 269 -42c81.333 -27.333 149 -63 203 -107c52 -43.333 97.333 -92.333 136 -147c68.667 -98.667 103 -196 103 -292h-266
c2 20 -9.5 55.667 -34.5 107s-59.167 98 -102.5 140c-34 32.667 -78.167 59.5 -132.5 80.5s-112.833 31.5 -175.5 31.5c-142 0 -254.667 -47.667 -338 -143c-83.333 -96.667 -125 -218.334 -125 -365.001c0 -147.333 41.667 -268.666 125 -363.999
c82.667 -96 195.334 -144 338.001 -144c62.667 0 121.167 10.5 175.5 31.5s98.5 47.833 132.5 80.5c32 32 58.667 65 80 99c38 62.667 57 111.667 57 147h266c0 -96 -34.333 -193 -103 -291c-38.667 -54.667 -84 -103.667 -136 -147
c-54 -44.667 -121.333 -80.334 -202 -107.001c-82.667 -28 -172.667 -42 -270 -42c-222.667 0 -399.667 67.667 -531 203zM849.999 1849l-180 -231h-215l262 328h272l262 -328h-215l-180 231h-6z" />
    <glyph glyph-name="ccircumflex" unicode="&#x109;" horiz-adv-x="1331" 
d="M271 120c-105.333 93.333 -157.999 220.667 -157.999 382c0 160.667 52.667 288 158 382c105.333 93.333 241 140 407 140c93.333 0 177.333 -15 252 -45c75.333 -30 133.333 -67.333 174 -112c83.333 -91.333 125 -175.666 125 -252.999h-242
c-5.33301 19.333 -17 42.666 -35 69.999c-17.333 24.667 -35.666 45.334 -54.999 62.001c-22.667 19.333 -53.5 35.666 -92.5 48.999s-81.167 20 -126.5 20c-98 0 -177 -29 -237 -87c-60.667 -58 -91 -133.333 -91 -226c0 -93.333 30 -169 90 -227s139.333 -87 238 -87
c46 0 88.167 6.5 126.5 19.5s69.166 30.167 92.499 51.5c45.333 41.333 72.666 78 81.999 110l8 20h242c0 -76 -41.667 -159.667 -125 -251c-41.333 -45.333 -99.333 -83 -174 -113s-158.667 -45 -252 -45c-166 0 -301.667 46.667 -407 140zM668.001 1440l-181 -232h-215
l263 328h272l262 -328h-215l-180 232h-6z" />
    <glyph glyph-name="Ccaron" unicode="&#x10c;" horiz-adv-x="1695" 
d="M331 183c-132 135.333 -198.001 313.334 -198.001 534.001c0 222 66 400.333 198 535c130.667 134.667 307.667 202 531 202c96 0 185.667 -14 269 -42c81.333 -27.333 149 -63 203 -107c52 -43.333 97.333 -92.333 136 -147c68.667 -98.667 103 -196 103 -292h-266
c2 20 -9.5 55.667 -34.5 107s-59.167 98 -102.5 140c-34 32.667 -78.167 59.5 -132.5 80.5s-112.833 31.5 -175.5 31.5c-142 0 -254.667 -47.667 -338 -143c-83.333 -96.667 -125 -218.334 -125 -365.001c0 -147.333 41.667 -268.666 125 -363.999
c82.667 -96 195.334 -144 338.001 -144c62.667 0 121.167 10.5 175.5 31.5s98.5 47.833 132.5 80.5c32 32 58.667 65 80 99c38 62.667 57 111.667 57 147h266c0 -96 -34.333 -193 -103 -291c-38.667 -54.667 -84 -103.667 -136 -147
c-54 -44.667 -121.333 -80.334 -202 -107.001c-82.667 -28 -172.667 -42 -270 -42c-222.667 0 -399.667 67.667 -531 203zM704.999 1618l-263 328h215l181 -232h6l180 232h215l-262 -328h-272z" />
    <glyph glyph-name="ccaron" unicode="&#x10d;" horiz-adv-x="1331" 
d="M271 120c-105.333 93.333 -157.999 220.667 -157.999 382c0 160.667 52.667 288 158 382c105.333 93.333 241 140 407 140c93.333 0 177.333 -15 252 -45c75.333 -30 133.333 -67.333 174 -112c83.333 -91.333 125 -175.666 125 -252.999h-242
c-5.33301 19.333 -17 42.666 -35 69.999c-17.333 24.667 -35.666 45.334 -54.999 62.001c-22.667 19.333 -53.5 35.666 -92.5 48.999s-81.167 20 -126.5 20c-98 0 -177 -29 -237 -87c-60.667 -58 -91 -133.333 -91 -226c0 -93.333 30 -169 90 -227s139.333 -87 238 -87
c46 0 88.167 6.5 126.5 19.5s69.166 30.167 92.499 51.5c45.333 41.333 72.666 78 81.999 110l8 20h242c0 -76 -41.667 -159.667 -125 -251c-41.333 -45.333 -99.333 -83 -174 -113s-158.667 -45 -252 -45c-166 0 -301.667 46.667 -407 140zM535.001 1208l-263 328h215
l181 -231h6l180 231h215l-262 -328h-272z" />
    <glyph glyph-name="Dcaron" unicode="&#x10e;" horiz-adv-x="1591" 
d="M729 0h-555.001v1434h555c226.667 0 405 -64 535 -192c129.333 -129.333 194 -304.333 194 -525c0 -221.333 -64.667 -396 -194 -524c-129.333 -128.667 -307.666 -193 -534.999 -193zM427.999 221l301 0.000976562c146 0 259.667 45.667 341 137s122 211 122 359
c0 147.333 -40.667 266.666 -122 357.999s-195 137 -341 137h-301v-991zM560.999 1618l-262 328h215l180 -232h6l181 232h215l-262 -328h-273z" />
    <glyph glyph-name="dcaron" unicode="&#x10f;" horiz-adv-x="1501" 
d="M647 -20c-149.333 0 -275.666 47 -378.999 141s-155 221 -155 381c0 158.667 51.667 285.667 155 381c103.333 94 229.666 141 378.999 141c72 0 137.333 -12.667 196 -38c57.333 -24.667 97.333 -50.334 120 -77.001l32 -37h11v562h229v-1434h-229v131h-11
c-8.66699 -13.333 -25.667 -31 -51 -53c-20.667 -17.333 -43 -32.666 -67 -45.999c-65.333 -34.667 -142 -52 -230 -52zM440 728c-60 -58 -90 -133.333 -90 -226c0 -93.333 30 -169 90 -227s139.333 -87 238 -87c97.333 0 176.666 29 237.999 87c60 58 90 133.667 90 227
c0 92.667 -30 168 -90 226c-61.333 58 -140.666 87 -237.999 87c-98.667 0 -178 -29 -238 -87zM1450 1057l0.000976562 137c0 40 -17 63 -51 69c-14 2 -26 10.667 -36 26s-15 37 -15 65c0 31.333 11.167 55.833 33.5 73.5s51.833 26.5 88.5 26.5c82 0 123 -52 123 -156
c-0.666992 -67.333 -17.334 -124.333 -50.001 -171c-32 -46.667 -63 -70 -93 -70z" />
    <glyph glyph-name="Dcroat" unicode="&#x110;" horiz-adv-x="1673" 
d="M811 0h-555.001v625h-215v213h215v596h555c226.667 0 405 -64 535 -192c129.333 -129.333 194 -304.333 194 -525c0 -221.333 -64.667 -396 -194 -524c-129.333 -128.667 -307.666 -193 -534.999 -193zM509.999 221l301 0.000976562c146 0 259.667 45.667 341 137
s122 211 122 359c0 147.333 -40.667 266.666 -122 357.999s-195 137 -341 137h-301v-374h293v-213h-293v-404z" />
    <glyph glyph-name="dslash" unicode="&#x111;" horiz-adv-x="1456" 
d="M981 1077h-365.002v197h365v160h229v-160h246v-197h-246v-1077h-229v135h-10c1.33301 -0.666992 -2.5 -6.33398 -11.5 -17.001s-24.167 -24.167 -45.5 -40.5s-44.666 -30.833 -69.999 -43.5c-68 -36 -151.333 -54 -250 -54c-138.667 0 -253.667 42.667 -345 128
c-90.667 84.667 -136 198.334 -136 341.001s46.667 256.667 140 342c92.667 84.667 211.667 127 357 127c74.667 0 142.334 -11.667 203.001 -35c59.333 -22.667 101 -46 125 -70l33 -35h10v299zM980.998 449c0 74.667 -27.666 137.667 -82.999 189
c-54.667 50 -132 75 -232 75c-100.667 0 -178.334 -25.333 -233.001 -76c-55.333 -51.333 -83 -114 -83 -188c0 -76.667 27.333 -140 82 -190s132.667 -75 234 -75c100 0 177.667 25 233 75c54.667 50 82 113.333 82 190z" />
    <glyph glyph-name="Emacron" unicode="&#x112;" horiz-adv-x="1419" 
d="M1296 0h-1122v1434h1122v-217h-868v-375h741v-213h-741v-412h868v-217zM1053 1638h-609v156h609v-156z" />
    <glyph glyph-name="emacron" unicode="&#x113;" horiz-adv-x="1355" 
d="M1243 502l-5.99902 -81.999h-879c6.66699 -30 17 -58 31 -84c14.667 -28 32.334 -52.333 53.001 -73c23.333 -23.333 56 -43.333 98 -60s88 -25 138 -25c55.333 0 104 9.33301 146 28c41.333 18 69.666 36 84.999 54l23 27h270c-8 -21.333 -17.333 -41.333 -28 -60
c-28 -47.333 -64.667 -89 -110 -125c-62 -50.667 -136 -85.667 -222 -105c-52.667 -11.333 -107.334 -17 -164.001 -17c-166 0 -301.667 46.667 -407 140s-158 220.666 -158 381.999c0 160.667 52.667 288 158 382c105.333 93.333 241 140 407 140
c166.667 0 302.667 -46.667 408 -140c104.667 -94 157 -221.333 157 -382zM678.001 825.001c-51.333 0 -97.502 -7.49902 -138.502 -22.499s-72.833 -33.833 -95.5 -56.5c-43.333 -45.333 -69.666 -86.333 -78.999 -123l-5 -23h631c0 16 -9 42 -27 78
c-12 24.667 -28.333 47.667 -49 69c-22 21.333 -54.167 39.666 -96.5 54.999s-89.166 23 -140.499 23zM982.999 1229h-608v155h608v-155z" />
    <glyph glyph-name="Edotaccent" unicode="&#x116;" horiz-adv-x="1419" 
d="M1296 0h-1122v1434h1122v-217h-868v-375h741v-213h-741v-412h868v-217zM670 1671c-24.667 22 -37.001 50.667 -37.001 86s12.333 64 37 86s57.334 33 98.001 33c40 0 72.667 -11 98 -33c24.667 -22 37 -50.667 37 -86s-12.333 -64 -37 -86c-25.333 -22 -58 -33 -98 -33
s-72.667 11 -98 33z" />
    <glyph glyph-name="edotaccent" unicode="&#x117;" horiz-adv-x="1355" 
d="M1243 502l-5.99902 -81.999h-879c6.66699 -30 17 -58 31 -84c14.667 -28 32.334 -52.333 53.001 -73c23.333 -23.333 56 -43.333 98 -60s88 -25 138 -25c55.333 0 104 9.33301 146 28c41.333 18 69.666 36 84.999 54l23 27h270c-8 -21.333 -17.333 -41.333 -28 -60
c-28 -47.333 -64.667 -89 -110 -125c-62 -50.667 -136 -85.667 -222 -105c-52.667 -11.333 -107.334 -17 -164.001 -17c-166 0 -301.667 46.667 -407 140s-158 220.666 -158 381.999c0 160.667 52.667 288 158 382c105.333 93.333 241 140 407 140
c166.667 0 302.667 -46.667 408 -140c104.667 -94 157 -221.333 157 -382zM678.001 825.001c-51.333 0 -97.502 -7.49902 -138.502 -22.499s-72.833 -33.833 -95.5 -56.5c-43.333 -45.333 -69.666 -86.333 -78.999 -123l-5 -23h631c0 16 -9 42 -27 78
c-12 24.667 -28.333 47.667 -49 69c-22 21.333 -54.167 39.666 -96.5 54.999s-89.166 23 -140.499 23zM579.999 1231c-24.667 22 -37 50.667 -37 86s12.333 64 37 86c24 22 56.667 33 98 33c40 0 72.667 -11 98 -33c24.667 -22 37 -50.667 37 -86s-12.333 -64 -37 -86
c-25.333 -22 -58 -33 -98 -33c-41.333 0 -74 11 -98 33z" />
    <glyph glyph-name="Eogonek" unicode="&#x118;" horiz-adv-x="1419" 
d="M1112 0l-937.999 -0.00195312v1434h1122v-217h-868v-375h741v-213h-741v-412h868v-217c-0.666992 0 -3.66699 -1.16699 -9 -3.5s-8.83301 -3.83301 -10.5 -4.5l-11 -4.5c-5.66699 -2.33301 -10 -4.5 -13 -6.5s-7.33301 -4.66699 -13 -8
s-10.834 -6.66602 -15.501 -9.99902l-16 -12l-19 -15.5l-21 -18.5c-33.333 -31.333 -50 -63 -50 -95c0 -18 6.83301 -32.5 20.5 -43.5s31.5 -16.5 53.5 -16.5c49.333 0 74 18.667 74 56h135c0 -53.333 -18.167 -94.333 -54.5 -123s-87.833 -43 -154.5 -43
c-66 0 -117 14.333 -153 43s-54 69.667 -54 123c0 70.667 42.333 131.334 127 182.001z" />
    <glyph glyph-name="eogonek" unicode="&#x119;" horiz-adv-x="1355" 
d="M1243 502l-5.99902 -82.001h-879c6.66699 -30 17 -58 31 -84c14.667 -28 32.334 -52.333 53.001 -73c23.333 -23.333 56 -43.333 98 -60s88 -25 138 -25c55.333 0 104 9.33301 146 28c41.333 18 69.666 36 84.999 54l23 27h270
c-0.666992 -1.33301 -2.16699 -5.16602 -4.5 -11.499s-4.5 -11.5 -6.5 -15.5c-6 -14 -19.333 -35.667 -40 -65c-22 -32 -47.333 -60.333 -76 -85c-28.667 -25.333 -69.667 -50.333 -123 -75c-52 -24.667 -110.667 -41 -176 -49c-96.667 -48 -145 -102.667 -145 -164
c0 -18 6.83301 -32.5 20.5 -43.5s31.5 -16.5 53.5 -16.5c24.667 0 43.167 4.66699 55.5 14s18.166 23.333 17.499 42h135c0 -53.333 -18 -94.333 -54 -123s-87.333 -43 -154 -43c-66 0 -117 14.333 -153 43s-54 69.667 -54 123c0 64 34 119.333 102 166
c-146.667 14.667 -264.667 67.667 -354 159c-88.667 90.667 -133 210.334 -133 359.001c0 161.333 52.667 288.666 158 381.999s241 140 407 140c166.667 0 302.667 -46.667 408 -140c104.667 -94 157 -221.333 157 -382zM678.001 824.999
c-51.333 0 -97.502 -7.49902 -138.502 -22.499s-72.833 -33.833 -95.5 -56.5c-43.333 -45.333 -69.666 -86.333 -78.999 -123l-5 -23h631c0 16 -9 42 -27 78c-12 24.667 -28.333 47.667 -49 69c-22 21.333 -54.167 39.666 -96.5 54.999s-89.166 23 -140.499 23z" />
    <glyph glyph-name="Ecaron" unicode="&#x11a;" horiz-adv-x="1419" 
d="M1296 0h-1122v1434h1122v-217h-868v-375h741v-213h-741v-412h868v-217zM606 1618l-262 328h215l180 -232h6l181 232h215l-262 -328h-273z" />
    <glyph glyph-name="ecaron" unicode="&#x11b;" horiz-adv-x="1355" 
d="M1243 502l-5.99902 -81.999h-879c6.66699 -30 17 -58 31 -84c14.667 -28 32.334 -52.333 53.001 -73c23.333 -23.333 56 -43.333 98 -60s88 -25 138 -25c55.333 0 104 9.33301 146 28c41.333 18 69.666 36 84.999 54l23 27h270c-8 -21.333 -17.333 -41.333 -28 -60
c-28 -47.333 -64.667 -89 -110 -125c-62 -50.667 -136 -85.667 -222 -105c-52.667 -11.333 -107.334 -17 -164.001 -17c-166 0 -301.667 46.667 -407 140s-158 220.666 -158 381.999c0 160.667 52.667 288 158 382c105.333 93.333 241 140 407 140
c166.667 0 302.667 -46.667 408 -140c104.667 -94 157 -221.333 157 -382zM678.001 825.001c-51.333 0 -97.502 -7.49902 -138.502 -22.499s-72.833 -33.833 -95.5 -56.5c-43.333 -45.333 -69.666 -86.333 -78.999 -123l-5 -23h631c0 16 -9 42 -27 78
c-12 24.667 -28.333 47.667 -49 69c-22 21.333 -54.167 39.666 -96.5 54.999s-89.166 23 -140.499 23zM540.999 1208l-262 328h215l180 -231h6l180 231h215l-262 -328h-272z" />
    <glyph glyph-name="Gbreve" unicode="&#x11e;" horiz-adv-x="1736" 
d="M1284 524l-430.002 -0.000976562v209h719v-733h-234v238h-10c-4.66699 -10 -9.33398 -19 -14.001 -27c-8 -14 -24.667 -35 -50 -63c-27.333 -31.333 -57 -57.666 -89 -78.999c-31.333 -22 -77.666 -42.333 -138.999 -61c-58 -18.667 -121.667 -28 -191 -28
c-214.667 0 -387 67.667 -517 203c-130.667 134.667 -196 312.667 -196 534c0 222 66 400.333 198 535c130.667 134.667 307.667 202 531 202c104.667 0 200.834 -15.667 288.501 -47s160.167 -74.666 217.5 -129.999c110 -106.667 177 -232 201 -376h-269
c-21.333 72 -62.666 141 -123.999 207c-34 36 -78.333 64.5 -133 85.5s-115 31.5 -181 31.5c-142.667 0 -255.667 -47.667 -339 -143c-82.667 -95.333 -124 -217 -124 -365c0 -144.667 40 -265.334 120 -362.001c80 -97.333 190.333 -146 331 -146
c73.333 0 139.333 12 198 36c60 24.667 105.667 54 137 88c66 71.333 99 135 99 191zM1073 1690c-53.333 -41.333 -127 -62 -221 -62s-167.667 20.667 -221 62s-80 99.333 -80 174v8h172v-4c0 -28.667 11.167 -51.834 33.5 -69.501s54.166 -26.5 95.499 -26.5
c40.667 0 72.334 8.83301 95.001 26.5s34 40.834 34 69.501v4h172v-8c0 -74.667 -26.667 -132.667 -80 -174z" />
    <glyph glyph-name="gbreve" unicode="&#x11f;" horiz-adv-x="1220" 
d="M117 690c0 106.667 42.999 189 128.999 247s199.333 87 340 87h604v-184h-189v-4c35.333 -29.333 53.333 -80 54 -152c0 -105.333 -43 -187 -129 -245s-199.333 -87 -340 -87c-161.333 0 -242 -28 -242 -84s80.667 -84 242 -84c166 0 298.333 -24.667 397 -74
c98 -50 147 -127.667 147 -233s-49 -183 -147 -233c-98.667 -49.333 -231 -74 -397 -74s-298.333 24.667 -397 74c-98.667 50 -148 127.667 -148 233c0 58 16.333 107.667 49 149c33.333 42 66 68.667 98 80l48 21v6c-1.33301 0 -4.66602 1.5 -9.99902 4.5
s-12.833 8.5 -22.5 16.5s-18.5 17 -26.5 27c-21.333 27.333 -32 56.333 -32 87c0 32 10.667 61.333 32 88c20.667 26 41.667 44 63 54l30 12v6c-10.667 4 -27.667 16 -51 36c-18.667 15.333 -34 31.333 -46 48c-34 44 -52.667 103.333 -56 178zM892.999 -123
c0 82 -102.333 123 -307 123s-307 -41 -307 -123s102.333 -123 307 -123s307 41 307 123zM755.999 798c-40.667 28 -97.334 42 -170.001 42c-72 0 -128.667 -14 -170 -42s-62 -64.333 -62 -109c0 -45.333 20.667 -82 62 -110s98 -42 170 -42c72.667 0 129.334 14 170.001 42
s61 64.667 61 110c0 44.667 -20.333 81 -61 109zM810.999 1249c-52.667 -40.667 -126.333 -61 -221 -61c-94 0 -167.667 20.667 -221 62s-80 99 -80 173v9h172v-5c0 -28.667 11.167 -51.834 33.5 -69.501s54.166 -26.5 95.499 -26.5c40.667 0 72.334 8.83301 95.001 26.5
s34 40.834 34 69.501v5h172v-9c0 -74.667 -26.667 -132.667 -80 -174z" />
    <glyph glyph-name="uni0122" unicode="&#x122;" horiz-adv-x="1736" 
d="M1284 524l-430.002 -0.000976562v209h719v-733h-234v238h-10c-4.66699 -10 -9.33398 -19 -14.001 -27c-8 -14 -24.667 -35 -50 -63c-27.333 -31.333 -57 -57.666 -89 -78.999c-31.333 -22 -77.666 -42.333 -138.999 -61c-58 -18.667 -121.667 -28 -191 -28
c-214.667 0 -387 67.667 -517 203c-130.667 134.667 -196 312.667 -196 534c0 222 66 400.333 198 535c130.667 134.667 307.667 202 531 202c104.667 0 200.834 -15.667 288.501 -47s160.167 -74.666 217.5 -129.999c110 -106.667 177 -232 201 -376h-269
c-21.333 72 -62.666 141 -123.999 207c-34 36 -78.333 64.5 -133 85.5s-115 31.5 -181 31.5c-142.667 0 -255.667 -47.667 -339 -143c-82.667 -95.333 -124 -217 -124 -365c0 -144.667 40 -265.334 120 -362.001c80 -97.333 190.333 -146 331 -146
c73.333 0 139.333 12 198 36c60 24.667 105.667 54 137 88c66 71.333 99 135 99 191zM835.998 -592.001l0.00195312 136.999c0 21.333 -5 37.5 -15 48.5s-22 17.833 -36 20.5c-14 2 -26.167 10.667 -36.5 26s-15.5 37 -15.5 65c0 31.333 11.167 55.833 33.5 73.5
s52.166 26.5 89.499 26.5c82 0 123 -51.667 123 -155c-0.666992 -67.333 -17.334 -124.666 -50.001 -171.999c-32 -46.667 -63 -70 -93 -70z" />
    <glyph glyph-name="uni0123" unicode="&#x123;" horiz-adv-x="1220" 
d="M117 690c0 106.667 42.999 189 128.999 247s199.333 87 340 87h604v-184h-189v-4c35.333 -29.333 53.333 -80 54 -152c0 -105.333 -43 -187 -129 -245s-199.333 -87 -340 -87c-161.333 0 -242 -28 -242 -84s80.667 -84 242 -84c166 0 298.333 -24.667 397 -74
c98 -50 147 -127.667 147 -233s-49 -183 -147 -233c-98.667 -49.333 -231 -74 -397 -74s-298.333 24.667 -397 74c-98.667 50 -148 127.667 -148 233c0 58 16.333 107.667 49 149c33.333 42 66 68.667 98 80l48 21v6c-1.33301 0 -4.66602 1.5 -9.99902 4.5
s-12.833 8.5 -22.5 16.5s-18.5 17 -26.5 27c-21.333 27.333 -32 56.333 -32 87c0 32 10.667 61.333 32 88c20.667 26 41.667 44 63 54l30 12v6c-10.667 4 -27.667 16 -51 36c-18.667 15.333 -34 31.333 -46 48c-34 44 -52.667 103.333 -56 178zM892.999 -123
c0 82 -102.333 123 -307 123s-307 -41 -307 -123s102.333 -123 307 -123s307 41 307 123zM755.999 798c-40.667 28 -97.334 42 -170.001 42c-72 0 -128.667 -14 -170 -42s-62 -64.333 -62 -109c0 -45.333 20.667 -82 62 -110s98 -42 170 -42c72.667 0 129.334 14 170.001 42
s61 64.667 61 110c0 44.667 -20.333 81 -61 109zM611.999 1606v-137.999c0 -40 17.333 -62.667 52 -68c14 -2 26 -10.667 36 -26s15 -37 15 -65c0 -31.333 -11.333 -56 -34 -74s-52.334 -27 -89.001 -27c-82 0 -123 52 -123 156
c0.666992 67.333 17.334 124.666 50.001 171.999c32 46.667 63 70 93 70z" />
    <glyph glyph-name="Imacron" unicode="&#x12a;" horiz-adv-x="1232" 
d="M123 1434h987v-217h-367v-1000h367v-217h-987v217h366v1000h-366v217zM922 1638h-609v156h609v-156z" />
    <glyph glyph-name="imacron" unicode="&#x12b;" horiz-adv-x="536" 
d="M573 1229h-608v155h608v-155zM154 1004h229v-1004h-229v1004z" />
    <glyph glyph-name="Iogonek" unicode="&#x12e;" horiz-adv-x="1232" 
d="M123 1434l987.001 -0.000976562v-217h-367v-1000h367v-217c-1.33301 -0.666992 -4.83301 -2.16699 -10.5 -4.5l-12 -5l-13 -5.5c-6.33301 -2.66699 -11.333 -5.16699 -15 -7.5l-16 -10c-7 -4.33301 -13.333 -8.83301 -19 -13.5l-20 -16.5
c-7.66699 -6.33301 -15.5 -13.166 -23.5 -20.499c-32.667 -30.667 -49 -62.334 -49 -95.001c0 -18 6.83301 -32.5 20.5 -43.5s31.5 -16.5 53.5 -16.5c24.667 0 43.167 4.66699 55.5 14s18.166 23.333 17.499 42h135c0 -53.333 -18 -94.333 -54 -123s-87.333 -43 -154 -43
c-66 0 -117 14.333 -153 43s-54 69.667 -54 123c0 70.667 42.333 131.334 127 182.001h-803v217h366v1000h-366v217z" />
    <glyph glyph-name="iogonek" unicode="&#x12f;" horiz-adv-x="536" 
d="M154 1004l229.001 -0.000976562v-1004h2c-1.33301 -0.666992 -4.83301 -2.16699 -10.5 -4.5l-12 -5l-13 -5.5c-6.33301 -2.66699 -11.333 -5.16699 -15 -7.5l-16 -10c-7 -4.33301 -13.333 -8.83301 -19 -13.5l-20 -16.5c-7.66699 -6.33301 -15.5 -13.166 -23.5 -20.499
c-32.667 -30.667 -49 -62.334 -49 -95.001c0 -18 6.83301 -32.5 20.5 -43.5s31.5 -16.5 53.5 -16.5c24.667 0 43.167 4.66699 55.5 14s18.166 23.333 17.499 42h135c0 -53.333 -18 -94.333 -54 -123s-87.333 -43 -154 -43c-66 0 -117 14.333 -153 43s-54 69.667 -54 123
c0 70.667 42.333 131.334 127 182.001h-47v1004zM170.001 1250c-24.667 20.667 -36.999 49.333 -36.999 86c0 35.333 12.333 64 37 86c25.333 21.333 58.333 32 99 32c40 0 72.667 -10.667 98 -32c24 -22 36 -50.667 36 -86c0 -36 -12 -64.667 -36 -86
c-24.667 -22 -57.334 -33 -98.001 -33s-73.667 11 -99 33z" />
    <glyph glyph-name="Idot" unicode="&#x130;" horiz-adv-x="1232" 
d="M123 1434h987v-217h-367v-1000h367v-217h-987v217h366v1000h-366v217zM518 1671c-24.667 22 -37 50.667 -37 86s12.333 64 37 86c25.333 22 58.333 33 99 33s73.334 -11 98.001 -33s37 -50.667 37 -86s-12.333 -64 -37 -86s-57.334 -33 -98.001 -33s-73.667 11 -99 33z
" />
    <glyph glyph-name="dotlessi" unicode="&#x131;" horiz-adv-x="536" 
d="M154 1004h229v-1004h-229v1004z" />
    <glyph glyph-name="uni0136" unicode="&#x136;" horiz-adv-x="1400" 
d="M1055 1434h305l-639 -709l680 -725h-307l-666 707v-707h-254v1434h254v-693zM737 -592l0.000976562 136.999c0 40.667 -16.667 63.667 -50 69c-14 2 -26.167 10.667 -36.5 26s-15.5 37 -15.5 65c0 31.333 11 55.833 33 73.5s52 26.5 90 26.5c82 0 123 -51.667 123 -155
c-0.666992 -67.333 -17.334 -124.666 -50.001 -171.999c-32.667 -46.667 -64 -70 -94 -70z" />
    <glyph glyph-name="uni0137" unicode="&#x137;" horiz-adv-x="1183" 
d="M866 1004h281l-496 -486l533 -518h-287l-514 502v-502h-229v1434h229v-906zM627 -592l0.00195312 136.999c0 21.333 -5 37.5 -15 48.5s-22 17.833 -36 20.5c-14 2 -26.167 10.667 -36.5 26s-15.5 37 -15.5 65c0 31.333 11.167 55.833 33.5 73.5s52.166 26.5 89.499 26.5
c82 0 123 -51.667 123 -155c-0.666992 -67.333 -17.334 -124.666 -50.001 -171.999c-32 -46.667 -63 -70 -93 -70z" />
    <glyph glyph-name="Lacute" unicode="&#x139;" horiz-adv-x="1327" 
d="M428 225h858v-225h-1112v1434h254v-1209zM406 1618h-207l307 328h297z" />
    <glyph glyph-name="lacute" unicode="&#x13a;" horiz-adv-x="536" 
d="M154 1434h229v-1434h-229v1434zM369 1618h-207l307 328h297z" />
    <glyph glyph-name="uni013B" unicode="&#x13b;" horiz-adv-x="1327" 
d="M428 225h858v-225h-1112v1434h254v-1209zM743 -592l0.00195312 136.999c0 40.667 -16.667 63.667 -50 69c-14 2 -26.167 10.667 -36.5 26s-15.5 37 -15.5 65c0 31.333 11.167 55.833 33.5 73.5s52.166 26.5 89.499 26.5c82 0 123 -51.667 123 -155
c-0.666992 -67.333 -17.334 -124.666 -50.001 -171.999c-32.667 -46.667 -64 -70 -94 -70z" />
    <glyph glyph-name="uni013C" unicode="&#x13c;" horiz-adv-x="536" 
d="M154 1434h229v-1434h-229v1434zM248 -592l0.00195312 136.999c0 21.333 -5 37.5 -15 48.5s-22 17.833 -36 20.5c-14 2 -26.167 10.667 -36.5 26s-15.5 37 -15.5 65c0 31.333 11.167 55.833 33.5 73.5s52.166 26.5 89.499 26.5c82 0 123 -51.667 123 -155
c-0.666992 -67.333 -17.334 -124.666 -50.001 -171.999c-32 -46.667 -63 -70 -93 -70z" />
    <glyph glyph-name="Lcaron" unicode="&#x13d;" horiz-adv-x="1327" 
d="M428 225h858v-225h-1112v1434h254v-1209zM713 1057l0.00195312 137c0 40 -17 63 -51 69c-14 2 -26.167 10.667 -36.5 26s-15.5 37 -15.5 65c0 31.333 11.167 55.833 33.5 73.5s52.166 26.5 89.499 26.5c82 0 123 -52 123 -156
c-0.666992 -67.333 -17.334 -124.333 -50.001 -171c-32 -46.667 -63 -70 -93 -70z" />
    <glyph glyph-name="lcaron" unicode="&#x13e;" horiz-adv-x="649" 
d="M154 1434h229v-1434h-229v1434zM598 1057l0.000976562 137c0 40 -17 63 -51 69c-14 2 -26 10.667 -36 26s-15 37 -15 65c0 31.333 11.167 55.833 33.5 73.5s51.833 26.5 88.5 26.5c82 0 123 -52 123 -156c-0.666992 -67.333 -17.334 -124.333 -50.001 -171
c-32 -46.667 -63 -70 -93 -70z" />
    <glyph glyph-name="Lslash" unicode="&#x141;" horiz-adv-x="1376" 
d="M225 506l-194 -96v217l194 96v711h254v-586l271 133v-217l-271 -133v-406h856v-225h-1110v506z" />
    <glyph glyph-name="lslash" unicode="&#x142;" horiz-adv-x="649" 
d="M203 526l-183 -86v189l183 86v719h229v-611l197 92v-188l-197 -92v-635h-229v526z" />
    <glyph glyph-name="Nacute" unicode="&#x143;" horiz-adv-x="1660" 
d="M1487 0h-418l-629 1186h-12v-1186h-254v1434h418l629 -1186h12v1186h254v-1434zM934 1618h-207l307 328h297z" />
    <glyph glyph-name="nacute" unicode="&#x144;" horiz-adv-x="1351" 
d="M1208 0l-228.999 0.000976562v508c0 103.333 -27.333 180.333 -82 231s-127 76 -217 76c-96 0 -169.333 -28.333 -220 -85c-51.333 -57.333 -77 -131.333 -77 -222v-508h-229v1004h229v-162h14c7.33301 16 23.666 37 48.999 63c16.667 18 39 36.667 67 56
c28 17.333 64.667 32.166 110 44.499s93 18.5 143 18.5c129.333 0 235.333 -38 318 -114c82.667 -76.667 124 -191 124 -343v-567zM764.001 1208h-207l307 328h297z" />
    <glyph glyph-name="uni0145" unicode="&#x145;" horiz-adv-x="1660" 
d="M1487 0h-418l-629 1186h-12v-1186h-254v1434h418l629 -1186h12v1186h254v-1434zM838 -592l0.00195312 136.999c0 21.333 -5 37.5 -15 48.5s-22 17.833 -36 20.5c-14 2 -26.167 10.667 -36.5 26s-15.5 37 -15.5 65c0 31.333 11.167 55.833 33.5 73.5
s52.166 26.5 89.499 26.5c82 0 123 -51.667 123 -155c-0.666992 -67.333 -17.334 -124.666 -50.001 -171.999c-32 -46.667 -63 -70 -93 -70z" />
    <glyph glyph-name="uni0146" unicode="&#x146;" horiz-adv-x="1351" 
d="M1208 0l-228.999 0.000976562v508c0 103.333 -27.333 180.333 -82 231s-127 76 -217 76c-96 0 -169.333 -28.333 -220 -85c-51.333 -57.333 -77 -131.333 -77 -222v-508h-229v1004h229v-162h14c7.33301 16 23.666 37 48.999 63c16.667 18 39 36.667 67 56
c28 17.333 64.667 32.166 110 44.499s93 18.5 143 18.5c129.333 0 235.333 -38 318 -114c82.667 -76.667 124 -191 124 -343v-567zM672.001 -591.999l0.00195312 136.999c0 21.333 -5 37.5 -15 48.5s-22 17.833 -36 20.5c-14 2 -26.167 10.667 -36.5 26s-15.5 37 -15.5 65
c0 31.333 11.167 55.833 33.5 73.5s52.166 26.5 89.499 26.5c82 0 123 -51.667 123 -155c-0.666992 -67.333 -17.334 -124.666 -50.001 -171.999c-32 -46.667 -63 -70 -93 -70z" />
    <glyph glyph-name="Ncaron" unicode="&#x147;" horiz-adv-x="1660" 
d="M1487 0h-418l-629 1186h-12v-1186h-254v1434h418l629 -1186h12v1186h254v-1434zM711 1618l-262 328h215l180 -232h6l180 232h215l-262 -328h-272z" />
    <glyph glyph-name="ncaron" unicode="&#x148;" horiz-adv-x="1351" 
d="M1208 0l-228.999 0.000976562v508c0 103.333 -27.333 180.333 -82 231s-127 76 -217 76c-96 0 -169.333 -28.333 -220 -85c-51.333 -57.333 -77 -131.333 -77 -222v-508h-229v1004h229v-162h14c7.33301 16 23.666 37 48.999 63c16.667 18 39 36.667 67 56
c28 17.333 64.667 32.166 110 44.499s93 18.5 143 18.5c129.333 0 235.333 -38 318 -114c82.667 -76.667 124 -191 124 -343v-567zM543.001 1208l-262 328h215l180 -231h6l180 231h215l-262 -328h-272z" />
    <glyph glyph-name="Omacron" unicode="&#x14c;" horiz-adv-x="1724" 
d="M1394 1252c131.333 -135.333 197 -313.667 197 -535c0 -220.667 -65.667 -398.667 -197 -534c-132 -135.333 -309.333 -203 -532 -203s-399.667 67.667 -531 203c-132 135.333 -198 313.333 -198 534c0 222 66 400.333 198 535c130.667 134.667 307.667 202 531 202
c222.667 0 400 -67.333 532 -202zM1201 352.999c82.667 94.667 124 216 124 364s-41.333 269.667 -124 365c-83.333 95.333 -196.333 143 -339 143s-255.667 -47.667 -339 -143c-82.667 -95.333 -124 -217 -124 -365s41.333 -269.333 124 -364
c83.333 -96 196.333 -144 339 -144s255.667 48 339 144zM1167 1638h-608v156h608v-156z" />
    <glyph glyph-name="omacron" unicode="&#x14d;" horiz-adv-x="1355" 
d="M271 120c-105.333 93.333 -158 220.667 -158 382c0 160.667 52.667 288 158 382c105.333 93.333 241 140 407 140c166.667 0 302.667 -46.667 408 -140c104.667 -94 157 -221.333 157 -382c0 -162 -52.333 -289.333 -157 -382c-105.333 -93.333 -241.333 -140 -408 -140
c-166 0 -301.667 46.667 -407 140zM916 275.001c60 58 90 133.667 90 227c0 92.667 -30 168 -90 226c-61.333 58 -140.666 87 -237.999 87c-98.667 0 -178 -29 -238 -87s-90 -133.333 -90 -226c0 -93.333 30 -169 90 -227s139.333 -87 238 -87
c97.333 0 176.666 29 237.999 87zM983 1229h-608v155h608v-155z" />
    <glyph glyph-name="Ohungarumlaut" unicode="&#x150;" horiz-adv-x="1724" 
d="M1394 1252c131.333 -135.333 197 -313.667 197 -535c0 -220.667 -65.667 -398.667 -197 -534c-132 -135.333 -309.333 -203 -532 -203s-399.667 67.667 -531 203c-132 135.333 -198 313.333 -198 534c0 222 66 400.333 198 535c130.667 134.667 307.667 202 531 202
c222.667 0 400 -67.333 532 -202zM1201 352.999c82.667 94.667 124 216 124 364s-41.333 269.667 -124 365c-83.333 95.333 -196.333 143 -339 143s-255.667 -47.667 -339 -143c-82.667 -95.333 -124 -217 -124 -365s41.333 -269.333 124 -364
c83.333 -96 196.333 -144 339 -144s255.667 48 339 144zM743 1618h-161l327 328h224zM1120 1618h-166l328 328h236z" />
    <glyph glyph-name="ohungarumlaut" unicode="&#x151;" horiz-adv-x="1355" 
d="M271 120c-105.333 93.333 -158 220.667 -158 382c0 160.667 52.667 288 158 382c105.333 93.333 241 140 407 140c166.667 0 302.667 -46.667 408 -140c104.667 -94 157 -221.333 157 -382c0 -162 -52.333 -289.333 -157 -382c-105.333 -93.333 -241.333 -140 -408 -140
c-166 0 -301.667 46.667 -407 140zM916 275.001c60 58 90 133.667 90 227c0 92.667 -30 168 -90 226c-61.333 58 -140.666 87 -237.999 87c-98.667 0 -178 -29 -238 -87s-90 -133.333 -90 -226c0 -93.333 30 -169 90 -227s139.333 -87 238 -87
c97.333 0 176.666 29 237.999 87zM555 1208h-162l328 328h223zM932 1208h-166l328 328h235z" />
    <glyph glyph-name="OE" unicode="&#x152;" horiz-adv-x="2082" 
d="M348 187c-143.333 124 -215 300 -215 528s72 405 216 531c144.667 125.333 345.667 188 603 188h1008v-222h-725v-368h598v-217h-598v-406h725v-221h-1008c-260 -0 -461.333 62.333 -604 187zM983 221v991h-39c-176.667 0 -311.667 -43.667 -405 -131
s-140 -208.666 -140 -363.999c0 -156.667 46.333 -278.334 139 -365.001c92.667 -87.333 228 -131 406 -131h39z" />
    <glyph glyph-name="oe" unicode="&#x153;" horiz-adv-x="2144" 
d="M2032 496l-7.00098 -83.999h-827c0 -58.667 27 -114 81 -166s128.667 -78 224 -78c72.667 0 130.334 13.667 173.001 41c34 22.667 55.667 43 65 61l6 13h260c-0.666992 -5.33301 -4 -16.333 -10 -33c-4 -11.333 -18.333 -35.666 -43 -72.999
c-21.333 -32.667 -49.666 -63.334 -84.999 -92.001c-32.667 -27.333 -80.667 -51.333 -144 -72c-63.333 -22 -134.666 -33 -213.999 -33c-54 0 -106.5 7.33301 -157.5 22s-92.167 33.334 -123.5 56.001c-61.333 43.333 -104 83.333 -128 120l-15 23h-16
c-0.666992 -0.666992 -2.83398 -3.66699 -6.50098 -9l-10 -14.5c-3 -4.33301 -8.83301 -11.333 -17.5 -21l-30 -32.5c-26 -26 -53.667 -48.333 -83 -67c-30.667 -20.667 -70.667 -38.334 -120 -53.001c-50 -16 -102.333 -24 -157 -24c-155.333 0 -283 48 -383 144
c-100.667 96 -151 222 -151 378c0 155.333 50.333 281.333 151 378c100 96 227.667 144 383 144c56 0 109.333 -7.33301 160 -22s91.667 -33.334 123 -56.001c60 -44 102.333 -85 127 -123l14 -22h16c8.66699 18.667 28.334 44.667 59.001 78
c25.333 27.333 51.666 50 78.999 68s66.666 35.667 117.999 53c48.667 16 102 24 160 24c155.333 0 282.333 -48 381 -144c98.667 -96.667 148 -224.667 148 -384zM654.999 184.001c91.333 0 165.333 31.332 222 93.999c56 62 84 138 84 228
c0 90.667 -27.333 165.334 -82 224.001c-55.333 59.333 -129.666 89 -222.999 89c-94.667 0 -169.334 -30.333 -224.001 -91s-82 -136 -82 -226c0 -92 27.333 -167.667 82 -227c54.667 -60.667 129 -91 223 -91zM1495 836c-94 0 -167 -26 -219 -78s-78 -107.333 -78 -166
h590c0 56 -25.667 110.667 -77 164s-123.333 80 -216 80z" />
    <glyph glyph-name="Racute" unicode="&#x154;" horiz-adv-x="1495" 
d="M797 520l-368.999 -0.000976562v-520h-254v1434h582c379.333 0 569 -151.667 569 -455c0 -60.667 -9 -117.167 -27 -169.5s-40.667 -93.166 -68 -122.499c-54.667 -58 -104.334 -94.333 -149.001 -109l-26 -9l358 -569h-287zM428.001 736.999h328c202 0 303 80 303 240
s-101 240 -303 240h-328v-480zM770.001 1618h-207l307 328h297z" />
    <glyph glyph-name="racute" unicode="&#x155;" horiz-adv-x="933" 
d="M760 1024l112 -12v-254c-40.667 16.667 -95 24.667 -163 24c-103.333 0 -183.333 -31 -240 -93c-57.333 -62.667 -86 -140.667 -86 -234v-455h-229v1004h229v-193h14c9.33301 21.333 25.666 46 48.999 74c18.667 24.667 40.667 46.667 66 66
c26.667 20.667 62.334 38 107.001 52s91.667 21 141 21zM602 1208h-207l307 328h297z" />
    <glyph glyph-name="uni0156" unicode="&#x156;" horiz-adv-x="1495" 
d="M797 520l-368.999 -0.000976562v-520h-254v1434h582c379.333 0 569 -151.667 569 -455c0 -60.667 -9 -117.167 -27 -169.5s-40.667 -93.166 -68 -122.499c-54.667 -58 -104.334 -94.333 -149.001 -109l-26 -9l358 -569h-287zM428.001 736.999h328c202 0 303 80 303 240
s-101 240 -303 240h-328v-480zM756.001 -592.001l0.00195312 136.999c0 21.333 -5 37.5 -15 48.5s-22 17.833 -36 20.5c-14 2 -26.167 10.667 -36.5 26s-15.5 37 -15.5 65c0 31.333 11.167 55.833 33.5 73.5s52.166 26.5 89.499 26.5c82 0 123 -51.667 123 -155
c-0.666992 -67.333 -17.334 -124.666 -50.001 -171.999c-32 -46.667 -63 -70 -93 -70z" />
    <glyph glyph-name="uni0157" unicode="&#x157;" horiz-adv-x="933" 
d="M760 1024l112 -12v-254c-40.667 16.667 -95 24.667 -163 24c-103.333 0 -183.333 -31 -240 -93c-57.333 -62.667 -86 -140.667 -86 -234v-455h-229v1004h229v-193h14c9.33301 21.333 25.666 46 48.999 74c18.667 24.667 40.667 46.667 66 66
c26.667 20.667 62.334 38 107.001 52s91.667 21 141 21zM248 -592l0.00195312 136.999c0 21.333 -5 37.5 -15 48.5s-22 17.833 -36 20.5c-14 2 -26.167 10.667 -36.5 26s-15.5 37 -15.5 65c0 31.333 11.167 55.833 33.5 73.5s52.166 26.5 89.499 26.5
c82 0 123 -51.667 123 -155c-0.666992 -67.333 -17.334 -124.666 -50.001 -171.999c-32 -46.667 -63 -70 -93 -70z" />
    <glyph glyph-name="Rcaron" unicode="&#x158;" horiz-adv-x="1495" 
d="M797 520l-368.999 -0.000976562v-520h-254v1434h582c379.333 0 569 -151.667 569 -455c0 -60.667 -9 -117.167 -27 -169.5s-40.667 -93.166 -68 -122.499c-54.667 -58 -104.334 -94.333 -149.001 -109l-26 -9l358 -569h-287zM428.001 736.999h328c202 0 303 80 303 240
s-101 240 -303 240h-328v-480zM547.001 1618l-262 328h215l180 -232h6l180 232h215l-262 -328h-272z" />
    <glyph glyph-name="rcaron" unicode="&#x159;" horiz-adv-x="933" 
d="M760 1024l112 -12v-254c-40.667 16.667 -95 24.667 -163 24c-103.333 0 -183.333 -31 -240 -93c-57.333 -62.667 -86 -140.667 -86 -234v-455h-229v1004h229v-193h14c9.33301 21.333 25.666 46 48.999 74c18.667 24.667 40.667 46.667 66 66
c26.667 20.667 62.334 38 107.001 52s91.667 21 141 21zM385 1208l-262 328h215l180 -231h6l181 231h215l-263 -328h-272z" />
    <glyph glyph-name="Sacute" unicode="&#x15a;" horiz-adv-x="1472" 
d="M1307 1028l0.00390625 -39.0029h-263v39c0 139.333 -105 209 -315 209c-98.667 0 -175.834 -16.333 -231.501 -49s-83.5 -80.667 -83.5 -144c0 -85.333 62.333 -143 187 -173c34 -8.66699 95.167 -21 183.5 -37s156.5 -30.333 204.5 -43c70 -18.667 131.333 -41 184 -67
c55.333 -27.333 100.333 -67.666 135 -120.999s52 -118.333 52 -195c0 -136.667 -57 -242 -171 -316c-113.333 -74.667 -264 -112 -452 -112c-190.667 0 -342.334 37.667 -455.001 113c-112.667 74.667 -169 182.334 -169 323.001v67h262v-69
c0 -144.667 120.667 -217 362 -217c239.333 0 359.666 71 360.999 213c0 40.667 -16.833 74.667 -50.5 102s-79.5 47.666 -137.5 60.999c-28.667 6.66699 -87.667 17.834 -177 33.501s-159 30.167 -209 43.5c-67.333 16.667 -129 39.334 -185 68.001
c-54.667 28 -99.667 69.667 -135 125c-34.667 54.667 -52 121.667 -52 201c0 125.333 52 225 156 299c103.333 74 243.666 111 420.999 111c179.333 0 320.333 -37 423 -111c103.333 -75.333 155 -180.333 155 -315zM819.004 1618h-207l308 328h297z" />
    <glyph glyph-name="sacute" unicode="&#x15b;" horiz-adv-x="1224" 
d="M1083 680l-236.999 -0.00195312c0 50 -17.333 88.333 -52 115c-35.333 27.333 -100 41 -194 41c-160 0 -240 -38.333 -240 -115c0 -32.667 19 -57 57 -73c36.667 -17.333 83.667 -27.333 141 -30c61.333 -4 122.666 -10.333 183.999 -19
c65.333 -8.66699 126.333 -20.667 183 -36c56.667 -16 103.667 -46 141 -90c37.333 -45.333 56 -102.666 56 -171.999c0 -75.333 -23 -137.666 -69 -186.999c-47.333 -50.667 -107.333 -85.334 -180 -104.001c-74 -20 -161.667 -30 -263 -30
c-153.333 0 -276.333 27.667 -369 83c-92.667 54.667 -139 143 -139 265v32h238v-32c0 -106.667 90 -160 270 -160c182 0 273.667 43.667 275 131c0 42.667 -26.333 72.334 -79 89.001c-53.333 17.333 -116.666 28.333 -189.999 33c-74.667 4.66699 -149 12.667 -223 24
c-75.333 11.333 -139 39 -191 83c-52.667 44 -79 107 -79 189c0 101.333 43.333 178 130 230c87.333 51.333 203.666 77 348.999 77c148.667 0 266 -28 352 -84s129 -142.667 129 -260zM700.001 1208h-206l307 328h297z" />
    <glyph glyph-name="Scedilla" unicode="&#x15e;" horiz-adv-x="1472" 
d="M651 -184l0.00195312 101.998l56 62c-181.333 4 -325.666 43.667 -432.999 119s-161 181 -161 317v67h262v-69c0 -144.667 120.667 -217 362 -217c239.333 0 359.666 71 360.999 213c0 40.667 -16.833 74.667 -50.5 102s-79.5 47.666 -137.5 60.999
c-28.667 6.66699 -87.667 17.834 -177 33.501s-159 30.167 -209 43.5c-67.333 16.667 -129 39.334 -185 68.001c-54.667 28 -99.667 69.667 -135 125c-34.667 54.667 -52 121.667 -52 201c0 125.333 52 225 156 299c103.333 74 243.666 111 420.999 111
c179.333 0 320.333 -37 423 -111c103.333 -75.333 155 -180.333 155 -315v-39h-263v39c0 139.333 -105 209 -315 209c-98.667 0 -175.834 -16.333 -231.501 -49s-83.5 -80.667 -83.5 -144c0 -85.333 62.333 -143 187 -173c34 -8.66699 95.167 -21 183.5 -37
s156.5 -30.333 204.5 -43c70 -18.667 131.333 -41 184 -67c55.333 -27.333 100.333 -67.666 135 -120.999s52 -118.333 52 -195c0 -126 -48.333 -225.333 -145 -298c-96.667 -73.333 -226.667 -115.333 -390 -126l-51 -62c132.667 0 199 -54.667 199 -164
c0 -51.333 -18 -90.666 -54 -117.999s-86.333 -41 -151 -41c-135.333 0 -203 53.667 -203 161h127c0 -36.667 25.333 -55 76 -55c52 0 78 17.667 78 53c0 37.333 -26 56.666 -78 57.999h-117z" />
    <glyph glyph-name="scedilla" unicode="&#x15f;" horiz-adv-x="1224" 
d="M514 -184l0.00195312 101.997l55 64c-142.667 4 -256.334 33.667 -341.001 89c-84 55.333 -126 141 -126 257v32h238v-32c0 -106.667 90 -160 270 -160c182 0 273.667 43.667 275 131c0 42.667 -26.333 72.334 -79 89.001c-53.333 17.333 -116.666 28.333 -189.999 33
c-74.667 4.66699 -149 12.667 -223 24c-75.333 11.333 -139 39 -191 83c-52.667 44 -79 107 -79 189c0 101.333 43.333 178 130 230c87.333 51.333 203.666 77 348.999 77c148.667 0 266 -28 352 -84s129 -142.667 129 -260h-237c0 50 -17.333 88.333 -52 115
c-35.333 27.333 -100 41 -194 41c-160 0 -240 -38.333 -240 -115c0 -32.667 19 -57 57 -73c36.667 -17.333 83.667 -27.333 141 -30c61.333 -4 122.666 -10.333 183.999 -19c65.333 -8.66699 126.333 -20.667 183 -36c56.667 -16 103.667 -46 141 -90
c37.333 -45.333 56 -102.666 56 -171.999c0 -101.333 -38.667 -177.666 -116 -228.999c-78 -52 -184 -82 -318 -90l-51 -60c132.667 0 199 -54.667 199 -164c0 -51.333 -18 -90.666 -54 -117.999s-86.333 -41 -151 -41c-135.333 0 -203 53.667 -203 161h127
c0 -36.667 25.333 -55 76 -55c52 0 78 17.667 78 53c0 37.333 -26 56.666 -78 57.999h-117z" />
    <glyph glyph-name="Scaron" unicode="&#x160;" horiz-adv-x="1472" 
d="M1307 1028l0.00390625 -39.0029h-263v39c0 139.333 -105 209 -315 209c-98.667 0 -175.834 -16.333 -231.501 -49s-83.5 -80.667 -83.5 -144c0 -85.333 62.333 -143 187 -173c34 -8.66699 95.167 -21 183.5 -37s156.5 -30.333 204.5 -43c70 -18.667 131.333 -41 184 -67
c55.333 -27.333 100.333 -67.666 135 -120.999s52 -118.333 52 -195c0 -136.667 -57 -242 -171 -316c-113.333 -74.667 -264 -112 -452 -112c-190.667 0 -342.334 37.667 -455.001 113c-112.667 74.667 -169 182.334 -169 323.001v67h262v-69
c0 -144.667 120.667 -217 362 -217c239.333 0 359.666 71 360.999 213c0 40.667 -16.833 74.667 -50.5 102s-79.5 47.666 -137.5 60.999c-28.667 6.66699 -87.667 17.834 -177 33.501s-159 30.167 -209 43.5c-67.333 16.667 -129 39.334 -185 68.001
c-54.667 28 -99.667 69.667 -135 125c-34.667 54.667 -52 121.667 -52 201c0 125.333 52 225 156 299c103.333 74 243.666 111 420.999 111c179.333 0 320.333 -37 423 -111c103.333 -75.333 155 -180.333 155 -315zM598.004 1618l-262 328h215l180 -232h6l181 232h215
l-263 -328h-272z" />
    <glyph glyph-name="scaron" unicode="&#x161;" horiz-adv-x="1224" 
d="M1083 680l-236.999 -0.00195312c0 50 -17.333 88.333 -52 115c-35.333 27.333 -100 41 -194 41c-160 0 -240 -38.333 -240 -115c0 -32.667 19 -57 57 -73c36.667 -17.333 83.667 -27.333 141 -30c61.333 -4 122.666 -10.333 183.999 -19
c65.333 -8.66699 126.333 -20.667 183 -36c56.667 -16 103.667 -46 141 -90c37.333 -45.333 56 -102.666 56 -171.999c0 -75.333 -23 -137.666 -69 -186.999c-47.333 -50.667 -107.333 -85.334 -180 -104.001c-74 -20 -161.667 -30 -263 -30
c-153.333 0 -276.333 27.667 -369 83c-92.667 54.667 -139 143 -139 265v32h238v-32c0 -106.667 90 -160 270 -160c182 0 273.667 43.667 275 131c0 42.667 -26.333 72.334 -79 89.001c-53.333 17.333 -116.666 28.333 -189.999 33c-74.667 4.66699 -149 12.667 -223 24
c-75.333 11.333 -139 39 -191 83c-52.667 44 -79 107 -79 189c0 101.333 43.333 178 130 230c87.333 51.333 203.666 77 348.999 77c148.667 0 266 -28 352 -84s129 -142.667 129 -260zM477.001 1208l-262 328h215l180 -231h6l181 231h215l-262 -328h-273z" />
    <glyph glyph-name="uni0162" unicode="&#x162;" horiz-adv-x="1318" 
d="M532 1208h-501v226h1257v-226h-502v-1208h-254v1208zM639 -592l0.000976562 136.999c0 21.333 -5 37.5 -15 48.5s-22 17.833 -36 20.5c-14 2 -26 10.667 -36 26s-15 37 -15 65c0 31.333 11.167 55.833 33.5 73.5s51.833 26.5 88.5 26.5c82 0 123 -51.667 123 -155
c-0.666992 -67.333 -17.334 -124.666 -50.001 -171.999c-32 -46.667 -63 -70 -93 -70z" />
    <glyph glyph-name="uni0163" unicode="&#x163;" horiz-adv-x="899" 
d="M217 375l-0.000976562 431.999h-166v145l246 277h149v-225h351v-197h-351v-401c0 -144 72.667 -216.667 218 -218c30 0 58.833 3.33301 86.5 10s47.834 14.334 60.501 23.001l16 10v-213c-51.333 -26 -116 -38.667 -194 -38c-277.333 0 -416 131.667 -416 395z
M525.999 -592.001l0.00195312 136.999c0 40.667 -16.667 63.667 -50 69c-14 2 -26.167 10.667 -36.5 26s-15.5 37 -15.5 65c0 31.333 11.167 55.833 33.5 73.5s52.166 26.5 89.499 26.5c82 0 123 -51.667 123 -155c-0.666992 -67.333 -17.334 -124.666 -50.001 -171.999
c-32.667 -46.667 -64 -70 -94 -70z" />
    <glyph glyph-name="Tcaron" unicode="&#x164;" horiz-adv-x="1318" 
d="M532 1208h-501v226h1257v-226h-502v-1208h-254v1208zM522 1618l-262 328h215l180 -232h7l180 232h215l-262 -328h-273z" />
    <glyph glyph-name="tcaron" unicode="&#x165;" horiz-adv-x="1005" 
d="M217 375l-0.000976562 431.999h-166v145l246 277h149v-225h351v-197h-351v-401c0 -144 72.667 -216.667 218 -218c30 0 58.833 3.33301 86.5 10s47.834 14.334 60.501 23.001l16 10v-213c-51.333 -26 -116 -38.667 -194 -38c-277.333 0 -416 131.667 -416 395z
M892.999 851.999l0.000976562 136.999c0 21.333 -5 37.5 -15 48.5s-22 17.833 -36 20.5c-14 2 -26 10.667 -36 26s-15 37 -15 65c0 31.333 11.167 55.833 33.5 73.5s51.833 26.5 88.5 26.5c82 0 123 -51.667 123 -155c-0.666992 -67.333 -17.334 -124.666 -50.001 -171.999
c-32 -46.667 -63 -70 -93 -70z" />
    <glyph glyph-name="Umacron" unicode="&#x16a;" horiz-adv-x="1613" 
d="M1270 113c-119.333 -88.667 -273.669 -133 -463.002 -133s-343.666 44.333 -462.999 133c-120 88.667 -180 218.334 -180 389.001v932h254v-918c0 -106.667 37 -185 111 -235c72.667 -50.667 165.334 -76 278.001 -76s205.667 25.333 279 76
c73.333 50 110 128.333 110 235v918h254v-932c0 -170.667 -60 -300.334 -180 -389.001zM1112 1638h-608v156h608v-156z" />
    <glyph glyph-name="umacron" unicode="&#x16b;" horiz-adv-x="1361" 
d="M154 1004l229.001 0.00195312v-508c0 -103.333 27.333 -180.333 82 -231c55.333 -51.333 127.666 -77 216.999 -77c96 0 169.333 28.333 220 85c51.333 57.333 77 131.666 77 222.999v508h229v-1004h-229v162h-14c-8 -17.333 -24 -38.333 -48 -63
c-17.333 -18.667 -40 -37.334 -68 -56.001c-27.333 -18 -63.666 -33 -108.999 -45s-93.333 -18 -144 -18c-128.667 0 -234.334 38.333 -317.001 115c-83.333 76 -125 189.667 -125 341v568zM983.001 1229h-608v155h608v-155z" />
    <glyph glyph-name="Uring" unicode="&#x16e;" horiz-adv-x="1613" 
d="M1270 113c-119.333 -88.667 -273.669 -133 -463.002 -133s-343.666 44.333 -462.999 133c-120 88.667 -180 218.334 -180 389.001v932h254v-918c0 -106.667 37 -185 111 -235c72.667 -50.667 165.334 -76 278.001 -76s205.667 25.333 279 76
c73.333 50 110 128.333 110 235v918h254v-932c0 -170.667 -60 -300.334 -180 -389.001zM643.997 1611c-38.667 36 -57.999 84 -57.999 144s19.333 108.333 58 145c39.333 36 93.666 54 162.999 54c70 0 124.333 -18 163 -54c38.667 -36.667 58 -85 58 -145
s-19.333 -108 -58 -144c-38.667 -36.667 -93 -55 -163 -55s-124.333 18.333 -163 55zM806.998 1686c46.667 0 70 23.333 70 70c0 46 -23.333 69 -70 69s-70 -23 -70 -69c0 -46.667 23.333 -70 70 -70z" />
    <glyph glyph-name="uring" unicode="&#x16f;" horiz-adv-x="1361" 
d="M154 1004l229.001 0.00195312v-508c0 -103.333 27.333 -180.333 82 -231c55.333 -51.333 127.666 -77 216.999 -77c96 0 169.333 28.333 220 85c51.333 57.333 77 131.666 77 222.999v508h229v-1004h-229v162h-14c-8 -17.333 -24 -38.333 -48 -63
c-17.333 -18.667 -40 -37.334 -68 -56.001c-27.333 -18 -63.666 -33 -108.999 -45s-93.333 -18 -144 -18c-128.667 0 -234.334 38.333 -317.001 115c-83.333 76 -125 189.667 -125 341v568zM517.001 1201c-38.667 36 -58 84.333 -58 145c0 60 19.333 108 58 144
c39.333 36 93.666 54 162.999 54s123.666 -18 162.999 -54c38.667 -36 58 -84 58 -144c0 -60.667 -19.333 -109 -58 -145c-39.333 -36 -93.666 -54 -162.999 -54s-123.666 18 -162.999 54zM680.001 1276c46.667 0 70 23.333 70 70c0 46 -23.333 69 -70 69s-70 -23 -70 -69
c0 -46.667 23.333 -70 70 -70z" />
    <glyph glyph-name="Uhungarumlaut" unicode="&#x170;" horiz-adv-x="1613" 
d="M1270 113c-119.333 -88.667 -273.669 -133 -463.002 -133s-343.666 44.333 -462.999 133c-120 88.667 -180 218.334 -180 389.001v932h254v-918c0 -106.667 37 -185 111 -235c72.667 -50.667 165.334 -76 278.001 -76s205.667 25.333 279 76
c73.333 50 110 128.333 110 235v918h254v-932c0 -170.667 -60 -300.334 -180 -389.001zM685.997 1618h-162l328 328h223zM1063 1618h-166l328 328h235z" />
    <glyph glyph-name="uhungarumlaut" unicode="&#x171;" horiz-adv-x="1361" 
d="M154 1004l229.001 0.00195312v-508c0 -103.333 27.333 -180.333 82 -231c55.333 -51.333 127.666 -77 216.999 -77c96 0 169.333 28.333 220 85c51.333 57.333 77 131.666 77 222.999v508h229v-1004h-229v162h-14c-8 -17.333 -24 -38.333 -48 -63
c-17.333 -18.667 -40 -37.334 -68 -56.001c-27.333 -18 -63.666 -33 -108.999 -45s-93.333 -18 -144 -18c-128.667 0 -234.334 38.333 -317.001 115c-83.333 76 -125 189.667 -125 341v568zM567.001 1208h-161l327 328h223zM944.001 1208h-166l328 328h235z" />
    <glyph glyph-name="Uogonek" unicode="&#x172;" horiz-adv-x="1613" 
d="M1450 1434l-0.000976562 -932c0 -159.333 -51.333 -282.333 -154 -369c-103.333 -87.333 -238.333 -137 -405 -149c-94 -49.333 -141 -103.333 -141 -162c0 -18 6.83301 -32.5 20.5 -43.5s31.167 -16.5 52.5 -16.5c49.333 0 74 18.667 74 56h135
c0 -53.333 -18 -94.333 -54 -123s-87.667 -43 -155 -43c-66 0 -117 14.333 -153 43s-54 69.667 -54 123c0 64 34.333 119.333 103 166c-167.333 13.333 -301.333 63.333 -402 150c-102 87.333 -153 210 -153 368v932h254v-918c0 -106.667 37 -185 111 -235
c72.667 -50.667 165.334 -76 278.001 -76s205.667 25.333 279 76c73.333 50 110 128.333 110 235v918h254z" />
    <glyph glyph-name="uogonek" unicode="&#x173;" horiz-adv-x="1361" 
d="M154 1004l229.001 0.000976562v-508c0 -103.333 27.333 -180.333 82 -231c55.333 -51.333 127.666 -77 216.999 -77c96 0 169.333 28.333 220 85c51.333 57.333 77 131.666 77 222.999v508h229v-1004c-1.33301 -0.666992 -4.83301 -2.16699 -10.5 -4.5l-12 -5l-13 -5.5
c-6.33301 -2.66699 -11.333 -5.16699 -15 -7.5l-16 -10c-7 -4.33301 -13.333 -8.83301 -19 -13.5l-20 -16.5c-7.66699 -6.33301 -15.5 -13.166 -23.5 -20.499c-32.667 -30.667 -49 -62.334 -49 -95.001c0 -18 6.83301 -32.5 20.5 -43.5s31.5 -16.5 53.5 -16.5
c49.333 0 74 18.667 74 56h135c0 -53.333 -18.167 -94.333 -54.5 -123s-87.833 -43 -154.5 -43c-66 0 -117 14.333 -153 43s-54 69.667 -54 123c0 70.667 42.333 131.334 127 182.001h-45v162h-14c-8 -17.333 -24 -38.333 -48 -63c-17.333 -18.667 -40 -37.334 -68 -56.001
c-27.333 -18 -63.666 -33 -108.999 -45s-93.333 -18 -144 -18c-128.667 0 -234.334 38.333 -317.001 115c-83.333 76 -125 189.667 -125 341v568z" />
    <glyph glyph-name="Ydieresis" unicode="&#x178;" horiz-adv-x="1390" 
d="M297 1434l391 -686h14l392 686h276l-534 -920v-514h-281v514l-535 920h277zM805 1668c-23.333 20 -35 47.667 -35 83s11.667 63 35 83s54 30 92 30s68.667 -10 92 -30s35 -47.667 35 -83s-11.667 -63 -35 -83s-54 -30 -92 -30s-68.667 10 -92 30zM400 1668
c-23.333 20 -35 47.667 -35 83s11.667 63 35 83c22.667 20 53.334 30 92.001 30s69.334 -10 92.001 -30s34 -47.667 34 -83s-11.333 -63 -34 -83s-53.334 -30 -92.001 -30s-69.334 10 -92.001 30z" />
    <glyph glyph-name="Zacute" unicode="&#x179;" horiz-adv-x="1353" 
d="M418 217h844v-217h-1170v217l828 989v11h-809v217h1134v-217l-827 -990v-10zM766 1618h-207l307 328h297z" />
    <glyph glyph-name="zacute" unicode="&#x17a;" horiz-adv-x="1146" 
d="M727 803h-612v201h929v-201l-645 -598v-4h666v-201h-983v201l645 598v4zM668 1208h-207l307 328h297z" />
    <glyph glyph-name="Zdotaccent" unicode="&#x17b;" horiz-adv-x="1353" 
d="M418 217h844v-217h-1170v217l828 989v11h-809v217h1134v-217l-827 -990v-10zM588 1671c-24.667 22 -37 50.667 -37 86s12.333 64 37 86c25.333 22 58.333 33 99 33s73.334 -11 98.001 -33c24 -22 36 -50.667 36 -86s-12 -64 -36 -86c-24.667 -22 -57.334 -33 -98.001 -33
s-73.667 11 -99 33z" />
    <glyph glyph-name="zdotaccent" unicode="&#x17c;" horiz-adv-x="1146" 
d="M727 803h-612v201h929v-201l-645 -598v-4h666v-201h-983v201l645 598v4zM483 1231c-24.667 22 -37 50.667 -37 86s12.333 64 37 86s57.667 33 99 33c40 0 72.667 -11 98 -33c24.667 -22 37 -50.667 37 -86s-12.333 -64 -37 -86c-25.333 -22 -58 -33 -98 -33
c-41.333 0 -74.333 11 -99 33z" />
    <glyph glyph-name="Zcaron" unicode="&#x17d;" horiz-adv-x="1353" 
d="M418 217h844v-217h-1170v217l828 989v11h-809v217h1134v-217l-827 -990v-10zM547 1618l-262 328h215l180 -232h6l180 232h215l-262 -328h-272z" />
    <glyph glyph-name="zcaron" unicode="&#x17e;" horiz-adv-x="1146" 
d="M727 803h-612v201h929v-201l-645 -598v-4h666v-201h-983v201l645 598v4zM449 1208l-263 328h215l181 -231h6l180 231h215l-262 -328h-272z" />
    <glyph glyph-name="florin" unicode="&#x192;" horiz-adv-x="948" 
d="M930 1004l-43.001 -197h-289l-176 -842c-56 -263.333 -207.667 -395 -455 -395c-58 0 -101 6.66699 -129 20l-16 7l41 196c26 -10.667 58.667 -16 98 -16c62 0 111.667 15 149 45c36.667 30.667 63.334 86.667 80.001 168l172 817h-172l29 129l187 68l10 49
c28 132.667 86.5 232.667 175.5 300s203.167 101 342.5 101c37.333 0 74 -4.66699 110 -14c33.333 -9.33301 58 -18.333 74 -27l25 -14l-43 -203c-34 34 -90.667 51 -170 51c-159.333 0 -254.333 -72.333 -285 -217l-4 -26h289z" />
    <glyph glyph-name="uni0218" unicode="&#x218;" horiz-adv-x="1472" 
d="M1307 1028l0.00390625 -39.0029h-263v39c0 139.333 -105 209 -315 209c-98.667 0 -175.834 -16.333 -231.501 -49s-83.5 -80.667 -83.5 -144c0 -85.333 62.333 -143 187 -173c34 -8.66699 95.167 -21 183.5 -37s156.5 -30.333 204.5 -43c70 -18.667 131.333 -41 184 -67
c55.333 -27.333 100.333 -67.666 135 -120.999s52 -118.333 52 -195c0 -136.667 -57 -242 -171 -316c-113.333 -74.667 -264 -112 -452 -112c-190.667 0 -342.334 37.667 -455.001 113c-112.667 74.667 -169 182.334 -169 323.001v67h262v-69
c0 -144.667 120.667 -217 362 -217c239.333 0 359.666 71 360.999 213c0 40.667 -16.833 74.667 -50.5 102s-79.5 47.666 -137.5 60.999c-28.667 6.66699 -87.667 17.834 -177 33.501s-159 30.167 -209 43.5c-67.333 16.667 -129 39.334 -185 68.001
c-54.667 28 -99.667 69.667 -135 125c-34.667 54.667 -52 121.667 -52 201c0 125.333 52 225 156 299c103.333 74 243.666 111 420.999 111c179.333 0 320.333 -37 423 -111c103.333 -75.333 155 -180.333 155 -315zM725.004 -592.003l0.000976562 136.999
c0 21.333 -5 37.5 -15 48.5s-22 17.833 -36 20.5c-14 2 -26 10.667 -36 26s-15 37 -15 65c0 31.333 11.167 55.833 33.5 73.5s51.833 26.5 88.5 26.5c82 0 123 -51.667 123 -155c-0.666992 -67.333 -17.334 -124.666 -50.001 -171.999c-32 -46.667 -63 -70 -93 -70z" />
    <glyph glyph-name="uni0219" unicode="&#x219;" horiz-adv-x="1224" 
d="M1083 680l-236.999 -0.00195312c0 50 -17.333 88.333 -52 115c-35.333 27.333 -100 41 -194 41c-160 0 -240 -38.333 -240 -115c0 -32.667 19 -57 57 -73c36.667 -17.333 83.667 -27.333 141 -30c61.333 -4 122.666 -10.333 183.999 -19
c65.333 -8.66699 126.333 -20.667 183 -36c56.667 -16 103.667 -46 141 -90c37.333 -45.333 56 -102.666 56 -171.999c0 -75.333 -23 -137.666 -69 -186.999c-47.333 -50.667 -107.333 -85.334 -180 -104.001c-74 -20 -161.667 -30 -263 -30
c-153.333 0 -276.333 27.667 -369 83c-92.667 54.667 -139 143 -139 265v32h238v-32c0 -106.667 90 -160 270 -160c182 0 273.667 43.667 275 131c0 42.667 -26.333 72.334 -79 89.001c-53.333 17.333 -116.666 28.333 -189.999 33c-74.667 4.66699 -149 12.667 -223 24
c-75.333 11.333 -139 39 -191 83c-52.667 44 -79 107 -79 189c0 101.333 43.333 178 130 230c87.333 51.333 203.666 77 348.999 77c148.667 0 266 -28 352 -84s129 -142.667 129 -260zM602.001 -592.002v136.999c0 21.333 -5 37.5 -15 48.5s-22 17.833 -36 20.5
c-14 2 -26 10.667 -36 26s-15 37 -15 65c0 31.333 11 55.833 33 73.5s52 26.5 90 26.5c82.667 0 123.334 -51.667 122.001 -155c-0.666992 -67.333 -17.334 -124.666 -50.001 -171.999c-32 -46.667 -63 -70 -93 -70z" />
    <glyph glyph-name="uni021A" unicode="&#x21a;" horiz-adv-x="1318" 
d="M532 1208h-501v226h1257v-226h-502v-1208h-254v1208zM639 -592l0.000976562 136.999c0 21.333 -5 37.5 -15 48.5s-22 17.833 -36 20.5c-14 2 -26 10.667 -36 26s-15 37 -15 65c0 31.333 11.167 55.833 33.5 73.5s51.833 26.5 88.5 26.5c82 0 123 -51.667 123 -155
c-0.666992 -67.333 -17.334 -124.666 -50.001 -171.999c-32 -46.667 -63 -70 -93 -70z" />
    <glyph glyph-name="uni021B" unicode="&#x21b;" horiz-adv-x="899" 
d="M217 375l-0.000976562 431.999h-166v145l246 277h149v-225h351v-197h-351v-401c0 -144 72.667 -216.667 218 -218c30 0 58.833 3.33301 86.5 10s47.834 14.334 60.501 23.001l16 10v-213c-51.333 -26 -116 -38.667 -194 -38c-277.333 0 -416 131.667 -416 395z
M525.999 -592.001l0.00195312 136.999c0 40.667 -16.667 63.667 -50 69c-14 2 -26.167 10.667 -36.5 26s-15.5 37 -15.5 65c0 31.333 11.167 55.833 33.5 73.5s52.166 26.5 89.499 26.5c82 0 123 -51.667 123 -155c-0.666992 -67.333 -17.334 -124.666 -50.001 -171.999
c-32.667 -46.667 -64 -70 -94 -70z" />
    <glyph glyph-name="uni02BC" unicode="&#x2bc;" horiz-adv-x="368" 
d="M164 1057l0.00195312 137c0 40 -17 63 -51 69c-14 2 -26.167 10.667 -36.5 26s-15.5 37 -15.5 65c0 31.333 11.167 55.833 33.5 73.5s52.166 26.5 89.499 26.5c82 0 123 -52 123 -156c-0.666992 -67.333 -17.334 -124.333 -50.001 -171c-32 -46.667 -63 -70 -93 -70z" />
    <glyph glyph-name="circumflex" unicode="&#x2c6;" horiz-adv-x="919" 
d="M457 1440l-181 -232h-215l263 328h272l262 -328h-215l-180 232h-6z" />
    <glyph glyph-name="caron" unicode="&#x2c7;" horiz-adv-x="919" 
d="M324 1208l-263 328h215l181 -231h6l180 231h215l-262 -328h-272z" />
    <glyph glyph-name="breve" unicode="&#x2d8;" horiz-adv-x="724" 
d="M584 1251c-52.667 -40.667 -126.334 -61 -221.001 -61s-168.667 20.667 -222 62s-80 99 -80 173v9h172v-4c0 -28.667 11.333 -52 34 -70s54.667 -27 96 -27c40.667 0 72.334 9 95.001 27s34 41.333 34 70v4h172v-9c0 -74.667 -26.667 -132.667 -80 -174z" />
    <glyph glyph-name="dotaccent" unicode="&#x2d9;" horiz-adv-x="393" 
d="M98 1250c-24.667 20.667 -36.999 49.334 -36.999 86.001c0 35.333 12.333 64 37 86c25.333 21.333 58.333 32 99 32c40 0 72.667 -10.667 98 -32c24.667 -22 37 -50.667 37 -86c0 -36.667 -12.333 -65.334 -37 -86.001c-24.667 -22 -57.334 -33 -98.001 -33
s-73.667 11 -99 33z" />
    <glyph glyph-name="ring" unicode="&#x2da;" horiz-adv-x="565" 
d="M120 1238c-39.333 36 -59 84.333 -59 145c0 60 19.667 108 59 144c38.667 36 93 54 163 54s124.333 -18 163 -54s58 -84 58 -144c0 -60.667 -19.333 -109 -58 -145s-93 -54 -163 -54s-124.333 18 -163 54zM283 1313c46 0 69 23.333 69 70c0 46 -23 69 -69 69
c-46.667 0 -70 -23 -70 -69c0 -46.667 23.333 -70 70 -70z" />
    <glyph glyph-name="ogonek" unicode="&#x2db;" horiz-adv-x="538" 
d="M158 -20l31.999 20h183c-1.33301 -0.666992 -4.83301 -2.16699 -10.5 -4.5l-12 -5l-13 -5.5c-6.33301 -2.66699 -11.333 -5.16699 -15 -7.5l-16 -10c-7 -4.33301 -13.333 -8.83301 -19 -13.5l-20 -16.5c-7.66699 -6.33301 -15.5 -13.166 -23.5 -20.499
c-32.667 -30.667 -49 -62.334 -49 -95.001c0 -18 6.83301 -32.5 20.5 -43.5s31.167 -16.5 52.5 -16.5c49.333 0 74 18.667 74 56h135c0 -53.333 -18 -94.333 -54 -123s-87.667 -43 -155 -43c-66 0 -117 14.333 -153 43s-54 69.667 -54 123c0 33.333 10.667 65.333 32 96
c20.667 29.333 42.334 51.333 65.001 66z" />
    <glyph glyph-name="tilde" unicode="&#x2dc;" horiz-adv-x="845" 
d="M248 1204c-57.333 0 -102.832 13.668 -136.499 41.001s-50.5 65.666 -50.5 114.999l11 84h157c-4 -12 -6 -26.333 -6 -43c0 -38 20 -57.333 60 -58c16 -0.666992 35.667 5 59 17s45.833 25.5 67.5 40.5s49.834 28.667 84.501 41s69.334 17.833 104.001 16.5
c58 0 103.5 -13.5 136.5 -40.5s49.5 -65.167 49.5 -114.5l-10 -84h-158c3.33301 10.667 5.66602 25 6.99902 43c0 38 -20 57 -60 57c-14.667 1.33301 -33.834 -4 -57.501 -16s-46.834 -25.667 -69.501 -41s-51.167 -29 -85.5 -41s-68.5 -17.667 -102.5 -17z" />
    <glyph glyph-name="hungarumlaut" unicode="&#x2dd;" horiz-adv-x="1058" 
d="M223 1208h-162l328 328h223zM600 1208h-166l328 328h235z" />
    <glyph glyph-name="uni0401" unicode="&#x401;" horiz-adv-x="1419" 
d="M1296 0h-1122v1434h1122v-217h-868v-375h741v-213h-741v-412h868v-217zM862 1586c-23.333 20 -35 47.667 -35 83s11.667 63 35 83c22.667 20 53.667 30 93 30c38 0 68.667 -10 92 -30c22.667 -20 34 -47.667 34 -83s-11.333 -63 -34 -83c-23.333 -20 -54 -30 -92 -30
c-39.333 0 -70.333 10 -93 30zM457 1586c-23.333 20 -35.001 47.667 -35.001 83s11.667 63 35 83c22.667 20 53.334 30 92.001 30c38 0 68.667 -10 92 -30s35 -47.667 35 -83s-11.667 -63 -35 -83s-54 -30 -92 -30s-68.667 10 -92 30z" />
    <glyph glyph-name="uni0402" unicode="&#x402;" horiz-adv-x="1650" 
d="M877 -139l-16.999 4v215c33.333 -8 73.666 -12 120.999 -12c90 0 157.5 26.5 202.5 79.5s67.5 127.5 67.5 223.5c0 90.667 -25.667 163.667 -77 219c-52 54.667 -126.667 82 -224 82h-329v-672h-254v1217h-347v217h1092v-217h-491v-328h319
c190.667 0 334.667 -46.333 432 -139c97.333 -93.333 146 -220.333 146 -381c0 -162 -43.667 -289.333 -131 -382c-88 -91.333 -223.333 -137 -406 -137c-41.333 0 -76 3.66699 -104 11z" />
    <glyph glyph-name="uni0403" unicode="&#x403;" horiz-adv-x="1282" 
d="M825 1577h-207l308 328h297zM174 1434h1067v-226h-813v-1208h-254v1434z" />
    <glyph glyph-name="uni0404" unicode="&#x404;" horiz-adv-x="1695" 
d="M406 821l544 0.00195312v-209h-544c0 -70 31.667 -150 95 -240c32.667 -46.667 80 -85.334 142 -116.001c64 -31.333 135.667 -47 215 -47c80 0 151.667 16 215 48c62.667 32 110 70 142 114c30 40.667 52.833 78.667 68.5 114s23.5 62.666 23.5 81.999h266
c0 -96 -34.333 -193 -103 -291c-38.667 -54.667 -84 -103.667 -136 -147c-54 -44.667 -121.333 -80.334 -202 -107.001c-82.667 -28 -172.667 -42 -270 -42c-222.667 0 -399.667 67.667 -531 203c-132 135.333 -198 313.333 -198 534c0 222 66 400.333 198 535
c130.667 134.667 307.667 202 531 202c96 0 185.667 -14 269 -42c81.333 -27.333 149 -63 203 -107c52 -43.333 97.333 -92.333 136 -147c68.667 -98.667 103 -196 103 -292h-266c0 45.333 -30.667 111 -92 197c-32 43.333 -79.333 81.333 -142 114
c-63.333 32 -135 48 -215 48c-79.333 0 -151 -15.667 -215 -47c-62 -31.333 -109.333 -70 -142 -116c-63.333 -91.333 -95 -171.666 -95 -240.999z" />
    <glyph glyph-name="uni0405" unicode="&#x405;" horiz-adv-x="1472" 
d="M1307 1028l0.00390625 -39.0029h-263v39c0 139.333 -105 209 -315 209c-98.667 0 -175.834 -16.333 -231.501 -49s-83.5 -80.667 -83.5 -144c0 -85.333 62.333 -143 187 -173c34 -8.66699 95.167 -21 183.5 -37s156.5 -30.333 204.5 -43c70 -18.667 131.333 -41 184 -67
c55.333 -27.333 100.333 -67.666 135 -120.999s52 -118.333 52 -195c0 -136.667 -57 -242 -171 -316c-113.333 -74.667 -264 -112 -452 -112c-190.667 0 -342.334 37.667 -455.001 113c-112.667 74.667 -169 182.334 -169 323.001v67h262v-69
c0 -144.667 120.667 -217 362 -217c239.333 0 359.666 71 360.999 213c0 40.667 -16.833 74.667 -50.5 102s-79.5 47.666 -137.5 60.999c-28.667 6.66699 -87.667 17.834 -177 33.501s-159 30.167 -209 43.5c-67.333 16.667 -129 39.334 -185 68.001
c-54.667 28 -99.667 69.667 -135 125c-34.667 54.667 -52 121.667 -52 201c0 125.333 52 225 156 299c103.333 74 243.666 111 420.999 111c179.333 0 320.333 -37 423 -111c103.333 -75.333 155 -180.333 155 -315z" />
    <glyph glyph-name="uni0406" unicode="&#x406;" horiz-adv-x="1232" 
d="M123 1434h987v-217h-367v-1000h367v-217h-987v217h366v1000h-366v217z" />
    <glyph glyph-name="uni0407" unicode="&#x407;" horiz-adv-x="1232" 
d="M123 1434h987v-217h-367v-1000h367v-217h-987v217h366v1000h-366v217zM725 1586c-23.333 20 -35.001 47.667 -35.001 83s11.667 63 35 83c22.667 20 53.334 30 92.001 30c38 0 68.667 -10 92 -30s35 -47.667 35 -83s-11.667 -63 -35 -83s-54 -30 -92 -30
s-68.667 10 -92 30zM319.999 1586c-23.333 20 -34.999 47.667 -34.999 83s11.667 63 35 83s54 30 92 30c38.667 0 69.334 -10 92.001 -30c23.333 -20 35 -47.667 35 -83s-11.667 -63 -35 -83c-22.667 -20 -53.334 -30 -92.001 -30s-69.334 10 -92.001 30z" />
    <glyph glyph-name="uni0408" unicode="&#x408;" horiz-adv-x="1343" 
d="M427 282c47.333 -51.333 118.67 -77 214.003 -77s166.666 25.667 213.999 77s71 120.333 71 207v719h-588v226h842v-945c0 -158.667 -47 -283 -141 -373c-94.667 -90.667 -227.334 -136 -398.001 -136c-172.667 0 -305.334 45.333 -398.001 136
c-94 90.667 -141 215 -141 373v80h254v-80c0 -86.667 23.667 -155.667 71 -207z" />
    <glyph glyph-name="uni0409" unicode="&#x409;" horiz-adv-x="2250" 
d="M383 1434h917v-467h238c393.333 0 590 -161 590 -483c0 -322.667 -196.667 -484 -590 -484h-491v1208h-433l-90 -698c-25.333 -188 -65 -323 -119 -405c-55.333 -83.333 -145.333 -125 -270 -125c-40 0 -76.667 4 -110 12l-15 4v237c22.667 -5.33301 44 -8 64 -8
c62.667 0 106.667 22 132 66c26 44.667 45.333 117.667 58 219zM1300 217h238c216 0 324 89 324 267c0 177.333 -108 266 -324 266h-238v-533z" />
    <glyph glyph-name="uni040A" unicode="&#x40a;" horiz-adv-x="2320" 
d="M1104 1434h254v-553h280c372 0 558.667 -146.667 560 -440c0 -294 -186.667 -441 -560 -441h-534v664h-676v-664h-254v1434h254v-553h676v553zM1931 440c0 77.333 -24 134 -72 170s-121.667 54 -221 54h-280v-447h280c195.333 0 293 74.333 293 223z" />
    <glyph glyph-name="uni040B" unicode="&#x40b;" horiz-adv-x="1646" 
d="M367 1217h-347v217h1092v-217h-491v-326h264c218 0 375.667 -43 473 -129c96.667 -86 145 -224.667 145 -416v-346h-254v354c0 111.333 -29.167 192.5 -87.5 243.5s-149.833 76.5 -274.5 76.5h-266v-674h-254v1217z" />
    <glyph glyph-name="uni040C" unicode="&#x40c;" horiz-adv-x="1400" 
d="M1055 1434h305l-639 -709l680 -725h-307l-666 707v-707h-254v1434h254v-693zM823 1577h-207l308 328h297z" />
    <glyph glyph-name="uni040E" unicode="&#x40e;" horiz-adv-x="1402" 
d="M1083 1898v-6c0 -189.333 -120 -284 -360 -284c-240.667 0 -361 94.667 -361 284v6h203v-6c0 -35.333 14 -64.166 42 -86.499s66.667 -33.5 116 -33.5s88 11.167 116 33.5s42 51.166 42 86.499v6h202zM10 1434h265.999l459 -779h10l392 779h266l-535 -1045
c-73.333 -141.333 -141.666 -241.333 -204.999 -300c-64.667 -59.333 -154.667 -89 -270 -89h-127v217h113c58.667 0 102.667 12.667 132 38c30 26 60.333 70.667 91 134l10 21z" />
    <glyph glyph-name="uni040F" unicode="&#x40f;" horiz-adv-x="1601" 
d="M928 -348h-254v348h-500v1434h254v-1209h746v1209h253v-1434h-499v-348z" />
    <glyph glyph-name="uni0410" unicode="&#x410;" horiz-adv-x="1513" 
d="M592 1434h330l581 -1434h-266l-115 285h-731l-115 -285h-266zM481 506h551l-270 682h-10z" />
    <glyph glyph-name="uni0411" unicode="&#x411;" horiz-adv-x="1492" 
d="M174 1434h1065v-217h-811v-316h383c379.333 0 569 -150 569 -450c0 -300.667 -189.667 -451 -569 -451h-637v1434zM428 217h369c211.333 0 317 78 317 234c0 155.333 -105.667 233 -317 233h-369v-467z" />
    <glyph glyph-name="uni0412" unicode="&#x412;" horiz-adv-x="1501" 
d="M1378 403c0 -139.333 -44.333 -241.331 -133 -305.998s-228 -97 -418 -97h-653v1434h649c320.667 0 481.334 -130 482.001 -390c0 -40.667 -7 -79 -21 -115s-31.667 -64.333 -53 -85c-41.333 -41.333 -79 -68.666 -113 -81.999l-22 -6v-11
c7.33301 -0.666992 17.666 -2.66699 30.999 -6c11.333 -2.66699 33.666 -11.667 66.999 -27c30.667 -14.667 59.334 -33.334 86.001 -56.001c23.333 -20.667 46 -54.334 68 -101.001c20 -44.667 30 -95.334 30 -152.001zM428 209.002h406c185.333 0 278 69.667 278 209
s-92.667 209 -278 209h-406v-418zM428 827.002h367c162 0 243 66.333 243 199s-81 199 -243 199h-367v-398z" />
    <glyph glyph-name="uni0413" unicode="&#x413;" horiz-adv-x="1282" 
d="M174 1434h1067v-226h-813v-1208h-254v1434z" />
    <glyph glyph-name="uni0414" unicode="&#x414;" horiz-adv-x="1619" 
d="M264 -348h-254v569h74c49.333 0 88 23.167 116 69.5s48 120.833 60 223.5l109 920h999v-1213h201v-569h-254v348h-1051v-348zM395 229v-8h719v991h-518l-82 -698c-8.66699 -72 -22.667 -132.667 -42 -182s-37.333 -79.333 -54 -90z" />
    <glyph glyph-name="uni0415" unicode="&#x415;" horiz-adv-x="1419" 
d="M1296 0h-1122v1434h1122v-217h-868v-375h741v-213h-741v-412h868v-217z" />
    <glyph glyph-name="uni0416" unicode="&#x416;" horiz-adv-x="2076" 
d="M0 0l629 725l-588 709h305l565 -693v693h254v-693l566 693h305l-588 -709l629 -725h-308l-604 707v-707h-254v707l-604 -707h-307z" />
    <glyph glyph-name="uni0417" unicode="&#x417;" horiz-adv-x="1458" 
d="M123 412l-0.00292969 73.002h262v-73c0 -66 30.333 -117.667 91 -155s145 -56 253 -56c108.667 0 192.834 18.333 252.501 55s89.5 88.667 89.5 156c0 69.333 -27.667 122.5 -83 159.5s-135.333 55.5 -240 55.5h-175v213h172c190 0 285 65.333 285 196
c0 59.333 -27 107 -81 143s-131.333 54 -232 54c-98 0 -175.167 -18.833 -231.5 -56.5s-84.5 -89.834 -84.5 -156.501v-37h-262v39c0 130.667 50.667 235.667 152 315c100.667 78 242.667 117 426 117c178.667 0 319.334 -37.333 422.001 -112
c102 -74.667 153 -169.667 153 -285c0 -44.667 -7.5 -86.667 -22.5 -126s-33.833 -70 -56.5 -92c-47.333 -45.333 -88.333 -72.333 -123 -81l-23 -8v-13c29.333 -6.66699 60.333 -18.334 93 -35.001c30 -15.333 57.333 -34.333 82 -57c26 -24 48 -58.167 66 -102.5
s27 -92.166 27 -143.499c0 -132.667 -55 -235.667 -165 -309c-111.333 -73.333 -258.333 -110 -441 -110c-189.333 0 -337.666 38.667 -444.999 116s-161 182.666 -161 315.999z" />
    <glyph glyph-name="uni0418" unicode="&#x418;" horiz-adv-x="1644" 
d="M1217 1171h-15l-631 -1171h-397v1434h254v-1172h14l631 1172h397v-1434h-253v1171z" />
    <glyph glyph-name="uni0419" unicode="&#x419;" horiz-adv-x="1644" 
d="M1188 1898v-6c0 -189.333 -120 -284 -360 -284c-240.667 0 -361 94.667 -361 284v6h203v-6c0 -35.333 14 -64.166 42 -86.499s66.667 -33.5 116 -33.5c48.667 0 87 11.167 115 33.5s42 51.166 42 86.499v6h203zM1217 1171h-15l-631 -1171h-397v1434h254v-1172h14
l631 1172h397v-1434h-253v1171z" />
    <glyph glyph-name="uni041A" unicode="&#x41a;" horiz-adv-x="1400" 
d="M1055 1434h305l-639 -709l680 -725h-307l-666 707v-707h-254v1434h254v-693z" />
    <glyph glyph-name="uni041B" unicode="&#x41b;" horiz-adv-x="1564" 
d="M25 -8l-15 4v237c22.667 -5.33301 44 -8 64 -8c62.667 0 106.667 22 132 66c26 44.667 45.333 117.667 58 219l119 924h1008v-1434h-254v1208h-523l-90 -698c-25.333 -188 -65 -323 -119 -405c-55.333 -83.333 -145.333 -125 -270 -125c-40 0 -76.667 4 -110 12z" />
    <glyph glyph-name="uni041C" unicode="&#x41c;" horiz-adv-x="1900" 
d="M174 1434h412l360 -828h8l361 828h411v-1434h-253v1163h-11l-358 -798h-307l-359 798h-10v-1163h-254v1434z" />
    <glyph glyph-name="uni041D" unicode="&#x41d;" horiz-adv-x="1626" 
d="M1452 0h-254v633h-770v-633h-254v1434h254v-576h770v576h254v-1434z" />
    <glyph glyph-name="uni041E" unicode="&#x41e;" horiz-adv-x="1724" 
d="M1394 1252c131.333 -135.333 197 -313.667 197 -535c0 -220.667 -65.667 -398.667 -197 -534c-132 -135.333 -309.333 -203 -532 -203s-399.667 67.667 -531 203c-132 135.333 -198 313.333 -198 534c0 222 66 400.333 198 535c130.667 134.667 307.667 202 531 202
c222.667 0 400 -67.333 532 -202zM1201 352.999c82.667 94.667 124 216 124 364s-41.333 269.667 -124 365c-83.333 95.333 -196.333 143 -339 143s-255.667 -47.667 -339 -143c-82.667 -95.333 -124 -217 -124 -365s41.333 -269.333 124 -364
c83.333 -96 196.333 -144 339 -144s255.667 48 339 144z" />
    <glyph glyph-name="uni041F" unicode="&#x41f;" horiz-adv-x="1603" 
d="M1430 0h-254v1208h-748v-1208h-254v1434h1256v-1434z" />
    <glyph glyph-name="uni0420" unicode="&#x420;" horiz-adv-x="1472" 
d="M745 397h-317v-397h-254v1434h571c396 0 594 -172.667 594 -518c0 -346 -198 -519 -594 -519zM989 691c56 51.333 84 126.332 84 224.999s-28 173.334 -84 224.001c-56.667 51.333 -138 77 -244 77h-317v-603h317c106 0 187.333 25.667 244 77z" />
    <glyph glyph-name="uni0421" unicode="&#x421;" horiz-adv-x="1695" 
d="M331 183c-132 135.333 -198.001 313.334 -198.001 534.001c0 222 66 400.333 198 535c130.667 134.667 307.667 202 531 202c96 0 185.667 -14 269 -42c81.333 -27.333 149 -63 203 -107c52 -43.333 97.333 -92.333 136 -147c68.667 -98.667 103 -196 103 -292h-266
c2 20 -9.5 55.667 -34.5 107s-59.167 98 -102.5 140c-34 32.667 -78.167 59.5 -132.5 80.5s-112.833 31.5 -175.5 31.5c-142 0 -254.667 -47.667 -338 -143c-83.333 -96.667 -125 -218.334 -125 -365.001c0 -147.333 41.667 -268.666 125 -363.999
c82.667 -96 195.334 -144 338.001 -144c62.667 0 121.167 10.5 175.5 31.5s98.5 47.833 132.5 80.5c32 32 58.667 65 80 99c38 62.667 57 111.667 57 147h266c0 -96 -34.333 -193 -103 -291c-38.667 -54.667 -84 -103.667 -136 -147
c-54 -44.667 -121.333 -80.334 -202 -107.001c-82.667 -28 -172.667 -42 -270 -42c-222.667 0 -399.667 67.667 -531 203z" />
    <glyph glyph-name="uni0422" unicode="&#x422;" horiz-adv-x="1318" 
d="M532 1208h-501v226h1257v-226h-502v-1208h-254v1208z" />
    <glyph glyph-name="uni0423" unicode="&#x423;" horiz-adv-x="1402" 
d="M10 1434h265.999l459 -779h10l392 779h266l-535 -1045c-73.333 -141.333 -141.666 -241.333 -204.999 -300c-64.667 -59.333 -154.667 -89 -270 -89h-127v217h113c58.667 0 102.667 12.667 132 38c30 26 60.333 70.667 91 134l10 21z" />
    <glyph glyph-name="uni0424" unicode="&#x424;" horiz-adv-x="1961" 
d="M854 1454l254.002 0.000976562v-143c228 -4 408.667 -54.667 542 -152c132.667 -98 199 -245.333 199 -442c0 -198.667 -66.333 -346.334 -199 -443.001c-132.667 -97.333 -313.334 -147.666 -542.001 -150.999v-143h-254v143c-228 3.33301 -408.333 53.666 -541 150.999
c-133.333 97.333 -200 245 -200 443c0 196.667 66.667 344 200 442c133.333 97.333 313.666 148 540.999 152v143zM1583 717.001c0 123.333 -42 215.667 -126 277s-200.333 93.333 -349 96v-746c316.667 6.66699 475 131 475 373zM379.002 717.002
c0 -242 158.332 -366.333 474.999 -373v746c-149.333 -3.33301 -265.666 -35 -348.999 -95c-84 -61.333 -126 -154 -126 -278z" />
    <glyph glyph-name="uni0425" unicode="&#x425;" horiz-adv-x="1368" 
d="M684 944h4l326 490h293l-476 -689l517 -745h-293l-367 541h-8l-367 -541h-293l517 745l-476 689h293l326 -490h4z" />
    <glyph glyph-name="uni0426" unicode="&#x426;" horiz-adv-x="1613" 
d="M1563 -348h-254v348h-1135v1434h254v-1209h680v1209h254v-1209h201v-573z" />
    <glyph glyph-name="uni0427" unicode="&#x427;" horiz-adv-x="1478" 
d="M154 999l0.000976562 435.001h254v-435c0 -111.333 29.667 -192.333 89 -243s151.666 -76 276.999 -76h277v754h254v-1434h-254v455h-277c-217.333 0 -375 44 -473 132c-98 87.333 -147 224.666 -147 411.999z" />
    <glyph glyph-name="uni0428" unicode="&#x428;" horiz-adv-x="2056" 
d="M1155 225h473v1209h254v-1434h-1708v1434h254v-1209h473v1209h254v-1209z" />
    <glyph glyph-name="uni0429" unicode="&#x429;" horiz-adv-x="2134" 
d="M2083 -348h-254v348h-1655v1434h254v-1209h473v1209h254v-1209h473v1209h254v-1209h201v-573z" />
    <glyph glyph-name="uni042A" unicode="&#x42a;" horiz-adv-x="1669" 
d="M0 1434h621v-467h335c393.333 0 590 -161 590 -483c0 -322.667 -196.667 -484 -590 -484h-589v1212h-367v222zM621 217h335c216 0 324 89 324 267c0 177.333 -108 266 -324 266h-335v-533z" />
    <glyph glyph-name="uni042B" unicode="&#x42b;" horiz-adv-x="1931" 
d="M1503 1434h254v-1434h-254v1434zM174 1434h254v-467h295c393.333 0 590 -161 590 -483c0 -322.667 -196.667 -484 -590 -484h-549v1434zM428 217h295c216 0 324 89 324 267c0 177.333 -108 266 -324 266h-295v-533z" />
    <glyph glyph-name="uni042C" unicode="&#x42c;" horiz-adv-x="1474" 
d="M172 1434h254v-467h336c393.333 0 590 -161 590 -483c0 -322.667 -196.667 -484 -590 -484h-590v1434zM426 217h336c215.333 0 323 89 323 267c0 177.333 -107.667 266 -323 266h-336v-533z" />
    <glyph glyph-name="uni042D" unicode="&#x42d;" horiz-adv-x="1695" 
d="M1290 612l-545 -0.00195312v209h545c0 69.333 -31.667 149.666 -95 240.999c-32.667 46 -80 84.667 -142 116c-64 31.333 -135.667 47 -215 47c-80 0 -151.667 -16 -215 -48c-64 -33.333 -111.333 -71.333 -142 -114c-61.333 -86 -92 -151.667 -92 -197h-266
c0 96 34.667 193.333 104 292c36.667 54 81.667 103 135 147c52.667 44 120 79.667 202 107c82.667 28 172.667 42 270 42c222.667 0 400 -67.333 532 -202c131.333 -135.333 197 -313.666 197 -534.999c0 -220.667 -66 -398.667 -198 -534s-309 -203 -531 -203
c-96 0 -185.667 14 -269 42c-82.667 26.667 -150.334 62.334 -203.001 107.001c-53.333 44 -98.333 93 -135 147c-69.333 97.333 -104 194.333 -104 291h266c0 -19.333 7.83301 -46.5 23.5 -81.5s38.5 -73.167 68.5 -114.5c30.667 -43.333 78 -81.333 142 -114
c62.667 -32 134.334 -48 215.001 -48c79.333 0 151 15.667 215 47c62 30.667 109.333 69.334 142 116.001c63.333 90 95 170 95 240z" />
    <glyph glyph-name="uni042E" unicode="&#x42e;" horiz-adv-x="2101" 
d="M1793 1247c116.667 -137.333 175 -314 175 -530c0 -216.667 -58.333 -393.334 -175 -530.001c-117.333 -138 -280.666 -207 -489.999 -207c-83.333 0 -160.5 11.333 -231.5 34s-129.5 53 -175.5 91c-45.333 36.667 -84.333 77.667 -117 123
c-67.333 92.667 -111.333 208.334 -132 347.001l-4 35h-215v-610h-254v1434h254v-598h217c0 8 1 19.667 3 35c1.33301 12 8 41 20 87c12 48 26.5 91 43.5 129s41.5 79.333 73.5 124c36 50 76 91.5 120 124.5s99.667 60.833 167 83.5c70 23.333 147 35 231 35
c209.333 0 372.666 -69 489.999 -207zM1603 351c66 96.667 99 218.667 99 366c0 148 -33 270.333 -99 367c-66.667 96.667 -166.667 145 -300 145c-134 0 -234 -48.333 -300 -145c-66.667 -96.667 -100 -219 -100 -367c0 -147.333 33.333 -269.333 100 -366
c66 -97.333 166 -146 300 -146c132.667 0 232.667 48.667 300 146z" />
    <glyph glyph-name="uni042F" unicode="&#x42f;" horiz-adv-x="1445" 
d="M1272 0l-254 0.000976562v487h-350l-283 -487h-283l312 535c-4.66699 -1.33301 -16 2 -34 10s-41.667 22.667 -71 44s-55.333 46.333 -78 75c-26.667 32 -49 75.167 -67 129.5s-27 112.166 -27 173.499c0 144.667 46 258.667 138 342c91.333 83.333 219.333 125 384 125
h613v-1434zM403 961.001c0 -76.667 23 -138.333 69 -185c46 -47.333 105 -71 177 -71h369v512h-359c-72 0 -132.667 -23.667 -182 -71c-49.333 -48 -74 -109.667 -74 -185z" />
    <glyph glyph-name="uni0430" unicode="&#x430;" horiz-adv-x="1333" 
d="M113 283c0 104 43.667 181.999 131 233.999c87.333 51.333 197.666 77 330.999 77c67.333 0 130.666 -8 189.999 -24c59.333 -17.333 100.666 -34 123.999 -50l35 -22v145c0 55.333 -21 101.333 -63 138c-42.667 36.667 -110 55 -202 55
c-81.333 0 -145 -12.833 -191 -38.5s-69 -62.834 -69 -111.501h-237c0.666992 112.667 47 197.334 139 254.001c91.333 56 210.666 84 357.999 84c150.667 0 270.667 -32.333 360 -97c89.333 -65.333 134 -160 134 -284v-334c0 -46 5.83301 -78.333 17.5 -97
s31.834 -28 60.501 -28c24.667 0 40.334 3 47.001 9l4 2v-197c-22.667 -12 -58.667 -18 -108 -18c-54.667 0 -100.667 11 -138 33c-37.333 20.667 -61.666 42.334 -72.999 65.001l-15 33h-12c-6 -9.33301 -23.667 -24.333 -53 -45c-24.667 -16.667 -49 -30 -73 -40
c-68 -30.667 -155 -46 -261 -46c-127.333 0 -231.666 25.333 -312.999 76c-82 50 -123 125.667 -123 227zM637 167.999c58.667 0 112 7.00098 160 21.001c46.667 12.667 80 26 100 40l27 21v96c-55.333 41.333 -151 62.666 -287 63.999c-191.333 0 -287 -39.667 -287 -119
c0 -82 95.667 -123 287 -123z" />
    <glyph glyph-name="uni0431" unicode="&#x431;" horiz-adv-x="1359" 
d="M358 766l9 -0.00195312c5.33301 14 20 32.667 44 56c18.667 17.333 40.334 33 65.001 47c69.333 36.667 155.666 55 258.999 55c156.667 0 281.334 -42.667 374.001 -128c92 -85.333 138 -199 138 -341c0 -142.667 -50.667 -257.667 -152 -345
c-101.333 -86.667 -235 -130 -401 -130c-172 0 -310 55 -414 165c-104.667 108.667 -157 265.667 -157 471v39c0 198 49 356 147 474c97.333 117.333 240.666 176 429.999 176c76.667 0 131.667 9.83301 165 29.5s50 52.834 50 99.501h238
c0 -55.333 -5.33301 -101.166 -16 -137.499s-30 -69.833 -58 -100.5c-55.333 -61.333 -167.333 -92 -336 -92c-130 0 -226.667 -34 -290 -102c-63.333 -69.333 -95 -148 -95 -236zM458 646.998c-58 -51.333 -87 -116.002 -87 -194.002c0 -79.333 29 -144.666 87 -195.999
c58.667 -51.333 136.334 -77 233.001 -77c97.333 0 174.666 25.333 231.999 76c58 50.667 87 116.334 87 197.001c0 80 -29 145 -87 195s-135.333 75 -232 75c-98 0 -175.667 -25.333 -233 -76z" />
    <glyph glyph-name="uni0432" unicode="&#x432;" horiz-adv-x="1267" 
d="M1155 283c0 -102.667 -33.332 -175.333 -99.999 -218c-67.333 -43.333 -174.666 -65 -321.999 -65h-579v1004h530c273.333 0 410 -87 410 -261c0 -54.667 -13.667 -99.667 -41 -135s-54.666 -57 -81.999 -65l-43 -13v-12c19.333 0 45.666 -6 78.999 -18
c27.333 -10 50.666 -22.333 69.999 -37c21.333 -16.667 39.666 -41 54.999 -73s23 -67.667 23 -107zM383.001 180.001h338c131.333 0 197 41 197 123s-65.667 123 -197 123h-338v-246zM383.001 590.001h307c110.667 0 166 39 166 117c0 77.333 -58.667 116 -176 116h-297
v-233z" />
    <glyph glyph-name="uni0433" unicode="&#x433;" horiz-adv-x="1017" 
d="M154 0v1004h833v-205h-604v-799h-229z" />
    <glyph glyph-name="uni0434" unicode="&#x434;" horiz-adv-x="1275" 
d="M229 -256h-229.001v453h66c44 0 75 18.667 93 56c18.667 38 33.334 100.333 44.001 187l71 564h816v-807h145v-453h-229v256h-777v-256zM859.999 807l-384.999 0.000976562l-47 -367c-10.667 -84.667 -26.334 -147 -47.001 -187c-14 -28.667 -27.667 -45.334 -41 -50.001
l-8 -2v-4h528v610z" />
    <glyph glyph-name="uni0435" unicode="&#x435;" horiz-adv-x="1355" 
d="M1243 502l-5.99902 -81.999h-879c6.66699 -30 17 -58 31 -84c14.667 -28 32.334 -52.333 53.001 -73c23.333 -23.333 56 -43.333 98 -60s88 -25 138 -25c55.333 0 104 9.33301 146 28c41.333 18 69.666 36 84.999 54l23 27h270c-8 -21.333 -17.333 -41.333 -28 -60
c-28 -47.333 -64.667 -89 -110 -125c-62 -50.667 -136 -85.667 -222 -105c-52.667 -11.333 -107.334 -17 -164.001 -17c-166 0 -301.667 46.667 -407 140s-158 220.666 -158 381.999c0 160.667 52.667 288 158 382c105.333 93.333 241 140 407 140
c166.667 0 302.667 -46.667 408 -140c104.667 -94 157 -221.333 157 -382zM678.001 825.001c-51.333 0 -97.502 -7.49902 -138.502 -22.499s-72.833 -33.833 -95.5 -56.5c-43.333 -45.333 -69.666 -86.333 -78.999 -123l-5 -23h631c0 16 -9 42 -27 78
c-12 24.667 -28.333 47.667 -49 69c-22 21.333 -54.167 39.666 -96.5 54.999s-89.166 23 -140.499 23z" />
    <glyph glyph-name="uni0436" unicode="&#x436;" horiz-adv-x="1728" 
d="M0 0l496 510l-459 494h280l433 -484v484h229v-484l432 484h281l-459 -494l496 -510h-287l-463 494v-494h-229v494l-463 -494h-287z" />
    <glyph glyph-name="uni0437" unicode="&#x437;" horiz-adv-x="1232" 
d="M102 303l-0.000976562 29.001h238v-23c0 -50 20.833 -85.333 62.5 -106s110.834 -31 207.501 -31c180.667 0 271.667 41.667 273 125c0 44.667 -20.667 75.667 -62 93s-111 26 -209 26h-147v184h172c144.667 0 217 37.667 217 113c0 79.333 -83.333 118.666 -250 117.999
c-83.333 0 -145.833 -11.833 -187.5 -35.5s-62.5 -56.167 -62.5 -97.5v-8h-237v15c0 104 45.333 183.333 136 238c91.333 54 208.333 81 351 81c146.667 0 264.667 -24.333 354 -73c89.333 -49.333 134 -122 134 -218c0 -35.333 -6.66699 -67.5 -20 -96.5
s-30.333 -50.5 -51 -64.5c-40.667 -28.667 -77.334 -44.667 -110.001 -48l-20 -4v-8c16.667 0 43.334 -6.66699 80.001 -20c26 -10 49.333 -22.333 70 -37c22 -16.667 40.667 -40.167 56 -70.5s23 -63.5 23 -99.5c0 -203.333 -170 -305 -510 -305
c-338.667 -0.666992 -508 107 -508 323z" />
    <glyph glyph-name="uni0438" unicode="&#x438;" horiz-adv-x="1345" 
d="M1192 0h-229v768h-11l-456 -768h-342v1004h229v-768h10l457 768h342v-1004z" />
    <glyph glyph-name="uni0439" unicode="&#x439;" horiz-adv-x="1345" 
d="M1192 0h-229v768h-11l-456 -768h-342v1004h229v-768h10l457 768h342v-1004zM895 1208c-52.667 -40.667 -126.333 -60.999 -221 -60.999c-94 0 -167.667 20.667 -221 62s-80 99 -80 173v9h172v-5c0 -28.667 11.167 -51.834 33.5 -69.501s54.166 -26.5 95.499 -26.5
c40.667 0 72.334 9 95.001 27s34 41 34 69v5h172v-9c0 -74.667 -26.667 -132.667 -80 -174z" />
    <glyph glyph-name="uni043A" unicode="&#x43a;" horiz-adv-x="1183" 
d="M866 1004h281l-496 -494l533 -510h-287l-514 494v-494h-229v1004h229v-484z" />
    <glyph glyph-name="uni043B" unicode="&#x43b;" horiz-adv-x="1263" 
d="M207 420l89.999 584h813v-1004h-229v799h-385l-60 -379c-25.333 -160 -62 -273 -110 -339c-49.333 -67.333 -119.666 -101 -210.999 -101c-34 0 -67 4 -99 12l-16 6v209c20.667 -6.66699 42.667 -10 66 -10c42.667 0 74 17.5 94 52.5s35.667 91.833 47 170.5z" />
    <glyph glyph-name="uni043C" unicode="&#x43c;" horiz-adv-x="1548" 
d="M778 422l244 582h373v-1004h-230v739h-12l-213 -491h-332l-213 491h-12v-739h-229v1004h372l244 -582h8z" />
    <glyph glyph-name="uni043D" unicode="&#x43d;" horiz-adv-x="1331" 
d="M1178 0h-230v408h-565v-408h-229v1004h229v-392h565v392h230v-1004z" />
    <glyph glyph-name="uni043E" unicode="&#x43e;" horiz-adv-x="1355" 
d="M271 120c-105.333 93.333 -158 220.667 -158 382c0 160.667 52.667 288 158 382c105.333 93.333 241 140 407 140c166.667 0 302.667 -46.667 408 -140c104.667 -94 157 -221.333 157 -382c0 -162 -52.333 -289.333 -157 -382c-105.333 -93.333 -241.333 -140 -408 -140
c-166 0 -301.667 46.667 -407 140zM916 275.001c60 58 90 133.667 90 227c0 92.667 -30 168 -90 226c-61.333 58 -140.666 87 -237.999 87c-98.667 0 -178 -29 -238 -87s-90 -133.333 -90 -226c0 -93.333 30 -169 90 -227s139.333 -87 238 -87
c97.333 0 176.666 29 237.999 87z" />
    <glyph glyph-name="uni043F" unicode="&#x43f;" horiz-adv-x="1323" 
d="M1169 0h-229v799h-557v-799h-229v1004h1015v-1004z" />
    <glyph glyph-name="uni0440" unicode="&#x440;" 
d="M741 1024c150 0 276.668 -46.998 380.001 -140.998c103.333 -95.333 155 -222.333 155 -381c0 -160 -51.333 -287 -154 -381s-229.667 -141 -381 -141c-74.667 0 -139.667 12.667 -195 38c-58.667 25.333 -98.667 50.666 -120 75.999l-33 37h-10v-541h-229v1414h229v-132
h10c8 12 25.333 30 52 54c22.667 19.333 45 34.666 67 45.999c65.333 34.667 141.666 52 228.999 52zM948.001 275.002c60 58 90 133.667 90 227c0 92.667 -30 168 -90 226s-139 87 -237 87c-98.667 0 -178 -29 -238 -87s-90 -133.333 -90 -226c0 -93.333 30 -169 90 -227
s139.333 -87 238 -87c98 0 177 29 237 87z" />
    <glyph glyph-name="uni0441" unicode="&#x441;" horiz-adv-x="1331" 
d="M271 120c-105.333 93.333 -157.999 220.667 -157.999 382c0 160.667 52.667 288 158 382c105.333 93.333 241 140 407 140c93.333 0 177.333 -15 252 -45c75.333 -30 133.333 -67.333 174 -112c83.333 -91.333 125 -175.666 125 -252.999h-242
c-5.33301 19.333 -17 42.666 -35 69.999c-17.333 24.667 -35.666 45.334 -54.999 62.001c-22.667 19.333 -53.5 35.666 -92.5 48.999s-81.167 20 -126.5 20c-98 0 -177 -29 -237 -87c-60.667 -58 -91 -133.333 -91 -226c0 -93.333 30 -169 90 -227s139.333 -87 238 -87
c46 0 88.167 6.5 126.5 19.5s69.166 30.167 92.499 51.5c45.333 41.333 72.666 78 81.999 110l8 20h242c0 -76 -41.667 -159.667 -125 -251c-41.333 -45.333 -99.333 -83 -174 -113s-158.667 -45 -252 -45c-166 0 -301.667 46.667 -407 140z" />
    <glyph glyph-name="uni0442" unicode="&#x442;" horiz-adv-x="1060" 
d="M416 799h-396v205h1020v-205h-395v-801l-229 2v799z" />
    <glyph glyph-name="uni0443" unicode="&#x443;" horiz-adv-x="1167" 
d="M10 1004h246l340 -764h10l303 764h248l-440 -1065c-48.667 -117.333 -105 -208 -169 -272c-64.667 -64.667 -144.334 -97 -239.001 -97c-50 0 -91.667 5.33301 -125 16l-20 4v209c34.667 -13.333 76.334 -20 125.001 -20c83.333 0 146 53.333 188 160l8 20z" />
    <glyph glyph-name="uni0444" unicode="&#x444;" horiz-adv-x="1626" 
d="M928 1434v-410c181.333 -6.66699 324.333 -55.667 429 -147c104 -92 156 -217 156 -375c0 -158.667 -52 -283.667 -156 -375c-104.667 -91.333 -247.667 -140.333 -429 -147v-390h-230v390c-181.333 7.33301 -324 56.333 -428 147c-104.667 90.667 -157 215.667 -157 375
c0 158 52.333 283 157 375c104 90.667 246.667 139.667 428 147v410h230zM928 827v-651.001c114 4 200.667 35.667 260 95c58.667 58.667 88 135.667 88 231c0 94.667 -29.333 171.334 -88 230.001c-59.333 59.333 -146 91 -260 95zM698 175.999v651.001
c-114 -4 -200.667 -35.667 -260 -95c-58.667 -58.667 -88 -135.334 -88 -230.001c0 -95.333 29.333 -172.333 88 -231c59.333 -59.333 146 -91 260 -95z" />
    <glyph glyph-name="uni0445" unicode="&#x445;" horiz-adv-x="1099" 
d="M799 1004h262l-381 -478l420 -526h-262l-283 365h-10l-283 -365h-262l420 526l-381 478h262l244 -318h10z" />
    <glyph glyph-name="uni0446" unicode="&#x446;" horiz-adv-x="1312" 
d="M1042 -256v256h-888v1004h229v-799h512v799h229v-799h148v-461h-230z" />
    <glyph glyph-name="uni0447" unicode="&#x447;" horiz-adv-x="1239" 
d="M856 303h-262c-307.333 0 -461 139.333 -461 418v283h229v-283c0 -72 19.5 -125.5 58.5 -160.5s101.5 -52.5 187.5 -52.5h248v496h229v-1004h-229v303z" />
    <glyph glyph-name="uni0448" unicode="&#x448;" horiz-adv-x="1710" 
d="M383 205h358v799h230v-799h356v799h229v-1004h-1402v1004h229v-799z" />
    <glyph glyph-name="uni0449" unicode="&#x449;" horiz-adv-x="1742" 
d="M1473 -256v256h-1319v1004h229v-799h358v799h230v-799h356v799h229v-799h146v-461h-229z" />
    <glyph glyph-name="uni044A" unicode="&#x44a;" horiz-adv-x="1304" 
d="M303 815h-303v189h532v-320h218c302 0 453 -114 453 -342c-0.666992 -228 -151.667 -342 -453 -342h-447v815zM912 222c35.333 25.333 53 65.333 53 120s-17.667 94.667 -53 120c-36.667 25.333 -97 38 -181 38h-199v-316h199c84 0 144.333 12.667 181 38z" />
    <glyph glyph-name="uni044B" unicode="&#x44b;" horiz-adv-x="1576" 
d="M1194 0v1004h229v-1004h-229zM154 0v1004h229v-320h186c302 0 453 -114 453 -342s-151 -342 -453 -342h-415zM731 222c35.333 25.333 53 65.333 53 120s-17.667 94.667 -53 120s-95.333 38 -180 38h-168v-316h168c84.667 0 144.667 12.667 180 38z" />
    <glyph glyph-name="uni044C" unicode="&#x44c;" horiz-adv-x="1155" 
d="M154 0v1004h229v-320h217c302 0 453 -114 453 -342s-151 -342 -453 -342h-446zM762 222c35.333 25.333 53 65.333 53 120s-17.667 94.667 -53 120s-95.333 38 -180 38h-199v-316h199c84.667 0 144.667 12.667 180 38z" />
    <glyph glyph-name="uni044D" unicode="&#x44d;" horiz-adv-x="1331" 
d="M604 410l-0.00195312 97.999v86h367c0 39.333 -27 86 -81 140s-133 81 -237 81c-46 0 -88.5 -6.5 -127.5 -19.5s-69.833 -29.833 -92.5 -50.5c-44.667 -41.333 -71.667 -78 -81 -110l-8 -21h-242c0 76.667 42 161 126 253c40.667 44.667 98.667 82 174 112
c74.667 30 158.334 45 251.001 45c166.667 0 302.667 -46.667 408 -140c105.333 -94 158 -221.333 158 -382c0 -161.333 -52.667 -288.666 -158 -381.999s-241.333 -140 -408 -140c-92.667 0 -176.334 15 -251.001 45s-132.667 67.667 -174 113
c-84 92 -126 175.667 -126 251h242c4.66699 -17.333 16.334 -40.333 35.001 -69c16.667 -25.333 34.334 -46 53.001 -62c22 -19.333 52.833 -35.833 92.5 -49.5s82.5 -20.5 128.5 -20.5c102 0 180.667 27 236 81c54.667 54 82 101 82 141h-367z" />
    <glyph glyph-name="uni044E" unicode="&#x44e;" horiz-adv-x="1695" 
d="M1444 881c92.667 -95.333 139 -221.667 139 -379c0 -158 -46.333 -284.333 -139 -379c-93.333 -95.333 -217.666 -143 -372.999 -143c-85.333 0 -161.333 14.667 -228 44c-66.667 28.667 -116.667 64.334 -150 107.001c-66 81.333 -106 157.666 -120 228.999l-6 43h-184
v-403h-229v1004h229v-396h186c0.666992 10.667 3.66699 25.667 9 45c4 18 16.667 51.667 38 101c22 48.667 48.667 90.667 80 126c33.333 36.667 83 69.667 149 99c66 30 141.333 45 226 45c155.333 0 279.666 -47.667 372.999 -143zM1274 274.999c48 60 72 135.667 72 227
s-24 167 -72 227s-115.667 90 -203 90c-88 0 -155.333 -30 -202 -90c-48 -60 -72 -135.667 -72 -227s24 -167 72 -227c46.667 -60.667 114 -91 202 -91c87.333 0 155 30.333 203 91z" />
    <glyph glyph-name="uni044F" unicode="&#x44f;" horiz-adv-x="1200" 
d="M344 0l-252 0.000976562l230 360c-20 5.33301 -44.667 17.666 -74 36.999c-24 14.667 -45.333 32.667 -64 54c-20 22 -37.167 52.333 -51.5 91s-21.5 80 -21.5 124c0 225.333 148 338 444 338h492v-1004h-230v326h-266zM348 666.001c0 -104 75 -156 225 -156h244v309
h-244c-150 0.666992 -225 -50.333 -225 -153z" />
    <glyph glyph-name="uni0451" unicode="&#x451;" horiz-adv-x="1355" 
d="M1243 502l-5.99902 -81.999h-879c6.66699 -30 17 -58 31 -84c14.667 -28 32.334 -52.333 53.001 -73c23.333 -23.333 56 -43.333 98 -60s88 -25 138 -25c55.333 0 104 9.33301 146 28c41.333 18 69.666 36 84.999 54l23 27h270c-8 -21.333 -17.333 -41.333 -28 -60
c-28 -47.333 -64.667 -89 -110 -125c-62 -50.667 -136 -85.667 -222 -105c-52.667 -11.333 -107.334 -17 -164.001 -17c-166 0 -301.667 46.667 -407 140s-158 220.666 -158 381.999c0 160.667 52.667 288 158 382c105.333 93.333 241 140 407 140
c166.667 0 302.667 -46.667 408 -140c104.667 -94 157 -221.333 157 -382zM678.001 825.001c-51.333 0 -97.502 -7.49902 -138.502 -22.499s-72.833 -33.833 -95.5 -56.5c-43.333 -45.333 -69.666 -86.333 -78.999 -123l-5 -23h631c0 16 -9 42 -27 78
c-12 24.667 -28.333 47.667 -49 69c-22 21.333 -54.167 39.666 -96.5 54.999s-89.166 23 -140.499 23zM788.999 1187c-23.333 20 -35 47.667 -35 83s11.667 63 35 83c23.333 19.333 54 29 92 29s68.667 -9.66699 92 -29c23.333 -20 35 -47.667 35 -83s-11.667 -63 -35 -83
s-54 -30 -92 -30s-68.667 10 -92 30zM382.999 1187c-23.333 20 -35 47.667 -35 83s11.667 63 35 83c23.333 19.333 54 29 92 29s68.667 -9.66699 92 -29c23.333 -20 35 -47.667 35 -83s-11.667 -63 -35 -83s-54 -30 -92 -30s-68.667 10 -92 30z" />
    <glyph glyph-name="uni0452" unicode="&#x452;" horiz-adv-x="1386" 
d="M1243 457v-492c0 -263.333 -121.333 -395 -364 -395c-52 0 -96.667 6 -134 18l-18 6v205c30.667 -13.333 64.667 -20 102 -20c62 0 108.667 14.667 140 44c30 28.667 45 84.334 45 167.001v407c0 102 -23.667 178.833 -71 230.5s-114 77.5 -200 77.5
c-87.333 0 -154.166 -27.333 -200.499 -82s-69.5 -130 -69.5 -226v-397h-229v1073h-244v197h244v164h229v-164h369v-197h-369v-340h12c4 14 18 35 42 63c15.333 19.333 35.666 37.666 60.999 54.999c26 17.333 60.333 32 103 44s88 18 136 18
c123.333 0 223.333 -38 300 -114c77.333 -77.333 116 -191.333 116 -342z" />
    <glyph glyph-name="uni0453" unicode="&#x453;" horiz-adv-x="1017" 
d="M686 1126h-207l307 328h297zM154 0v1004h833v-205h-604v-799h-229z" />
    <glyph glyph-name="uni0454" unicode="&#x454;" horiz-adv-x="1331" 
d="M360 594l366.998 0.00195312v-86v-98h-367c0 -39.333 27.333 -86 82 -140c54.667 -54.667 133.334 -82 236.001 -82c47.333 0 90.5 6.5 129.5 19.5s69.833 30.167 92.5 51.5c45.333 42 72.333 78.667 81 110l6 20h242c0 -76 -41.667 -159.667 -125 -251
c-41.333 -45.333 -99.333 -83 -174 -113s-158.667 -45 -252 -45c-166 0 -301.667 46.667 -407 140s-158 220.666 -158 381.999c0 160.667 52.667 288 158 382c105.333 93.333 241 140 407 140c93.333 0 177.333 -15 252 -45c75.333 -30 133.333 -67.333 174 -112
c83.333 -91.333 125 -175.666 125 -252.999h-242c-5.33301 19.333 -16.666 42.666 -33.999 69.999c-15.333 24 -33.333 44.667 -54 62c-22 19.333 -53 35.666 -93 48.999s-82.667 20 -128 20c-104 0 -183 -27 -237 -81s-81 -100.667 -81 -140z" />
    <glyph glyph-name="uni0455" unicode="&#x455;" horiz-adv-x="1224" 
d="M1083 680l-236.999 -0.00195312c0 50 -17.333 88.333 -52 115c-35.333 27.333 -100 41 -194 41c-160 0 -240 -38.333 -240 -115c0 -32.667 19 -57 57 -73c36.667 -17.333 83.667 -27.333 141 -30c61.333 -4 122.666 -10.333 183.999 -19
c65.333 -8.66699 126.333 -20.667 183 -36c56.667 -16 103.667 -46 141 -90c37.333 -45.333 56 -102.666 56 -171.999c0 -75.333 -23 -137.666 -69 -186.999c-47.333 -50.667 -107.333 -85.334 -180 -104.001c-74 -20 -161.667 -30 -263 -30
c-153.333 0 -276.333 27.667 -369 83c-92.667 54.667 -139 143 -139 265v32h238v-32c0 -106.667 90 -160 270 -160c182 0 273.667 43.667 275 131c0 42.667 -26.333 72.334 -79 89.001c-53.333 17.333 -116.666 28.333 -189.999 33c-74.667 4.66699 -149 12.667 -223 24
c-75.333 11.333 -139 39 -191 83c-52.667 44 -79 107 -79 189c0 101.333 43.333 178 130 230c87.333 51.333 203.666 77 348.999 77c148.667 0 266 -28 352 -84s129 -142.667 129 -260z" />
    <glyph glyph-name="uni0456" unicode="&#x456;" horiz-adv-x="536" 
d="M154 1004h229v-1004h-229v1004zM170 1250c-24.667 20.667 -36.999 49.333 -36.999 86c0 35.333 12.333 64 37 86c25.333 21.333 58.333 32 99 32c40 0 72.667 -10.667 98 -32c24 -22 36 -50.667 36 -86c0 -36 -12 -64.667 -36 -86c-24.667 -22 -57.334 -33 -98.001 -33
s-73.667 11 -99 33z" />
    <glyph glyph-name="uni0457" unicode="&#x457;" horiz-adv-x="536" 
d="M154 1004h229v-1004h-229v1004zM387 1187c-23.333 20 -35 47.667 -35 83s11.667 63 35 83c23.333 19.333 54.333 29 93 29c38 0 68.667 -9.66699 92 -29c22.667 -20 34 -47.667 34 -83s-11.333 -63 -34 -83c-23.333 -20 -54 -30 -92 -30c-38.667 0 -69.667 10 -93 30z
M-19 1187c-22.667 20 -34 47.667 -34 83s11.333 63 34 83c24.667 19.333 55.667 29 93 29c38 0 68.667 -9.66699 92 -29c23.333 -20 35 -47.667 35 -83s-11.667 -63 -35 -83s-54 -30 -92 -30s-69 10 -93 30z" />
    </font>
</defs>
</svg>
